<svg width="34" height="19" viewBox="0 0 34 19" fill="none" xmlns="http://www.w3.org/2000/svg">
<g clip-path="url(#clip0_2844_3480)">
<path d="M4.96777 11.3868C5.0263 10.7239 5.61339 9.33203 6.02429 8.77266C7.72563 6.45661 9.73475 6.75814 11.9708 7.09373C12.5911 7.18683 13.2288 7.28254 13.8823 7.32572C16.864 7.52276 19.721 7.14066 22.5575 6.48128C24.1191 6.11835 27.7821 6.06564 29.3842 6.26208C31.6143 6.53518 33.7613 7.87311 34.0001 10.3717V11.7815C33.948 11.9336 33.9282 12.0988 33.9083 12.2645C33.894 12.3839 33.8796 12.5036 33.8532 12.6188C33.0232 16.2493 28.3206 18.1741 25.1253 18.815L23.5683 19.0006H21.9675L18.4619 18.552C17.0858 18.1849 15.578 17.8711 14.1416 17.6076C13.4023 17.472 12.6445 17.3928 11.8947 17.3145C8.98948 17.011 6.20529 16.7202 5.08308 13.2051C5.062 13.1392 5.05641 13.0589 5.05068 12.9764C5.04193 12.8506 5.03284 12.7199 4.96777 12.6284C4.97999 12.4374 4.9727 12.2375 4.96543 12.0378C4.95737 11.8167 4.94931 11.5958 4.96777 11.3874V11.3868ZM30.3365 7.46227C29.0822 7.06021 27.6912 7.12639 26.3756 7.189C26.2018 7.19727 26.0294 7.20547 25.8587 7.21253C25.689 7.21956 25.5154 7.22507 25.3397 7.23065C24.4224 7.25978 23.4466 7.29077 22.6459 7.54911L20.6985 7.83419C20.6935 7.90461 20.6901 7.9287 20.7 7.93707C20.7099 7.94542 20.7331 7.9381 20.781 7.94558C20.8588 7.95741 20.9366 7.96891 21.0143 7.98041C21.3183 8.02537 21.6213 8.0702 21.9224 8.13363C22.5801 8.27231 23.2354 8.48322 23.8919 8.69453C24.9081 9.02163 25.9274 9.3497 26.9633 9.41228C27.2002 9.42659 27.4279 9.4209 27.6487 9.41538C28.2778 9.39965 28.8502 9.38534 29.417 9.83929C29.9045 10.2298 30.0093 11.1611 29.6874 11.6911C29.3424 12.2597 28.3206 12.5561 27.5911 12.7677C27.4516 12.8082 27.3228 12.8455 27.2114 12.8811C26.1741 13.2119 25.3369 13.8601 24.4977 14.5098C24.0214 14.8786 23.5444 15.2479 23.0298 15.56C22.002 16.1834 20.5334 16.7823 19.4026 17.1961C19.3203 17.2263 19.1906 17.2594 19.0599 17.2928C18.8867 17.3371 18.7116 17.3818 18.6422 17.4207C18.6012 17.4435 18.5386 17.583 18.5456 17.5896C20.2905 17.8531 22.0465 18.0879 23.8189 17.9873C26.9545 17.8094 32.4495 15.6588 32.9916 12.0199C33.3422 9.66322 32.5098 8.15879 30.3365 7.46227ZM14.2962 8.28456C13.664 8.27318 13.0225 8.24024 12.3921 8.17137C12.0595 8.13496 11.7155 8.07149 11.368 8.00739C10.6351 7.87216 9.88689 7.73411 9.19794 7.84137C6.66171 8.23545 5.21361 11.3413 6.28242 13.6255C7.36936 15.9486 9.75189 16.1574 11.9997 16.3545C12.6678 16.413 13.3241 16.4706 13.9309 16.5823C13.9847 16.5922 14.0389 16.6014 14.0931 16.6107C14.2919 16.6446 14.4919 16.6788 14.6819 16.7452C14.7299 16.2068 15.0284 15.9606 15.437 15.6827C16.0066 15.2958 16.8371 15.1064 17.6492 14.9212C18.1331 14.8109 18.6104 14.7021 19.0221 14.5538C20.4257 14.0483 21.765 13.256 22.9965 12.4116C23.0333 12.3862 23.1074 12.3375 23.2013 12.2756C23.5429 12.0505 24.147 11.6525 24.1759 11.5839C24.1012 11.588 24.0564 11.5415 24.0146 11.4981C23.9889 11.4714 23.9644 11.446 23.9348 11.4342C22.474 10.8554 20.6539 10.6669 18.9471 10.4901C18.2431 10.4172 17.5583 10.3462 16.926 10.2507C16.8758 10.2432 16.8238 10.2355 16.7702 10.2276C15.82 10.088 14.3866 9.8774 14.278 8.72714C14.2711 8.65391 14.2793 8.58111 14.2876 8.50825C14.296 8.43394 14.3044 8.35955 14.2967 8.28456H14.2962ZM17.7584 8.47201C17.6852 8.43728 16.3354 8.34205 16.147 8.33906C15.9357 8.33546 15.1888 8.36421 15.2403 8.70019C15.2947 9.05266 16.8171 9.25435 17.3842 9.32947C17.4453 9.33758 17.4954 9.34421 17.5313 9.3494C18.1221 9.43506 18.7018 9.49585 19.2824 9.55675C19.9885 9.63081 20.6962 9.70502 21.4272 9.82432C22.3854 9.98063 23.2628 10.2394 24.1338 10.5574C24.2044 10.5832 24.3011 10.6132 24.4111 10.6474C24.8246 10.7759 25.4268 10.9629 25.5432 11.2042C25.7647 11.6641 25.2234 12.0082 24.8235 12.2624C24.7245 12.3253 24.6343 12.3826 24.5663 12.4349C22.8794 13.7351 21.0936 14.876 19.0771 15.5689C18.7085 15.6957 18.2658 15.7879 17.8206 15.8807C17.2414 16.0014 16.6582 16.1229 16.2289 16.3224C16.1622 16.3535 15.7167 16.6577 15.7015 16.6859C15.6553 16.7715 15.6887 16.8224 15.7671 16.8476C15.9128 16.8943 16.7136 16.8715 16.9167 16.856C18.4438 16.7398 21.4547 15.4018 22.7916 14.5664C23.2378 14.2875 23.6722 13.9431 24.1106 13.5954C24.853 13.0067 25.6071 12.4087 26.4505 12.1037C26.7042 12.012 26.9554 11.9456 27.2031 11.8801C27.6171 11.7706 28.0215 11.6636 28.4119 11.4455C28.4623 11.4174 28.5128 11.3922 28.5616 11.3679C28.8368 11.2306 29.0556 11.1215 28.8726 10.6748C28.7633 10.4079 28.399 10.3877 28.1224 10.3723C28.1041 10.3713 28.0863 10.3704 28.0689 10.3693C27.8449 10.3558 27.6184 10.3635 27.3919 10.3711C27.1561 10.379 26.9204 10.387 26.6876 10.3711C25.7232 10.3048 24.7953 9.99511 23.8709 9.68658C23.2753 9.4878 22.6812 9.28951 22.0799 9.15715C21.6898 9.07132 20.9817 8.98327 20.2455 8.89171C19.1889 8.7603 18.0741 8.62167 17.7578 8.47201H17.7584Z" fill="#808080"/>
<path d="M4.96777 11.3868C5.0263 10.7239 5.61339 9.33203 6.02429 8.77266C7.72563 6.45661 9.73475 6.75814 11.9708 7.09373C12.5911 7.18683 13.2288 7.28254 13.8823 7.32572C16.864 7.52276 19.721 7.14066 22.5575 6.48128C24.1191 6.11835 27.7821 6.06564 29.3842 6.26208C31.6143 6.53518 33.7613 7.87311 34.0001 10.3717V11.7815C33.948 11.9336 33.9282 12.0988 33.9083 12.2645C33.894 12.3839 33.8796 12.5036 33.8532 12.6188C33.0232 16.2493 28.3206 18.1741 25.1253 18.815L23.5683 19.0006H21.9675L18.4619 18.552C17.0858 18.1849 15.578 17.8711 14.1416 17.6076C13.4023 17.472 12.6445 17.3928 11.8947 17.3145C8.98948 17.011 6.20529 16.7202 5.08308 13.2051C5.062 13.1392 5.05641 13.0589 5.05068 12.9764C5.04193 12.8506 5.03284 12.7199 4.96777 12.6284C4.97999 12.4374 4.9727 12.2375 4.96543 12.0378C4.95737 11.8167 4.94931 11.5958 4.96777 11.3874V11.3868ZM30.3365 7.46227C29.0822 7.06021 27.6912 7.12639 26.3756 7.189C26.2018 7.19727 26.0294 7.20547 25.8587 7.21253C25.689 7.21956 25.5154 7.22507 25.3397 7.23065C24.4224 7.25978 23.4466 7.29077 22.6459 7.54911L20.6985 7.83419C20.6935 7.90461 20.6901 7.9287 20.7 7.93707C20.7099 7.94542 20.7331 7.9381 20.781 7.94558C20.8588 7.95741 20.9366 7.96891 21.0143 7.98041C21.3183 8.02537 21.6213 8.0702 21.9224 8.13363C22.5801 8.27231 23.2354 8.48322 23.8919 8.69453C24.9081 9.02163 25.9274 9.3497 26.9633 9.41228C27.2002 9.42659 27.4279 9.4209 27.6487 9.41538C28.2778 9.39965 28.8502 9.38534 29.417 9.83929C29.9045 10.2298 30.0093 11.1611 29.6874 11.6911C29.3424 12.2597 28.3206 12.5561 27.5911 12.7677C27.4516 12.8082 27.3228 12.8455 27.2114 12.8811C26.1741 13.2119 25.3369 13.8601 24.4977 14.5098C24.0214 14.8786 23.5444 15.2479 23.0298 15.56C22.002 16.1834 20.5334 16.7823 19.4026 17.1961C19.3203 17.2263 19.1906 17.2594 19.0599 17.2928C18.8867 17.3371 18.7116 17.3818 18.6422 17.4207C18.6012 17.4435 18.5386 17.583 18.5456 17.5896C20.2905 17.8531 22.0465 18.0879 23.8189 17.9873C26.9545 17.8094 32.4495 15.6588 32.9916 12.0199C33.3422 9.66322 32.5098 8.15879 30.3365 7.46227ZM14.2962 8.28456C13.664 8.27318 13.0225 8.24024 12.3921 8.17137C12.0595 8.13496 11.7155 8.07149 11.368 8.00739C10.6351 7.87216 9.88689 7.73411 9.19794 7.84137C6.66171 8.23545 5.21361 11.3413 6.28242 13.6255C7.36936 15.9486 9.75189 16.1574 11.9997 16.3545C12.6678 16.413 13.3241 16.4706 13.9309 16.5823C13.9847 16.5922 14.0389 16.6014 14.0931 16.6107C14.2919 16.6446 14.4919 16.6788 14.6819 16.7452C14.7299 16.2068 15.0284 15.9606 15.437 15.6827C16.0066 15.2958 16.8371 15.1064 17.6492 14.9212C18.1331 14.8109 18.6104 14.7021 19.0221 14.5538C20.4257 14.0483 21.765 13.256 22.9965 12.4116C23.0333 12.3862 23.1074 12.3375 23.2013 12.2756C23.5429 12.0505 24.147 11.6525 24.1759 11.5839C24.1012 11.588 24.0564 11.5415 24.0146 11.4981C23.9889 11.4714 23.9644 11.446 23.9348 11.4342C22.474 10.8554 20.6539 10.6669 18.9471 10.4901C18.2431 10.4172 17.5583 10.3462 16.926 10.2507C16.8758 10.2432 16.8238 10.2355 16.7702 10.2276C15.82 10.088 14.3866 9.8774 14.278 8.72714C14.2711 8.65391 14.2793 8.58111 14.2876 8.50825C14.296 8.43394 14.3044 8.35955 14.2967 8.28456H14.2962ZM17.7584 8.47201C17.6852 8.43728 16.3354 8.34205 16.147 8.33906C15.9357 8.33546 15.1888 8.36421 15.2403 8.70019C15.2947 9.05266 16.8171 9.25435 17.3842 9.32947C17.4453 9.33758 17.4954 9.34421 17.5313 9.3494C18.1221 9.43506 18.7018 9.49585 19.2824 9.55675C19.9885 9.63081 20.6962 9.70502 21.4272 9.82432C22.3854 9.98063 23.2628 10.2394 24.1338 10.5574C24.2044 10.5832 24.3011 10.6132 24.4111 10.6474C24.8246 10.7759 25.4268 10.9629 25.5432 11.2042C25.7647 11.6641 25.2234 12.0082 24.8235 12.2624C24.7245 12.3253 24.6343 12.3826 24.5663 12.4349C22.8794 13.7351 21.0936 14.876 19.0771 15.5689C18.7085 15.6957 18.2658 15.7879 17.8206 15.8807C17.2414 16.0014 16.6582 16.1229 16.2289 16.3224C16.1622 16.3535 15.7167 16.6577 15.7015 16.6859C15.6553 16.7715 15.6887 16.8224 15.7671 16.8476C15.9128 16.8943 16.7136 16.8715 16.9167 16.856C18.4438 16.7398 21.4547 15.4018 22.7916 14.5664C23.2378 14.2875 23.6722 13.9431 24.1106 13.5954C24.853 13.0067 25.6071 12.4087 26.4505 12.1037C26.7042 12.012 26.9554 11.9456 27.2031 11.8801C27.6171 11.7706 28.0215 11.6636 28.4119 11.4455C28.4623 11.4174 28.5128 11.3922 28.5616 11.3679C28.8368 11.2306 29.0556 11.1215 28.8726 10.6748C28.7633 10.4079 28.399 10.3877 28.1224 10.3723C28.1041 10.3713 28.0863 10.3704 28.0689 10.3693C27.8449 10.3558 27.6184 10.3635 27.3919 10.3711C27.1561 10.379 26.9204 10.387 26.6876 10.3711C25.7232 10.3048 24.7953 9.99511 23.8709 9.68658C23.2753 9.4878 22.6812 9.28951 22.0799 9.15715C21.6898 9.07132 20.9817 8.98327 20.2455 8.89171C19.1889 8.7603 18.0741 8.62167 17.7578 8.47201H17.7584Z" stroke="#808080"/>
<path d="M18.8623 1.01236C21.9622 1.18843 27.3672 3.29236 28.0134 6.85579C28.1755 6.57671 28.4851 6.38326 28.8041 6.38326C28.8357 6.38326 28.8674 6.38506 28.8978 6.38805C28.8978 6.38566 28.8966 6.38326 28.8966 6.38087C28.0666 2.75036 23.3641 0.825501 20.1688 0.184681L18.6118 -0.000976562H17.0109L13.5054 0.447597C12.1293 0.814721 10.6215 1.12854 9.18509 1.39206C5.58063 2.05324 1.53835 1.37229 0.126536 5.79455C0.0732706 5.96104 0.118926 6.21976 0.0112258 6.37129C0.0369802 6.77374 -0.023894 7.21573 0.0112258 7.6122C0.0697587 8.27518 0.656843 9.66701 1.06774 10.2264C2.37771 12.0093 3.86971 12.2411 5.50688 12.0997C5.44952 11.9806 5.4144 11.8458 5.40796 11.6973C5.39918 11.4948 5.47527 11.293 5.6017 11.1289C5.13695 11.1948 4.67688 11.2253 4.24023 11.1577C1.704 10.7636 0.255893 7.65772 1.3247 5.37352C2.73476 2.35987 6.32517 2.90427 8.9732 2.41677C9.2243 2.37065 9.48243 2.33831 9.72417 2.25387C9.77217 2.79228 10.0707 3.03842 10.4792 3.31631C11.3883 3.93378 12.9616 4.04816 14.0644 4.44523C15.468 4.9507 16.8067 5.74304 18.0388 6.58749C18.2097 6.70487 19.1813 7.32772 19.2182 7.41516C19.0976 7.40857 19.0549 7.53374 18.9771 7.56489C18.8898 7.59962 18.8009 7.63196 18.7113 7.6637C18.7763 7.67149 18.8418 7.67808 18.9074 7.68766C19.1802 7.72659 19.3716 7.93141 19.4746 8.18055C19.4769 8.17995 19.4798 8.17875 19.4822 8.17816C19.4787 7.68946 19.9235 7.27861 20.3889 7.27861C20.441 7.27861 20.4913 7.284 20.5399 7.29239C20.3315 6.97976 19.8404 6.742 19.6092 6.56413C17.9223 5.26393 16.1364 4.12303 14.12 3.4301C13.2713 3.13844 12.031 3.02944 11.2718 2.67669C11.2051 2.64555 10.7596 2.34131 10.7444 2.31316C10.6982 2.22752 10.7315 2.17661 10.81 2.15146C10.9557 2.10474 11.7564 2.1275 11.9595 2.14307C13.4867 2.25926 16.4976 3.5972 17.8345 4.43266C19.0362 5.18367 20.1518 6.41021 21.4934 6.89532C21.9166 7.04804 22.3327 7.13129 22.7378 7.25705C22.9034 6.99114 23.2037 6.80908 23.5139 6.80908C23.7305 6.80908 23.9225 6.88694 24.0741 7.0139C24.1016 7.01091 24.1285 7.00971 24.1555 7.00911C24.2076 6.96839 24.2637 6.93305 24.3223 6.9037C23.7328 6.50244 22.7911 6.28924 22.2543 6.11795C20.6283 5.59931 19.4939 4.3009 18.0727 3.43909C17.0449 2.81563 15.5763 2.21674 14.4448 1.8029C14.2534 1.73283 13.8063 1.64659 13.6845 1.57831C13.6435 1.55556 13.5809 1.41601 13.5879 1.40943C15.3328 1.14591 17.0888 0.911143 18.8612 1.01176L18.8623 1.01236Z" fill="#808080"/>
</g>
<defs>
<clipPath id="clip0_2844_3480">
<rect width="34" height="19" fill="white"/>
</clipPath>
</defs>
</svg>
