<?xml version="1.0" encoding="UTF-8"?>
<svg id="Layer_1" data-name="Layer 1" xmlns="http://www.w3.org/2000/svg" viewBox="0 0 251 205">
  <defs>
    <style>
      .cls-1, .cls-2 {
        stroke: #000;
        stroke-miterlimit: 10;
        stroke-width: .5px;
      }

      .cls-3, .cls-2 {
        fill: #fff;
      }
    </style>
  </defs>
  <g>
    <path class="cls-3" d="M142.98,110.06s-.03-.02-.04-.02c.01,0,.02.02.03.02,0,0,0,0,0,0Z"/>
    <path class="cls-3" d="M144.67,115.88s0,0,0,0c-.01,0-.02,0-.04,0,.01,0,.03,0,.04,0Z"/>
    <path class="cls-3" d="M135.26,109.94s0,0,0,0c.02.03.03.05,0,0Z"/>
    <path class="cls-3" d="M152.14,159.38c-.02-.28-.15-.54-.22-.78-.4-.25-.77-.12-1.14-.01-2.95.92-5.96,1.45-8.98,1.5-3.32.06-6.64.85-9.97.02-.78-.2-1.2.33-1.1,1.33.24,2.33.56,4.65.85,6.98.1.84.55,1.14,1.13,1.13,2.42-.05,4.84-.03,7.25-.25.98-.09,1.56.05,1.91,1.35.19.7.97.65,1.27.02.12-.24.16-.55.24-.82.22-.77.69-1.08,1.26-.93,2.15.54,4.22-.26,6.31-.61,1.54-.25,1.72-.63,1.61-2.76-.11-2.06-.27-4.11-.42-6.16Z"/>
    <path class="cls-3" d="M150.96,170.18c-1.13.07-2.25.31-3.38.44-.87.11-1.63.39-2.03,1.55-.16.48-.5.76-.9.76-.92,0-1.79.23-2.67.56-.52.2-1.21.07-1.42-.58-.57-1.74-1.72-1.78-2.84-1.81-1.43-.04-2.88.04-4.31.19-1.3.13-1.5.85-.81,2.34.31.66.75.94,1.29,1.05,1.05.21,2.11.3,3.17.16,1.06-.14,2.11-.07,3.17.11.97.17,1.96.25,3.09.38,2.44,0,4.99-.42,7.52-1.02.69-.16,1.07-.65,1.13-1.56.02-.29.08-.58.11-.87.1-1.12-.25-1.74-1.12-1.68Z"/>
    <path class="cls-3" d="M140.03,110.17c-.03.05,0,.02.02-.02,0,0,0-.01,0-.02,0,.01-.02.02-.02.04Z"/>
    <path class="cls-3" d="M142.14,114.95s.01,0,.02,0c0,0,0,0,.01,0,0,0-.02,0-.03,0Z"/>
    <path class="cls-3" d="M138.33,111.65h0s.03-.05.03-.06c0,.02-.02.03-.03.05,0,0,0,0,0,.01Z"/>
    <path class="cls-3" d="M144.67,115.88s0,0,0,0c.02,0,.06,0,.02,0,0,0,0,0-.01,0,0,0,0,0,0,0Z"/>
    <polygon class="cls-3" points="144.24 115.61 144.24 115.6 144.23 115.6 144.24 115.61"/>
    <path class="cls-3" d="M142.19,114.94s-.01,0-.02,0c0,0,0,0,.01,0,0,0,.02,0,.02,0,0,0,0,0-.02,0Z"/>
    <path class="cls-3" d="M149.04,123.26c-1.79.25-3.59.44-5.39.57-1.8.13-3.61.19-5.42.18-1.81,0-3.61-.07-5.42-.2-.9-.06-1.8-.14-2.7-.24-.45-.05-.9-.1-1.35-.17-.23-.03-.45-.07-.67-.11-.01,0-.02,0-.03,0,.07.94.13,1.88.17,2.82.29,6.18.54,12.36,1,18.52.27,3.51.48,7.04.63,10.57.06,1.49.55,2.29,1.61,2.81,1.91.94,3.87.9,5.83.63,1.21-.17,2.43-.39,3.62-.18,2.7.48,5.27-.43,7.88-.93.77-.15,1.33-.7,1.9-1.46,1.22-1.64,1.86-3.49,1.93-5.76.05-1.66.32-3.32.37-4.98.15-5.7.71-11.36,1.21-17.01.18-2.03.37-4.05.56-6.08-.09.02-.17.04-.25.06-1.82.39-3.65.71-5.48.97Z"/>
    <path class="cls-3" d="M140.05,110.13h0s0-.01,0-.02c0,0,0,.01,0,.02Z"/>
    <path class="cls-3" d="M143,110.07s-.01,0-.02-.01c0,0,0,0,0,0,0,0,.02,0,.02.01Z"/>
    <path class="cls-3" d="M140.25,109.87s-.02.02-.02.03c.03-.03.07-.08.02-.03Z"/>
    <path class="cls-3" d="M144.25,115.62s.02.02.03.02c-.01-.01-.03-.02-.04-.03,0,0,0,0,0,0Z"/>
    <path class="cls-3" d="M133.04,110.45s0-.02,0-.02c0,0,0,.01,0,.02Z"/>
    <path class="cls-3" d="M133.01,110.6s0,.03,0,.04c0,0,0-.02,0-.04Z"/>
    <path class="cls-3" d="M138.33,111.65s0,0,0,0c0,.01,0,.02-.02.03,0-.01.01-.03.02-.04Z"/>
    <path class="cls-3" d="M159.76,64.95c-.68-.1-1.18.18-1.49.98-.34.87-.72,1.72-1,2.62-.16.52-.18,1.14-.21,1.71-.01.29.14.57.4.61.3.05.6.06.69.07,1.19.03,1.37-.09,1.74-1.22.17-.53.45-1.07.32-1.67-.16-.73.13-1.33.25-1.98.14-.72-.1-1.04-.7-1.13Z"/>
    <path class="cls-3" d="M157.33,73.18c-1.05-.24-2.11-.4-3.16-.04-2.82.97-5.72.43-8.57.65-2.41.18-4.84-.13-7.26-.03-3.02.12-6.05.1-9.06-.38-1.98-.32-3.93.11-5.86.63-.72.2-.99.73-.89,1.73.13,1.26.32,2.52.48,3.77.49,3.97.72,7.99,1.57,11.89.45,2.06.62,4.23.81,6.38.1,1.15.19,2.31.29,3.46.03,0,.06,0,.1,0-.03,0-.06.01-.09.02,0,0,0,0,0,0,.23-.04.47,0,.7.02,1.09.1,2.17.23,3.26.35l2.77-.06c-.73-1.01-1.27-2.26-1.59-3.57-.45-1.89-.4-3.94-.03-5.84.4-1.99,1.15-3.86,2.1-5.5.98-1.69,2.12-3.17,3.34-4.57.3-.34.6-.68.9-1.02.15-.17.3-.33.45-.5.08-.09.16-.17.24-.26.13-.14.26-.32.42-.38.26-.09.55.11.79.23.19.09.37.18.55.27.4.2.8.41,1.2.63,1.42.79,2.8,1.74,4.04,2.95.62.6,1.2,1.25,1.73,1.98.52.71.99,1.49,1.4,2.31.81,1.64,1.35,3.51,1.5,5.46.14,1.78-.13,3.6-.7,5.22-.29.83-.68,1.58-1.16,2.24l3.97-.09c.24-.04.49-.07.73-.12,1.31-.23,2.61-.52,3.92-.78.08-.03.16-.03.23-.02.39-3.51.75-7.01.64-10.57,0-1.57.11-3.16-.03-4.71-.14-1.58-.14-3.13-.03-4.69.13-1.96.3-3.9.89-5.75.21-.65-.08-1.19-.59-1.31Z"/>
    <path class="cls-3" d="M150.02,103.02c-1.91.27-3.82.47-5.74.6-1.92.13-3.83.19-5.75.17s-3.84-.11-5.75-.27c-1.92-.16-3.83-.42-5.73-.77.01,0,.02,0,.03,0-.05,0-.1-.02-.15-.03.04,0,.08.01.11.02-.35-.06-.7-.14-1.04-.23-.08-.02-.15-.04-.23-.07.29,3.33.61,6.65,1.09,9.94.46,3.15.83,6.33,1.09,9.51.32.02.65.05.97.08.4.03.79.07,1.19.11.79.08,1.59.14,2.38.2,1.59.11,3.18.16,4.77.17,1.58,0,3.16-.03,4.74-.12,1.59-.09,3.18-.21,4.76-.39,1.56-.18,3.12-.4,4.67-.67,1.14-.2,2.28-.43,3.42-.68.02,0,.04,0,.06,0,.35-3.86.67-7.73.83-11.62.09-2.38.28-4.76.51-7.12-.14.03-.28.07-.42.1-1.94.42-3.88.78-5.84,1.05ZM140.9,109.77c-.05-.02-.11-.04-.17-.05-.06,0-.13,0-.19,0-.05.01-.11.03-.16.05,0,0,0,0-.01,0-.03.02-.05.04-.08.06-.02.02-.05.05-.07.07,0,0-.01.01-.02.02-.05.06-.1.12-.14.19,0,0,0,.01,0,.02,0,0,0,.01-.01.02-.02.03-.04.06-.05.08-.17.33-.3.69-.44,1.04-.13.35-.26.7-.44,1.01-.23.4-.5.72-.87.89-.46.22-1,.07-1.39-.28-.42-.37-.74-.9-.97-1.49-.1-.25-.2-.52-.3-.77-.05-.13-.1-.25-.16-.37-.05-.12-.13-.23-.18-.35,0,0,0,0,0-.01-.02-.02-.03-.05-.05-.07-.04-.05-.07-.1-.11-.15-.02-.03-.04-.05-.06-.08,0,0-.02-.02-.03-.03-.01-.01-.02-.02-.03-.03-.02-.02-.04-.04-.06-.05-.05-.04-.1-.07-.15-.1-.02-.01-.04-.02-.07-.03-.06-.02-.11-.04-.17-.06-.02,0-.04-.01-.06-.01-.11,0-.22,0-.34,0,0,0,0,0,0,0-.03,0-.05.01-.08.02-.05.02-.11.04-.16.06-.03.01-.06.02-.08.04,0,0,0,0,0,0-.04.03-.1.06-.13.09-.05.03-.09.07-.13.11,0,0,0,0,0,0-.02.02-.04.04-.05.06-.04.05-.08.1-.12.16,0,0-.03.05-.03.05,0,0,0,.02-.01.02-.06.12-.11.25-.17.37-.03.06-.05.12-.07.18,0,0,0,0,0,0,0,0,0,.01,0,.01-.01.04-.02.07-.02.11,0,0,0,.01,0,.02,0,0,0,0,0,.01,0,.03,0,.06,0,.1,0,.07,0,.14,0,.21,0,.22-.14.38-.3.39-.17.01-.28-.19-.3-.39-.01-.18,0-.36,0-.54,0-.11.01-.22.03-.33,0-.03,0-.05.01-.08,0-.02,0-.03,0-.05v.03c0,.05,0,.04,0-.03,0-.03,0-.05.01-.08,0-.02.01-.04.02-.06.12-.38.29-.74.53-1.02.23-.26.5-.46.79-.55.31-.09.62-.09.93,0,.59.16,1.04.67,1.36,1.3.28.54.45,1.16.73,1.7.03.07.07.13.1.19,0,0,0,0,0,.01.02.03.04.07.07.1.08.12.17.22.26.33,0,0,0,0,.01.01.02.02.05.04.07.06.05.04.1.08.15.11h0s0,0,.01,0c.03.01.05.02.08.03.03,0,.05.01.08.02.05,0,.11,0,.16,0,.05-.01.11-.03.16-.05,0,0,.01,0,.02-.01.03-.02.06-.05.09-.07,0,0,.01-.01.02-.02.02-.02.04-.05.06-.07.05-.06.09-.12.13-.19.03-.06.04-.08.04-.07.01-.03.03-.05.04-.08.04-.09.08-.17.12-.26.08-.18.15-.36.22-.55.27-.71.55-1.47,1.08-1.9.35-.28.77-.35,1.16-.24.37.1.7.38,1.01.66.3.28.59.58.92.79,0,0,.01,0,.02.01-.02-.01-.01-.01.04.03.04.02.08.04.11.05.06.02.11.04.17.05,0,0,.05,0,.07.01,0,0,.01,0,.02,0,.24.03.49,0,.73-.03.54-.07,1.08-.14,1.61-.21.27-.04.54-.07.8-.11.27-.04.55-.09.82-.07.2.01.37.19.4.46.03.25-.09.51-.29.58-.32.11-.66.14-.99.18-.31.05-.61.09-.92.14-.53.08-1.06.17-1.59.23-.28.03-.55.03-.82-.02-.24-.05-.46-.15-.67-.29-.33-.21-.62-.52-.92-.79-.15-.14-.3-.27-.46-.38-.04-.03-.09-.05-.13-.08.15.09.02.01-.02,0ZM150.07,115.53s-.1,0-.05,0c.07,0-.06.01-.09.01-.05,0-.1,0-.15-.01-.13-.02-.26.02-.39-.02-.18-.05-.36-.12-.54-.16-.31-.05-.62-.05-.94,0-.27.05-.53.14-.79.26-.03.01-.05.03-.08.04-.01,0-.02.01-.03.02-.07.04-.13.08-.2.13-.12.09-.24.18-.36.28-.44.38-.88.85-1.43.95-.35.06-.67,0-.99-.2-.25-.16-.48-.42-.67-.69-.18-.24-.34-.51-.52-.74-.05-.06-.09-.12-.14-.17-.01-.02-.03-.03-.05-.05-.01,0-.02-.02-.03-.03-.05-.05-.11-.09-.16-.13-.02-.01-.04-.03-.06-.04,0,0-.02,0-.03-.01-.03-.01-.06-.02-.09-.03-.03,0-.07,0-.1,0,0,0-.02,0-.05,0-.01,0-.03,0-.04.01-.05.02-.09.04-.14.05-.03,0-.05.02-.08.03,0,0,0,0,0,0-.04.03-.07.05-.11.08,0,0-.01.01-.02.02,0,.01,0,.02,0,.03,0,.03-.01.06-.01.09-.02.16-.17.26-.28.24-.12-.02-.22-.16-.22-.33,0-.11.02-.22.04-.33,0-.04.01-.08.02-.12,0-.04.08-.28.03-.12.06-.22.24-.47.4-.56.32-.18.67-.22,1-.06.35.17.63.47.89.82.11.15.21.3.32.45.05.07.11.15.17.22.03.03.06.07.09.1,0,.01.02.02.03.03.05.03.05.04.04.03.05.04.1.09.15.13.03.02.05.04.08.05.01,0,.03.01.04.02.04.02.08.03.12.04,0,0,.02,0,.03,0,.05,0,.1,0,.14,0,.08-.02.16-.04.23-.08,0,0,0,0,.01,0,.01,0,.03-.01.04-.02.05-.03.09-.06.14-.09.18-.13.36-.29.53-.45.15-.14.3-.27.46-.39.19-.14.38-.26.58-.36.38-.2.77-.3,1.17-.36.41-.05.81-.02,1.22.08.09.02.18.05.27.08.05.02.09.03.14.05.11.05.18.11.27.2.02.02.04.05.06.07,0,.01,0,.01.01.01.04.04.09.09.13.13.05.05.09.12.13.19-.05-.1.05.09.06.12.11.22-.04.47-.22.49Z"/>
    <path class="cls-3" d="M124.22,71.9c.33-.09.59-.41.55-.79-.16-1.63-.35-3.25-.58-4.87-.07-.48-.35-.85-.74-1.01-1.29-.53-2.45.71-2.21,2.37.12.86.3,1.7.46,2.55.31,1.61.59,1.89,1.97,1.87.11-.02.33-.05.55-.11Z"/>
    <path class="cls-3" d="M131.13,71.74c1.41.41,2.83.4,4.25.13.82-1.14.3-2.63.61-3.91.11-.46.14-.96.15-1.45.01-.57-.25-.91-.69-.94-.45-.04-.9,0-1.62,0-.49.05-1.24.15-1.99.2-1.3.09-1.91.36-1.89,2.83,0,.58.09,1.17.17,1.74.1.75.45,1.25,1.01,1.42Z"/>
    <path class="cls-3" d="M153.69,71.49c.45-.04.91-.1,1.34-.27.27-.1.59-.35.7-.65.53-1.52.92-3.1,1.14-4.75.03-.2-.17-.58-.34-.68-1.22-.72-2.38-.16-3.04,1.33-.5,1.14-.62,2.4-.83,3.52-.1,1.09.25,1.57,1.03,1.5Z"/>
    <path class="cls-3" d="M137.86,72.01c.6.06,1.2.01,1.8.02.38,0,.75.02,1.13,0,1.21-.08,1.37-.28,1.57-1.87.05-.38.07-.78.09-1.16.29-4.09.58-4.13-3.01-4.13-.15,0-.3.02-.45.04-.47.06-.83.3-1.09.88-.69,1.58-.98,3.26-.86,5.06.04.65.31,1.12.83,1.18Z"/>
    <path class="cls-3" d="M127.54,71.65c1.36.02,1.59-.3,1.48-1.99-.05-.78-.07-1.57-.13-2.34-.08-1.09-.3-1.43-1.02-1.66-1.53-.49-2.34.27-2.39,2.3-.01.58.08,1.17.18,1.74.28,1.56.66,1.94,1.88,1.96Z"/>
    <path class="cls-3" d="M150.56,71.9c.15-.02.31-.08.42-.19.18-.17.41-.36.46-.61.35-1.7.67-3.42.96-5.14.07-.41-.15-.75-.49-.85-.29-.09-.6-.12-.73-.15-1.81,0-2.26.4-2.85,2.45-.1.37-.21.74-.28,1.12-.52,3.07-.41,3.83,2.49,3.36Z"/>
    <path class="cls-3" d="M145.39,72.15c.22,0,.45,0,.67-.04.32-.07.57-.3.64-.72.3-2,.59-4.01.9-6.13-.96-.46-1.72-.24-2.46-.18-.94.08-1.08.28-1.34,1.59-.15.76-.29,1.52-.39,2.29-.37,2.68-.09,3.12,1.98,3.19Z"/>
    <path d="M125.68,101.26s0,0,0,0c0,0-.02,0-.03,0,0,0,.02,0,.03,0Z"/>
    <path d="M161.43,63.73c-.38-.69-.9-1.08-1.56-.94-3,.61-6.03.45-9.05.47-3.26.02-6.51-.09-9.77-.12-1.74-.02-3.48.1-5.21.42-2.47.45-4.96.9-7.44.31-1.5-.36-2.96-.67-4.49-.38-.66.13-1.33-.19-2.03-.03-.78.18-.97,1.17-1.56,1.6-.92.67-.9.76-.64,2,.34,1.62.55,3.26.55,4.94,0,.87.03,1.73.4,2.56.69,1.56.88,3.32,1.07,5.08.4,3.79.8,7.58,1.51,11.32.49,2.57.76,5.2,1.07,7.82.24,2.04.34,4.1.57,6.14.5,4.47.7,8.99,1.61,13.38.12.56.09,1.17.12,1.76.18,3.33.4,6.66.54,9.99.33,7.95,1.22,15.84,1.4,23.8.03,1.28.44,2.52.23,3.8-.18,1.1,0,2.12.2,3.19.55,2.96,1.01,5.96.98,9.02-.01,1.52.35,2.85.84,4.22.51,1.43,1.33,2.12,2.44,2.29.97.15,1.97.23,2.94.18,1.14-.07,2.27-.14,3.4.01,4.34.83,8.61,0,12.87-.93.92-.2,1.38-.76,1.4-1.95.03-3.43.52-6.84.15-10.29-.36-3.39.02-6.84-.36-10.24-.05-.47.07-.97.11-1.46.11-1.27.24-2.53.32-3.8.16-2.55.23-5.1.43-7.64.4-5.08.87-10.15,1.32-15.22.23-2.64.58-5.26.71-7.9.39-7.85,1.21-15.63,1.84-23.44.32-4,.44-8.03-.02-12.03-.1-.9.04-1.76.05-2.64.01-2.31,1.42-4.11,1.37-6.44,0-.15.14-.39.26-.46.88-.53,1.02-1.59,1.23-2.65.11-.56.26-1.2.56-1.59.91-1.19.62-2.24-.05-3.34-.14-.23-.18-.55-.31-.78ZM152.66,70c.21-1.12.33-2.38.83-3.52.66-1.49,1.82-2.05,3.04-1.33.16.1.36.48.34.68-.22,1.64-.6,3.23-1.14,4.75-.11.3-.43.55-.7.65-.43.17-.89.23-1.34.27-.78.08-1.13-.4-1.03-1.5ZM148.07,68.54c.06-.38.17-.75.28-1.12.58-2.05,1.03-2.46,2.85-2.45.13.03.44.06.73.15.33.1.56.44.49.85-.29,1.72-.61,3.44-.96,5.14-.05.24-.29.44-.46.61-.12.11-.28.17-.42.19-2.91.46-3.01-.29-2.49-3.36ZM143.41,68.96c.11-.77.24-1.54.39-2.29.26-1.3.4-1.51,1.34-1.59.74-.06,1.5-.28,2.46.18-.31,2.11-.6,4.12-.9,6.13-.06.42-.32.65-.64.72-.22.05-.45.05-.67.04-2.07-.07-2.35-.5-1.98-3.19ZM137.89,65.77c.25-.58.61-.82,1.09-.88.15-.02.3-.04.45-.04,3.6,0,3.3.04,3.01,4.13-.03.39-.05.78-.09,1.16-.19,1.59-.36,1.79-1.57,1.87-.37.03-.75,0-1.13,0-.6,0-1.2.05-1.8-.02-.51-.05-.78-.53-.83-1.18-.11-1.8.17-3.48.86-5.06ZM131.84,65.76c.75-.05,1.51-.15,1.99-.2.72,0,1.17-.03,1.62,0,.43.03.7.37.69.94-.01.49-.04.99-.15,1.45-.31,1.28.21,2.78-.61,3.91-1.42.27-2.85.28-4.25-.13-.57-.17-.91-.67-1.01-1.42-.08-.58-.16-1.16-.17-1.74-.02-2.47.59-2.73,1.89-2.83ZM127.87,65.66c.72.23.94.57,1.02,1.66.06.78.08,1.56.13,2.34.11,1.7-.12,2.01-1.48,1.99-1.22-.02-1.61-.4-1.88-1.96-.1-.57-.19-1.16-.18-1.74.05-2.03.86-2.78,2.39-2.3ZM121.71,70.14c-.16-.85-.34-1.69-.46-2.55-.24-1.66.92-2.89,2.21-2.37.39.16.67.53.74,1.01.23,1.61.43,3.24.58,4.87.04.38-.22.7-.55.79-.22.06-.44.09-.55.11-1.38.02-1.66-.26-1.97-1.87ZM152.08,171.87c-.03.29-.09.58-.11.87-.06.91-.45,1.4-1.13,1.56-2.54.6-5.09,1.01-7.52,1.02-1.13-.14-2.12-.21-3.09-.38-1.06-.19-2.11-.25-3.17-.11-1.06.14-2.12.05-3.17-.16-.54-.11-.98-.38-1.29-1.05-.69-1.49-.48-2.21.81-2.34,1.43-.14,2.87-.22,4.31-.19,1.12.03,2.27.07,2.84,1.81.21.66.9.78,1.42.58.88-.33,1.76-.56,2.67-.56.41,0,.74-.28.9-.76.4-1.16,1.16-1.44,2.03-1.55,1.13-.14,2.25-.38,3.38-.44.86-.05,1.22.57,1.12,1.68ZM150.95,168.3c-2.09.35-4.16,1.15-6.31.61-.57-.14-1.04.17-1.26.93-.08.28-.13.58-.24.82-.3.64-1.09.69-1.27-.02-.35-1.3-.93-1.44-1.91-1.35-2.41.22-4.83.2-7.25.25-.58.01-1.03-.29-1.13-1.13-.29-2.33-.62-4.64-.85-6.98-.1-1,.32-1.52,1.1-1.33,3.33.83,6.65.04,9.97-.02,3.03-.05,6.03-.58,8.98-1.5.36-.11.74-.24,1.14.01.07.24.2.5.22.78.15,2.05.31,4.1.42,6.16.11,2.13-.07,2.5-1.61,2.76ZM157.92,74.49c-.6,1.85-.76,3.79-.89,5.75-.1,1.57-.11,3.12.03,4.69.14,1.55.03,3.14.03,4.71.11,3.55-.25,7.06-.64,10.57.03,0,.07,0,.1.02.05.03.1.05.15.08.15.1.24.29.29.49.05.2.02.45-.06.63-.07.16-.23.34-.38.37-.09.02-.18.04-.27.06-.24,2.36-.42,4.74-.51,7.12-.15,3.89-.47,7.76-.83,11.62.14-.02.28,0,.41.08.14.1.23.28.28.48.05.19.01.44-.06.61-.07.16-.22.33-.37.37-.14.03-.28.06-.41.09-.19,2.03-.38,4.05-.56,6.08-.5,5.66-1.06,11.31-1.21,17.01-.04,1.66-.31,3.32-.37,4.98-.07,2.27-.71,4.12-1.93,5.76-.56.75-1.13,1.31-1.9,1.46-2.61.5-5.18,1.41-7.88.93-1.19-.21-2.41,0-3.62.18-1.96.27-3.91.31-5.83-.63-1.06-.52-1.55-1.32-1.61-2.81-.15-3.53-.36-7.05-.63-10.57-.47-6.16-.71-12.34-1-18.52-.04-.94-.11-1.88-.17-2.82-.25-.04-.49-.1-.74-.16.04,0,.09.02.13.02-.14-.02-.27-.06-.41-.1-.22-.06-.35-.37-.33-.65.03-.29.22-.51.45-.51.19,0,.38,0,.58,0,.07,0,.14,0,.22.01-.26-3.19-.64-6.36-1.09-9.51-.48-3.29-.8-6.62-1.09-9.94,0,0,0,0,0,0-.08-.02-.13-.04-.21-.09.12.08-.01,0-.04,0-.11-.05-.25-.08-.33-.2.07.09-.02,0-.05-.01-.04-.02-.07-.05-.11-.07-.23-.15-.18-.67.07-.73.05-.01.1-.02.15-.03,0,0,.02,0,.03,0,.04-.01.04-.01,0,0-.04.03-.03.02.03-.01.03-.02.07-.04.1-.04.08-.01.16-.01.25-.02-.1-1.15-.19-2.31-.29-3.46-.18-2.16-.36-4.32-.81-6.38-.85-3.9-1.08-7.92-1.57-11.89-.16-1.26-.35-2.51-.48-3.77-.1-1.01.17-1.54.89-1.73,1.93-.52,3.88-.95,5.86-.63,3.01.48,6.04.5,9.06.38,2.42-.1,4.85.21,7.26.03,2.86-.22,5.75.33,8.57-.65,1.05-.36,2.11-.2,3.16.04.52.12.8.67.59,1.31ZM160.45,66.08c-.13.65-.41,1.25-.25,1.98.13.61-.14,1.14-.32,1.67-.37,1.13-.54,1.25-1.74,1.22-.1,0-.4-.02-.69-.07-.26-.05-.41-.32-.4-.61.03-.58.05-1.19.21-1.71.28-.9.67-1.75,1-2.62.31-.81.81-1.08,1.49-.98.59.09.84.41.7,1.13Z"/>
    <path d="M132.67,101.91c-.09-.11-.18-.23-.26-.35l-2.77.06c.64.07,1.28.15,1.92.2.37.03.74.05,1.11.08Z"/>
    <path d="M147.19,101.72c1.46-.15,2.92-.36,4.37-.6l-3.97.09c-.13.18-.26.34-.4.51Z"/>
    <path d="M127.08,102.76s-.02,0-.03,0c-.04,0-.08-.01-.11-.02.05,0,.1.02.15.03Z"/>
    <path d="M129.63,101.63c-1.09-.12-2.17-.25-3.26-.35-.23-.02-.47-.06-.7-.02.01.15.03.31.04.46l3.92-.09Z"/>
    <path d="M146.25,102.64c-.07.06-.15.12-.22.18-.22.16-.48.1-.66-.1-1.22.1-2.44.17-3.66.21-.06.09-.12.18-.19.27-.14.17-.34.22-.51.13-.09-.05-.17-.14-.23-.25-.01-.03-.03-.07-.04-.11-.16,0-.31,0-.47,0-.09.11-.23.16-.36.12-.04-.01-.09-.03-.13-.04,0,0-.06-.02-.06-.02.02,0,.05,0,.07,0-.04,0-.08-.01-.12-.02-.03-.02-.05-.03-.07-.04h0s0,0,0,0c.03.02.04.02.02.01-.02,0-.03,0-.05-.01-.83,0-1.66,0-2.5-.02l-1.37.12c0,.05,0,.11,0,.16-.03.19-.2.35-.35.34-.08,0-.16-.01-.24-.02-.1-.01-.21-.02-.31-.05-.18-.06-.37-.13-.54-.23.04.02.08.04.12.06-.14-.06-.27-.14-.4-.21.01,0,.02.02.04.02-.04-.02-.08-.05-.13-.07.03.02.06.03.09.05-.17-.08-.32-.21-.47-.34h0c-2.6-.19-5.2-.5-7.78-.95.02.21.04.42.05.63.08.02.15.05.23.07.34.09.69.17,1.04.23,1.9.35,3.81.61,5.73.77,1.91.16,3.83.25,5.75.27s3.84-.04,5.75-.17c1.92-.13,3.83-.33,5.74-.6,1.95-.28,3.9-.63,5.84-1.05.14-.03.28-.07.42-.1.03-.28.06-.56.09-.85-3.35.76-6.72,1.3-10.11,1.62Z"/>
    <path d="M125.77,101.24s-.06,0-.1,0c0,0,0,0,0,0,.03,0,.06-.01.09-.02Z"/>
    <path d="M152.38,101s-.06,0-.09.01c-.03,0-.05.01-.08.02.06,0,.11-.02.17-.03Z"/>
    <path d="M156.21,100.23c-1.31.26-2.61.55-3.92.78.03,0,.06,0,.09-.01-.06,0-.11.02-.17.03.03,0,.05-.01.08-.02-.24.04-.49.08-.73.12l4.8-.11c.02-.17.03-.35.05-.52.01-.09.02-.19.03-.28-.08-.01-.16,0-.23.02Z"/>
    <path d="M156.36,101.01h.02s-.01,0-.02,0c-.03.28-.06.56-.09.85.09-.02.18-.04.27-.06.15-.04.3-.21.38-.37.08-.17.11-.43.06-.63-.05-.2-.14-.39-.29-.49-.05-.03-.1-.05-.15-.08-.03-.01-.07-.01-.1-.02-.01.09-.02.19-.03.28-.02.17-.04.35-.05.52Z"/>
    <path d="M125.2,101.73h.52c-.01-.17-.03-.32-.04-.47,0,0-.02,0-.03,0,0,0,.02,0,.03,0,0,0,0,0,0,0-.08,0-.17,0-.25.02-.04,0-.07.01-.1.04-.06.03-.06.04-.03.01.03-.02.03-.02,0,0,0,0-.02,0-.03,0-.05.01-.1.02-.15.03-.26.06-.31.59-.07.73.04.02.07.05.11.07.03.02.11.1.05.01.08.12.22.15.33.2.03.01.16.09.04,0,.07.05.13.06.21.09,0,0,0,0,0,0-.02-.21-.04-.42-.05-.63-.18-.03-.35-.06-.53-.09Z"/>
    <path d="M139.44,102.93s.09.02.13.02c-.15,0-.29-.1-.43-.18l-2.07.18c.83.02,1.66.02,2.5.02,0,0,0,0-.01,0-.04-.01-.08-.03-.12-.04Z"/>
    <path d="M139.19,102.79s-.03-.02-.04-.03h0s.03.02.05.03Z"/>
    <path d="M140.72,102.7l-.32-.04h0s0,.09-.02.14c-.02.07-.06.12-.09.17.16,0,.31,0,.47,0-.02-.07-.03-.13-.03-.19,0-.02,0-.04,0-.06Z"/>
    <path d="M125.72,101.82c2.58.45,5.18.77,7.78.95-.16-.13-.3-.28-.45-.43-.13-.14-.26-.28-.39-.43-.37-.03-.74-.05-1.11-.08-.64-.06-1.28-.13-1.92-.2l-3.92.09s0,.07,0,.1Z"/>
    <path d="M139.6,102.97h0s-.05-.03,0,0Z"/>
    <path d="M146.25,102.64c3.39-.32,6.77-.85,10.11-1.62,0,0,0,0,0,0l-4.8.11c-1.45.24-2.91.44-4.37.6-.29.34-.6.64-.94.91Z"/>
    <path d="M145.18,102.23l-3.29.29c-.02.06-.04.11-.06.17-.03.09-.08.16-.12.24,1.22-.04,2.44-.11,3.66-.21-.04-.05-.08-.1-.12-.16-.05-.1-.07-.21-.07-.32Z"/>
    <path d="M125.2,101.73c.18.03.35.06.53.09,0-.03,0-.07,0-.1h-.52Z"/>
    <path d="M156.38,101.01h-.02s0,0,0,0c0,0,.01,0,.02,0Z"/>
    <path d="M151.45,121.29s.05,0,.07-.01c-.05,0-.11.02-.16.03.03,0,.06-.01.09-.02-1.55.27-3.11.49-4.67.67-1.59.18-3.17.3-4.76.39-1.58.09-3.16.13-4.74.12-1.59,0-3.18-.07-4.77-.17-.79-.05-1.59-.12-2.38-.2-.4-.04-.79-.08-1.19-.11-.32-.03-.65-.06-.97-.08.04.46.07.92.11,1.38.01,0,.02,0,.03,0,.22.04.45.07.67.11.45.07.9.12,1.35.17.9.1,1.8.18,2.7.24,1.8.13,3.61.19,5.42.2,1.81,0,3.61-.05,5.42-.18,1.8-.13,3.59-.32,5.39-.57,1.83-.26,3.66-.58,5.48-.97.08-.02.17-.04.25-.06.05-.54.1-1.08.15-1.63-.02,0-.04,0-.06,0-1.14.25-2.27.48-3.42.68Z"/>
    <path d="M151.52,121.28s-.05,0-.07.01c-.03,0-.06.01-.09.02.05,0,.11-.02.16-.03Z"/>
    <path d="M155.19,122.15c.14-.03.3-.21.37-.37.08-.17.11-.42.06-.61-.05-.19-.14-.38-.28-.48-.13-.09-.27-.1-.41-.08-.05.54-.1,1.08-.15,1.63.14-.03.28-.06.41-.09Z"/>
    <path d="M127.74,121.89c-.19,0-.38,0-.58,0-.23,0-.42.22-.45.51-.03.28.1.58.33.65.14.04.27.08.41.1-.04,0-.09-.02-.13-.02.25.06.49.12.74.16-.03-.46-.07-.92-.11-1.38-.07,0-.14-.01-.22-.01Z"/>
    <path d="M137.76,112.1s-.05-.01-.08-.02c-.01,0-.03,0-.04,0,.04,0,.08.01.12.02Z"/>
    <path d="M142.98,110.06c-.06-.04-.06-.04-.04-.03.01,0,.03.02.04.02,0,0,0,0,0,0Z"/>
    <path d="M137.9,112.07s-.04,0-.06,0c-.02,0-.04.02-.06.02.04,0,.08-.01.12-.02Z"/>
    <path d="M137.52,112.02c.08.04,0,0-.01,0-.02-.01-.05-.02.01,0Z"/>
    <path d="M143.35,110.18s-.01,0-.02,0c0,0,0,0-.01,0-.05,0-.04,0,.03,0Z"/>
    <path d="M137.28,111.84s0,0,0,0c0,0-.01-.01-.02-.02-.07-.07.06.07.02.02Z"/>
    <path d="M138.01,112.02s0,0-.01,0c0,0-.02.01-.03.02-.09.06.11-.05.04-.02Z"/>
    <path d="M138.33,111.64s.02-.03.03-.05c0,0,0,.01-.04.07,0,0,0,0,0,0,0,0,0,0,0-.01Z"/>
    <path d="M138.15,111.89s-.02.02-.03.03c0,0-.01.01-.02.02-.05.06.1-.1.05-.05Z"/>
    <path d="M141.52,110.24c.3.28.59.58.92.79.21.14.43.24.67.29.27.05.54.05.82.02.53-.06,1.06-.15,1.59-.23.31-.05.61-.09.92-.14.33-.05.67-.07.99-.18.2-.07.32-.32.29-.58-.03-.26-.19-.45-.4-.46-.27-.01-.55.04-.82.07-.27.04-.54.07-.8.11-.54.07-1.08.15-1.61.21-.24.03-.49.05-.73.03,0,0-.01,0-.02,0,0,0,.02,0,.02,0-.07-.01-.08-.01-.03,0,0,0,0,0,.01,0-.02,0-.06-.01-.07-.01-.06-.01-.11-.03-.17-.05-.04-.02-.08-.03-.11-.05,0,0,0,0,.02.01,0,0-.02,0-.02-.01,0,0,0,0,0,0-.01,0-.02-.01-.03-.02,0,0-.01,0-.02-.01-.33-.21-.62-.51-.92-.79-.3-.28-.64-.56-1.01-.66-.4-.11-.81-.04-1.16.24-.54.43-.82,1.19-1.08,1.9-.07.18-.14.37-.22.55-.04.09-.08.18-.12.26-.01.03-.03.05-.04.08,0,0-.02.04-.03.06h0s-.01.03-.02.04c0-.02.01-.02.02-.03-.04.07-.09.13-.13.19-.02.03-.04.05-.06.07,0,0,.02-.02.03-.03.06-.05-.1.11-.05.05,0,0,.01-.01.02-.02,0,0-.01.01-.02.02-.03.03-.06.05-.09.07,0,0-.01,0-.02.01,0,0,0,0,.01,0,.07-.03-.13.08-.04.02,0,0,.02-.01.03-.02-.05.02-.1.04-.16.05.02,0,.04,0,.06,0-.04,0-.08.01-.12.02.02,0,.04-.01.06-.02-.05,0-.11,0-.16,0,.03,0,.05.02.08.02-.04,0-.08-.01-.12-.02.01,0,.03,0,.04,0-.03,0-.05-.01-.08-.02-.03,0-.05-.02-.08-.03,0,0,0,0-.01,0,.01,0,.09.05.01,0-.06-.03-.03-.02-.01,0h0c-.05-.03-.1-.07-.15-.11-.02-.02-.05-.04-.07-.06,0,0,0,0-.01-.01,0,0,0,0,0,0,.04.05-.1-.09-.02-.02,0,0,.01.01.02.02-.09-.1-.18-.21-.26-.33-.02-.03-.05-.07-.07-.1,0,0,0,0,0-.01,0,0,0,0,0,.01.03.06-.06-.1-.02-.04l.02.03c-.04-.06-.07-.13-.1-.19-.27-.54-.45-1.16-.73-1.7-.33-.63-.78-1.14-1.36-1.3-.31-.08-.62-.08-.93,0-.3.09-.57.29-.79.55-.24.28-.41.63-.53,1.02,0,.02-.01.04-.02.06,0,.02-.01.05-.01.08,0,.07,0,.08,0,.03v-.03s0,.03,0,.05c0,.03,0,.05-.01.08-.01.11-.02.22-.03.33,0,.18-.02.36,0,.54.02.2.13.4.3.39.16,0,.3-.17.3-.39,0-.07,0-.14,0-.21,0-.03,0-.06,0-.1,0,0,0,0,0-.01,0,0,0,0,0,0,0,.01,0,.04,0,.04,0,0,0-.02,0-.04,0,0,0,0,0,0,0,0,0-.02,0-.02,0-.04.01-.07.02-.11,0,0,0,0,0-.01,0,.03,0,0,0,0,0-.01,0-.02,0-.02,0,0,0,.01,0,.02,0,0,0,0,0,0,0,0,0,0,0,0,.02-.06.04-.12.07-.18.06-.12.1-.25.17-.37,0,0,0-.01.01-.02,0,0,0,0,.01-.02.03-.05,0,0-.01.02,0,0,.03-.04.03-.05.04-.06.08-.11.12-.16.02-.02.04-.04.05-.06,0,0,0,0,0,0,0,0,0,0-.01.01-.04.03.04-.04.03-.03,0,0-.01.02-.02.02.04-.04.09-.08.13-.11.04-.03.1-.05.13-.09-.01,0-.02.01-.03.02-.04.02.04-.02.04-.02,0,0,0,0-.01,0,0,0,0,0,0,0,.03-.01.06-.02.08-.04.05-.02.11-.04.16-.06.02,0,.05-.01.08-.02,0,0,0,0,0,0,0,0,0,0,0,0-.06,0,.09-.02.04,0-.01,0-.02,0-.03,0,.11,0,.22-.01.34,0,0,0,0,0-.01,0-.08-.02.09,0,.01,0h0s.04,0,.06.01c.06.02.12.04.17.06.02,0,.05.02.07.03,0,0,0,0,0,0-.07-.05.08.04.01,0,0,0,0,0,0,0,.05.03.1.07.15.1.02.02.04.04.06.05,0,0,.02.01.03.03-.02-.02-.02-.03,0,0,.04.04.02.02,0,0,.01.01.03.03.03.03.02.02.04.05.06.08.04.05.08.1.11.15.02.02.03.05.05.07,0,0,0,0,0,.01,0,0,0,0,0-.01,0,0,0,.02.02.03,0,0,0,0,0,0,.03.04,0,.02,0,0,0,0,0-.01-.01-.02.05.12.12.23.18.35.06.12.11.25.16.37.1.26.2.52.3.77.23.58.55,1.11.97,1.49.4.35.93.5,1.39.28.37-.17.64-.49.87-.89.18-.31.31-.66.44-1.01.13-.36.26-.72.44-1.04,0-.02.03-.05.05-.08-.02.03-.05.07-.02.02,0-.01.02-.02.02-.04,0,0,0-.01,0-.02,0,0,0,0,0,.01,0,0,0-.01,0-.02.04-.07.09-.13.14-.19,0,0,.01-.01.02-.02,0,0-.01.01-.02.01,0,0,.01,0,.02-.02,0,0,.02-.02.02-.03.04-.05,0,0-.02.03,0,0,0,0,0,0,.02-.02.05-.05.07-.07.03-.02.05-.04.08-.06,0,0,0,0,.01,0,0,0,0,0,0,0,0,0-.02.02-.03.01,0,0,.12-.07.07-.04-.01,0-.02.01-.03.02.05-.02.1-.04.16-.05-.02,0-.04,0-.06,0l.12-.02s-.04.02-.07.02c.06,0,.13,0,.19,0-.02,0-.04-.02-.07-.02.04,0,.08.01.12.02-.02,0-.04,0-.05,0,.06.01.11.03.17.05.04.02.17.1.02,0,.04.03.09.05.13.08.16.11.31.24.46.38Z"/>
    <path d="M134.99,109.58s-.02-.02,0,0c.03.02.05.05,0,0Z"/>
    <path d="M140.35,109.79s.02-.01.03-.01c0,0,0,0,0,0,.01,0,.02-.01.03-.02.05-.03-.07.04-.07.04Z"/>
    <path d="M140.04,110.15s0-.02.01-.02h0s0,.02,0,.02Z"/>
    <path d="M135.24,109.9s0,0,0,.01c0,0,0,.01.01.02,0-.01-.01-.02-.02-.03Z"/>
    <path d="M140.2,109.92s.01,0,.02-.01c0,0,0,0,0,0,0,0-.02.01-.02.02Z"/>
    <path d="M136.94,111.4s0,0,0-.01l-.02-.03c-.04-.06.06.1.02.04Z"/>
    <path d="M140.67,109.7s.04.02.07.02c.02,0,.04,0,.05,0-.04,0-.08-.01-.12-.02Z"/>
    <path d="M140.49,109.72s.04,0,.06,0c.02,0,.04-.02.07-.02l-.12.02Z"/>
    <path d="M133.3,109.86s-.01.02-.01.02c.02-.03.04-.07.01-.02Z"/>
    <path d="M133.01,110.6s0,0,0,0c0,0,0,0,0,0Z"/>
    <path d="M133.04,110.45s0,0,0,0c0,.02-.01.03,0,0Z"/>
    <path d="M134.73,109.38s0,0,0,0c0,0,0,0,0,0,.07.03-.08-.05-.01,0Z"/>
    <path d="M133.49,109.61s0,0,.01-.01c0,0,.02-.01.02-.02,0,0-.07.07-.03.03Z"/>
    <path d="M134.09,109.28s0,0,0,0c.01,0,.02,0,.03,0,.06-.01-.1.01-.04,0Z"/>
    <path d="M134.42,109.28s0,0,.01,0h0c.08,0-.09-.02-.01,0Z"/>
    <path d="M133.74,109.42s.02-.01.03-.02c0,0,0,0,.01,0,0,0-.08.04-.04.02Z"/>
    <polygon points="141.77 115.14 141.77 115.14 141.77 115.14 141.77 115.14 141.77 115.14"/>
    <path d="M141.9,115.04s0,0,0,0c.05-.04-.08.03,0,0Z"/>
    <path d="M142.17,114.94s0,0-.01,0c.03,0,.04,0,.05,0,0,0-.02,0-.02,0,0,0,0,0-.01,0Z"/>
    <polygon points="141.77 115.14 141.77 115.14 141.77 115.14 141.77 115.14 141.77 115.14"/>
    <path d="M142.4,114.97s.02.01.03.02c0,0,0,0,.01,0,.04.02-.04-.02-.04-.02Z"/>
    <polygon points="141.77 115.14 141.77 115.14 141.77 115.14 141.77 115.14 141.77 115.14"/>
    <path d="M142.31,114.94s0,0,0,0c0,0,.01,0,.02,0,.07,0-.1-.03-.02,0Z"/>
    <polygon points="141.77 115.14 141.77 115.14 141.77 115.14 141.77 115.14"/>
    <polygon points="141.77 115.14 141.77 115.14 141.77 115.14 141.77 115.14 141.77 115.14"/>
    <polygon points="141.77 115.14 141.77 115.13 141.77 115.13 141.77 115.14 141.77 115.14 141.77 115.14"/>
    <path d="M141.77,115.14s.04-.05,0,0c0,0,0,0,0,0,0,0,0,0,0,0,0,0,0,0,0,0Z"/>
    <polygon points="141.77 115.14 141.77 115.13 141.77 115.14 141.77 115.14"/>
    <polygon points="141.77 115.14 141.77 115.14 141.77 115.14 141.77 115.14"/>
    <path d="M141.77,115.14s0,0,0,0c0,0-.02.02,0,0,0,0,0,0,0,0Z"/>
    <path d="M144.28,115.64s0,0-.04-.03c0,0,0,0,0,0,.01,0,.03.02.04.03Z"/>
    <path d="M144.9,115.87s-.04,0-.07,0c-.02,0-.04.01-.06.02.04,0,.08-.01.12-.02Z"/>
    <path d="M144.68,115.88s0,0,.01,0c0,0-.02,0-.03,0,0,0,0,0,0,0,0,0,0,0,0,0Z"/>
    <path d="M144.53,115.83s-.01,0-.02-.01c0,0-.01,0-.02,0-.05-.02.09.05.04.02Z"/>
    <path d="M145.08,115.79s0,0,0,0c-.07.04.07-.03,0,0Z"/>
    <path d="M150.23,114.93c-.04-.07-.07-.14-.13-.19-.04-.04-.09-.09-.13-.13.01.02-.06-.06-.02-.02,0,0,.02.02.02.02,0,0,0,0-.01-.01-.02-.02-.04-.05-.06-.07-.09-.1-.16-.16-.27-.2-.05-.02-.09-.03-.14-.05-.09-.03-.18-.06-.27-.08-.4-.09-.81-.13-1.22-.08-.4.05-.8.16-1.17.36-.2.11-.4.22-.58.36-.16.12-.31.26-.46.39-.17.16-.35.31-.53.45-.04.03-.09.06-.14.09-.01,0-.03.02-.04.02.07-.03-.08.05,0,0,0,0,0,0,0,0,0,0,0,0-.01,0-.07.04-.15.06-.23.08.02,0,.04,0,.07,0-.04,0-.08.01-.12.02.02,0,.04-.01.06-.02-.05,0-.1,0-.14,0,.04,0,0,0-.02,0,0,0,0,0,0,0-.01,0-.03,0-.04,0,.02,0,.03,0,.04,0-.04-.01-.08-.02-.12-.04-.01,0-.03-.01-.04-.02,0,0,.01,0,.02.01.05.03-.09-.04-.04-.02,0,0,.01,0,.02,0-.03-.02-.05-.03-.08-.05-.05-.04-.1-.08-.15-.13,0,0-.02,0-.03-.02,0,0,0,0,0,0,0,0,0,0-.01,0,0,0,0,0,0,0,0-.01-.02-.02-.03-.03-.03-.03-.06-.07-.09-.1-.06-.07-.11-.14-.17-.22-.11-.15-.21-.3-.32-.45-.26-.35-.54-.65-.89-.82-.33-.16-.68-.12-1,.06-.17.09-.34.34-.4.56.05-.16-.03.08-.03.12,0,.04-.01.08-.02.12-.02.11-.04.21-.04.33,0,.17.1.31.22.33.11.02.26-.07.28-.24,0-.03,0-.06.01-.09,0-.01,0-.02,0-.03,0,0,0,0,0,0,0,0,0,0,0,.01,0,0,0,0,0,0,0,0,0,0,0,0-.01.01,0,0,0,0,0-.02,0-.04,0-.01,0,0,0,0,0,0h0s0,0,0,0c0,0,0,0,0,0,.04-.04,0,0,0,0,0,0,0,0,0,0,0,0,0,0,0,0,0,0,.02-.02.02-.02.04-.03.07-.05.11-.08-.07.03.06-.04,0,0,0,0,0,0,0,0,0,0,0,0,0,0,.03,0,.05-.02.08-.03.05-.02.09-.04.14-.05.01,0,.03,0,.04-.01,0,0,0,0-.02,0,0,0,.02,0,.03,0,0,0,.01,0,.02,0,.02,0,.03,0,.02,0,.03,0,.07,0,.1,0,0,0,0,0,0,0-.08-.03.08,0,.02,0,0,0-.01,0-.02,0,.03,0,.06.02.09.03,0,0,.02,0,.03.01,0,0-.02-.01-.03-.02,0,0,.08.04.04.02,0,0,0,0-.01,0,.02.01.04.03.06.04.06.04.11.08.16.13.01,0,.02.02.03.03,0,0-.02-.02-.02-.03,0,0,.08.08.03.03,0,0,0,0,0,0,.02.02.03.03.05.05.05.06.1.11.14.17.18.24.34.5.52.74.19.27.41.52.67.69.32.2.64.26.99.2.54-.1.98-.57,1.43-.95.12-.1.23-.2.36-.28.07-.05.13-.09.2-.13.01,0,.02-.01.03-.02,0,0-.01,0-.02.01-.05.03.11-.07.03-.01,0,0,0,0,0,0,.03-.01.05-.03.08-.04.25-.12.52-.21.79-.26-.02,0-.04,0-.06,0l.13-.02s-.05.01-.07.02c.31-.05.62-.05.94,0-.02,0-.04-.01-.07-.02.04,0,.08.01.13.02-.02,0-.04,0-.06,0,.18.04.36.1.54.16.13.04.26,0,.39.02.05,0,.1.02.15.01.03,0,.16,0,.09-.01-.05,0,.04,0,.05,0,.18-.02.33-.27.22-.49-.01-.03-.11-.22-.06-.12Z"/>
    <path d="M149.97,114.61s-.02-.02-.02-.02c-.04-.04.04.04.02.02Z"/>
    <path d="M147.04,115.67s.01,0,.02-.01c0,0,0,0,0,0,.09-.05-.08.04-.03.01Z"/>
    <path d="M142.66,115.16s.02.02.02.03c0,0,0,0,0,0,.06.05-.02-.02-.03-.03Z"/>
    <path d="M148.79,115.34s.04.01.07.02c.02,0,.04,0,.06,0-.04,0-.08-.01-.13-.02Z"/>
    <path d="M141.77,115.12s0,0,0,.01c0,0,0,0,0,0,0,0,0,0,0,0Z"/>
    <path d="M147.87,115.36s.04,0,.06,0c.02,0,.05-.01.07-.02l-.13.02Z"/>
    <path d="M141.77,115.15s0,0,0-.01c0,0,0,0,0,0,0,0,0,0,0,0Z"/>
    <path d="M132.89,100.11s0,0,0,0l-.05-.08s.03.05.05.08Z"/>
    <path class="cls-3" d="M136.58,99.87c-.52-.9-.92-1.94-1.11-3.03-.19-1.08-.18-2.2.01-3.28.19-1.06.58-2.05,1.12-2.89.52-.82,1.23-1.45,2.01-1.77.92-.39,1.98-.34,2.88.13.49.25.94.6,1.34,1.06.35.4.65.9.88,1.42.23.53.41,1.12.49,1.73.1.72.09,1.43,0,2.16-.17,1.37-.67,2.64-1.12,3.89-.24.65-.47,1.3-.71,1.94-.02.04-.03.09-.05.13l3.46-.08c.06-.05.12-.1.18-.16.35-.36.66-.77.94-1.22.34-.59.63-1.22.85-1.89.22-.7.37-1.44.46-2.19.07-.76.07-1.53,0-2.29-.1-.91-.29-1.79-.56-2.64-.33-.99-.76-1.93-1.27-2.79-.62-1.02-1.33-1.93-2.12-2.73-.27-.27-.54-.52-.82-.76-1.04-.89-2.16-1.63-3.3-2.26-.54-.29-1.08-.56-1.63-.81-.29.31-.57.62-.85.94-1.34,1.49-2.64,3.05-3.72,4.86-.64,1.09-1.19,2.26-1.6,3.51-.31.97-.53,1.97-.65,3.01-.08.81-.09,1.64-.01,2.45.08.71.23,1.39.43,2.05.22.64.48,1.25.81,1.8.29.48.63.92,1,1.3.03.03.06.06.09.08l3.71-.09c-.42-.48-.8-1-1.14-1.58Z"/>
    <path d="M142.04,102.09c1.06-.04,2.12-.11,3.18-.2.05-.14.12-.27.22-.35.11-.08.22-.19.33-.29l-3.46.08c-.09.25-.18.5-.27.76Z"/>
    <path d="M134,101.53s.08.08.13.12c.13.11.28.21.39.34l-.11-.11c.06.06.13.1.2.16.71.04,1.43.07,2.14.09.54.01,1.09.01,1.63.01-.24-.22-.46-.46-.68-.71l-3.71.09Z"/>
    <path d="M135.7,103.07l1.37-.12c-.47-.01-.94-.03-1.41-.05.02.06.03.11.04.17Z"/>
    <polygon points="140.39 102.66 140.4 102.65 140.39 102.65 140.39 102.66"/>
    <path d="M139.07,102.72s.05.03.08.04h0c-.21-.11-.41-.29-.59-.45-.06-.05-.11-.11-.17-.16-.54,0-1.09,0-1.63-.01-.71-.02-1.43-.05-2.14-.09.11.09.23.19.35.27.04.03.09.06.14.09.04.03.03.02-.04-.02.08.03.14.08.2.15-.02-.02-.04-.04-.05-.06.01.01.03.02.04.03.09.07.19.13.28.2.06.04.11.11.14.2.47.02.94.04,1.41.05l2.07-.18s-.05-.03-.07-.04Z"/>
    <path d="M142.04,102.09s-.02.06-.03.1c-.04.11-.08.22-.12.33l3.29-.29c0-.12.02-.23.05-.33-1.06.09-2.12.16-3.18.2Z"/>
    <path class="cls-3" d="M131.09,96.13c-.25-3.14.7-6.28,2.13-8.83,1.43-2.55,3.31-4.61,5.17-6.64,2.41,1.1,4.78,2.48,6.73,4.62,1.95,2.14,3.45,5.12,3.71,8.41.22,2.76-.54,5.7-2.1,7.54l.85-.02c.47-.66.86-1.41,1.16-2.24.57-1.62.84-3.44.7-5.22-.15-1.95-.68-3.81-1.5-5.46-.41-.82-.88-1.6-1.4-2.31-.53-.73-1.12-1.38-1.73-1.98-1.24-1.21-2.61-2.16-4.04-2.95-.4-.22-.79-.43-1.2-.63-.18-.09-.37-.18-.55-.27-.24-.11-.54-.32-.79-.23-.17.06-.29.24-.42.38-.08.09-.16.17-.24.26-.15.16-.3.33-.45.5-.3.34-.6.67-.9,1.02-1.21,1.4-2.36,2.88-3.34,4.57-.95,1.64-1.7,3.51-2.1,5.5-.38,1.9-.43,3.95.03,5.84.32,1.32.85,2.57,1.59,3.57l.77-.02c-1.16-1.37-1.92-3.37-2.08-5.41Z"/>
    <path d="M133.57,101.98c-.14-.14-.27-.28-.4-.43l-.77.02c.09.12.17.24.26.35.3.02.61.05.91.07Z"/>
    <path d="M146.18,101.81c.33-.03.67-.05,1-.09,0,0,0,0,0,0,.14-.16.27-.33.4-.51l-.85.02c-.17.21-.36.4-.55.58Z"/>
    <path d="M146.02,102.82c.08-.06.15-.12.22-.18-.29.03-.59.05-.88.08.18.21.44.27.66.1Z"/>
    <path d="M134.01,103.14s-.02-.02-.04-.02c-.03-.02-.06-.03-.09-.05.04.02.08.05.13.07Z"/>
    <path d="M134.78,102.86c-.42-.02-.85-.05-1.27-.08h0c.15.13.3.26.47.34.13.07.27.15.4.21-.04-.02-.08-.04-.12-.06.17.1.36.17.54.23.1.03.21.04.31.05.08.01.16.02.24.02.15.01.31-.15.35-.34,0-.05.01-.1,0-.16l-.35.03c-.2-.07-.38-.15-.57-.25Z"/>
    <path d="M133.57,101.98c-.3-.02-.61-.04-.91-.07.12.15.25.3.39.43.15.15.29.3.45.43.42.03.85.06,1.27.08-.43-.22-.83-.52-1.2-.88Z"/>
    <path d="M147.18,101.72c-.33.04-.67.06-1,.09-.14.13-.29.26-.45.37l-.56.05c0,.11.02.22.07.32.03.06.07.11.12.16.29-.02.59-.05.88-.08.33-.27.65-.57.94-.91,0,0,0,0,0,0Z"/>
    <path d="M144.19,85.28s.04.05.06.07c.02.02.04.03.05.05-.04-.04-.08-.08-.12-.12Z"/>
    <path d="M146.33,87.99s.03.06.05.09c.01.02.03.05.04.07-.03-.05-.06-.1-.09-.16Z"/>
    <path class="cls-3" d="M138.24,81.38c.09.04.18.09.27.13.1-.11.19-.21.29-.32-.19.06-.37.13-.56.19Z"/>
    <path d="M140.06,82.29s.04.03.07.04c.02.01.05.02.07.04-.05-.03-.09-.05-.14-.08Z"/>
    <path d="M133.89,87.37s.03-.04.04-.06c.02-.03.03-.06.05-.09-.03.05-.06.1-.09.15Z"/>
    <path d="M148.2,93.39s0,.07,0,.11c0,.03,0,.07.01.1l-.02-.21Z"/>
    <path d="M146.95,99.8s-.04.05-.05.08c-.02.03-.03.06-.04.08.03-.05.06-.11.09-.16Z"/>
    <path d="M147.61,90.77s.02.07.03.1c0,.03.02.06.03.09-.02-.06-.04-.12-.06-.19Z"/>
    <path d="M147.77,97.92s-.02.04-.02.06c-.01.04-.02.08-.04.13.02-.06.04-.13.06-.19Z"/>
    <path d="M148.22,95.69s0,.07-.01.11c0,.03,0,.07,0,.1,0-.07.01-.14.02-.21Z"/>
    <path d="M132.3,90.9s.02-.05.03-.08c.01-.03.02-.06.03-.1-.02.06-.04.12-.06.18Z"/>
    <path d="M146.02,101.05s-.04.04-.06.05c-.02.02-.04.04-.05.06.04-.04.08-.08.12-.12Z"/>
    <path d="M133.95,101.48s-.02-.03-.03-.04c-.02-.02-.05-.05-.08-.07.04.04.07.07.11.11Z"/>
    <path d="M132.93,100.17s-.01-.02-.02-.03c0-.01-.01-.02-.02-.03.01.02.03.04.04.06Z"/>
    <path class="cls-3" d="M133.91,101.44s.02.03.03.04c-.04-.04-.07-.07-.11-.11.02.02.05.05.08.07-.37-.38-.71-.82-1-1.3,0,.01.01.02.02.03-.01-.02-.03-.04-.04-.06,0,0,0,0,0,0,.03.05.06.09.08.14-.03-.05-.06-.1-.09-.15,0,0,0,0,0,0-.02-.03-.03-.05-.05-.08l.05.08s.01.02.02.03c-.33-.56-.6-1.16-.81-1.8,0,.03.01.06.02.09-.02-.06-.04-.12-.06-.17,0,.03.02.06.03.09-.21-.66-.35-1.35-.43-2.05,0,.04,0,.09,0,.13,0-.06-.01-.13-.02-.19,0,.02,0,.04.01.07-.08-.82-.07-1.64.01-2.45,0,.03,0,.06-.01.08l.02-.19s0,.07,0,.11c.12-1.03.34-2.04.65-3.01,0,.03-.02.05-.03.08.02-.06.04-.12.06-.18-.01.03-.02.06-.03.1.42-1.26.96-2.43,1.6-3.51-.01.02-.03.04-.04.06.03-.05.06-.1.09-.15-.02.03-.03.06-.05.09,1.08-1.81,2.38-3.37,3.72-4.86.28-.32.57-.63.85-.94-.09-.04-.18-.09-.27-.13.19-.06.37-.13.56-.19-.1.11-.19.21-.29.32.55.26,1.09.52,1.63.81-.02-.01-.04-.03-.07-.04.05.03.09.05.14.08-.02-.01-.05-.02-.07-.04,1.15.63,2.26,1.37,3.3,2.26.28.24.55.5.82.76-.02-.02-.04-.05-.06-.07.04.04.08.08.12.12-.02-.02-.04-.03-.05-.05.79.8,1.5,1.71,2.12,2.73-.02-.03-.03-.06-.05-.09.03.05.06.1.09.16-.01-.02-.03-.05-.04-.07.5.86.94,1.79,1.27,2.79-.01-.03-.02-.07-.03-.1.02.06.04.12.06.19,0-.03-.02-.06-.03-.09.27.85.46,1.73.56,2.64,0-.04,0-.07,0-.11l.02.21s0-.07-.01-.1c.07.76.07,1.53,0,2.29,0-.04.01-.07.01-.11,0,.07-.01.14-.02.21,0-.03,0-.07,0-.1-.08.75-.24,1.49-.46,2.19,0-.02.02-.04.02-.06-.02.06-.04.13-.06.19.01-.04.02-.08.04-.13-.22.67-.51,1.31-.85,1.89.02-.03.04-.05.05-.08-.03.05-.06.11-.09.16.02-.03.03-.06.04-.08-.28.45-.59.86-.94,1.22.02-.02.04-.04.06-.05-.04.04-.08.08-.12.12.02-.02.04-.04.05-.06-.06.06-.12.1-.18.16l.95-.02c1.56-1.84,2.32-4.78,2.1-7.54-.27-3.29-1.76-6.27-3.71-8.41-1.95-2.14-4.32-3.52-6.73-4.62-1.86,2.03-3.74,4.09-5.17,6.64-1.43,2.55-2.38,5.69-2.13,8.83.16,2.04.92,4.05,2.08,5.41l.83-.02s-.06-.06-.09-.08Z"/>
    <path d="M132.13,98.42s-.01-.06-.02-.09c0-.03-.02-.06-.03-.09.02.06.04.12.06.17Z"/>
    <path d="M131.68,96.41s0-.08,0-.13c0-.02,0-.04-.01-.07,0,.06.01.13.02.19Z"/>
    <path d="M131.67,93.91s0-.06.01-.08c0-.04,0-.07,0-.11l-.02.19Z"/>
    <path d="M132.98,100.25s-.06-.09-.08-.14c0,0,0,0,0,0,.03.05.06.1.09.15Z"/>
    <path d="M134.42,101.89l.11.11c-.12-.14-.26-.23-.39-.34-.04-.04-.09-.08-.13-.12l-.83.02c.13.15.26.3.4.43.35.02.69.04,1.04.06-.07-.05-.14-.1-.2-.16Z"/>
    <path d="M145.45,101.55c-.1.08-.18.21-.22.35.32-.03.64-.06.96-.08.19-.18.38-.37.55-.58l-.95.02c-.11.1-.21.2-.33.29Z"/>
    <path d="M134.78,102.86c.19.09.37.18.57.25l.35-.03c0-.06-.02-.12-.04-.17-.3-.01-.59-.02-.89-.04Z"/>
    <path d="M135.66,102.9c-.03-.08-.07-.16-.14-.2-.1-.06-.19-.13-.28-.2-.01-.01-.03-.02-.04-.03.02.02.04.04.05.06-.06-.07-.12-.12-.2-.15.07.04.09.05.04.02-.04-.03-.09-.06-.14-.09-.12-.08-.23-.18-.35-.27-.35-.02-.69-.04-1.04-.06.37.36.77.66,1.2.88.3.02.59.03.89.04Z"/>
    <path d="M145.18,102.23l.56-.05c.15-.11.3-.24.45-.37-.32.03-.64.06-.96.08-.04.11-.05.22-.05.33Z"/>
    <path d="M140.4,102.65l.32.04s0-.05,0-.07l-.32.03Z"/>
    <path class="cls-3" d="M141.91,99.05c.24-.67.5-1.34.72-2.03.21-.67.39-1.36.48-2.08.04-.4.04-.8,0-1.2-.05-.37-.12-.73-.23-1.08-.12-.34-.26-.66-.43-.96-.17-.27-.36-.52-.56-.74-.22-.21-.45-.38-.69-.52-.28-.14-.56-.24-.85-.3-.29-.04-.59-.05-.88,0-.27.05-.53.15-.79.28-.25.14-.48.32-.7.53-.24.25-.45.52-.64.83-.22.38-.4.79-.55,1.23-.15.48-.26.98-.32,1.5-.04.49-.05.99,0,1.48.06.54.18,1.08.34,1.59.2.59.46,1.15.76,1.67.38.62.81,1.17,1.29,1.66.11.11.22.21.33.31.08.07.16.13.24.2l1.62-.04s.04-.1.05-.15c.26-.72.53-1.45.79-2.17Z"/>
    <path d="M141.07,101.37l-1.62.04c.09.07.18.15.26.24-.04-.04-.07-.07-.11-.11.05.05.11.1.16.15.09.08.16.15.22.27-.08-.16-.04-.08,0-.03.02.02.04.05.06.07,0,0,0,0,0,.01.02.02.05.04.06.07.02.02.04.04.06.06.21,0,.41,0,.62-.01.03-.1.07-.19.1-.29.06-.16.11-.31.17-.47Z"/>
    <path d="M140.74,102.36c0-.08.03-.16.05-.23-.21,0-.41.01-.62.01,0,0,.01.01.02.02,0,0,0,0,0,0,0,0,0,0,.01.01,0,0,0,0,0,0,0,0,0,0,0,0,.12.12.2.29.18.48h0s.32-.03.32-.03c0-.09.01-.18.02-.27Z"/>
    <path d="M139.67,103.01s.08.01.12.02c-.02,0-.05,0-.07,0,0,0,.05.02.06.02.04.01.09.03.13.04.13.04.27,0,.36-.12-.22,0-.45,0-.67,0,.02,0,.04.02.07.04Z"/>
    <path d="M139.62,102.98s.02,0-.02-.01t0,0s-.02,0-.03,0c.02,0,.03.01.05.01Z"/>
    <path d="M140.77,103.07c.05.11.13.2.23.25.17.09.38.05.51-.13.07-.09.13-.18.19-.27-.32.01-.65.03-.97.03.01.04.02.08.04.11Z"/>
    <path d="M140.36,102.79s.02-.09.02-.14l-1.24.11s.03.02.04.03c-.02,0-.03-.02-.05-.03h0c.14.09.28.17.43.18-.04,0-.09-.02-.13-.02.04.01.08.03.12.04,0,0,0,0,.01,0,0,0,.02,0,.03,0-.04-.03-.04-.03,0,0,.22,0,.45,0,.67,0,.04-.05.07-.1.09-.17Z"/>
    <path d="M141.89,102.52l-.64.06c-.02.06-.04.12-.07.18l-.47-.06s0,.04,0,.06c0,.06,0,.13.03.19.32,0,.65-.02.97-.03.05-.07.09-.15.12-.24.02-.06.04-.11.06-.17Z"/>
    <path class="cls-3" d="M135.96,96.39c-.41-2.76.74-5.95,2.81-6.8,1.11-.46,2.39-.2,3.34.68.95.88,1.56,2.36,1.59,3.87.03,1.54-.48,3-.99,4.39-.34.94-.68,1.88-1.03,2.82h.63c.02-.06.03-.1.05-.14.24-.65.47-1.3.71-1.94.45-1.25.95-2.52,1.12-3.89.09-.73.1-1.43,0-2.16-.09-.6-.26-1.19-.49-1.73-.23-.53-.53-1.02-.88-1.42-.4-.46-.84-.8-1.34-1.06-.9-.46-1.96-.51-2.88-.13-.78.33-1.49.95-2.01,1.77-.54.84-.92,1.83-1.12,2.89-.2,1.08-.21,2.2-.01,3.28.2,1.1.59,2.14,1.11,3.03.34.58.72,1.1,1.14,1.58l.82-.02c-1.28-1.26-2.27-3.01-2.57-5.04Z"/>
    <path d="M141.69,101.35c-.09.25-.18.51-.28.76.18,0,.37,0,.55-.01.03,0,.05,0,.08,0,.09-.25.18-.5.27-.76h-.63Z"/>
    <path d="M139.38,102.16c-.29-.22-.57-.47-.84-.73l-.82.02c.22.25.44.49.68.71.33,0,.66.01.98,0Z"/>
    <path d="M140.01,102.6c-.22-.13-.43-.29-.64-.44-.33,0-.66,0-.98,0,.06.05.11.11.17.16.19.17.38.34.59.45l1.24-.11s0,0,0,0l-.37-.05Z"/>
    <path d="M139.14,102.77h0s-.05-.03-.08-.04c.02.01.05.03.07.04Z"/>
    <path d="M142.04,102.09s-.05,0-.08,0c-.18,0-.37,0-.55.01-.06.16-.11.31-.17.47l.64-.06c.04-.11.08-.22.12-.33.01-.03.02-.06.03-.1Z"/>
    <path d="M140.72,102.7l.47.06c.02-.06.04-.12.07-.18l-.53.05s0,.05,0,.07Z"/>
    <path d="M137.3,91.84s.03-.05.05-.07c.01-.02.02-.05.04-.08-.03.05-.06.1-.09.15Z"/>
    <path d="M138.91,100.93s-.02-.03-.03-.04c-.02-.02-.05-.05-.07-.07.04.04.07.07.11.11Z"/>
    <path d="M137.62,99.31s-.03-.05-.04-.08c-.01-.02-.03-.04-.04-.06l.09.14Z"/>
    <path d="M136.76,93.08s.02-.06.03-.09c0-.03.01-.06.02-.09l-.06.17Z"/>
    <path d="M137.92,90.99s.04-.03.06-.05c.02-.02.03-.04.05-.06-.04.04-.08.08-.11.11Z"/>
    <path d="M140.28,90.11s.05.01.07.02c.03,0,.05,0,.08,0-.05,0-.1-.02-.15-.03Z"/>
    <path d="M136.85,97.65s-.02-.06-.03-.09c0-.03-.02-.05-.03-.08.02.06.04.12.06.17Z"/>
    <path d="M136.48,96.07s0-.07,0-.1c0-.03-.01-.06-.01-.09l.02.19Z"/>
    <path d="M136.47,94.59s.01-.06.01-.09c0-.03,0-.07,0-.1,0,.06-.01.13-.02.19Z"/>
    <path d="M142.42,91.62s.03.05.04.08c.02.02.03.05.05.07-.03-.05-.06-.1-.09-.15Z"/>
    <path d="M142.86,92.56s.02.06.02.09c0,.03.02.05.03.08-.02-.06-.04-.12-.06-.17Z"/>
    <path d="M141.84,90.9s.03.04.05.06c.02.02.04.03.06.05-.04-.04-.08-.08-.11-.11Z"/>
    <path d="M141.14,90.4s.04.03.06.04c.02.01.05.02.07.03-.04-.02-.09-.05-.13-.07Z"/>
    <path d="M143.11,93.64s0,.06,0,.1c0,.03.01.07.02.1,0-.06-.01-.13-.02-.19Z"/>
    <path d="M143.13,94.84s-.01.07-.02.1c0,.03,0,.06,0,.09l.02-.19Z"/>
    <path d="M138.61,90.44s.05-.02.07-.03c.02-.01.04-.03.07-.04-.04.02-.09.05-.13.07Z"/>
    <path d="M142.66,96.94s-.02.05-.03.08c-.01.03-.02.06-.03.09.02-.06.04-.12.06-.17Z"/>
    <path d="M139.4,90.14s.05,0,.07,0c.03,0,.05-.02.08-.02-.05,0-.1.02-.15.03Z"/>
    <path class="cls-3" d="M139.2,101.2c-.11-.1-.22-.2-.33-.31.01.01.02.03.03.04-.04-.04-.07-.07-.11-.11.02.02.05.05.07.07-.48-.49-.92-1.04-1.29-1.66.01.03.03.05.04.08l-.09-.14s.03.04.04.06c-.3-.52-.56-1.08-.76-1.67,0,.03.02.06.03.09-.02-.06-.04-.12-.06-.17,0,.03.02.05.03.08-.16-.51-.28-1.04-.34-1.59,0,.03,0,.07,0,.1l-.02-.19s.01.06.01.09c-.04-.49-.04-.99,0-1.48,0,.03-.01.06-.01.09,0-.06.01-.13.02-.19,0,.03,0,.07,0,.1.06-.51.17-1.02.32-1.5-.01.03-.02.06-.03.09l.06-.17s-.01.06-.02.09c.15-.43.33-.85.55-1.23-.02.02-.03.05-.05.07.03-.05.06-.1.09-.15-.01.02-.03.05-.04.08.19-.3.4-.58.64-.83-.02.02-.04.03-.06.05.04-.04.08-.08.11-.11-.02.02-.03.04-.05.06.22-.21.45-.39.7-.53-.02.01-.05.02-.07.03.04-.02.09-.05.13-.07-.02.01-.04.03-.07.04.25-.13.52-.22.79-.28-.02,0-.05,0-.07,0,.05,0,.1-.02.15-.03-.03,0-.05.01-.08.02.29-.04.59-.04.88,0-.02,0-.05-.01-.07-.02.05,0,.1.02.15.03-.03,0-.05,0-.08,0,.29.06.58.16.85.3-.02-.01-.04-.03-.06-.04.04.02.09.05.13.07-.02-.01-.05-.02-.07-.03.24.14.47.32.69.52-.02-.02-.03-.04-.05-.06.04.04.08.08.11.11-.02-.02-.04-.03-.06-.05.21.22.4.47.56.74-.01-.02-.02-.05-.04-.08.03.05.06.1.09.15-.02-.03-.03-.05-.05-.07.17.3.31.62.43.96,0-.03-.01-.06-.02-.09.02.06.04.12.06.17,0-.03-.02-.05-.03-.08.11.35.19.71.23,1.08,0-.03,0-.06,0-.1,0,.06.01.13.02.19,0-.03-.01-.07-.02-.1.03.4.03.8,0,1.2,0-.03.01-.07.02-.1l-.02.19s0-.06,0-.09c-.09.72-.27,1.41-.48,2.08,0-.03.02-.05.03-.08-.02.06-.04.12-.06.17.01-.03.02-.06.03-.09-.23.68-.48,1.35-.72,2.03-.26.72-.53,1.45-.79,2.17-.02.05-.04.1-.05.15h.63c.34-.95.68-1.89,1.03-2.83.51-1.39,1.02-2.85.99-4.39-.03-1.52-.64-2.99-1.59-3.87-.95-.88-2.23-1.14-3.34-.68-2.07.85-3.22,4.04-2.81,6.8.3,2.03,1.29,3.77,2.57,5.04l.91-.02c-.08-.07-.16-.13-.24-.2Z"/>
    <path d="M140.05,102.01s-.02-.03-.04-.04c.04.05.05.05.04.04Z"/>
    <path d="M141.07,101.37c-.06.16-.11.31-.17.47-.03.1-.07.19-.1.29.21,0,.41,0,.62-.01.09-.25.18-.51.28-.76h-.63Z"/>
    <polygon points="140.17 102.13 140.17 102.14 140.17 102.14 140.17 102.13"/>
    <path d="M140.05,102.01s0,0-.04-.04c.02.01.03.03.04.04,0,0,0,0,0-.01-.02-.02-.04-.05-.06-.07-.04-.04-.07-.12,0,.03-.06-.12-.13-.19-.22-.27-.06-.05-.11-.1-.16-.15.04.04.07.07.11.11-.08-.09-.17-.17-.26-.24l-.91.02c.27.27.55.51.84.73.27,0,.53-.01.8-.02,0,0,0,0,0,0,0,0,0,0,0,0h0s-.04-.04-.06-.06c-.02-.03-.04-.05-.06-.07Z"/>
    <path d="M139.38,102.16c.21.16.42.31.64.44l.37.05c.02-.19-.06-.36-.18-.48,0,0-.02-.02-.03-.03-.27,0-.53.02-.8.02Z"/>
    <path d="M140.21,102.17h0s0,0,0,0Z"/>
    <path d="M140.21,102.17s0,0-.01-.01c0,0,.02.02.01.01,0,0,0,0,0,0Z"/>
    <path d="M140.2,102.16s0,0,0,0c0,0-.01-.01-.02-.02h0s.01.01.02.02Z"/>
    <path d="M140.8,102.12c-.02.08-.05.15-.05.23,0,.09-.01.18-.02.27l.53-.05c.06-.16.11-.31.17-.47-.21,0-.41,0-.62.01Z"/>
    <path d="M140.17,102.14s.03.03.03.03h0s0,0-.01-.01c0,0-.01-.01-.02-.02h0Z"/>
  </g>
  <g id="Graphic_Elements" data-name="Graphic Elements">
    <g>
      <g>
        <path class="cls-2" d="M138.54,24.06c10.23,3.03-3.31,26.47-5.37,33.25-3.56,7.93-5.05,16.52-7.44,24.45-5.01,25.89-11.27,51.94-20.63,76.7-1.14,6.17-3.96,11.88-6.09,17.75-2.15,4.12-1.96,8.19-7.82,4.62"/>
        <path class="cls-1" d="M93.65,182.47c-.77-.21-1.66-.63-2.7-1.27-.21-.13-.28-.4-.15-.61.13-.21.4-.28.61-.15,1.8,1.1,3.09,1.5,3.93,1.22.98-.32,1.5-1.59,2.15-3.2.31-.75.65-1.6,1.09-2.44.62-1.7,1.3-3.42,1.97-5.08,1.62-4.05,3.29-8.24,4.09-12.58,0-.03.01-.05.02-.08,8.09-21.42,14.64-45.76,20.61-76.62,0-.01,0-.03.01-.04.77-2.55,1.46-5.24,2.13-7.83,1.42-5.53,2.9-11.25,5.32-16.64.46-1.52,1.48-3.84,2.66-6.52,3.27-7.44,8.2-18.69,5.85-23.76-.56-1.21-1.49-1.99-2.85-2.39-.24-.07-.37-.32-.3-.56.07-.24.31-.37.56-.3,1.59.47,2.74,1.44,3.4,2.87,2.52,5.43-2.31,16.45-5.84,24.49-1.17,2.67-2.19,4.98-2.63,6.45,0,.02-.01.04-.02.05-2.4,5.33-3.86,11.02-5.28,16.52-.67,2.6-1.36,5.28-2.13,7.85-5.97,30.88-12.53,55.26-20.63,76.71-.82,4.41-2.5,8.63-4.14,12.71-.66,1.66-1.35,3.38-1.97,5.08,0,.02-.01.04-.02.05-.42.81-.75,1.62-1.07,2.39-.71,1.75-1.33,3.26-2.7,3.71-.56.18-1.21.17-1.98-.04ZM133.16,57.31h0s0,0,0,0Z"/>
      </g>
      <g>
        <path class="cls-2" d="M126.95,52.03c1.29-7.93,1.43-16.52,5.26-23.78,1.24-3.45,6.59-7.93,7.06-1.48.12,2.77-1.63,5.16-1.9,7.88-2.4,11.56-7.78,22.08-11.31,33.29-2.89,7.49-3.2,15.68-5.03,23.47-2.93,12.64-7.21,24.81-10,37.47-5.4,16.44-9.48,33.45-15.86,49.48-3.31,5.91-8.18.48-5.12-4.3,3.36-6.98,4.15-14.59,6.23-21.91,6.82-17.83,10.48-36.56,16.17-54.74,3.94-15.4,12.72-29.51,14.5-45.39Z"/>
        <path class="cls-1" d="M91.2,181.31c-.8-.22-1.51-.82-1.98-1.68-.72-1.32-.98-3.53.44-5.78,2.21-4.6,3.32-9.58,4.39-14.4.54-2.44,1.1-4.96,1.8-7.41,0-.01,0-.03.01-.04,4.15-10.86,7.19-22.25,10.12-33.27,1.88-7.05,3.82-14.34,6.04-21.44,1.62-6.32,4.09-12.54,6.49-18.55,3.42-8.58,6.95-17.45,8-26.76,0,0,0-.01,0-.02.31-1.91.56-3.91.8-5.84.77-6.14,1.56-12.49,4.49-18.05.91-2.5,3.64-5.28,5.7-5,.9.12,2.02.86,2.22,3.67.07,1.64-.47,3.14-.99,4.58-.41,1.14-.8,2.23-.92,3.38,0,.02,0,.03,0,.05-1.48,7.14-4.14,13.99-6.7,20.61-1.6,4.14-3.26,8.42-4.62,12.72-1.81,4.7-2.62,9.74-3.39,14.63-.46,2.9-.94,5.91-1.63,8.81-1.4,6.03-3.13,12.05-4.8,17.87-1.84,6.38-3.73,12.98-5.19,19.59,0,.01,0,.03-.01.04-1.97,6-3.8,12.18-5.56,18.16-3.07,10.4-6.25,21.16-10.31,31.35,0,.02-.02.04-.03.05-1.02,1.82-2.32,2.82-3.67,2.81-.23,0-.47-.03-.69-.1ZM96.71,152.3c-.69,2.42-1.25,4.92-1.78,7.34-1.09,4.88-2.21,9.92-4.47,14.62,0,.02-.02.03-.03.05-1.23,1.92-1.02,3.79-.42,4.89.45.83,1.14,1.31,1.89,1.31,1,0,2.02-.82,2.87-2.33,4.04-10.15,7.21-20.88,10.27-31.25,1.77-5.98,3.59-12.15,5.56-18.16,1.46-6.64,3.36-13.24,5.2-19.63,1.67-5.81,3.4-11.82,4.79-17.83.68-2.88,1.15-5.86,1.61-8.75.79-4.93,1.6-10.02,3.43-14.78,1.36-4.31,3.02-8.6,4.63-12.75,2.55-6.58,5.19-13.39,6.66-20.45.13-1.25.55-2.43.96-3.57.51-1.42,1-2.77.94-4.22-.09-1.21-.42-2.7-1.45-2.84-1.55-.21-3.99,2.33-4.75,4.45,0,.02-.02.04-.03.06-2.86,5.42-3.64,11.7-4.4,17.77-.24,1.93-.49,3.94-.81,5.86-1.06,9.42-4.62,18.34-8.05,26.98-2.38,5.98-4.85,12.17-6.46,18.46-2.22,7.1-4.16,14.38-6.03,21.42-2.94,11.04-5.98,22.45-10.14,33.34ZM90.05,174.07h0s0,0,0,0Z"/>
      </g>
    </g>
    <g>
      <g>
        <path class="cls-2" d="M120.85,46.54c-.91-.76.02-2.2.53-2.98.14-.35-.31-.6-.07-.92.55-.59-.08-1.28.19-1.93.38-1.63.84-3.21,1.08-4.88.93-1.1.71-2.7,1.54-3.89.03-1.23.43-2.4,1.52-3.13.78-.58-.02-1.66.12-2.46.37-.76,1.23-1.27,1.2-2.28.36-1.76,1.88-1.64,3.18-.9,2.15.59,4.49.96,5.98,2.79,1.85,3.21-.07,6.92-.85,10.25-1.68,4.57-2.37,9.6-5.81,13.23-2.97.89-5.95-1.96-8.62-2.9Z"/>
        <path class="cls-1" d="M126.78,49.69c-1.17-.33-2.32-.97-3.45-1.6-.9-.5-1.75-.98-2.58-1.27-.03-.01-.06-.03-.09-.05-1.1-.92-.07-2.53.45-3.34,0-.04-.01-.09-.06-.19-.08-.17-.21-.47.02-.78,0,0,.01-.02.02-.03.2-.22.17-.44.1-.82-.05-.3-.12-.65.02-1,.11-.46.22-.92.34-1.38.28-1.12.57-2.28.74-3.45,0-.06.03-.11.07-.15.44-.52.6-1.19.77-1.89.15-.65.31-1.31.7-1.91.06-1.47.63-2.6,1.65-3.28.3-.22.24-.59.1-1.17-.08-.36-.17-.73-.11-1.09,0-.03.01-.05.03-.08.14-.29.35-.54.54-.79.35-.43.65-.81.63-1.35,0-.02,0-.04,0-.07.15-.74.5-1.25,1.04-1.49.9-.41,1.96.05,2.54.37.28.08.56.15.85.22,1.92.49,3.9,1,5.25,2.66.01.01.02.03.03.04,1.51,2.62.64,5.49-.2,8.26-.23.77-.45,1.49-.62,2.21,0,.01,0,.02-.01.03-.44,1.2-.82,2.45-1.19,3.66-1.03,3.42-2.1,6.95-4.68,9.67-.04.04-.08.07-.13.08-.94.28-1.87.22-2.78-.03ZM121,46.28c.85.31,1.71.79,2.62,1.29,1.87,1.05,3.81,2.12,5.69,1.6,2.44-2.62,3.44-5.9,4.49-9.38.37-1.21.75-2.47,1.19-3.67.17-.73.4-1.49.63-2.23.8-2.64,1.63-5.37.26-7.77-1.23-1.49-3.11-1.97-4.93-2.44-.3-.08-.6-.15-.89-.23-.02,0-.05-.02-.07-.03-.8-.46-1.54-.59-2.03-.37-.35.16-.59.51-.7,1.04,0,.74-.4,1.25-.76,1.7-.17.22-.34.42-.45.64-.03.23.04.51.11.81.14.59.31,1.32-.34,1.79-.9.6-1.36,1.57-1.4,2.9,0,.06-.02.12-.05.16-.36.52-.51,1.13-.66,1.78-.17.71-.35,1.45-.84,2.07-.18,1.17-.46,2.32-.74,3.43-.11.46-.23.93-.34,1.39,0,.02,0,.03-.02.05-.08.2-.04.43,0,.69.07.39.16.87-.24,1.31-.01.02,0,.04.05.17.07.16.17.39.06.67,0,.02-.02.04-.03.05-.66,1.01-1.2,2.02-.63,2.56Z"/>
      </g>
      <path class="cls-1" d="M128.33,46.1c-1.59-.44-3.05-.94-4.42-1.68-.15-.08-.2-.26-.12-.4.08-.15.26-.2.4-.12,1.87,1,3.94,1.56,6.27,2.14.16.04.26.2.22.36-.04.16-.2.26-.36.22-.68-.17-1.34-.34-1.98-.52Z"/>
      <path class="cls-1" d="M130.4,45.29c-.92-.25-1.83-.55-2.72-.84-.87-.28-1.77-.57-2.65-.82-.16-.04-.25-.21-.21-.37s.21-.25.37-.21h0c.89.25,1.8.54,2.67.82,1.12.36,2.29.74,3.43,1.02.15.03.26.2.22.36-.04.16-.2.26-.36.22-.25-.06-.5-.13-.74-.2Z"/>
      <path class="cls-1" d="M130.91,43.55c-.92-.25-1.83-.55-2.72-.84-.87-.28-1.77-.57-2.65-.82-.16-.04-.25-.21-.21-.37s.21-.25.37-.21h0c.89.25,1.8.54,2.67.82,1.12.36,2.29.74,3.43,1.02,0,0,0,0,0,0,.16.04.25.2.21.36-.04.16-.2.26-.36.22-.25-.06-.5-.13-.74-.2Z"/>
      <path class="cls-1" d="M131.35,42.05c-.92-.25-1.83-.55-2.72-.84-.87-.28-1.77-.57-2.65-.82-.16-.04-.25-.21-.21-.37s.21-.25.37-.21h0c.89.25,1.8.54,2.68.82,1.12.36,2.28.74,3.43,1.02.16.03.26.2.22.36-.04.16-.2.26-.36.22-.25-.06-.49-.13-.74-.2Z"/>
      <path class="cls-1" d="M131.78,40.55c-.92-.25-1.83-.55-2.72-.84-.87-.28-1.77-.57-2.65-.82-.16-.04-.25-.21-.21-.37s.21-.25.37-.21h0c.89.25,1.8.54,2.67.82,1.12.36,2.29.74,3.43,1.02.16.03.26.2.22.36-.04.16-.2.26-.36.22-.25-.06-.5-.13-.74-.2Z"/>
      <path class="cls-1" d="M133.96,27.62s-.04-.01-.06-.02c-.84-.45-1.76-.64-2.73-.85-.79-.17-1.61-.34-2.37-.66-.15-.06-.22-.24-.16-.39.06-.15.24-.22.39-.16.71.3,1.47.46,2.27.63.97.21,1.98.42,2.89.9.14.08.2.26.12.4-.07.13-.21.18-.34.15Z"/>
      <path class="cls-1" d="M129.33,28.03c-.13-.04-.22-.15-.22-.29,0-.16.14-.3.3-.29,1.86.04,3.69.58,5.47,1.11l.43.13c.16.05.25.21.2.37-.05.16-.21.25-.37.2h0s-.43-.13-.43-.13c-1.74-.52-3.53-1.05-5.31-1.09-.03,0-.05,0-.07-.01Z"/>
      <path class="cls-1" d="M129.08,29.77c-.13-.04-.22-.15-.22-.29,0-.16.14-.3.3-.29,1.86.04,3.7.58,5.47,1.11l.43.13c.16.05.25.21.2.37-.05.16-.21.25-.37.2h0s-.43-.13-.43-.13c-1.74-.52-3.53-1.05-5.31-1.09-.03,0-.05,0-.07-.01Z"/>
      <path class="cls-1" d="M128.59,31.43c-.13-.04-.22-.15-.22-.29,0-.16.14-.3.3-.29,1.86.04,3.69.58,5.47,1.11l.43.13c.16.05.25.21.2.37-.05.16-.21.25-.37.2h0s-.43-.13-.43-.13c-1.74-.52-3.53-1.05-5.31-1.09-.03,0-.05,0-.07-.01Z"/>
      <path class="cls-1" d="M128.13,33.05c-.13-.04-.22-.15-.22-.29,0-.16.14-.3.3-.29,1.86.04,3.69.58,5.47,1.11l.43.13c.16.05.25.21.2.37-.05.16-.21.25-.37.2l-.43-.13c-1.74-.52-3.53-1.05-5.31-1.08-.03,0-.05,0-.07-.01Z"/>
      <path class="cls-1" d="M132.68,37.43s-.03,0-.04-.01c-.16-.07-.35-.12-.54-.17-.33-.09-.66-.17-.95-.39-.13-.1-.16-.28-.07-.42.1-.13.28-.16.42-.07.21.15.47.22.76.29.21.05.42.11.63.2.15.07.22.24.15.39-.06.14-.21.21-.35.17Z"/>
    </g>
  </g>
</svg>