<?xml version="1.0" encoding="UTF-8"?>
<svg id="Layer_1" data-name="Layer 1" xmlns="http://www.w3.org/2000/svg" viewBox="0 0 251 205">
  <defs>
    <style>
      .cls-1 {
        fill: #fff;
      }
    </style>
  </defs>
  <path class="cls-1" d="M159.92,114.1c3.41.62,6.61,2.6,8.56,5.49.92,1.38,1.59,2.92,1.99,4.53.42,1.66.71,3.32.76,5.03.1,3.34-.5,6.78-1.89,9.83-.33.72-.71,1.41-1.12,2.08-.43.71-.94,1.39-1.56,1.93-.45.39-.96.7-1.49.96.3-.06.59-.13.88-.21.67-.19,1.33-.43,1.96-.71.5-.23,1.07-.52,1.49-.78.5-.31.99-.65,1.45-1.02.25-.2.35-.28.6-.52.18-.17.36-.35.54-.53.68-.7,1.38-1.63,1.87-2.49.56-.98.99-2,1.31-3.05.7-2.29.92-4.73.78-7.11-.28-4.7-2.42-9.29-6.2-12.18-1.94-1.48-4.41-2.46-6.81-2.79-1.22-.16-2.47-.17-3.69-.01-1.18.16-2.43.49-3.45.9-.58.23-1.14.49-1.69.79-.15.08-.3.17-.45.25,0,0-.11.07-.12.07-.05.03-.1.06-.15.09-.12.07-.24.15-.35.23,2.13-.9,4.51-1.21,6.81-.8Z"/>
  <path class="cls-1" d="M124.03,163.77s.02-.03.03-.04c-.01.02-.02.03-.04.05h0Z"/>
  <path class="cls-1" d="M124.02,163.78s0,0,0-.01c0,0,0,0,0,0,0,0,0,0,0,0Z"/>
  <path class="cls-1" d="M174.34,144.94s-.04.04,0,0h0Z"/>
  <path class="cls-1" d="M113.98,98.51c-.64.44-1.34.81-2.07,1.1-1.47.61-3.03.97-4.59,1.27-.73.14-1.47.25-2.2.4-.77.16-1.55.29-2.33.39-.83.11-1.65.15-2.48.13-.7-.01-1.46-.05-2.1-.35-.15-.07-.28-.15-.4-.25,0,0,0,0,0,0,.05.27.11.54.18.81.06.23.14.45.24.66.04.08.08.17.13.24.03.04.07.09.1.13.04.06.05.1.07.17.02.05,0,.1-.03.15.36.31.92.37,1.37.41.69.07,1.39.04,2.09-.02,1.27-.12,2.52-.33,3.76-.62,1.16-.27,2.34-.44,3.5-.7,1.21-.28,2.41-.62,3.53-1.15.53-.25,1.04-.54,1.51-.89.24-.18.48-.37.67-.59.1-.12.19-.28.2-.34.02-.19.12-.35.25-.48,0-.02,0-.04,0-.06,0-.28-.04-.56-.06-.84-.02-.24-.02-.49-.05-.73-.35.45-.82.83-1.29,1.15Z"/>
  <path class="cls-1" d="M99.75,98.03c-.75.32-1.82,1.03-1.87,1.95-.05,1.15,1.75,1.14,2.5,1.14,1.51.02,3.05-.25,4.52-.56,1.35-.29,2.72-.52,4.07-.83,1.4-.32,2.8-.74,4.06-1.43.55-.3,1.09-.65,1.52-1.1.11-.12.21-.25.26-.37,0,0,0,0,0,0,0,0,0,0,0,0,0-.02.01-.03.01-.05,0-.02,0-.02,0-.03,0-.04,0-.07,0-.11,0-.02.02.04,0-.02-.05-.14-.06-.17-.19-.28-.13-.12-.21-.16-.37-.24-.36-.16-.75-.26-1.14-.32-.83-.13-1.69-.15-2.53-.05-1.75.21-3.49.53-5.2.93-.85.2-1.7.41-2.55.64-.74.2-1.5.39-2.28.4,0,0-.02.02-.03.02-.27.1-.54.2-.81.32ZM103.19,99.34c.78-.15,1.55-.36,2.33-.54.74-.17,1.49-.31,2.23-.48.77-.17,1.54-.36,2.27-.64.35-.13.69-.27,1.01-.46.15-.09.3-.18.45-.28.14-.09.26-.2.43-.2.14,0,.14.15.09.24-.17.36-.69.58-1.04.75-.39.19-.79.36-1.21.5-1.55.54-3.18.76-4.77,1.14-.82.19-1.64.41-2.48.52-.67.09-1.59.18-2.18-.24-.09-.06.09-.21.15-.21.44,0,.87.07,1.31.05.46-.02.93-.07,1.38-.16Z"/>
  <path class="cls-1" d="M162.37,144.32s.01-.01.02-.02c.21-.15.41-.31.64-.41.22-.09.44-.18.66-.25.67-.21,1.28-.39,1.91-.68.58-.27,1.08-.67,1.51-1.17,1-1.17,1.69-2.66,2.21-4.09,1.11-3.03,1.48-6.32,1.12-9.52-.35-3.13-1.5-6.18-3.5-8.64-1.06-1.29-2.4-2.38-3.86-3.19-1.45-.8-2.99-1.32-4.62-1.57-1.56-.24-3.24-.13-4.76.34-.77.24-1.51.57-2.2.97-.03.03-.07.06-.08.07-.45.39-.87.8-1.27,1.24-.12.13-.23.25-.35.38-.02.02-.02.02-.03.03,0,0,0,0-.02.03-.05.06-.09.11-.14.17-.19.23-.37.46-.54.7-.19.26-.37.52-.54.78-.08.12-.16.25-.23.37-.03.05-.06.1-.09.16-.01.02-.01.02-.01.02,0,.01,0,0-.01.02-.16.27-.32.55-.47.83-.16.3-.31.55-.45.79-.16.29-.31.58-.46.87-.07.14-.15.27-.23.41-.04.08-.11.17-.16.26,0,.04,0,.08-.02.15-.6,1.6-.78,3.36-.72,5.07.06,1.6.35,3.18.76,4.73.4,1.5.96,2.96,1.7,4.32.72,1.33,1.63,2.48,2.82,3.43,1.32,1.05,2.85,1.82,4.44,2.38,0,0,0,0,0,0,.66.23,1.33.42,2.02.58,1.62.37,3.3.52,4.96.44ZM155.24,122.7c-.09.04-.13-.04-.08-.12.34-.46.88-.77,1.37-1.06.54-.32,1.09-.6,1.67-.85.06-.02.11-.04.17-.06-.1-.11-.2-.23-.31-.33-.39-.37-.85-.67-1.23-1.04-.07-.07.08-.2.15-.18.63.15,1.15.58,1.6,1.02.11.11.2.23.31.34.81-.3,1.63-.54,2.47-.71.17-.03,1.29-.34,1.22.03-.04.2-.34.29-.5.32-.27.04-.54.08-.8.13-.71.13-1.41.33-2.1.56.14.17.26.35.39.53.03-.01.06-.03.09-.04.29-.09.58-.17.88-.22.22-.04.58-.07.74.12.05.06-.02.14-.06.17-.39.28-.88.33-1.34.42,1.35,2.16,1.99,4.74,2.35,7.23.17,1.2.27,2.41.28,3.63,0,.12,0,.25,0,.37.04-.03.08-.06.12-.09.31-.28.55-.62.85-.9.08-.08.34-.16.28.05-.12.42-.51.78-.83,1.06-.14.12-.28.23-.42.35-.01.33-.03.66-.05.99,0,.06,0,.12,0,.18.36-.25.71-.52,1.01-.84.51-.54.87-1.19,1.21-1.84.03-.06.22-.16.18-.02-.33,1.33-1.34,2.43-2.43,3.23-.04.71-.1,1.45-.45,2.04-.04.08-.32.3-.33.08-.02-.51.13-1.02.18-1.53,0-.07.01-.14.02-.21-.33.21-.67.4-1.01.57-.04.23-.08.46-.13.69-.13.55-.28,1.11-.71,1.5-.05.04-.15.09-.16,0-.05-.3.06-.57.15-.86.1-.33.18-.67.25-1.01,0,0,0-.01,0-.02-.34.14-.68.27-1.02.4-.17.06-.34.14-.52.19-.1.03-.2.06-.3.03-.04-.01-.11-.06-.12-.06-.2-.01-.04-.26.04-.33.09-.07.24-.24.4-.32.16-.08.34-.13.52-.19.31-.11.63-.23.94-.36.06-.02.12-.05.18-.07.05-.32.08-.64.11-.97-.3.16-.62.34-.96.38-.12.02-.1-.12-.03-.18.3-.26.65-.43,1-.61,0,0,.02-.01.03-.02,0-.08.01-.15.02-.23.03-.78,0-1.57-.08-2.35-.04-.34-.08-.69-.13-1.03-.05-.33-.14-.66-.13-1,0-.06.12-.2.18-.13.18.2.25.48.32.73.08.3.15.61.2.92.14.91.19,1.84.17,2.77.18-.1.37-.2.54-.31.15-.09.29-.19.43-.29,0-.32,0-.64,0-.96-.06-2.51-.44-5.05-1.24-7.44-.36-1.07-.82-2.11-1.42-3.06-.37.12-.73.27-1.04.48-.11.08-.2-.01-.12-.12.24-.33.55-.57.9-.76-.13-.19-.27-.38-.42-.56-.2.07-.4.13-.59.21-.5.21-.99.45-1.47.72-.45.26-.88.63-1.37.82Z"/>
  <path class="cls-1" d="M177,93.54s0,0,0,0c-.09.02-.17.02-.26.02-.1,0-.2,0-.31,0-.63,0-1.26-.05-1.89-.04-.98.01-1.96.07-2.94.14-2.83.2-5.66.5-8.48.83-3.65.43-7.29.89-10.93,1.4-4.15.59-8.29,1.21-12.43,1.87-2.14.34-4.29.66-6.43,1.02-1.06.17-2.13.33-3.19.49-.51.07-1.02.1-1.53.17-.46.05-.91.05-1.37.09-.04.05-.08.1-.12.1-.99.22-1.97.48-2.94.76-1.91.56-3.74,1.41-5.29,2.68-.72.59-1.53,1.29-1.93,2.15-.17.37-.21.77-.05,1.15.1.23.27.49.48.63.13.08.25.17.36.27,1.14.99,1.67,2.61,2.07,4.02.43,1.52.68,3.07,1.03,4.61,1.08,4.85,1.66,9.82,2.14,14.76.24,2.48.4,4.96.72,7.43.32,2.47.74,4.92,1.15,7.37.4,2.45.79,4.91,1.02,7.38.15,1.6.42,3.19.53,4.79.05.62.07,1.25.04,1.88.47-.06.94-.13,1.41-.19,5.29-.72,10.57-1.46,15.84-2.27,5.12-.78,10.24-1.61,15.35-2.49,4.4-.76,8.8-1.56,13.18-2.45,3.13-.64,6.26-1.29,9.34-2.15.52-.14,1.03-.29,1.54-.46.21-.07.42-.14.63-.21.09-.03.17-.06.26-.09,0,0,0,0,0,0,.04-.02.09-.03.13-.05.15-.06.29-.12.43-.18.06-.03.12-.06.18-.09.03-.01.05-.03.08-.04.02,0,.04-.02.05-.02-.07-.12-.1-.23-.14-.36-.18-.67-.13-1.43-.19-2.12-.06-.75-.14-1.5-.23-2.24-.19-1.54-.42-3.08-.67-4.61-.21-1.28-.42-2.55-.62-3.82-.27-1.75-.5-3.5-.76-5.25-.14-.93-.28-1.86-.41-2.79.02.55.02,1.11,0,1.66-.09,3.21-.68,6.42-1.96,9.38-1.24,2.87-3.15,5.4-5.58,7.36-2.79,2.24-6.21,3.65-9.74,4.15-2.93.42-5.94.29-8.83-.35-.35-.02-.7-.04-1.05-.07-2.95-.28-5.85-1.11-8.54-2.36-2.37-1.1-4.69-2.55-6.49-4.46-1.66-1.76-2.74-4.07-3.55-6.33-.93-2.61-1.49-5.4-1.55-8.17-.06-2.64.28-5.37,1.38-7.79.01-.03.03-.06.06-.08.18-1.06.44-2.15.94-3.1.58-1.11,1.29-2.16,2.1-3.12,3.12-3.73,7.37-6.42,12.02-7.81,5.02-1.5,10.43-1.35,15.38.36.09.02.18.04.26.06,3.2.88,6.13,2.54,8.53,4.83,2.29,2.19,4.03,4.93,5.14,7.89.24.64.44,1.29.62,1.94-.17-1.15-.34-2.3-.5-3.46-.56-4.08-1.22-8.14-1.82-12.21-.3-2.05-.6-4.11-.87-6.17-.27-2.06-.61-4.13-.66-6.21-.02,0-.04,0-.06,0-.03,0-.05,0-.08,0ZM142.74,101.87c-1.31.43-2.66.76-4.02.96-2.3.35-4.63.6-6.9,1.09-1.14.25-2.26.56-3.37.92-.56.18-1.1.39-1.64.62-.54.23-1.1.46-1.63.71-.18.08-.14-.15-.04-.22.6-.38,1.18-.73,1.83-1.02.6-.27,1.21-.51,1.83-.73,1.13-.41,2.31-.71,3.48-.97,1.17-.26,2.35-.5,3.53-.69,2.33-.38,4.66-.72,7.02-.9.15-.01-.02.21-.08.23ZM173.21,101.21c-.57.84-1.54,1.35-2.56,1.29-.67-.04-1.39-.32-1.77-.89-.2-.3-.37-.65-.4-1.02-.03-.36.07-.69.24-1.01-.17-.12-.21-.28-.22-.5-.02-.19,0-.39.05-.58.1-.38.32-.72.61-.98.63-.56,1.46-.73,2.27-.59.98.16,1.87.72,2.2,1.69.29.87.1,1.84-.41,2.58Z"/>
  <path class="cls-1" d="M169.66,101.24c.45.42,1.04.58,1.65.54.18-.01.37-.05.54-.12.11-.04.28-.13.38-.2.04-.03.08-.06.12-.09,0,0,0,0,0,0,.01,0,.02-.02.03-.03.06-.06.11-.11.17-.17,0,0,0,0,0,0,.01-.01.02-.03.03-.04.03-.03.05-.07.08-.1.01-.02.07-.11.05-.08s.03-.06.04-.08c.15-.28.23-.57.25-.89.02-.35-.03-.67-.17-.99-.32-.74-1.05-1.16-1.82-1.29-.11-.02-.22-.03-.34-.04.11.08.22.18.31.27.31.32.56.71.76,1.11.21.41.37.86.46,1.31.07.37.16.88-.16,1.17-.03.03-.1.08-.14.04-.1-.1-.08-.32-.09-.45,0-.2-.03-.39-.07-.58-.18-.79-.54-1.62-1.08-2.23-.19-.21-.43-.45-.72-.5-.05,0-.11,0-.15,0-.09.04-.17.08-.25.14-.01.01-.03.02-.04.04-.02.01-.03.03-.04.04-.09.09-.17.21-.2.38-.03.13-.02.27,0,.41.02.19.04.31-.01.5-.03.1-.15.26-.28.33,0,.27.06.54.14.79.11.35.3.59.57.84Z"/>
  <path class="cls-1" d="M141.94,121.86c-.8,2.09-1.06,4.38-.99,6.61.06,2.1.42,4.18.96,6.21.52,1.96,1.25,3.88,2.22,5.67.45.83.93,1.64,1.53,2.38.64.78,1.37,1.49,2.17,2.12,1.72,1.37,3.71,2.37,5.78,3.09,0,0,0,0,0,0,.86.3,1.73.55,2.62.75,3.72.85,7.69.86,11.37-.18,1.58-.45,3.19-1.15,4.55-1.98.64-.4,1.27-.83,1.86-1.31.08-.07.16-.13.24-.2.03-.03.07-.06.1-.09,0,0,.01-.01.03-.02.13-.11.26-.23.39-.35.27-.25.53-.5.79-.77.92-.96,1.81-2.15,2.47-3.32.73-1.28,1.29-2.62,1.71-4.01.9-2.99,1.19-6.17,1.01-9.28-.19-3.08-.97-6.13-2.35-8.9-1.36-2.73-3.32-5.15-5.75-7-1.24-.95-2.64-1.71-4.08-2.31-1.55-.65-3.2-1.13-4.87-1.35-1.6-.21-3.24-.22-4.84,0-1.55.21-3.16.64-4.54,1.19-.74.3-1.46.63-2.16,1.01-.19.1-.37.2-.55.31-.04.02-.09.05-.13.07,0,0-.02.01-.04.02-.07.04-.14.08-.21.13-.34.21-.67.43-1,.65-.33.23-.64.46-.96.71-.17.13-.33.26-.49.39-.03.02-.14.12-.15.13-.06.05-.11.09-.16.14-.6.53-1.18,1.09-1.72,1.68-.13.14-.27.29-.39.44-.03.03-.06.07-.09.1,0,0,0,0-.01.02-.06.08-.13.15-.19.23-.25.3-.49.61-.72.93-.23.32-.45.64-.67.96-.11.16-.21.33-.31.49-.05.08-.1.17-.15.25,0,0-.01.02-.02.04-.02.03-.04.07-.06.1-.4.68-.77,1.38-1.15,2.07-.19.35-.37.71-.54,1.07-.09.18-.19.36-.28.54-.06.12-.15.26-.21.39,0,.04,0,.09-.02.16ZM145.93,123.36s.02-.04.04-.06c0-.08,0-.16,0-.23,0-.14.02-.29.05-.43.05-.26.12-.52.2-.77.35-1.24,1.05-2.37,1.81-3.4.77-1.05,1.65-2.02,2.62-2.89,1.98-1.76,4.32-3.13,6.88-3.83,2.58-.71,5.31-.73,7.89-.02,2.48.68,4.75,1.97,6.61,3.74,1.77,1.69,3.13,3.82,3.98,6.11.89,2.37,1.23,4.91,1.16,7.44-.07,2.49-.54,4.97-1.53,7.26-.97,2.24-2.48,4.22-4.39,5.75-2.16,1.73-4.82,2.82-7.55,3.21-3.03.43-6.15.1-9.04-.9,0,0,0,0-.01,0-1.84-.65-3.61-1.59-5.07-2.88-1.18-1.04-2.04-2.32-2.71-3.74-.7-1.47-1.22-3.03-1.57-4.62-.7-3.17-.68-6.74.65-9.74Z"/>
  <path class="cls-1" d="M150.01,108c-2.1.7-4.2,1.76-5.98,3.02-.45.32-.9.65-1.33,1-.1.08-.19.16-.29.24-.03.02-.08.07-.09.08-.05.05-.11.09-.16.14-.16.14-.32.29-.48.44.47-.11.94-.22,1.41-.31.54-.1,1.09-.2,1.64-.25.5-.05,1.06-.09,1.56,0,.12.02,0,.17-.07.19-.55.17-1.13.28-1.7.39-.54.1-1.08.18-1.62.28-.54.1-1.08.2-1.62.31-.08.02-.16.04-.25.06-.19.19-.39.38-.57.58-.02.02-.03.04-.05.05,0,0,0,0,.01,0,.13-.03.25-.05.38-.07.25-.03.49-.06.74-.09.23-.03.47-.06.7-.05.2.01.4,0,.59.04.08.02-.02.14-.06.15-.46.18-.95.28-1.44.32-.25.03-.5.06-.76.08-.12,0-.35.04-.49-.02-.02.03-.05.06-.08.09-.13.16-.26.33-.39.5,0,0,.02,0,.03,0,.32-.06.65-.11.98-.14.33-.04.67-.08,1-.08.31,0,.6.07.9.14.1.02-.04.17-.09.18-.34.07-.68.15-1.02.18-.32.03-.64.04-.97.07-.33.03-.66.07-.99.13-.07.01-.14.03-.22.04-.22.3-.44.6-.64.91-.05.08-.1.16-.15.24.33-.05.67-.08,1-.1.35-.02.7-.04,1.05-.03.32.01.63.05.94.06.13,0-.02.17-.07.19-.7.24-1.38.34-2.11.38-.34.02-.68.03-1.02.06-.05,0-.1,0-.15.01-.01.03-.03.05-.04.08-.06.11-.12.21-.18.32-.27.49-.56.9-.82,1.36-.24.43-.44.87-.64,1.32,0,.04,0,.08-.02.15-1,2.72-1.15,5.66-.82,8.52.24,2.05.69,4.06,1.34,6.01.16.02.31.04.47.06.18.02.36.06.53.1.03,0,.06.01.1.02.05,0,.08.02.13.04.06.02.13.01.19.04.09.04-.02.15-.06.17-.17.09-.38.13-.56.16-.19.02-.37.03-.55,0,0,0-.01,0-.02,0,.07.2.14.4.22.6.24.04.48.08.73.11.49.06.97.07,1.43.28.13.06-.04.25-.13.26-.27.04-.56.09-.84.08-.26-.01-.52-.05-.78-.08-.06,0-.12-.02-.19-.03.07.16.14.32.21.48.09.01.19.03.28.04.29.05.57.12.86.18.3.07.61.14.9.24.14.05.27.12.39.2.11.07.24.14.34.23.09.08-.09.23-.17.23-.62-.02-1.22-.2-1.81-.36-.17-.05-.35-.1-.52-.15.33.71.69,1.41,1.09,2.08.56.93,1.28,1.76,2.07,2.5,1.92,1.79,4.24,3.13,6.66,4.13.36.15.72.29,1.09.43-.95-.56-1.86-1.19-2.68-1.91-1.53-1.35-2.65-3.01-3.53-4.84-.91-1.91-1.59-3.93-2.05-5.99-.47-2.13-.66-4.35-.56-6.53.1-2.08.5-4.13,1.33-6.04.01-.03.03-.05.05-.08.02-.14.02-.29.04-.42.02-.18.05-.35.09-.52.08-.34.18-.68.29-1.01.51-1.58,1.39-3.02,2.37-4.35.99-1.34,2.12-2.59,3.37-3.69,2.55-2.24,5.56-3.98,8.85-4.87.28-.08.56-.14.84-.2-.1,0-.2,0-.3,0-2.41.07-4.8.51-7.08,1.28Z"/>
  <path class="cls-1" d="M161.03,134.39c0,.19-.02.39-.03.58-.01.15-.04.31-.06.46.33-.14.66-.29.97-.46.02-.25.04-.49.07-.74.01-.14.01-.27.02-.41-.06.04-.12.08-.18.12-.26.16-.53.31-.79.45Z"/>
  <path class="cls-1" d="M128.92,98.79c.58-.13,1.15-.29,1.74-.41.58-.12,1.15-.23,1.73-.34,1.15-.21,2.3-.4,3.45-.61,2.31-.41,4.62-.79,6.93-1.16,4.38-.7,8.77-1.36,13.16-1.97,3.71-.51,7.42-.98,11.15-1.37,2.56-.27,5.13-.53,7.7-.58.18,0,.37-.01.56-.02-1.15-.67-2.36-1.17-3.62-1.56-.68-.21-1.38-.37-2.06-.6-.35-.12-.7-.26-1.05-.37-.35-.11-.69-.23-1.01-.4,0,0-.02.02-.03.02-.04,0-.07,0-.11.02-.04.06-.08.11-.12.15-.19.19-.53.38-.78.19-.09-.07-.18-.14-.26-.2-.09,0-.18.02-.28.03-.73.07-1.46.15-2.19.21,0,0,0,0,0,0-.32.03-.63.06-.95.08-.98.06-1.96.12-2.93.18-1.86.13-3.72.32-5.57.54-2.86.34-5.75.74-8.59,1.1-2.76.35-5.51.74-8.27,1.15-3.54.53-7.08,1.09-10.61,1.69-3.75.63-7.48,1.31-11.21,2.03.04.17.09.34.14.5.18.5.22,1.06.24,1.59,0,.18,0,.36-.09.52-.02.03-.04.07-.06.1-.17.6-.63,1.08-1.1,1.48-.59.5-1.27.9-1.97,1.24-2.43,1.17-5.11,1.5-7.73,2.02-1.36.27-2.75.48-4.13.48-.65,0-1.32-.02-1.95-.17-.52-.12-1.06-.35-1.31-.85-.04-.08,0-.19.08-.29-.03-.03-.06-.06-.08-.1-.14-.2-.23-.42-.3-.66-.09-.27-.15-.55-.2-.84-.03-.17-.06-.33-.09-.5,0-.04-.02-.09-.02-.13-1.08.29-2.16.62-3.23.96-1.45.47-2.9.99-4.24,1.74-.4.23-.82.48-1.11.78-.09.09-.08.08-.14.16-.06.08-.08.11-.11.16-.01.02-.02.04-.02.06,0,0,.01,0,.02,0,.29.08.57.18.85.3.26.11.53.18.8.27.52.18,1.02.44,1.52.65.49.21,1,.37,1.5.56.5.18,1,.35,1.5.51,1.98.59,4.06.69,6.11.83,2.17.14,4.34.2,6.51.14,1.07-.03,2.14-.09,3.2-.19.71-.07,1.43-.08,2.14-.16.76-.08,1.52-.21,2.25-.45.31-.1.64-.24.9-.4.08-.05.17-.1.25-.16-.14-.81.26-1.66.75-2.31.65-.85,1.49-1.59,2.35-2.22.81-.6,1.69-1.1,2.62-1.51.89-.39,1.82-.68,2.76-.91.93-.23,1.88-.36,2.83-.47.02-.02.04-.04.06-.04.59-.14,1.15-.35,1.74-.49Z"/>
  <path class="cls-1" d="M114.53,108.19c-.86.3-1.78.43-2.68.52-.76.08-1.52.1-2.28.17-1.1.1-2.2.15-3.31.18-2.25.05-4.51-.03-6.76-.19-2.1-.15-4.21-.29-6.22-.98-.92-.31-1.77-.73-2.66-1.13-.46-.21-.94-.39-1.37-.65-.34-.21-.71-.37-1.06-.56.06.26.13.52.19.78.38,1.72.67,3.46.97,5.19.32,1.82.61,3.65.92,5.48.62,3.72,1.23,7.44,1.82,11.16.58,3.64,1.14,7.28,1.71,10.92.51,3.27,1.02,6.55,1.53,9.82.22,1.43.44,2.86.65,4.3.1.65.19,1.3.29,1.95.05.3.1.61.11.92.01.35-.04.68-.09,1.02,0,.04-.03.09-.06.14,0,.01.01.02.02.03.04.07.08.13.12.2.1.15.26.34.35.45.29.35.62.66.94.99.36.37.76.7,1.17,1.02.97.73,2.03,1.33,3.12,1.86,2.62,1.27,5.43,2.16,8.27,2.82,2.72.62,5.52,1,8.31.92.3,0,.6-.02.9-.05.16-.01.31-.03.47-.04.06,0,.12-.01.18-.02.04,0,.08,0,.11-.01,0,0,0,0,0,0,0,0,0,0,0,0,.5-.07,1.01-.15,1.5-.27.22-.06.43-.12.64-.19.02,0,.04-.01.05-.02.04-.02.08-.03.13-.05.09-.04.18-.08.27-.12.05-.02.09-.05.14-.07.02,0,.05-.03.07-.04.16-.1.32-.21.47-.32.04-.03.09-.07.13-.1,0,0,0,0,0,0,0,0,0,0,.01-.01.06-.06.13-.12.19-.18.07-.07.14-.15.21-.23.05-.07.05-.07.04-.05.01-.01.02-.03.03-.04.07-.09.14-.18.2-.28.02-.02.08-.13.1-.16.09-.15.16-.3.24-.46.04-.09.08-.19.12-.28,0-.01,0-.02.01-.03.02-.04.03-.09.05-.13.06-.18.11-.36.15-.54.19-.77.24-1.46.24-2.27,0-1.62-.26-3.23-.45-4.84-.12-.98-.19-1.96-.31-2.94-.15-1.22-.32-2.43-.51-3.64-.38-2.48-.83-4.95-1.2-7.43-.36-2.43-.59-4.87-.81-7.32-.23-2.52-.48-5.05-.79-7.56-.52-4.15-1.27-8.25-2.13-12.34-.33-1.54-.7-3.19-1.57-4.53-.17-.27-.38-.52-.61-.74-.12-.11-.26-.2-.39-.31-.14-.13-.26-.3-.36-.47-.08.06-.17.12-.26.18-.41.25-.83.44-1.29.6Z"/>
  <path class="cls-1" d="M146.27,114.6s.04-.05,0,0h0Z"/>
  <path class="cls-1" d="M83.24,26.09c2.61-1.46,5.46-2.52,8.4-3.08,3.05-.58,6.19-.63,9.26-.13,3.31.55,6.51,1.68,9.51,3.15,2.98,1.46,5.77,3.3,8.35,5.39,2.59,2.09,4.96,4.44,7.16,6.93,2.21,2.51,4.24,5.17,6.14,7.93,1.89,2.74,3.63,5.57,5.33,8.43,1.87,3.15,3.71,6.32,5.62,9.46,1.89,3.1,3.85,6.16,5.98,9.1,2.13,2.94,4.44,5.75,6.99,8.34,1.3,1.32,2.65,2.58,4.06,3.77.74.62,1.49,1.23,2.26,1.81.74.56,1.51,1.07,2.24,1.65.03.02.03.05.04.08.07,0,.15,0,.22,0,.23,0,.45.01.67.03-1.03-.79-2.04-1.59-3.01-2.46-2.82-2.51-5.41-5.28-7.8-8.2-2.38-2.91-4.55-5.97-6.62-9.1-2.08-3.15-4.03-6.38-5.98-9.61-1.63-2.7-3.23-5.42-4.87-8.11-1.69-2.77-3.42-5.52-5.26-8.21-1.85-2.7-3.79-5.34-5.9-7.85-2.08-2.47-4.32-4.82-6.77-6.94-2.38-2.06-4.95-3.9-7.72-5.39-2.83-1.52-5.84-2.7-9.01-3.29-2.98-.55-6.08-.57-9.08-.09-2.98.48-5.86,1.44-8.54,2.82-2.68,1.38-5.16,3.18-7.3,5.26-1.13,1.1-2.07,2.17-3,3.39-.94,1.24-1.79,2.54-2.52,3.88-.66,1.22-1.25,2.49-1.75,3.78,1.57-2.6,3.43-5.03,5.58-7.19,2.17-2.18,4.63-4.06,7.31-5.56Z"/>
  <path class="cls-1" d="M87.81,105.43c.02.07.05.14.07.21,0-.07,0-.13-.01-.2-.02,0-.04,0-.06-.01Z"/>
  <path class="cls-1" d="M86.85,104.97c-1.33-3.57-3.13-6.96-4.96-10.3-.92-1.67-1.89-3.31-2.8-4.99-.91-1.67-1.8-3.35-2.61-5.06-.82-1.72-1.69-3.42-2.49-5.15-.82-1.76-1.59-3.55-2.3-5.36-1.42-3.63-2.6-7.35-3.47-11.16-.85-3.75-1.34-7.58-1.27-11.43.02-1.29.11-2.58.26-3.86-.62,2.18-1.01,4.42-1.14,6.7-.21,3.75.26,7.5,1.19,11.12.95,3.71,2.36,7.29,3.96,10.77,1.64,3.56,3.52,7,5.34,10.47,1.79,3.43,3.62,6.85,5.36,10.32,1.79,3.56,3.51,7.16,5,10.86.61,1.5,1.18,3.02,1.69,4.55-.08-.6-.16-1.2-.24-1.81-.07-.56-.14-1.13-.2-1.69-.15-.46-.31-.92-.45-1.39-.26-.88-.55-1.75-.87-2.61Z"/>
  <path d="M177,93.54s0,0,0,0c.07-.01-.1,0,0,0Z"/>
  <polygon points="177.65 93.13 177.65 93.14 177.65 93.14 177.65 93.13"/>
  <path d="M176.62,93.55s.08,0,.12.01c.04,0,.07,0,.11,0-.08,0-.15,0-.23,0Z"/>
  <path d="M177.13,93.54s0,0,0,0c0,0,0,0,0,0-.02,0-.03,0,0,0Z"/>
  <path d="M177.13,93.54s-.01,0,0,0c0-.02,0-.04,0-.06,0,0,0-.02,0-.02,0,0,0,0,0,0,0-.02,0-.04.02-.06-.14-.02-.27-.04-.4-.1-.17-.07-.32-.19-.46-.3-.3-.21-.59-.44-.9-.63-.02,0-.03-.02-.05-.03-.19,0-.38.01-.56.02-2.57.06-5.14.32-7.7.58-3.72.39-7.44.86-11.15,1.37-4.39.6-8.78,1.27-13.16,1.97-2.31.37-4.62.75-6.93,1.16-1.15.2-2.3.4-3.45.61-.58.11-1.15.22-1.73.34-.59.12-1.15.28-1.74.41-.59.13-1.16.34-1.74.49-.02,0-.04.02-.06.04.04,0,.08-.01.12-.02.12-.02.08.11,0,.21.46-.04.91-.04,1.37-.09.51-.06,1.02-.09,1.53-.17,1.07-.15,2.13-.31,3.19-.49,2.14-.35,4.29-.68,6.43-1.02,4.14-.65,8.28-1.28,12.43-1.87,3.63-.51,7.28-.97,10.93-1.4,2.82-.33,5.65-.64,8.48-.83.98-.07,1.96-.12,2.94-.14.63,0,1.26.03,1.89.04.1,0,.21,0,.31,0-.04,0-.08,0-.12-.01.08,0,.15,0,.23,0-.04,0-.07,0-.11,0,.09,0,.17,0,.26-.02-.09,0,.07-.01,0,0,0,0,0,0,0,0,0,0,0,0,0,0,.02,0,.05,0,.08,0,.02,0,.04,0,.06,0h0s0,0,0,0Z"/>
  <path d="M177.35,92.58s.06.03,0,0h0Z"/>
  <path d="M177.65,93.14h0s0,0,0,0c0,0,0,0,0,.02,0,0,0,.02,0,.03.02-.15-.04-.29-.13-.42-.02-.03-.04-.06-.06-.09-.01-.01-.02-.03-.03-.04-.09-.08-.06-.03-.1-.06,0,0,0,0,.01,0,.06.03.04.02,0,0-.01,0-.03-.01-.05-.02,0,0-.02,0-.02,0,.13.15.21.32.27.51.04,0,.07.03.09.07Z"/>
  <path d="M185.64,144.61c-.16-1.55-.38-3.1-.62-4.64-.21-1.38-.45-2.75-.67-4.12-.25-1.53-.46-3.06-.68-4.59-.59-4.08-1.16-8.17-1.83-12.24-.67-4.07-1.27-8.15-1.9-12.23-.31-2.03-.61-4.05-.94-6.08-.33-2.03-.6-4.08-1.01-6.09-.1-.48-.21-.96-.34-1.43,0,.02,0,.04,0,.05-.02.21-.4.46-.49.31,0,0-.02,0-.03,0,0,0,0,0,0,0h0c.05,2.08.39,4.15.66,6.21.27,2.06.57,4.11.87,6.17.6,4.07,1.25,8.14,1.82,12.21.16,1.15.33,2.3.5,3.46.54,1.95.82,3.97.88,6,.14.93.28,1.86.41,2.79.25,1.75.48,3.5.76,5.25.2,1.28.42,2.55.62,3.82.25,1.53.48,3.07.67,4.61.09.75.17,1.49.23,2.24.06.69.01,1.45.19,2.12.04.13.07.25.14.36.04-.02.07-.03.1-.03,0,0,0,0,0,0,0,0,.01,0,.02,0,0,0,0,0,0,0,.01,0,.03,0,.04,0,.03,0,.06-.01.09-.02.03-.02.06-.04.1-.06.13-.07.26-.09.33-.04.09-.23.17-.46.22-.71.07-.37.06-.73.04-1.11-.04-.74-.1-1.47-.18-2.21Z"/>
  <path d="M185.01,148.75s0,0,0,0c-.01,0-.02,0-.02,0,0,0,0,0,0,0,0,0,.03,0,.05,0,0,0-.02,0-.02,0Z"/>
  <polygon points="177.15 93.49 177.15 93.49 177.15 93.49 177.15 93.49"/>
  <path d="M177.65,93.14s.01.05.01.08c0,0,0,.01,0,.02,0-.02,0-.04,0-.05,0,0,0-.02,0-.03,0,0,0,0,0-.02Z"/>
  <path d="M177.14,93.47s0,.01,0,.02c0-.03,0-.04,0-.04h0s0,.01,0,.02Z"/>
  <path d="M177.65,93.14s-.05-.07-.09-.07c.01.04.03.07.04.11.03.1-.1.25-.21.24-.08,0-.15-.02-.23-.03,0,.02-.01.04-.02.06,0,0,0,.01,0,.04,0,0,0,0,0,0,.06.02.12.05.19.07-.07.01-.12,0-.17-.02.09.16.47-.1.49-.31-.01.05-.03.09-.07.14.02-.08.04-.16.06-.24Z"/>
  <polygon points="177.14 93.54 177.14 93.54 177.14 93.54 177.14 93.54 177.14 93.54"/>
  <path d="M177.15,93.49s0,0,0,0c0,0,0-.01,0-.02,0,0,0-.02,0-.02,0,0,0,.02,0,.02,0,.02,0,.04,0,.06.02,0,.03,0,0,0,0,0,.02,0,.03,0,0-.01-.01-.04-.02-.06h0Z"/>
  <path d="M177.65,93.14s0,0,0,0c-.02.08-.04.16-.06.24.04-.05.06-.09.07-.14,0,0,0-.01,0-.02,0-.03,0-.05-.01-.08Z"/>
  <path d="M177.14,93.54s0,0,0,0c0,0,0,0,0,0,.03,0,.02,0,0,0Z"/>
  <path d="M177.33,93.56c-.06-.02-.12-.05-.19-.07,0,.02,0,.04.02.06.05.02.1.03.17.02Z"/>
  <path d="M184.91,149.04s0,.02,0,.03c.03-.03.06-.06.1-.1-.01-.02-.03-.04-.04-.06-.02.04-.04.08-.05.12Z"/>
  <path d="M184.03,149.17s-.01,0-.02,0c-.15.06.13-.05.02,0Z"/>
  <path d="M185.61,148.88s0-.02,0-.03c0-.05,0-.08,0-.12-.01-.03-.02-.06-.05-.08.01.07.03.15.04.22Z"/>
  <path d="M184.93,149.87c-.23.17.08-.04,0,0h0Z"/>
  <path d="M185.09,149.12s-.06-.1-.1-.14c-.03.03-.06.06-.1.1,0-.01,0-.02,0-.03,0-.04.03-.08.05-.12-.02-.03-.03-.05-.05-.08-.01-.02-.01-.03-.02-.05-.02,0-.03.01-.05.02-.03.01-.05.03-.08.04-.06.03-.12.06-.18.09-.14.07-.29.13-.43.18-.04.02-.09.03-.13.05,0,0,0,0,0,0,0,0,.01,0,.02,0,.11-.04-.17.07-.02,0-.09.03-.17.06-.26.09-.21.07-.42.15-.63.21-.51.16-1.02.31-1.54.46-3.08.85-6.21,1.51-9.34,2.15-4.38.89-8.78,1.69-13.18,2.45-5.11.88-10.22,1.71-15.35,2.49-5.27.81-10.55,1.55-15.84,2.27-.47.06-.94.13-1.41.19-.01.37-.05.73-.1,1.1,5.06-.62,10.11-1.31,15.15-2.05,5.22-.77,10.44-1.58,15.65-2.47,4.55-.77,9.1-1.58,13.63-2.48,3.3-.66,6.61-1.34,9.87-2.21,1.05-.28,2.11-.57,3.13-.96.32-.12.63-.25.93-.42.02-.01.05-.03.07-.04.09-.05.13-.07.15-.08.02-.02.04-.03.07-.05.14-.1.26-.24.36-.38.07-.1.14-.2.19-.31.05-.11.1-.27.06-.39,0,.03,0,.07,0,.12,0,0,0,.02,0,.03-.01-.07-.03-.15-.04-.22.02.02.04.05.05.08,0-.05-.02-.08-.05-.11-.04.1-.08.21-.13.31-.03.07-.26.3-.34.17Z"/>
  <path d="M185.14,148.73s-.06,0-.09.02c.02,0,.05,0,.08,0,0,0,0,0,0,0Z"/>
  <path d="M185.16,148.72c.09-.01.03,0-.01.02-.02.01-.04.02-.05.03-.02.01-.04.03-.05.04-.03.03-.06.07-.09.1.01.02.03.04.04.06.12-.12.23-.23.35-.35-.04,0-.07.03-.11.05-.03.02-.06.03-.09.06,0,0,0,0,.01,0Z"/>
  <path d="M185.24,148.67s-.07.03-.1.06c0,0,0,0,0,0,.03-.02.06-.04.09-.06Z"/>
  <path d="M185.13,148.74s0,0,.01,0c0,0,0,0,0,0,0,0,0,0,0,0,0,0,0,0,0,0Z"/>
  <path d="M184.96,148.92s.05-.07.09-.1c-.02.01-.03.02-.01,0,.02-.02.04-.04.06-.05,0,0,0,0,0,0,0,0,0,0,0,0,0,0,.02-.01.03-.02-.04,0-.07,0-.1.01-.02,0-.04,0-.05,0-.03,0-.06.02-.1.03,0,.02.01.03.02.05.02.03.03.05.05.08Z"/>
  <path d="M184.98,148.76s0,0,0,0c0,0,0,0,0,0Z"/>
  <path d="M184.99,148.76s0,0,.02,0c0,0-.01,0-.02,0Z"/>
  <path d="M185.03,148.75s.05,0,.1-.01c0,0,0,0,0,0-.03,0-.06,0-.08,0,0,0,0,0,0,0,0,0,0,0-.01,0Z"/>
  <path d="M185.24,148.67s.07-.04.11-.05c-.12.12-.23.23-.35.35.03.05.07.1.1.14.09.13.31-.09.34-.17.05-.11.09-.21.13-.31-.07-.06-.2-.03-.33.04Z"/>
  <path d="M185.05,148.75s0,0,0,0c-.01,0-.03,0-.04,0,0,0,.02,0,.02,0,0,0,.01,0,.01,0Z"/>
  <path d="M185,148.75s0,0,0,0c0,0,0,0,0,0Z"/>
  <path d="M185.09,148.77s-.03.03-.05.04c.02-.01.04-.03.05-.04,0,0,0,0,0,0Z"/>
  <path d="M185.09,148.77s0,0,0,0c-.02.02-.05.04-.06.05-.02.02,0,0,.01,0,.02-.02.03-.03.05-.04Z"/>
  <path d="M185.14,148.74s.1-.03.01-.02c0,0,0,0-.01,0,0,0,0,0-.01,0,0,0,0,0,0,0,.04-.02.03,0,0,0Z"/>
  <path d="M185.14,148.73s0,0,.01,0c0,0,0,0-.01,0,0,0,0,0,0,0,0,0,0,0,0,0-.01,0,0,0,.01,0,.02-.01.03-.02,0,0Z"/>
  <polygon points="185.1 148.76 185.1 148.76 185.1 148.76 185.1 148.76"/>
  <path d="M185.13,148.74s-.02.01-.02.02c0,0,0,0-.01.01.01,0,.03-.02.05-.03-.02,0-.03,0-.01,0Z"/>
  <polygon points="185.13 148.74 185.13 148.74 185.14 148.73 185.13 148.74"/>
  <path d="M185.11,148.76s0,0,0,0c0,0,0,0,0,0,0,0,0,0,0,0,0,0,.01,0,.02-.01Z"/>
  <polygon points="185.13 148.74 185.13 148.74 185.13 148.74 185.13 148.74"/>
  <path d="M185.11,148.76s-.01,0-.02.01c0,0,0,0,0,0,0,0,0,0,.01-.01Z"/>
  <path d="M185.14,148.73s0,0,0,0c0,0,0,0,.01,0,0,0,0,0-.01,0Z"/>
  <polygon points="185.13 148.74 185.13 148.74 185.13 148.74 185.13 148.74 185.13 148.74"/>
  <path d="M185.13,148.74s0,0,0,0c0,0,0,0,0,0h0s0,0,0,0c0,0-.02.01-.03.02,0,0,.01,0,0,0,0,0,.01-.01.02-.02Z"/>
  <polygon points="185.14 148.73 185.14 148.73 185.13 148.74 185.13 148.74 185.14 148.73"/>
  <path d="M96.13,157.05s.05.11.1.19c.03-.05.05-.1.06-.14.05-.34.1-.67.09-1.02,0-.31-.07-.61-.11-.92-.1-.65-.19-1.3-.29-1.95-.21-1.43-.43-2.86-.65-4.3-.5-3.27-1.01-6.55-1.53-9.82-.57-3.64-1.14-7.28-1.71-10.92-.59-3.72-1.2-7.45-1.82-11.16-.31-1.83-.6-3.65-.92-5.48-.3-1.73-.58-3.47-.97-5.19-.06-.26-.12-.52-.19-.78-.08-.04-.16-.08-.24-.13-.03.01-.05.02-.07.02,0,.07,0,.13.01.2.16.49.31.99.45,1.49.26.93.38,1.88.49,2.83.01.11-.24.32-.29.17-.12-.39-.25-.78-.38-1.17.06.56.13,1.13.2,1.69.08.6.16,1.2.24,1.81.71,2.13,1.32,4.29,1.73,6.5.03.16-.07.31-.2.4-.08.06-.3.15-.35,0-.15-.57-.32-1.13-.49-1.69.45,3.25.91,6.49,1.41,9.73.56,3.67,1.14,7.34,1.72,11.01.52,3.33,1.04,6.66,1.56,9.99.23,1.46.45,2.92.67,4.38.1.67.2,1.35.3,2.02.09.64.14,1.31.31,1.93.08.27.18.49.32.73.04.08.11.11.18.11-.01-.1,0-.17-.02-.22-.05-.18.34-.47.39-.28Z"/>
  <path d="M167.6,89.41s-.04-.02-.06-.03c-.02,0-.02-.02-.02-.04-.02.03-.04.07-.06.1.04,0,.07,0,.11-.02,0,0,.02-.01.03-.02Z"/>
  <path d="M162.57,88.95c-.24,0-.47.01-.71.03-1.91.14-3.81.33-5.71.54-3.09.34-6.16.8-9.24,1.17-2.64.32-5.27.69-7.9,1.08-3.48.51-6.96,1.06-10.43,1.64-3.84.64-7.67,1.32-11.49,2.05-.47.09-.94.18-1.41.27-.04,0-.09.03-.13.05.14.21.2.45.14.75,0,.02.01.04.02.06,3.73-.73,7.47-1.4,11.21-2.03,3.53-.6,7.06-1.16,10.61-1.69,2.75-.41,5.51-.8,8.27-1.15,2.83-.36,5.73-.76,8.59-1.1,1.85-.22,3.71-.41,5.57-.54.98-.07,1.96-.12,2.93-.18.32-.02.63-.05.95-.08-.07,0-.13-.03-.18-.07-.35-.28-.71-.54-1.07-.8Z"/>
  <path d="M164.59,88.92c.11.2-.1.53-.22.65-.13.13-.34.27-.54.25.73-.07,1.46-.15,2.19-.21.09,0,.18-.02.28-.03-.28-.21-.55-.42-.82-.63-.22-.01-.44-.02-.67-.03-.07,0-.15,0-.22,0Z"/>
  <path d="M167.65,89.2s.07,0,.1.01c0-.03-.01-.05-.05-.05-.03,0-.06,0-.09-.01,0,.03-.02.06-.03.09.02-.02.05-.04.07-.03Z"/>
  <path d="M88.26,104.83s.01-.04.02-.06c.03-.05.05-.08.11-.16.06-.08.05-.06.14-.16.29-.29.7-.55,1.11-.78,1.33-.75,2.78-1.28,4.24-1.74,1.07-.34,2.14-.67,3.23-.96,0-.05-.01-.11,0-.16.02-.12.08-.2.14-.31.03-.05.07-.08.13-.1,0-.1,0-.2,0-.3-1.98.62-3.95,1.27-5.87,2.07-1.15.49-2.44,1.04-3.29,1.99-.26.29-.5.68-.47,1.08.02.06.04.12.06.19.02.01.04.02.06.01,0-.02,0-.04,0-.07-.25-.18.15-.59.4-.55Z"/>
  <path d="M87.87,105.38s0,.04,0,.07c.02,0,.05,0,.07-.02-.02-.01-.04-.02-.06-.03,0,0,0,0-.01-.01Z"/>
  <path d="M167.6,89.41c.32.17.66.29,1.01.4.35.11.7.25,1.05.37.68.22,1.38.38,2.06.6,1.26.4,2.48.9,3.62,1.56.56-.02,1.13-.02,1.65.12.09.02.2.05.29.09-.07-.07-.14-.15-.23-.21-.29-.2-.58-.38-.89-.54-.59-.31-1.17-.67-1.8-.88-.65-.21-1.29-.47-1.94-.67-.69-.21-1.4-.4-2.1-.59-.42-.11-.85-.16-1.28-.25-.43-.09-.86-.18-1.3-.21,0,.07-.09.16-.15.2Z"/>
  <path d="M175.34,92.34s.03.02.05.03c.31.18.61.42.9.63.15.1.29.23.46.3.13.05.27.08.4.1.07-.14.27-.33.4-.32-.06-.2-.15-.37-.27-.51-.09-.04-.19-.07-.29-.09-.52-.14-1.1-.14-1.65-.12Z"/>
  <path d="M177.59,93.18s-.02-.07-.04-.11c-.13,0-.33.18-.4.32.07.01.15.02.23.03.11.01.23-.14.21-.24Z"/>
  <path d="M167.57,89.24s-.03.07-.06.11c0,.01,0,.03.02.04.02.01.04.02.06.03.06-.03.15-.13.15-.2-.03,0-.07-.01-.1-.01-.02,0-.05.01-.07.03Z"/>
  <path d="M142.37,112.29s.03-.02.04-.03c.02-.02.02-.02-.04.03Z"/>
  <path d="M136.42,120.48c.2-.45.4-.89.64-1.32.26-.46.55-.87.82-1.36.06-.11.12-.21.18-.32.01-.03.03-.05.04-.08-.11.01-.22.02-.32.03-.14,0-.32.04-.45-.02-.11-.05,0-.2.06-.25.28-.21.66-.28,1-.33.02,0,.05,0,.07,0,.05-.08.1-.16.15-.24.2-.31.42-.61.64-.91-.21.04-.43.09-.63.06-.18-.02,0-.24.07-.28.27-.16.62-.23.93-.29.13-.17.26-.33.39-.5.03-.03.05-.06.08-.09-.02,0-.03-.02-.04-.03-.02,0-.03,0-.05,0-.14,0,0-.2.08-.22.06-.01.12-.06.17-.08.05-.02.1-.03.16-.05.02-.02.03-.04.05-.05.18-.2.38-.39.57-.58-.38.09-.77.18-1.14.16-.17,0,0-.22.06-.25.47-.27,1.03-.39,1.55-.52.06-.01.12-.02.17-.04.16-.15.32-.3.48-.44.05-.05.11-.09.16-.14.01,0,.07-.06.09-.08-.01.01-.03.02-.04.03.06-.05.06-.05.04-.03.1-.08.19-.16.29-.24.43-.35.87-.68,1.33-1,1.79-1.25,3.88-2.31,5.98-3.02,2.28-.76,4.68-1.21,7.08-1.28.1,0,.2,0,.3,0,2.98-.67,6.08-.63,9.04.14-4.94-1.71-10.36-1.86-15.38-.36-4.65,1.39-8.9,4.08-12.02,7.81-.81.96-1.52,2.01-2.1,3.12-.5.95-.76,2.04-.94,3.1.13-.15.39-.22.42-.06Z"/>
  <path d="M152.86,148.99c-1.34-.47-2.65-1.08-3.88-1.81-.37-.14-.73-.28-1.09-.43-2.41-1.01-4.74-2.34-6.66-4.13-.79-.74-1.51-1.56-2.07-2.5-.4-.67-.76-1.37-1.09-2.08-.1-.03-.21-.05-.31-.09-.13-.05-.26-.09-.38-.15-.12-.06-.22-.14-.34-.21-.09-.06.04-.2.12-.2.16.01.32,0,.48.02.05,0,.1.02.15.02-.07-.16-.15-.32-.21-.48-.41-.07-.83-.18-1.1-.51-.07-.08.07-.24.16-.23.23.04.47.08.7.12-.08-.2-.15-.4-.22-.6-.18-.03-.35-.06-.53-.11-.19-.05-.36-.1-.53-.2-.12-.07.03-.25.13-.27.24-.04.47-.03.71,0-.65-1.95-1.1-3.96-1.34-6.01-.33-2.86-.18-5.8.82-8.52.02-.06.03-.11.02-.15-.02.05-.05.1-.07.14-.06.14-.42.33-.37.05,0-.05.02-.09.02-.14-.02.03-.04.05-.06.08-1.09,2.42-1.43,5.16-1.38,7.79.06,2.77.62,5.56,1.55,8.17.8,2.26,1.89,4.57,3.55,6.33,1.81,1.91,4.12,3.36,6.49,4.46,2.69,1.25,5.59,2.08,8.54,2.36.35.03.7.06,1.05.07-.98-.21-1.94-.49-2.89-.81,0,0,0,0-.01,0Z"/>
  <path d="M136.35,120.62s.05-.1.07-.14c-.02-.16-.28-.1-.42.06,0,.05-.02.09-.02.14-.04.28.31.1.37-.05Z"/>
  <polygon points="174.35 144.94 174.35 144.94 174.34 144.94 174.35 144.94"/>
  <path d="M144.19,117.53s0-.02.01-.02c-.04.07-.03.05-.01.02Z"/>
  <path d="M146.25,114.62s0,0,0-.01c0,0,0,0,.01-.01,0,0-.02.02-.02.02Z"/>
  <path d="M175.23,111.76c-2.4-2.29-5.33-3.95-8.53-4.83-.09-.02-.18-.04-.26-.06.02,0,.05.01.07.02.6.21-.29,1.32-.82,1.14-2.67-.91-5.47-1.35-8.3-1.3-.28.06-.56.12-.84.2-3.28.89-6.3,2.63-8.85,4.87-1.25,1.1-2.39,2.35-3.37,3.69-.98,1.33-1.86,2.77-2.37,4.35-.11.33-.21.67-.29,1.01-.04.17-.07.34-.09.52-.02.13-.02.28-.04.42.13-.15.38-.22.42-.08.06-.13.14-.27.21-.39.09-.18.19-.36.28-.54.17-.36.35-.72.54-1.07.37-.69.75-1.39,1.15-2.07.02-.03.04-.07.06-.1-.02.03-.03.05.01-.02,0,0,0,.02-.01.02,0-.02.02-.03.02-.04.05-.08.1-.17.15-.25.1-.17.21-.33.31-.49.21-.33.44-.65.67-.96.23-.32.47-.63.72-.93.06-.08.12-.15.19-.23,0,0,0,0,.01-.02,0,0,0,0,0,.01,0,0,.01-.01.02-.02.04-.05.02-.03,0,0,0,0,0,0-.01.01.03-.03.06-.07.09-.1.13-.15.26-.3.39-.44.54-.59,1.12-1.15,1.72-1.68.05-.05.11-.09.16-.14,0,0,0,0,.03-.03-.01,0-.02.02-.03.03.01-.01.13-.11.15-.13.16-.13.33-.27.49-.39.31-.24.63-.48.96-.71.33-.23.66-.44,1-.65.07-.04.14-.08.21-.13-.03.02-.04.03.02-.01,0,0-.01,0-.02.01.02,0,.04-.02.04-.02.04-.03.09-.05.13-.07.18-.11.37-.21.55-.31.7-.38,1.42-.72,2.16-1.01,1.37-.55,2.99-.98,4.54-1.19,1.6-.22,3.24-.21,4.84,0,1.67.22,3.31.7,4.87,1.35,1.44.6,2.84,1.36,4.08,2.31,2.43,1.85,4.39,4.27,5.75,7,1.38,2.77,2.17,5.81,2.35,8.9.19,3.11-.1,6.29-1.01,9.28-.42,1.39-.99,2.73-1.71,4.01-.66,1.16-1.55,2.36-2.47,3.32-.25.26-.52.52-.79.77-.13.12-.26.23-.39.35-.01.01-.02.02-.03.02,0,0,0,0,0,0,0,0,0,0,0,0-.04.04-.02.02,0,0,0,0,0,0,0,0-.03.03-.07.06-.1.09-.08.07-.16.13-.24.2-.59.47-1.21.91-1.86,1.31-1.35.83-2.96,1.54-4.55,1.98-3.68,1.04-7.65,1.03-11.37.18-.89-.2-1.76-.45-2.62-.75.21.08.21.28.1.49.86.14,1.72.24,2.58.28.31.01.32.33.22.55-.12.26-.43.55-.74.54,0,0-.01,0-.02,0,2.89.63,5.9.76,8.83.35,3.53-.5,6.95-1.91,9.74-4.15,2.43-1.96,4.34-4.5,5.58-7.36,1.28-2.96,1.87-6.17,1.96-9.38.02-.55,0-1.11,0-1.66-.3-2-.59-4-.88-6-.18-.65-.38-1.3-.62-1.94-1.11-2.96-2.85-5.7-5.14-7.89Z"/>
  <path d="M148.63,112.25s.02-.02.03-.03c-.03.03-.04.03-.03.03Z"/>
  <path d="M151.43,110.24s.01,0,.02-.01c-.06.04-.04.03-.02.01Z"/>
  <path d="M180.99,121.59c.29,2,.58,4,.88,6-.06-2.03-.34-4.04-.88-6Z"/>
  <path d="M157.39,106.72c2.82-.05,5.62.39,8.3,1.3.53.18,1.41-.93.82-1.14-.02,0-.05-.01-.07-.02-2.96-.77-6.06-.81-9.04-.14ZM162.84,106.64c.32,0-.02.52-.25.52-.32,0,.02-.52.25-.52Z"/>
  <path d="M162.59,107.16c.23,0,.57-.52.25-.52-.23,0-.57.52-.25.52Z"/>
  <path d="M156.51,149.26c.11-.22.09-.54-.22-.55-.87-.04-1.73-.14-2.58-.28-.16.32-.56.64-.85.55.94.33,1.91.6,2.89.81,0,0,.01,0,.02,0,.31.01.62-.28.74-.54Z"/>
  <path d="M140.16,127.9c-.11,2.18.09,4.4.56,6.53.46,2.06,1.14,4.09,2.05,5.99.88,1.83,2,3.49,3.53,4.84.83.73,1.73,1.35,2.68,1.91,1.27.47,2.58.84,3.91,1.11.2-.24.49-.42.72-.34,0,0,0,0,0,0,0,0,0,0,0,0-2.07-.73-4.06-1.72-5.78-3.09-.79-.63-1.53-1.33-2.17-2.12-.6-.73-1.08-1.54-1.53-2.38-.97-1.79-1.69-3.7-2.22-5.67-.54-2.03-.9-4.11-.96-6.21-.07-2.23.19-4.52.99-6.61.03-.07.03-.12.02-.16-.02.04-.04.07-.05.11-.03.1-.13.23-.25.25-.1.02-.18-.04-.15-.15.01-.04.01-.09.02-.13-.02.02-.04.05-.05.08-.83,1.91-1.23,3.96-1.33,6.04Z"/>
  <path d="M152.88,148.29c-1.33-.26-2.64-.64-3.91-1.11,1.23.73,2.54,1.33,3.88,1.81,0,0,0,0,.01,0,0,0,0,0-.01,0-.29-.1-.19-.43.03-.7Z"/>
  <path d="M141.66,122.06c.11-.02.21-.14.25-.25.01-.03.03-.07.05-.11-.04-.15-.3-.08-.42.08,0,.04,0,.09-.02.13-.03.11.05.16.15.15Z"/>
  <path d="M152.88,148.29c.28.05.55.1.83.15.1-.21.1-.41-.1-.49,0,0,0,0,0,0-.23-.08-.52.11-.72.34Z"/>
  <path d="M152.86,148.98s0,0,.01,0c.29.09.69-.24.85-.55-.28-.05-.55-.09-.83-.15-.22.27-.32.6-.03.7Z"/>
  <path d="M124.76,162.49s0,.01,0,.01c0-.02.03-.08,0-.01Z"/>
  <path d="M123.01,164.62s-.03.02-.04.03c.1-.06.08-.05.04-.03Z"/>
  <path d="M123.61,164.19c-.09.09.07-.05,0,0h0Z"/>
  <path d="M122.35,164.93s0,0,0,0c0,0-.02,0-.03.01-.06.03.17-.06.03-.01Z"/>
  <path d="M124.4,163.26s-.01.02-.02.03c.03-.05.03-.05.02-.03Z"/>
  <path d="M124.02,163.78s0,0,0,0c.01-.02.02-.03.04-.05.01-.02.01-.02-.04.05Z"/>
  <path d="M125.27,160.18c.09-.26.38-.59.67-.62.17-.02.35-.05.52-.07.02-.63,0-1.25-.04-1.88-.12-1.6-.39-3.19-.53-4.79-.23-2.47-.62-4.93-1.02-7.38-.4-2.45-.83-4.9-1.15-7.37-.32-2.47-.48-4.95-.72-7.43-.48-4.94-1.06-9.91-2.14-14.76-.34-1.54-.6-3.09-1.03-4.61-.4-1.41-.93-3.03-2.07-4.02-.11-.1-.23-.19-.36-.27-.21-.14-.38-.4-.48-.63-.16-.38-.12-.78.05-1.15.4-.86,1.21-1.56,1.93-2.15,1.54-1.27,3.38-2.12,5.29-2.68.97-.29,1.95-.55,2.94-.76.04,0,.08-.05.12-.1-.05,0-.1,0-.15,0-.12.01-.04-.13.03-.2-.95.12-1.9.24-2.83.47-.94.23-1.87.52-2.76.91-.92.4-1.8.91-2.62,1.51-.86.63-1.7,1.37-2.35,2.22-.49.64-.89,1.49-.75,2.31.2-.13.4-.24.62-.28.08-.01.19,0,.18.12-.03.36-.27.63-.54.84.1.17.22.35.36.47.12.11.27.2.39.31.23.22.44.47.61.74.86,1.34,1.24,2.99,1.57,4.53.87,4.09,1.62,8.19,2.13,12.34.31,2.52.57,5.04.79,7.56.22,2.45.45,4.88.81,7.32.37,2.48.81,4.95,1.2,7.43.19,1.21.36,2.43.51,3.64.12.98.19,1.96.31,2.94.2,1.61.45,3.22.45,4.84,0,.82-.05,1.5-.24,2.27-.04.18-.09.36-.15.54-.01.04-.03.09-.05.13.03-.07,0,0,0,.01,0,0,0-.01,0-.01,0,0,0,.01-.01.03-.04.09-.08.19-.12.28-.07.16-.15.31-.24.46,0-.01.01-.01-.02.03,0-.01.01-.02.02-.03-.02.03-.08.13-.1.16-.06.09-.13.19-.2.28-.01.01-.02.03-.03.04,0,.01-.02.03-.03.04h0s0,.01,0,.01c0,0,0,0,0,0-.07.08-.14.15-.21.23-.06.06-.13.12-.19.18-.01,0,0,0-.01.01.07-.05-.09.09,0,0,0,0,0,0,0,0-.04.03-.09.07-.13.1-.15.12-.31.22-.47.32.04-.02.06-.04-.04.03.01,0,.03-.02.04-.03-.03.02-.06.03-.07.04-.05.03-.09.05-.14.07-.09.04-.18.08-.27.12-.04.02-.08.03-.13.05-.02,0-.04.01-.05.02,0,0,0,0,0,0,.14-.05-.09.04-.03.01,0,0,.02,0,.03-.01-.21.07-.43.14-.64.19-.49.12-1,.2-1.5.27,0,0,0,0,0,0,.06,0-.13.02,0,0,0,0,0,0,0,0-.04,0-.07,0-.11.01-.06,0-.12.01-.18.02-.16.02-.31.03-.47.04-.3.02-.6.04-.9.05-2.79.08-5.59-.29-8.31-.92-2.84-.65-5.65-1.55-8.27-2.82-1.1-.53-2.16-1.12-3.12-1.86-.41-.31-.81-.65-1.17-1.02-.32-.32-.65-.64-.94-.99-.09-.11-.25-.3-.35-.45-.04-.06-.08-.13-.12-.2,0-.01-.01-.02-.02-.03-.1.16-.3.32-.46.31,0,0,0,.02,0,.03.02.12.04.24.07.35.05.21.12.45.19.61.18.44.45.86.77,1.21.77.82,1.72,1.47,2.69,2.05,2.4,1.44,5.07,2.42,7.75,3.19,2.82.81,5.74,1.38,8.67,1.63,2.21.19,4.65.25,6.73-.67,1.46-.65,2.66-1.92,3.24-3.4.25-.63.4-1.29.49-1.95-.28.03-.56.07-.84.11-.3.04-.32-.32-.25-.51Z"/>
  <path d="M120.2,165.4c-.13.02.06,0,0,0h0Z"/>
  <path d="M127.24,99.3s-.08.01-.12.02c-.08.07-.15.22-.03.2.05,0,.1,0,.15,0,.07-.1.12-.23,0-.21Z"/>
  <path d="M125.94,159.56c-.29.04-.58.36-.67.62-.07.19-.05.55.25.51.28-.03.56-.07.84-.11.05-.36.08-.73.1-1.1-.17.02-.35.05-.52.07Z"/>
  <path d="M96.23,157.24c-.05-.08-.08-.14-.1-.19-.05-.2-.43.09-.39.28.01.06.01.12.02.22.16,0,.36-.15.46-.31Z"/>
  <path d="M114.66,107.28c-.73.24-1.49.37-2.25.45-.71.08-1.43.09-2.14.16-1.06.1-2.13.16-3.2.19-2.17.06-4.34,0-6.51-.14-2.05-.13-4.13-.23-6.11-.83-.51-.15-1.01-.32-1.5-.51-.5-.19-1.01-.35-1.5-.56-.51-.21-1.01-.48-1.52-.65-.27-.09-.53-.16-.8-.27-.28-.11-.55-.22-.85-.3,0,0-.01,0-.02,0-.04.08-.06.16-.06.27,0,.06-.03.12-.08.18.02.09.04.18.06.27.36.18.72.35,1.06.56.43.26.92.44,1.37.65.88.4,1.74.81,2.66,1.13,2.01.69,4.12.83,6.22.98,2.25.16,4.5.24,6.76.19,1.1-.02,2.21-.08,3.31-.18.76-.07,1.52-.09,2.28-.17.91-.09,1.82-.23,2.68-.52.45-.16.88-.35,1.29-.6.09-.05.17-.11.26-.18-.04-.06-.08-.13-.11-.19-.08-.16-.12-.33-.15-.49-.08.05-.17.11-.25.16-.26.15-.59.3-.9.4Z"/>
  <path d="M87.94,105.43c.08.05.16.08.24.13-.02-.09-.04-.18-.06-.27-.05.06-.12.11-.18.14Z"/>
  <path d="M87.87,105.38s0-.07,0-.11c0-.08.2-.26.23-.14.01.05.02.1.04.15.05-.06.09-.13.08-.18,0-.11.02-.19.06-.27-.24-.04-.65.37-.4.55Z"/>
  <path d="M88.12,105.29c-.01-.05-.02-.1-.04-.15-.03-.12-.23.06-.23.14,0,.04,0,.07,0,.11,0,0,0,0,.01.01.02.01.04.02.06.03.06-.03.13-.08.18-.14Z"/>
  <path d="M116.07,107.41c.28-.21.51-.49.54-.84,0-.11-.1-.13-.18-.12-.22.04-.42.16-.62.28.03.17.07.33.15.49.03.06.07.13.11.19Z"/>
  <path d="M149.77,117.81c.05-.06-.05.05,0,0h0Z"/>
  <path d="M146.4,123.22c.05-.09.11-.18.16-.26.08-.14.16-.27.23-.41.15-.29.3-.58.46-.87.14-.24.29-.49.45-.79.15-.28.31-.56.47-.83,0-.02,0-.01.01-.02,0,0,.06-.1,0,0,0,0,0,0,.01-.02.03-.05.06-.1.09-.16.08-.12.15-.25.23-.37.17-.27.35-.53.54-.78.17-.24.35-.47.54-.7.05-.06.09-.11.14-.17.02-.02.02-.02.02-.03-.05.05.05-.06,0,0,0,0,0,0,.03-.03.11-.13.23-.26.35-.38.4-.43.83-.85,1.27-1.24,0,0,.05-.04.08-.07,0,0,0,0,0,0,0,0,0,0-.01.01,0,0,0,0,.01-.01-.81.46-1.58,1.02-2.27,1.65-.13.12-.24,0-.12-.12.32-.33.66-.64,1.01-.93.91-.75,1.92-1.34,2.99-1.8.12-.08.23-.16.35-.23.05-.03.1-.06.15-.09,0,0,0,0,.04-.02-.01,0-.02.02-.04.02.01,0,.12-.07.12-.07.15-.09.3-.17.45-.25.55-.29,1.11-.56,1.69-.79,1.02-.41,2.28-.74,3.45-.9,1.22-.16,2.47-.15,3.69.01,2.41.32,4.88,1.31,6.81,2.79,3.78,2.88,5.92,7.48,6.2,12.18.14,2.39-.08,4.82-.78,7.11-.32,1.06-.75,2.08-1.31,3.05-.49.86-1.19,1.79-1.87,2.49-.17.18-.35.36-.54.53-.25.24-.35.32-.6.52-.46.37-.95.71-1.45,1.02-.42.26-.99.55-1.49.78-.64.29-1.29.53-1.96.71-.29.08-.59.15-.88.21-.14.07-.28.15-.42.22-.38.16-.77.31-1.16.44-.21.07-.41.13-.62.18-.22.05-.4.03-.62,0-.28-.03-.09-.36.04-.48-1.67.08-3.35-.08-4.96-.44-.68-.16-1.36-.35-2.02-.58.52.2-.26,1.19-.74,1.04,2.89,1,6.01,1.32,9.04.9,2.74-.38,5.39-1.48,7.55-3.21,1.91-1.53,3.41-3.51,4.39-5.75.99-2.29,1.46-4.77,1.53-7.26.08-2.53-.27-5.06-1.16-7.44-.86-2.29-2.21-4.42-3.98-6.11-1.86-1.77-4.13-3.06-6.61-3.74-2.58-.7-5.31-.69-7.89.02-2.56.71-4.91,2.08-6.88,3.83-.97.86-1.85,1.84-2.62,2.89-.76,1.04-1.45,2.16-1.81,3.4-.07.25-.14.51-.2.77-.03.14-.04.28-.05.43,0,.07,0,.15,0,.23.12-.17.4-.25.43-.08Z"/>
  <path d="M148.19,120.04c.06-.1,0,0,0,0h0Z"/>
  <path d="M151.48,116.11s0,0,.01-.01h0s0,0-.01.01Z"/>
  <path d="M153.61,114.57s.02-.02.04-.02c-.03.02-.04.03-.04.02Z"/>
  <path d="M146.85,137.72c.67,1.41,1.54,2.69,2.71,3.74,1.47,1.3,3.24,2.23,5.07,2.88,0,0,0,0,.01,0,0,0,0,0-.01,0-.54-.19.26-1.21.75-1.04,0,0,0,0,0,0,0,0,0,0,0,0-1.59-.56-3.12-1.32-4.44-2.38-1.19-.95-2.09-2.09-2.82-3.43-.74-1.36-1.3-2.83-1.7-4.32-.42-1.54-.7-3.13-.76-4.73-.06-1.7.12-3.46.72-5.07.02-.07.03-.11.02-.15-.02.03-.04.07-.05.1-.03.1-.13.23-.25.25-.1.02-.18-.04-.15-.15,0-.03,0-.07,0-.11-.01.02-.03.04-.04.06-1.33,3-1.35,6.57-.65,9.74.35,1.59.87,3.15,1.57,4.62Z"/>
  <path d="M146.11,123.56c.11-.02.21-.14.25-.25,0-.03.03-.06.05-.1-.03-.17-.31-.08-.43.08,0,.04,0,.08,0,.11-.03.11.05.16.15.15Z"/>
  <path d="M155.39,143.3s0,0,0,0c-.48-.17-1.29.85-.75,1.04,0,0,0,0,.01,0,.48.15,1.27-.84.74-1.04Z"/>
  <path d="M158.46,114.79c1.63.25,3.18.77,4.62,1.57,1.46.81,2.81,1.89,3.86,3.19,2,2.46,3.16,5.51,3.5,8.64.36,3.2,0,6.49-1.12,9.52-.53,1.43-1.21,2.92-2.21,4.09-.43.5-.93.89-1.51,1.17-.63.29-1.25.47-1.91.68-.22.07-.45.16-.66.25-.23.1-.44.27-.64.41,0,0-.01.01-.02.02.94-.04,1.87-.16,2.79-.36.53-.26,1.04-.57,1.49-.96.63-.54,1.13-1.22,1.56-1.93.41-.67.8-1.36,1.12-2.08,1.39-3.05,1.99-6.49,1.89-9.83-.05-1.71-.34-3.37-.76-5.03-.41-1.61-1.07-3.15-1.99-4.53-1.94-2.9-5.14-4.88-8.56-5.49-2.31-.42-4.68-.11-6.81.8-.11.07-.22.14-.33.22-.26.18-.52.37-.78.57-.12.09-.23.18-.35.28-.04.04-.09.07-.13.11,0,0-.01.01-.03.02.7-.4,1.43-.73,2.2-.97,1.51-.47,3.19-.58,4.76-.34Z"/>
  <path d="M151.49,116.1h0s.02-.02.03-.02c0,0,0,0-.03.02Z"/>
  <path d="M151.52,116.07s.09-.07.13-.11c.11-.09.23-.19.35-.28.25-.2.51-.39.78-.57.11-.08.22-.14.33-.22-1.07.45-2.09,1.05-2.99,1.8-.36.29-.69.6-1.01.93-.12.13,0,.24.12.12.7-.64,1.46-1.19,2.27-1.65.03-.02.04-.03.03-.02Z"/>
  <path d="M151.49,116.1s0,0,0,0c.01-.01.02-.02.03-.02,0,0-.02.02-.03.02Z"/>
  <path d="M162.33,144.79c.22.02.41.05.62,0,.21-.05.42-.11.62-.18.39-.13.78-.28,1.16-.44.15-.06.28-.15.42-.22-.92.2-1.85.32-2.79.36-.14.11-.32.45-.04.48Z"/>
  <path d="M158.59,120.08c-.46-.45-.97-.88-1.6-1.02-.07-.02-.23.11-.15.18.39.38.84.67,1.23,1.04.11.1.21.22.31.33.17-.07.35-.13.53-.19-.1-.11-.2-.23-.31-.34Z"/>
  <path d="M161.86,135.52c0,.07-.01.14-.02.21-.05.51-.2,1.02-.18,1.53,0,.22.29,0,.33-.08.34-.59.41-1.33.45-2.04-.07.05-.14.11-.21.16-.12.08-.24.15-.36.22Z"/>
  <path d="M159.09,121.5c.16-.08.32-.16.49-.22-.12-.18-.25-.36-.39-.53-.18.06-.35.12-.52.19.15.18.29.37.42.56Z"/>
  <path d="M159.35,121.9c.6.95,1.07,2,1.42,3.06.8,2.38,1.18,4.93,1.24,7.44,0,.32.01.64,0,.96.17-.12.34-.25.5-.39,0-.12,0-.25,0-.37-.01-1.21-.11-2.43-.28-3.63-.36-2.49-1.01-5.07-2.35-7.23-.09.02-.17.03-.26.06-.09.03-.19.07-.29.1Z"/>
  <path d="M161.98,134.23c-.02.25-.05.49-.07.74.02,0,.04-.02.05-.03.18-.1.34-.22.5-.33,0-.06,0-.12,0-.18.02-.33.04-.66.05-.99-.17.13-.34.26-.52.37,0,.14,0,.27-.02.41Z"/>
  <path d="M160.88,131.2c-.05-.31-.12-.62-.2-.92-.07-.25-.14-.53-.32-.73-.06-.07-.18.07-.18.13,0,.33.08.67.13,1,.05.34.09.69.13,1.03.08.78.1,1.56.08,2.35,0,.08-.01.15-.02.23.19-.1.37-.21.55-.32.02-.93-.04-1.86-.17-2.77Z"/>
  <path d="M161,134.98c.02-.19.02-.39.03-.58-.14.08-.28.17-.43.24-.04.02-.09.05-.14.07-.03.32-.06.65-.11.97.2-.08.39-.16.59-.24.02-.15.04-.31.06-.46Z"/>
  <path d="M160.25,136.38s0,.01,0,.02c-.07.34-.15.68-.25,1.01-.09.29-.19.55-.15.86.01.1.12.05.16,0,.43-.39.57-.95.71-1.5.05-.23.09-.46.13-.69-.2.1-.39.2-.59.29,0,0,0,0,0,0Z"/>
  <path d="M160.18,135.75c-.31.13-.62.24-.94.36-.17.06-.35.11-.52.19-.16.08-.3.25-.4.32-.08.06-.24.31-.04.33.02,0,.08.05.12.06.1.03.2,0,.3-.03.17-.05.35-.12.52-.19.34-.13.69-.26,1.02-.4.05-.23.07-.47.11-.7-.06.02-.12.05-.18.07Z"/>
  <path d="M164.87,131.91c.03-.14-.15-.04-.18.02-.34.65-.7,1.3-1.21,1.84-.3.32-.65.59-1.01.84,0,.17-.02.34-.03.52,1.09-.8,2.11-1.9,2.43-3.23Z"/>
  <path d="M160.94,135.44c-.03.22-.06.44-.09.66.35-.17.69-.36,1.01-.57.02-.18.03-.36.05-.55-.31.17-.64.32-.97.46Z"/>
  <path d="M161.91,134.97c-.02.18-.03.36-.05.55.12-.08.24-.14.36-.22.07-.05.14-.1.21-.16,0-.18.02-.35.03-.52-.16.11-.33.23-.5.33-.02,0-.04.02-.05.03Z"/>
  <path d="M160.36,135.68c-.03.24-.06.47-.11.7,0,0,0,0,0,0,.2-.09.4-.19.59-.29.04-.22.07-.44.09-.66-.19.08-.39.16-.59.24Z"/>
  <path d="M160.47,134.3c-.35.18-.7.35-1,.61-.07.06-.09.19.03.18.34-.04.66-.22.96-.38.01-.14.02-.29.03-.43,0,0-.02.01-.03.02Z"/>
  <path d="M161.03,134.39c.27-.15.54-.29.79-.45.06-.04.12-.08.18-.12,0-.15.02-.31.02-.46-.14.1-.29.2-.43.29-.18.11-.36.21-.54.31,0,.14-.01.29-.02.43Z"/>
  <path d="M162.94,133.1c.32-.29.71-.64.83-1.06.06-.21-.2-.13-.28-.05-.3.28-.54.62-.85.9-.04.03-.08.06-.12.09,0,.16,0,.31,0,.47.14-.11.29-.22.42-.35Z"/>
  <path d="M162,133.82c.18-.12.35-.24.52-.37,0-.16,0-.31,0-.47-.16.14-.33.26-.5.39,0,.15-.02.31-.02.46Z"/>
  <path d="M161.03,134.39c0-.14.02-.29.02-.43-.18.11-.37.22-.55.32,0,.14-.02.29-.03.43.05-.02.09-.05.14-.07.15-.08.29-.16.43-.24Z"/>
  <path d="M161.29,120.2c.27-.05.53-.09.8-.13.16-.03.46-.12.5-.32.07-.37-1.05-.07-1.22-.03-.84.16-1.67.41-2.47.71.1.11.21.22.3.34.69-.23,1.38-.43,2.1-.56Z"/>
  <path d="M158.67,120.95c-.1-.12-.2-.22-.31-.33-.06.02-.12.04-.17.06-.57.24-1.13.53-1.67.85-.48.29-1.03.6-1.37,1.06-.06.07-.02.15.08.12.49-.19.92-.56,1.37-.82.47-.27.96-.51,1.47-.72.19-.08.4-.14.59-.21Z"/>
  <path d="M159.2,120.76c-.09-.12-.2-.22-.3-.34-.18.06-.35.12-.53.19.1.11.21.22.31.33.17-.06.35-.13.52-.19Z"/>
  <path d="M159.9,121.75c.46-.09.95-.14,1.34-.42.04-.03.11-.12.06-.17-.16-.19-.52-.16-.74-.12-.3.05-.6.12-.88.22-.03.01-.06.03-.09.04.08.12.17.23.25.35.02.04.04.08.07.12Z"/>
  <path d="M159.09,121.5c-.35.19-.67.43-.9.76-.08.11.01.2.12.12.31-.22.68-.36,1.04-.48-.06-.1-.12-.2-.18-.29-.03-.04-.06-.07-.08-.11Z"/>
  <path d="M159.18,121.61c.06.09.12.19.18.29.1-.03.19-.07.29-.1.08-.02.17-.04.26-.06-.02-.04-.04-.08-.07-.12-.08-.12-.17-.23-.25-.35-.17.06-.33.13-.49.22.03.04.06.07.08.11Z"/>
  <path d="M142.89,113.21c.54-.1,1.08-.18,1.62-.28.56-.11,1.15-.22,1.7-.39.06-.02.19-.17.07-.19-.49-.08-1.06-.04-1.56,0-.55.05-1.09.15-1.64.25-.47.09-.94.2-1.41.31-.03.03-.06.06-.09.08-.19.18-.37.38-.55.57.08-.02.17-.04.25-.06.54-.11,1.08-.21,1.62-.31Z"/>
  <path d="M141.67,112.92c-.06.01-.12.02-.17.04-.52.13-1.08.26-1.55.52-.06.03-.23.24-.06.25.38.02.77-.08,1.14-.16.19-.19.36-.39.55-.57.03-.03.06-.06.09-.08Z"/>
  <path d="M140.45,115.51c.32-.03.64-.04.97-.07.34-.03.68-.11,1.02-.18.05,0,.19-.16.09-.18-.3-.07-.59-.14-.9-.14-.34,0-.67.04-1,.08-.33.04-.65.08-.98.14,0,0-.02,0-.03,0-.04.05-.08.1-.12.15-.09.12-.17.24-.25.36.07-.01.15-.03.22-.04.33-.05.66-.1.99-.13Z"/>
  <path d="M139.61,115.17c-.31.06-.66.13-.93.29-.07.04-.25.26-.07.28.2.02.42-.02.63-.06.09-.12.17-.24.25-.36.04-.05.08-.1.12-.15Z"/>
  <path d="M139.27,117.32c.73-.04,1.42-.14,2.11-.38.05-.02.19-.18.07-.19-.32-.02-.63-.05-.94-.06-.35-.01-.7,0-1.05.03-.34.02-.67.06-1,.1-.09.15-.19.29-.28.44,0,.01-.01.02-.02.03,0,0,0,.02-.02.03-.01.02-.03.05-.04.07.05,0,.1,0,.15-.01.34-.03.68-.05,1.02-.06Z"/>
  <path d="M138.16,117.3c-.06.1.06-.1,0,0,0,0,0-.02.02-.03.09-.15.18-.29.28-.44-.02,0-.05,0-.07,0-.33.05-.72.12-1,.33-.06.04-.17.19-.06.25.13.06.31.03.45.02.11,0,.22-.02.32-.03.01-.02.03-.05.04-.07,0-.02.01-.02.02-.03Z"/>
  <path d="M138.16,117.3c.06-.1-.06.1,0,0h0Z"/>
  <path d="M140.58,114.6c.25-.02.51-.05.76-.08.49-.05.98-.15,1.44-.32.03-.01.14-.14.06-.15-.2-.04-.4-.03-.59-.04-.23-.02-.47.02-.7.05-.25.03-.49.06-.74.09-.13.02-.25.04-.38.07,0,0,0,0-.01,0-.09.1-.18.21-.27.31-.01.02-.01.01-.02.02,0,0,0,0-.02.02,0,0,0,0-.01.01.14.06.37.03.49.02Z"/>
  <path d="M139.99,114.51s.03.02.05.04c0,0,0,0,0,0-.02-.01-.04-.02-.06-.04Z"/>
  <path d="M140.11,114.54c.06-.07-.07.08,0,0h0Z"/>
  <path d="M140.11,114.54c-.07.08.06-.07,0,0,0,0,0,0,.02-.02.09-.1.18-.21.27-.31-.05.01-.11.03-.16.05-.06.02-.12.06-.17.08-.07.02-.22.22-.08.22.01,0,.03,0,.05,0-.02-.01-.04-.02-.05-.04.02.01.04.02.06.04,0,0,0,0,0,0,.01.01.03.02.04.03,0,0,0,0,.01-.01.02-.02.01-.02.02-.02Z"/>
  <path d="M140.41,138.55c.08,0,.25-.15.17-.23-.1-.09-.22-.16-.34-.23-.13-.08-.25-.15-.39-.2-.29-.1-.6-.17-.9-.24-.29-.07-.57-.14-.86-.18-.09-.02-.19-.03-.28-.04.09.2.18.41.27.61.17.05.35.1.52.15.6.17,1.19.35,1.81.36Z"/>
  <path d="M137.65,137.41c-.16-.01-.32,0-.48-.02-.08,0-.21.14-.12.2.11.07.22.14.34.21.12.07.25.11.38.15.1.04.2.06.31.09-.09-.2-.18-.4-.27-.61-.05,0-.1-.02-.15-.02Z"/>
  <path d="M138.55,137.07c.28.01.56-.03.84-.08.08-.01.25-.2.13-.26-.46-.22-.94-.22-1.43-.28-.24-.03-.49-.07-.73-.11.06.16.12.33.18.5.02.04.04.08.05.12.06.01.12.02.19.03.26.04.52.07.78.08Z"/>
  <path d="M137.35,136.34c-.23-.04-.47-.08-.7-.12-.09-.02-.23.14-.16.23.27.34.69.45,1.1.51-.02-.04-.04-.08-.05-.12-.07-.16-.12-.33-.18-.5Z"/>
  <path d="M137.7,135.74c.19-.02.4-.06.56-.16.04-.02.15-.14.06-.17-.06-.02-.13-.02-.19-.04-.04-.01-.08-.03-.13-.04-.03,0-.07-.01-.1-.02-.18-.04-.35-.08-.53-.1-.16-.02-.31-.04-.47-.06.07.2.14.39.21.58,0,0,.01,0,.02,0,.18.03.37.02.55,0Z"/>
  <path d="M136.2,135.15c-.09.02-.25.19-.13.27.16.1.34.15.53.2.17.05.35.08.53.11-.07-.19-.15-.39-.21-.58-.24-.03-.48-.04-.71,0Z"/>
  <path d="M97.78,100.39c-.02.07-.05.14-.09.2.01.05.03.09.03.14.03.16.06.31.09.47.12.1.25.18.4.25.64.29,1.4.33,2.1.35.83.02,1.66-.03,2.48-.13.78-.1,1.56-.23,2.33-.39.73-.15,1.47-.26,2.2-.4,1.56-.3,3.12-.66,4.59-1.27.72-.3,1.42-.66,2.07-1.1.47-.32.94-.7,1.29-1.15,0-.02,0-.05,0-.07-.04-.25-.11-.5-.17-.75-.03-.13-.05-.27-.07-.4,0-.07-.02-.14-.03-.21,0-.06.02-.14.01-.2-.01-.08.14-.21.2-.12,0,.01.08.05.09.07.02.02.03.04.05.06.02.04.05.08.07.12.04-.03.08-.06.13-.08-.6-.86-2.64-1.01-3.54-1.01-.58,0-1.15.08-1.72.15-.94.13-1.88.28-2.81.46-.94.18-1.88.39-2.82.63-.92.23-1.86.45-2.74.79-.44.17-.87.37-1.28.61.15.01.03.21-.06.28.77-.01,1.54-.2,2.28-.4.84-.23,1.69-.45,2.55-.64,1.72-.39,3.45-.71,5.2-.93.84-.1,1.7-.08,2.53.05.39.06.78.15,1.14.32.16.07.25.12.37.24.12.12.14.14.19.28.02.06,0,0,0,.02,0,.04,0,.07,0,.11,0,0,0,.06,0,0h0s0,0,0,.03c0,.02,0,.03-.01.05,0,0,0,0,0,0,.04-.08,0,.02,0,0,0,0,0,0,0,0-.05.12-.15.26-.26.37-.43.45-.98.81-1.52,1.1-1.27.69-2.66,1.11-4.06,1.43-1.35.31-2.72.54-4.07.83-1.47.31-3.01.58-4.52.56-.75,0-2.56,0-2.5-1.14.04-.92,1.12-1.63,1.87-1.95.26-.11.54-.21.81-.32,0,0,.02-.02.03-.02-.03,0-.06,0-.09,0-.16,0,0-.2.06-.23.03-.02.06-.03.09-.05,0,0,0,0-.01,0-.61,0-1.18.3-1.68.62-.47.31-.9.7-1.21,1.17-.17.27-.32.57-.37.89.03,0,.05-.02.08-.03.23-.07.37.11.32.32Z"/>
  <path d="M114.82,96.82s.04-.08,0,0h0Z"/>
  <path d="M114.84,96.74h0c0,.06,0,0,0,0Z"/>
  <path d="M100.49,97.7s.06,0,.09,0c.09-.06.21-.26.06-.28-.03.02-.06.03-.09.05-.05.03-.22.23-.06.23Z"/>
  <path d="M115.45,95.92c.07.12.13.24.17.37.02.08.04.16.06.24.06-.29,0-.54-.14-.75-.05.02-.09.05-.13.08.01.02.02.04.03.06Z"/>
  <path d="M97.66,100.5s.02.06.02.09c.04-.06.08-.13.09-.2.05-.21-.1-.4-.32-.32-.03,0-.05.02-.08.03-.02.1-.02.2,0,.3.02,0,.04-.02.06-.01.1.02.18.02.23.12Z"/>
  <path d="M115.69,99.48c-.3.06-.31-.28-.32-.5-.14.12-.23.29-.25.48,0,.07-.1.22-.2.34-.19.23-.43.42-.67.59-.47.35-.98.64-1.51.89-1.12.53-2.32.87-3.53,1.15-1.16.27-2.34.44-3.5.7-1.24.28-2.5.5-3.76.62-.69.06-1.39.09-2.09.02-.45-.04-1.01-.11-1.37-.41-.06.09-.17.16-.26.14-.08-.02-.12-.01-.19-.07-.04-.03-.08-.07-.12-.11-.04-.04-.07-.09-.11-.13-.08.09-.12.2-.08.29.26.5.79.72,1.31.85.64.15,1.3.17,1.95.17,1.39,0,2.77-.21,4.13-.48,2.61-.51,5.3-.85,7.73-2.02.7-.34,1.37-.74,1.97-1.24.47-.4.93-.87,1.1-1.48-.06.09-.14.17-.24.19Z"/>
  <path d="M98.25,103.11c.06.11.15.18.23.25.03-.05.05-.1.03-.15-.02-.06-.02-.11-.07-.17-.03-.04-.07-.08-.1-.13-.05-.08-.09-.16-.13-.24-.1-.21-.18-.43-.24-.66-.07-.27-.13-.54-.18-.81,0,0,0,0,0,0-.14-.11-.26-.23-.34-.39-.07.05-.15.1-.23.12-.05.01-.09.03-.13.04,0,.04.02.09.02.13.03.17.06.33.09.5.06.28.12.56.2.84.07.23.16.46.3.66.02.04.06.07.08.1.13-.15.35-.25.44-.09Z"/>
  <path d="M97.47,100.82c-.05-.09-.08-.2-.1-.31,0-.04,0-.07,0-.11-.05.02-.1.05-.13.1-.06.1-.12.19-.14.31,0,.06,0,.11,0,.16.04-.01.09-.03.13-.04.08-.02.16-.07.23-.12Z"/>
  <path d="M97.68,100.6c-.06.09-.13.16-.21.22.08.16.2.28.34.39-.03-.16-.06-.31-.09-.47,0-.05-.02-.09-.03-.14Z"/>
  <path d="M97.47,100.82c.08-.06.16-.13.21-.22,0-.03,0-.07-.02-.09-.05-.1-.14-.1-.23-.12-.02,0-.04,0-.06.01,0,.04,0,.07,0,.11.02.11.05.21.1.31Z"/>
  <path d="M98.04,103.44c.07.05.11.05.19.07.09.02.2-.05.26-.14-.09-.07-.17-.15-.23-.25-.09-.16-.31-.06-.44.09.04.04.07.09.11.13.04.04.08.07.12.11Z"/>
  <path d="M115.44,97.12c-.05.08-.12.16-.18.24.03.24.04.49.05.73.02.28.05.56.06.84,0,.02,0,.04,0,.06.05-.05.12-.09.18-.12.15-.07.48-.08.45.18-.01.09-.05.17-.07.26.02-.03.05-.07.06-.1.09-.16.1-.34.09-.52-.02-.53-.06-1.09-.24-1.59-.06-.16-.1-.33-.14-.5-.01,0-.02,0-.03,0-.04.16-.11.33-.23.52Z"/>
  <path d="M115.67,96.6s.02,0,.03,0c0-.02-.01-.04-.02-.06,0,.02-.01.05-.02.07Z"/>
  <path d="M115.11,96.3c.04-.16.16-.33.31-.44-.02-.04-.05-.08-.07-.12-.01-.02-.03-.05-.05-.06-.02-.02-.08-.05-.09-.07-.06-.09-.21.04-.2.12,0,.06-.02.14-.01.2,0,.07.02.14.03.21.02.13.04.27.07.4.05.25.12.5.17.75,0,.02,0,.05,0,.07.06-.08.13-.16.18-.24.12-.19.18-.36.23-.52-.07.01-.15.03-.22.04-.24.05-.4-.09-.34-.34Z"/>
  <path d="M115.45,95.92s-.02-.04-.03-.06c-.15.11-.27.28-.31.44-.06.25.1.39.34.34.07-.01.15-.03.22-.04,0-.02.01-.05.02-.07-.02-.08-.04-.16-.06-.24-.04-.13-.1-.25-.17-.37Z"/>
  <path d="M115.56,98.86c-.07.03-.13.08-.18.12,0,.22.02.56.32.5.1-.02.18-.1.24-.19.02-.09.06-.17.07-.26.03-.26-.3-.25-.45-.18Z"/>
  <path d="M100.35,99.66c.59.42,1.5.32,2.18.24.84-.11,1.66-.32,2.48-.52,1.59-.38,3.22-.6,4.77-1.14.41-.14.81-.31,1.21-.5.35-.17.86-.39,1.04-.75.04-.09.04-.25-.09-.24-.17,0-.29.11-.43.2-.14.1-.29.19-.45.28-.32.18-.67.33-1.01.46-.74.27-1.51.47-2.27.64-.74.17-1.49.31-2.23.48-.78.18-1.55.4-2.33.54-.46.09-.92.14-1.38.16-.44.02-.87-.05-1.31-.05-.07,0-.24.15-.15.21Z"/>
  <path d="M172.56,101.16s0,0,0,0c-.03.04.04-.04,0,0Z"/>
  <path d="M172.36,101.37s-.01.01-.02.02c0,0,.04-.03.02-.02Z"/>
  <path d="M168.96,99.61c0-.06-.02-.13-.01-.19.01-.11-.15,0-.17.04-.02.04-.04.09-.07.13.02.01.03.03.05.04.06.03.13.01.19-.02Z"/>
  <path d="M169.55,97.91c.08-.06.16-.1.25-.14-.05,0-.1.02-.13.04-.05.03-.09.06-.12.1Z"/>
  <path d="M171.42,96.93c-.81-.14-1.65.03-2.27.59-.29.26-.51.6-.61.98-.05.19-.07.39-.05.58.02.22.05.39.22.5.02-.04.04-.09.07-.13.02-.03.18-.15.17-.04,0,.06,0,.13.01.19.13-.07.25-.22.28-.33.05-.19.04-.31.01-.5-.02-.13-.02-.27,0-.41.04-.17.11-.29.2-.38-.02.02-.03.03-.05.05-.02.02-.05.03-.07.04-.04.04.04-.05,0,.03-.04.06-.17.08-.13-.02.02-.05.02-.1.04-.16.02-.05.06-.1.09-.15.07-.09.15-.17.25-.24.16-.1.34-.16.52-.14.21.02.39.11.56.23.12,0,.23.02.34.04.77.13,1.5.55,1.82,1.29.14.32.19.64.17.99-.02.32-.1.61-.25.89-.01.02-.06.11-.04.08s-.04.06-.05.08c-.02.04-.05.07-.08.1-.01.01-.02.03-.03.04,0,0,0,0,0,0,0,0,0,0,0,0,.04-.04-.03.04,0,0-.05.06-.11.12-.17.17-.01.01-.02.02-.03.03.01,0-.02.02-.02.02,0,0,.01-.01.02-.02,0,0,0,0,0,0-.04.03-.08.06-.12.09-.1.07-.26.16-.38.2-.18.06-.36.1-.54.12-.61.04-1.2-.12-1.65-.54-.26-.25-.46-.49-.57-.84-.08-.25-.13-.52-.14-.79-.06.03-.13.05-.19.02-.02-.01-.04-.03-.05-.04-.16.31-.26.64-.24,1.01.03.36.2.72.4,1.02.38.58,1.11.86,1.77.89,1.02.06,1.99-.46,2.56-1.29.51-.75.71-1.72.41-2.58-.33-.97-1.23-1.53-2.2-1.69Z"/>
  <path d="M169.8,97.78s.1,0,.15,0c.29.05.54.29.72.5.54.61.9,1.44,1.08,2.23.04.19.07.39.07.58,0,.13-.01.35.09.45.04.04.11,0,.14-.04.32-.29.24-.8.16-1.17-.09-.45-.26-.9-.46-1.31-.2-.4-.45-.79-.76-1.11-.09-.1-.2-.19-.31-.27-.3-.02-.61.02-.88.13Z"/>
  <path d="M169.55,97.91s-.01,0-.02.01c-.02.02-.04.05-.07.07.01-.02.03-.03.04-.04.02-.02.03-.03.04-.04Z"/>
  <path d="M169.55,97.91s.07-.06.12-.1c.03-.02.08-.03.13-.04.27-.12.58-.15.88-.13-.17-.12-.36-.22-.56-.23-.19-.02-.37.04-.52.14-.1.06-.18.14-.25.24-.03.05-.07.1-.09.15-.02.05-.02.11-.04.16-.05.1.08.08.13.02.05-.07-.03,0,0-.03.02-.02.05-.03.07-.04.02-.01.03-.03.05-.05.02-.02.04-.05.07-.07,0,0,.01,0,.02-.01Z"/>
  <path d="M135.81,102.55c-1.18.19-2.36.43-3.53.69-1.18.26-2.35.56-3.48.97-.62.23-1.23.47-1.83.73-.65.29-1.24.63-1.83,1.02-.11.07-.14.3.04.22.53-.25,1.09-.47,1.63-.71.54-.23,1.08-.44,1.64-.62,1.11-.36,2.23-.67,3.37-.92,2.28-.5,4.6-.75,6.9-1.09,1.36-.21,2.72-.53,4.02-.96.06-.02.23-.24.08-.23-2.35.18-4.68.52-7.02.9Z"/>
  <path d="M70.35,38.85c.5-1.29,1.09-2.56,1.75-3.78.73-1.34,1.57-2.64,2.52-3.88.93-1.22,1.87-2.29,3-3.39,2.14-2.09,4.62-3.89,7.3-5.26,2.69-1.38,5.56-2.34,8.54-2.82,2.99-.49,6.1-.46,9.08.09,3.16.59,6.18,1.77,9.01,3.29,2.77,1.49,5.35,3.33,7.72,5.39,2.44,2.12,4.68,4.47,6.77,6.94,2.11,2.51,4.06,5.14,5.9,7.85,1.83,2.68,3.57,5.43,5.26,8.21,1.64,2.69,3.24,5.41,4.87,8.11,1.95,3.23,3.9,6.46,5.98,9.61,2.06,3.13,4.24,6.19,6.62,9.1,2.39,2.92,4.98,5.69,7.8,8.2.97.86,1.98,1.67,3.01,2.46.26.02.52.04.78.06.46.03.9.07,1.34.15.04-.13.04-.26-.07-.34-.7-.53-1.42-1.03-2.11-1.58-.75-.6-1.49-1.23-2.21-1.87-1.43-1.27-2.8-2.6-4.1-3.99-2.59-2.75-4.95-5.71-7.15-8.78-2.21-3.08-4.27-6.27-6.25-9.49-1.8-2.92-3.55-5.87-5.31-8.81-1.67-2.8-3.36-5.58-5.12-8.32-1.79-2.78-3.65-5.51-5.65-8.15-1.99-2.62-4.11-5.14-6.43-7.47-2.26-2.28-4.71-4.37-7.37-6.17-2.67-1.8-5.55-3.33-8.59-4.39-3.01-1.04-6.2-1.56-9.39-1.51-3.08.05-6.16.61-9.07,1.63-2.95,1.04-5.74,2.52-8.26,4.37-2.56,1.89-4.85,4.15-6.76,6.69-2.09,2.77-3.7,5.87-4.85,9.15-.38,1.1-.7,2.22-.97,3.36.65-1.5,1.4-2.96,2.24-4.37.05-.09.12-.18.17-.27Z"/>
  <path d="M87.74,105.33s0-.06,0-.08c-.09-.26-.17-.52-.27-.78-.64-1.79-1.38-3.53-2.21-5.24-.82-1.71-1.71-3.38-2.62-5.04-.92-1.68-1.82-3.36-2.73-5.04-1.79-3.3-3.45-6.69-4.99-10.12-1.58-3.52-3.02-7.12-4.18-10.8-1.16-3.67-2.04-7.43-2.45-11.26-.41-3.78-.42-7.6.2-11.35.18-1.05.4-2.09.68-3.11-.13.27-.27.54-.39.81-.63,1.42-1.16,2.88-1.58,4.38-.15,1.28-.24,2.57-.26,3.86-.07,3.85.42,7.68,1.27,11.43.86,3.81,2.04,7.52,3.47,11.16.71,1.81,1.49,3.59,2.3,5.36.8,1.73,1.67,3.43,2.49,5.15.81,1.71,1.7,3.39,2.61,5.06.91,1.67,1.89,3.31,2.8,4.99,1.83,3.33,3.63,6.73,4.96,10.3.32.86.61,1.73.87,2.61.14.47.29.93.45,1.39-.13-1.1-.23-2.21-.28-3.32-.02-.07-.05-.14-.07-.21-.03-.02-.06-.05-.07-.1Z"/>
  <path d="M167.34,89.59s.08-.08.12-.15c-.39.06-.77.1-1.16.14.09.07.18.14.26.2.25.19.59,0,.78-.19Z"/>
  <path d="M88.54,110.14c.04.15.3-.06.29-.17-.11-.95-.23-1.91-.49-2.83-.14-.5-.29-1-.45-1.49.06,1.11.16,2.22.28,3.32.13.39.26.78.38,1.17Z"/>
  <path d="M165.48,88.95c.27.21.54.42.82.63.39-.04.77-.08,1.16-.14.02-.03.04-.06.06-.1,0-.04.02-.08.06-.11.01-.03.02-.06.03-.09-.45-.08-.89-.11-1.34-.15-.26-.02-.52-.04-.78-.06Z"/>
  <path d="M87.81,105.43c-.02-.06-.04-.12-.06-.19,0,.03,0,.06,0,.08,0,.06.03.09.07.1Z"/>
  <path d="M167.52,89.35s.04-.07.06-.11c-.04.03-.06.07-.06.11Z"/>
  <path d="M79.91,29.04c2.34-1.75,4.93-3.17,7.69-4.12,2.81-.96,5.77-1.46,8.74-1.39,3.24.07,6.37.73,9.42,1.83,3.1,1.12,6.05,2.65,8.79,4.49,2.73,1.84,5.25,3.97,7.57,6.29,2.35,2.34,4.5,4.87,6.5,7.51,1.99,2.62,3.83,5.35,5.57,8.15,1.84,2.96,3.58,5.98,5.35,8.98,1.85,3.12,3.72,6.24,5.71,9.27,1.96,2.98,4.05,5.89,6.35,8.63,2.36,2.81,4.93,5.44,7.75,7.79.69.58,1.4,1.15,2.12,1.69.36.27.73.53,1.1.8.67-.03,1.34-.03,2.02-.03-.01-.03-.01-.06-.04-.08-.73-.58-1.5-1.1-2.24-1.65-.77-.58-1.52-1.19-2.26-1.81-1.41-1.19-2.77-2.45-4.06-3.77-2.54-2.59-4.85-5.4-6.99-8.34-2.13-2.94-4.09-6-5.98-9.1-1.91-3.13-3.74-6.3-5.62-9.46-1.7-2.86-3.44-5.69-5.33-8.43-1.9-2.75-3.93-5.42-6.14-7.93-2.2-2.5-4.57-4.84-7.16-6.93-2.58-2.09-5.37-3.92-8.35-5.39-3-1.48-6.21-2.61-9.51-3.15-3.07-.51-6.2-.45-9.26.13-2.94.56-5.79,1.62-8.4,3.08-2.69,1.5-5.14,3.39-7.31,5.56-2.15,2.16-4,4.59-5.58,7.19-.46,1.19-.85,2.4-1.18,3.64,1.2-2.54,2.65-4.95,4.37-7.17,1.83-2.36,3.97-4.49,6.36-6.28Z"/>
  <path d="M88.61,112.46c-.52-1.53-1.09-3.05-1.69-4.55-1.49-3.7-3.21-7.3-5-10.86-1.74-3.46-3.57-6.88-5.36-10.32-1.82-3.48-3.7-6.91-5.34-10.47-1.6-3.48-3-7.06-3.96-10.77-.93-3.63-1.4-7.38-1.19-11.12.13-2.27.52-4.52,1.14-6.7.16-1.41.41-2.81.74-4.19-.75,1.72-1.37,3.49-1.83,5.31-.94,3.73-1.17,7.62-.76,11.44.41,3.78,1.4,7.47,2.71,11.03,1.36,3.68,3.05,7.23,4.84,10.72,1.78,3.46,3.64,6.89,5.45,10.34,1.85,3.54,3.68,7.1,5.36,10.72,1.67,3.6,3.19,7.26,4.47,11.02.4,1.18.77,2.38,1.12,3.58-.07-.49-.14-.98-.21-1.48-.17-1.24-.33-2.48-.49-3.72Z"/>
  <path d="M163.83,89.82s0,0,0,0c0,0,0,0,0,0Z"/>
  <path d="M90.14,119.36c.13-.09.22-.24.2-.4-.41-2.21-1.01-4.37-1.73-6.5.16,1.24.32,2.48.49,3.72.07.49.14.98.21,1.48.16.56.33,1.13.49,1.69.04.15.26.07.35,0Z"/>
  <path d="M164.59,88.92c-.67,0-1.34,0-2.02.03.36.26.72.52,1.07.8.06.05.12.07.18.07,0,0,0,0,0,0,.19.01.41-.12.54-.25.12-.12.33-.45.22-.65Z"/>
  <path d="M68.79,43.3c.12-.27.26-.54.39-.81.33-1.23.71-2.45,1.18-3.64-.06.09-.12.18-.17.27-.83,1.41-1.59,2.87-2.24,4.37-.33,1.38-.57,2.78-.74,4.19.42-1.49.95-2.95,1.58-4.38Z"/>
</svg>