<?xml version="1.0" encoding="UTF-8"?>
<svg id="Layer_1" data-name="Layer 1" xmlns="http://www.w3.org/2000/svg" viewBox="0 0 251 205">
  <defs>
    <style>
      .cls-1 {
        fill: #231f20;
      }

      .cls-2 {
        fill: #fff;
      }
    </style>
  </defs>
  <path class="cls-2" d="M222.27,136.79c-3.72-5.96-7.62-11.79-11.64-17.55-3.95-5.67-8.02-11.27-12.19-16.79-3.53-4.68-7.14-9.31-10.87-13.83-5.12-6.21-10.55-12.18-16.5-17.59-5.93-5.39-12.39-10.24-19.45-14.05-7.17-3.86-14.96-6.65-23.03-7.81-3.98-.57-8.03-.71-12.04-.4-3.43.27-6.86.73-10.24,1.34-6.1,1.1-12.08,2.9-17.56,5.86-3.4,1.84-6.53,4.09-9.45,6.6,3.28-2.03,6.79-3.71,10.46-4.88,3.78-1.2,7.73-1.85,11.7-1.91,4.15-.07,8.33.46,12.32,1.63,3.76,1.1,7.35,2.77,10.67,4.85,3.37,2.11,6.47,4.64,9.33,7.39,2.98,2.85,5.71,5.95,8.3,9.15,3.01,3.72,5.85,7.58,8.57,11.52,2.83,4.1,5.51,8.31,8.07,12.58,2.57,4.29,5.03,8.66,7.39,13.07,2.36,4.41,4.63,8.87,6.84,13.36,2.23,4.52,4.39,9.08,6.52,13.65,2.05,4.39,4.07,8.8,6.08,13.2.09-.05.19-.09.31-.09,3.5-.05,7-.09,10.51-.14,6.24-.08,12.49-.16,18.73-.24,5.87-.08,11.75-.15,17.62-.23-.4-.84-.79-1.67-1.21-2.5-2.8-5.55-5.97-10.92-9.26-16.2ZM165.77,73.15c-1.83-1.9-3.76-3.69-5.79-5.38-3.52-2.93-7.33-5.52-11.35-7.71-4.01-2.19-8.22-3.98-12.58-5.33-.8-.25-.46-1.51.35-1.26,2.5.78,4.96,1.69,7.36,2.74,4.27,1.87,8.36,4.17,12.18,6.84,3.87,2.7,7.48,5.78,10.76,9.18.58.6-.34,1.53-.92.92ZM168.62,75.93c-.62-.57.3-1.49.92-.92,2.98,2.72,5.77,5.66,8.34,8.77.53.64-.39,1.57-.92.92-2.57-3.12-5.35-6.05-8.34-8.77ZM197.68,119.34c-.1.14-.26.24-.49.25-1.67.04-3.33.09-5,.14-5.51.17-11.01.48-16.49,1.03-.1,0-.19-.01-.27-.05-.27.12-.59.07-.75-.27-2.15-4.49-3.41-9.36-3.73-14.33-.13-2.08-.13-4.19.17-6.26.25-1.74.78-3.51,1.94-4.87,1.29-1.52,3.26-2.07,5.19-1.76,2.05.33,3.78,1.61,5.2,3.07,1.51,1.56,2.84,3.33,4.1,5.1,1.28,1.8,2.45,3.68,3.57,5.58,2.26,3.85,4.32,7.82,6.65,11.63.01.02.01.05.03.07,0,0,0,0,0,0,.12.25.06.49-.1.66ZM219.42,142.13c-3.64-5.75-7.29-11.5-10.93-17.26-.45-.71.68-1.36,1.13-.66,3.64,5.75,7.29,11.5,10.93,17.26.45.71-.68,1.36-1.13.66ZM225.45,150.6c-.32.19-.69.06-.89-.23-1.15-1.66-2.3-3.32-3.45-4.99-.2-.29-.05-.72.23-.89.32-.19.69-.06.89.23,1.15,1.66,2.3,3.32,3.45,4.99.2.29.05.72-.23.89Z"/>
  <path class="cls-2" d="M129.72,151.14c-.15-5.93-.7-11.85-1.65-17.7-.95-5.85-2.28-11.63-3.99-17.3-1.5-4.95-3.19-9.91-5.69-14.45-2.24-4.06-5.23-7.84-9.38-10.06-2.1-1.12-4.43-1.84-6.8-2.01-.77-.06-1.54-.05-2.31,0-.52,2.93-1.02,5.86-1.51,8.8-1.13,6.87-2.17,13.76-3.15,20.66.21.1.4.25.46.48.05.19.02.42,0,.62-.01.37-.02.74-.04,1.11-.03.79-.03,1.58-.08,2.37-.04.68-.18,1.42-.7,1.91-.18.17-.38.29-.6.38-.03.24-.07.48-.1.72-1.29,9.52-2.48,19.05-3.66,28.58,4.27.02,8.55.04,12.82.07,5.61.04,11.23.09,16.84.15,3.2.03,6.4.07,9.6.11,0-.03-.02-.06-.02-.09,0-1.44,0-2.88-.04-4.32Z"/>
  <path class="cls-2" d="M92.99,125.81c-.27-.18-.45-.44-.56-.73-.18-.17-.23-.4-.19-.64.01-.09.03-.18.04-.26.01-.48.12-.96.24-1.42l.15-.89c.13-.75.18-1.59.64-2.22.16-.21.36-.39.6-.52.4-2.84.81-5.67,1.24-8.51,1.05-6.97,2.17-13.93,3.39-20.87-1.03.14-2.05.35-3.05.65-4.63,1.36-8.77,4.12-12.37,7.26-3.75,3.27-7.03,7.05-9.9,11.1-3.35,4.73-6.19,9.79-8.87,14.92-2.71,5.17-5.35,10.37-7.77,15.68-2.35,5.15-4.45,10.42-6.1,15.84.88,0,1.75-.01,2.63-.01,5.52-.02,11.03-.02,16.55-.02,5.58,0,11.17.02,16.75.04.93,0,1.87.01,2.8.02.66-5.38,1.33-10.76,2.02-16.14.57-4.42,1.15-8.85,1.75-13.26Z"/>
  <path class="cls-2" d="M57.3,134.76c2.58-5.35,5.27-10.66,8.13-15.87,2.78-5.05,5.82-9.98,9.44-14.48,3.13-3.89,6.69-7.47,10.74-10.4,3.89-2.82,8.35-5.05,13.17-5.61.35-1.94.7-3.89,1.06-5.83-2.26.25-4.45.97-6.48,1.99-5.24,2.63-9.59,6.86-13.64,11.02-4.06,4.17-7.82,8.63-11.27,13.32-3.49,4.74-6.69,9.69-9.61,14.8-2.95,5.16-5.62,10.47-8.04,15.9-2.28,5.12-4.33,10.34-6.19,15.63,1.5,0,3-.02,4.51-.02.39-1.3.8-2.6,1.24-3.89,1.94-5.67,4.35-11.17,6.94-16.56Z"/>
  <path class="cls-2" d="M180.48,106.84c-1.69-4.01-3.21-8.08-4.61-12.21-1.05.34-1.91,1.1-2.48,2.14-.79,1.44-1.05,3.16-1.15,4.78-.13,2.08-.07,4.17.15,6.24.43,4.03,1.54,8,3.26,11.67.01,0,.03,0,.04-.01,1.66-.17,3.32-.32,4.98-.45,1.52-.12,3.03-.21,4.55-.29-.44-1.43-.94-2.84-1.49-4.23-1.01-2.54-2.18-5.07-3.27-7.64Z"/>
  <path class="cls-2" d="M175.32,137.2c-2.14-4.5-4.33-8.98-6.6-13.43-2.26-4.43-4.59-8.82-7.02-13.15-2.42-4.31-4.95-8.57-7.6-12.74-2.64-4.16-5.42-8.24-8.34-12.2-2.6-3.52-5.3-6.97-8.21-10.24-2.67-3-5.52-5.84-8.63-8.38-2.98-2.43-6.23-4.56-9.71-6.21-3.54-1.68-7.33-2.81-11.2-3.37-4-.58-8.14-.55-12.14.1-3.77.61-7.45,1.78-10.9,3.4-3.48,1.63-6.74,3.7-9.78,6.04-.8.61-1.58,1.24-2.34,1.89,0,.01-.02.02-.03.03-.01.01-.03.02-.04.03-2.22,1.87-4.32,3.88-6.33,5.97-2.8,2.91-5.43,5.99-7.95,9.15-2.5,3.14-4.89,6.36-7.25,9.61-2.65,3.66-5.27,7.35-7.84,11.08-2.74,3.97-5.4,7.99-7.94,12.09-2.54,4.1-4.95,8.27-7.17,12.55-2.21,4.26-4.24,8.63-5.99,13.1-1.66,4.23-3.07,8.56-4.2,12.97.41,0,.83-.01,1.24-.02-.02-.09-.02-.18,0-.28.39-2.04.88-4.06,1.45-6.06,2.34-8.2,6.07-15.95,10.36-23.3,4.44-7.6,9.44-14.89,14.68-21.95,5.33-7.19,10.96-14.16,16.81-20.92,5.24-6.05,10.8-11.94,17.38-16.56,6.37-4.47,13.75-7.54,21.62-7.72,7.83-.17,15.61,2.43,21.9,7.06,3.35,2.47,6.44,5.33,9.34,8.32,2.98,3.06,5.75,6.32,8.36,9.7,5.45,7.05,10.22,14.58,14.57,22.35,4.53,8.11,9.19,16.15,13.24,24.51,4.06,8.37,7.74,16.93,11.06,25.62,0,.02,0,.05,0,.07,1.37.02,2.73.05,4.1.07-.85-1.87-1.71-3.73-2.57-5.6-2.09-4.54-4.19-9.07-6.33-13.57Z"/>
  <path class="cls-2" d="M186.11,101.63c-1.18-1.64-2.44-3.28-3.88-4.7-1.34-1.32-3-2.44-4.94-2.49-.04,0-.07,0-.11,0,.86,2.52,1.75,5.03,2.72,7.52,1.17,3.02,2.46,5.98,3.75,8.94,1.09,2.51,2.11,5.05,2.92,7.67,0,.03,0,.05,0,.08,3.17-.15,6.33-.25,9.5-.34-2.25-3.77-4.28-7.66-6.54-11.43-1.07-1.79-2.2-3.56-3.42-5.25Z"/>
  <path class="cls-2" d="M164.95,125.36c-2.12-4.07-4.36-8.08-6.6-12.08-2.23-3.98-4.42-7.99-6.76-11.91-4.43-7.46-9.36-14.68-14.99-21.29-2.7-3.17-5.57-6.19-8.64-8.99-2.96-2.69-6.08-5.21-9.62-7.1-6.73-3.58-14.63-4.9-22.13-3.45-7.62,1.48-14.42,5.66-20.25,10.64-6.16,5.27-11.46,11.47-16.64,17.67-5.7,6.83-11.18,13.85-16.32,21.12-4.97,7.04-9.73,14.28-13.74,21.92-3.9,7.43-7.04,15.29-8.65,23.55.14,0,.28,0,.42,0,5.26-.07,10.53-.13,15.79-.17,2.14-.02,4.27-.02,6.41-.04.41-1.17.83-2.35,1.26-3.52,2.11-5.71,4.45-11.34,7.06-16.84,2.58-5.44,5.42-10.75,8.56-15.89,3.12-5.11,6.54-10.05,10.27-14.74,3.68-4.63,7.66-9.01,11.96-13.07,4.27-4.03,9.14-8.03,14.96-9.48,2.9-.72,5.92-.69,8.82.07,2.96.78,5.7,2.24,8.11,4.11,4.91,3.8,8.38,9.16,11.16,14.63,2.83,5.58,4.97,11.49,6.6,17.53,1.66,6.14,2.82,12.4,3.73,18.69.91,6.29,1.57,12.6,2.21,18.92,5.15.07,10.3.13,15.44.21,5.4.08,10.8.16,16.2.25,3.05.05,6.11.11,9.16.16-.75-1.96-1.52-3.92-2.31-5.87-3.45-8.51-7.23-16.91-11.48-25.05Z"/>
  <path class="cls-2" d="M133.75,132.5c-1.02-6.13-2.34-12.22-4.19-18.15-1.83-5.85-4.19-11.55-7.29-16.84-3.02-5.16-6.94-10.03-12.33-12.85-2.59-1.36-5.48-2.19-8.42-2.18-.11,0-.23,0-.34.01-.36,1.94-.71,3.88-1.06,5.82,4.43-.18,8.77,1.28,12.28,4.01,3.85,2.99,6.53,7.25,8.56,11.62,2.34,5.02,4.02,10.37,5.46,15.71,1.57,5.83,2.74,11.76,3.52,17.75.78,5.99,1.15,12.03,1.11,18.08,0,.04-.02.07-.02.11,1.86.02,3.72.04,5.58.06-.15-1.5-.31-2.99-.46-4.49-.66-6.23-1.38-12.46-2.41-18.65Z"/>
  <path class="cls-1" d="M233.21,156.45c-.15-.33-.31-.64-.47-.97-5.87.08-11.75.15-17.62.23-6.24.08-12.49.16-18.73.24-3.5.05-7,.09-10.51.14-.13,0-.23.04-.31.09.08.18.16.35.24.53.09.19.09.39.03.57,0,.02-.01.03-.02.04,0,.02-.02.04-.03.06.03,0,.05.02.09.02,6.22-.08,12.43-.16,18.65-.24,6.24-.08,12.49-.16,18.73-.24,3.5-.05,7-.09,10.51-.14.02,0,.04-.01.06-.01-.25.02-.51-.08-.62-.31Z"/>
  <path class="cls-1" d="M234.25,156.55s-.04.04-.06.06c.02-.02.04-.03.06-.06Z"/>
  <path class="cls-1" d="M234.07,156.7s-.09.03-.13.04c.05-.01.09-.02.13-.04Z"/>
  <path class="cls-1" d="M234.35,155.87s0,.03.01.04c0-.01,0-.03-.01-.04Z"/>
  <path class="cls-1" d="M234.25,156.55c.16-.18.19-.42.12-.65.06.22.03.47-.12.65Z"/>
  <path class="cls-1" d="M79.31,62.57c2.91-2.51,6.05-4.76,9.45-6.6,5.47-2.96,11.45-4.75,17.56-5.86,3.38-.61,6.82-1.07,10.24-1.34,4.01-.32,8.06-.17,12.04.4,8.07,1.16,15.86,3.95,23.03,7.81,7.06,3.81,13.53,8.66,19.45,14.05,5.95,5.42,11.39,11.39,16.5,17.59,3.73,4.52,7.33,9.15,10.87,13.83,4.17,5.52,8.23,11.11,12.19,16.79,4.01,5.76,7.92,11.6,11.64,17.55,3.29,5.28,6.46,10.64,9.26,16.2.42.83.81,1.66,1.21,2.5.34,0,.69,0,1.03-.01.31,0,.5.17.58.39,0-.02,0-.05-.02-.07-2.5-5.43-5.46-10.64-8.54-15.75-3.59-5.96-7.4-11.79-11.32-17.53-3.98-5.83-8.08-11.57-12.29-17.24-3.73-5.03-7.55-10-11.48-14.87-4.71-5.84-9.63-11.52-14.99-16.78-5.74-5.64-11.98-10.81-18.81-15.08-6.99-4.37-14.66-7.77-22.7-9.64-3.96-.92-8.02-1.47-12.09-1.58-3.84-.1-7.65.29-11.45.8-6.36.85-12.65,2.23-18.55,4.78-6.08,2.62-11.52,6.48-16.29,11.05-1.36,1.3-2.67,2.66-3.93,4.06,0,0,0,0,0,0,2.34-1.98,4.8-3.82,7.4-5.43.01,0,.02-.01.04-.02Z"/>
  <path class="cls-1" d="M233.94,156.74s-.07.02-.11.02c.04,0,.07-.01.11-.02Z"/>
  <path class="cls-1" d="M234.1,156.69s.06-.05.09-.08c-.04.03-.07.06-.12.09,0,0,.02,0,.03,0Z"/>
  <path class="cls-1" d="M72.83,68.9s-.05.04-.07.06c.01-.01.03-.02.04-.03,0-.01.02-.02.03-.03Z"/>
  <path class="cls-1" d="M234.36,155.91s0-.03-.01-.04c-.08-.22-.27-.4-.58-.39-.34,0-.69,0-1.03.01.15.32.32.64.47.97.11.23.37.33.62.31.04,0,.08-.01.11-.02.05-.01.09-.02.13-.04.04-.02.08-.06.12-.09.02-.02.04-.04.06-.06.14-.18.18-.43.12-.65Z"/>
  <path class="cls-1" d="M196.63,119.26c-.19-.31-.37-.63-.56-.95-3.17.09-6.34.19-9.5.34.13.74-1.03,1.03-1.27.26-.02-.07-.05-.13-.07-.2-1.52.08-3.04.18-4.55.29-1.66.13-3.32.28-4.98.45-.01,0-.03,0-.04.01.05.1.09.21.14.31.2.41-.05.79-.37.93.08.04.18.06.27.05,5.49-.55,10.98-.86,16.49-1.03,1.67-.05,3.33-.1,5-.14.22,0,.38-.11.49-.25-.27.28-.79.36-1.05-.08Z"/>
  <path class="cls-1" d="M197.78,118.67s0,0,0,0c0,0,0,0,0,0Z"/>
  <path class="cls-1" d="M197.68,119.34c.16-.17.22-.4.1-.66.07.22.04.47-.1.66Z"/>
  <path class="cls-1" d="M175.05,120.1c0-.36.28-.59.61-.64-1.72-3.67-2.83-7.64-3.26-11.67-.22-2.07-.28-4.16-.15-6.24.1-1.62.36-3.34,1.15-4.78.57-1.04,1.42-1.79,2.48-2.14-.02-.07-.05-.14-.07-.21-.27-.8.99-1.14,1.26-.35.04.12.08.23.12.35.04,0,.07,0,.11,0,1.94.05,3.61,1.18,4.94,2.49,1.44,1.42,2.7,3.06,3.88,4.7,1.22,1.7,2.35,3.46,3.42,5.25,2.25,3.77,4.29,7.66,6.54,11.43.37-.01.75-.02,1.12-.03.31,0,.51.17.59.39-.01-.02-.01-.05-.03-.07-2.33-3.81-4.39-7.78-6.65-11.63-1.12-1.91-2.29-3.78-3.57-5.58-1.25-1.77-2.59-3.54-4.1-5.1-1.41-1.46-3.15-2.74-5.2-3.07-1.93-.31-3.9.23-5.19,1.76-1.15,1.36-1.69,3.13-1.94,4.87-.3,2.06-.3,4.18-.17,6.26.31,4.97,1.57,9.84,3.73,14.33.16.34.48.39.75.27-.22-.11-.38-.36-.38-.6Z"/>
  <path class="cls-1" d="M175.8,119.78c-.05-.1-.09-.21-.14-.31-.33.05-.61.28-.61.64,0,.24.16.49.38.6.32-.14.57-.52.37-.93Z"/>
  <path class="cls-1" d="M197.78,118.68s0,0,0,0c-.08-.23-.27-.4-.59-.39-.37,0-.75.02-1.12.03.19.32.37.64.56.95.27.43.78.36,1.05.08.14-.19.18-.44.1-.66Z"/>
  <path class="cls-1" d="M183.64,110.89c-1.29-2.97-2.58-5.93-3.75-8.94-.96-2.49-1.86-5-2.72-7.52-.46,0-.9.07-1.31.2,1.4,4.12,2.91,8.2,4.61,12.21,1.09,2.57,2.26,5.1,3.27,7.64.55,1.39,1.05,2.8,1.49,4.23.44-.02.89-.04,1.33-.06,0-.03,0-.05,0-.08-.81-2.62-1.83-5.16-2.92-7.67Z"/>
  <path class="cls-1" d="M185.3,118.91c.24.77,1.4.48,1.27-.26-.44.02-.89.04-1.33.06.02.07.05.13.07.2Z"/>
  <path class="cls-1" d="M177.05,94.08c-.27-.79-1.53-.45-1.26.35.02.07.05.14.07.21.41-.13.84-.21,1.31-.2-.04-.12-.08-.23-.12-.35Z"/>
  <path class="cls-1" d="M209.61,124.22c-.45-.71-1.58-.05-1.13.66,3.64,5.75,7.29,11.5,10.93,17.26.45.71,1.58.05,1.13-.66-3.64-5.75-7.29-11.5-10.93-17.26Z"/>
  <path class="cls-1" d="M222.24,144.72c-.2-.29-.57-.42-.89-.23-.29.17-.44.6-.23.89,1.15,1.66,2.3,3.32,3.45,4.99.2.29.57.42.89.23.29-.17.44-.6.23-.89-1.15-1.66-2.3-3.32-3.45-4.99Z"/>
  <path class="cls-1" d="M155.93,63.05c-3.82-2.67-7.9-4.97-12.18-6.84-2.4-1.05-4.86-1.97-7.36-2.74-.8-.25-1.15,1.01-.35,1.26,4.36,1.35,8.57,3.14,12.58,5.33,4.02,2.2,7.83,4.78,11.35,7.71,2.03,1.69,3.96,3.49,5.79,5.38.58.6,1.51-.32.92-.92-3.28-3.4-6.89-6.47-10.76-9.18Z"/>
  <path class="cls-1" d="M177.88,83.79c-2.57-3.12-5.35-6.05-8.34-8.77-.62-.56-1.54.35-.92.92,2.98,2.72,5.77,5.66,8.34,8.77.53.65,1.45-.28.92-.92Z"/>
  <path class="cls-1" d="M185.74,157.45c-.04.05-.09.1-.16.14.06-.04.12-.09.16-.14Z"/>
  <path class="cls-1" d="M185.57,157.61c-.06.03-.12.05-.19.06.07-.01.14-.03.19-.06Z"/>
  <path class="cls-1" d="M43,155.87c.07-.21.15-.42.23-.63-2.14.01-4.27.02-6.41.04-5.26.04-10.53.1-15.79.17-.14,0-.28,0-.42,0,0,.03-.01.05-.02.08-.14.72-1.12.54-1.26-.06-.41,0-.83.01-1.24.02-.07.28-.15.56-.22.84-.15.6-.87.57-1.16.18.1.17.27.3.53.3,5.22-.08,10.45-.14,15.67-.19,3.43-.03,6.87-.05,10.3-.07-.2-.13-.32-.37-.22-.67Z"/>
  <path class="cls-1" d="M184.68,157.37c-.15-.33-.31-.67-.46-1-1.37-.02-2.73-.05-4.1-.07.07.31-.17.65-.46.73-.36.1-.68-.13-.8-.46-.04-.1-.08-.2-.12-.3-3.05-.05-6.11-.11-9.16-.16-5.4-.09-10.8-.17-16.2-.25-5.15-.08-10.3-.14-15.44-.21,0,.03,0,.06,0,.09.04.35-.33.65-.65.65-.38,0-.62-.3-.65-.65,0-.04,0-.07-.01-.11-1.86-.02-3.72-.04-5.58-.06-.11.69-1.17.68-1.26-.01-3.2-.04-6.4-.08-9.6-.11-5.61-.06-11.23-.11-16.84-.15-4.27-.03-8.55-.05-12.82-.07,0,.02,0,.05,0,.07-.04.35-.26.65-.65.65-.32,0-.69-.3-.65-.65,0-.03,0-.05,0-.08-.93,0-1.87-.01-2.8-.02-5.58-.02-11.17-.04-16.75-.04-5.52,0-11.03,0-16.55.02-.88,0-1.75.01-2.63.01-.06.21-.13.42-.19.63-.24.8-1.5.46-1.26-.35.03-.09.06-.18.08-.28-1.5,0-3,.02-4.51.02-.12.33-.24.66-.35.99-.05.15-.15.25-.25.32,1.7,0,3.41-.03,5.11-.03,5.49-.02,10.98-.04,16.48-.04,5.57,0,11.14,0,16.71.03,5.61.02,11.23.05,16.84.09,5.64.04,11.29.08,16.93.14,5.58.05,11.17.11,16.75.18,5.52.07,11.03.14,16.55.22,5.43.08,10.86.16,16.3.25,5.26.08,10.53.17,15.79.27,1.26.02,2.52.05,3.78.07.02,0,.04-.01.07-.01-.25.02-.52-.08-.63-.31Z"/>
  <path class="cls-1" d="M16.68,156.44s-.02-.05-.03-.07c0,.03.02.05.03.07Z"/>
  <path class="cls-1" d="M185.83,157.28s-.01.03-.02.04c0-.01.01-.03.02-.04Z"/>
  <path class="cls-1" d="M185.37,157.67s-.04.01-.07.01c.02,0,.04,0,.07-.01Z"/>
  <path class="cls-1" d="M185.74,157.45s.03-.05.05-.07c0,0,0,0,0,0-.01.03-.03.05-.04.07Z"/>
  <path class="cls-1" d="M17.25,155.49c.28,0,.57,0,.85-.01,1.13-4.4,2.54-8.73,4.2-12.97,1.75-4.47,3.78-8.84,5.99-13.1,2.22-4.28,4.63-8.46,7.17-12.55,2.54-4.1,5.21-8.12,7.94-12.09,2.57-3.72,5.19-7.41,7.84-11.08,2.35-3.25,4.74-6.47,7.25-9.61,2.52-3.16,5.14-6.24,7.95-9.15,2.01-2.09,4.11-4.1,6.33-5.97-.56.54-1.43-.34-.89-.95-.68.57-1.35,1.15-2,1.75-3,2.72-5.78,5.66-8.43,8.72-2.67,3.09-5.2,6.3-7.66,9.57-2.5,3.33-4.93,6.71-7.33,10.1-2.81,3.96-5.58,7.96-8.26,12.02-2.68,4.07-5.26,8.2-7.67,12.43-2.4,4.2-4.64,8.5-6.65,12.9-2.02,4.43-3.82,8.97-5.31,13.61-.73,2.26-1.38,4.55-1.95,6.86-.04.15-.01.28.03.39-.11-.38.08-.86.59-.87Z"/>
  <path class="cls-1" d="M185.57,157.6s0,0,0,0c0,0,0,0-.01,0,0,0,0,0,0,0Z"/>
  <path class="cls-1" d="M16.72,156.5s-.03-.04-.04-.06c.01.02.02.04.04.06Z"/>
  <path class="cls-1" d="M172.96,129.34c-2.21-4.49-4.48-8.95-6.84-13.36-2.36-4.41-4.82-8.78-7.39-13.07-2.56-4.27-5.24-8.48-8.07-12.58-2.71-3.94-5.56-7.8-8.57-11.52-2.59-3.2-5.32-6.3-8.3-9.15-2.87-2.75-5.97-5.28-9.33-7.39-3.32-2.08-6.91-3.75-10.67-4.85-3.99-1.17-8.17-1.7-12.32-1.63-3.96.07-7.92.71-11.7,1.91-3.68,1.17-7.19,2.85-10.46,4.88-2.29,1.97-4.45,4.1-6.48,6.34.77-.65,1.55-1.28,2.34-1.89,3.04-2.34,6.31-4.41,9.78-6.04,3.46-1.63,7.13-2.79,10.9-3.4,3.99-.65,8.13-.68,12.14-.1,3.88.56,7.66,1.7,11.2,3.37,3.48,1.65,6.73,3.78,9.71,6.21,3.11,2.54,5.96,5.38,8.63,8.38,2.91,3.27,5.62,6.72,8.21,10.24,2.92,3.97,5.7,8.04,8.34,12.2,2.65,4.17,5.18,8.43,7.6,12.74,2.43,4.33,4.76,8.72,7.02,13.15,2.26,4.44,4.45,8.92,6.6,13.43,2.15,4.51,4.25,9.04,6.33,13.57.86,1.87,1.71,3.73,2.57,5.6.34,0,.68.01,1.02.02.04,0,.07.02.1.02.05-.09.12-.17.22-.23-2.02-4.41-4.04-8.81-6.08-13.2-2.13-4.57-4.29-9.12-6.52-13.65Z"/>
  <path class="cls-1" d="M185.78,157.38s0,0,0,0c.01-.02.02-.04.03-.06,0,.02-.02.04-.03.06Z"/>
  <path class="cls-1" d="M185.34,156.41c.44.07.6.52.49.87.06-.18.06-.38-.03-.57-.08-.18-.16-.35-.24-.53-.1.06-.17.14-.22.23Z"/>
  <path class="cls-1" d="M72.76,68.96s.05-.04.07-.06c2.03-2.24,4.19-4.37,6.48-6.34-.01,0-.02.01-.04.02-2.6,1.61-5.06,3.45-7.4,5.43-.54.61.32,1.49.89.95Z"/>
  <path class="cls-1" d="M185.34,156.41s-.06-.02-.1-.02c-.34,0-.68-.01-1.02-.02.15.33.31.67.46,1,.11.23.38.33.63.31.02,0,.04,0,.07-.01.07-.01.14-.03.19-.06,0,0,0,0,.01,0,.07-.04.12-.09.16-.14.02-.02.03-.05.04-.07-.49-.06-.64-.6-.44-.97Z"/>
  <path class="cls-1" d="M17.88,156.32c.07-.28.15-.56.22-.84-.28,0-.57,0-.85.01-.51,0-.71.5-.59.87,0,.02.02.05.03.07,0,.02.02.04.04.06.29.39,1.01.42,1.16-.18Z"/>
  <path class="cls-1" d="M185.34,156.41c-.2.36-.05.9.44.97.01-.02.02-.04.03-.06,0-.01.01-.03.02-.04.11-.35-.05-.79-.49-.87Z"/>
  <path class="cls-1" d="M169.05,130.61c-4.05-8.36-8.71-16.41-13.24-24.51-4.35-7.77-9.11-15.3-14.57-22.35-2.61-3.38-5.38-6.64-8.36-9.7-2.9-2.98-5.99-5.85-9.34-8.32-6.29-4.64-14.07-7.24-21.9-7.06-7.86.17-15.24,3.25-21.62,7.72-6.58,4.61-12.14,10.51-17.38,16.56-5.86,6.76-11.48,13.74-16.81,20.92-5.24,7.07-10.24,14.35-14.68,21.95-4.29,7.35-8.02,15.1-10.36,23.3-.57,2-1.06,4.02-1.45,6.06-.02.1-.02.2,0,.28.42,0,.85-.01,1.27-.02,1.61-8.26,4.74-16.12,8.65-23.55,4.01-7.63,8.77-14.88,13.74-21.92,5.14-7.27,10.61-14.29,16.32-21.12,5.18-6.2,10.48-12.4,16.64-17.67,5.83-4.99,12.63-9.17,20.25-10.64,7.51-1.46,15.4-.13,22.13,3.45,3.54,1.88,6.66,4.41,9.62,7.1,3.08,2.8,5.95,5.82,8.64,8.99,5.63,6.61,10.55,13.83,14.99,21.29,2.33,3.92,4.52,7.93,6.76,11.91,2.25,4,4.48,8.02,6.6,12.08,4.25,8.14,8.04,16.54,11.48,25.05.79,1.95,1.56,3.91,2.31,5.87.46,0,.92.02,1.38.02,0-.02,0-.05,0-.07-3.32-8.69-7-17.25-11.06-25.62Z"/>
  <path class="cls-1" d="M178.86,156.58c.13.33.44.55.8.46.29-.08.53-.42.46-.73-.46,0-.92-.02-1.38-.02.04.1.08.2.12.3Z"/>
  <path class="cls-1" d="M20.59,155.53s.01-.05.02-.08c-.42,0-.85.01-1.27.02.14.6,1.12.78,1.26.06Z"/>
  <polygon class="cls-1" points="93.72 124.74 93.72 124.74 93.72 124.74 93.72 124.74 93.72 124.74"/>
  <path class="cls-1" d="M94.28,125.93c-.4.15-.85.15-1.25-.09-.01,0-.02-.02-.04-.03-.6,4.42-1.18,8.84-1.75,13.26-.69,5.38-1.36,10.76-2.02,16.14.43,0,.87,0,1.3,0,1.17-9.53,2.36-19.06,3.66-28.58.03-.24.07-.48.1-.72Z"/>
  <path class="cls-1" d="M94.36,121.24c0-.1,0-.2,0-.3-.03.1-.05.19-.08.29.02,0,.05,0,.07.01Z"/>
  <path class="cls-1" d="M95.15,110.62c-.42,2.83-.83,5.67-1.24,8.51.36-.2.79-.26,1.19-.11.04.02.08.04.12.05.98-6.9,2.02-13.78,3.15-20.66.48-2.94.99-5.87,1.51-8.8-.45.03-.9.07-1.34.13-1.22,6.94-2.35,13.9-3.39,20.87Z"/>
  <path class="cls-1" d="M98.89,88.39c.41-.05.83-.07,1.24-.09.35-1.94.69-3.88,1.06-5.82-.45.01-.89.04-1.34.09-.36,1.94-.72,3.88-1.06,5.83.03,0,.07,0,.1-.01Z"/>
  <polygon class="cls-1" points="93.74 124.75 93.74 124.75 93.74 124.75 93.74 124.75 93.74 124.75"/>
  <path class="cls-1" d="M89.21,155.3c-.04.35.33.65.65.65.39,0,.61-.3.65-.65,0-.02,0-.05,0-.07-.43,0-.87,0-1.3,0,0,.03,0,.05,0,.08Z"/>
  <path class="cls-1" d="M131.99,118.04c-1.63-6.03-3.77-11.95-6.6-17.53-2.78-5.47-6.25-10.83-11.16-14.63-2.41-1.86-5.16-3.33-8.11-4.11-2.89-.76-5.91-.79-8.82-.07-5.83,1.45-10.69,5.45-14.96,9.48-4.3,4.06-8.28,8.44-11.96,13.07-3.73,4.69-7.15,9.63-10.27,14.74-3.14,5.14-5.98,10.45-8.56,15.89-2.61,5.5-4.95,11.13-7.06,16.84-.43,1.17-.85,2.34-1.26,3.52.46,0,.92,0,1.38,0,1.86-5.29,3.91-10.51,6.19-15.63,2.42-5.42,5.09-10.74,8.04-15.9,2.92-5.11,6.11-10.06,9.61-14.8,3.46-4.68,7.21-9.15,11.27-13.32,4.05-4.16,8.4-8.4,13.64-11.02,2.03-1.02,4.23-1.74,6.48-1.99.04-.2.07-.39.11-.59.16-.82,1.41-.47,1.26.35,0,.05-.02.1-.03.15.11,0,.23-.01.34-.01,2.94,0,5.83.83,8.42,2.18,5.38,2.82,9.3,7.69,12.33,12.85,3.1,5.29,5.46,11,7.29,16.84,1.86,5.93,3.17,12.02,4.19,18.15,1.03,6.19,1.75,12.42,2.41,18.65.16,1.49.31,2.99.46,4.49.09,0,.18,0,.27,0,.34,0,.69,0,1.03.01-.64-6.32-1.3-12.64-2.21-18.92-.91-6.29-2.06-12.56-3.73-18.69Z"/>
  <path class="cls-1" d="M44.01,156.54c-.26,0-.53,0-.79,0,.23.15.55.16.79,0Z"/>
  <path class="cls-1" d="M44.26,156.21c.11-.33.24-.66.35-.99-.46,0-.92,0-1.38,0-.07.21-.15.42-.23.63-.11.3.01.54.22.67.26,0,.53,0,.79,0,.11-.07.2-.17.25-.32Z"/>
  <path class="cls-1" d="M136.63,155.64s0,.07.01.11c.04.35.27.65.65.65.32,0,.69-.3.65-.65,0-.03,0-.06,0-.09-.34,0-.69,0-1.03-.01-.09,0-.18,0-.27,0Z"/>
  <path class="cls-1" d="M101.22,82.34c.15-.82-1.1-1.17-1.26-.35-.04.2-.07.39-.11.59.44-.05.89-.08,1.34-.09,0-.05.02-.1.03-.15Z"/>
  <path class="cls-1" d="M64.35,123.67c2.68-5.13,5.52-10.19,8.87-14.92,2.87-4.05,6.15-7.83,9.9-11.1,3.6-3.14,7.75-5.9,12.37-7.26,1-.29,2.02-.51,3.05-.65.08-.45.16-.9.24-1.34-4.82.56-9.28,2.79-13.17,5.61-4.05,2.93-7.61,6.51-10.74,10.4-3.62,4.5-6.66,9.43-9.44,14.48-2.87,5.2-5.56,10.51-8.13,15.87-2.6,5.4-5,10.89-6.94,16.56-.44,1.29-.85,2.58-1.24,3.89.46,0,.91,0,1.37,0,1.64-5.42,3.74-10.69,6.1-15.84,2.42-5.31,5.07-10.51,7.77-15.68Z"/>
  <path class="cls-1" d="M129.96,137.39c-.78-5.99-1.94-11.92-3.52-17.75-1.44-5.34-3.13-10.69-5.46-15.71-2.03-4.37-4.71-8.63-8.56-11.62-3.51-2.73-7.86-4.19-12.28-4.01-.08.44-.16.88-.24,1.32.77-.05,1.54-.05,2.31,0,2.38.17,4.71.88,6.8,2.01,4.15,2.22,7.14,6.01,9.38,10.06,2.51,4.54,4.2,9.51,5.69,14.45,1.72,5.67,3.05,11.45,3.99,17.3.95,5.85,1.49,11.77,1.65,17.7.04,1.44.05,2.88.04,4.32,0,.04.01.06.02.09.42,0,.84,0,1.26.01,0-.04.02-.07.02-.11.04-6.04-.33-12.09-1.11-18.08Z"/>
  <path class="cls-1" d="M131.05,155.57c-.42,0-.84,0-1.26-.01.09.7,1.15.7,1.26.01Z"/>
  <path class="cls-1" d="M49.03,155.48c-.24.81,1.02,1.15,1.26.35.06-.21.13-.42.19-.63-.46,0-.91,0-1.37,0-.03.09-.06.18-.08.28Z"/>
  <path class="cls-1" d="M98.79,88.4c-.08.45-.16.9-.24,1.34.45-.06.89-.1,1.34-.13.08-.44.16-.88.24-1.32-.41.02-.83.04-1.24.09-.03,0-.07,0-.1.01Z"/>
  <path class="cls-1" d="M92.28,124.18c.08-.47.16-.95.24-1.42-.12.47-.23.94-.24,1.42Z"/>
  <path class="cls-1" d="M94.89,121.85c.02,1,.04,1.99.06,2.99,0,.4-.29.61-.6.62-.02.16-.04.31-.06.47.22-.08.43-.21.6-.38.52-.49.66-1.23.7-1.91.05-.79.06-1.58.08-2.37.01-.37.02-.74.04-1.11,0-.2.04-.42,0-.62-.06-.23-.25-.38-.46-.48-.13.89-.25,1.77-.37,2.66,0,.04.03.07.03.12Z"/>
  <path class="cls-1" d="M92.54,124.06l.62.48c.08-.58.16-1.17.24-1.75-.17.5-.45.96-.87,1.27Z"/>
  <path class="cls-1" d="M93.27,120.04c.09-.31.33-.45.58-.45.02-.15.04-.31.06-.46-.23.13-.44.31-.6.52-.46.63-.52,1.47-.64,2.22l-.15.89c.04-.15.08-.29.11-.43.2-.76.41-1.52.63-2.28Z"/>
  <path class="cls-1" d="M92.47,125.13s-.03-.03-.05-.05c.11.29.29.55.56.73.03-.19.05-.38.08-.57-.2.06-.44,0-.59-.11Z"/>
  <path class="cls-1" d="M94.89,121.85s-.02-.08-.03-.12c0,.04-.01.08-.02.12h.04Z"/>
  <path class="cls-1" d="M94.66,123.16c.14-.42.22-.86.22-1.31h-.04c-.06.44-.12.88-.18,1.31Z"/>
  <path class="cls-1" d="M94.34,125.47c.31-.02.61-.22.6-.62-.02-1-.04-1.99-.06-2.99,0,.46-.08.9-.22,1.31-.11.77-.21,1.53-.32,2.3Z"/>
  <path class="cls-1" d="M93.07,125.24c.03-.23.06-.47.1-.7l-.62-.48c.42-.31.7-.77.87-1.27.15-1.07.3-2.13.45-3.2-.25,0-.49.15-.58.45-.22.76-.43,1.52-.63,2.28-.04.14-.08.29-.11.43-.08.47-.16.95-.24,1.42,0,.03,0,.07,0,.1,0,.27.05.55.15.8.02.02.03.03.05.05.16.12.4.17.59.11Z"/>
  <path class="cls-1" d="M92.28,124.18c-.01.09-.03.18-.04.26-.04.24,0,.47.19.64-.1-.25-.15-.53-.15-.8,0-.03,0-.07,0-.1Z"/>
  <path class="cls-1" d="M93.77,123.2c-.02.09-.05.18-.07.28-.03.12-.05.23-.08.34,0,.07,0,.15,0,.22.05-.28.09-.56.14-.84Z"/>
  <path class="cls-1" d="M93.62,123.81c-.03.16-.05.32-.04.5.02-.09.03-.18.05-.27,0-.07,0-.15,0-.22Z"/>
  <path class="cls-1" d="M93.63,124.63s0,.02,0,.02c0,0,0,0,0,0,0,0,0,0,0,0,0,0,0,0,0-.01Z"/>
  <polygon class="cls-1" points="93.64 124.64 93.64 124.64 93.64 124.64 93.64 124.64"/>
  <path class="cls-1" d="M93.64,124.64s0,0,0,0c0,0,0,0,0,0Z"/>
  <path class="cls-1" d="M93.74,124.75s0,0,0,0c-.01,0,0,0,0,0Z"/>
  <path class="cls-1" d="M93.69,124.73s-.01-.02-.02-.03c0,0,0,0,.02.03Z"/>
  <path class="cls-1" d="M93.74,124.75h0s0,0,0,0Z"/>
  <polygon class="cls-1" points="93.71 124.74 93.71 124.74 93.71 124.74 93.71 124.74"/>
  <path class="cls-1" d="M93.69,124.74h0s0,0,0,0Z"/>
  <polygon class="cls-1" points="93.7 124.73 93.7 124.73 93.7 124.73 93.7 124.73"/>
  <path class="cls-1" d="M94.84,121.85s.01-.08.02-.12c-.05-.28-.26-.44-.5-.49,0,.2-.01.41-.02.61h.5Z"/>
  <path class="cls-1" d="M94.11,121.85h.23c0-.2.01-.41.02-.61-.02,0-.05,0-.07-.01-.06.21-.12.41-.18.62Z"/>
  <path class="cls-1" d="M94.22,124.08c-.02.07-.03.14-.05.2-.05.15-.1.25-.21.35-.07.06-.04.04-.11.08.06-.03-.07.03-.1.04,0,0,0,0,0,0-.01,0-.01,0,0,0,0,0,0,0-.02-.01,0,0,0,0-.01,0,0,0,0,0,0,0,0,0,0,0,0,0,0,0-.02,0-.02,0-.02.02-.03.04-.05.05,0,.02,0,.03,0,.05,0,.44.36.64.7.62.1-.77.21-1.53.32-2.3-.11.32-.26.63-.44.92Z"/>
  <path class="cls-1" d="M93.58,124.31c0-.18,0-.34.04-.5-.01-.65-.03-1.31-.04-1.96,0,.31-.07.63-.17.94-.08.58-.16,1.17-.24,1.75.11.09.22.17.33.26.03-.16.06-.32.08-.49Z"/>
  <path class="cls-1" d="M94.31,120.52c-.11.22-.17.47-.21.72.06-.01.13-.02.19-.01.03-.1.05-.19.08-.29,0-.19.01-.37.02-.56-.03.03-.05.07-.08.13Z"/>
  <path class="cls-1" d="M93.69,124.74s0,0,0,0c0,0,0,0,0,0,0,0-.02-.02-.02-.02,0,.01.01.02.02.03-.02-.03-.02-.04-.02-.03-.01-.02-.03-.04-.04-.06,0,0,0,0,0,0,0,.01,0,.01,0,0,0,.05,0,.1,0,.15.02-.02.03-.04.05-.05,0,0,0,0,0,0Z"/>
  <path class="cls-1" d="M93.63,124.63s0,0,0,.01c0-.01,0-.02-.01-.04,0,0-.04-.2-.03-.1-.01-.07-.01-.13-.01-.19-.03.16-.06.32-.08.49-.11-.09-.22-.17-.33-.26-.03.23-.06.47-.1.7.05-.01.09-.03.13-.06.16-.12.31-.25.44-.39,0-.05,0-.1,0-.15,0,0,0,0,0-.02Z"/>
  <path class="cls-1" d="M93.92,119.13c-.02.15-.04.31-.06.46.21,0,.42.08.55.23,0-.03,0-.06,0-.1l.32.56s-.1-.06-.07-.06c-.08,0-.1,0-.04,0-.04.01-.06.02-.07.02,0,0,0,0-.01,0,0,.04,0,.08-.01.12-.05.18-.1.37-.16.56,0,.1,0,.2,0,.3.24.04.44.21.5.49.12-.89.25-1.77.37-2.66-.04-.02-.08-.04-.12-.05-.4-.15-.83-.09-1.19.11Z"/>
  <path class="cls-1" d="M93.64,124.84s0-.03,0-.05c-.14.14-.28.27-.44.39-.04.03-.08.04-.13.06-.03.19-.05.38-.08.57.01,0,.02.02.04.03.4.24.85.24,1.25.09.02-.16.04-.31.06-.47-.34.02-.69-.19-.7-.62Z"/>
  <path class="cls-1" d="M93.7,123.47c.02-.09.05-.18.07-.28.08-.45.15-.9.23-1.35h-.41c.01.65.03,1.31.04,1.96.02-.11.05-.22.08-.34Z"/>
  <path class="cls-1" d="M93.58,121.85c0-.36.24-.56.51-.61.04-.25.1-.5.21-.72.03-.06.05-.1.08-.13,0-.19.01-.38.02-.57-.14-.15-.34-.24-.55-.23-.15,1.07-.3,2.13-.45,3.2.1-.3.17-.62.17-.94Z"/>
  <path class="cls-1" d="M94.39,120.39c0,.19-.01.37-.02.56.05-.19.1-.37.16-.56.01-.04,0-.08.01-.12-.07.04-.11.08-.15.12Z"/>
  <path class="cls-1" d="M94.54,120.27c.02-.18-.03-.33-.13-.44,0,.19-.01.38-.02.57.04-.05.08-.08.15-.12Z"/>
  <path class="cls-1" d="M94.55,120.26s0,0,.01,0c-.02,0-.02.01-.01,0Z"/>
  <path class="cls-1" d="M94.54,120.27s0,0,.01,0c-.01,0,0,0,.01,0,0,0,0,0-.01,0,0,0,.03,0,.07-.02-.05,0-.04,0,.04,0-.03,0,.02.02.07.06l-.32-.56s0,.06,0,.1c.1.11.15.26.13.44Z"/>
  <path class="cls-1" d="M93.7,124.73s0,0,0,0c0,0,0,0,0,0,0,0,0,0,0,0Z"/>
  <path class="cls-1" d="M93.69,124.74h0s.01,0,.02,0c0,0,0,0,0,0,0,0-.02,0-.02,0Z"/>
  <polygon class="cls-1" points="93.71 124.74 93.71 124.74 93.71 124.74 93.71 124.74 93.71 124.74"/>
  <path class="cls-1" d="M93.7,124.73s0,0,0,0c0,0,0,0,.02,0,0,0,0,0,0,0Z"/>
  <path class="cls-1" d="M93.71,124.74s0,0,0,0c0,0,0,0,.01,0,0,0,0,0,0,0h-.01Z"/>
  <path class="cls-1" d="M94.03,121.67c.02-.14.05-.28.07-.43-.27.05-.51.25-.51.61h.41c.01-.06.02-.12.03-.18Z"/>
  <path class="cls-1" d="M93.58,124.31c0,.06,0,.13.01.19-.02-.1.03.1.03.1,0,.02.01.03.01.04,0,0,0,0,0,0,0-.2,0-.41-.01-.61-.02.09-.03.18-.05.27Z"/>
  <path class="cls-1" d="M93.71,124.74s0,0,0,0c0,0,0,0,0,0,0,0,0,0,0,0h0Z"/>
  <path class="cls-1" d="M93.71,124.74h.01s0,0,0,0c0,0,0,0-.01,0h0s0,0,0,.01Z"/>
  <path class="cls-1" d="M93.77,123.2c.11-.45.23-.9.35-1.35h-.12c-.08.45-.15.9-.23,1.35Z"/>
  <path class="cls-1" d="M94,121.85h.12c.06-.21.12-.41.18-.62-.07,0-.13,0-.19.01-.02.15-.05.29-.07.43-.01.06-.02.12-.03.18Z"/>
  <path class="cls-1" d="M93.62,124.03c0,.2,0,.41.01.61.01.02.02.04.04.06,0,0,.01.01.02.02,0,0,0,0,0,0,.19-.2.37-.41.52-.65.08-.37.07-.77.09-1.14.01-.36.02-.73.04-1.09h-.23c-.12.45-.24.9-.35,1.35-.05.28-.09.56-.14.84Z"/>
  <path class="cls-1" d="M93.71,124.74s0,0,0,0h0s0,0,0,0c.01,0,.02,0,.04,0-.01,0-.01,0-.02.01,0,0,0,0,0,0,.04-.02.17-.07.1-.04.07-.04.05-.02.11-.08.11-.1.16-.2.21-.35.02-.07.04-.13.05-.2-.15.23-.32.45-.52.65,0,0,0,0,.01,0Z"/>
  <path class="cls-1" d="M93.72,124.74s0,0,0,0c0,0,.02,0,.02.01,0,0,0,0,0,0,0,0,0,0-.02-.01Z"/>
  <path class="cls-1" d="M93.76,124.74s-.02,0-.04,0c.01,0,.02.01.02.01,0,0,0,0,.02-.01Z"/>
  <path class="cls-1" d="M94.22,124.08c.18-.29.33-.6.44-.92.06-.44.12-.88.18-1.31h-.5c-.01.36-.02.73-.04,1.09-.01.37,0,.77-.09,1.14Z"/>
</svg>