<?xml version="1.0" encoding="UTF-8"?>
<svg id="Layer_1" data-name="Layer 1" xmlns="http://www.w3.org/2000/svg" viewBox="0 0 251 205">
  <defs>
    <style>
      .cls-1 {
        fill: #fff;
      }

      .cls-1, .cls-2, .cls-3 {
        fill-rule: evenodd;
      }

      .cls-4 {
        font-size: 45.61px;
      }

      .cls-4, .cls-5, .cls-6 {
        font-family: SourceSerifRoman-Regular, 'Source Serif Variable';
        font-variation-settings: 'wght' 400;
      }

      .cls-2 {
        fill: #e6e7e8;
      }

      .cls-3 {
        fill: #232323;
      }

      .cls-5 {
        font-size: 27.87px;
      }

      .cls-6 {
        font-size: 31.4px;
      }
    </style>
  </defs>
  <g>
    <g>
      <path class="cls-1" d="M36.31,49.68c.33.14.6.22.84.36,5.36,3.3,11.04,5.96,16.88,8.25,11.27,4.42,22.54,8.85,33.9,13.06,12.37,4.58,25.12,7.94,37.89,11.18,5.8,1.47,11.6,2.94,17.38,4.48,4.41,1.17,8.69,2.74,12.96,4.35,1.59.6,3.19,1.18,4.79,1.77.28.92.14,1.77.11,2.61-.26,7.41-.62,14.81-.79,22.22-.3,13.68-.47,27.37-.72,41.05-.1,5.13-.28,10.26-.43,15.39,0,.11-.12.22-.25.47-.42-.16-.88-.3-1.31-.5-2.77-1.3-5.5-2.69-8.31-3.92-4.17-1.83-8.31-3.75-12.72-4.97-4.95-1.38-9.73-3.21-14.52-5.05-7.98-3.06-15.97-6.11-24.05-8.9-12-4.14-23.68-9.04-35.13-14.5-3.28-1.56-6.56-3.14-9.77-4.82-3.42-1.79-6.53-4.06-9.49-6.54-1.21-1.01-1.99-2.14-2.06-3.78-.12-2.49-.42-4.97-.57-7.46-.24-3.84-.39-7.69-.62-11.53-.19-3.13-.42-6.26-.66-9.38-.55-7.03-1.11-14.07-1.7-21.09-.44-5.18-.93-10.36-1.43-15.54-.14-1.49-.36-2.97-.57-4.45-.13-.94,0-1.81.37-2.75Z"/>
      <path class="cls-1" d="M178.71,162.96c-1,.65-1.95,1.26-2.9,1.89-2.98,1.96-5.96,3.91-8.66,6.25-1.45,1.25-2.85,2.57-4.24,3.91-.71.69-.67.72-2.1,1.14-.07-.24-.23-.5-.2-.73.69-4.66.77-9.36.81-14.06.05-5.63.04-11.26.11-16.89.14-12.11.33-24.23.46-36.34.04-3.49-.08-6.98-.02-10.47.03-1.55.32-3.1.46-4.41,1.25-1.86,2.85-2.91,4.52-3.89,2.58-1.51,5.23-2.91,7.63-4.7.47-.35.95-.65,1.7-.31.03.34.11.74.1,1.14-.06,2.64-.23,5.27-.19,7.9.04,2.05.34,4.11.51,6.16.06.77.55,1.12,1.22,1.29.8.2,1.54,0,2.26-.38,2.95-1.57,5.9-3.13,8.85-4.69,2.27-1.19,4.54-2.36,6.81-3.54.25-.13.49-.3.71-.47,1.11-.88,2.21-1.77,3.52-2.82,0-1.27,0-2.75,0-4.24,0-2.64-.04-5.27,0-7.91.03-1.49.19-2.98.29-4.47.07-1.09.56-1.89,1.59-2.32.33-.14.63-.33.94-.5,3.38-1.98,6.76-3.96,10.13-5.94.43-.25.83-.56,1.29-.75.22-.09.59-.05.76.09.17.14.33.54.25.72-.88,1.96-.68,4.05-.76,6.1-.08,2.28-.25,4.55-.36,6.83-.06,1.28-.14,2.56-.12,3.84.05,3.13-.11,6.26.13,9.39.13,1.62-.1,3.27-.24,4.9-.41,4.47-.87,8.93-1.28,13.4-.37,4.12-.7,8.23-1.03,12.35-.06.71-.08,1.42-.08,2.13,0,2.21.04,4.42,0,6.63-.02,1.14-.16,2.27-.22,3.4-.09,1.78-.14,3.56-.22,5.34-.04.92-.07,1.84-.11,2.79-.73.63-1.37,1.32-2.14,1.81-2.34,1.5-4.72,2.93-7.1,4.35-.28.17-.67.13-1,.19-.07-.15-.2-.27-.18-.38.33-2.78-.39-5.51-.43-8.27-.02-1.12.15-2.28-.3-3.37-.14-.33-.28-.65-.47-.95-.11-.17-.31-.28-.53-.47-.44.19-.9.35-1.33.58-2.82,1.51-5.63,3.04-8.43,4.57-.37.2-.76.42-1.06.71-1.12,1.02-2.47,1.66-3.73,2.46-1.68,1.06-3.22,2.33-4.79,3.55-.53.41-.74,1.07-.66,1.73.29,2.44-.28,4.82-.49,7.23-.18,2.05-.16,4.13-.15,6.19,0,.69.26,1.38.45,2.31Z"/>
      <path class="cls-2" d="M198.68,70.15c-.46.29-.62.43-.81.52-6.89,3.24-13.7,6.67-20.43,10.24-.44.23-.9.41-1.39.62-.61-.25-1.22-.44-1.78-.75-1.69-.95-3.54-1.41-5.4-1.91-2.67-.72-5.3-1.63-7.94-2.46-.88-.28-1.76-.56-2.65-.82-2.18-.65-4.37-1.29-6.55-1.93-1.37-.4-2.73-.83-4.11-1.14-2.53-.57-4.7-1.99-7.12-2.8-.94-.32-1.83-.8-2.77-1.12-2.49-.86-4.96-1.79-7.49-2.49-4.81-1.32-9.41-3.27-14.18-4.71-1.36-.41-2.74-.79-4.08-1.26-3.02-1.05-6.05-2.1-9.04-3.23-5.06-1.92-10.15-3.75-15.45-4.93-2.95-.65-5.69-1.8-8.41-3.05-3.36-1.54-6.72-3.12-10.12-4.57-1.69-.72-3.5-1.19-5.25-1.76-.4-.13-.81-.24-1.44-.43.4-.29.62-.54.88-.62,1.98-.57,3.96-1.21,5.97-1.63,4.06-.85,7.94-2.25,11.79-3.73,1.06-.41,2.14-1.01,3.22-1.02,1,0,2,.65,3,1.02.6.22,1.23.4,1.79.7,6.39,3.31,13.34,4.91,20.26,6.55,2.92.69,5.76,1.58,8.6,2.52,5.81,1.93,11.61,3.88,17.55,5.37,3.17.8,6.33,1.65,9.35,2.97,1.09.48,2.3.77,3.48.97,4.14.72,8.3,1.32,12.43,2.07,1.74.32,3.44.89,5.15,1.4,3.89,1.14,7.77,2.31,11.65,3.48.54.16,1.07.4,1.59.62,3.93,1.69,7.98,3.03,12.06,4.28.41.12.82.29,1.24.31,2.39.1,4.25,1.37,6.4,2.73Z"/>
      <path class="cls-1" d="M37.79,48.63c6.87-1.87,13.59-3.6,20.23-5.62.86-.26,1.6-.29,2.46.08,1.84.79,3.77,1.23,5.77,1.49.96.12,1.93.5,2.82.9,3.96,1.78,7.9,3.62,11.84,5.44,2.01.93,4.11,1.58,6.27,2.09,5.14,1.2,10.1,2.95,15.05,4.78,3.47,1.28,6.89,2.68,10.45,3.72,3.96,1.16,7.82,2.64,11.74,3.93,2.23.74,4.49,1.36,6.72,2.09,2.23.72,4.45,1.49,6.67,2.26.6.21,1.15.56,1.73.81,1.83.79,3.64,1.63,5.51,2.31,2.41.87,4.86,1.63,7.31,2.39,2.59.79,5.2,1.5,7.79,2.28,1.83.55,3.65,1.17,5.48,1.73,1.29.39,2.6.74,3.91,1.07,2.59.64,2.59.63,4.77,2.41-.31.27-.58.58-.91.79-2.04,1.3-4.1,2.58-6.15,3.88-1.63,1.03-3.27,2.03-4.52,3.54-.47.57-1.06.68-1.73.46-.81-.27-1.63-.53-2.42-.85-9.39-3.83-19.15-6.44-28.96-8.91-10.84-2.73-21.63-5.62-32.3-8.97-7.34-2.3-14.56-4.94-21.73-7.73-8.36-3.26-16.71-6.53-25.03-9.87-3.96-1.59-7.78-3.53-11.52-5.61-.41-.23-.79-.53-1.28-.86Z"/>
      <path class="cls-1" d="M200.46,69.41c-.48-.32-.75-.57-1.06-.71-1.36-.61-2.73-1.2-4.11-1.77-.59-.24-1.19-.57-1.81-.6-2.25-.14-4.3-.94-6.34-1.78-2.83-1.16-5.77-2.04-8.52-3.42-.81-.41-1.76-.54-2.65-.8-4.5-1.35-8.98-2.76-13.5-4.03-1.77-.5-3.63-.73-5.45-1.04-2.95-.49-5.91-.9-8.86-1.41-.97-.17-1.96-.44-2.86-.84-3.21-1.43-6.58-2.32-9.97-3.15-5.33-1.31-10.51-3.12-15.7-4.87-3.99-1.35-8-2.53-12.09-3.52-4.08-.99-8.09-2.25-12.13-3.4-.55-.16-1.08-.36-1.6-.59-2.34-1.03-4.68-2.08-7.14-3.18.26-.19.49-.45.77-.55,2.08-.73,4.17-1.44,6.26-2.15,1.15-.39,2.31-.75,3.26-1.56.46-.4,1.01-.53,1.59-.47.97.09,1.8-.22,2.38-.8,1.06.41,1.97.78,2.89,1.11,8,2.87,16.28,4.66,24.52,6.64,13.65,3.28,27.12,7.19,40.47,11.52,7.8,2.53,15.69,4.68,23.71,6.38,4.89,1.03,9.57,2.79,14.3,4.35,1.96.65,3.91,1.3,5.86,1.97.46.16.89.4,1.3.59,0,.16.01.23,0,.3-.01.06-.04.15-.09.18-4.35,2.7-8.77,5.29-13.42,7.61Z"/>
      <path class="cls-2" d="M178.57,99.74c-.11-.25-.32-.55-.37-.87-.73-5.09-.44-10.22-.72-15.33,0-.13.06-.27.1-.41,2.3-1.23,4.34-2.91,6.72-4.02,2.45-1.15,4.84-2.41,7.25-3.64,2.34-1.2,4.68-2.42,7.02-3.62.19-.1.4-.14.68-.24.04.21.17.46.1.54-.71.75-.7,1.68-.7,2.61.01,4.06.03,8.12.04,12.17,0,.28-.02.56-.04.9-1.8,1.24-3.36,2.78-5.39,3.74-2.37,1.12-4.59,2.55-6.89,3.83-1.18.65-2.42,1.21-3.58,1.89-.91.54-1.75,1.21-2.59,1.85-.45.34-.85.78-1.62.6Z"/>
      <path class="cls-2" d="M198.96,148.9c-3.85,3.19-16.61,11.95-18.8,12.9-.39-1.34-.37-1.89-.16-3.26.36-2.39.5-4.79-.05-7.18-.09-.41-.11-.85-.1-1.27.01-.99.06-1.98.09-2.83,1.3-1.03,2.46-1.95,3.63-2.87.39-.31.74-.71,1.18-.91,1.84-.83,3.38-2.09,4.97-3.28,1.36-1.02,2.9-1.8,4.36-2.7.48-.3.99-.59,1.37-.99.57-.62,1.33-.8,2.06-1.06.59-.21,1.2.2,1.23.81.05.99.05,1.99.04,2.99-.01,1.07.07,2.11.47,3.14.22.57.27,1.25.22,1.87-.1,1.49-.31,2.96-.49,4.63Z"/>
    </g>
    <path class="cls-3" d="M216.52,63.53c-.07-.83-.16-1.66-.26-2.64-.68-.32-1.43-.72-2.22-1.02-1.6-.61-3.22-1.13-4.82-1.73-6.08-2.26-12.27-4.17-18.57-5.68-6.86-1.64-13.66-3.47-20.36-5.68-13.73-4.54-27.62-8.55-41.67-11.96-7.89-1.91-15.83-3.6-23.55-6.16-.94-.31-1.96-.4-2.8-1-.58-.41-1.21-.37-1.84-.16-1.41.48-2.82.98-4.23,1.47-4.57,1.61-9.16,3.13-13.69,4.84-4.93,1.87-9.9,3.55-15.02,4.86-7.79,2-15.49,4.34-23.23,6.56-2.26.65-4.47,1.45-6.76,1.98-1.47.34-2.25,1.19-2.59,2.49-.26.95-.36,1.97-.37,2.95-.04,3.06-.07,6.13.03,9.19.07,1.92.32,3.83.62,5.73.36,2.24,1.02,4.45,1.26,6.7.54,5.24.98,10.5,1.32,15.76.55,8.53.97,17.07,1.49,25.61.16,2.56.45,5.11.73,7.66.05.47.19,1.06.5,1.35,1.62,1.49,3.28,2.94,5,4.32,2.96,2.37,6.16,4.37,9.52,6.11,9.18,4.74,18.58,9.02,28.17,12.87,4.62,1.86,9.35,3.46,14.02,5.18,7.75,2.86,15.53,5.64,23.24,8.61,5.19,2,10.36,4,15.72,5.49,4.13,1.15,8.05,2.87,11.93,4.65,3.04,1.39,6.01,2.95,9.01,4.42.77.38,1.55.71,2.33,1.07.83.37,1.66.41,2.46-.05.61-.35,1.3-.63,1.8-1.1,4.6-4.31,9.78-7.82,15.04-11.26,4.83-3.16,9.58-6.44,14.34-9.7,2.53-1.73,4.99-3.55,7.5-5.31,2.68-1.89,5.33-3.82,8.07-5.61,1.49-.97,2.87-2.05,4.21-3.22.07-.51.17-1,.19-1.5.19-4.06.37-8.12.54-12.17.02-.43-.04-.85-.05-1.28-.05-1.78-.23-3.56-.13-5.32.2-3.55.56-7.1.84-10.65.44-5.47.86-10.94,1.29-16.41.06-.71.14-1.43.08-2.13-.15-1.79.03-3.55.3-5.31.23-1.49.22-2.97.16-4.47-.07-1.85-.06-3.7-.03-5.55.04-2.71.12-5.41.21-8.12.05-1.28.18-2.55.26-3.82.02-.28.04-.57.02-.85ZM87.43,33.73c2.08-.73,4.17-1.44,6.26-2.15,1.15-.39,2.31-.75,3.26-1.56.46-.4,1.01-.53,1.59-.47.97.09,1.8-.22,2.38-.8,1.06.41,1.97.78,2.89,1.11,8,2.87,16.28,4.66,24.52,6.64,13.65,3.28,27.12,7.19,40.47,11.52,7.8,2.53,15.69,4.68,23.71,6.38,4.89,1.03,9.57,2.79,14.3,4.35,1.96.65,3.91,1.3,5.86,1.97.46.16.89.4,1.3.59,0,.16.01.23,0,.3-.01.06-.04.15-.09.18-4.35,2.7-8.77,5.29-13.42,7.61-.48-.32-.75-.57-1.06-.71-1.36-.61-2.73-1.2-4.11-1.77-.59-.24-1.19-.57-1.81-.6-2.25-.14-4.3-.94-6.34-1.78-2.83-1.16-5.77-2.04-8.52-3.42-.81-.41-1.76-.54-2.65-.8-4.5-1.35-8.98-2.76-13.5-4.03-1.77-.5-3.63-.73-5.45-1.04-2.95-.49-5.91-.9-8.86-1.41-.97-.17-1.96-.44-2.86-.84-3.21-1.43-6.58-2.32-9.97-3.15-5.33-1.31-10.51-3.12-15.7-4.87-3.99-1.35-8-2.53-12.09-3.52-4.08-.99-8.09-2.25-12.13-3.4-.55-.16-1.08-.36-1.6-.59-2.34-1.03-4.68-2.08-7.14-3.18.26-.19.49-.45.77-.55ZM198.69,86.93c0,.28-.02.56-.04.9-1.8,1.24-3.36,2.78-5.39,3.74-2.37,1.12-4.59,2.55-6.89,3.83-1.18.65-2.42,1.21-3.58,1.89-.91.54-1.75,1.21-2.59,1.85-.45.34-.85.78-1.62.6-.11-.25-.32-.55-.37-.87-.73-5.09-.44-10.22-.72-15.33,0-.13.06-.27.1-.41,2.3-1.23,4.34-2.91,6.72-4.02,2.45-1.15,4.84-2.41,7.25-3.64,2.34-1.2,4.68-2.42,7.02-3.62.19-.1.4-.14.68-.24.04.21.17.46.1.54-.71.75-.7,1.68-.7,2.61.01,4.06.03,8.12.04,12.17ZM63.14,41.53c1.98-.57,3.96-1.21,5.97-1.63,4.06-.85,7.94-2.25,11.79-3.73,1.06-.41,2.14-1.01,3.22-1.02,1,0,2,.65,3,1.02.6.22,1.23.4,1.79.7,6.39,3.31,13.34,4.91,20.26,6.55,2.92.69,5.76,1.58,8.6,2.52,5.81,1.93,11.61,3.88,17.55,5.37,3.17.8,6.33,1.65,9.35,2.97,1.09.48,2.3.77,3.48.97,4.14.72,8.3,1.32,12.43,2.07,1.74.32,3.44.89,5.15,1.4,3.89,1.14,7.77,2.31,11.65,3.48.54.16,1.07.4,1.59.62,3.93,1.69,7.98,3.03,12.06,4.28.41.12.82.29,1.24.31,2.39.1,4.25,1.37,6.4,2.73-.46.29-.62.43-.81.52-6.89,3.24-13.7,6.67-20.43,10.24-.44.23-.9.41-1.39.62-.61-.25-1.22-.44-1.78-.75-1.69-.95-3.54-1.41-5.4-1.91-2.67-.72-5.3-1.63-7.94-2.46-.88-.28-1.76-.56-2.65-.82-2.18-.65-4.37-1.29-6.55-1.93-1.37-.4-2.73-.83-4.11-1.14-2.53-.57-4.7-1.99-7.12-2.8-.94-.32-1.83-.8-2.77-1.12-2.49-.86-4.96-1.79-7.49-2.49-4.81-1.32-9.41-3.27-14.18-4.71-1.36-.41-2.74-.79-4.08-1.26-3.02-1.05-6.05-2.1-9.04-3.23-5.06-1.92-10.15-3.75-15.45-4.93-2.95-.65-5.69-1.8-8.41-3.05-3.36-1.54-6.72-3.12-10.12-4.57-1.69-.72-3.5-1.19-5.25-1.76-.4-.13-.81-.24-1.44-.43.4-.29.62-.54.88-.62ZM58.03,43.01c.86-.26,1.6-.29,2.46.08,1.84.79,3.77,1.23,5.77,1.49.96.12,1.93.5,2.82.9,3.96,1.78,7.9,3.62,11.84,5.44,2.01.93,4.11,1.58,6.27,2.09,5.14,1.2,10.1,2.95,15.05,4.78,3.47,1.28,6.89,2.68,10.45,3.72,3.96,1.16,7.82,2.64,11.74,3.93,2.23.74,4.49,1.36,6.72,2.09,2.23.72,4.45,1.49,6.67,2.26.6.21,1.15.56,1.73.81,1.83.79,3.64,1.63,5.51,2.31,2.41.87,4.86,1.63,7.31,2.39,2.59.79,5.2,1.5,7.79,2.28,1.83.55,3.65,1.17,5.48,1.73,1.29.39,2.6.74,3.91,1.07,2.59.64,2.59.63,4.77,2.41-.31.27-.58.58-.91.79-2.04,1.3-4.1,2.58-6.15,3.88-1.63,1.03-3.27,2.03-4.52,3.54-.47.57-1.06.68-1.73.46-.81-.27-1.63-.53-2.42-.85-9.39-3.83-19.15-6.44-28.96-8.91-10.84-2.73-21.63-5.62-32.3-8.97-7.34-2.3-14.56-4.94-21.73-7.73-8.36-3.26-16.71-6.53-25.03-9.87-3.96-1.59-7.78-3.53-11.52-5.61-.41-.23-.79-.53-1.28-.86,6.87-1.87,13.59-3.6,20.23-5.62ZM159.54,159.01c-.1,5.13-.28,10.26-.43,15.39,0,.11-.12.22-.25.47-.42-.16-.88-.3-1.31-.5-2.77-1.3-5.5-2.69-8.31-3.92-4.17-1.83-8.31-3.75-12.72-4.97-4.95-1.38-9.73-3.21-14.52-5.05-7.98-3.06-15.97-6.11-24.05-8.9-12-4.14-23.68-9.04-35.13-14.5-3.28-1.56-6.56-3.14-9.77-4.82-3.42-1.79-6.53-4.06-9.49-6.54-1.21-1.01-1.99-2.14-2.06-3.78-.12-2.49-.42-4.97-.57-7.46-.24-3.84-.39-7.69-.62-11.53-.19-3.13-.42-6.26-.66-9.38-.55-7.03-1.11-14.07-1.7-21.09-.44-5.18-.93-10.36-1.43-15.54-.14-1.49-.36-2.97-.57-4.45-.13-.94,0-1.81.37-2.75.33.14.6.22.84.36,5.36,3.3,11.04,5.96,16.88,8.25,11.27,4.42,22.54,8.85,33.9,13.06,12.37,4.58,25.12,7.94,37.89,11.18,5.8,1.47,11.6,2.94,17.38,4.48,4.41,1.17,8.69,2.74,12.96,4.35,1.59.6,3.19,1.18,4.79,1.77.28.92.14,1.77.11,2.61-.26,7.41-.62,14.81-.79,22.22-.3,13.68-.47,27.37-.72,41.05ZM199.45,144.27c-.1,1.49-.31,2.96-.49,4.63-3.85,3.19-16.61,11.95-18.8,12.9-.39-1.34-.37-1.89-.16-3.26.36-2.39.5-4.79-.05-7.18-.09-.41-.11-.85-.1-1.27.01-.99.06-1.98.09-2.83,1.3-1.03,2.46-1.95,3.63-2.87.39-.31.74-.71,1.18-.91,1.84-.83,3.38-2.09,4.97-3.28,1.36-1.02,2.9-1.8,4.36-2.7.48-.3.99-.59,1.37-.99.57-.62,1.33-.8,2.06-1.06.59-.21,1.2.2,1.23.81.05.99.05,1.99.04,2.99-.01,1.07.07,2.11.47,3.14.22.57.27,1.25.22,1.87ZM215.35,63.62c-.88,1.96-.68,4.05-.76,6.1-.08,2.28-.25,4.55-.36,6.83-.06,1.28-.14,2.56-.12,3.84.05,3.13-.11,6.26.13,9.39.13,1.62-.1,3.27-.24,4.9-.41,4.47-.87,8.93-1.28,13.4-.37,4.12-.7,8.23-1.03,12.35-.06.71-.08,1.42-.08,2.13,0,2.21.04,4.42,0,6.63-.02,1.14-.16,2.27-.22,3.4-.09,1.78-.14,3.56-.22,5.34-.04.92-.07,1.84-.11,2.79-.73.63-1.37,1.32-2.14,1.81-2.34,1.5-4.72,2.93-7.1,4.35-.28.17-.67.13-1,.19-.07-.15-.2-.27-.18-.38.33-2.78-.39-5.51-.43-8.27-.02-1.12.15-2.28-.3-3.37-.14-.33-.28-.65-.47-.95-.11-.17-.31-.28-.53-.47-.44.19-.9.35-1.33.58-2.82,1.51-5.63,3.04-8.43,4.57-.37.2-.76.42-1.06.71-1.12,1.02-2.47,1.66-3.73,2.46-1.68,1.06-3.22,2.33-4.79,3.55-.53.41-.74,1.07-.66,1.73.29,2.44-.28,4.82-.49,7.23-.18,2.05-.16,4.13-.15,6.19,0,.69.26,1.38.45,2.31-1,.65-1.95,1.26-2.9,1.89-2.98,1.96-5.96,3.91-8.66,6.25-1.45,1.25-2.85,2.57-4.24,3.91-.71.69-.67.72-2.1,1.14-.07-.24-.23-.5-.2-.73.69-4.66.77-9.36.81-14.06.05-5.63.04-11.26.11-16.89.14-12.11.33-24.23.46-36.34.04-3.49-.08-6.98-.02-10.47.03-1.55.32-3.1.46-4.41,1.25-1.86,2.85-2.91,4.52-3.89,2.58-1.51,5.23-2.91,7.63-4.7.47-.35.95-.65,1.7-.31.03.34.11.74.1,1.14-.06,2.64-.23,5.27-.19,7.9.04,2.05.34,4.11.51,6.16.06.77.55,1.12,1.22,1.29.8.2,1.54,0,2.26-.38,2.95-1.57,5.9-3.13,8.85-4.69,2.27-1.19,4.54-2.36,6.81-3.54.25-.13.49-.3.71-.47,1.11-.88,2.21-1.77,3.52-2.82,0-1.27,0-2.75,0-4.24,0-2.64-.04-5.27,0-7.91.03-1.49.19-2.98.29-4.47.07-1.09.56-1.89,1.59-2.32.33-.14.63-.33.94-.5,3.38-1.98,6.76-3.96,10.13-5.94.43-.25.83-.56,1.29-.75.22-.09.59-.05.76.09.17.14.33.54.25.72Z"/>
  </g>
  <text class="cls-4" transform="translate(84.23 124.23) rotate(10.78)"><tspan x="0" y="0">?</tspan></text>
  <text class="cls-6" transform="translate(69.04 115.08) rotate(10.78)"><tspan x="0" y="0">?</tspan></text>
  <text class="cls-5" transform="translate(105.15 130.46) rotate(10.78)"><tspan x="0" y="0">?</tspan></text>
</svg>