<?xml version="1.0" encoding="UTF-8"?>
<svg id="Layer_2" data-name="Layer 2" xmlns="http://www.w3.org/2000/svg" viewBox="0 0 541.61 270.99">
  <g id="Layer_1-2" data-name="Layer 1">
    <g id="_5Hm5Ml.tif" data-name="5Hm5Ml.tif">
      <g>
        <path d="M66.06,241.17c.3-5.57-.42-11.43,0-16.97.94-12.37,4.53-25.88,5.86-38.55,2.57-24.46,2.46-51.94,8.24-75.6,12.86-52.71,45.65-26.3,82.23-23.59,11.26.84,32.71.9,41.9-5.98,4.39-3.29,6.82-8.66,10.46-12.5,9.18-9.68,24.74-23.71,38.73-24.15,17.38-.55,52.98,25.54,69.42,34.83,33.51,18.94,78.13,46.78,116.9,48.77,29.59,1.52,78.42-15.03,97.15,17.62,10.61,18.49,1.63,74.92-11.8,91.6-32.36,40.19-134.89,35.4-182.11,32.45-63.95-3.99-129.84-18.1-192.64-20.94-21.57-.98-43.62,1.79-65.85-.02-6.25-.51-14.99-1.21-18.48-6.97ZM316.57,91.48l-30.46-18c-2.82,0-19.55,21.69-22.87,25.03-6.38,3.86-13.99-2.67-10.32-9.31l19.68-23.08c-21.68-19.69-40.84,4.46-53.78,20.97-.27,1.5,1.58,2.5,2.59,3.2,9.23,6.38,23.07,13.25,33.25,18.65,29.28,15.54,59.75,28.7,90.36,41.38l1.47-.48c-3.38-2.45-3.83-5.36-2.23-9.23l19.2-22.69c-10.19-4.51-21.28-13.47-31.22-17.7-1.31-.56-2.57-1.03-4.04-.85l-21.33,25.07c-4.77,2.89-11.62-1.06-11.27-6.47.31-4.81,21.97-25.02,20.95-26.5ZM167.97,201.13c86.98,9.1,176.15,24.09,263.91,20.12,21.4-.97,85.47-8.47,93.97-31.78,1.73-4.73,2.72-20.38,2.28-25.63-.76-9.15-3.93-14.66-11.94-19-23.83-12.9-52.95,1.21-78.16-2.33-10.19,12.7-22.02,25-38.19,29.74-22.06,6.46-36.27.25-56.58-7.18-47.69-17.45-93.67-41.61-137.22-67.45-18.92,3.77-37.24,4.39-56.36,1.54-9.81-1.46-19.82-5.07-29.51-6.42-11.9-1.66-16.71-.98-21.66,10.72-2.05,4.84-8.26,31.92-6.07,34.98,33.93,6.61,64.45,29.34,75.53,62.69ZM420.36,139.38c-15.21-1.83-29.31-9.02-43.43-14.64l-21.39,24.16-6.03,3.43c19.96,6.63,37.03,13.31,56.8,1.43,1.68-1.01,16.68-12.15,14.05-14.38ZM151.89,200.25c-5.7-14.99-18.85-28.73-32.63-36.73-6.49-3.77-20.4-10.19-27.75-10.21-1.56,0-1.7-.26-1.51,1.5l-3.99,45.44h65.87ZM521.17,214.23l-17.45,7.99c-110.05,31.49-228.73,1.96-340.36-7-26.19-2.1-52.44-.53-78.72-1.07l-2.64,16.54c.19,2.96,10.25,3.34,13.46,3.53,24.4,1.42,49.15-1.07,73.89.96,93,7.63,194.66,32.31,288.15,17.67,24.36-3.81,55.92-12.08,63.67-38.62Z"/>
        <path d="M472.75,104.68c-13.79-36.82-64.46-21.58-92.06-22.07-45.69-.82-94.16-31.31-133.32-53.57-36.85-20.94-57.25-48.38-95.35-9.21-3.72,3.82-10.26,14.07-13.33,16.22-14.3,10.02-41.1,7.38-57.78,4.55-15.58-2.64-31.12-9.62-47.09-5.44l-6.03,3.52c-9.62,9.74-13.28,23.32-15.7,36.37-3.98,21.39-4.29,46.86-6.63,69.03-1.55,14.72-6.83,35.87-5.12,50.45.86,7.35,3.05,6.94,9.56,8.31,19.03,4,42.4,2.03,63.69,1.58-.35-1.37-.58-2.79-.64-4.24-.16-3.55.88-6.93,2.72-9.81-17.54.14-35.3,1.12-52.22-.26-2.5-.2-8.17-.02-8.87-2.71-.48-1.84,1.1-16.92,2.44-17.44,21.32.5,42.18.12,63.18.64-.73-1.98-1.18-4.09-1.28-6.28-.05-1.12.02-2.21.19-3.28-.1-.67-.16-1.34-.19-2.03-.04-.99,0-1.97.14-2.92l-61.3-.02,5.18-47.49c15.4,3.12,30.35,9.18,42.25,19.75,2.45,2.18,10.17,9.56,11.49,11.82l4.27,7.3c0-.13-.03-.26-.04-.39-.26-5.84,2.71-11.18,7.15-14.7-15.5-20.6-38.81-34.43-64.9-38.38,2.13-10.06,3.48-34.54,11.2-41.53,9.82-8.91,33.61,1.08,45.54,3.15,19.47,3.37,39.73,3.09,58.9-2.01,22.06,12.43,45.23,25.47,68.98,37.46.4-1.81,1.03-3.57,1.91-5.24,1.6-3.02,4.03-5.31,6.88-6.86-22.55-10.76-44.75-22.58-65.92-35.75,13.89-16.01,31.89-40.16,54.21-21.93.7,2.17-17.92,20.3-19.63,24.79-1.26,3.31.49,7.23,3.58,8.81,8.8,4.5,22.91-20.86,29.33-25.55l31.22,18.59c-.4.52-.91,1.13-1.5,1.8.05,0,.1,0,.15,0,5.39,0,10.06,2.23,13.43,5.76.41-.36.79-.65,1.13-.85l34.07,18.83c-.56.66-1.48,1.67-2.61,2.9,5.32.43,9.86,3.04,12.98,6.91l2.99-3.53,43.92,14.58c-2.09,2.41-4.21,4.58-6.35,6.55.24-.01.47-.02.71-.02,5.66,0,10.53,2.47,13.93,6.33,2.95-3.23,5.81-6.79,8.59-10.69,22.55,2.84,74.06-14.31,88.06,11.08,2.33,4.23,2.84,16.5,1.76,26.17,3.89-.39,7.95.34,11.64,2.29.85.45,1.64.99,2.38,1.58,1.4-13.17.96-25.35-1.87-32.9Z"/>
      </g>
    </g>
  </g>
</svg>