<svg width="35" height="18" viewBox="0 0 35 18" fill="none" xmlns="http://www.w3.org/2000/svg">
<g clip-path="url(#clip0_2840_3452)">
<path d="M4.21631 16.0692L4.21906 16.0165C4.22811 15.844 4.22263 15.6669 4.21707 15.4874C4.21675 15.477 4.21643 15.4667 4.21611 15.4563C4.2103 15.267 4.20534 15.0752 4.21913 14.8883L4.21913 14.8883C4.24972 14.4746 4.32335 14.0424 4.39965 13.6104C4.40526 13.5787 4.41088 13.5469 4.41651 13.5151C4.48751 13.1141 4.55833 12.7141 4.59794 12.3263L4.64768 12.3313L4.59794 12.3263C4.65089 11.8083 4.68614 11.2708 4.72183 10.7267C4.74207 10.4181 4.76245 10.1074 4.78628 9.79679C4.852 8.94029 4.94383 8.08791 5.13152 7.29821L4.21631 16.0692ZM4.21631 16.0692H4.24178M4.21631 16.0692H4.24178M4.24178 16.0692C4.36575 16.2606 4.56958 16.3668 4.78596 16.4294C5.00958 16.4942 5.2546 16.5147 5.45474 16.5315L5.45968 16.5319L5.45969 16.5319C6.18114 16.5923 6.8991 16.5763 7.60914 16.5534C7.6818 16.5511 7.75437 16.5487 7.82685 16.5463C8.46353 16.5252 9.09337 16.5043 9.7169 16.5334C11.7434 16.6276 13.8203 16.9087 15.9089 17.1998C16.0093 17.2138 16.1097 17.2278 16.2102 17.2418C18.1986 17.5193 20.1958 17.798 22.1648 17.9242C23.6907 18.0222 26.1136 18.151 28.4173 17.9209C29.5692 17.8059 30.6931 17.6009 31.6612 17.2566C32.6289 16.9124 33.4449 16.4274 33.9757 15.7498C34.1983 15.4657 34.3994 15.0169 34.5658 14.4886C34.7325 13.9591 34.8655 13.3455 34.9498 12.7286C35.034 12.1117 35.0697 11.4902 35.041 10.9449C35.0124 10.4012 34.9196 9.92736 34.7426 9.61019C34.1239 8.5016 33.0081 8.23289 31.8235 8.22397C31.2545 8.21968 30.6656 8.27526 30.1036 8.32829L30.0336 8.3349C29.4492 8.38995 28.8972 8.43927 28.4235 8.41426C27.1809 8.3487 25.841 7.85686 24.5382 7.22172C23.4997 6.71543 22.4885 6.12 21.5717 5.58016C21.3385 5.44289 21.1115 5.3092 20.8917 5.1815L20.8665 5.22473L20.8917 5.18149C20.6415 5.03622 20.322 4.82851 19.9636 4.59553C19.9434 4.58239 19.9231 4.56916 19.9026 4.55586C19.52 4.30722 19.097 4.03339 18.6719 3.77993C18.2469 3.52654 17.8187 3.29278 17.4255 3.12454C17.0337 2.95687 16.671 2.85174 16.3789 2.86124L4.24178 16.0692ZM10.4978 5.69298L10.4979 5.69298C10.8598 5.72073 11.3853 5.73555 11.8933 5.68675C12.404 5.6377 12.8864 5.5252 13.1712 5.30599C13.3066 5.20168 13.4132 5.06331 13.5169 4.91545C13.5371 4.88675 13.5572 4.85761 13.5774 4.8283C13.6598 4.70867 13.744 4.58646 13.8409 4.48143L13.8409 4.48143C14.1386 4.15875 14.5409 3.76235 14.9832 3.44259C15.4243 3.12373 15.9117 2.87635 16.3789 2.86124L10.4978 5.69298ZM10.4978 5.69298C9.91382 5.6485 9.34417 5.50708 8.80117 5.37228M10.4978 5.69298L8.80117 5.37228M20.4003 6.10006C20.3949 6.10998 20.3871 6.12263 20.3765 6.13812C20.346 6.18264 20.2981 6.24278 20.2371 6.31491C20.1484 6.41982 20.0349 6.547 19.9131 6.68353C19.8677 6.73447 19.821 6.78671 19.7741 6.83958C19.602 7.03348 19.4262 7.23546 19.292 7.40928C19.225 7.49613 19.1676 7.57698 19.126 7.64697C19.0858 7.71472 19.0558 7.77972 19.0525 7.83269M20.4003 6.10006L19.0525 7.83269M20.4003 6.10006L18.4809 4.9342C18.4781 4.93555 18.4746 4.9374 18.4702 4.93996C18.4556 4.9486 18.4369 4.96225 18.4142 4.98129C18.369 5.01924 18.3126 5.07474 18.2479 5.1435C18.1187 5.28078 17.9607 5.46674 17.8008 5.66056C17.6773 5.81031 17.5533 5.96415 17.4412 6.10318C17.4083 6.14398 17.3764 6.18351 17.3459 6.22129C17.2123 6.38661 17.1027 6.5205 17.0471 6.57799L17.0384 6.587L17.0376 6.58569C16.5855 6.86685 16.0368 6.3911 16.3003 5.90115L16.305 5.89226L16.3058 5.89291L17.5472 4.39648C17.2161 4.09837 16.8985 3.96854 16.5971 3.95339C16.2844 3.93767 15.9824 4.04498 15.6934 4.22873C15.1171 4.59515 14.6069 5.25581 14.189 5.80377C14.1889 5.82589 14.2011 5.84865 14.2282 5.87503C14.2521 5.89831 14.2803 5.9175 14.3083 5.93658L20.4003 6.10006ZM19.0525 7.83269C19.0525 7.83269 19.0525 7.83269 19.0525 7.83268L19.1024 7.83582L19.0525 7.83269ZM19.0525 7.83269C19.0397 8.03501 19.1581 8.20656 19.317 8.30049C19.4759 8.39444 19.684 8.41582 19.8571 8.30802L19.864 8.30373L19.8692 8.29746L21.2343 6.64822C21.3068 6.64405 21.3724 6.66848 21.45 6.70259L21.4501 6.70262C21.7668 6.84116 22.103 7.05774 22.4456 7.27965L22.4633 7.2911C22.7785 7.49523 23.0986 7.70261 23.408 7.85053L22.2083 9.30786L22.2034 9.31382L22.2005 9.32098C22.1468 9.4544 22.1248 9.57775 22.1494 9.69205C22.1678 9.77797 22.2116 9.85453 22.2807 9.92375C20.3146 9.08621 18.3595 8.21707 16.4807 7.19213L16.4807 7.19212C16.3568 7.12457 16.2248 7.05371 16.0882 6.98037C15.4968 6.66285 14.819 6.29892 14.3371 5.95651L19.0525 7.83269ZM9.74291 13.2511C9.36642 12.2942 8.54364 11.4189 7.68127 10.9043L7.68126 10.9043C7.47374 10.7804 7.1464 10.6123 6.81212 10.4752C6.4759 10.3372 6.14047 10.2339 5.91363 10.2332C5.91358 10.2332 5.91354 10.2332 5.91349 10.2332L5.91363 10.1832C5.90077 10.1832 5.88941 10.1829 5.87939 10.1827L9.74291 13.2511ZM9.74291 13.2511H5.61266L5.86587 10.2871L5.86678 10.2872L5.86578 10.2776C5.86362 10.2571 5.86237 10.2427 5.86195 10.2323L9.74291 13.2511ZM8.80117 5.37228L8.7954 5.37084M8.80117 5.37228L8.7954 5.37084M8.7954 5.37084C8.2528 5.23614 7.73467 5.10774 7.26355 5.09587M8.7954 5.37084L7.26355 5.09587M7.26355 5.09587C6.7902 5.08394 6.35944 5.18943 5.99474 5.5258M7.26355 5.09587L5.99474 5.5258M5.99474 5.5258C5.63182 5.86053 5.34034 6.41846 5.13152 7.29819L5.99474 5.5258ZM33.9345 12.5683L33.9345 12.5684C33.8033 12.938 33.4548 13.2518 32.9716 13.5151C32.4897 13.7778 31.8819 13.986 31.2456 14.1486C29.9731 14.4736 28.5958 14.614 27.9067 14.6461C23.5473 14.8488 19.1349 14.3067 14.7697 13.7703C13.4721 13.6109 12.1787 13.452 10.8921 13.3133C10.1641 11.1033 8.1955 9.59762 6.00786 9.15139C6.00604 9.1458 6.00417 9.1387 6.00242 9.1298C5.99831 9.10893 5.99559 9.08192 5.99449 9.04883C5.99228 8.98269 5.99665 8.89695 6.00645 8.79679C6.02602 8.59675 6.06674 8.34451 6.11621 8.08755C6.21549 7.5718 6.34816 7.04651 6.41221 6.89107L6.41222 6.89106C6.57087 6.50561 6.72212 6.3155 6.91766 6.22894C7.11651 6.14091 7.37237 6.15408 7.7586 6.20946L7.75861 6.20946C8.06845 6.25383 8.38399 6.33543 8.70367 6.41883L8.7226 6.42377C9.03511 6.5053 9.35147 6.58785 9.66514 6.63583C10.9004 6.82508 12.0842 6.78506 13.3055 6.53703C16.1162 8.25037 19.0848 9.85283 22.1647 11.0112C22.2468 11.042 22.3274 11.0726 22.4068 11.1027C23.5937 11.553 24.4993 11.8966 25.853 11.4891L25.8386 11.4413L25.853 11.4891C26.9045 11.1723 27.6728 10.3559 28.3281 9.51936C28.9698 9.60648 29.6505 9.51694 30.3259 9.42809C30.5083 9.4041 30.6903 9.38017 30.871 9.35977C31.7363 9.26211 32.5778 9.24406 33.333 9.6643C33.5862 9.80529 33.7595 9.96329 33.876 10.1575C33.9927 10.3522 34.0549 10.5873 34.0791 10.8867L34.0791 10.8867C34.093 11.057 34.0844 11.4008 34.058 11.743C34.0449 11.9136 34.0274 12.0827 34.0063 12.2284C33.9851 12.3751 33.9607 12.4948 33.9345 12.5683ZM22.7889 10.1348C22.7612 10.1253 22.7335 10.1158 22.7056 10.1062L23.0011 9.93345L23.0083 9.92924L23.0137 9.92292L24.3724 8.34545C24.5536 8.42008 24.7355 8.49894 24.9184 8.57826C25.632 8.88778 26.3621 9.2044 27.1346 9.30453C27.1345 9.3088 27.1337 9.31523 27.131 9.32428C27.1231 9.35034 27.103 9.38604 27.0698 9.43018C27.0041 9.51748 26.8984 9.62336 26.7816 9.7288C26.548 9.93971 26.2811 10.1393 26.2304 10.1706C25.0369 10.9077 24.0021 10.552 22.7889 10.1348ZM32.5728 14.8057L33.5983 14.323C33.3333 15.1271 32.7314 15.6647 32.0019 16.0339C31.2397 16.4197 30.3424 16.6193 29.5568 16.7456C26.5427 17.2307 23.3953 17.0646 20.2479 16.7132C18.9519 16.5684 17.6544 16.392 16.3665 16.2169C14.5305 15.9673 12.7138 15.7204 10.948 15.5715C10.1458 15.5038 9.34401 15.5115 8.54732 15.5242C8.48921 15.5251 8.43113 15.5261 8.37308 15.527C7.63451 15.5392 6.90071 15.5512 6.17192 15.5076C6.15976 15.5069 6.14618 15.5061 6.13139 15.5052C6.01836 15.4987 5.83425 15.4882 5.66922 15.46C5.57557 15.444 5.49177 15.4229 5.43182 15.3954C5.37274 15.3683 5.35298 15.3429 5.3495 15.3241L5.51237 14.2753C6.12106 14.2873 6.7277 14.2818 7.33316 14.2763C8.40841 14.2666 9.47995 14.2569 10.5526 14.3453C12.3355 14.4924 14.1464 14.723 15.9711 14.9554L16.0303 14.9629C17.8747 15.1978 19.733 15.4336 21.5883 15.5853C25.2989 15.8889 29.0012 15.8568 32.5656 14.8084L32.5658 14.809L32.5728 14.8057Z" fill="#808080" stroke="#808080" stroke-width="0.1"/>
<path d="M14.8297 4.7998C14.8194 4.83235 14.8123 4.86291 14.811 4.8908C14.8065 4.96719 14.8006 5.03428 14.8278 5.10402C14.8672 5.11066 14.9066 5.1193 14.9448 5.12993C14.8937 5.02697 14.8543 4.91604 14.8297 4.80047V4.7998Z" fill="#808080"/>
<path d="M1.55603 6.20144C3.2343 6.47637 4.73197 7.39733 5.73125 8.76242L5.75929 8.80072L5.72249 8.83071C5.44596 9.05606 5.2631 9.39602 5.27877 9.7653C5.27879 9.7656 5.2788 9.7659 5.27881 9.76621L1.55603 6.20144ZM1.55603 6.20144C1.58586 6.04426 1.6137 5.84432 1.6442 5.62527L1.64745 5.60189C1.6828 5.34812 1.72206 5.06877 1.77252 4.79598C1.823 4.52303 1.88442 4.25827 1.96365 4.03364C2.0433 3.80786 2.13899 3.62842 2.25476 3.52068L2.2548 3.52064C2.40223 3.38315 2.60478 3.31598 2.84366 3.29761C3.0826 3.27924 3.35332 3.31009 3.63145 3.36428C3.90933 3.41841 4.19186 3.49525 4.45448 3.56759C4.46721 3.5711 4.4799 3.5746 4.49254 3.57808C4.73951 3.64616 4.96877 3.70935 5.15481 3.74253L5.15483 3.74254C6.41241 3.96627 7.72185 3.94921 8.96283 3.61352C10.3829 4.43595 11.875 5.29873 13.4044 6.09239L13.4626 6.12256L13.4764 6.05852C13.5013 5.94234 13.5406 5.8296 13.5954 5.72276C13.6939 5.53166 13.8436 5.38649 14.0199 5.28793L14.1031 5.2414L14.0175 5.1994C12.5787 4.4937 11.1623 3.71949 9.8106 2.85822C9.85814 2.80161 9.90632 2.74377 9.95513 2.68516C10.3607 2.19818 10.8105 1.6581 11.3103 1.33027C11.5968 1.1424 11.8958 1.02707 12.2086 1.03022C12.5148 1.0333 12.8403 1.14987 13.1864 1.43446C13.1816 1.44711 13.1727 1.46453 13.1591 1.48692C13.1319 1.53164 13.0896 1.58981 13.0359 1.65829C12.9286 1.79497 12.7798 1.96735 12.6251 2.14578C12.6144 2.15821 12.6035 2.17067 12.5927 2.18314C12.4487 2.34924 12.3019 2.51844 12.1826 2.66527C12.1185 2.74421 12.0618 2.8173 12.0174 2.88042C11.9738 2.9425 11.9396 2.99845 11.9234 3.04226L11.9234 3.04227C11.8326 3.28739 11.9581 3.57331 12.1783 3.68908C12.3465 3.77749 12.5321 3.71405 12.708 3.59047C12.8857 3.46569 13.0695 3.26906 13.2454 3.05711C13.3723 2.90426 13.497 2.74108 13.6136 2.58856C13.6588 2.52935 13.7028 2.47174 13.7453 2.41697C13.8858 2.23565 14.0068 2.0885 14.1008 2.00869L16.0407 3.19599C16.0225 3.21869 16.002 3.24334 15.9796 3.26955L15.9088 3.35208H16.0175H16.0175H16.0176H16.0176H16.0176H16.0176H16.0176H16.0177H16.0177H16.0177H16.0177H16.0177H16.0178H16.0178H16.0178H16.0178H16.0178H16.0178H16.0179H16.0179H16.0179H16.0179H16.0179H16.018H16.018H16.018H16.018H16.018H16.0181H16.0181H16.0181H16.0181H16.0181H16.0182H16.0182H16.0182H16.0182H16.0182H16.0182H16.0183H16.0183H16.0183H16.0183H16.0183H16.0184H16.0184H16.0184H16.0184H16.0184H16.0185H16.0185H16.0185H16.0185H16.0185H16.0185H16.0186H16.0186H16.0186H16.0186H16.0186H16.0187H16.0187H16.0187H16.0187H16.0187H16.0188H16.0188H16.0188H16.0188H16.0188H16.0189H16.0189H16.0189H16.0189H16.0189H16.0189H16.019H16.019H16.019H16.019H16.019H16.0191H16.0191H16.0191H16.0191H16.0191H16.0192H16.0192H16.0192H16.0192H16.0192H16.0192H16.0193H16.0193H16.0193H16.0193H16.0193H16.0194H16.0194H16.0194H16.0194H16.0194H16.0195H16.0195H16.0195H16.0195H16.0195H16.0196H16.0196H16.0196H16.0196H16.0196H16.0196H16.0197H16.0197H16.0197H16.0197H16.0197H16.0198H16.0198H16.0198H16.0198H16.0198H16.0199H16.0199H16.0199H16.0199H16.0199H16.02H16.02H16.02H16.02H16.02H16.02H16.0201H16.0201H16.0201H16.0201H16.0201H16.0202H16.0202H16.0202H16.0202H16.0202H16.0203H16.0203H16.0203H16.0203H16.0203H16.0203H16.0204H16.0204H16.0204H16.0204H16.0204H16.0205H16.0205H16.0205H16.0205H16.0205H16.0206H16.0206H16.0206H16.0206H16.0206H16.0207H16.0207H16.0207H16.0207H16.0207H16.0207H16.0208H16.0208H16.0208H16.0208H16.0208H16.0209H16.0209H16.0209H16.0209H16.0209H16.021H16.021H16.021H16.021H16.021H16.021H16.0211H16.0211H16.0211H16.0211H16.0211H16.0212H16.0212H16.0212H16.0212H16.0212H16.0213H16.0213H16.0213H16.0213H16.0213H16.0214H16.0214H16.0214H16.0214H16.0214H16.0214H16.0215H16.0215H16.0215H16.0215H16.0215H16.0216H16.0216H16.0216H16.0216H16.0216H16.0217H16.0217H16.0217H16.0217H16.0217H16.0217H16.0218H16.0218H16.0218H16.0218H16.0218H16.0219H16.0219H16.0219H16.0219H16.0219H16.022H16.022H16.022H16.022H16.022H16.0221H16.0221H16.0221H16.0221H16.0221H16.0221H16.0222H16.0222H16.0222H16.0222H16.0222H16.0223H16.0223H16.0223H16.0223H16.0223H16.0224H16.0224H16.0224H16.0224H16.0224H16.0224H16.0225H16.0225H16.0225H16.0225H16.0225H16.0226H16.0226H16.0226H16.0226H16.0226H16.0227H16.0227H16.0227H16.0227H16.0227H16.0228H16.0228H16.0228H16.0228H16.0228H16.0228H16.0229H16.0229H16.0229H16.0229H16.0229H16.023H16.023H16.023H16.023H16.023H16.0231H16.0231H16.0231H16.0231H16.0231H16.0231H16.0232H16.0232H16.0232H16.0232H16.0232H16.0233H16.0233H16.0233H16.0233H16.0233H16.0234H16.0234H16.0234H16.0234H16.0234H16.0235H16.0235H16.0235H16.0235H16.0235H16.0235H16.0236H16.0236H16.0236H16.0236H16.0236H16.0237H16.0237H16.0237H16.0237H16.0237H16.0238H16.0238H16.0238H16.0238H16.0238H16.0238H16.0239H16.0239H16.0239H16.0239H16.0239H16.024H16.024H16.024H16.024H16.024H16.0241H16.0241H16.0241H16.0241H16.0241H16.0242H16.0242H16.0242H16.0242H16.0242H16.0242H16.0243H16.0243H16.0243H16.0243H16.0243H16.0244H16.0244H16.0244H16.0244H16.0244H16.0245H16.0245H16.0245H16.0245H16.0245H16.0245H16.0246H16.0246H16.0246H16.0246H16.0246H16.0247H16.0247H16.0247H16.0247H16.0247H16.0248H16.0248H16.0248H16.0248H16.0248H16.0249H16.0249H16.0249H16.0249H16.0249H16.0249H16.025H16.025H16.025H16.025H16.025H16.0251H16.0251H16.0251H16.0251H16.0251H16.0252H16.0252H16.0252H16.0252H16.0252H16.0253H16.0253H16.0253H16.0253H16.0253H16.0253H16.0254H16.0254H16.0254H16.0254H16.0254H16.0255H16.0255H16.0255H16.0255H16.0255H16.0256H16.0256H16.0256H16.0256H16.0256H16.0256H16.0257H16.0257H16.0257H16.0257H16.0257H16.0258H16.0258H16.0258H16.0258H16.0258H16.0259H16.0259H16.0259H16.0259H16.0259H16.026H16.026H16.026H16.026H16.026H16.026H16.0261H16.0261H16.0261H16.0261H16.0261H16.0262H16.0262H16.0262H16.0262H16.0262H16.0263H16.0263H16.0263H16.0263H16.0263H16.0263H16.0264H16.0264H16.0264H16.0264H16.0264H16.0265H16.0265H16.0265H16.0265H16.0265H16.0266H16.0266H16.0266H16.0266H16.0266H16.0267H16.0267H16.0267H16.0267H16.0267H16.0267H16.0268H16.0268H16.0268H16.0268H16.0268H16.0269H16.0269H16.0269H16.0269H16.0269H16.027H16.027H16.027H16.027H16.027H16.0271H16.0271H16.0271H16.0271H16.0271H16.0271H16.0272H16.0272H16.0272H16.0272C16.3606 3.35208 16.6494 3.49361 16.8585 3.7187L16.892 3.75482L16.9286 3.72179C16.9438 3.70809 16.9578 3.69649 16.9704 3.68704L19.0926 4.89263C19.0587 4.93189 19.0148 4.9813 18.9639 5.03827L18.897 5.11311L18.997 5.12142C19.3258 5.14874 19.6069 5.31444 19.8006 5.56143L19.839 5.61037L19.8785 5.56237L20.0497 5.35459L22.7855 6.28807C22.6671 6.42462 22.5473 6.54909 22.4266 6.6633L22.3294 6.7553L22.4631 6.74958L22.4645 6.74952C22.4797 6.74887 22.4931 6.74829 22.5069 6.74829C22.8568 6.74829 23.158 6.905 23.3691 7.15129L23.4064 7.1948L23.4444 7.15196C23.6304 6.94265 23.8107 6.71283 23.986 6.46197C24.353 6.5043 24.8279 6.46823 25.3439 6.41585C25.4619 6.40387 25.5822 6.39102 25.704 6.37801C26.1321 6.33228 26.5796 6.28448 27.0169 6.26493C27.5788 6.23981 28.1188 6.26169 28.573 6.39275C29.0261 6.52345 29.3906 6.76171 29.6087 7.16827C29.6427 7.23168 29.6719 7.32927 29.6947 7.45352C29.7174 7.57686 29.7333 7.72299 29.7424 7.88117C29.7606 8.19757 29.7514 8.55913 29.7168 8.87755L29.7101 8.93903L29.7717 8.93269C30.0132 8.9078 30.2654 8.95436 30.4949 9.079C30.5465 9.10708 30.5949 9.14105 30.6408 9.17868L30.7127 9.23758L30.7223 9.14515C30.8129 8.26862 30.7856 7.45014 30.5987 6.93756L30.595 6.92751L30.5937 6.92615C30.3663 6.30892 29.9879 5.90709 29.5196 5.65315C29.0502 5.39861 28.4932 5.29405 27.913 5.26551C27.3326 5.23696 26.7251 5.28436 26.1534 5.33647C26.0819 5.34299 26.0109 5.34958 25.9406 5.35611C25.4478 5.40189 24.9894 5.44447 24.6022 5.43741C23.1363 5.41037 21.6227 4.89386 20.1568 4.19714C18.9634 3.62993 17.8051 2.94506 16.7322 2.31067C16.4872 2.16579 16.2466 2.02355 16.0111 1.88594L15.9859 1.92911L16.0111 1.88594C15.5822 1.63546 15.1887 1.3714 14.8152 1.12081C14.6715 1.02438 14.5308 0.929945 14.3921 0.83905C13.8949 0.513054 13.4251 0.232814 12.9508 0.0784298C12.4747 -0.0765095 11.9934 -0.104913 11.4746 0.0724033C10.9571 0.249233 10.4065 0.629208 9.78784 1.28297C9.78784 1.28298 9.78783 1.28298 9.78782 1.28299L9.82414 1.31736L1.55603 6.20144ZM1.12277 11.34C1.12031 11.3452 1.11747 11.3521 1.11434 11.3609C1.10443 11.3887 1.094 11.4286 1.08354 11.4782C1.06271 11.5768 1.043 11.7074 1.02685 11.8418C1.01071 11.9759 0.998254 12.1126 0.99176 12.2231C0.98851 12.2784 0.986782 12.3266 0.98679 12.3644C0.986797 12.4042 0.988813 12.4272 0.990935 12.4356L0.990943 12.4356C0.997835 12.4628 1.01726 12.486 1.05283 12.5059C1.08904 12.5262 1.13788 12.5406 1.19425 12.5507C1.27404 12.565 1.35831 12.5692 1.4315 12.5728C1.46347 12.5744 1.49332 12.5759 1.51977 12.5781L1.51985 12.5781C2.32299 12.6454 3.15457 12.6279 3.99128 12.6102C4.2905 12.6039 4.59037 12.5976 4.88983 12.5952L4.98065 12.5944L4.9327 12.6715C4.81858 12.8552 4.75456 13.0698 4.76442 13.2946L4.76443 13.2948C4.76815 13.3873 4.78244 13.4782 4.80435 13.5663L4.81943 13.627L4.75691 13.6284C4.48469 13.6343 4.20656 13.6442 3.92591 13.6543C2.79396 13.6947 1.621 13.7365 0.629481 13.5223L0.629469 13.5223C0.5874 13.5132 0.547058 13.5051 0.509007 13.4975C0.454815 13.4866 0.405271 13.4766 0.362003 13.466C0.287002 13.4478 0.220927 13.4256 0.165802 13.3876C0.0514664 13.3085 0.000541928 13.1728 -0.0274252 12.9271L1.12277 11.34ZM1.12277 11.34C1.79588 11.3559 2.46187 11.358 3.12476 11.3601L3.14916 11.3602C3.82809 11.3624 4.50382 11.3647 5.1817 11.382L5.25469 11.3838L5.23004 11.3151C5.18448 11.1881 5.15645 11.0529 5.15021 10.9127C5.14713 10.8417 5.15144 10.7726 5.16195 10.7046L5.1631 10.6972L5.16202 10.6898C5.15583 10.6472 5.15209 10.6044 5.15022 10.56L1.12277 11.34Z" fill="#808080" stroke="#808080" stroke-width="0.1"/>
</g>
<defs>
<clipPath id="clip0_2840_3452">
<rect width="35" height="18" fill="white"/>
</clipPath>
</defs>
</svg>
