<?xml version="1.0" encoding="UTF-8"?>
<svg id="Layer_1" data-name="Layer 1" xmlns="http://www.w3.org/2000/svg" viewBox="0 0 251 205">
  <defs>
    <style>
      .cls-1 {
        letter-spacing: 0em;
      }

      .cls-2 {
        fill: #fff;
      }

      .cls-3 {
        font-family: ChalkboardSE-Bold, 'Chalkboard SE';
        font-size: 14.04px;
        font-weight: 700;
      }
    </style>
  </defs>
  <g>
    <path d="M173.62,153.16c-.57.36-1.6.09-2.28-.07-2.45-.58-18.87-10.69-20.95-12.67-3.13-2.96-.06-2.73-.13-6.08l-74.34-46.59c-.37-1.23.92-2.36-.04-3.49-2.49-2.94-17.81-8.57-18.91-12.61-.27-.98-.03-1.52.22-2.4.34-1.24,9.1-15.88,9.84-16.48,1.9-1.53,2.81-1.24,4.98-.48,2.95,1.04,15.62,10.28,16.63,10.27.62,0,2.17-3.15,4.02-1.78l74.78,45.68,1.88-2.55,1.67-.22,22.5,14.08c.42.41.69.9.68,1.5-.06,3.85-19.35,27.4-20.55,33.88ZM87.52,64.15c-4.26-.84-14.84-10.42-18.47-9.41-.76.21-1.13.83-1.59,1.39-.8.98-6.94,11.4-7.31,12.43-.29.81-.66,1.47-.3,2.36l17.82,11.39,9.85-18.17ZM152.51,132.06l12.83-22.66-73.44-44.93-12.4,22.29,73.02,45.29ZM170.5,107.31l-18.62,30.55,19.89,12.12,18.62-30.55-19.89-12.12Z"/>
    <polygon class="cls-2" points="152.51 132.06 79.49 86.77 91.9 64.48 165.34 109.41 152.51 132.06"/>
    <rect class="cls-2" x="153.24" y="117" width="35.78" height="23.29" transform="translate(-27.79 207.82) rotate(-58.64)"/>
    <path class="cls-2" d="M87.52,64.15l-9.85,18.17-17.82-11.39c-.36-.89.01-1.56.3-2.36.37-1.04,6.51-11.45,7.31-12.43.46-.57.83-1.18,1.59-1.39,3.62-1.01,14.21,8.57,18.47,9.41Z"/>
  </g>
  <text class="cls-3" transform="translate(93.49 85.61) rotate(31.36)"><tspan x="0" y="0">LIP </tspan><tspan class="cls-1" x="28.38" y="0">B</tspan><tspan x="36.72" y="0">ALM</tspan></text>
</svg>