<?xml version="1.0" encoding="UTF-8"?>
<svg id="Layer_1" data-name="Layer 1" xmlns="http://www.w3.org/2000/svg" viewBox="0 0 251 205">
  <defs>
    <style>
      .cls-1 {
        fill: #fff;
      }

      .cls-1, .cls-2 {
        stroke: #000;
        stroke-miterlimit: 10;
      }

      .cls-2 {
        fill: none;
        stroke-dasharray: 3.03 5.05;
        stroke-linecap: round;
      }
    </style>
  </defs>
  <g>
    <path class="cls-1" d="M91.82,100.72c-1.16-.44-1.62-1.52-2-2.52-3.65-9.6-8.5-20.79-11.97-30.45-.48-1.35-.96-2.83-.24-4.23.94-1.83,3.49-2.79,5.77-3.54,21.31-7.03,43.83-12.48,65.14-19.52,1.6-.53,3.36-1.06,4.88-.67,1.93.5,2.68,2.26,3.22,3.83,3.49,10.21,6.78,20.48,9.87,30.81.27.91.54,1.87.17,2.82-.69,1.79-3.22,2.72-5.41,3.38-21.76,6.58-43.53,13.15-65.29,19.73-1.38.42-2.93.83-4.16.37Z"/>
    <path class="cls-1" d="M94.82,95.71c-1.01-.34-1.41-1.21-1.72-2.02-3.05-7.78-7.14-16.84-10.02-24.67-.4-1.1-.79-2.3-.13-3.46.86-1.51,3.13-2.34,5.15-3,18.94-6.12,38.91-10.97,57.85-17.1,1.42-.46,2.98-.93,4.32-.63,1.69.37,2.33,1.8,2.77,3.07,2.9,8.28,5.63,16.61,8.17,24.99.22.74.44,1.52.1,2.3-.64,1.47-2.89,2.28-4.84,2.86-19.33,5.76-38.65,11.51-57.98,17.27-1.22.36-2.6.73-3.68.37Z"/>
    <path class="cls-1" d="M131.5,67.78c2.19,7,.03,13.9-4.83,15.43-4.86,1.52-10.57-2.92-12.76-9.92-2.19-7-.03-13.9,4.83-15.43,4.86-1.52,10.57,2.92,12.76,9.92Z"/>
  </g>
  <g>
    <path class="cls-1" d="M95.77,107.03c-1.06-.63-1.34-1.78-1.54-2.82-1.95-10.09-4.81-21.94-6.56-32.06-.24-1.41-.45-2.96.49-4.21,1.24-1.64,3.92-2.15,6.29-2.5,22.2-3.27,45.32-4.77,67.53-8.04,1.67-.25,3.49-.47,4.93.18,1.81.82,2.25,2.68,2.51,4.33,1.69,10.66,3.17,21.34,4.44,32.05.11.94.21,1.94-.31,2.81-.99,1.64-3.64,2.13-5.91,2.4-22.57,2.74-45.14,5.48-67.71,8.22-1.43.17-3.03.32-4.16-.35Z"/>
    <path class="cls-1" d="M99.59,102.61c-.94-.51-1.18-1.44-1.35-2.29-1.67-8.19-4.14-17.81-5.64-26.02-.21-1.15-.39-2.4.46-3.43,1.11-1.34,3.49-1.77,5.59-2.07,19.71-2.78,40.22-4.13,59.92-6.91,1.48-.21,3.1-.4,4.37.12,1.6.66,1.98,2.17,2.2,3.5,1.44,8.65,2.69,17.33,3.76,26.03.09.77.18,1.57-.29,2.29-.88,1.34-3.24,1.75-5.25,1.99-20.03,2.35-40.06,4.7-60.09,7.06-1.27.15-2.69.27-3.69-.26Z"/>
    <path class="cls-1" d="M140.52,81.4c.96,7.27-2.36,13.7-7.4,14.37-5.05.66-9.91-4.69-10.87-11.96-.96-7.27,2.36-13.7,7.4-14.37,5.05-.66,9.91,4.69,10.87,11.96Z"/>
  </g>
  <g>
    <path class="cls-1" d="M96,115.06c-.98-.75-1.12-1.92-1.2-2.98-.74-10.25-2.18-22.36-2.73-32.61-.08-1.43-.1-2.99.99-4.12,1.42-1.48,4.14-1.67,6.54-1.74,22.43-.62,45.57.61,68.01-.01,1.68-.05,3.52-.06,4.87.76,1.7,1.03,1.92,2.93,1.98,4.59.42,10.78.62,21.57.62,32.35,0,.95-.02,1.95-.64,2.75-1.17,1.51-3.86,1.68-6.15,1.69-22.74.06-45.47.11-68.21.17-1.44,0-3.05-.04-4.09-.84Z"/>
    <path class="cls-1" d="M100.32,111.13c-.87-.62-1-1.57-1.07-2.43-.69-8.33-2.01-18.18-2.53-26.51-.07-1.17-.1-2.43.86-3.35,1.26-1.2,3.67-1.35,5.8-1.39,19.9-.43,40.42.65,60.32.22,1.49-.03,3.13-.03,4.32.63,1.51.84,1.71,2.39,1.78,3.74.41,8.76.63,17.53.66,26.29,0,.77-.01,1.58-.56,2.24-1.04,1.23-3.42,1.36-5.45,1.35-20.17-.03-40.33-.06-60.5-.09-1.28,0-2.7-.05-3.63-.7Z"/>
    <path class="cls-1" d="M143.47,94.9c.09,7.33-3.96,13.33-9.05,13.39-5.09.06-9.29-5.83-9.38-13.16-.09-7.33,3.96-13.33,9.05-13.39,5.09-.06,9.29,5.83,9.38,13.16Z"/>
  </g>
  <g>
    <path class="cls-1" d="M68.79,145.08c-.95-1.46-.69-3.36-.39-5.07,2.85-16.54,5.51-36.24,8.61-52.73.43-2.31.97-4.8,2.75-6.33,2.32-2,5.79-1.6,8.81-1.08,28.25,4.82,56.69,12.79,84.95,17.61,2.12.36,4.42.82,5.8,2.47,1.75,2.09,1.32,5.17.79,7.84-3.45,17.31-7.17,34.57-11.14,51.77-.35,1.51-.74,3.1-1.82,4.23-2.02,2.11-5.44,1.69-8.31,1.1-28.42-5.8-56.84-11.6-85.26-17.4-1.8-.37-3.79-.86-4.8-2.4Z"/>
    <path class="cls-2" d="M74.17,140.43c-.89-1.27-.68-2.9-.43-4.37,2.36-14.2,4.5-31.13,7.09-45.29.36-1.98.82-4.12,2.42-5.41,2.09-1.69,5.25-1.29,8.01-.81,25.8,4.55,51.81,11.82,77.6,16.37,1.93.34,4.04.77,5.32,2.21,1.62,1.82,1.27,4.47.83,6.76-2.9,14.86-6.03,29.67-9.41,44.43-.3,1.3-.63,2.66-1.59,3.61-1.81,1.79-4.93,1.37-7.55.83-25.96-5.4-51.92-10.8-77.88-16.2-1.65-.34-3.47-.79-4.4-2.13Z"/>
    <path class="cls-1" d="M182.84,126.31c.24-1.55-.82-2.99-2.36-3.24l-15.51-2.52c-2.27-.37-4.6-.74-6.86-.34-4.38.77-7.03,5.01-5.83,9.34.73,2.66,2.58,4.04,4.94,5.14,6.44,3,13.11,5.49,19.93,7.44,1.66.47,3.37-.6,3.63-2.3l2.07-13.52Z"/>
    <path class="cls-1" d="M159.57,123.89c-1.65.04-3.26,1.09-3.73,2.71-.45,1.56.29,3.34,1.65,4.23,2.88,1.88,6.96,0,6.16-3.7-.33-1.52-1.6-2.8-3.12-3.14-.32-.07-.65-.1-.97-.09Z"/>
  </g>
</svg>