<svg width="281" height="217" viewBox="0 0 281 217" fill="none" xmlns="http://www.w3.org/2000/svg">
<path d="M84.1865 177.462C74.4762 177.462 67.1781 175.05 62.292 170.226C57.4678 165.463 55.0557 158.32 55.0557 148.795V35.4258C55.0557 25.8392 57.4678 18.6647 62.292 13.9023C67.1781 9.07812 74.4762 6.66602 84.1865 6.66602H196.721C206.431 6.66602 213.698 9.07812 218.522 13.9023C223.409 18.7266 225.852 25.901 225.852 35.4258V148.795C225.852 158.32 223.409 165.463 218.522 170.226C213.698 175.05 206.431 177.462 196.721 177.462H84.1865ZM84.3721 162.525H196.535C201.112 162.525 204.637 161.319 207.111 158.907C209.647 156.433 210.915 152.784 210.915 147.96V36.2607C210.915 31.4365 209.647 27.7874 207.111 25.3135C204.637 22.8395 201.112 21.6025 196.535 21.6025H84.3721C79.7334 21.6025 76.1771 22.8395 73.7031 25.3135C71.2292 27.7874 69.9922 31.4365 69.9922 36.2607V147.96C69.9922 152.784 71.2292 156.433 73.7031 158.907C76.1771 161.319 79.7334 162.525 84.3721 162.525ZM130.388 135.992C128.841 135.992 127.419 135.652 126.12 134.972C124.883 134.291 123.677 133.209 122.502 131.725L99.8652 103.893C98.4427 101.975 97.7314 100.058 97.7314 98.1406C97.7314 96.0996 98.4118 94.3678 99.7725 92.9453C101.195 91.4609 102.896 90.7188 104.875 90.7188C106.174 90.7188 107.349 90.9971 108.4 91.5537C109.514 92.0485 110.627 93.0381 111.74 94.5225L130.017 118.18L168.518 56.3926C170.249 53.6094 172.414 52.2178 175.012 52.2178C176.929 52.2178 178.661 52.8363 180.207 54.0732C181.753 55.3102 182.526 56.9492 182.526 58.9902C182.526 60.0417 182.279 61.0931 181.784 62.1445C181.351 63.1341 180.856 64.0618 180.3 64.9277L137.902 131.725C136.047 134.57 133.542 135.992 130.388 135.992Z" fill="black"/>
<path fill-rule="evenodd" clip-rule="evenodd" d="M206.413 26.0293L206.404 26.0206C204.17 23.7868 200.932 22.6025 196.535 22.6025H84.3721C79.9092 22.6025 76.6417 23.7891 74.4102 26.0206C72.1856 28.2452 70.9922 31.5992 70.9922 36.2607V147.96C70.9922 152.618 72.184 155.971 74.4057 158.196C76.636 160.367 79.9055 161.525 84.3721 161.525H196.535C200.938 161.525 204.18 160.368 206.413 158.191C208.694 155.966 209.915 152.615 209.915 147.96V36.2607C209.915 31.6057 208.694 28.2549 206.413 26.0293ZM207.111 158.907C204.637 161.319 201.112 162.525 196.535 162.525H84.3721C79.7334 162.525 76.1771 161.319 73.7031 158.907C71.2292 156.433 69.9922 152.784 69.9922 147.96V36.2607C69.9922 31.4365 71.2292 27.7874 73.7031 25.3135C76.1771 22.8395 79.7334 21.6025 84.3721 21.6025H196.535C201.112 21.6025 204.637 22.8395 207.111 25.3135C209.647 27.7874 210.915 31.4365 210.915 36.2607V147.96C210.915 152.784 209.647 156.433 207.111 158.907ZM125.647 135.853L125.638 135.848C124.254 135.086 122.952 133.903 121.722 132.351C121.721 132.349 121.719 132.347 121.718 132.345L99.0754 104.506L99.0621 104.488C97.5436 102.442 96.7314 100.32 96.7314 98.1406C96.7314 95.8526 97.504 93.8702 99.0498 92.2541C100.653 90.5815 102.612 89.7188 104.875 89.7188C106.31 89.7188 107.638 90.025 108.838 90.6541C110.155 91.2484 111.38 92.3768 112.536 93.9169C112.537 93.9188 112.539 93.9206 112.54 93.9225L129.929 116.43L167.669 55.8643C169.528 52.8757 171.976 51.2178 175.012 51.2178C177.164 51.2178 179.114 51.9186 180.832 53.2924C182.624 54.7258 183.526 56.6563 183.526 58.9902C183.526 60.1994 183.242 61.3913 182.695 62.5578C182.243 63.5878 181.726 64.5575 181.143 65.4657C181.142 65.4666 181.142 65.4676 181.141 65.4685L138.74 132.271C136.717 135.373 133.91 136.992 130.388 136.992C128.689 136.992 127.106 136.617 125.656 135.858L125.647 135.853ZM180.3 64.9277C180.856 64.0618 181.351 63.1341 181.784 62.1445C182.279 61.0931 182.526 60.0417 182.526 58.9902C182.526 56.9492 181.753 55.3102 180.207 54.0732C178.661 52.8363 176.929 52.2178 175.012 52.2178C172.414 52.2178 170.249 53.6094 168.518 56.3926L130.017 118.18L111.74 94.5225C110.627 93.0381 109.514 92.0485 108.4 91.5537C107.349 90.9971 106.174 90.7188 104.875 90.7188C102.896 90.7188 101.195 91.4609 99.7725 92.9453C98.4118 94.3678 97.7314 96.0996 97.7314 98.1406C97.7314 100.058 98.4427 101.975 99.8652 103.893L122.502 131.725C123.677 133.209 124.883 134.291 126.12 134.972C127.419 135.652 128.841 135.992 130.388 135.992C133.542 135.992 136.047 134.57 137.902 131.725L180.3 64.9277ZM61.5895 170.937C56.5088 165.922 54.0557 158.477 54.0557 148.795V35.4258C54.0557 25.684 56.5076 18.2074 61.5895 13.1907C66.7286 8.11668 74.3232 5.66602 84.1865 5.66602H196.721C206.582 5.66602 214.148 8.11559 219.227 13.1931C224.366 18.2683 226.852 25.7408 226.852 35.4258V148.795C226.852 158.477 224.367 165.922 219.225 170.937C214.146 176.013 206.58 178.462 196.721 178.462H84.1865C74.3232 178.462 66.7286 176.011 61.5895 170.937ZM218.522 170.226C223.409 165.463 225.852 158.32 225.852 148.795V35.4258C225.852 25.901 223.409 18.7266 218.522 13.9023C213.698 9.07812 206.431 6.66602 196.721 6.66602H84.1865C74.4762 6.66602 67.1781 9.07812 62.292 13.9023C57.4678 18.6647 55.0557 25.8392 55.0557 35.4258V148.795C55.0557 158.32 57.4678 165.463 62.292 170.226C67.1781 175.05 74.4762 177.462 84.1865 177.462H196.721C206.431 177.462 213.698 175.05 218.522 170.226Z" fill="black"/>
</svg>
