<?xml version="1.0" encoding="UTF-8"?>
<svg id="Layer_1" data-name="Layer 1" xmlns="http://www.w3.org/2000/svg" viewBox="0 0 251 205">
  <defs>
    <style>
      .cls-1 {
        fill: #fff;
      }
    </style>
  </defs>
  <g id="ryOrVr">
    <g>
      <path d="M139.99,87.77l29.42-20.42,15.76-19.41c1.03-1.49,3.28-.89,3.11,1.01l-9.99,26.98c-30.1,29.82-60.25,59.61-90.43,89.32-3.45,3.4-7.19,7.74-10.86,10.75-6.08,4.98-17.28-5.46-13.56-12.21l52.43-77.96,35.17-35.19,12.4-22.22c.97-1.3,2.98-.65,2.96.98l-5.11,28.18-21.3,30.21ZM77.49,148.91c13.08-13.58,26.19-27.14,39.29-40.7,4.89-5.06,9.54-10.73,15.22-14.86l26.21-37.03,3.14-17.43-7.92,14-34.86,34.76-41.08,61.26ZM130.95,98.12l-10.23,10.7,9.76,9.76,45-44.38,6.14-16.64-10.25,12.4-40.41,28.16ZM118.34,111.23l-5.36,5.58,9.64,9.64,5.58-5.58-9.86-9.63ZM110.76,119.14l-5.59,5.6,9.53,9.52,5.59-5.6-9.53-9.52ZM112.36,136.63l-9.39-9.45-5.33,5.6,9.14,9.25,5.59-5.4ZM92.15,156.45c4.07-4.02,8.17-8,12.23-12.03l-9.12-9.12c-.93.91-1.87,1.82-2.78,2.75-3.36,3.44-6.6,6.99-9.94,10.44-5.46,5.66-11.1,11.21-16.32,17.08-1.55,3.44,4.62,9.75,8.3,8.17,6.01-5.6,11.79-11.51,17.64-17.29Z"/>
      <path class="cls-1" d="M77.49,148.91l41.08-61.26,34.86-34.76,7.92-14-3.14,17.43-26.21,37.03c-5.68,4.13-10.33,9.8-15.22,14.86-13.1,13.56-26.21,27.12-39.29,40.7Z"/>
      <polygon class="cls-1" points="130.95 98.12 171.36 69.96 181.61 57.56 175.48 74.2 130.47 118.58 120.71 108.82 130.95 98.12"/>
      <path class="cls-1" d="M92.15,156.45c-5.85,5.78-11.63,11.69-17.64,17.29-3.68,1.58-9.84-4.73-8.3-8.17,5.22-5.86,10.86-11.41,16.32-17.08,3.33-3.46,6.58-7.01,9.94-10.44.91-.93,1.85-1.84,2.78-2.75l9.12,9.12c-4.06,4.03-8.16,8.01-12.23,12.03Z"/>
      <polygon class="cls-1" points="118.34 111.23 128.2 120.86 122.62 126.44 112.98 116.81 118.34 111.23"/>
      <rect class="cls-1" x="108.77" y="119.96" width="7.91" height="13.47" transform="translate(-56.57 116.89) rotate(-45.02)"/>
      <polygon class="cls-1" points="112.36 136.63 106.78 142.04 97.64 132.78 102.97 127.18 112.36 136.63"/>
    </g>
  </g>
</svg>