<?xml version="1.0" encoding="UTF-8"?>
<svg id="Layer_1" data-name="Layer 1" xmlns="http://www.w3.org/2000/svg" viewBox="0 0 251 205">
  <defs>
    <style>
      .cls-1 {
        fill: #231f20;
      }

      .cls-2 {
        fill: #fff;
      }
    </style>
  </defs>
  <path class="cls-2" d="M106.69,136.89c1.9-1.4,3.79-2.79,5.69-4.19,3.76-2.76,7.51-5.52,11.3-8.24,1.08-.77,2.15-1.57,3.26-2.29.36-.23.73-.44,1.11-.64-1.13-1.29-2.24-2.6-3.33-3.92-4.3-5.23-8.32-10.69-12.04-16.35-.31.28-.63.54-.97.8-1.26.95-2.55,1.86-3.83,2.78-3.89,2.77-7.8,5.51-11.72,8.25-1.3.91-2.6,1.81-3.9,2.71.61,1.69,1.33,3.33,2.15,4.92,3.12,6.03,7.59,11.29,12.28,16.16ZM117.04,121c1.87-1.19,5.17-3.4,6.75-.6.55.97.62,2.19.06,3.17-.73,1.27-2.17,2.08-3.31,2.92-1.31.97-2.62,1.95-3.94,2.92-.63.47-1.26.94-1.89,1.4-.57.42-1.12.89-1.74,1.24-1.31.73-2.44.17-3.29-.92-.8-1.02-1.33-2.09-.78-3.38.78-1.53,2.37-2.58,3.69-3.61,1.43-1.12,2.92-2.17,4.45-3.15Z"/>
  <path class="cls-2" d="M111.8,129.3s.04.04.06.06c.18-.11.48-.22.69-.37.52-.38.99-.83,1.5-1.21,1.68-1.25,3.37-2.5,5.05-3.75.45-.33.89-.66,1.34-1,.29-.22.66-.44.87-.75.09-.14.07-.18.08-.35,0,.01-.01-.02-.03-.05-.13.03-.28.06-.3.07-.18.07-.36.15-.54.24-1.73.91-3.37,2.08-4.95,3.24-.82.6-1.63,1.23-2.42,1.87-.39.32-.8.63-1.17.99-.15.14-.29.29-.41.46-.03.04-.05.08-.08.12,0,0,0,0,0,0,.1.13.23.27.29.42Z"/>
  <path class="cls-2" d="M170.99,53.38c-.65.47-1.28.97-1.9,1.48-.14.12-.3.24-.43.37-.05.05-.05.05-.08.08.01.04.04.08.06.11,1.13-.86,2.27-1.7,3.43-2.51.46-.32.91-.67,1.36-1.02-.19,0-.39.11-.55.21-.65.38-1.28.83-1.89,1.27Z"/>
  <path class="cls-2" d="M121.35,121.83s-.02-.04-.02-.03c-.02.01,0,.03.02.03Z"/>
  <path class="cls-2" d="M56.72,147.67c-3.44-5.48-6.61-11.46-7.19-17.99-1.25,1-2.47,2.15-3.11,3.59-.89,2,.08,4.03.9,5.87,1.02,2.31,2.09,4.59,3.25,6.84,4.59,8.92,10.86,16.94,18.01,23.96,1.41,1.39,2.8,2.99,4.57,3.92.84.44,1.76.73,2.71.67.99-.06,1.94-.42,2.82-.85.35-.17.68-.36,1.02-.55-3.35-2.14-6.43-4.65-9.24-7.46-5.35-5.35-9.73-11.59-13.75-17.98Z"/>
  <path class="cls-2" d="M104.45,138.53c.32-.23.64-.47.96-.7-1.21-1.27-2.41-2.55-3.57-3.87-4.49-5.12-8.53-10.79-10.93-17.21-.43.3-.86.6-1.29.91.68,1.7,1.43,3.37,2.27,5,3.13,6.02,7.44,11.43,12.56,15.87Z"/>
  <path class="cls-2" d="M91.7,153.07c-2.8-.55-4.35-3.34-4.21-6.03.15-2.95,2.09-5.44,3.95-7.59,1.81-2.1,3.82-4.03,5.9-5.87-.05-.06-.1-.13-.15-.19-2.37,2.45-4.93,4.75-7.7,6.74-2.29,1.65-5.11,3.08-8.02,2.48-2.68-.55-4.91-3.11-4.15-5.94.81-3,3.91-4.73,6.4-6.22.53-.32,1.08-.62,1.62-.92-.59.25-1.18.5-1.78.73-2.67,1-5.69,1.79-8.44.58-2.46-1.08-4.13-3.93-3.12-6.57,1.15-3.01,4.86-3.86,7.64-4.56,1.83-.46,3.67-.8,5.53-1.11-.04,0-.07,0-.11,0-9.67.84-19.53,2.07-28.33,6.44-1.99.99-3.9,2.15-5.69,3.48.17,3.67,1.22,7.21,2.73,10.55,1.4,3.1,3.16,6.02,5,8.87,2.01,3.12,4.09,6.2,6.35,9.15,4.5,5.87,9.75,11.22,16.08,15.1,1.11-.73,2.17-1.54,3.18-2.37,1.85-1.53,3.55-3.23,5.11-5.04,5.69-6.6,9.43-14.52,12.89-22.46-1.09,2.06-2.24,4.09-3.55,6.02-1.6,2.36-3.87,5.36-7.14,4.72Z"/>
  <path class="cls-2" d="M182.08,53.24c-.79-1.02-1.62-2.43-3.06-2.49-1.33-.06-2.54.85-3.55,1.62-2.46,1.88-5.12,3.55-7.46,5.58-.77.67-1.52,1.61-1.13,2.68.24.65.72,1.21,1.14,1.75.52.68,1.05,1.35,1.57,2.03,2.02,2.6,4.06,5.18,6.06,7.8,2,2.61,3.95,5.26,5.82,7.97.47.68.93,1.36,1.38,2.05.38.57.71,1.29,1.21,1.78.43.42,1.07-.1,1.5-.32.71-.37,1.42-.75,2.12-1.14,1.39-.79,2.73-1.66,4.09-2.52,1.23-.77,2.49-1.52,3.61-2.44.92-.76,1.8-1.68,1.94-2.92.15-1.38-.97-2.54-1.74-3.56-.5-.66-.99-1.32-1.49-1.98-3.98-5.31-7.93-10.65-12.01-15.88Z"/>
  <path class="cls-2" d="M80.62,134.49c-.84.73-1.61,1.68-1.81,2.8-.44,2.44,2.1,3.95,4.24,3.86,2.7-.11,4.97-1.84,7.02-3.44,2.17-1.7,4.21-3.56,6.12-5.55-1.19-1.5-2.3-3.06-3.33-4.68-2.93,1.41-5.85,2.83-8.63,4.52-1.24.76-2.5,1.54-3.61,2.49Z"/>
  <path class="cls-2" d="M129.53,120.81c.32-.16.65-.31.97-.48,2.03-1.04,3.81-2.48,5.65-3.81.2-.14.4-.28.59-.42-.88-1.7-1.82-3.37-2.82-5-3.67-6.03-8.08-11.6-13.1-16.56-1.01.72-2.02,1.45-3.03,2.16-1.45,1.02-2.68,2.23-3.93,3.44,1.01,1.54,2.04,3.06,3.09,4.57,3.9,5.59,8.11,10.95,12.59,16.09Z"/>
  <path class="cls-2" d="M79.76,121.31c-2.2.58-5.88,1.3-6.41,4-.45,2.3,1.61,4.08,3.68,4.45,2.57.46,5.2-.63,7.52-1.62,2.3-.97,4.52-2.13,6.68-3.38-.93-1.66-1.76-3.37-2.52-5.11-3.01.44-6.02.89-8.96,1.66Z"/>
  <path class="cls-2" d="M138.03,115.17c7.06-5.05,14.22-9.96,21.37-14.87,7.67-5.27,15.32-10.58,22.81-16.1-.32-.48-.61-.98-.93-1.45-.49-.74-.99-1.47-1.5-2.2-2.06-2.97-4.24-5.87-6.45-8.73-2.21-2.87-4.46-5.71-6.67-8.57-.38-.49-.76-1.02-1.04-1.58-.71.5-1.43,1-2.14,1.5-7.75,5.48-15.34,11.16-22.93,16.85-6.11,4.58-12.23,9.14-18.43,13.6,1.3,1.29,2.56,2.61,3.78,3.98,4.75,5.34,8.81,11.26,12.13,17.59Z"/>
  <path class="cls-2" d="M98.39,134.78c-2.12,1.86-4.16,3.84-5.98,5.99-1.58,1.87-3.33,4.06-3.34,6.63-.01,2.12,1.55,4.47,3.91,4.11,1.32-.2,2.34-1.16,3.15-2.15.91-1.11,1.7-2.32,2.47-3.54,1.41-2.25,2.62-4.62,3.82-6.98-1.06-.96-2.09-1.95-3.07-3-.33-.35-.64-.71-.96-1.07Z"/>
  <path class="cls-1" d="M195.57,71.11c.62.82,1.91-.11,1.3-.93-.62-.82-1.91.11-1.3.93Z"/>
  <path class="cls-1" d="M166.34,61.16c-.24.17-.48.34-.72.5.28.56.66,1.08,1.04,1.58,2.21,2.87,4.46,5.7,6.67,8.57,2.21,2.87,4.38,5.76,6.45,8.73.51.73,1.01,1.46,1.5,2.2.32.47.61.97.93,1.45.14-.11.29-.21.43-.32.83-.61,1.75.69.93,1.3-.1.07-.2.14-.29.22.37.26.79.43,1.27.39.77-.07,1.5-.56,2.16-.91,1.58-.83,3.13-1.72,4.64-2.68,1.36-.86,2.75-1.69,4.06-2.62,1.2-.85,2.43-1.86,3.07-3.22.66-1.41.53-2.89-.23-4.23-.39-.69-.9-1.31-1.38-1.94.62.82-.68,1.75-1.3.93.77,1.02,1.89,2.17,1.74,3.56-.14,1.24-1.01,2.17-1.94,2.92-1.13.92-2.38,1.67-3.61,2.44-1.36.85-2.7,1.72-4.09,2.52-.7.4-1.4.78-2.12,1.14-.43.22-1.07.74-1.5.32-.5-.48-.83-1.2-1.21-1.78-.45-.69-.91-1.37-1.38-2.05-1.86-2.71-3.82-5.36-5.82-7.97-2-2.62-4.04-5.2-6.06-7.8-.53-.67-1.05-1.35-1.57-2.03-.42-.54-.9-1.1-1.14-1.75-.39-1.07.36-2.01,1.13-2.68,2.34-2.04,5-3.7,7.46-5.58,1-.77,2.21-1.68,3.55-1.62,1.44.06,2.27,1.48,3.06,2.49,4.08,5.24,8.02,10.57,12.01,15.88.5.66.99,1.32,1.49,1.98-.62-.82.68-1.75,1.3-.93-4.35-5.78-8.63-11.6-13.07-17.32-.96-1.24-1.94-2.87-3.47-3.45-1.45-.54-2.94-.12-4.23.61-.45.25-.88.55-1.3.85.26.26.44.61.48,1.01.1,1.02-1.48,1.17-1.59.15,0,0,.08.1.01,0-.01-.02-.02-.03-.02-.03,0,0-.01,0-.03-.02-.05-.04-.09-.06-.16-.07-.02,0-.04,0-.07,0-.45.35-.89.69-1.36,1.02-1.16.81-2.3,1.65-3.43,2.51.07.11.15.22.24.3.3.31.42.75.12,1.12-.25.31-.82.43-1.12.12-.18-.18-.35-.37-.5-.57-.92.76-1.79,1.63-2.11,2.81-.07.27-.09.54-.09.8.07-.05.15-.11.22-.16.84-.59,1.77.71.93,1.3Z"/>
  <path class="cls-1" d="M168.54,55.37s.03-.04.04-.05c0,0-.01-.02-.02-.03,0,.02-.04.11-.02.08Z"/>
  <path class="cls-1" d="M168.64,55.43s-.05-.08-.06-.11c0,.01-.02.03-.04.05-.02.03.03-.06.02-.08,0,0,.01.02.02.03.03-.04.03-.04.08-.08.13-.13.29-.25.43-.37.62-.52,1.25-1.01,1.9-1.48.61-.44,1.23-.89,1.89-1.27.16-.09.36-.2.55-.21.45-.35.9-.7,1.37-1.03-.43-.44-1.09-.65-1.73-.52-.53.1-.99.38-1.44.67-.49.32-.97.65-1.45.99-.93.67-1.93,1.37-2.73,2.2-.37.39-.55.91-.43,1.44.06.29.2.54.37.77.1-.08.2-.17.3-.25.32-.25.64-.49.96-.73Z"/>
  <path class="cls-1" d="M173.49,51.9c.06,0,.11.03.16.07.02.01.03.02.03.02,0-.01.01,0,0,0,0,0,0,.01.02.03.07.11-.01,0-.01,0,.1,1.02,1.69.87,1.59-.15-.04-.4-.22-.74-.48-1.01-.46.33-.92.68-1.37,1.03.02,0,.04,0,.07,0Z"/>
  <path class="cls-1" d="M173.68,51.99s0-.01,0,0h0Z"/>
  <path class="cls-1" d="M169,56.86c.3-.37.18-.81-.12-1.12-.09-.09-.17-.2-.24-.3-.32.24-.64.48-.96.73-.1.08-.2.16-.3.25.15.2.32.39.5.57.3.31.87.19,1.12-.12Z"/>
  <path class="cls-1" d="M103.66,143.41c.5-1.13.99-2.27,1.48-3.41-.11.08-.22.16-.33.24-.44.32-.9.1-1.12-.25-.02-.02-.04-.03-.06-.05-.41.8-.82,1.59-1.25,2.39-3.46,7.94-7.2,15.85-12.89,22.46-1.56,1.82-3.26,3.52-5.11,5.04-1.01.83-2.07,1.63-3.18,2.37.03.02.06.04.09.06.37.23.6.62.4,1.05-.16.36-.69.63-1.05.4-.32-.19-.63-.39-.94-.59-.34.19-.68.38-1.02.55-.89.43-1.83.79-2.82.85-.96.06-1.87-.23-2.71-.67-1.78-.93-3.16-2.53-4.57-3.92-7.15-7.01-13.42-15.04-18.01-23.96-1.15-2.24-2.23-4.53-3.25-6.84-.82-1.84-1.78-3.87-.9-5.87.64-1.44,1.86-2.58,3.11-3.59-.04-.46-.07-.92-.08-1.38-.03-1.02,1.56-1.18,1.59-.15,0,.12.02.25.02.37,1.79-1.32,3.69-2.49,5.69-3.48,8.8-4.37,18.66-5.61,28.33-6.44.04,0,.07,0,.11,0,.96-.16,1.92-.31,2.89-.45-.4-.29-.56-.93-.04-1.3.05-.03.09-.06.14-.1-9.96.82-20.14,1.71-29.44,5.65-2.33.99-4.6,2.16-6.73,3.54-1.99,1.29-3.99,2.75-5.57,4.52-1.44,1.62-2.27,3.62-1.82,5.8.23,1.11.66,2.14,1.11,3.18.52,1.17,1.05,2.34,1.59,3.5,2.23,4.73,4.76,9.33,7.79,13.61,3.04,4.29,6.4,8.34,10.03,12.14,1.62,1.7,3.27,3.43,5.04,4.98,1.57,1.38,3.48,2.51,5.63,2.46,2.17-.05,4.18-1.25,5.95-2.38,2.14-1.37,4.11-2.97,5.94-4.72,7.38-7.05,11.94-16.38,15.98-25.6Z"/>
  <path class="cls-1" d="M58.78,147.94c-1.83-2.86-3.6-5.77-5-8.87-1.51-3.34-2.56-6.88-2.73-10.55-.13.1-.27.19-.4.29-.37.28-.74.57-1.12.87.58,6.53,3.75,12.51,7.19,17.99,4.02,6.39,8.4,12.62,13.75,17.98,2.81,2.81,5.9,5.32,9.24,7.46.51-.29,1.01-.59,1.5-.92-6.33-3.88-11.59-9.24-16.08-15.1-2.26-2.95-4.34-6.02-6.35-9.15Z"/>
  <path class="cls-1" d="M51.05,128.52c0-.12-.02-.25-.02-.37-.03-1.03-1.62-.87-1.59.15.01.46.04.92.08,1.38.38-.3.75-.59,1.12-.87.13-.1.27-.19.4-.29Z"/>
  <path class="cls-1" d="M80.65,173.71c.37.22.89-.05,1.05-.4.19-.43-.03-.83-.4-1.05-.03-.02-.06-.04-.09-.06-.49.33-.99.63-1.5.92.31.2.62.4.94.59Z"/>
  <path class="cls-1" d="M90.07,137.71c-2.05,1.6-4.32,3.32-7.02,3.44-2.13.09-4.67-1.42-4.24-3.86.2-1.12.97-2.08,1.81-2.8,1.1-.95,2.37-1.73,3.61-2.49,2.78-1.69,5.7-3.11,8.63-4.52-.28-.44-.55-.9-.81-1.35-2.17,1.25-4.4,2.42-6.7,3.4-.54.3-1.09.61-1.62.92-2.49,1.48-5.59,3.21-6.4,6.22-.76,2.83,1.47,5.39,4.15,5.94,2.91.6,5.73-.83,8.02-2.48,2.77-1.99,5.33-4.28,7.7-6.74-.34-.41-.68-.82-1.01-1.24-1.91,1.99-3.94,3.85-6.12,5.55Z"/>
  <path class="cls-1" d="M102.42,138.84c-1.2,2.36-2.42,4.73-3.82,6.98-.76,1.22-1.56,2.43-2.47,3.54-.81.99-1.83,1.95-3.15,2.15-2.36.35-3.93-2-3.91-4.11.02-2.57,1.76-4.76,3.34-6.63,1.82-2.15,3.86-4.13,5.98-5.99-.35-.39-.71-.79-1.05-1.19-2.08,1.83-4.09,3.77-5.9,5.87-1.86,2.15-3.79,4.64-3.95,7.59-.14,2.69,1.41,5.48,4.21,6.03,3.27.64,5.54-2.37,7.14-4.72,1.31-1.93,2.46-3.96,3.55-6.02.37-.84.73-1.68,1.09-2.52-.36-.31-.72-.64-1.07-.97Z"/>
  <path class="cls-1" d="M102.4,142.33c.42-.79.84-1.59,1.25-2.39-.05-.04-.1-.09-.15-.14-.36.84-.73,1.68-1.09,2.52Z"/>
  <path class="cls-1" d="M72.01,124.26c-1.01,2.64.66,5.49,3.12,6.57,2.75,1.21,5.76.43,8.44-.58.6-.22,1.19-.48,1.78-.73,2.19-1.22,4.44-2.33,6.69-3.41-.27-.45-.54-.9-.79-1.35-2.16,1.25-4.38,2.4-6.68,3.38-2.32.98-4.96,2.08-7.52,1.62-2.07-.37-4.13-2.15-3.68-4.45.53-2.7,4.2-3.42,6.41-4,2.94-.77,5.96-1.22,8.96-1.66-.19-.43-.37-.87-.55-1.31-1,.08-2,.16-3,.25-1.85.31-3.7.65-5.53,1.11-2.78.7-6.49,1.55-7.64,4.56Z"/>
  <path class="cls-1" d="M88.1,118.16s-.03-.01-.04-.02c-.96.14-1.93.29-2.89.45,1-.09,2-.17,3-.25-.02-.06-.05-.12-.07-.18Z"/>
  <path class="cls-1" d="M92.03,126.12c-2.26,1.09-4.5,2.2-6.69,3.41,2.3-.98,4.54-2.15,6.7-3.4,0,0,0-.01-.01-.02Z"/>
  <path class="cls-1" d="M88.61,116.74c.33-.04.67.08.83.48.06.15.13.3.19.45.43-.3.86-.61,1.29-.91-.11-.29-.22-.59-.32-.88-.34-.97,1.16-1.52,1.5-.55.06.16.12.32.18.49,1.3-.9,2.6-1.81,3.9-2.71,3.91-2.74,7.83-5.48,11.72-8.25,1.28-.92,2.57-1.83,3.83-2.78.34-.25.66-.51.97-.8-.14-.21-.28-.41-.41-.61-.56-.86.73-1.79,1.3-.93.09.14.19.29.28.43,1.25-1.22,2.48-2.43,3.93-3.44,1.02-.71,2.02-1.44,3.03-2.16-.09-.09-.18-.19-.28-.28-.31-.3-.41-.76-.12-1.12.25-.31.81-.42,1.12-.12.2.19.38.39.58.59,6.2-4.45,12.32-9.02,18.43-13.6,7.59-5.69,15.19-11.38,22.93-16.85.71-.5,1.42-1,2.14-1.5-.26-.52-.43-1.06-.44-1.64-7.71,5.37-15.25,10.98-22.77,16.61-7.57,5.66-15.12,11.35-22.81,16.84-1.87,1.33-3.79,2.58-5.46,4.17-.95.9-1.81,1.92-2.84,2.74-1.04.82-2.13,1.58-3.21,2.36-3.79,2.72-7.61,5.39-11.43,8.07-2.8,1.96-5.6,3.91-8.4,5.87-.04.02-.07.05-.11.07.1,0,.2-.02.3-.02.06,0,.1.01.15.02Z"/>
  <path class="cls-1" d="M166.34,61.16c.84-.59-.09-1.88-.93-1.3-.07.05-.15.11-.22.16,0,.58.18,1.12.44,1.64.24-.17.48-.34.72-.5Z"/>
  <path class="cls-1" d="M88.06,118.14s.02,0,.03,0c-.05-.12-.11-.24-.15-.37-.22-.56.21-.97.67-1.03-.05,0-.09-.02-.15-.02-.1,0-.2.02-.3.02-.05.03-.09.06-.14.1-.52.37-.35,1.01.04,1.3Z"/>
  <path class="cls-1" d="M88.09,118.14s-.02,0-.03,0c.01,0,.03.01.04.02,0,0,0-.02-.01-.03Z"/>
  <path class="cls-1" d="M182.21,84.2c-7.49,5.52-15.14,10.83-22.81,16.1-7.15,4.92-14.31,9.82-21.37,14.87.12.22.24.44.36.67.2.39-.11.89-.47,1.02-.44.16-.83-.09-1.02-.47-.05-.1-.11-.2-.16-.3-.2.14-.4.28-.59.42-1.84,1.33-3.62,2.77-5.65,3.81-.32.16-.64.32-.97.48.13.15.26.31.4.47.29.33.14.88-.18,1.11-.37.27-.83.14-1.11-.18-.19-.22-.38-.45-.58-.67-.38.2-.76.41-1.11.64-1.11.72-2.18,1.51-3.26,2.29-3.79,2.72-7.54,5.48-11.3,8.24-1.9,1.39-3.79,2.79-5.69,4.19.09.09.18.19.27.29.3.31.42.75.12,1.12-.25.31-.82.43-1.12.12-.19-.19-.37-.39-.55-.58-.32.23-.64.47-.96.7.13.11.25.23.38.34.13.11.2.24.24.37.14.2.21.45.08.74,0,0,0,.01,0,.02,2.27-1.64,4.51-3.32,6.76-4.98,3.85-2.83,7.7-5.66,11.57-8.46,1.28-.92,2.56-1.85,3.86-2.74.37-.25.74-.49,1.13-.7,2.01-1.06,4.04-1.98,5.89-3.33,7.6-5.56,15.35-10.9,23.1-16.23,7.82-5.37,15.64-10.74,23.31-16.33.84-.61,1.68-1.23,2.51-1.85-.24-.17-.45-.37-.64-.6-.15-.19-.29-.39-.43-.6Z"/>
  <path class="cls-1" d="M182.64,83.88c-.14.11-.29.21-.43.32.14.21.28.41.43.6.18.23.4.43.64.6.1-.07.2-.14.29-.22.82-.61-.1-1.91-.93-1.3Z"/>
  <path class="cls-1" d="M105.07,139.24c.21.66-.59,1.43-1.24.87-.05-.04-.09-.08-.13-.12.22.36.68.57,1.12.25.11-.08.22-.16.33-.24,0,0,0-.01,0-.02.13-.29.06-.55-.08-.74Z"/>
  <path class="cls-1" d="M124.73,117.61c1.09,1.32,2.2,2.63,3.33,3.92.48-.25.98-.49,1.47-.73-4.48-5.13-8.69-10.5-12.59-16.09-1.05-1.51-2.08-3.03-3.09-4.57-.36.35-.72.7-1.09,1.05-.02.02-.05.04-.08.07,3.72,5.66,7.73,11.12,12.04,16.35Z"/>
  <path class="cls-1" d="M113.85,100.15c-.09-.14-.19-.28-.28-.43-.56-.86-1.85.07-1.3.93.13.21.28.41.41.61.03-.02.05-.04.08-.07.37-.35.73-.7,1.09-1.05Z"/>
  <path class="cls-1" d="M128.63,122.2c.28.32.74.45,1.11.18.32-.23.47-.79.18-1.11-.14-.15-.26-.31-.4-.47-.49.24-.99.48-1.47.73.19.22.38.45.58.67Z"/>
  <path class="cls-1" d="M133.92,111.1c1,1.63,1.93,3.3,2.82,5,.43-.31.87-.62,1.3-.93-3.32-6.32-7.38-12.25-12.13-17.59-1.22-1.37-2.48-2.69-3.78-3.98-.43.31-.87.62-1.31.93,5.02,4.96,9.43,10.53,13.1,16.56Z"/>
  <path class="cls-1" d="M121.54,93.02c-.31-.3-.87-.19-1.12.12-.29.36-.19.82.12,1.12.09.09.18.19.28.28.44-.31.87-.62,1.31-.93-.19-.19-.38-.39-.58-.59Z"/>
  <path class="cls-1" d="M136.89,116.39c.2.38.59.63,1.02.47.37-.14.67-.64.47-1.02-.12-.23-.24-.45-.36-.67-.43.31-.87.61-1.3.93.05.1.11.2.16.3Z"/>
  <path class="cls-1" d="M89.16,118.01c.88.02.97,1.44,0,1.58-.15.02-.3.04-.45.07.75,1.75,1.59,3.45,2.52,5.11.19-.11.37-.21.56-.32.37-.22.84-.19,1.11.18.23.33.19.89-.18,1.11-.14.09-.29.17-.44.25.13-.06.25-.12.38-.18.39-.19.89.1,1.02.47.16.43-.08.84-.47,1.02-.12.06-.24.12-.36.18,1.03,1.62,2.14,3.18,3.33,4.68.12-.13.25-.25.38-.38.7-.75,1.94.25,1.24,1-.2.21-.41.41-.61.62.05.06.1.13.15.19.21-.18.41-.37.62-.55.33-.28.88-.14,1.11.18.27.37.14.83-.18,1.11-.17.15-.34.3-.5.45.32.36.63.72.96,1.07.98,1.04,2.01,2.03,3.07,3,.08-.15.16-.31.24-.46.41-.81,1.59-.39,1.54.34.09-.06.17-.13.26-.19-5.12-4.45-9.43-9.85-12.56-15.87-.84-1.63-1.59-3.3-2.27-5-.15.11-.3.21-.45.32,0,0,0,.02-.01.03Z"/>
  <path class="cls-1" d="M103.64,139.94s.04.03.06.05c-.02-.03-.03-.05-.04-.08,0,.01-.01.02-.02.03Z"/>
  <path class="cls-1" d="M89.17,117.98s-.03.02-.04.03c0,0,.02,0,.03,0,0,0,0-.02.01-.03Z"/>
  <path class="cls-1" d="M96.56,131.78c-.12.13-.25.26-.38.38.33.42.67.83,1.01,1.24.2-.21.41-.41.61-.62.7-.75-.54-1.75-1.24-1Z"/>
  <path class="cls-1" d="M92.86,127.48c.12-.06.24-.12.36-.18.39-.19.63-.59.47-1.02-.14-.37-.63-.66-1.02-.47-.13.06-.25.12-.38.18-.08.05-.17.09-.25.14.27.45.53.9.81,1.35Z"/>
  <path class="cls-1" d="M103.89,138.95c.08-.06.16-.12.24-.18.02-.02.05-.03.07-.05.05-.74-1.13-1.15-1.54-.34-.08.15-.16.31-.24.46.36.32.71.65,1.07.97.03-.06.06-.13.08-.19-.02-.24.06-.48.31-.66Z"/>
  <path class="cls-1" d="M99.08,133.22c-.23-.33-.78-.47-1.11-.18-.21.18-.41.37-.62.55.34.4.69.8,1.05,1.19.17-.15.33-.3.5-.45.33-.28.45-.74.18-1.11Z"/>
  <path class="cls-1" d="M103.58,139.61c-.03.06-.06.13-.08.19.05.04.1.09.15.14,0-.01.01-.02.02-.03-.05-.1-.07-.19-.08-.3Z"/>
  <path class="cls-1" d="M92.73,125.74c.37-.22.42-.78.18-1.11-.27-.38-.74-.4-1.11-.18-.19.11-.37.21-.56.32.25.46.52.9.79,1.35.09-.04.17-.08.26-.13.15-.08.29-.17.44-.25Z"/>
  <path class="cls-1" d="M89.16,118.01c-.11.16-.3.28-.55.3-.14.01-.29.02-.43.04.18.44.36.88.55,1.31.15-.02.3-.04.45-.07.96-.14.87-1.56,0-1.58Z"/>
  <path class="cls-1" d="M89.16,118.01s-.02,0-.03,0c-.06.04-.12.09-.19.13-.3.21-.61.18-.85.03.02.06.05.12.07.18.14-.01.29-.02.43-.04.26-.02.44-.14.55-.3Z"/>
  <path class="cls-1" d="M92.29,125.99c-.09.04-.17.08-.26.13,0,0,0,.01.01.02.08-.05.17-.09.25-.14Z"/>
  <path class="cls-1" d="M89.17,117.98c.15-.11.3-.21.45-.32-.06-.15-.13-.3-.19-.45-.15-.4-.5-.52-.83-.48.63.06.85.79.57,1.24Z"/>
  <path class="cls-1" d="M89.14,118.01s.03-.02.04-.03c.29-.45.06-1.18-.57-1.24-.46.06-.89.47-.67,1.03.05.12.1.24.15.37.31-.05.62-.09.93-.14.04,0,.07,0,.11,0Z"/>
  <path class="cls-1" d="M88.95,118.14c.06-.04.12-.09.19-.13-.04,0-.07-.01-.11,0-.31.05-.62.09-.93.14,0,0,0,.02.01.03.24.15.55.19.85-.03Z"/>
  <path class="cls-1" d="M104.15,138.91c.33-.11.72.05.92.33-.04-.13-.11-.26-.24-.37-.13-.11-.25-.23-.38-.34-.09.06-.17.13-.26.19,0,.06-.03.12-.05.19Z"/>
  <path class="cls-1" d="M105.07,139.24c-.21-.28-.59-.44-.92-.33-.01.04-.01.08-.03.12-.15.3-.3.59-.45.88.01.03.02.06.04.08.05.04.09.08.13.12.65.55,1.44-.22,1.24-.87Z"/>
  <path class="cls-1" d="M104.13,138.78c-.08.06-.16.12-.24.18-.25.18-.33.43-.31.66.04-.09.08-.19.12-.28.1-.23.27-.37.45-.43.02-.06.05-.13.05-.19-.02.02-.05.03-.07.05Z"/>
  <path class="cls-1" d="M103.7,139.34c-.04.09-.08.19-.12.28,0,.1.04.2.08.3.15-.29.3-.59.45-.88.02-.04.02-.08.03-.12-.18.06-.35.19-.45.43Z"/>
  <path class="cls-1" d="M101.84,133.96c1.16,1.32,2.36,2.6,3.57,3.87.43-.31.86-.63,1.28-.94-4.69-4.87-9.15-10.13-12.28-16.16-.83-1.59-1.54-3.24-2.15-4.92-.45.31-.9.63-1.35.95,2.4,6.41,6.43,12.09,10.93,17.21Z"/>
  <path class="cls-1" d="M92.08,115.32c-.34-.97-1.83-.42-1.5.55.1.3.21.59.32.88.45-.32.9-.64,1.35-.95-.06-.16-.12-.32-.18-.49Z"/>
  <path class="cls-1" d="M105.96,138.41c.3.31.87.19,1.12-.12.3-.37.18-.81-.12-1.12-.09-.09-.18-.19-.27-.29-.43.31-.85.63-1.28.94.19.19.37.39.55.58Z"/>
  <path class="cls-1" d="M109.94,128.78c.03-.36.19-.7.41-1.01-.26-.54-1.15-.73-1.45-.02-.36.72.45,1.26,1.04,1.02Z"/>
  <path class="cls-1" d="M108.9,127.75c.3-.71,1.2-.52,1.45.02.32-.45.78-.85,1.21-1.21,1.12-.95,2.29-1.85,3.48-2.71,1.04-.75,2.11-1.47,3.2-2.15.94-.58,2.03-1.4,3.18-1.45,1.16-.04,1.77,1.28,1.52,2.28-.29,1.13-1.64,1.84-2.51,2.49-1.09.81-2.19,1.62-3.28,2.43-.9.67-1.85,1.31-2.7,2.04-.6.52-1.24,1.09-2.01,1.36-.44.15-.9.16-1.31-.06-.43-.22-.63-.63-.91-1-.08-.11-.13-.22-.15-.32-.1-.24-.14-.48-.13-.7-.59.23-1.41-.31-1.04-1.02-.55,1.29-.02,2.36.78,3.38.85,1.09,1.98,1.65,3.29.92.62-.34,1.17-.82,1.74-1.24.63-.47,1.26-.94,1.89-1.4,1.31-.97,2.62-1.95,3.94-2.92,1.14-.85,2.59-1.66,3.31-2.92.56-.98.49-2.2-.06-3.17-1.58-2.8-4.88-.59-6.75.6-1.53.98-3.02,2.03-4.45,3.15-1.32,1.03-2.91,2.08-3.69,3.61Z"/>
  <path class="cls-1" d="M111.51,128.87s0,0,0,0c-.01.02-.02.04-.03.06.01-.03,0-.07,0-.09-.36-.42-.9-.31-1.2.02,0,.3.12.57.32.85.1.13.2.28.31.43.51-.07.98-.67.61-1.26Z"/>
  <path class="cls-1" d="M110.27,128.86c.3-.32.84-.44,1.2-.02,0-.03,0-.04.04.03.02-.04.05-.08.08-.12.12-.17.27-.32.41-.46.37-.35.78-.67,1.17-.99.79-.64,1.6-1.27,2.42-1.87,1.57-1.16,3.21-2.33,4.95-3.24.17-.09.35-.17.54-.24.02,0,.16-.04.3-.07,0-.02-.01-.04-.02-.05-.02,0-.04-.02-.02-.03,0,0,.01.01.02.03.06.02.22.03.22.02,0,0-.09.01-.2.04.01.03.03.06.03.05-.01.17.01.21-.08.35-.21.31-.58.53-.87.75-.45.33-.89.66-1.34,1-1.68,1.25-3.37,2.5-5.05,3.75-.52.38-.98.84-1.5,1.21-.21.15-.51.26-.69.37.05.06.05.07-.02.04-.02,0-.02,0-.03,0,0,0,0,0,0,0,0,0,0,0,0,0-.02,0-.02,0,0,0,.01,0,.03-.01.04-.02-.02-.02-.03-.04-.06-.06-.06-.15-.19-.3-.29-.42.37.58-.1,1.18-.61,1.26.16.23.34.44.56.59.39.25.77-.05,1.09-.28.57-.41,1.13-.84,1.7-1.26,2.1-1.56,4.2-3.12,6.3-4.68.74-.55,1.88-1.16,2.07-2.15.11-.58-.13-1.34-.68-1.63-.82-.42-1.97.36-2.65.76-1.11.66-2.2,1.37-3.27,2.11-1.06.74-2.1,1.52-3.12,2.33-.89.71-2.02,1.44-2.55,2.48-.07.16-.09.31-.09.45Z"/>
  <path class="cls-1" d="M111.51,128.87s-.02-.02-.04-.03c0,.03.01.07,0,.09.01-.03.02-.04.03-.06Z"/>
  <path class="cls-1" d="M111.83,129.38c.06.02.03,0,0,0h0Z"/>
  <path class="cls-1" d="M111.51,128.87c-.04-.07-.04-.06-.04-.03.01.01.03.02.04.03,0,0,0,0,0,0Z"/>
  <polygon class="cls-1" points="111.81 129.39 111.81 129.39 111.81 129.39 111.81 129.39"/>
  <path class="cls-1" d="M111.83,129.38s0,0,0,0c0,0,0,0,0,0,0,0,0,0,0,0,0,0,.01,0,.02,0,0,0,0,0,0,0Z"/>
  <path class="cls-1" d="M111.81,129.39s0,0,0,0c-.03,0-.03,0,0,0Z"/>
  <polygon class="cls-1" points="111.51 128.87 111.51 128.87 111.51 128.87 111.51 128.87"/>
  <path class="cls-1" d="M121.35,121.83s.01.03.02.05c.11-.02.2-.04.2-.04,0,0-.16,0-.22-.02Z"/>
  <path class="cls-1" d="M111.83,129.38s0,0,0,0c.03,0,.06.02,0,0,0,0-.01,0-.02,0,0,0,0,0,.03,0,.07.04.07.02.02-.04-.01,0-.03.01-.04.02,0,0,0,0,0,0Z"/>
  <path class="cls-1" d="M110.27,128.86c0-.15.02-.29.09-.45-.1.2-.25.31-.41.37-.02.22.03.46.13.7-.05-.24.04-.46.2-.63Z"/>
  <path class="cls-1" d="M110.36,128.4c.53-1.04,1.66-1.77,2.55-2.48,1.01-.81,2.05-1.59,3.12-2.33,1.06-.74,2.15-1.45,3.27-2.11.68-.4,1.83-1.19,2.65-.76.55.29.79,1.05.68,1.63-.19.99-1.33,1.6-2.07,2.15-2.1,1.56-4.2,3.12-6.3,4.68-.57.42-1.12.85-1.7,1.26-.32.23-.7.53-1.09.28-.22-.14-.4-.36-.56-.59-.25.03-.5-.04-.68-.33.28.37.48.78.91,1,.41.22.88.21,1.31.06.77-.26,1.4-.84,2.01-1.36.86-.73,1.8-1.37,2.7-2.04,1.09-.81,2.19-1.62,3.28-2.43.87-.65,2.22-1.36,2.51-2.49.26-1-.36-2.33-1.52-2.28-1.15.04-2.24.86-3.18,1.45-1.09.68-2.16,1.4-3.2,2.15-1.19.86-2.35,1.76-3.48,2.71-.42.36-.88.76-1.21,1.21.09.18.1.4,0,.63Z"/>
  <path class="cls-1" d="M110.36,128.4c.1-.24.09-.45,0-.63-.23.31-.39.65-.41,1.01.16-.06.31-.18.41-.37Z"/>
  <path class="cls-1" d="M110.22,129.8c-.07-.11-.1-.22-.15-.32.02.11.07.21.15.32Z"/>
  <path class="cls-1" d="M110.9,130.13c-.11-.15-.21-.29-.31-.43-.2-.27-.32-.55-.32-.85-.16.17-.25.39-.2.63.04.11.08.21.15.32.18.28.43.36.68.33Z"/>
</svg>