<?xml version="1.0" encoding="UTF-8"?>
<svg id="Layer_1" data-name="Layer 1" xmlns="http://www.w3.org/2000/svg" viewBox="0 0 251 205">
  <defs>
    <style>
      .cls-1 {
        fill: #fff;
      }
    </style>
  </defs>
  <path d="M180.6,127.33l-4.04,4.13c-1.77.62-2.98,1.91-4.51,2.97-8.52,5.95-19.14,10.72-29.7,10.44-3.57-.09-6.44-.42-10.07-.23-10.45.53-20.24-2.06-28.27-9.04-2.54-2.21-4.53-3.68-7.21-5.69-5.35-4.01-11.06-9.89-13.72-16.08-.33-.76-.49-1.77-.86-2.47-.1-.18-.25-.54-.5-.36-.24.16-.57.85-.62,1.14s.33.93.39,1.31c.26,1.56-1.62,3.8-2.43,5.17-.81,1.36-1.57,2.75-2.41,4.11-.09.14-.37.28-.35.32.95.51,1.97.92,2.93,1.43,2.32,1.25,4.4,2.23,6.79,3.33,3.57,1.63,7.04,3.7,7.67,7.9.61,4-1.41,6.58-3.17,9.89-3.51,6.62-7.03,13.17-10.94,19.53-2.84,4.61-6.81,6.66-12.12,4.56-1.68-.67-3.49-1.56-5.13-2.31-2.1-.97-4.14-2.09-6.24-3.07-.46.78-.89,1.6-1.36,2.38-1.92,3.23-3.84,6.48-5.75,9.72-.29.49-.45,1.05-.79,1.53-1.37,1.91-4.44.92-6.31,1.55-.63.22-.92,1.41-1.28,2.03-1.43,2.49-2.84,5.02-4.27,7.5-.68,1.17-1.11,2.73-2.62,3.1-1.72.43-3.13-1-2.44-2.69.12-.3.37-.44.5-.68,1.29-2.6,2.74-4.42,4.12-6.8.55-.95,1.08-2.15,1.55-3.17.09-.19.41-.53.11-.63l-1.67,2.61c-1.14,2.32-2.66,4.46-3.88,6.72-1.02,1.89-1.88,4.85-3.74,5.98-1.87,1.13-3.86-.17-3.14-2.3.26-.75.9-1.97,1.3-2.69,1.68-3.01,3.71-5.92,5.37-8.92.51-.92.88-1.91,1.39-2.83.13-.41-3.44-2.29-3.54-3.54-.07-.9.54-1.25.9-1.88,2.73-4.74,5.66-9.39,8.31-14.16.34-.61.58-1.27.93-1.88-1.6-1.53-2.67-3.15-2.59-5.45.19-4.93,5.59-12.43,8.16-16.73,2.32-3.89,4.46-8.05,7.17-11.73,1.11-1.5,2.55-3.3,4.24-4.14,2.97-1.47,5.84-.7,8.73.54,1.42.61,2.77,1.43,4.19,2.06.19-.43-.02-.94.18-1.38.34-.75,1.01-1.56,1.41-2.25,1.04-1.8,2.08-3.54,3.18-5.3.96-1.53,1.11-2.83,3.25-1.45.86-1.47,2.42-2.91,3-4.51.28-.78-.01-2.01,0-2.89.12-5.7,1.94-11.02,5.2-15.69.49-.7,1.57-1.67,1.68-2.45-.68-5.63-.54-11.31-.77-16.96-.5-11.98-2.01-27.04.24-38.75,2.33-12.09,10.16-17.04,21.91-17.07,17.89-.04,33.43,8.46,45.57,21.17,14.73,15.43,11.53,32.52,11.47,51.97,0,2.01.07,4.02.04,6.04l.12.36c4.02,1.38,8.15,2.52,12.2,3.86,14.93,4.92,30.66,9.92,41.96,21.38,5.41,5.48,9.1,13.39.85,18.47-9.44,5.81-26.21,1.71-35.23-3.4-1.63-.92-3.12-2.28-4.68-3.26-.22-.14-.44-.27-.69-.34ZM165.28,90.61c.24-4.58,0-9.17.04-13.76.08-9.63.81-18.37-1.59-27.86-3.15-12.51-15.99-23.32-26.71-29.65-10.15-5.99-27.89-10.26-39.22-5.51-11.12,4.66-11.17,20.8-11.15,31.05s.58,20.7,1.08,30.8c.33,6.64.97,13.12.95,19.8,0,.53-.22,1.03.09,1.55.11.05,1.89-1.09,1.73-1.51-.36-3.84-.33-7.69-.49-11.54-.69-17.09-1.65-34.91-.33-51.97.7-9.03,5.01-16.09,14.35-17.63,10.47-1.73,23.58,1.63,32.69,6.77,12.01,6.77,23.83,18.18,26.03,32.38,1.47,9.44.55,18.35.39,27.75-.05,2.99.16,5.97.17,8.96l1.96.37ZM162.61,90.08l-.02-12.03c.39-12.29,1.47-25.29-4.9-36.33-4.63-8.02-13.31-15.66-21.41-20.02-3.56-1.92-6.61-3.37-10.48-4.49-8.92-2.58-24.43-5.14-31.17,3.05-4.19,5.09-4.25,11.79-4.41,18.01-.35,13.66-.13,27.64.41,41.29.02.54.05,1.14-.07,1.67.24.09.36-.11.51-.23,15.91-12.88,39.59-16.3,57.03-4.29,3.75,2.58,7.76,6.77,10.29,10.55.32.48.89,1.8,1.21,2.09.56.51,2.29.36,3.03.73ZM158.9,89.25c-1.78-2.52-3.56-5.08-5.71-7.31-15.43-16.06-40.81-14.92-58.23-2.98-.88.6-3.24,2.25-3.86,2.94s-.36,1.86-.3,2.74c.01.18-.02.42.17.53,2.9-3.15,6.94-5.67,10.73-7.66,8.28-4.35,20.83-6.91,30.05-4.8s17.31,7.05,22.86,14.53c.29.39.76,1.39,1.07,1.61.43.31,2.15.42,2.79.48.18.02.37.16.43-.08ZM163.66,94.32c.5,10.76,5.14,21.21,13,28.62,4.92,4.64,9.69,7.86,15.94,10.46,6.82,2.83,19.38,4.5,26.29,1.51,12.39-5.35,4.35-16.35-2.76-22.08-8.13-6.55-16.82-10.19-26.54-13.64-7.63-2.71-15.65-5.56-23.49-7.55-12.47-3.16-25.08-3.37-37.83-3.34-12.1.02-24.08-.15-34.73,6.48-.95.59-1.98,1.28-2.9,1.91-2.76,1.9-5.59,3.9-7.32,6.86.34.18.7.32,1.04.5.18.1.34.34.41.37.29.12,1.4-1.56,1.69-1.88,1.56-1.71,4.63-3.99,6.6-5.32,10.2-6.96,25-6.72,36.91-6.64,14.52.1,27.7.68,41.66,5.31,8.6,2.85,17.26,5.91,25.64,9.22,7.84,3.1,18.79,9.02,23.61,16.23,4.75,7.1-.65,11.95-7.78,12.77-8.79,1.01-21.4-2.37-28.63-7.27-9.17-6.22-15.79-15.28-17.91-26.22-.34-1.77-.48-3.6-.8-5.38-.56-.61-1.43-.54-2.1-.92ZM154.89,89.04c-.22-.67-.79-1.44-1.23-2.01-7.19-9.31-19.7-15-31.41-14.41-10,.5-22.01,5.01-29.53,11.7-.48.43-1.74,1.45-1.83,1.98.15,2.87.04,5.87.31,8.72.01.11-.15.33.17.33.23,0,3.31-2.05,3.92-2.37,6.2-3.28,14.49-5,21.47-5.28,7.82-.31,16.34-.21,24.18-.04,4.67.1,9.34.61,13.95,1.38ZM184.28,126.19c2.81,1.27,5.37,3.02,8.22,4.23,5.36,2.28,17.22,4.17,22.87,2.68,3.91-1.03,7.7-3.71,6.51-8.29-1.25-4.82-8.06-9.9-12.08-12.56-6.27-4.16-12.65-6.48-19.64-9.05-5.96-2.19-11.99-4.39-17.98-6.45-1.9-.65-3.89-1-5.76-1.66.17,1.97.52,4.11.95,6.05.87,3.84,2.17,7.67,4.19,11.06s4.52,6.37,7.14,9.27l.46-.08c1.44-1.62,2.94-3.18,4.42-4.75.99-1.04,1.03-.84,1.97-1.53,1.21-.89,2.35-3.88,4.08-2.53.35.27,2.32,2.67,2.54,3.08.23.44.31.71.03,1.16-.43.69-1.66,1.66-2.26,2.28-.97,2.23-3.19,4.02-4.8,5.93-.31.36-.67.7-.86,1.15ZM163.12,96.22c.14-.06.15-1.79-.12-1.99-.16-.11-.56-.03-.76-.2-.22.27-.04.36.05.58.07.19.75,1.66.84,1.62ZM136.33,141.3l3.48.37c1.98.08,4.04-1.02,5.79-1.92,11.95-6.13,19.15-17.99,19.28-31.45.03-3.3-.96-8.69-2.22-11.73-.19-.46-1.14-2.51-1.44-2.65-.45-.22-1.76-.18-2.32-.27.26,1.05.9,1.99,1.29,2.98,3.12,7.97,3.3,16.78.35,24.87-2.98,8.17-11.02,14.91-18.94,18.07-1.71.68-3.53,1.12-5.26,1.73ZM157.78,93.43c-8.54-1.64-17.28-1.88-25.94-2-10.92-.16-24.8-.71-34.72,4.21-.9.45-5.42,3.02-5.57,3.74.38,8.37,2.12,16.41,6.08,23.82.68,1.28,2.72,4.97,3.77,5.68,3.79,2.53,7.76,4.96,11.92,6.84,4.07,1.83,8.48,3.03,12.83,4.06,2.71.65,7.02,1.68,9.67.98,13.36-3.54,23.52-12.21,25.96-26.39,1.25-7.26-.67-14.15-3.66-20.72l-.33-.22ZM188.37,114.66c.58.47,1.34,2.11,1.87,2.45.62.4,1.63-.45,1.18-1.32-.13-.25-1.81-2.28-1.96-2.36-.35-.18-.61.13-.7.45l.7-.24-.15.51c.31-.28,1.36,1.05,1.3,1.12-.27.06-.63.68-.74.72-.22.09-.37-.25-.19-.45-.53.05-.17-.18-.32-.38-.08-.11-.84-.83-.99-.49ZM190.51,117.87c-.83-.55-1.88-1.91-2.34-2.82-.31-.63-.07-1.17.25-1.73-.05-.23-1.08.74-1.21.88-.4.41.46.02.16.47s-.75.7-.98,1.18c.61.23,1.1.67,1.57,1.11s1.1,1.53,1.44,1.74c.31.2.21.07.36-.1.23-.27.45-.52.74-.73ZM183.8,125.54l4.55-4.95c.17-.24.41-.6.45-.89.05-.37-1.06-1.72-1.37-2.03-.51-.5-1.98-1.65-2.64-1.35l-5.42,5.88c.73.35,3.98,3.4,4.43,3.33ZM177.66,124.51c-1.14-.72-2.24-1.81-3.19-2.79-2.63-2.7-5.13-6.13-6.84-9.49-.76-1.5-1.34-3.1-2.06-4.62l-.37,4.66c-1.44,11.5-6.9,20.66-16.86,26.67-1.63.99-3.36,1.81-5.09,2.62.08.18,1.71,0,2.03-.02,8.93-.83,18-4.78,25.25-10,.56-.41,1.91-1.31,2.31-1.75.3-.33.2-.74.5-1.18.75-1.09,2.82-2.41,3.82-3.46.19-.2.41-.36.5-.64ZM180.36,127.01l-2.37-1.94-4.38,4.12c1.24.44,1.84,1.03,2.22,2.26l4.53-4.44ZM87.74,85.35c-.07-.36-.3-.1-.43.06-3.45,4.05-5.62,9.95-6.04,15.24-.08,1.07-.18,2.43.25,3.4.18-.58.86-.5,1.2-.92.31-.39.49-.93.86-1.29.28-2.78.75-5.57,1.69-8.22.31-.88.77-2.13,1.21-2.93.28-.5,1.17-1.46,1.29-1.87.24-.82-.26-2.57-.03-3.49ZM83.83,107.74c-.24.58-1.49,1.92-1.48,2.41,0,.26.58,1.75.73,2.12,6.89,17.47,30.35,28.17,47.8,30.97,11.4,1.83,20.72,1.28,31.2-3.73,4.65-2.22,9.05-5.04,13.06-8.28-.15-.6-.99-1.52-1.61-1.3-3.73,3-7.78,5.62-12.1,7.7-6.6,3.18-15.36,5.31-22.7,4.75-10.3-.78-22.66-3.75-31.51-9.06s-16.38-10.86-21.18-19.71l-2.23-5.88ZM84.4,100.96c1.02-1.58,3.53-2.28,3.65-4.34l-.27-6.55c-.16.22-.37.39-.51.63-1.32,2.24-2.47,5.53-2.89,8.1-.11.66-.31,1.56.02,2.16ZM91,99.88s-.22-.19-.37-.06c-.55.48-1.64.98-1.75,1.64.76,5.58,1.5,11,3.54,16.28.71,1.83,2.16,5.53,3.46,6.84.89.9,2.13,1.72,3.11,2.55l-3.03-5.6c-3.27-6.91-4.34-13.63-5.05-21.16-.02-.18.09-.45.08-.49ZM93.94,122.68c-2.21-4.99-4.02-10.19-4.98-15.59-.31-1.75-.46-3.51-.77-5.26-.16-.08-.87.69-1.02.86-.34.39-1.63,2.03-1.77,2.38-.08.2.04.5-.06.76-.22.59-.96.87-.86,1.73.05.41.47,1.29.62,1.76.97,3.01,2.01,5,3.86,7.62,1.44,2.03,3.08,4.11,4.97,5.73ZM80.94,111.22l3.7-5.54c.27-.68-1.9-2.3-2.58-1.37l-3.89,5.35,2.77,1.55ZM79.92,111.31l-3.4-1.66c-.6-.29-2,2.43-2.3,2.9-1.11,1.73-2.32,3.45-3.35,5.21-.22.38-.37.81-.58,1.19,1.2.51,2.29,1.19,3.4,1.86,1.36-2.13,2.59-4.61,4.3-6.48.22-.24.14-.45.53-.17l-4.31,6.8c-.15.52.66,1.65,1.15,1.85.67.27,1.24-1.27,1.52-1.72,1.08-1.73,2.2-3.51,3.19-5.29.39-.7.94-1.68.72-2.49-.1-.38-.55-1.39-.97-.95-.26.27-.2.9-.67.53l.77-1.58ZM130.92,143.95c-4.67-.93-9.37-1.92-13.88-3.49-1.8-.63-3.7-1.31-5.44-2.06-2.33-1.01-4.63-2.33-6.95-3.41-.19-.09-.53-.41-.63-.11,1.37.9,2.61,2,3.97,2.91,6.08,4.05,12.62,5.83,19.87,6.26l3.05-.11ZM72.76,120.93c-.74-.46-1.69-.76-2.45-1.2l-.15.32,3.32,1.63.08-.16c-.4-.02-.63-.48-.79-.58ZM75.95,123.72c-.16-.08-.46-.08-.73-.2-3.78-1.8-8.19-4.46-12-5.87-1.85-.69-4.44-.54-6.22.26-3.06,1.38-6.21,7.65-7.98,10.51-1.14,1.85-2.35,3.67-3.5,5.53-.49.78-.88,1.71-1.53,2.4l.4.49c5.96,2.91,11.97,5.76,17.78,8.9,1.86,1.01,5.31,1.9,4.26,4.72-.39,1.05-1.08,1.87-1.56,2.76-1.77,3.32-3.62,6.8-5.04,10.28-.09.22-.52,1.54-.51,1.62.02.15.13.23.25.31.9.6,2.74,1.39,3.8,1.87,2.11.95,5.43,2.39,7.71,2.55,4.94.33,6.98-3.5,9.13-7.15,3.98-6.76,7.76-13.74,11.49-20.63,2.33-4.3,1.87-9.36-2.64-11.99-3.94-2.29-8.92-4.36-13.1-6.36ZM58.78,164.85c.92-2.81,2.22-5.52,3.59-8.15,1.02-1.95,2.66-4.13,3.42-6.16.22-.58.28-1.7-.1-2.2-.3-.4-1.3-.68-1.78-.97-5.52-3.21-12.57-6.65-18.4-9.21-.67-.29-1.31-.67-1.98-.97-.67.95-1.1,2.01-1.67,3.01-1.63,2.9-3.53,5.44-4.01,8.87-.22,1.58.08,2.98,1.07,4.24.46.59,1.88,1.59,1.6,2.33-.07.19-.32.34-.42.55-2.59,5.03-5.86,9.53-8.62,14.4-.28.49-1.37,2.51-1.1,2.91.17.26,1.73,1.55,2.06,1.76,2.63,1.69,6.22,2.52,9.12,3.65l5.58-.68c.63-1.04,1.16-2.19,1.77-3.23,1.62-2.79,3.38-5.5,4.89-8.38l1.67-2.61-3.79-2.25c.24-.68.71-.04.87.03l6.24,3.06ZM40.87,179.4c-.57-.23-1.16-.45-1.74-.66-.29-.11-.48-.31-.82-.1-.26.34.2.38.44.51.33.17.92.24.56.66l-1.26-.62-2.48,4.67c1.62.79,2.06,1.41,3.11-.34.62-1.03.9-2.28,1.74-3.17l-.48-.62c.5.13.79.29.94-.32ZM33.93,176.78l-1.32,2.69,1.7.93c-.67.15-1.43-.39-2.09-.53l-2.87,5.06c.71.33,2.09,1.18,2.88.93.24-.08.28-.2.39-.39.3-.51,2.22-4.27,2.16-4.51-.02-.08-.43-.15-.15-.4.17-.15.65.02.85-.2.16-.17.85-1.31,1.02-1.62.13-.23.22-.49.35-.72l-2.92-1.23ZM37.7,185.49c-.87-.53-1.83-.75-2.75-1.13-.94,1.02-1.46,2.34-2.14,3.54-.17.29-.44.52-.63.85-.48.85-.96,1.93.06,2.5,1.86,1.04,3.03-1.47,3.8-2.75.09-.14.29-.21.31-.25l1.36-2.77ZM31.8,186.72l-2.84-1.39c-.13.23-.2.5-.35.72-.97,1.47-2.27,3.8-2.88,5.45-.69,1.87,1.44,2.33,2.81.88.29-.31,1.15-1.35,1.28-1.63l1.98-4.03Z"/>
  <path class="cls-1" d="M75.95,123.72c4.18,2,9.16,4.06,13.1,6.36,4.51,2.63,4.97,7.69,2.64,11.99-3.72,6.89-7.5,13.87-11.49,20.63-2.15,3.64-4.19,7.48-9.13,7.15-2.28-.15-5.6-1.6-7.71-2.55-1.06-.48-2.9-1.26-3.8-1.87-.12-.08-.23-.16-.25-.31-.01-.08.42-1.4.51-1.62,1.41-3.48,3.27-6.97,5.04-10.28.48-.9,1.17-1.71,1.56-2.76,1.06-2.82-2.39-3.71-4.26-4.72-5.8-3.15-11.82-5.99-17.78-8.9l-.4-.49c.64-.69,1.04-1.61,1.53-2.4,1.15-1.86,2.36-3.68,3.5-5.53,1.77-2.86,4.92-9.12,7.98-10.51,1.78-.8,4.37-.95,6.22-.26,3.81,1.41,8.22,4.07,12,5.87.26.13.56.12.73.2Z"/>
  <path class="cls-1" d="M58.78,164.85l-6.24-3.06c-.16-.08-.63-.71-.87-.03l3.79,2.25-1.67,2.61c-1.51,2.88-3.27,5.6-4.89,8.38-.6,1.04-1.14,2.19-1.77,3.23l-5.58.68c-2.9-1.14-6.48-1.96-9.12-3.65-.33-.21-1.89-1.51-2.06-1.76-.27-.39.82-2.42,1.1-2.91,2.76-4.86,6.04-9.37,8.62-14.4.11-.21.35-.35.42-.55.28-.75-1.14-1.74-1.6-2.33-.99-1.26-1.29-2.66-1.07-4.24.48-3.42,2.38-5.97,4.01-8.87.57-1,1-2.06,1.67-3.01.67.3,1.31.68,1.98.97,5.83,2.56,12.88,6,18.4,9.21.49.28,1.48.57,1.78.97.38.51.32,1.62.1,2.2-.76,2.03-2.4,4.21-3.42,6.16-1.38,2.63-2.67,5.34-3.59,8.15ZM50.06,157.05c.29-.1-.31-1.39-.37-1.65-.33-1.54.14-2.71-1.8-3.32-.87-.27-3.26.93-4.16,1.29-.42.17-.88.26-1.3.44-.86.36-.68.64.16.48,1.51-.3,3.14-1.31,4.59-1.58,2.01-.37,1.92,2.44,2.47,3.76.06.14.17.66.4.59ZM51.67,160.58c-.03-.45-.33-.93-.54-1.33-.1-.2-.48-1.08-.66-1.02-.05.91.37,1.89,1.2,2.35ZM50.67,163.81c-.07-.29-.29-.17-.43.08-.94,1.7-1.93,3.39-3.03,4.98-.88,1.7-1.92,3.29-2.67,5.06l.97-1.21c1.41-2.44,2.97-4.81,4.36-7.25.13-.23.83-1.57.81-1.66Z"/>
  <path class="cls-1" d="M163.66,94.32c.67.39,1.54.32,2.1.92.32,1.78.46,3.61.8,5.38,2.12,10.93,8.74,20,17.91,26.22,7.23,4.9,19.84,8.28,28.63,7.27,7.13-.82,12.53-5.67,7.78-12.77-4.82-7.21-15.77-13.13-23.61-16.23-8.38-3.31-17.04-6.37-25.64-9.22-13.96-4.62-27.14-5.21-41.66-5.31-11.91-.08-26.71-.31-36.91,6.64-1.96,1.34-5.04,3.61-6.6,5.32-.3.32-1.4,2-1.69,1.88-.06-.02-.23-.26-.41-.37-.34-.19-.7-.32-1.04-.5,1.72-2.96,4.56-4.96,7.32-6.86.92-.63,1.95-1.32,2.9-1.91,10.66-6.63,22.64-6.45,34.73-6.48,12.75-.02,25.36.18,37.83,3.34,7.83,1.98,15.85,4.84,23.49,7.55,9.72,3.45,18.41,7.08,26.54,13.64,7.11,5.73,15.15,16.72,2.76,22.08-6.91,2.99-19.47,1.32-26.29-1.51-6.25-2.6-11.02-5.82-15.94-10.46-7.87-7.41-12.51-17.87-13-28.62Z"/>
  <path class="cls-1" d="M165.28,90.61l-1.96-.37c-.01-2.98-.22-5.97-.17-8.96.17-9.4,1.08-18.31-.39-27.75-2.21-14.19-14.02-25.61-26.03-32.38-9.11-5.14-22.22-8.5-32.69-6.77-9.34,1.54-13.65,8.6-14.35,17.63-1.33,17.07-.37,34.88.33,51.97.16,3.85.13,7.7.49,11.54.16.42-1.62,1.56-1.73,1.51-.31-.52-.09-1.02-.09-1.55.02-6.67-.62-13.16-.95-19.8-.5-10.1-1.05-20.71-1.08-30.8s.03-26.39,11.15-31.05c11.33-4.75,29.07-.48,39.22,5.51,10.72,6.32,23.56,17.14,26.71,29.65,2.39,9.5,1.67,18.24,1.59,27.86-.04,4.58.2,9.18-.04,13.76Z"/>
  <path class="cls-1" d="M83.83,107.74l2.23,5.88c4.8,8.84,12.71,14.62,21.18,19.71s21.21,8.29,31.51,9.06c7.34.55,16.1-1.58,22.7-4.75,4.31-2.08,8.36-4.7,12.1-7.7.62-.22,1.46.7,1.61,1.3-4.01,3.24-8.41,6.06-13.06,8.28-10.48,5.01-19.81,5.56-31.2,3.73-17.45-2.81-40.91-13.5-47.8-30.97-.15-.37-.72-1.86-.73-2.12-.01-.49,1.24-1.83,1.48-2.41Z"/>
  <path class="cls-1" d="M158.9,89.25c-.06.24-.25.1-.43.08-.65-.06-2.36-.17-2.79-.48-.31-.22-.78-1.22-1.07-1.61-5.55-7.48-13.83-12.47-22.86-14.53s-21.76.45-30.05,4.8c-3.79,1.99-7.82,4.52-10.73,7.66-.19-.11-.15-.35-.17-.53-.06-.88-.3-2.09.3-2.74s2.98-2.33,3.86-2.94c17.41-11.93,42.79-13.08,58.23,2.98,2.15,2.24,3.93,4.79,5.71,7.31Z"/>
  <path class="cls-1" d="M136.33,141.3c1.73-.61,3.55-1.05,5.26-1.73,7.92-3.16,15.96-9.9,18.94-18.07,2.95-8.09,2.77-16.9-.35-24.87-.39-.98-1.02-1.93-1.29-2.98.56.09,1.87.05,2.32.27.3.15,1.24,2.19,1.44,2.65,1.26,3.04,2.25,8.43,2.22,11.73-.13,13.46-7.33,25.32-19.28,31.45-1.74.89-3.81,2-5.79,1.92l-3.48-.37Z"/>
  <path class="cls-1" d="M79.92,111.31l-.77,1.58c.48.38.41-.25.67-.53.42-.44.87.57.97.95.22.81-.33,1.79-.72,2.49-.99,1.78-2.11,3.56-3.19,5.29-.28.45-.85,1.99-1.52,1.72-.49-.2-1.3-1.33-1.15-1.85l4.31-6.8c-.39-.28-.31-.06-.53.17-1.71,1.87-2.94,4.35-4.3,6.48-1.11-.67-2.2-1.35-3.4-1.86.21-.38.36-.81.58-1.19,1.03-1.76,2.23-3.48,3.35-5.21.3-.47,1.7-3.19,2.3-2.9l3.4,1.66Z"/>
  <path class="cls-1" d="M91,99.88s-.1.3-.08.49c.72,7.52,1.78,14.25,5.05,21.16l3.03,5.6c-.97-.83-2.21-1.65-3.11-2.55-1.3-1.31-2.75-5.01-3.46-6.84-2.05-5.28-2.78-10.7-3.54-16.28.11-.66,1.19-1.16,1.75-1.64.15-.13.36.02.37.06Z"/>
  <path class="cls-1" d="M183.8,125.54c-.45.07-3.7-2.98-4.43-3.33l5.42-5.88c.66-.3,2.12.85,2.64,1.35.31.3,1.42,1.66,1.37,2.03-.04.29-.28.65-.45.89l-4.55,4.95Z"/>
  <path class="cls-1" d="M87.74,85.35c-.23.92.27,2.66.03,3.49-.12.41-1.01,1.37-1.29,1.87-.45.79-.9,2.05-1.21,2.93-.94,2.65-1.42,5.43-1.69,8.22-.38.36-.55.89-.86,1.29-.33.42-1.02.34-1.2.92-.43-.97-.33-2.33-.25-3.4.42-5.29,2.59-11.2,6.04-15.24.14-.16.36-.42.43-.06Z"/>
  <path class="cls-1" d="M130.92,143.95l-3.05.11c-7.25-.43-13.79-2.21-19.87-6.26-1.37-.91-2.6-2.01-3.97-2.91.1-.29.44.02.63.11,2.32,1.08,4.62,2.41,6.95,3.41,1.74.75,3.63,1.43,5.44,2.06,4.51,1.57,9.21,2.56,13.88,3.49Z"/>
  <path class="cls-1" d="M33.93,176.78l2.92,1.23c-.13.23-.21.49-.35.72-.18.31-.87,1.46-1.02,1.62-.2.21-.68.04-.85.2-.28.25.13.32.15.4.06.24-1.85,4-2.16,4.51-.12.19-.15.31-.39.39-.79.25-2.17-.6-2.88-.93l2.87-5.06c.66.14,1.42.68,2.09.53l-1.7-.93,1.32-2.69Z"/>
  <path class="cls-1" d="M31.8,186.72l-1.98,4.03c-.14.28-.99,1.32-1.28,1.63-1.37,1.45-3.5.99-2.81-.88.61-1.65,1.91-3.98,2.88-5.45.14-.22.22-.49.35-.72l2.84,1.39Z"/>
  <path class="cls-1" d="M37.7,185.49l-1.36,2.77s-.22.1-.31.25c-.78,1.27-1.95,3.79-3.8,2.75-1.01-.57-.54-1.65-.06-2.5.19-.34.46-.56.63-.85.68-1.2,1.21-2.52,2.14-3.54.93.38,1.89.6,2.75,1.13Z"/>
  <path class="cls-1" d="M80.94,111.22l-2.77-1.55,3.89-5.35c.68-.93,2.85.69,2.58,1.37l-3.7,5.54Z"/>
  <path class="cls-1" d="M180.36,127.01l-4.53,4.44c-.38-1.24-.98-1.82-2.22-2.26l4.38-4.12,2.37,1.94Z"/>
  <path class="cls-1" d="M40.87,179.4c-.16.61-.44.45-.94.32l.48.62c-.84.88-1.13,2.14-1.74,3.17-1.05,1.75-1.49,1.13-3.11.34l2.48-4.67,1.26.62c.36-.43-.22-.5-.56-.66-.24-.12-.7-.16-.44-.51.34-.21.53,0,.82.1.58.21,1.16.43,1.74.66Z"/>
  <path class="cls-1" d="M190.51,117.87c-.28.21-.51.46-.74.73-.15.17-.05.3-.36.1-.33-.22-.98-1.31-1.44-1.74s-.96-.87-1.57-1.11c.23-.49.68-.72.98-1.18s-.56-.06-.16-.47c.14-.14,1.16-1.11,1.21-.88-.33.56-.57,1.1-.25,1.73.45.91,1.5,2.27,2.34,2.82Z"/>
  <path class="cls-1" d="M188.37,114.66c.15-.34.91.38.99.49.15.2-.21.42.32.38-.18.2-.02.54.19.45.11-.05.47-.66.74-.72.06-.07-.99-1.41-1.3-1.12l.15-.51-.7.24c.09-.32.35-.63.7-.45.15.08,1.83,2.11,1.96,2.36.45.88-.55,1.72-1.18,1.32-.53-.34-1.28-1.98-1.87-2.45Z"/>
  <path class="cls-1" d="M163.12,96.22c-.08.04-.76-1.43-.84-1.62-.09-.22-.27-.31-.05-.58.2.18.6.09.76.2.27.2.27,1.93.12,1.99Z"/>
  <path class="cls-1" d="M72.76,120.93c.16.1.39.56.79.58l-.08.16-3.32-1.63.15-.32c.76.44,1.71.74,2.45,1.2Z"/>
  <path d="M50.06,157.05c-.23.08-.34-.44-.4-.59-.55-1.32-.46-4.13-2.47-3.76-1.45.27-3.07,1.28-4.59,1.58-.84.17-1.03-.12-.16-.48.42-.17.88-.27,1.3-.44.9-.36,3.29-1.56,4.16-1.29,1.93.61,1.46,1.78,1.8,3.32.06.26.65,1.55.37,1.65Z"/>
  <path d="M50.67,163.81c.02.09-.68,1.44-.81,1.66-1.38,2.44-2.95,4.81-4.36,7.25l-.97,1.21c.75-1.78,1.8-3.37,2.67-5.06,1.11-1.6,2.1-3.28,3.03-4.98.14-.25.36-.37.43-.08Z"/>
  <path d="M51.67,160.58c-.83-.46-1.25-1.44-1.2-2.35.18-.06.55.83.66,1.02.21.4.51.88.54,1.33Z"/>
</svg>