<?xml version="1.0" encoding="UTF-8"?>
<svg id="Layer_1" data-name="Layer 1" xmlns="http://www.w3.org/2000/svg" viewBox="0 0 251 205">
  <defs>
    <style>
      .cls-1 {
        fill: #fff;
      }
    </style>
  </defs>
  <g id="Graphic_Elements" data-name="Graphic Elements">
    <path class="cls-1" d="M126.05,88.96s.03,0,.05-.01c-1.02.31-2.42.07-2.26-1.25.7-1.31,2.82-1.3,4.07-2.02,3.03-1.41,18.86-2.28,18.44-5.46-.64-1.54-3.96.04-5.37,0-3.05.86-6.31.84-9.18,2.31-2.74.46-5.49,2.24-8.28,1.97-2.73-2.34,2.99-2.88,4.44-3.23,2.74-1.95,19.63-2.14,17.27-6.28-3.49-1.94-23.44,8.03-23.84,3.5.17-3.33,22.82-3.07,23.17-6.23.17-1.44-1.25-2.31-2.54-1.81-6.48,1.6-12.79,3.38-19.21,5.12-3.01.64-2.18-2.36.16-2.48,3.85-2.18,19.47-3.27,20.29-6.52-.06-2.16-5,.39-6.45.27-5.73.41-11.22,3.76-16.81,3.77-1.84-3.33,2.38-3.14,4.56-3.81,3.24-.83,16.65-2.24,17.56-4.58-1.38-3.44-16.01,3.22-19.56,3.39-1.26.06-2.74.58-3.92.07-.61-1.73,1.59-1.92,2.76-2.2,4.56-1.31,9.16-2.68,13.81-3.66,1.89-.66,5.01-.57,5.95-2.54-.56-2.93-20.11,4.55-23.11,4.05-.98-.11-1.07-1.58-.66-2.26.42-.49,1.2-.4,1.78-.62,4.86-1.12,9.68-2.49,14.59-3.39,1.98-.44,5.11-.27,6.18-2.25-1.28-3.24-15.89,2.56-19.28,2.84-1.29.15-3.41,1.29-4.38.22-.15-.73-.27-1.71.66-1.92,7.22-2.06,15.09-2.86,22.03-5.24.4-4.85-20.89,4.53-23.83,2.93-1.08-1.78,2.25-1.72,3.28-2.17,4.1-1.22,8.09-2.83,12.28-3.73,1.68-.65,10.3-.75,6.11-3.68-4.45.91-9.05,2.05-13.51,3.26-1.74-.03-9.12,3.42-9.34,1.35-.28-3.04,4.13-1.96,6.03-2.91,5.5-1.26,10.93-2.71,16.43-3.98,2.88-3.81-11.71,0-13.09.43-1.99.11-9.61,3.58-10.3,1.91-.21-2.9,4.01-2.05,5.84-3.19,2.19-1.07,18.36-3.08,16.71-5.57-1.77-1.84-4.67.21-6.79.33-5.58.95-10.86,3.32-16.43,4.15-.34.12-.31-.41-.3-.61-.1-.33-.15-.71-.01-1.05.21-.61.88-.74,1.41-.97,6.87-1.9,14.23-2.7,20.73-5.46,1.33-1.98-2.19-3.25-3.69-3.63-2.39.02-4.78-.22-7.17-.24-7.8.22-15.36,2.69-22.72,4.97-2.48.97-2.74,4.61-1.99,6.88,6.35,26.44,12.54,52.97,18.8,79.47,4.61,16.56,10.27,32.87,13.73,49.73,1.19,10.99,2.04,14.77,14.14,10.47,15.57-3.29,2.29-21.59.43-30.96-4.93-12.92-15.04-28.25-6.71-41.78,2.57-3.9,6.33-7.5,11.18-7.74.83-.62.03-2.21-.15-2.99-.1-.09-.5-.13-.63-.15-5.5.58-10.94,2.25-16.28,3.77-1.88-.02-6.38,2.95-6.86.13-.27-.48-.43-.83.1-1.17,5.34-2.1,11.15-3.24,16.76-4.6,1.47-.24,7.46-1.07,4.64-3.26-6.69.96-13.28,3.64-19.89,5.2-1.34.39-3.1.31-3.05-1.47.39-1.47,2.49-1.15,3.66-1.65,3.42-.78,6.59-2.3,10.08-2.83,2.89-.79,6.58-.58,8.97-2.45.08-4.18-9.11.9-11.54.86-3.23,1.19-6.69,1.61-9.94,2.64Z"/>
    <path d="M137.71,179.61c-1.31,0-2.35-.27-3.19-.8-2.57-1.61-3.17-5.54-3.85-11.81-2.34-11.37-5.73-22.68-9.02-33.62-1.58-5.25-3.21-10.68-4.7-16.05-1.8-7.61-3.58-15.21-5.37-22.81-4.37-18.59-8.89-37.81-13.42-56.66-.77-2.36-.58-6.35,2.28-7.46.01,0,.02,0,.03-.01l1.08-.34c7.03-2.19,14.29-4.45,21.77-4.65,1.13,0,2.26.06,3.35.12,1.26.06,2.57.12,3.83.12.06,0,.08,0,.12.01.84.21,3.62,1.03,4.23,2.61.15.4.23,1.03-.26,1.76-.05.08-.13.14-.21.18-4.19,1.78-8.8,2.77-13.26,3.72-2.48.53-5.05,1.08-7.5,1.76-.1.04-.2.08-.3.12-.45.17-.72.29-.81.55-.08.22-.08.46.01.75.02.06.03.12.02.18,0,.02,0,.04,0,.06,2.77-.44,5.53-1.27,8.2-2.07,2.58-.78,5.26-1.58,7.97-2.04.02,0,.04,0,.05,0,.63-.04,1.35-.26,2.11-.5,1.71-.53,3.65-1.14,5.05.32.02.02.04.04.05.07.22.33.26.69.12,1.04-.64,1.56-5.3,2.64-11.8,3.98-2.32.48-4.52.93-5.19,1.25-.72.44-1.7.6-2.65.76-2.01.34-2.98.64-2.95,1.85.1.08.48.25,1.89-.03,1.24-.25,2.82-.76,4.21-1.21,1.54-.5,2.88-.93,3.64-.99.94-.27,12.38-3.48,13.85-1.4.23.32.36.89-.28,1.74-.07.09-.17.15-.28.18-2.63.61-5.29,1.27-7.86,1.91-2.78.69-5.66,1.41-8.51,2.06-.71.33-1.65.43-2.57.52-2.23.23-3.27.49-3.14,1.89,0,.06.03.09.07.11.67.44,3.52-.46,5.39-1.05,1.47-.47,2.65-.84,3.33-.85,5.11-1.38,9.51-2.44,13.48-3.25.13-.03.27,0,.37.08.38.27,1.54,1.08,1.31,2.05-.29,1.21-2.4,1.62-5.36,2.06-.92.14-1.79.27-2.16.41-.02,0-.05.02-.07.02-2.68.58-5.34,1.47-7.9,2.32-1.41.47-2.87.96-4.32,1.39-.32.13-.75.22-1.24.31-.66.13-1.77.34-1.92.69-.04.09,0,.23.06.34,1.25.44,5.82-.85,9.88-1.99,7.14-2.01,11.94-3.23,13.55-1.9.28.23.6.66.54,1.38-.02.19-.14.36-.33.42-3.92,1.34-8.19,2.2-12.33,3.03-3.23.65-6.57,1.32-9.73,2.22-.3.07-.53.21-.34,1.21.53.42,1.59.12,2.53-.15.48-.14.94-.27,1.35-.31,1-.08,3.06-.68,5.45-1.37,7.53-2.17,13.36-3.64,14.34-1.17.05.13.04.28-.02.41-.93,1.72-3.07,2-4.96,2.25-.56.07-1.08.14-1.54.24-3.2.59-6.39,1.38-9.49,2.15-1.66.41-3.37.84-5.06,1.23-.24.09-.48.13-.72.17-.34.06-.64.11-.81.27-.16.3-.2.85-.02,1.22.11.22.25.26.35.27,1.11.18,5.11-.93,8.97-2.01,7.46-2.08,12.47-3.37,14.03-2.4.29.18.47.44.53.75.02.1,0,.21-.04.3-.78,1.62-2.72,2.01-4.44,2.35-.65.13-1.27.25-1.78.43-.02,0-.04.01-.06.02-4.09.86-8.19,2.04-12.15,3.18l-1.63.47c-.17.04-.33.07-.5.11-.71.15-1.69.34-1.95.8-.03.05-.1.18-.05.46.66.2,1.48.08,2.26-.04.41-.06.83-.12,1.23-.14,1.12-.05,3.6-.85,6.22-1.7,6.25-2.02,12.72-4.1,13.81-1.39.05.11.05.24,0,.36-.71,1.82-6.3,2.88-13.54,4.08-1.88.31-3.5.58-4.35.8-.47.14-1.02.25-1.61.36-1.24.23-2.64.5-2.97,1.19-.15.31-.08.75.18,1.31,2.78-.06,5.5-.94,8.38-1.86,2.62-.84,5.34-1.71,8.1-1.91.03,0,.05,0,.08,0,.4.03,1.28-.23,2.13-.48,1.66-.49,3.38-1,4.25-.36.22.16.49.48.51,1.05,0,.04,0,.09-.01.13-.53,2.08-5.1,3.16-12.03,4.56-3.61.73-7.01,1.42-8.49,2.26-.07.04-.14.06-.21.06-.81.04-1.37.5-1.57.94-.03.07-.13.33-.01.48.13.16.54.27,1.3.11,1.56-.42,3.15-.86,4.73-1.29,4.71-1.29,9.57-2.62,14.44-3.82.81-.3,1.71-.17,2.35.33.61.48.91,1.21.81,2-.2,1.83-4.62,2.5-11.81,3.44-4.46.58-11.18,1.46-11.36,2.73.03.2.11.34.27.45,1.41.95,7.07-.82,11.62-2.23,5.34-1.66,9.96-3.1,11.7-2.13.08.04.14.11.18.18.42.74.3,1.34.13,1.71-.93,1.96-5.9,2.78-10.71,3.58-2.91.48-5.92.98-6.83,1.63-.05.04-.11.06-.17.08-.23.06-.56.12-.93.18-1,.18-3.67.67-3.87,1.38-.04.17.12.43.44.73,1.54.1,3.08-.44,4.71-1.02,1.05-.37,2.13-.76,3.22-.95,1.85-.93,3.85-1.27,5.79-1.6,1.13-.19,2.3-.39,3.41-.71.05-.01.1-.02.14-.02.38,0,1-.14,1.65-.29,1.58-.37,3.55-.84,4.15.59.02.04.03.08.03.12.31,2.36-4.9,3.4-12.3,4.61-2.78.45-5.4.88-6.4,1.34-.49.28-1.09.45-1.67.62-.91.26-1.78.51-2.15,1.12-.02.3.1.44.19.51.27.23.84.29,1.38.14,0,0,.02,0,.02,0,1.47-.47,2.99-.81,4.47-1.15,1.81-.41,3.69-.84,5.45-1.49.06-.02.11-.03.17-.03,0,0,.01,0,.02,0,.69,0,2.11-.49,3.62-1.01,3.04-1.05,6.17-2.13,7.63-1.07.51.37.76.94.74,1.71,0,.14-.07.28-.18.37-1.7,1.33-3.95,1.66-6.14,1.98-1.07.16-2.07.3-3,.56-.02,0-.04,0-.06.01-1.95.3-3.84.93-5.68,1.53-1.4.46-2.84.94-4.32,1.28-.42.17-.91.25-1.39.33-1.07.17-1.74.32-1.93.93,0,.39.11.67.34.85.4.31,1.22.34,2.09.09,2.6-.61,5.23-1.41,7.77-2.18,3.97-1.2,8.08-2.45,12.19-3.03.13-.02.26.02.37.1.74.58,1.04,1.17.89,1.76-.34,1.31-2.84,1.89-5.5,2.32l-.24.04c-1.1.26-2.2.52-3.31.78-4.47,1.04-9.08,2.11-13.33,3.77-.08.06-.09.09-.09.09,0,.07.14.33.19.41.03.05.05.1.05.15.09.5.31.63.39.68.66.39,2.2-.14,3.44-.57.93-.32,1.82-.63,2.5-.64.54-.15,1.08-.31,1.62-.46,4.77-1.36,9.71-2.78,14.68-3.3.05,0,.09,0,.14,0h.09c.33.06.6.11.77.26.08.07.13.16.15.26.03.15.1.35.17.56.29.89.72,2.22-.21,2.92-.08.06-.17.09-.27.1-5,.25-8.64,4.23-10.8,7.53-6.61,10.74-1.21,22.96,3.56,33.75,1.17,2.64,2.27,5.13,3.21,7.59,0,.03.02.05.02.08.46,2.34,1.67,5.29,2.95,8.41,2.66,6.5,5.68,13.87,3.15,18.66-1.18,2.23-3.49,3.72-6.87,4.44-3.3,1.17-5.79,1.75-7.71,1.75ZM100.77,31.3c-2.17.86-2.38,4.19-1.69,6.27,0,.01,0,.03.01.04,4.53,18.86,9.06,38.09,13.43,56.68,1.79,7.6,3.57,15.19,5.37,22.79,1.49,5.34,3.12,10.77,4.69,16.01,3.29,10.97,6.7,22.31,9.05,33.73,0,.01,0,.03,0,.05.65,6,1.2,9.74,3.41,11.12,1.8,1.13,4.82.82,10.09-1.05.02,0,.04-.01.06-.02,3.15-.66,5.19-1.96,6.25-3.95,2.33-4.39-.6-11.54-3.19-17.84-1.29-3.15-2.51-6.13-3-8.55-.93-2.42-2.02-4.89-3.17-7.5-4.86-11-10.38-23.48-3.49-34.66,2.27-3.45,6.07-7.6,11.39-7.96.24-.35-.03-1.19-.22-1.76-.04-.13-.09-.26-.12-.38-.07-.01-.15-.02-.19-.03-.02,0-.03,0-.05,0-4.86.52-9.73,1.92-14.45,3.26-.56.16-1.13.32-1.69.48-.05.01-.09.02-.14.02,0,0-.01,0-.02,0-.52,0-1.39.3-2.23.59-1.57.54-3.2,1.1-4.25.49-.43-.26-.71-.68-.83-1.26-.23-.41-.58-1.17.29-1.74.03-.02.06-.03.09-.05,4.32-1.7,9-2.79,13.51-3.84,1.11-.26,2.22-.51,3.32-.78.01,0,.02,0,.03,0l.26-.04c3.91-.63,4.63-1.27,4.72-1.6.04-.15-.11-.37-.4-.63-3.96.59-7.96,1.8-11.83,2.97-2.56.77-5.2,1.57-7.81,2.19-.55.16-1.99.47-2.93-.26-.34-.26-.74-.77-.72-1.7,0-.04,0-.08.02-.11.35-1.31,1.67-1.52,2.73-1.69.46-.07.89-.14,1.21-.28.03-.01.05-.02.08-.03,1.45-.33,2.89-.81,4.28-1.27,1.86-.62,3.79-1.25,5.81-1.57.98-.27,2.05-.42,3.09-.57,1.97-.29,4.01-.58,5.49-1.64-.04-.47-.26-.63-.33-.68-1.05-.77-4.34.37-6.75,1.2-1.61.56-3.02,1.04-3.88,1.07-1.8.65-3.67,1.08-5.49,1.49-1.42.32-2.89.66-4.29,1.1-.02,0-.04.02-.06.02-.68.2-1.71.24-2.36-.31-.29-.24-.61-.69-.52-1.46,0-.06.02-.12.05-.17.54-1.02,1.73-1.37,2.79-1.67.55-.16,1.08-.31,1.47-.54.01,0,.02-.01.04-.02,1.11-.51,3.69-.94,6.67-1.43,4.04-.66,11.5-1.88,11.5-3.46-.34-.59-1.82-.24-3,.04-.68.16-1.32.31-1.82.32-1.14.32-2.31.52-3.45.71-1.98.34-3.84.65-5.58,1.54-.04.02-.09.04-.14.05-1.03.17-2.05.53-3.13.92-1.71.6-3.47,1.23-5.28,1.05-.1,0-.19-.05-.27-.11-.73-.62-1.02-1.24-.86-1.82.32-1.2,2.37-1.67,4.63-2.08.32-.06.59-.11.79-.15,1.15-.74,3.93-1.2,7.15-1.74,3.92-.65,9.28-1.54,9.99-3.04.07-.14.13-.35-.03-.69-1.53-.63-6.46.91-10.82,2.27-5.48,1.71-10.65,3.32-12.45,2.11-.41-.28-.66-.69-.7-1.21,0-.02,0-.05,0-.07.1-1.99,4.7-2.69,12.2-3.67,4.32-.56,10.84-1.41,10.97-2.59.06-.46-.1-.86-.44-1.13-.39-.3-.94-.37-1.44-.18-.02,0-.04.01-.06.02-4.87,1.2-9.74,2.53-14.45,3.82-1.58.43-3.16.87-4.75,1.3-1.36.29-1.99-.08-2.28-.44-.32-.39-.36-.94-.12-1.48.28-.64,1.05-1.4,2.29-1.5,1.66-.89,5.07-1.58,8.68-2.31,4.53-.92,10.7-2.17,11.26-3.79-.02-.16-.08-.2-.11-.22-.48-.35-2.24.17-3.4.51-1,.3-1.87.55-2.45.52-2.64.2-5.28,1.04-7.84,1.86-2.92.93-5.94,1.9-8.97,1.91h0c-.18,0-.34-.1-.42-.25-.54-.98-.66-1.78-.34-2.45.54-1.14,2.13-1.44,3.66-1.73.56-.11,1.09-.2,1.52-.34.92-.24,2.56-.51,4.46-.82,4.1-.68,11.6-1.92,12.69-3.3-1.17-1.52-8.23.75-12.51,2.13-2.8.9-5.22,1.68-6.47,1.74-.36.02-.73.07-1.14.14-1.01.15-2.04.31-3-.1-.12-.05-.22-.16-.27-.28-.2-.56-.18-1.05.06-1.47.47-.84,1.65-1.08,2.6-1.27.16-.03.32-.06.45-.1l1.6-.46c3.97-1.14,8.08-2.33,12.19-3.19.57-.2,1.21-.32,1.88-.46,1.47-.29,3-.6,3.65-1.62,0,0-.01,0-.02-.01-1.32-.82-8.22,1.11-13.26,2.51-5.01,1.39-8.14,2.24-9.37,2.04-.46-.05-.86-.34-1.08-.81-.32-.64-.28-1.58.08-2.18.01-.02.03-.05.05-.07.39-.45.93-.54,1.4-.62.21-.04.41-.07.57-.13.02,0,.04-.01.07-.02,1.7-.39,3.42-.82,5.08-1.23,3.11-.78,6.32-1.58,9.53-2.16.48-.11,1.03-.18,1.6-.25,1.64-.21,3.33-.44,4.1-1.53-1.21-1.48-8.87.73-13.06,1.93-2.44.7-4.54,1.31-5.62,1.4-.32.04-.74.16-1.18.28-1.21.34-2.71.77-3.6-.21-.06-.06-.1-.14-.12-.23-.11-.54-.44-2.17,1.03-2.49,3.16-.9,6.52-1.58,9.77-2.23,3.98-.8,8.09-1.62,11.86-2.88-.04-.12-.1-.2-.17-.25-1.34-1.1-7.89.74-12.67,2.09-5.78,1.63-9.39,2.58-10.72,1.86-.07-.04-.14-.1-.18-.17-.3-.5-.36-.95-.19-1.36.36-.81,1.56-1.05,2.62-1.25.43-.08.84-.16,1.07-.26.02,0,.04-.01.06-.02,1.44-.43,2.9-.92,4.31-1.39,2.58-.86,5.25-1.76,7.97-2.34.48-.18,1.3-.3,2.33-.45,1.43-.21,4.4-.66,4.56-1.33,0-.03.05-.31-.76-.91-3.9.8-8.25,1.85-13.27,3.21-.04.01-.09.02-.13.02-.52,0-1.83.41-3.1.81-3.02.96-5.23,1.58-6.22.94-.29-.19-.46-.48-.5-.83-.23-2.52,2.22-2.76,4.01-2.95.86-.09,1.74-.18,2.29-.45.03-.02.07-.03.11-.04,2.86-.65,5.75-1.37,8.55-2.07,2.52-.63,5.12-1.27,7.7-1.87.17-.26.2-.42.17-.46-.06-.08-.72-.77-6.19.23-3.09.57-6.1,1.38-6.64,1.55-.04.01-.08.02-.12.02-.63.03-2,.48-3.45.95-4.04,1.31-6.74,2.06-7.32.66-.02-.05-.03-.1-.04-.15-.17-2.33,2.01-2.7,3.75-2.99.87-.15,1.76-.3,2.32-.64.01,0,.03-.02.04-.02.75-.37,2.82-.79,5.44-1.33,3.71-.76,10.61-2.19,11.1-3.4.01-.03.02-.05,0-.1-.99-.98-2.47-.52-4.03-.03-.78.24-1.58.5-2.32.54-2.65.45-5.28,1.25-7.83,2.01-2.77.83-5.64,1.69-8.55,2.13-.22.06-.43.02-.59-.11-.28-.22-.32-.6-.3-.93-.13-.47-.12-.9.03-1.28.23-.69.89-.94,1.38-1.12.1-.04.2-.07.29-.11.02,0,.04-.02.06-.02,2.49-.69,5.08-1.24,7.58-1.78,4.36-.93,8.87-1.89,12.94-3.6.2-.36.15-.6.09-.76-.32-.84-2.03-1.62-3.51-2.01-1.27,0-2.57-.06-3.82-.12-1.08-.05-2.2-.11-3.29-.12-7.33.2-14.53,2.44-21.49,4.61l-1.06.33ZM149.78,94.34h0ZM125.94,88.49h0s0,0,0,0Z"/>
  </g>
</svg>