<?xml version="1.0" encoding="UTF-8"?>
<svg id="Layer_1" data-name="Layer 1" xmlns="http://www.w3.org/2000/svg" viewBox="0 0 251 205">
  <defs>
    <style>
      .cls-1 {
        fill: #231f20;
      }

      .cls-2 {
        fill: #fff;
      }
    </style>
  </defs>
  <g id="ha0ZHg">
    <g>
      <g>
        <path d="M212.66,102.36c-9.32-8.32-22.36-13.58-32.7-20.56-2.46-2.06-2.18-4.35-3.31-6.97-5.09-11.82-18.63-6.58-26.06-.36-1.8,1.5-3.66,4.35-5.14,5.51-.13.1-.22.19-.31.26-.19.35-.42.69-.68,1-.14.25-.31.5-.49.73,0,0,0,0,0,0-.19.7-.54,1.35-.99,1.92,0,0,0,0,0,0-2.03,4.39-3.41,9.07-3.96,13.9-.83,7.3-.21,14.17,6.72,18.25,5.99,3.53,9.32.3,14.96,1.57.89.2,2.13.68,3.02,1.02,14.32,5.44,38.65,25.3,53.17,11.85,8.88-8.22,3.48-21.24-4.22-28.11ZM213.08,131.82c-14.47,8.17-36.45-9.85-50.1-14.67-4.43-1.56-4.97-.85-9.1-.46-7.56.72-13.76-5.18-14.15-12.65-.79-15.15,9.3-33.68,25.64-35.38,4.03-.42,8.02,2.3,9.82,5.79,1.75,3.38,1.11,5.93,4.61,8.61,12.01,9.19,33,14.73,39.09,29.97,3.02,7.56,1.49,14.67-5.81,18.79Z"/>
        <path class="cls-1" d="M204.78,136.57c-9.66,0-20.48-5.78-29.77-10.75-4.33-2.32-8.42-4.5-11.83-5.8l-.16-.06c-.81-.31-1.93-.73-2.67-.9-2.02-.46-3.72-.26-5.51-.05-2.88.33-5.87.68-9.88-1.69-8.05-4.74-8.21-13.03-7.45-19.71.55-4.85,1.93-9.68,4.09-14.36l.19-.3c.34-.43.59-.9.72-1.39l.11-.33.17-.21c.13-.16.25-.34.35-.53l.17-.24c.19-.22.36-.47.51-.74l.15-.28.26-.19c.13-.12.21-.18.29-.24.61-.48,1.42-1.44,2.2-2.37.93-1.11,1.9-2.26,2.91-3.11,4.91-4.11,13.08-8.33,19.94-6.69,3.84.92,6.68,3.48,8.46,7.61.4.94.65,1.83.86,2.62.42,1.54.72,2.66,1.98,3.75,3.91,2.63,8.33,5.09,12.61,7.46,7.04,3.91,14.33,7.95,20.18,13.17h0c4.46,3.98,9.25,10.95,9.32,18.6.04,4.56-1.71,8.62-5.08,11.73-3.88,3.59-8.36,4.99-13.11,4.99ZM158.56,114.69c1.31,0,2.68.26,4.92,1.05,3.97,1.4,8.57,3.86,13.43,6.46,12.08,6.45,25.77,13.77,35.43,8.32h0c8.46-4.77,6.86-12.65,5.15-16.92-3.92-9.8-14.49-15.48-24.72-20.97-5.09-2.73-9.9-5.31-13.88-8.36-2.69-2.06-3.31-4.14-3.92-6.15-.29-.95-.58-1.93-1.11-2.96-1.42-2.76-4.76-5.36-8.33-4.98-15.28,1.59-25.07,19.09-24.3,33.81.17,3.33,1.68,6.46,4.13,8.58,2.33,2.01,5.3,2.95,8.38,2.66.91-.09,1.64-.19,2.27-.28.95-.13,1.74-.23,2.55-.23Z"/>
      </g>
      <g>
        <path d="M110.12,90.41s-.06-.08-.09-.12c-.15-.19-.32-.4-.47-.6-.02-.02-.04-.05-.05-.08-.28-.49-.48-.99-.61-1.52-.04-.05-.07-.11-.11-.16-.05-.07-.09-.14-.14-.21-.07-.11-.14-.22-.2-.33-.02-.04-.04-.07-.06-.11-.07-.13-.14-.26-.2-.39-.02.02-.03.04-.05.05-1.55-3.15-3.65-6.28-5.89-8.99-1.62-1.96-7.18-7.72-9.44-8.19-7.06-1.45-8.8,5.71-12.4,9.84-6.88,7.89-21.6,13.26-30.92,18.66-8.26,4.79-13.95,7.46-17.81,16.71-3,7.18-3.76,13.91,3.63,18.54,20.95,13.14,44.12-12.71,64.19-14.27,3.83-.3,5.38.8,8.46,1.12,3.69.38,5.85-1.64,7.23-4.89,3.57-8.44-2.49-17.21-5.08-25.05,0,0,0-.01.01-.02ZM115.09,107.37c.55,4.91-1.01,12.88-7.47,11.87-3.07-.48-4.29-1.38-8.12-1.09-19.84,1.52-41.28,25.55-62.01,15.39-8.69-4.26-7.91-11.53-4.34-19.29,3.68-7.99,9.45-10.64,16.71-14.88,9.62-5.61,24.68-11.11,31.66-19.4,2.27-2.7,4.55-8.43,8.16-9.1,2.88-.53,4.28.58,6.35,2.3,5.4,4.46,10.25,11.71,13.17,18.05,1.67,3.62,5.48,12.52,5.89,16.15Z"/>
        <path class="cls-1" d="M48.2,138.76c-4.6,0-9.17-1.13-13.69-3.97-9.04-5.67-6.74-14.35-4.21-20.39,3.76-9,9.14-12.09,16.57-16.35l1.88-1.08c2.81-1.63,6.04-3.22,9.47-4.92,7.7-3.8,16.43-8.12,21.08-13.44.86-.99,1.62-2.18,2.42-3.45,2.31-3.63,5.18-8.16,11.41-6.87,3.4.7,10.23,8.62,10.29,8.7,1.98,2.4,3.73,4.96,5.14,7.49l.12-.12.9,1.93c.03.07.07.14.1.21l.09.17c.05.08.1.17.15.25l.36.52.07.29c.1.39.25.77.45,1.12.06.07.16.2.26.33l1.03,1.36-.27.27c.57,1.58,1.26,3.2,1.99,4.91,2.67,6.27,5.7,13.37,2.76,20.33-1.8,4.27-4.75,6.21-8.77,5.8-1.24-.13-2.23-.37-3.18-.6-1.52-.37-2.83-.68-5.01-.52-7.24.56-14.92,4.42-23.06,8.51-9.34,4.69-18.9,9.5-28.35,9.5ZM91.04,72.24c-.33,0-.68.04-1.08.11-1.89.35-3.6,3.05-5.11,5.44-.74,1.17-1.44,2.28-2.18,3.16-5.14,6.1-14.44,10.73-22.64,14.81-3.41,1.7-6.64,3.3-9.41,4.92-.73.43-1.45.84-2.15,1.24-6.06,3.47-10.85,6.22-13.96,12.97-4.09,8.88-3,14.06,3.64,17.32,11.96,5.86,24.59-.51,36.81-6.67,8.05-4.06,16.37-8.25,24.42-8.87,2.83-.21,4.39.17,6.04.59.73.18,1.49.37,2.42.52,1.44.22,2.58-.09,3.49-.97,1.95-1.87,2.61-6.07,2.26-9.25-.34-3.08-3.63-11.07-5.76-15.69-2.51-5.45-7.18-12.91-12.76-17.53-1.68-1.38-2.6-2.09-4.04-2.09Z"/>
      </g>
      <path class="cls-2" d="M165.37,68.67c4.03-.42,8.02,2.3,9.82,5.79s1.11,5.93,4.61,8.61c12.01,9.19,33,14.73,39.09,29.97,3.02,7.56,1.49,14.67-5.81,18.79-14.47,8.17-36.45-9.85-50.1-14.67-4.43-1.56-4.97-.85-9.1-.46-7.56.72-13.76-5.18-14.15-12.65-.79-15.15,9.3-33.68,25.64-35.38Z"/>
      <path class="cls-2" d="M89.68,70.87c2.88-.53,4.28.58,6.35,2.3,5.4,4.46,10.25,11.71,13.17,18.05,1.67,3.62,5.48,12.52,5.89,16.15.55,4.91-1.01,12.88-7.47,11.87-3.07-.48-4.29-1.38-8.12-1.09-19.84,1.52-41.28,25.55-62.01,15.39-8.69-4.26-7.91-11.53-4.34-19.29s9.45-10.64,16.71-14.88c9.62-5.61,24.68-11.11,31.66-19.4,2.27-2.7,4.55-8.43,8.16-9.1Z"/>
    </g>
  </g>
</svg>