<?xml version="1.0" encoding="UTF-8"?>
<svg id="Layer_1" data-name="Layer 1" xmlns="http://www.w3.org/2000/svg" viewBox="0 0 251 205">
  <defs>
    <style>
      .cls-1 {
        fill: #fff;
      }
    </style>
  </defs>
  <g>
    <g>
      <path class="cls-1" d="M70.1,105.92l95.85-.09c4.17.37,7.11,3.99,7.41,8.05v55.24c-.32,3.77-2.35,6.69-5.94,7.95-31.85.95-63.91.12-95.84.42-3.89-.39-7.1-3.22-7.72-7.11v-57.12c.16-3.58,2.88-6.41,6.23-7.33ZM157.16,150.85c8.52-8.73,6.5-18.89-2.58-26.06-16.47-13.01-49.02-13.2-66.57-2.23-10.65,6.66-15.85,17.74-5.99,28.09,15.85,16.65,59.13,16.6,75.14.2Z"/>
      <path d="M129.64,178.32c-7.01,0-13.98-.03-20.87-.06-12.19-.05-24.79-.11-37.17,0h-.04s-.04,0-.04,0c-4.3-.43-7.76-3.62-8.42-7.77v-.12s-.02-57.14-.02-57.14v-.02c.18-3.75,2.92-6.98,6.82-8.05l.1-.03h.11s95.89-.09,95.89-.09h.04c4.35.39,7.77,4.08,8.13,8.78v.06s0,55.27,0,55.27v.03c-.36,4.17-2.72,7.31-6.46,8.62l-.11.04h-.12c-12.53.38-25.23.47-37.82.47ZM87.78,176.62c7.05,0,14.09.03,21,.06,19.21.08,39.06.17,58.51-.41,3.1-1.13,4.98-3.68,5.3-7.2v-55.17c-.31-3.89-3.1-6.95-6.66-7.29l-95.71.09c-3.18.91-5.41,3.53-5.56,6.56v57.04c.58,3.4,3.43,6.02,6.98,6.39,5.36-.05,10.76-.07,16.15-.07ZM119.66,163.94c-.18,0-.35,0-.53,0-16.1-.1-30.19-4.86-37.69-12.74-4.1-4.31-5.95-9.12-5.35-13.92.72-5.74,4.81-11.2,11.49-15.38,8.64-5.4,21.08-8.32,34.12-8,13.34.33,25.49,4.07,33.35,10.28,5.01,3.96,7.95,8.89,8.27,13.89.3,4.66-1.64,9.28-5.61,13.35l-.56-.55.56.55c-7.68,7.86-21.88,12.53-38.07,12.53ZM119.77,115.45c-12.05,0-23.38,2.8-31.35,7.78-6.19,3.87-10.11,9.06-10.76,14.24-.55,4.37,1.1,8.63,4.92,12.64,7.21,7.57,20.87,12.15,36.55,12.25.16,0,.33,0,.49,0,15.55,0,29.68-4.6,36.96-12.06,3.65-3.74,5.44-7.94,5.17-12.14-.29-4.54-3.02-9.07-7.68-12.75-7.59-6-19.4-9.62-32.41-9.94-.64-.02-1.27-.02-1.9-.02Z"/>
    </g>
    <g>
      <path class="cls-1" d="M170.2,88.81v14.67h-102.22v-14.83c5.13-2.98,11.65-3.65,17.51-4.26,20.33-2.1,44.65-1.77,64.99.31,6.57.67,13.6,1.6,19.72,4.1ZM72.08,91.33c-.59-.42-2.21-.24-2.21.47v10.88c.48.22,2.21.56,2.21-.16v-11.2ZM79.02,91.33c-.59-.42-2.21-.24-2.21.47v10.88c.48.22,2.21.56,2.21-.16v-11.2ZM83.75,102.69c.48.22,2.21.56,2.21-.16v-10.1c0-2.55-2.21-1.06-2.21-.63v10.88ZM90.7,102.69l1.68.29c.36-.1.44-.41.6-.69.45-.77.33-10.42-.22-10.95-.72-.71-2.07.02-2.07.47v10.88ZM97.64,102.69c.68.11,1.45.66,2.06,0,.43-.44.45-2.81.48-3.62.06-1.52.23-5.94-.16-7.13-.55-1.69-2.38-.65-2.38-.14v10.88ZM104.58,102.69c1.09.31,1.94.73,2.38-.62.25-.76.29-9.58.04-10.22-.58-1.51-2.42-.59-2.42-.05v10.88ZM111.52,91.81v10.41c0,.92,2.52,1.14,2.52-.32v-10.1c0-.23-1-.97-1.4-.8-.35.02-1.05.55-1.12.8ZM118.46,91.81v10.41c0,.23,1,.97,1.4.8.33.02,1.12-.65,1.12-.8v-10.41c0-.23-1-.97-1.4-.8-.35.02-1.05.55-1.12.8ZM125.4,91.81v10.41c0,.23,1,.97,1.4.8.33.02,1.12-.65,1.12-.8v-10.41c0-.23-1-.97-1.4-.8-.35.02-1.05.55-1.12.8ZM132.34,91.81v10.41c0,.23,1,.97,1.4.8.33.02,1.12-.65,1.12-.8v-10.41c0-.23-1-.97-1.4-.8-.35.02-1.05.55-1.12.8ZM139.28,91.81v10.41c0,.23,1,.97,1.4.8.33.02,1.12-.65,1.12-.8v-10.41c0-.23-1-.97-1.4-.8-.35.02-1.05.55-1.12.8ZM146.22,91.81v10.41c0,.23,1,.97,1.4.8.33.02,1.12-.65,1.12-.8v-10.41c0-.23-1-.97-1.4-.8-.35.02-1.05.55-1.12.8ZM153.17,91.81v10.41c0,.23,1,.97,1.4.8.33.02,1.12-.65,1.12-.8v-10.41c0-.23-1-.97-1.4-.8-.35.02-1.05.55-1.12.8ZM160.11,91.81v10.41c0,.23,1,.97,1.4.8.33.02,1.12-.65,1.12-.8v-10.41c0-.23-1-.97-1.4-.8-.35.02-1.05.55-1.12.8ZM167.05,91.81v10.41c0,.23,1,.97,1.4.8.33.02,1.12-.65,1.12-.8v-10.41c0-.23-1-.97-1.4-.8-.35.02-1.05.55-1.12.8Z"/>
      <path d="M170.83,104.11h-103.49v-15.82l.31-.18c5.24-3.04,11.9-3.73,17.77-4.34,19.36-2,43.7-1.88,65.12.31,6.31.65,13.56,1.55,19.9,4.14l.39.16v15.73ZM162.96,102.85h3.75c-.29-.31-.29-.54-.29-.63v-10.5l.02-.08c.15-.53,1.01-1.15,1.58-1.25.48-.14,1.01.12,1.39.37.06.04.11.07.16.11v-1.63c-6.08-2.41-13.07-3.27-19.15-3.9-21.34-2.19-45.59-2.31-64.86-.31-5.62.58-11.98,1.24-16.95,4v13.83h.63v-11.04c0-.44.26-.83.72-1.06.66-.34,1.84-.39,2.48.08l.26.19v11.52c0,.11-.02.22-.05.32h3.52v-11.04c0-.44.26-.83.72-1.06.66-.34,1.84-.39,2.48.08l.26.19v11.52c0,.11-.02.22-.05.32h3.52v-11.04c0-.72,1.13-1.46,1.95-1.46.46,0,.86.2,1.13.57.26.36.39.86.39,1.52v10.1c0,.11-.02.22-.05.32h3.52v-11.04c0-.57.54-1.01,1.05-1.22.77-.32,1.57-.21,2.09.3.19.19.58.58.67,5.83.03,1.92.03,5.24-.35,5.89-.03.05-.05.09-.08.14-.02.03-.03.07-.05.1h3.61v-11.04c0-.68.83-1.27,1.6-1.39.73-.12,1.64.18,2.02,1.34.29.9.36,3.38.19,7.35,0,.1,0,.22-.01.36-.06,1.72-.15,2.8-.45,3.38h3.6v-11.04c0-.68.78-1.23,1.53-1.37.95-.18,1.75.28,2.11,1.19.35.89.22,9.88-.03,10.65-.07.23-.16.42-.26.58h3.78c-.13-.19-.2-.4-.2-.63v-10.5l.02-.08c.15-.53,1.01-1.15,1.58-1.25.48-.14,1.01.12,1.39.37.79.53.79.92.79,1.05v10.1c0,.36-.1.68-.29.95h3.74c-.29-.31-.29-.54-.29-.63v-10.5l.02-.08c.15-.53,1.01-1.15,1.58-1.25.48-.14,1.01.12,1.39.37.79.53.79.92.79,1.05v10.41c0,.25-.14.46-.3.63h3.75c-.29-.31-.29-.54-.29-.63v-10.5l.02-.08c.15-.53,1.01-1.15,1.58-1.25.48-.14,1.01.12,1.39.37.79.53.79.92.79,1.05v10.41c0,.25-.14.46-.3.63h3.75c-.29-.31-.29-.54-.29-.63v-10.5l.02-.08c.15-.53,1.01-1.15,1.58-1.25.48-.14,1.01.12,1.39.37.79.53.79.92.79,1.05v10.41c0,.25-.14.46-.3.63h3.75c-.29-.31-.29-.54-.29-.63v-10.5l.02-.08c.15-.53,1.01-1.15,1.58-1.25.48-.14,1.01.12,1.39.37.79.53.79.92.79,1.05v10.41c0,.25-.14.46-.3.63h3.75c-.29-.31-.29-.54-.29-.63v-10.5l.02-.08c.15-.53,1.01-1.15,1.58-1.25.48-.14,1.01.12,1.39.37.79.53.79.92.79,1.05v10.41c0,.25-.14.46-.3.63h3.75c-.29-.31-.29-.54-.29-.63v-10.5l.02-.08c.15-.53,1.01-1.15,1.58-1.25.48-.14,1.01.12,1.39.37.79.53.79.92.79,1.05v10.41c0,.25-.14.46-.3.63h3.75c-.29-.31-.29-.54-.29-.63v-10.5l.02-.08c.15-.53,1.01-1.15,1.58-1.25.48-.14,1.01.12,1.39.37.79.53.79.92.79,1.05v10.41c0,.25-.14.46-.3.63ZM167.68,102.04c.15.14.45.33.6.37l.06-.03h.09c.13-.05.38-.23.51-.36v-10.04c-.15-.14-.45-.33-.6-.37h-.02s-.1.02-.1.02c-.11.02-.4.22-.53.36v10.05ZM160.74,102.04c.15.14.45.33.6.37l.06-.03h.09c.13-.05.38-.23.51-.36v-10.04c-.15-.14-.45-.33-.6-.37h-.02s-.1.02-.1.02c-.11.02-.4.22-.53.36v10.05ZM153.8,102.04c.15.14.45.33.6.37l.06-.03h.09c.13-.05.38-.23.51-.36v-10.04c-.15-.14-.45-.33-.6-.37h-.02s-.1.02-.1.02c-.11.02-.4.22-.53.36v10.05ZM146.86,102.04c.15.14.45.33.6.37l.06-.03h.09c.13-.05.38-.23.51-.36v-10.04c-.15-.14-.45-.33-.6-.37h-.02s-.1.02-.1.02c-.11.02-.4.22-.53.36v10.05ZM139.91,102.04c.15.14.45.33.6.37l.06-.03h.09c.13-.05.38-.23.51-.36v-10.04c-.15-.14-.45-.33-.6-.37h-.02s-.1.02-.1.02c-.11.02-.4.22-.53.36v10.05ZM132.97,102.04c.15.14.45.33.6.37l.06-.03h.09c.13-.05.38-.23.51-.36v-10.04c-.15-.14-.45-.33-.6-.37h-.02s-.1.02-.1.02c-.11.02-.4.22-.53.36v10.05ZM126.03,102.04c.15.14.45.33.6.37l.06-.03h.09c.13-.05.38-.23.51-.36v-10.04c-.15-.14-.45-.33-.6-.37h-.02s-.1.02-.1.02c-.11.02-.4.22-.53.36v10.05ZM119.09,102.04c.15.14.45.33.6.37l.06-.03h.09c.13-.05.38-.23.51-.36v-10.04c-.15-.14-.45-.33-.6-.37h-.02s-.1.02-.1.02c-.11.02-.4.22-.53.36v10.05ZM98.27,102.2s.08.03.12.04c.58.19.7.18.84.03.15-.26.26-1.21.31-2.85,0-.14,0-.27.01-.37.22-5.2-.02-6.56-.13-6.91-.15-.45-.36-.48-.44-.49-.28-.04-.6.14-.71.26v10.28ZM105.21,102.22c.92.27.97.21,1.15-.34.2-.77.24-9.04.04-9.83-.12-.31-.31-.37-.45-.39-.3-.03-.63.14-.74.25v10.31ZM84.39,102.23c.32.08.72.12.95.1v-9.9c0-.55-.12-.79-.2-.82-.19-.06-.59.17-.75.33v10.29ZM77.44,102.23c.32.08.72.12.95.1v-10.58c-.32-.05-.78.01-.95.13v10.35ZM70.5,102.23c.32.08.72.12.95.1v-10.58c-.32-.05-.78.01-.95.13v10.35ZM112.15,102.17c.12.1.58.23.97.1.27-.09.3-.24.3-.36v-9.92c-.15-.14-.45-.33-.6-.37h-.02s-.1.02-.1.02c-.11.02-.4.22-.53.36v10.18ZM91.33,102.16l.92.16s.06-.1.08-.14c.03-.06.06-.12.1-.18.35-1,.22-9.13-.16-10.26-.06-.04-.17-.08-.34-.07-.27.03-.5.17-.59.25v10.24ZM99.23,102.27s0,0,0,0c0,0,0,0,0,0ZM92.43,101.97s0,0,0,0c0,0,0,0,0,0ZM119.03,101.97h0ZM119.04,92.06h0ZM112.09,92.06h0ZM169.01,92.05h0ZM162.06,92.05h0ZM155.12,92.05h0ZM148.18,92.05h0ZM141.24,92.05h0ZM134.3,92.05h0ZM127.36,92.05h0ZM120.42,92.05h0Z"/>
    </g>
    <g>
      <polygon class="cls-1" points="165.16 105.22 73.03 105.22 73.03 104.27 164.68 104.27 165.15 104.75 165.16 105.22"/>
      <path d="M165.31,105.37h-92.44v-1.26h91.88l.56.57v.69ZM73.18,105.06h91.81v-.25s-.38-.39-.38-.39h-91.43v.63Z"/>
    </g>
    <path class="cls-1" d="M157.16,150.85c-16.01,16.4-59.29,16.45-75.14-.2-9.85-10.35-4.66-21.43,5.99-28.09,17.54-10.97,50.1-10.78,66.57,2.23,9.08,7.17,11.11,17.34,2.58,26.06ZM146.85,134.87l-1.59-.44c-.92-.69.28-10.86.6-12.62-.72-.94-1.17-.63-1.52.31-.5,1.35-.83,10.54-.61,12.26.03.28.16,1.07.49,1.15l2.63-.65ZM106.16,132.66c-1.7-1.1-4.62-8.35-5.67-9-.73-.45-2.39-.05-3.16.32-.12.92,1.05.22,1.6.61.31.22.29.62.32.97.07.78-.27,4.34-.38,5.32-.18,1.56-.69,3.07-.9,4.61,1.04.06,1.3.2,1.49-.86.53-2.96.26-5.96.56-8.92l5.69,9.46,1.1.32c.05-4-.22-8.21,1.26-11.98-.72-.1-1.89-.15-1.89.79v8.36ZM119.09,124.15l-1.44.29-.47,3.79-1.56.49,1.26.15c.2,3.61-1.39,8.49,4.1,5.99l-.16-.63c-3.5,1.53-2.74-2.83-2.54-5.06l2.38-.3c.36-1.24-1.93-.35-2.21-.63l.63-4.1ZM131.68,135.47c.38-1.46.76-5.48,2.26-6.13.57-.25,1.68.48,1.88-.3.68-2.61-4.1-.37-3.47,1.74l-.61-2.7-2.55.18c-.34,1.17,1.35.39,1.58.63l-.32,6.63,1.23-.04ZM143.07,134.56c-3.62,1.48-.81-4.69-2.37-6.31-1.01-1.06-4.83-.23-4.58,1.73.12.94,1.24,1.01,1.28.63-.55-3.57,3.75-2.18,2.22.65-2.27.02-5.04,1.21-3.73,3.85,1.75,1.01,2.97.02,3.87-1.5.02,2.07,2.27,2.72,3.31.95ZM115.93,134.56c-3.91,1.04-.17-4.8-2.34-6.33-1.13-.68-3.27-.27-4.11.67-1.36,1.53,1.09,2.3,1.09,1.71l-.18-1.41c1.3-1.42,2.82-.36,2.71,1.42-.08,1.16-1.47.64-2.3.86-4.32,1.11-1.46,6.86,1.82,2.45.21-.1.28.93.55,1.19.88.88,3.52.09,2.76-.56ZM123.19,127.93h-1.26c0,1.7-1.32,7.25,1.12,7.58,1.82.25,2.65-1.79,3.14-3.17.3,0-.28,3.11,1.88,3.18,1.13.04,2.16-.96,1.05-.89-.4.02-.77.19-1.12-.15-.73-2.12-.36-4.39-.07-6.55l-1.21.04c-.04,1.09-1.74,7.69-3.5,6.25-.85-.69.29-6-.02-6.3ZM104.58,137.4h-4.1s2.35,18.95,2.35,18.95c.31.47,4.13.48,4.46,0l1.24-9.17,1.42,9.47h5.37s2.21-19.25,2.21-19.25l-3.44.04-1.45,7.54-.79-7.58-5.01.04-1.46,7.85-.79-7.89ZM126.98,156.64v-13.72c0-2.26-8.15-3.56-8.82.65-.18,1.12.08,2.46-.02,3.61h3.79c.11-.68-.35-3.61.48-3.79,1.05-.22,1.1,2.73.33,3.49-.86.84-3.79,1.67-4.36,2.9-.42.9-.48,5.57.22,6.26,1.53,1.5,6.28.1,8.38.61ZM131.67,140.91l-4.06-.04,2.75,7.46-2.75,8.31,3.74-.04,1.15-3.74,1.41,3.64,4.11.14-2.82-8.07,2.49-7.23c-.06-.73-3.04-.46-3.73-.43-.44.29-.34,3.15-1.3,3.43l-.99-3.43Z"/>
    <path d="M167.05,91.81c.07-.26.77-.78,1.12-.8.4-.17,1.4.57,1.4.8v10.41c0,.16-.79.82-1.12.8-.4.17-1.4-.57-1.4-.8v-10.41Z"/>
    <path d="M132.34,91.81c.07-.26.77-.78,1.12-.8.4-.17,1.4.57,1.4.8v10.41c0,.16-.79.82-1.12.8-.4.17-1.4-.57-1.4-.8v-10.41Z"/>
    <path d="M125.4,91.81c.07-.26.77-.78,1.12-.8.4-.17,1.4.57,1.4.8v10.41c0,.16-.79.82-1.12.8-.4.17-1.4-.57-1.4-.8v-10.41Z"/>
    <path d="M118.46,91.81c.07-.26.77-.78,1.12-.8.4-.17,1.4.57,1.4.8v10.41c0,.16-.79.82-1.12.8-.4.17-1.4-.57-1.4-.8v-10.41Z"/>
    <path d="M139.28,91.81c.07-.26.77-.78,1.12-.8.4-.17,1.4.57,1.4.8v10.41c0,.16-.79.82-1.12.8-.4.17-1.4-.57-1.4-.8v-10.41Z"/>
    <path d="M160.11,91.81c.07-.26.77-.78,1.12-.8.4-.17,1.4.57,1.4.8v10.41c0,.16-.79.82-1.12.8-.4.17-1.4-.57-1.4-.8v-10.41Z"/>
    <path d="M146.22,91.81c.07-.26.77-.78,1.12-.8.4-.17,1.4.57,1.4.8v10.41c0,.16-.79.82-1.12.8-.4.17-1.4-.57-1.4-.8v-10.41Z"/>
    <path d="M153.17,91.81c.07-.26.77-.78,1.12-.8.4-.17,1.4.57,1.4.8v10.41c0,.16-.79.82-1.12.8-.4.17-1.4-.57-1.4-.8v-10.41Z"/>
    <path d="M111.52,91.81c.07-.26.77-.78,1.12-.8.4-.17,1.4.57,1.4.8v10.1c0,1.46-2.52,1.24-2.52.32v-10.41Z"/>
    <path d="M104.58,102.69v-10.88c0-.54,1.84-1.46,2.42.05.25.64.21,9.46-.04,10.22-.44,1.34-1.29.93-2.38.62Z"/>
    <path d="M97.64,102.69v-10.88c0-.51,1.83-1.55,2.38.14.39,1.19.22,5.61.16,7.13-.03.81-.05,3.18-.48,3.62-.6.65-1.37.1-2.06,0Z"/>
    <path d="M90.7,102.69v-10.88c0-.45,1.35-1.19,2.07-.47.55.54.67,10.18.22,10.95-.16.28-.24.59-.6.69l-1.68-.29Z"/>
    <path d="M83.75,102.69v-10.88c0-.43,2.21-1.92,2.21.63v10.1c0,.72-1.72.38-2.21.16Z"/>
    <path d="M79.02,91.33v11.2c0,.72-1.72.38-2.21.16v-10.88c0-.71,1.62-.9,2.21-.47Z"/>
    <path d="M72.08,91.33v11.2c0,.72-1.72.38-2.21.16v-10.88c0-.71,1.62-.9,2.21-.47Z"/>
    <path class="cls-1" d="M104.58,137.4l.79,7.89,1.46-7.85,5.01-.04.79,7.58,1.45-7.54,3.44-.04-2.21,19.25h-5.37s-1.42-9.47-1.42-9.47l-1.24,9.17c-.33.48-4.14.47-4.46,0l-2.35-18.95h4.1Z"/>
    <path class="cls-1" d="M126.98,156.64c-2.1-.51-6.85.89-8.38-.61-.7-.68-.64-5.35-.22-6.26.57-1.22,3.5-2.06,4.36-2.9.78-.76.72-3.71-.33-3.49-.82.17-.37,3.11-.48,3.79h-3.79c.1-1.15-.16-2.49.02-3.61.67-4.21,8.82-2.91,8.82-.65v13.72ZM123.19,154.12v-4.42c-2.05.53-1.06,2.76-1.26,4.42h1.26Z"/>
    <path class="cls-1" d="M131.67,140.91l.99,3.43c.96-.28.86-3.14,1.3-3.43.69-.03,3.67-.31,3.73.43l-2.49,7.23,2.82,8.07-4.11-.14-1.41-3.64-1.15,3.74-3.74.04,2.75-8.31-2.75-7.46,4.06.04Z"/>
    <path class="cls-1" d="M106.16,132.66v-8.36c0-.93,1.18-.88,1.89-.79-1.49,3.77-1.22,7.99-1.26,11.98l-1.1-.32-5.69-9.46c-.3,2.96-.03,5.97-.56,8.92-.19,1.06-.45.92-1.49.86.22-1.55.72-3.06.9-4.61.12-.98.46-4.55.38-5.32-.03-.34-.01-.75-.32-.97-.55-.39-1.72.31-1.6-.61.77-.38,2.43-.77,3.16-.32,1.05.65,3.98,7.9,5.67,9Z"/>
    <path class="cls-1" d="M123.19,127.93c.31.29-.83,5.6.02,6.3,1.76,1.44,3.46-5.16,3.5-6.25l1.21-.04c-.29,2.16-.65,4.44.07,6.55.35.34.72.17,1.12.15,1.11-.07.09.93-1.05.89-2.16-.07-1.59-3.18-1.88-3.18-.48,1.37-1.32,3.42-3.14,3.17-2.44-.33-1.12-5.88-1.12-7.58h1.26Z"/>
    <path class="cls-1" d="M143.07,134.56c-1.04,1.77-3.29,1.13-3.31-.95-.9,1.51-2.11,2.51-3.87,1.5-1.31-2.64,1.46-3.83,3.73-3.85,1.52-2.83-2.78-4.22-2.22-.65-.04.38-1.16.32-1.28-.63-.24-1.96,3.57-2.79,4.58-1.73,1.56,1.62-1.25,7.79,2.37,6.31ZM139.6,131.72c-1.04.25-2.55.43-2.55,1.73,0,2.51,3.04-.15,2.55-1.73Z"/>
    <path class="cls-1" d="M115.93,134.56c.76.65-1.88,1.43-2.76.56-.26-.26-.33-1.28-.55-1.19-3.28,4.4-6.14-1.34-1.82-2.45.83-.21,2.23.3,2.3-.86.12-1.77-1.4-2.84-2.71-1.42l.18,1.41c0,.58-2.45-.19-1.09-1.71.84-.94,2.98-1.35,4.11-.67,2.17,1.53-1.57,7.37,2.34,6.33ZM112.78,131.72c-1.18.4-2.81.35-2.8,1.99l.59.71c.73.34,2.55-1.8,2.21-2.7Z"/>
    <path class="cls-1" d="M146.85,134.87l-2.63.65c-.33-.08-.45-.87-.49-1.15-.21-1.72.11-10.92.61-12.26.35-.94.8-1.24,1.52-.31-.32,1.76-1.53,11.93-.6,12.62l1.59.44Z"/>
    <path class="cls-1" d="M119.09,124.15l-.63,4.1c.28.28,2.57-.61,2.21.63l-2.38.3c-.2,2.23-.96,6.59,2.54,5.06l.16.63c-5.48,2.5-3.9-2.39-4.1-5.99l-1.26-.15,1.56-.49.47-3.79,1.44-.29Z"/>
    <path class="cls-1" d="M131.68,135.47l-1.23.04.32-6.63c-.23-.23-1.92.54-1.58-.63l2.55-.18.61,2.7c-.63-2.11,4.16-4.35,3.47-1.74-.2.78-1.31.05-1.88.3-1.49.65-1.87,4.68-2.26,6.13Z"/>
    <path class="cls-1" d="M123.19,154.12h-1.26c.2-1.65-.79-3.89,1.26-4.42v4.42Z"/>
    <path class="cls-1" d="M139.6,131.72c.49,1.58-2.56,4.25-2.55,1.73,0-1.3,1.51-1.48,2.55-1.73Z"/>
    <path class="cls-1" d="M112.78,131.72c.34.9-1.48,3.03-2.21,2.7l-.59-.71c0-1.63,1.62-1.59,2.8-1.99Z"/>
  </g>
  <g>
    <g>
      <path class="cls-1" d="M130.67,82.94l12.63-14.57c.57-.17,5.35,3.25,5.23,3.79-8.49,8.3-16.31,17.26-21.71,27.93-8.18,16.16-12.67,27.24-25.53,40.88-6.81,7.23-19,14.29-21.9,23.71-2,6.5-1.34,13.59-7.96,17.59-13.16,7.96-19.92-9.03-9.19-17.94,7.82-6.5,11.49-5.34,16.3-16.18,5.78-13.04,8.93-22.34,17.52-34.3,8.18-11.39,19.36-19.01,27.08-30.2,4.59-6.66,8.03-14.06,11.52-21.33l5.39,3.66-9.4,16.97ZM114.52,100.18c-9.11,1.14-24.03,23.24-25.05,31.87-.63,5.3,1.3,9.07,7.09,7.09,8.88-3.03,23.72-24.4,23.54-33.77-.06-3.43-2.07-5.64-5.59-5.2Z"/>
      <path d="M65,185.12c-3.12,0-5.48-1.55-6.9-3.55-3.26-4.58-2.79-12.51,3.65-17.85,2.45-2.04,4.49-3.33,6.29-4.46,3.95-2.5,6.56-4.15,9.79-11.43,1.12-2.52,2.13-4.89,3.11-7.18,4.03-9.41,7.51-17.54,14.48-27.26,4.05-5.64,8.87-10.41,13.53-15.01,4.96-4.9,9.65-9.54,13.54-15.18,4.21-6.11,7.5-12.96,10.68-19.59l1.18-2.45,6.75,4.57-6.09,11.01,7.84-9.05.22-.07c1.25-.38,5.4,3.2,5.44,3.24.47.43.91.91.79,1.47l-.05.23-.17.16c-10.32,10.1-16.96,18.65-21.56,27.72-1.15,2.28-2.23,4.46-3.28,6.56-6.29,12.68-11.26,22.7-22.38,34.51-2.18,2.31-4.84,4.56-7.66,6.93-5.97,5.03-12.14,10.24-14.06,16.47-.51,1.65-.85,3.38-1.17,5.04-.95,4.84-1.93,9.84-7.13,12.98-2.56,1.55-4.86,2.18-6.85,2.18ZM134.98,63.48l-.38.8c-3.2,6.68-6.52,13.6-10.8,19.81-3.97,5.76-8.93,10.66-13.73,15.4-4.61,4.56-9.39,9.28-13.36,14.81-6.87,9.58-10.16,17.25-14.32,26.96-.98,2.3-2,4.67-3.12,7.2-3.42,7.72-6.34,9.56-10.39,12.12-1.76,1.11-3.75,2.37-6.12,4.34-4.4,3.66-6.94,10.71-3.37,15.73,2.49,3.49,6.84,3.84,11.65.94,4.6-2.78,5.47-7.23,6.4-11.94.34-1.71.68-3.48,1.21-5.2,2.05-6.67,8.4-12.03,14.55-17.21,2.78-2.35,5.41-4.56,7.53-6.81,10.96-11.63,15.88-21.56,22.11-34.12,1.05-2.11,2.13-4.29,3.28-6.57,4.6-9.09,11.21-17.65,21.38-27.67-.84-.79-3.01-2.34-3.93-2.8l-17.24,19.89,12.7-22.94-4.04-2.74ZM93.73,140.48c-1.22,0-2.26-.34-3.1-1.02-1.69-1.37-2.36-3.96-1.94-7.5.51-4.34,4.39-12.03,9.64-19.12,2.8-3.79,9.99-12.68,16.1-13.44l.1.78-.1-.78c1.81-.23,3.38.18,4.53,1.17,1.24,1.07,1.91,2.73,1.95,4.8.18,9.77-14.9,31.39-24.08,34.53-1.13.39-2.16.58-3.09.58ZM114.62,100.97c-8.57,1.08-23.36,22.68-24.37,31.18-.35,2.93.14,5.09,1.37,6.08,1.02.83,2.6.88,4.69.17,8.55-2.92,23.18-23.9,23.01-33.01-.03-1.61-.51-2.86-1.4-3.63-.81-.7-1.92-.97-3.3-.8h0Z"/>
    </g>
    <g>
      <path class="cls-1" d="M125.46,20.64c3.21-.55,4.83.8,7.29,2.38,17.53,11.28,36.2,25.01,53.12,37.37,4.31,3.15,10.34,5.85,7.73,12.34-.64,1.59-9.66,14.5-10.95,15.69-2.2,2.03-5.7,2.48-8.32,1.03l-61.91-43.54c-1.79-2.11-2.44-5.03-1.43-7.62.66-1.68,9.51-14.34,10.91-15.72.82-.81,2.42-1.73,3.55-1.92ZM126.92,26.84c-.97.17-2.46.86-3.19,1.55-.94.89-6.49,8.97-6.76,10.02-.79,3.08.82,5.97,2.73,8.24,17.68,12.36,35.03,25.4,53.21,36.92,2.56.84,6.04.74,8.12-1.16,1.09-.99,6.5-9.09,6.75-10.39.93-4.7-2.64-7.64-5.93-10.17-15.23-11.75-32.43-21.89-47.8-33.57-2.1-1.16-4.76-1.84-7.15-1.43Z"/>
      <path d="M177.71,90.92c-1.28,0-2.56-.3-3.69-.92l-.06-.04-61.98-43.59-.05-.06c-2.01-2.37-2.6-5.54-1.53-8.26.75-1.92,9.68-14.58,11.06-15.94.87-.85,2.55-1.87,3.88-2.09h0c3.14-.54,4.95.65,7.05,2.03.22.15.45.3.69.45,16.48,10.61,34.32,23.63,50.06,35.12l3.1,2.26c.61.44,1.27.89,1.91,1.32,3.97,2.68,8.46,5.73,6.04,11.76-.68,1.68-9.71,14.62-11.1,15.92-1.45,1.34-3.41,2.04-5.37,2.04ZM174.67,88.91c2.38,1.29,5.56.89,7.56-.96,1.22-1.13,10.2-13.99,10.79-15.46,2.05-5.09-1.65-7.59-5.57-10.24-.65-.44-1.32-.89-1.94-1.35l-3.1-2.26c-15.72-11.48-33.55-24.5-50-35.08-.24-.15-.47-.31-.7-.46-2.1-1.38-3.49-2.29-6.15-1.84h0c-.92.16-2.42.98-3.21,1.75-1.43,1.41-10.18,14.01-10.77,15.5-.89,2.27-.4,4.91,1.27,6.92l61.81,43.47ZM176.11,84.71c-1.2,0-2.38-.2-3.4-.54l-.07-.02-.07-.04c-12.69-8.04-25.17-16.96-37.24-25.59-5.23-3.74-10.64-7.61-15.99-11.34l-.07-.05-.05-.06c-2.6-3.1-3.57-6.06-2.86-8.8.34-1.3,6.02-9.46,6.94-10.32.79-.75,2.37-1.52,3.51-1.72h0c2.34-.4,5.09.15,7.56,1.5l.08.05c7.45,5.67,15.47,11.06,23.23,16.28,8.22,5.53,16.72,11.25,24.57,17.3,3.04,2.34,7.2,5.55,6.16,10.79-.3,1.5-5.87,9.75-6.95,10.74-1.43,1.31-3.41,1.83-5.34,1.83ZM173.18,82.99c2.26.72,5.52.7,7.43-1.05,1.15-1.05,6.36-9.03,6.56-10.05.82-4.14-2.09-6.77-5.69-9.55-7.82-6.03-16.3-11.73-24.5-17.25-7.76-5.22-15.78-10.61-23.25-16.29-2.18-1.19-4.68-1.69-6.7-1.34h0c-.89.15-2.25.81-2.86,1.39-.98.93-6.33,8.83-6.58,9.72-.6,2.34.23,4.83,2.55,7.61,5.33,3.73,10.72,7.58,15.93,11.3,12.03,8.6,24.48,17.5,37.12,25.51Z"/>
    </g>
    <path class="cls-1" d="M114.52,100.18c3.51-.44,5.52,1.77,5.59,5.2.17,9.36-14.67,30.74-23.54,33.77-5.79,1.98-7.72-1.79-7.09-7.09,1.02-8.63,15.94-30.73,25.05-31.87ZM115.7,104.47c-5.91,1.72-10.7,7.78-14.16,12.65-3.69,5.19-7.87,11.83-7.73,18.36,5.4-2.02,10.07-7.34,13.44-11.92,3.91-5.31,8.06-12.45,8.45-19.09Z"/>
    <path d="M126.92,26.84c2.39-.41,5.05.28,7.15,1.43,15.37,11.68,32.56,21.82,47.8,33.57,3.28,2.53,6.86,5.47,5.93,10.17-.26,1.3-5.66,9.4-6.75,10.39-2.08,1.9-5.56,2-8.12,1.16-18.18-11.52-35.53-24.56-53.21-36.92-1.91-2.27-3.52-5.16-2.73-8.24.27-1.05,5.82-9.13,6.76-10.02.73-.69,2.21-1.39,3.19-1.55ZM121.54,41.71c.63,1.66,2.19,2.56,3.53,3.58,15.42,11.74,32.51,22,48.02,33.71,1.18.57,3.44,1.06,4.64.48,1.07-.52,4.31-6.71,5.64-7.86.83-2.28-1.63-4.23-3.12-5.61l-48.98-34.21c-1.36-.65-3.31-1.15-4.61-.1-.36.29-5.14,7.04-5.29,7.48-.26.74-.25,1.41-.2,2.18l4.18.02,48.19,33.54,1.63,4.02-53.64-37.21Z"/>
    <path class="cls-1" d="M115.7,104.47c-.39,6.65-4.55,13.78-8.45,19.09-3.37,4.58-8.03,9.9-13.44,11.92-.14-6.52,4.04-13.17,7.73-18.36,3.46-4.88,8.25-10.93,14.16-12.65Z"/>
    <path class="cls-1" d="M121.54,41.71l53.64,37.21-1.63-4.02-48.19-33.54-4.18-.02c-.05-.77-.06-1.43.2-2.18.15-.43,4.94-7.19,5.29-7.48,1.29-1.05,3.25-.55,4.61.1l48.98,34.21c1.49,1.38,3.95,3.33,3.12,5.61-1.33,1.16-4.57,7.34-5.64,7.86-1.19.58-3.45.09-4.64-.48-15.51-11.7-32.6-21.97-48.02-33.71-1.34-1.02-2.91-1.91-3.53-3.58ZM180.65,70.9c.22-.29-.94-4.02-1.69-4.33l-46.7-32.84-4.87-.41,53.27,37.58ZM178.1,74.91l-1.85-4.17-46.91-33c-1.47-.78-3.27-.29-4.87-.41l53.64,37.58Z"/>
    <path d="M178.1,74.91l-53.64-37.58c1.61.12,3.41-.37,4.87.41l46.91,33,1.85,4.17Z"/>
    <path d="M180.65,70.9l-53.27-37.58,4.87.41,46.7,32.84c.74.3,1.91,4.04,1.69,4.33Z"/>
  </g>
</svg>