<?xml version="1.0" encoding="UTF-8"?>
<svg xmlns="http://www.w3.org/2000/svg" viewBox="0 0 251 205">
  <defs>
    <style>
      .cls-1 {
        fill: #828282;
      }

      .cls-2 {
        fill: #4c4d51;
      }

      .cls-3 {
        fill: #231f20;
      }

      .cls-4 {
        font-family: Krungthep, Krungthep;
      }

      .cls-5 {
        fill: #a5a6aa;
      }

      .cls-6 {
        font-size: 8px;
      }

      .cls-7 {
        isolation: isolate;
      }

      .cls-8 {
        fill: #f1f2f2;
      }

      .cls-9 {
        font-family: SFPro-Semibold, 'SF Pro';
        font-variation-settings: 'wdth' 100, 'opsz' 28, 'wght' 590;
        font-weight: 600;
      }

      .cls-10 {
        fill: #050505;
      }

      .cls-11 {
        fill: #fff;
      }

      .cls-12 {
        fill: #0c0c0c;
      }

      .cls-13 {
        fill: #fcfcfc;
      }

      .cls-14 {
        fill: #232323;
      }

      .cls-15 {
        fill: #e6e7e8;
      }

      .cls-16 {
        fill: #616161;
      }

      .cls-17 {
        opacity: .7;
      }

      .cls-17, .cls-18 {
        mix-blend-mode: screen;
      }

      .cls-18 {
        opacity: .3;
      }
    </style>
  </defs>
  <g class="cls-7">
    <g id="Layer_1" data-name="Layer 1">
      <g>
        <g>
          <path class="cls-11" d="M126.08,116.4c-.52.52-1.37.52-1.9,0-14.09-14.09-28.67-28.67-22.49-64.99,2.9-17.06-1.53-30.87-11.57-36.06-8.27-4.27-18.56-1.48-27.51,7.47-15.74,15.74-2.77,34.71,6.7,48.55,3.21,4.69,5.98,8.75,7.1,11.94,2.18,6.19,1.38,12.91-2.3,19.44-2.74,4.86-6.08,7.89-6.22,8.01-.55.49-1.4.45-1.89-.1-.49-.55-.45-1.4.1-1.89.17-.16,12.41-11.4,7.78-24.56-1.01-2.86-3.68-6.78-6.79-11.31-9.43-13.8-23.69-34.65-6.38-51.96,9.82-9.82,21.28-12.8,30.64-7.96,11.11,5.74,16.08,20.64,12.98,38.89-5.94,34.96,8.13,49.03,21.74,62.65.52.52.52,1.37,0,1.9Z"/>
          <path d="M65.96,110.81s-.04-.04-.06-.06c-.26-.29-.39-.67-.37-1.06.02-.39.19-.75.49-1.01.03-.03,3.17-2.9,5.66-7.37,2.26-4.05,4.46-10.29,2.08-17.05-1-2.84-3.67-6.76-6.77-11.28-9.46-13.83-23.75-34.74-6.36-52.12,9.86-9.86,21.37-12.85,30.79-7.98,11.16,5.77,16.16,20.72,13.05,39.03-5.93,34.89,8.12,48.94,21.71,62.53.57.57.57,1.5,0,2.08s-1.5.57-2.08,0c-14.12-14.12-28.71-28.71-22.52-65.1,2.89-17-1.52-30.76-11.5-35.92-8.22-4.25-18.45-1.46-27.36,7.45-15.66,15.67-2.73,34.58,6.71,48.39,3.21,4.7,5.99,8.76,7.12,11.97,2.19,6.23,1.39,12.98-2.31,19.54-2.77,4.91-6.11,7.92-6.25,8.04-.29.26-.67.39-1.06.37-.36-.02-.7-.17-.96-.43ZM96.65,17.01c-1.58-1.58-3.37-2.9-5.35-3.92-9.31-4.81-20.71-1.85-30.49,7.94-17.24,17.24-3.02,38.04,6.39,51.8,3.11,4.54,5.79,8.47,6.8,11.34,4.68,13.3-7.69,24.59-7.81,24.7-.24.21-.38.51-.4.83-.02.32.09.64.31.88.22.24.51.38.84.4.32.02.63-.09.88-.31.14-.12,3.45-3.11,6.2-7.98,3.66-6.49,4.45-13.18,2.29-19.33-1.12-3.18-3.88-7.22-7.09-11.91-9.49-13.89-22.5-32.9-6.68-48.72,9-9,19.34-11.8,27.66-7.5,10.09,5.21,14.55,19.08,11.63,36.19-6.17,36.26,8.38,50.81,22.45,64.88.47.47,1.24.47,1.71,0s.47-1.24,0-1.71c-13.63-13.63-27.73-27.73-21.78-62.76,2.54-14.93-.34-27.61-7.56-34.83Z"/>
        </g>
        <g>
          <g>
            <path class="cls-10" d="M120.86,113.77l-2.95-2.95c-.57-.57,2.3-3.44,2.87-2.87l2.95,2.95-2.87,2.87Z"/>
            <path class="cls-14" d="M118.21,109.79l3.32,3.32,1.1-1.1-3.37-3.37c-.39.35-.78.76-1.05,1.15Z"/>
          </g>
          <g>
            <g>
              <path class="cls-11" d="M129.58,127.52l-11.29-11.29c-2.18-2.18,5.71-10.07,7.89-7.89l11.29,11.29-7.89,7.89Z"/>
              <path d="M129.58,128l-11.53-11.53c-1.3-1.3.23-3.98,2.31-6.06,1.06-1.06,2.2-1.9,3.22-2.37,1.57-.73,2.41-.37,2.84.06l11.53,11.53-8.37,8.37ZM125.94,108.58c-.79-.79-2.98.2-5.09,2.31s-3.1,4.3-2.31,5.09l11.04,11.04,7.41-7.41-11.04-11.04Z"/>
            </g>
            <g class="cls-18">
              <path class="cls-1" d="M118.29,116.23l11.29,11.29,1.1-1.1-12.46-12.46c-.39.93-.44,1.76.07,2.27Z"/>
            </g>
            <path class="cls-11" d="M126.18,108.34c-.48-.48-1.24-.47-2.1-.14l12.41,12.41.98-.98-11.29-11.29Z"/>
            <g>
              <path class="cls-12" d="M124.62,112.98l-1.69,1.69c-.1.1-.27.1-.37,0s-.1-.27,0-.38l1.69-1.69c.1-.1.27-.1.37,0s.1.27,0,.37Z"/>
              <path class="cls-12" d="M125.17,113.53l-1.69,1.69c-.1.1-.27.1-.38,0s-.1-.27,0-.38l1.69-1.69c.1-.1.27-.1.37,0s.1.27,0,.38Z"/>
              <path class="cls-12" d="M125.72,114.08l-1.69,1.69c-.1.1-.27.1-.37,0s-.1-.27,0-.38l1.69-1.69c.1-.1.27-.1.38,0s.1.27,0,.37Z"/>
            </g>
          </g>
        </g>
        <g>
          <g>
            <path class="cls-3" d="M203.18,165.23c1.93,1.93,2.46,4.52,1.19,5.79l-22.72,22.72c-1.27,1.27-3.86.74-5.79-1.19l-54.83-54.83c-1.93-1.93-2.46-4.52-1.19-5.79l22.72-22.72c1.27-1.27,3.86-.74,5.79,1.19l54.83,54.83Z"/>
            <path class="cls-3" d="M180.59,192.7c-.89.89-2.71.52-4.05-.83l-54.83-54.83c-1.35-1.35-1.72-3.16-.83-4.05l22.72-22.72c.89-.89,2.7-.51,4.05.83l54.83,54.83c1.35,1.35,1.72,3.16.83,4.05l-22.72,22.72Z"/>
            <path class="cls-11" d="M179.55,191.65c-.51.51-1.55.29-2.32-.48l-54.83-54.83c-.77-.77-.98-1.81-.48-2.32l22.72-22.72c.51-.51,1.55-.29,2.32.48l54.83,54.83c.77.77.98,1.81.48,2.32l-22.72,22.72Z"/>
            <path class="cls-13" d="M202.27,168.93l-22.72,22.72c-.51.51-1.55.29-2.32-.48l-54.83-54.83c-.77-.77-.98-1.81-.48-2.32l80.34,34.9Z"/>
            <path class="cls-11" d="M180.62,192.73s-.03.03-.1.09c-.06.06-.17.14-.33.22-.16.08-.38.15-.67.18-.29.03-.66,0-1.09-.13-.43-.13-.92-.37-1.41-.75-.25-.19-.48-.42-.72-.66-.24-.24-.49-.48-.74-.74-1.03-1.03-2.22-2.21-3.55-3.53-2.65-2.65-5.9-5.84-9.61-9.52-3.71-3.68-7.9-7.82-12.46-12.34-2.28-2.27-4.65-4.63-7.11-7.07-2.46-2.44-4.98-4.99-7.58-7.59-1.3-1.3-2.62-2.63-3.95-3.96-1.33-1.34-2.68-2.7-4.04-4.07-1.36-1.37-2.74-2.76-4.13-4.16-.35-.35-.7-.7-1.04-1.05-.18-.18-.34-.34-.53-.54-.08-.09-.17-.17-.25-.28-.08-.11-.18-.21-.25-.32-.61-.84-.92-1.82-.8-2.6.05-.39.21-.73.45-.98.24-.25.47-.47.71-.71.48-.47.95-.94,1.44-1.41.96-.95,1.92-1.9,2.89-2.86,1.93-1.92,3.89-3.87,5.86-5.83,1.96-1.97,3.94-3.96,5.92-5.96,1.98-2.01,3.96-4.02,5.95-6.04.52-.52,1.44-.67,2.4-.33.48.16.97.43,1.41.78.11.09.22.18.32.28l.16.15.14.14.57.57c1.52,1.51,3.03,3.02,4.55,4.52,3.03,3.01,6.04,6.01,9.04,8.98,5.97,5.96,11.85,11.82,17.54,17.49,5.68,5.68,11.17,11.17,16.38,16.38,1.3,1.3,2.58,2.59,3.85,3.85.63.63,1.26,1.26,1.88,1.88.31.31.62.62.93.93l.24.25c.08.08.16.19.24.28.15.19.28.38.4.58.47.79.66,1.64.55,2.32-.05.34-.18.64-.37.88l-.15.17-.15.15c-.1.1-.2.19-.3.29-.79.77-1.56,1.53-2.31,2.28-3.03,2.96-5.81,5.67-8.28,8.08-2.46,2.41-4.62,4.49-6.37,6.24-3.51,3.48-5.52,5.47-5.52,5.47h0ZM180.57,192.67s1.99-2.01,5.47-5.52c1.75-1.75,3.83-3.91,6.24-6.37,2.4-2.47,5.12-5.25,8.08-8.28.74-.76,1.5-1.53,2.28-2.31.1-.1.19-.2.29-.3l.15-.15.12-.14c.15-.2.25-.45.29-.73.08-.56-.09-1.25-.47-1.89-.09-.16-.21-.32-.32-.47-.06-.07-.11-.14-.18-.22l-.21-.22c-.31-.31-.62-.62-.93-.93-.62-.62-1.25-1.25-1.88-1.88-1.27-1.26-2.55-2.55-3.85-3.85-5.21-5.21-10.7-10.7-16.38-16.38-5.67-5.69-11.53-11.57-17.49-17.54-2.97-2.99-5.97-6.01-8.98-9.04-1.5-1.51-3.01-3.03-4.52-4.55l-.57-.57-.14-.14-.14-.13c-.09-.09-.19-.17-.28-.24-.39-.31-.82-.55-1.24-.69-.86-.3-1.66-.2-2.15.28-2.01,1.98-4.02,3.96-6.03,5.94-2,1.98-3.98,3.96-5.96,5.92-1.96,1.97-3.91,3.93-5.83,5.86-.96.97-1.91,1.93-2.86,2.89-.47.48-.94.96-1.41,1.44-.23.24-.47.48-.69.71-.21.23-.34.54-.39.89-.1.7.19,1.57.74,2.3.13.18.27.35.45.53.16.16.35.35.52.52.35.35.7.7,1.05,1.04,1.4,1.39,2.79,2.77,4.16,4.13,1.37,1.36,2.73,2.71,4.07,4.04,1.34,1.33,2.66,2.65,3.96,3.95,2.6,2.6,5.15,5.12,7.59,7.58,2.44,2.46,4.81,4.83,7.07,7.11,4.52,4.57,8.67,8.75,12.34,12.46,3.68,3.71,6.87,6.95,9.52,9.61,1.32,1.33,2.5,2.51,3.53,3.54.26.26.5.51.74.74.24.24.46.46.7.65.48.37.96.6,1.37.73.42.13.78.16,1.06.13.28-.03.5-.09.66-.17.16-.08.26-.15.33-.21.07-.06.1-.08.1-.08h0Z"/>
          </g>
          <path class="cls-5" d="M181.14,192.15s.35-.36.95-.98c.61-.62,1.47-1.51,2.52-2.57,1.05-1.06,2.27-2.3,3.58-3.62.66-.66,1.34-1.34,2.03-2.04.69-.69,1.39-1.4,2.09-2.1.7-.7,1.41-1.4,2.1-2.09.69-.69,1.38-1.37,2.04-2.03,1.32-1.31,2.56-2.53,3.62-3.58,1.06-1.05,1.95-1.91,2.57-2.52.62-.61.98-.95.98-.95,0,0-.35.36-.95.98-.61.62-1.47,1.51-2.52,2.57-1.05,1.06-2.27,2.3-3.58,3.62-.66.66-1.33,1.34-2.03,2.04-.69.69-1.39,1.4-2.09,2.1-.7.7-1.41,1.4-2.1,2.09-.69.69-1.38,1.37-2.04,2.03-1.32,1.31-2.56,2.53-3.62,3.58-1.06,1.05-1.95,1.91-2.57,2.52-.62.61-.98.95-.98.95Z"/>
          <g class="cls-17">
            <path class="cls-2" d="M121.93,134.01s1.26.53,3.45,1.45c1.1.46,2.43,1.02,3.97,1.66,1.53.64,3.26,1.36,5.14,2.17,1.88.8,3.92,1.67,6.08,2.59,2.16.92,4.44,1.88,6.79,2.9,4.71,2.03,9.73,4.2,14.75,6.36,5.02,2.2,10.04,4.39,14.75,6.45,2.35,1.02,4.63,2.04,6.78,2.99,2.16.96,4.2,1.86,6.08,2.69,1.88.83,3.61,1.61,5.14,2.3,1.53.69,2.86,1.29,3.96,1.78,2.2.99,3.45,1.55,3.45,1.55v.04s-20.09-8.72-40.18-17.43c-20.09-8.73-40.17-17.47-40.17-17.47v-.04Z"/>
          </g>
        </g>
        <g>
          <g>
            <path class="cls-16" d="M50.72,130.89l-4.76-4.76c-.08-.08.22-.39.31-.31l4.76,4.76c.08.08-.22.39-.31.31Z"/>
            <rect class="cls-15" x="47.48" y="122.46" width="6.91" height="6.9" transform="translate(-74.12 72.89) rotate(-45)"/>
            <rect class="cls-11" x="45.86" y="123.77" width="6.91" height="1.05" transform="translate(-73.45 71.27) rotate(-45)"/>
            <rect class="cls-11" x="48.82" y="126.44" width="6.91" height="1.62" transform="translate(-74.67 74.23) rotate(-45)"/>
            <rect class="cls-16" x="47.48" y="125.76" width="6.91" height=".32" transform="translate(-74.12 72.89) rotate(-45)"/>
          </g>
          <g>
            <g>
              <g>
                <path class="cls-15" d="M64.38,110.13l4.23-4.23c.46-.46,2.8,1.87,2.33,2.33l-4.23,4.23-2.33-2.33Z"/>
                <path d="M66.71,112.59l-2.45-2.45,4.29-4.29c.3-.3,1.07.25,1.63.82s1.12,1.33.82,1.63l-4.29,4.29ZM64.5,110.13l2.21,2.21,4.17-4.17c.16-.16-.21-.78-.82-1.39s-1.23-.98-1.39-.82l-4.17,4.17Z"/>
              </g>
              <path class="cls-8" d="M69.46,106.15l-4.53,4.53.89.89,4.57-4.57c-.28-.32-.62-.64-.93-.86Z"/>
            </g>
            <g>
              <g>
                <g>
                  <path class="cls-11" d="M69.25,112.1c.21.21.97-.55.76-.76l-4.5-4.5c-.21-.21-.97.55-.76.76l4.5,4.5Z"/>
                  <path d="M69.22,112.13l-4.5-4.5c-.13-.13.02-.39.22-.6s.47-.35.6-.22l4.5,4.5c.13.13-.02.39-.22.6s-.47.35-.6.22ZM65.48,106.87c-.07-.07-.28.03-.48.22s-.29.41-.22.48l4.5,4.5c.07.07.28-.03.48-.22s.29-.41.22-.48l-4.5-4.5Z"/>
                </g>
                <g>
                  <path class="cls-15" d="M64.97,107.06c-.19.19-.33.43-.22.54l4.5,4.5c.11.11.37-.05.57-.25l-4.84-4.79Z"/>
                  <path d="M69.22,112.13l-4.5-4.5s-.05-.07-.05-.13c0-.15.14-.34.27-.47l.03-.03.03.03,4.87,4.82-.03.03c-.13.14-.34.3-.5.3-.05,0-.1-.02-.13-.05ZM64.97,107.12c-.13.14-.22.29-.22.38,0,.03,0,.05.02.07l4.5,4.5s.04.02.07.02c.1,0,.26-.1.41-.24l-4.78-4.73Z"/>
                </g>
              </g>
              <g>
                <g>
                  <path class="cls-11" d="M69.77,110.96c.21.21.97-.55.76-.76l-3.89-3.89c-.21-.21-.97.55-.76.76l3.89,3.89Z"/>
                  <path d="M69.74,110.99l-3.89-3.89c-.13-.13.02-.39.22-.6s.47-.35.6-.22l3.89,3.89c.13.13-.02.39-.22.6s-.47.35-.6.22ZM66.61,106.34c-.07-.07-.28.03-.48.22s-.29.41-.22.48l3.89,3.89c.07.07.28-.03.48-.22s.29-.41.22-.48l-3.89-3.89Z"/>
                </g>
                <g>
                  <path class="cls-15" d="M66.11,106.53c-.19.19-.33.43-.22.54l3.89,3.89c.11.11.37-.05.57-.25l-4.23-4.18Z"/>
                  <path d="M69.74,110.99l-3.89-3.89s-.08-.13,0-.29c.05-.1.13-.21.23-.31l.03-.03.03.03,4.26,4.21-.03.03c-.14.14-.34.3-.5.3-.05,0-.1-.02-.13-.05ZM66.11,106.59c-.08.09-.15.18-.18.26-.02.05-.06.14,0,.19l3.89,3.89s.04.02.07.02c.1,0,.26-.1.41-.24l-4.17-4.12Z"/>
                </g>
              </g>
              <g>
                <g>
                  <path class="cls-11" d="M70.3,109.83c.21.21.97-.55.76-.76l-3.28-3.28c-.21-.21-.97.55-.76.76l3.28,3.28Z"/>
                  <path d="M70.27,109.86l-3.28-3.28c-.13-.13.02-.39.22-.6s.47-.35.6-.22l3.28,3.28c.13.13-.02.39-.22.6s-.47.35-.6.22ZM67.75,105.82c-.07-.07-.28.03-.48.22s-.29.41-.22.48l3.28,3.28c.07.07.28-.03.48-.22s.29-.41.22-.48l-3.28-3.28Z"/>
                </g>
                <g>
                  <path class="cls-15" d="M67.24,106.01c-.19.19-.33.43-.22.54l3.28,3.28c.11.11.37-.05.57-.25l-3.62-3.57Z"/>
                  <path d="M70.27,109.86l-3.28-3.28s-.05-.07-.05-.13c0-.15.14-.34.27-.47l.03-.03,3.68,3.63-.03.03c-.14.14-.34.3-.5.3-.05,0-.1-.02-.13-.05ZM67.24,106.07c-.13.14-.22.29-.22.38,0,.03,0,.05.02.07l3.28,3.28s.04.02.07.02c.1,0,.26-.1.41-.24l-3.56-3.51Z"/>
                </g>
              </g>
              <g>
                <g>
                  <path class="cls-11" d="M70.83,108.69c.21.21.97-.55.76-.76l-2.67-2.67c-.21-.21-.97.55-.76.76l2.67,2.67Z"/>
                  <path d="M70.8,108.72l-2.67-2.67c-.13-.13.02-.39.22-.6s.47-.35.6-.22l2.67,2.67c.13.13-.02.39-.22.6s-.47.35-.6.22ZM68.88,105.29c-.07-.07-.28.03-.48.22s-.29.41-.22.48l2.67,2.67c.07.07.28-.03.48-.22s.29-.41.22-.48l-2.67-2.67Z"/>
                </g>
                <g>
                  <path class="cls-15" d="M68.38,105.48c-.19.19-.33.43-.22.54l2.67,2.67c.11.11.37-.05.57-.25l-3.01-2.96Z"/>
                  <path d="M70.8,108.72l-2.67-2.67s-.05-.07-.05-.13c0-.15.14-.34.27-.47l.03-.03,3.07,3.02-.03.03c-.14.14-.34.3-.5.3-.05,0-.1-.02-.13-.05ZM68.38,105.54c-.13.14-.22.29-.22.38,0,.03,0,.05.02.07l2.67,2.67s.04.02.07.02c.1,0,.26-.1.41-.24l-2.95-2.9Z"/>
                </g>
              </g>
            </g>
          </g>
          <g>
            <g>
              <path class="cls-15" d="M52.23,124.62l3.27,3.27s6.68-6.68,8.55-8.55,4.37-6.08,4.37-6.08c0,0-.53-1.26-2.04-2.77s-2.77-2.04-2.77-2.04c0,0-4.22,2.5-6.08,4.37l-8.55,8.55,3.27,3.27Z"/>
              <path d="M55.5,128.06l-6.71-6.71,8.64-8.64c1.86-1.86,6.07-4.36,6.11-4.39l.06-.03.06.03c.05.02,1.3.56,2.81,2.07s2.05,2.76,2.07,2.81l.03.06-.03.06s-2.53,4.25-4.39,6.11l-8.64,8.64ZM49.15,121.35l6.35,6.35,8.46-8.46c1.72-1.72,4.01-5.49,4.31-6-.12-.26-.7-1.38-1.99-2.67s-2.41-1.87-2.67-1.99c-.51.31-4.28,2.6-6,4.31l-8.46,8.46Z"/>
            </g>
            <path class="cls-11" d="M63.75,108.56s-.05-.02-.05-.02c0,0-4.17,2.51-6.02,4.36l-8.49,8.49,3.16,3.16.74.74,10.21-10.21c1.8-1.8,1.96-4.61.45-6.51Z"/>
            <g class="cls-18">
              <path class="cls-1" d="M61.52,115.32c-1.39-1.39-3.65-1.39-5.04,0l-6.77,6.77,2.52,2.52,2.52,2.52,6.77-6.77c1.39-1.39,1.39-3.65,0-5.04Z"/>
            </g>
            <path class="cls-15" d="M54.75,127.14s.32-.35.89-.95c.57-.6,1.38-1.47,2.38-2.49.99-1.02,2.15-2.21,3.38-3.48.61-.61.96-1.46.96-2.35.01-.88-.36-1.78-.99-2.39-.64-.65-1.52-1.01-2.41-1-.88,0-1.74.37-2.34.96-1.26,1.25-2.46,2.4-3.48,3.39-1.02.99-1.89,1.8-2.49,2.37-.61.57-.95.89-.95.89,0,0,.32-.35.89-.95.57-.6,1.38-1.47,2.37-2.49.99-1.02,2.14-2.22,3.39-3.48.66-.67,1.61-1.09,2.6-1.09.98-.03,2,.38,2.7,1.08.73.73,1.12,1.72,1.1,2.71,0,.98-.44,1.95-1.09,2.59-.64.64-1.25,1.23-1.84,1.8-.59.57-1.14,1.1-1.65,1.6-1.02.99-1.89,1.8-2.49,2.38-.61.57-.95.89-.95.89Z"/>
            <path class="cls-15" d="M58.97,114.08c-.99,0-1.94.43-2.6,1.09-1.26,1.26-2.4,2.46-3.39,3.48-.99,1.02-1.8,1.89-2.37,2.49-.57.61-.89.95-.89.95,0,0,.35-.32.95-.89.6-.57,1.47-1.38,2.49-2.37,1.02-.99,2.22-2.14,3.48-3.39.6-.59,1.46-.96,2.34-.96.89,0,1.76.35,2.41,1,.26.25.47.56.63.88l.31-.31c-.17-.32-.39-.62-.66-.89-.7-.7-1.72-1.11-2.7-1.08Z"/>
          </g>
        </g>
      </g>
      <text class="cls-6" transform="translate(123.22 135.22) rotate(45.35)"><tspan class="cls-4" x="0" y="0">50</tspan><tspan class="cls-9" x="10.66" y="0">%</tspan></text>
    </g>
  </g>
</svg>