<?xml version="1.0" encoding="UTF-8"?>
<svg id="Layer_1" data-name="Layer 1" xmlns="http://www.w3.org/2000/svg" viewBox="0 0 251 205">
  <defs>
    <style>
      .cls-1 {
        fill: #fff;
      }
    </style>
  </defs>
  <g id="eNKh7l">
    <g>
      <path d="M162.72,72.24c.23.14.49.21.75.26,4.71.78,9.53,1.09,14.23,1.93.85.15,5.36.95,5.45,1.57-.32.77-.54,1.6-.69,2.42-2.32,13.22-3.81,26.39-4.49,39.77-.93,18.28-1.35,35.21-5.86,53.14-1.15,4.58-1.5,5.85-5.93,7.87-16.67,7.6-29.11.52-45.61-.35-15.04-.78-31.61,4.18-45.32-4.15-8.76-5.32-7.47-12.72-7.18-21.58.31-9.69.95-19.49,1.59-29.16.79-11.91,3.5-23.66,5.08-35.48.7-5.26,1.02-10.59,1.69-15.84.1-.76.46-1.68.54-2.44.14-1.34-.63-3.17,1.19-3.21,4.31-.1,9.52,1.42,13.89,1.74l8.22.59c.07-1.62.29-3.24.36-4.86.6-14.79-.97-32.97,15.34-40.22,11.58-5.15,31.61.62,38.23,11.62,3.38,5.61,8.01,13.33,9.08,19.77.9,5.44.22,11.2-.57,16.62ZM102.83,69.5c1.09.07,2.18.16,3.27.24.07-.45.26-.84.29-1.31.56-8.58.61-18,1.73-26.5,1.58-12,12.57-14.81,22.91-11.84,8.82,2.53,16.62,7.83,19.45,16.93,2.43,7.81,2.51,16.12,3.08,24.21l5.63.6c-.26-8.52-.71-17.6-2.9-25.86-2.47-9.34-6-14.68-15.06-18.57-8.27-3.55-17.87-5.3-26.04-.66-13.25,7.53-12.11,23.2-12.49,36.44-.06,2.06-.42,4.11-.26,6.18l.23.26c.07.01.14-.13.19-.12ZM127.57,30.67l-3.79-.28c-.47-.03-2.33,1.77-2.73,2.2-5.19,5.57-8.09,14.42-12,20.95l-.61,8.38c.5.13.3-.1.43-.36,1.82-3.65,3.87-6.94,5.84-10.48,2.9-5.21,6.76-13.94,10.61-18.16.26-.28,2.46-2.06,2.26-2.26ZM120.11,30.84c-3.39.69-7.12,3.13-8.77,6.22-1.94,3.63-1.76,8.32-2.16,12.33l.59-.36c2.66-5.04,4.86-10.59,8.14-15.26.22-.32,2.32-2.78,2.19-2.91ZM152.13,71.14c-1.04-9.39,0-21.77-5.91-29.71-1.56-2.1-4.67-5.32-6.95-6.57-1.32-.73-5.58-2.66-6.93-2.94-5.2-1.08-9.2,7.6-11.34,11.34-3.15,5.5-6.47,10.99-9.54,16.52-.84,1.52-4.3,8.59-3.51,9.93l44.18,1.43ZM158.66,47.13l-.35.06c1.04,4.72,1.76,9.55,2.12,14.38.26,3.52.22,7.05.41,10.56.37-.49.47-1.38.59-2,.8-4.14,1.03-9.2.36-13.37-.54-3.38-1.88-6.47-3.12-9.63ZM107,79.21c5.32.44,10.62-.3,15.91-.44,5.79-.15,11.62-.04,17.39-.16l11.46.82c.46-.11.49-2.32.51-2.87.03-1.13-.18-2.38-.13-3.53l-.12-.22c-5.36-.71-10.8-.62-16.19-.91l-28.13.27-.7,7.04ZM158.92,80.15c.02-2.18.31-4.42.04-6.57-1.69-.5-3.57-.63-5.36-.74l-.22,6.56,5.55.75ZM181.52,76.83l-20.6-3.07-.32.4-.63,6.25c6.7,1.08,13.52,2.36,19.66,5.34l1.89-8.91ZM99.56,71.74l-20.28-2.73c-.2.04-.99,3.47-1.08,3.95s-.5,2.35-.08,2.55c6.88,1.88,13.93,3.19,21.09,3.49l.35-7.25ZM105.91,72.21l-3.44-.25-.28.25-.49,6.71c.85.7,2.27-.01,3.35.33.47-2.33.78-4.66.87-7.04ZM179.37,86.63c-4.67-1.64-9.46-3.01-14.34-3.9-7.78-1.42-16.25-2.24-24.13-2.47-17.19-.51-34.57,2.2-51.59-.57-3.93-.64-7.74-1.91-11.6-2.8-1.02,9.56-2.45,19.05-3.86,28.55-.33,2.22-.88,4.44-1.19,6.66-1.28,9.05-1.64,18.23-2.16,27.34-.43,7.46-1.37,15.78-.81,23.19.16,2.19.69,3.8,1.71,5.72.42.34,2.25-2.38,3.14-1.64.73.6-1.5,2.57-1.81,3.11l1.08,1.17.23-.04c.92-.86,1.99-1.74,2.85-2.65,2.3-2.41,4.68-6.3,7-8.35.3-.26.58-.52,1.01-.55.95.26-1.13,3.05-1.44,3.5-2.34,3.37-5.36,6.25-7.76,9.57,4.82,3.12,10.82,4.87,16.58,5.04,10.79.33,21.71-1.37,32.48-.13s20.34,5.09,31.66,2.98c.71-.13,5.1-1.07,5.21-1.44-1.15-2.39-2.53-4.66-3.71-7.04-.74-1.5-3.94-7.79-3.43-9.06l.44-.26,8.9,15.72,1.45-.51c-.12-.79-1.54-2.94-.47-3.41.9-.39,1.72,2.02,1.76,2.71,1.74-.48,2.96-1.86,3.44-3.58,1.03-3.72,1.82-8.7,2.53-12.58,3.5-19.28,2.74-38.14,4.73-57.49.52-5.03,1.37-9.96,1.97-14.95.07-.61.1-1.23.12-1.84Z"/>
      <path class="cls-1" d="M179.37,86.63c-.02.61-.05,1.23-.12,1.84-.6,4.99-1.45,9.92-1.97,14.95-1.99,19.35-1.23,38.21-4.73,57.49-.7,3.88-1.5,8.86-2.53,12.58-.47,1.72-1.7,3.1-3.44,3.58-.04-.69-.86-3.1-1.76-2.71-1.07.46.35,2.62.47,3.41l-1.45.51-8.9-15.72-.44.26c-.5,1.28,2.69,7.56,3.43,9.06,1.18,2.37,2.56,4.65,3.71,7.04-.11.37-4.5,1.31-5.21,1.44-11.32,2.11-20.69-1.72-31.66-2.98s-21.7.46-32.48.13c-5.77-.18-11.76-1.92-16.58-5.04,2.4-3.33,5.42-6.21,7.76-9.57.31-.44,2.38-3.24,1.44-3.5-.43.03-.71.29-1.01.55-2.33,2.06-4.7,5.94-7,8.35-.86.9-1.93,1.79-2.85,2.65l-.23.04-1.08-1.17c.31-.54,2.54-2.51,1.81-3.11-.89-.73-2.73,1.98-3.14,1.64-1.02-1.92-1.55-3.53-1.71-5.72-.56-7.41.38-15.73.81-23.19.52-9.11.88-18.29,2.16-27.34.31-2.22.86-4.44,1.19-6.66,1.4-9.5,2.84-19,3.86-28.55,3.85.89,7.67,2.16,11.6,2.8,17.02,2.76,34.4.05,51.59.57,7.88.24,16.35,1.05,24.13,2.47,4.88.89,9.67,2.26,14.34,3.9ZM146.45,82.66c-.49-.44-4.52-.64-5.15-.25-.18,0-.16.35-.13.44.33.93,4.4.38,5.3.4.24-.1.08-.51,0-.59ZM149.98,83.58c1.28.42,2.75.86,4.12.84.44,0,1.24.02,1.37-.53.08-1.05-3.51-1.13-4.28-1.12-.61,0-1.25.03-1.2.81ZM138.16,82.38c-1.8-.66-3.6-.52-5.45-.22l-.07.58c.61.74,5.04.79,5.41.34l.11-.7ZM164.22,85.33c-.37-1.14-4.99-1.8-5.25-1-.19.58,2.1,1.12,2.5,1.16.37.04,2.66-.05,2.75-.16ZM129.34,81.9l-2.56-.19c-.36-.03-2.95.64-2.99.94.35.35,1.33.48,1.79.51.58.03,3.73-.18,3.87-.65l-.11-.61ZM167.57,86.82c.81.2,1.97.04,2.82.21l.3-.42c-.41-.94-3.67-1.71-4.01-.8-.17.46.53.93.89,1.02ZM80.16,79.24c-.28.02-.68.12-.87.36-.36.91,3.2,2.03,3.62,1.11.26-.78-2.13-1.5-2.75-1.47ZM120.78,82.52c-.43-.17-.84-.27-1.31-.29-.64-.02-4.37.37-4.25,1.21.95.76,2.64.36,3.75.14.66-.13,1.85-.12,1.81-1.06ZM174.03,86.44c-.64.07-1.08.27-.89,1.02.21.81,3.68,1.75,3.48.15-.12-1-1.77-1.25-2.59-1.16ZM110.82,82.36c-.46,0-3.32.31-3.22.88.11.65,4.75,1.23,5.1.35l-.09-.7c-.2-.28-1.39-.51-1.79-.52ZM89.22,80.93c-.53-.19-2.6-.19-3.35-.24-.08,0-.56.15-.47.41.25.75,3.58,1.57,4.11.94.26-.3.02-.99-.29-1.1ZM94.03,81.33c-2.47-.09-2.1,1.91.53,1.95s1.78-1.87-.53-1.95ZM104.33,83.58l.12-.76c-.54-.77-4.38-.86-4.99-.19-.26.28-.35.81.06.97.64.25,4.39.32,4.81-.02ZM92.51,119.76c.34-1.36.07-3.41.35-4.85,1.33.96,3.67,4.93,5.09,5.24.58.13.99-.18.97-.8-.04-1.32-4.82-5.86-5.87-7,3.04-1.45,4.75-4.56,3.33-7.84-.93-2.15-2.73-2.3-4.36-3.64-1.15.72-.73,1.51-.79,2.47-.32,4.93-.81,11.06-.27,15.94.17,1.51,1.17,2,1.55.48ZM102.67,119.17l.4-15.32.2-.35c.68-.17,1.75.09,2.02-.73.08-1.03-3.33-1.13-4.08-1.08-.67.04-1.29.25-1.26,1.03l2.1.73c-.36,5.29-.95,10.56-.8,15.86-3.18.79-.43,1.69,1.36,1.61,2.3-.11,2.62-1.96.06-1.75ZM135.49,111.98l-1.45-7.1c-.43-.67-1.39-.52-1.59.22-.49,1.78.95,6.98,1.62,8.85.12.33.45.49.5.89.2,1.67-.37,4.34-.26,6.34.04.69.08,3.14.9,3.2.77-.09.9-1.79.99-2.5.28-2.19-.14-4.85.15-6.9.14-1,1.87-3.85,2.37-5.12.34-.87,1.56-4.15,1.28-4.83-.06-.14-.22-.31-.37-.36l-.79.22c-1.26,2.06-1.75,4.86-2.96,6.86-.08.13-.09.54-.38.22ZM82.77,112.22c3.95-2.05,8.44-7.22,2.9-10.53-1.45-.87-2.69-.73-4.27-1.11-.49.03-.62.52-.7.93-.3,5.3-.88,10.59-1.16,15.9-.03.64.17,1.23.05,1.96s-1.07,1.9.28,2.07,4.72-1.04,5.95-1.74c6.33-3.62,2.22-6.53-3-7.1l-.06-.36ZM123.82,116.28c.1,2.03-2.38,6.73-4.18,3.37-1.7-3.17-.95-10.24,1.1-13.16s2.59-.91,4.37.66c1.1.09-.21-2.11-.55-2.51-2.9-3.4-6.06,2.15-6.88,4.63-1.08,3.26-1.59,10.08,1.5,12.43,1.68,1.28,3.95.27,4.91-1.38.42-.71,1.4-3.42,1.51-4.21.21-1.56-1.51-1.49-2.64-1.51-.56,0-3.41.16-3.33.89.06.12.34.49.39.5l3.79.28ZM107.91,120.35l.73-9.97c.54-.05.27.16.33.46.47,2.58,1,7.55,1.91,9.77.73,1.79,1.71,1.1,2.15-.45,1.04-3.73,1.83-9.7,2.28-13.63.06-.51.33-2.99.07-3.2-.94-.76-1.36.74-1.48,1.37-.76,3.84-.91,8-1.62,11.91-.05.3,0,.58-.33.77l-2.21-12.81c-.28-.9-.9-1.51-1.66-.66-.3,2.76-.21,5.52-.45,8.29-.19,2.21-.88,5.03-.88,7.2,0,.35.09,1.86.48,1.9.26-.18.62-.64.69-.92ZM160.77,125.45l.55-7.59.37-.15c1.65,1.25,4.53,8.56,6.37,8.7.49.04.79-.25.87-.72.34-2.01-3.72-7.15-5.25-8.55l.16-.43c4.23-.45,5.16-4.51,2.74-7.69-.91-1.19-2.8-2.41-4.35-2.37-1.95.06-.9,1.43-.96,2.33-.14,2.04-.66,4.45-.84,6.5-.3,3.43-.6,6.92-.56,10.34l.67.03c.04-.14.21-.3.24-.4ZM144.58,105.76c-1.57.24-2.88,3.84-3.29,5.19-.94,3.14-1.61,7.61-.66,10.72.55,1.79,1.61,4.13,3.89,2.77,2.73-1.63,4-10.36,3.76-13.35-.17-2.06-.9-5.77-3.7-5.34ZM152.1,107.38c-.57-.44-.93-.17-1.07.49-.79,3.94-.96,9.16.04,13.05,1.55,6.03,4.68,5.93,6.24-.03.87-3.33.9-6.77.97-10.17.02-.91.46-2.92-.09-3.56-.48-.56-1.04-.35-1.23.31-.54,5.35.5,11.33-2.72,16-.31.05-.71-.88-.8-1.12-.88-2.21-1.25-5.44-1.29-7.81-.02-1.19.44-6.54-.06-7.14ZM143.21,144.67c.25.27.2,5.57.78,6.35,1.2,1.63,1.47-2.54,1.47-3.09.05-4.09-1.3-8.69-1.41-12.84-.1-.65-.77-1.19-1.33-.68-.74.67-1.69,6.55-2.22,7.96-.2.53-.86,1.1-.9,1.25-.02.09.28,1.14.21,1.77-.14,1.27-1.25,5.14-.89,6.05.06.16.21.28.36.36.38.14.59-.15.72-.45.76-1.79.69-4.74,1.35-6.66l1.87-.02ZM154.55,139.97c.22-.13.31-1.31.3-1.63-.06-1.23-1.34-3.11-2.68-3.15-1.84-.06-3.08,3.19-3.43,4.66-.67,2.83-.85,10.98,1.88,12.72,3.62,2.31,5.41-2.51,5.87-5.28.15-.88.42-2.02-.78-2.07-.47-.02-3.43.49-3.63.78-.11.17-.12.34-.12.53l3.15.59c-.65,1.92-2.36,6.86-4.07,2.6-1.36-3.4-1.65-9.92,1-12.77.94.27,1.56,3.55,2.51,3.01ZM94.11,131.35c-1.87.1-3.1,3.83-3.49,5.36-.66,2.6-.79,4.68-.56,7.34.17,1.92.61,6.57,3.7,4.72,2.62-1.58,3.27-8.67,3.13-11.45-.08-1.62-.47-6.09-2.78-5.96ZM101.44,145.7c-.32-.08-.27-.38-.33-.62-1-3.92-.9-8.87-1.98-12.68-.05-.19-.15-.47-.33-.54l-.53.12c-.38.48.11,5.46.21,6.44.18,1.73.98,8.72,1.63,9.84.85,1.45,1.88.31,2.23-.85.99-3.28.99-7.19,1.7-10.57.34.09.26.39.31.64.62,2.77.53,6.83,1.4,9.37.26.77,1.1,1.48,1.76.77.77-.82,2.21-7.05,2.53-8.5.25-1.13,1.06-4.42.87-5.34-.23-1.11-1.52-.08-1.5.79l-2.24,10.14c-.32-.1-.33-.46-.39-.74-.61-2.58-.7-7.36-1.61-9.53-.28-.68-.69-.8-1.32-.37l-2.43,11.63ZM117.78,149.86c.16-.13.39-.68.45-.91.56-1.89,1.05-5.81,1.3-7.88.27-2.26.29-4.58.46-6.85-1.14-1.88-1.65,2.33-1.79,3.21-.34,2.05-.43,4.26-.82,6.33-.04.22-.13.93-.42.95l-2.12-10.49c-.21-.61-1.06-.98-1.53-.47-.52.56-1.11,3.76-1.22,4.66-.49,3.78-.51,7.82-.3,11.61l.54-.04,1.4-12.06c.32.08.27.38.33.62.79,3.1.9,7.77,1.95,10.55.27.71,1.02,1.39,1.76.79ZM131.83,134.64c-.35,0-.88.2-1.02.55-.95,4.53-1.79,9.21-1.58,13.86.02.5.02,1.47.12,1.88.26,1.11.94.22,1.45.13,1.92-.32,5.07-.09,6.38-1.99,2.13-3.09-3.21-4.54-5.07-5.49,2.33-1.48,4.49-3.85,3.01-6.74-.61-1.18-1.92-2.23-3.29-2.21ZM82.57,156.97c-.22.16-1.9,2.19-1.21,2.52.5.18,2.39-1.65,2.39-2.22,0-.61-.78-.59-1.18-.3ZM158.01,162.44c-1.53.28.96,3.9,1.75,3.58l.36-.36c.07-.25-1.37-2.76-1.62-3.02-.17-.17-.2-.25-.48-.2ZM79.55,161.31c-.4-.43-1.91,1.03-2.22,1.35-.62.66-1.38,1.52-1.43,2.46.25.04.47.05.71-.04.6-.24,3.3-3.38,2.94-3.77ZM161.5,168.01c-1.18.3.58,3.82,1.65,3.83.67-.13-.31-2.29-.51-2.7-.24-.49-.47-1.3-1.14-1.13Z"/>
      <path class="cls-1" d="M102.83,69.5s-.12.13-.19.12l-.23-.26c-.16-2.07.2-4.12.26-6.18.39-13.23-.76-28.91,12.49-36.44,8.17-4.64,17.78-2.9,26.04.66,9.07,3.9,12.59,9.23,15.06,18.57,2.19,8.26,2.64,17.34,2.9,25.86l-5.63-.6c-.57-8.1-.65-16.41-3.08-24.21-2.83-9.1-10.63-14.41-19.45-16.93-10.34-2.96-21.33-.16-22.91,11.84-1.12,8.5-1.17,17.91-1.73,26.5-.03.47-.22.86-.29,1.31-1.09-.07-2.18-.17-3.27-.24Z"/>
      <path class="cls-1" d="M107,79.21l.7-7.04,28.13-.27c5.39.29,10.83.2,16.19.91l.12.22c-.05,1.14.16,2.4.13,3.53-.01.55-.05,2.76-.51,2.87l-11.46-.82c-5.78.12-11.6,0-17.39.16-5.29.14-10.6.87-15.91.44Z"/>
      <path class="cls-1" d="M181.52,76.83l-1.89,8.91c-6.14-2.97-12.96-4.26-19.66-5.34l.63-6.25.32-.4,20.6,3.07Z"/>
      <path class="cls-1" d="M99.56,71.74l-.35,7.25c-7.16-.3-14.2-1.61-21.09-3.49-.42-.19,0-2.09.08-2.55.09-.48.88-3.91,1.08-3.95l20.28,2.73Z"/>
      <path class="cls-1" d="M127.57,30.67c.2.2-2.01,1.98-2.26,2.26-3.84,4.22-7.7,12.94-10.61,18.16-1.97,3.54-4.02,6.82-5.84,10.48-.13.26.07.48-.43.36l.61-8.38c3.91-6.52,6.81-15.38,12-20.95.4-.43,2.26-2.24,2.73-2.2l3.79.28Z"/>
      <path class="cls-1" d="M158.92,80.15l-5.55-.75.22-6.56c1.79.11,3.67.25,5.36.74.27,2.15-.02,4.39-.04,6.57Z"/>
      <path class="cls-1" d="M158.66,47.13c1.24,3.16,2.57,6.25,3.12,9.63.67,4.17.44,9.23-.36,13.37-.12.62-.22,1.51-.59,2-.19-3.51-.15-7.05-.41-10.56-.36-4.83-1.07-9.66-2.12-14.38l.35-.06Z"/>
      <path class="cls-1" d="M105.91,72.21c-.09,2.38-.4,4.71-.87,7.04-1.08-.34-2.5.37-3.35-.33l.49-6.71.28-.25,3.44.25Z"/>
      <path class="cls-1" d="M82.77,112.22l.06.36c5.21.57,9.32,3.48,3,7.1-1.23.7-4.6,1.91-5.95,1.74s-.4-1.32-.28-2.07-.09-1.31-.05-1.96c.28-5.3.87-10.59,1.16-15.9.08-.41.21-.9.7-.93,1.58.38,2.82.24,4.27,1.11,5.54,3.32,1.05,8.49-2.9,10.53ZM84.49,109.05c2.05-1.91,3.69-4.09.52-5.96-.57-.34-2.71-1.36-2.97-.41l.12,8.08c.3.1.36-.1.55-.22.51-.34,1.31-1.05,1.78-1.48ZM81.21,119.02c.41.37,5.48-1.96,5.72-3.04-.1-.66-4.25-1.71-5.02-1.7l-.7,4.74Z"/>
      <path class="cls-1" d="M101.44,145.7l2.43-11.63c.63-.43,1.03-.31,1.32.37.91,2.17,1,6.95,1.61,9.53.06.27.07.64.39.74l2.24-10.14c-.02-.87,1.27-1.9,1.5-.79.19.92-.62,4.2-.87,5.34-.32,1.46-1.77,7.68-2.53,8.5-.67.72-1.5,0-1.76-.77-.88-2.54-.78-6.6-1.4-9.37-.05-.24.03-.55-.31-.64-.72,3.37-.71,7.28-1.7,10.57-.35,1.16-1.38,2.3-2.23.85-.65-1.12-1.45-8.11-1.63-9.84-.1-.98-.59-5.96-.21-6.44l.53-.12c.19.07.28.35.33.54,1.07,3.81.97,8.76,1.98,12.68.06.24.01.54.33.62Z"/>
      <path class="cls-1" d="M160.77,125.45c-.02.09-.2.26-.24.4l-.67-.03c-.04-3.42.26-6.91.56-10.34.18-2.05.7-4.46.84-6.5.06-.9-.98-2.27.96-2.33,1.55-.04,3.44,1.18,4.35,2.37,2.42,3.18,1.49,7.23-2.74,7.69l-.16.43c1.54,1.4,5.59,6.54,5.25,8.55-.08.47-.38.76-.87.72-1.84-.15-4.72-7.45-6.37-8.7l-.37.15-.55,7.59ZM161.66,115.66c1.53-.02,4.23-.85,4.44-2.62.2-1.68-1.82-4.18-3.45-4.6l-.34.78-.64,6.43Z"/>
      <path class="cls-1" d="M144.58,105.76c2.79-.43,3.53,3.27,3.7,5.34.24,2.99-1.03,11.72-3.76,13.35-2.28,1.36-3.34-.98-3.89-2.77-.95-3.12-.27-7.58.66-10.72.4-1.35,1.72-4.95,3.29-5.19ZM144.82,107.36c-.22.04-.88.69-1.05.91-1.35,1.74-2.32,6.83-2.26,9.01.05,1.72.66,3.91,1.82,5.21.7-.72,1-1.73,1.33-2.66,1.14-3.22,1.85-7.23,1.2-10.6-.1-.51-.33-1.99-1.04-1.86Z"/>
      <path class="cls-1" d="M107.91,120.35c-.07.28-.43.74-.69.92-.39-.03-.48-1.54-.48-1.9,0-2.17.69-5,.88-7.2.24-2.77.15-5.53.45-8.29.76-.84,1.38-.24,1.66.66l2.21,12.81c.32-.18.28-.47.33-.77.71-3.91.86-8.06,1.62-11.91.12-.63.55-2.14,1.48-1.37.26.21-.01,2.69-.07,3.2-.45,3.93-1.24,9.9-2.28,13.63-.43,1.56-1.41,2.24-2.15.45-.91-2.22-1.45-7.18-1.91-9.77-.05-.3.22-.5-.33-.46l-.73,9.97Z"/>
      <path class="cls-1" d="M131.83,134.64c1.37-.03,2.69,1.03,3.29,2.21,1.49,2.89-.68,5.25-3.01,6.74,1.86.95,7.2,2.4,5.07,5.49-1.31,1.9-4.46,1.67-6.38,1.99-.52.09-1.19.98-1.45-.13-.1-.41-.1-1.38-.12-1.88-.21-4.65.63-9.34,1.58-13.86.13-.34.67-.54,1.02-.55ZM131.69,142.22c2.5-1.42,3.9-4.82.44-6l-.44,6ZM135.35,147.99c.54-.67-3.32-2.53-3.79-2.75l-.29.41-.46,3.96c1.66-.16,3.11-.88,4.55-1.62Z"/>
      <path class="cls-1" d="M94.11,131.35c2.31-.13,2.7,4.34,2.78,5.96.13,2.78-.51,9.87-3.13,11.45-3.09,1.86-3.53-2.79-3.7-4.72-.23-2.65-.1-4.74.56-7.34.39-1.53,1.62-5.25,3.49-5.36ZM92.32,146.81c.48.43,1.19-1.45,1.27-1.68,1.22-3.4,1.45-8.08.31-11.51-2.5,3.51-2.86,9.14-1.58,13.19Z"/>
      <path class="cls-1" d="M117.78,149.86c-.74.6-1.49-.08-1.76-.79-1.06-2.78-1.17-7.45-1.95-10.55-.06-.24-.02-.54-.33-.62l-1.4,12.06-.54.04c-.21-3.79-.19-7.83.3-11.61.12-.9.71-4.1,1.22-4.66.47-.51,1.32-.14,1.53.47l2.12,10.49c.29-.01.38-.72.42-.95.39-2.06.48-4.28.82-6.33.14-.88.65-5.09,1.79-3.21-.17,2.27-.19,4.59-.46,6.85-.25,2.07-.74,5.99-1.3,7.88-.07.22-.3.78-.45.91Z"/>
      <path class="cls-1" d="M92.51,119.76c-.38,1.51-1.38,1.03-1.55-.48-.54-4.88-.05-11.01.27-15.94.06-.97-.36-1.75.79-2.47,1.63,1.34,3.43,1.49,4.36,3.64,1.42,3.28-.29,6.39-3.33,7.84,1.05,1.15,5.83,5.68,5.87,7,.02.62-.38.93-.97.8-1.42-.31-3.76-4.28-5.09-5.24-.29,1.44-.01,3.49-.35,4.85ZM92.84,110.47c1.33-.34,2.52-2.51,2.59-3.8.07-1.46-1.18-3.63-2.74-3.84l.15,7.64Z"/>
      <path class="cls-1" d="M152.1,107.38c.49.61.04,5.96.06,7.14.04,2.38.41,5.6,1.29,7.81.1.24.49,1.18.8,1.12,3.22-4.66,2.17-10.65,2.72-16,.19-.66.76-.87,1.23-.31.54.64.11,2.65.09,3.56-.07,3.4-.1,6.84-.97,10.17-1.56,5.96-4.69,6.06-6.24.03-1-3.89-.83-9.11-.04-13.05.13-.67.5-.93,1.07-.49Z"/>
      <path class="cls-1" d="M154.55,139.97c-.95.54-1.57-2.74-2.51-3.01-2.64,2.85-2.36,9.37-1,12.77,1.7,4.25,3.42-.68,4.07-2.6l-3.15-.59c0-.19,0-.36.12-.53.2-.29,3.17-.8,3.63-.78,1.21.05.93,1.18.78,2.07-.46,2.77-2.26,7.59-5.87,5.28-2.73-1.75-2.55-9.9-1.88-12.72.35-1.48,1.59-4.72,3.43-4.66,1.33.04,2.61,1.92,2.68,3.15.02.32-.08,1.51-.3,1.63Z"/>
      <path class="cls-1" d="M123.82,116.28l-3.79-.28s-.33-.38-.39-.5c-.08-.73,2.77-.9,3.33-.89,1.13.01,2.85-.06,2.64,1.51-.1.78-1.09,3.49-1.51,4.21-.96,1.65-3.24,2.65-4.91,1.38-3.08-2.35-2.58-9.17-1.5-12.43.82-2.48,3.98-8.03,6.88-4.63.34.4,1.64,2.6.55,2.51-1.78-1.58-2.39-3.5-4.37-.66s-2.79,9.99-1.1,13.16c1.8,3.36,4.28-1.34,4.18-3.37Z"/>
      <path class="cls-1" d="M135.49,111.98c.29.31.3-.09.38-.22,1.21-2.01,1.69-4.8,2.96-6.86l.79-.22c.14.05.31.22.37.36.28.69-.94,3.96-1.28,4.83-.5,1.28-2.23,4.12-2.37,5.12-.29,2.04.13,4.7-.15,6.9-.09.71-.22,2.41-.99,2.5-.82-.06-.86-2.51-.9-3.2-.11-2,.46-4.67.26-6.34-.05-.4-.38-.56-.5-.89-.67-1.87-2.11-7.06-1.62-8.85.2-.74,1.16-.89,1.59-.22l1.45,7.1Z"/>
      <path class="cls-1" d="M143.21,144.67l-1.87.02c-.66,1.92-.59,4.87-1.35,6.66-.13.31-.33.59-.72.45-.14-.08-.3-.21-.36-.36-.36-.91.75-4.78.89-6.05.07-.63-.23-1.68-.21-1.77.04-.15.71-.72.9-1.25.53-1.41,1.48-7.29,2.22-7.96.56-.51,1.23.03,1.33.68.11,4.14,1.47,8.75,1.41,12.84,0,.55-.27,4.72-1.47,3.09-.58-.79-.53-6.08-.78-6.35ZM143.01,142.69l-.36-3.57c-.41.36-1.01,3.33-.88,3.48l1.24.09Z"/>
      <path class="cls-1" d="M102.67,119.17c2.56-.22,2.24,1.64-.06,1.75-1.79.08-4.54-.82-1.36-1.61-.16-5.3.43-10.58.8-15.86l-2.1-.73c-.03-.77.59-.98,1.26-1.03.76-.05,4.16.04,4.08,1.08-.27.82-1.34.56-2.02.73l-.2.35-.4,15.32Z"/>
      <path d="M104.33,83.58c-.42.34-4.17.27-4.81.02-.41-.16-.32-.69-.06-.97.61-.67,4.45-.57,4.99.19l-.12.76Z"/>
      <path d="M138.16,82.38l-.11.7c-.37.45-4.79.4-5.41-.34l.07-.58c1.85-.3,3.65-.44,5.45.22Z"/>
      <path d="M149.98,83.58c-.05-.77.6-.8,1.2-.81.78-.01,4.37.07,4.28,1.12-.13.55-.93.52-1.37.53-1.36.01-2.83-.42-4.12-.84Z"/>
      <path d="M110.82,82.36c.4,0,1.59.23,1.79.52l.09.7c-.35.88-4.99.31-5.1-.35-.1-.57,2.76-.89,3.22-.88Z"/>
      <path d="M120.78,82.52c.03.94-1.15.93-1.81,1.06-1.12.22-2.81.62-3.75-.14-.11-.84,3.62-1.23,4.25-1.21.47.02.88.12,1.31.29Z"/>
      <path d="M129.34,81.9l.11.61c-.14.47-3.29.68-3.87.65-.46-.02-1.45-.16-1.79-.51.04-.29,2.64-.96,2.99-.94l2.56.19Z"/>
      <path d="M94.03,81.33c2.31.08,3.04,1.99.53,1.95s-3-2.04-.53-1.95Z"/>
      <path d="M174.03,86.44c.82-.09,2.47.16,2.59,1.16.2,1.6-3.28.66-3.48-.15-.19-.74.25-.94.89-1.02Z"/>
      <path d="M164.22,85.33c-.09.1-2.39.2-2.75.16-.4-.04-2.68-.57-2.5-1.16.26-.8,4.88-.14,5.25,1Z"/>
      <path d="M146.45,82.66c.09.08.25.49,0,.59-.9-.02-4.97.53-5.3-.4-.03-.09-.04-.45.13-.44.63-.39,4.66-.19,5.15.25Z"/>
      <path d="M79.55,161.31c.36.39-2.34,3.54-2.94,3.77-.24.09-.46.08-.71.04.05-.94.8-1.8,1.43-2.46.31-.33,1.83-1.78,2.22-1.35Z"/>
      <path d="M161.5,168.01c.67-.17.9.64,1.14,1.13.2.41,1.17,2.57.51,2.7-1.07,0-2.83-3.54-1.65-3.83Z"/>
      <path d="M89.22,80.93c.31.11.54.79.29,1.1-.53.63-3.86-.18-4.11-.94-.09-.26.39-.41.47-.41.75.05,2.83.05,3.35.24Z"/>
      <path d="M158.01,162.44c.28-.05.31.03.48.2.25.26,1.69,2.76,1.62,3.02l-.36.36c-.79.32-3.28-3.3-1.75-3.58Z"/>
      <path d="M167.57,86.82c-.36-.09-1.06-.56-.89-1.02.34-.91,3.6-.14,4.01.8l-.3.42c-.85-.17-2.02,0-2.82-.21Z"/>
      <path d="M80.16,79.24c.62-.04,3.02.69,2.75,1.47-.42.92-3.98-.2-3.62-1.11.19-.23.59-.34.87-.36Z"/>
      <path d="M82.57,156.97c.4-.29,1.18-.3,1.18.3,0,.56-1.89,2.39-2.39,2.22-.69-.33.99-2.36,1.21-2.52Z"/>
      <path class="cls-1" d="M84.49,109.05c-.47.44-1.26,1.14-1.78,1.48-.19.12-.25.32-.55.22l-.12-8.08c.25-.95,2.4.08,2.97.41,3.18,1.87,1.53,4.05-.52,5.96Z"/>
      <path class="cls-1" d="M81.21,119.02l.7-4.74c.77,0,4.92,1.04,5.02,1.7-.24,1.07-5.31,3.41-5.72,3.04Z"/>
      <path class="cls-1" d="M161.66,115.66l.64-6.43.34-.78c1.63.42,3.65,2.92,3.45,4.6-.21,1.77-2.9,2.6-4.44,2.62Z"/>
      <path class="cls-1" d="M144.82,107.36c.72-.13.94,1.35,1.04,1.86.65,3.37-.06,7.39-1.2,10.6-.33.93-.63,1.94-1.33,2.66-1.16-1.3-1.77-3.49-1.82-5.21-.06-2.18.91-7.28,2.26-9.01.17-.22.83-.87,1.05-.91Z"/>
      <path class="cls-1" d="M135.35,147.99c-1.45.74-2.9,1.46-4.55,1.62l.46-3.96.29-.41c.48.22,4.33,2.08,3.79,2.75Z"/>
      <path class="cls-1" d="M131.69,142.22l.44-6c3.47,1.18,2.06,4.59-.44,6Z"/>
      <path class="cls-1" d="M92.32,146.81c-1.28-4.05-.92-9.68,1.58-13.19,1.15,3.42.91,8.11-.31,11.51-.08.23-.79,2.11-1.27,1.68Z"/>
      <path class="cls-1" d="M92.84,110.47l-.15-7.64c1.57.22,2.81,2.39,2.74,3.84-.07,1.28-1.26,3.45-2.59,3.8Z"/>
      <path class="cls-1" d="M143.01,142.69l-1.24-.09c-.13-.16.47-3.13.88-3.48l.36,3.57Z"/>
    </g>
  </g>
</svg>