<?xml version="1.0" encoding="UTF-8"?>
<svg id="Layer_1" data-name="Layer 1" xmlns="http://www.w3.org/2000/svg" viewBox="0 0 251 205">
  <defs>
    <style>
      .cls-1 {
        fill: #fff;
      }
    </style>
  </defs>
  <path class="cls-1" d="M127.75,81.7c-1.79-1.39-3.01-3.2-3.32-5.55-.35-2.63-.47-5.34-1.25-7.85-1.46-4.73-1.13-9.35-.07-14.04.23-.99.42-2,.71-3.39-.43.47-.59.59-.67.75-2.01,4.27-4.54,8.16-7.95,11.48-.91.89-1.53,2.15-2.08,3.34-.95,2.06-1.61,4.26-2.63,6.29-1.84,3.63-3.27,7.37-4.32,11.31-.74,2.75-1.95,5.38-2.96,8.06-.2-.06-.4-.12-.6-.18.2-.81.38-1.62.61-2.42.26-.91,1.05-2.03.76-2.67-.76-1.68.02-2.99.59-4.31,1.99-4.58,4.25-9.05,6.09-13.68,1.24-3.13,3.29-5.61,5.24-8.25,2.43-3.29,4.49-6.85,6.6-10.36.56-.93.73-2.1,1.07-3.15-.15-.15-.3-.29-.46-.44-2.26,1.54-4.78,2.82-6.7,4.71-1.75,1.72-2.98,4.04-4.21,6.22-2.6,4.63-5.18,9.27-7.53,14.03-2.96,6.01-5.59,12.18-8.54,18.2-4.1,8.37-9.01,16.26-14.61,23.7-2.35,3.12-4.9,6.09-7.33,9.16-.78,1-1.44,2.09-2.16,3.14.11.17.21.35.32.52.84,0,1.73.18,2.52-.03,5.14-1.33,10.29-2.64,14.87-5.5,4.44-2.77,9.28-4.61,14.39-5.71,1.1-.24,2.24-.28,3.36-.42.03.2.06.4.09.59-.99.32-1.97.68-2.98.94-5.73,1.47-11.22,3.46-16.23,6.72-1.35.88-2.98,1.37-4.52,1.92-2.75.99-5.53,1.89-8.22,2.8,8.23,5.78,17.92,9.04,26.04,15.59.47-1.15.99-2.14,1.28-3.2,1.3-4.73,3.33-9.15,5.77-13.37,2.15-3.71,4.7-7.19,6.85-10.91,3.57-6.17,7.19-12.28,9.5-19.13,1.38-4.08,2.66-8.13,3.56-12.33.24-1.1.08-1.85-.89-2.59ZM100.31,110.39c-1.25.42-2.5.84-4.07,1.36.62-1.79,1.94-2.27,4.07-1.36ZM98.86,114.82c-.03-.24-.07-.49-.1-.73l5.14-1.12c.05.23.1.47.15.7-1.73.38-3.46.77-5.18,1.15Z"/>
  <path class="cls-1" d="M130.24,81.3c-1.68-4.45-3.37-8.9-5.05-13.35.43,4.93-.26,10.28,5.05,13.35Z"/>
  <path class="cls-1" d="M164.15,89.05c7.33-4.38,12.02-10.53,11.96-19.48,0-1.04-.21-2.25-.78-3.07-2.67-3.89-4.28-8.46-7.69-11.87-1.55-1.55-2.82-3.4-4.46-4.84-3.71-3.26-8.53-4.28-12.99-5.98-1.64-.63-3.58-.47-5.55-.69.83,4.6,1.68,8.91-.75,13.06.56-.18,1.06-.34,1.36-.68,1.83-2.08,4.08-2.17,6.6-1.66,1.81.37,3.68.4,5.6.59-.5-3.83-3.46-5.02-5.72-6.72-1.03.77-1.98,1.47-2.92,2.18-.13-.16-.26-.32-.38-.48.37-.4.72-.81,1.11-1.18,2.34-2.24,2.24-2.06,4.97-.52,2.41,1.36,3.51,3.47,4.57,5.8.6,1.33,1.34,2.89,2.48,3.63,2.06,1.35,1.86,3.1,1.64,4.98-.08.68-.26,1.41-.62,1.98-1.3,2.04-.88,4.03-.19,6.15.89,2.74.58,3.99-2.58,3.68-3.27-.32-6.26.49-9.07,2.09-2.35,1.33-5.34.46-6.59-1.96-1.56-3.02-6.64-5.65-10.12-5.17-.23.81-.51,1.65-.7,2.51-.63,2.94.14,4.47,2.9,5.78,1.31.62,2.69,1.12,3.98,1.78,1.41.72,2.74,1.58,4.11,2.38-.08.18-.16.36-.23.54-.58-.13-1.19-.19-1.74-.41-2.12-.82-4.21-1.71-6.33-2.54-3.75-1.47-4.99-4.58-4.04-8.59,1.91-8.15,4.49-16.23,3.87-24.78-.18-2.42,1.04-3.72,3.09-4.65,1.16-.53,2.19-1.34,3.28-2.03-.06-.13-.11-.26-.17-.39-1.1.07-2.2.19-3.31.21-1.05.01-2.1-.08-3.15-.12.02-.28.05-.56.07-.84,10.39-1.25,20.48,1.09,30.65,3.05-.53.38-1.1.61-1.64.57-1.89-.15-3.78-.31-5.64-.61-3.53-.56-6.93-1.97-10.61-1.42-.54.08-1.12-.21-1.68-.22-.97-.02-1.95.03-3.04.06.18,1.2.28,1.92.38,2.62.79-.04,1.42-.12,2.04-.1,6.13.19,11.4,2.98,16.65,5.72,2.21,1.15,3.56,3.3,5.19,5.14,2.76,3.09,5.11,6.4,6.94,10.09.92,1.85,2.06,3.63,2.66,5.57.41,1.33.08,2.9.08,4.36l.52.09c.32-.71.82-1.4.94-2.14.25-1.61.32-3.25.45-4.88.25-3.03-1.14-5-3.78-6.4-.83-.44-1.57-1.47-1.87-2.38-.47-1.42-.51-2.98-.75-4.48-.54-3.39-1.06-6.79-4.12-9.05-.23-.17-.29-.57-.59-1.21,3.05,1.59,4.82,3.67,5.46,6.63.51,2.35.99,4.7,1.39,7.07.19,1.12.73,1.74,1.73,2.25,2.68,1.37,4.27,3.49,4.13,6.66-.05,1.14-.02,2.28,0,3.42.01,2.89-.95,5.29-3.3,7.11-.66.51-1.3,1.28-1.54,2.06-1.14,3.61-3.47,6.42-5.87,9.2-.36.42-.72.84-1.08,1.25,3.83-1.78,7.47-3.52,10.1-6.97,3.82-5,5.68-10.2,3.49-16.41-.27-.77-.2-1.74-.02-2.57.97-4.59-.27-8.65-3.16-12.15-1.76-2.13-3.95-3.9-5.94-5.83-3.8-3.7-7.61-7.4-11.39-11.12-1.68-1.65-3.71-2.25-6.02-2.32-5.16-.15-10.25.34-15.23,1.61-3.2.81-6.52,1.23-9.06,3.91-2.8,2.95-4.54,6.4-5.56,10.2-1.07,3.96-1.89,8-2.57,12.05-.42,2.52-.51,5.12.16,7.44,1.66-6.36.98-13.43,4.53-19.45.25.06.5.12.74.18-.27.92-.55,1.84-.8,2.77-.52,1.88-1.12,3.75-1.51,5.66-.49,2.4-.88,4.84-1.13,7.28-.14,1.35-.21,2.83.2,4.08,1.46,4.44,2.98,8.88,4.79,13.19,1.15,2.74,2.15,5.79,4.87,7.46,2.24,1.37,4.62,2.6,7.1,3.45,7.19,2.49,14.41,2.92,21.22-1.15ZM145.73,81.45c4.67,2.05,9.65,2.41,14.64,2.71-2.76,1.93-13.08.58-14.64-2.71Z"/>
  <path class="cls-1" d="M143.84,49.82c-.39-3.06-.93-6.1-1.43-9.32-1.15.68-1.86,1.28-2.67,1.55-2.01.66-2.81,1.99-2.63,4.03.53,6-.81,11.8-1.92,17.62-.24,1.29-.6,2.55-.94,3.95,3.47.43,3.69.32,4.24-1.97.41-1.72.7-3.48,1.24-5.15.44-1.34,1.07-2.66,1.81-3.86,1.31-2.12,2.63-4.24,2.29-6.86Z"/>
  <path class="cls-1" d="M70.51,126.97c-.85,1.57-1.78,3.11-2.52,4.73-.46,1-.66,2.11-.96,3.18,1.34-2.54,2.68-5.09,4.01-7.63l-.54-.28Z"/>
  <path class="cls-1" d="M145.79,164.12c1.51-2.54,3.38-4.96,4.4-7.69,2.03-5.44,3.42-11.11,5.37-16.59,2.22-6.25,4.67-12.43,7.18-18.57,3.68-9.01,7.54-17.94,11.26-26.93,1.14-2.77,2.09-5.61,3.19-8.59-1.01.56-1.91,1.07-2.94,1.65,1.52.76.54,1.42-.03,1.86-2.49,1.94-5.04,3.81-7.6,5.66-.52.37-1.21.5-1.83.75-.12-.19-.25-.37-.37-.56,2.71-2.08,5.42-4.16,8.14-6.24-.13-.19-.25-.38-.38-.58-2.17,1.2-4.71,2.03-6.4,3.71-2,2-4.05,3.85-6.54,4.99-5.63,2.58-11.39,4.87-17.11,7.24-.37.16-.84.08-1.27.12-.04-.18-.07-.35-.11-.53,3.27-1.31,6.57-2.54,9.79-3.96,3.46-1.53,6.92-3.1,10.22-4.94,1.41-.79,2.41-2.3,3.6-3.49-1.76.4-3.23,1.29-4.8,1.52-3.11.44-6.27.49-9.4.77-.67.06-1.48.26-1.95.69-2.06,1.86-4.15,3.72-5.98,5.8-1.44,1.63-2.75,3.46-3.73,5.4-1.74,3.43-3.26,6.98-4.72,10.54-.95,2.3-1.62,4.71-2.54,7.42.8-.48,1.3-.72,1.73-1.04,4.18-3.07,8.34-6.16,12.53-9.22.81-.59,1.7-1.06,2.55-1.58.1.15.2.29.29.44-.38.4-.7.88-1.13,1.2-5.22,3.77-10.47,7.51-15.7,11.28-.5.36-1.03.73-1.38,1.21-3.37,4.66-6.66,9.38-10.06,14.02-1.97,2.69-4.1,5.28-6.5,8.35,3.4,2.21,6.45,4.59,9.85,6.3,2.97,1.5,5.7,3.19,8.16,5.39.88.78,1.94,1.46,3.03,1.87,2.89,1.08,5.85,1.94,8.75,2.98,1.05.37,1.87.3,2.45-.66Z"/>
  <path d="M139.17,175.32c1.77,1.02,2.05-.54,2.59-1.48.59-1.04,1.08-2.15,1.53-3.26.71-1.75.94-3.8,3.16-4.48.21-.07.4-.32.53-.53,1.65-2.82,3.69-5.49,4.84-8.51,1.98-5.18,3.12-10.69,5.11-15.87,4.03-10.5,8.42-20.86,12.62-31.3,2.36-5.86,4.59-11.77,7.02-17.6,1.65-3.95,3.23-7.99,5.41-11.66,2.86-4.8,4.88-9.56,3.09-15.22-.28-.89-.73-2.01-.42-2.74,1.02-2.43.43-4.75-.16-7.06-.74-2.87-1.7-5.63-4.02-7.79-3.78-3.53-7.34-7.3-11.07-10.89-2.28-2.19-4.58-4.39-7.13-6.23-1.29-.94-3.13-1.43-4.76-1.55-7.15-.52-14.1.64-20.91,2.87-4.21,1.37-7.42,3.83-9.21,7.85-1.29,2.91-3.36,4.8-6.15,6.12-2.64,1.25-5.3,2.61-7.01,5.06-1.69,2.42-3.2,4.99-4.57,7.61-3.49,6.66-7.09,13.27-10.23,20.1-3.62,7.88-7.34,15.69-11.96,23.03-5.22,8.3-11.28,15.99-17.39,23.65-1.86,2.34-3.1,5.18-4.53,7.83-.31.57-.2,1.36-.3,2.18.78-.19,1.25-.31,1.72-.43,0-.01,0-.03.01-.04.02-.04.04-.08.06-.12.3-1.07.51-2.18.96-3.18.74-1.62,1.67-3.16,2.52-4.73l.54.28c-1.34,2.54-2.68,5.09-4.01,7.63-.01.05-.03.1-.04.15h-.03c-.21.68-.41,1.34-.62,2.01.26.12.52.23.78.35,1.82-2.99,3.63-5.98,5.45-8.97.16.1.31.21.47.31-.94,2.95-3.89,4.94-4,8.32,2.42-2.17,3.64-5.15,5.51-7.77.12.55.09,1.07-.15,1.46-.94,1.57-2.01,3.07-2.91,4.67-.37.67-.43,1.51-.64,2.27.21.09.43.18.64.27.7-.89,1.41-1.78,1.88-2.37.43.96.91,2.03,1.54,3.42,2.23-2.14,3.01-4.96,5.33-6.49-.38,1.09-.99,2-1.64,2.89-.63.87-1.4,1.66-1.92,2.59-.22.4-.17,1.35.12,1.57,1.33,1.02,2.94,1.72,4.16,2.85.92.85,1.51.78,2.21.04,1.43-1.52,2.86-3.04,4.15-4.67.6-.75.99-.84,1.61-.22-1.43,1.78-2.84,3.55-4.27,5.3-.8.97-.7,2.01.23,2.63.37.25,1.49-.17,1.99-.61,1.74-1.56,3.36-3.25,5.03-4.89.64-.62,1.28-1.2,1.69-.07-1.13,1.24-2.18,2.43-3.27,3.56-.83.86-1.82,1.59-2.57,2.52-.29.36-.12,1.09-.15,1.65.5-.11,1.12-.07,1.49-.35.8-.6,1.5-1.36,2.21-2.08,1.34-1.35,2.66-2.71,3.98-4.07-1.24,2.05-2.78,3.81-4.2,5.67-.33.44-.25,1.19-.36,1.79.58-.23,1.33-.3,1.7-.72,1.58-1.78,3.04-3.66,4.55-5.51.05.35-.04.62-.2.85-1.28,1.96-2.59,3.89-3.83,5.87-.23.37-.36.99-.21,1.37.09.22.81.19,1.24.28.44.1.91.15,1.31.34,1.03.48,1.83.34,2.4-.69,1-1.81,2-3.62,3.11-5.62,1.65.25,2.45-1.13,3.15-2.6.32-.68.58-1.41.76-2.14,1.41-5.73,4.26-10.78,7.33-15.74,3.23-5.21,6.57-10.36,9.56-15.69,1.88-3.34,3.32-6.94,4.76-10.5,1.16-2.85,2.09-5.8,2.99-8.75.58-1.89.94-3.84,1.4-5.77.12-.09.24-.19.35-.28,3.35,5.97,9.07,8.28,15.23,9.89-2.66,2.9-5.4,5.34-7.45,8.25-3.69,5.26-5.72,11.36-7.89,17.37-1.09,3.02-2.13,6.04-4.18,8.64-2.42,3.08-4.56,6.37-6.9,9.52-2.04,2.74-4.19,5.39-6.27,8.09-.5.65-.99,1.31-1.4,2.01-1.39,2.38-2.75,4.79-4.12,7.19-.31.54-.64,1.09-.84,1.68-.08.22.08.67.28.8.2.13.66.12.86-.03.39-.3.72-.7,1.01-1.11,1.3-1.85,2.58-3.71,3.86-5.57.99.76,1.05.8.5,1.5-.91,1.14-1.97,2.15-2.81,3.34-.49.69-1.08,2.21-.93,2.31,1.21.81,1.5-.57,2.06-1.17,1.19-1.28,2.26-2.65,3.38-3.99.15.13.3.25.44.38-1.34,1.64-2.71,3.26-4.01,4.94-.35.45-.48,1.08-.71,1.62.58.19,1.16.38,1.56.51-.04.73-.09,1.49-.13,2.26.61-.11,1.22-.22,1.92-.35.31.74.79,1.2,1.87.46.28-.19,1.44.22,1.54.56.58,1.88,1.23.99,1.85.12.71-.99,1.34-2.03,2.2-3.34-.2,2.08-2.8,3.56-.34,5.58.63-.55,1.21-1.06,1.97-1.72-.13.39-.21.55-.24.72-.15.84-.29,1.69-.43,2.53.71-.6,1.59-1.09,2.09-1.83,1.03-1.5,1.86-3.13,2.94-5-.14,2.98-2.85,4.72-2.4,7.55,2.3-1.42,2.88-3.96,4.24-6.06.12.8-.03,1.49-.3,2.13-.81,1.91-1.7,3.79-2.46,5.73-.13.34.25.88.4,1.32.43-.27,1.07-.44,1.26-.83.89-1.81,1.64-3.69,2.48-5.53.17-.38.47-.71.72-1.06.14.07.28.14.42.21-.11.37-.17.75-.34,1.09-.74,1.54-1.58,3.03-2.22,4.61-.2.49.13,1.2.22,1.81.37-.41.88-.76,1.07-1.24.76-1.86,1.42-3.76,2.13-5.65,1.23.03,1.31.56.8,1.44-.81,1.43-1.66,2.84-2.36,4.33-.31.64-.29,1.44-.42,2.16.23.09.46.17.69.26,2.14-1.94,2.5-5.08,4.27-7.27.13.06.27.13.4.19-1.01,2.25-2.01,4.5-3.02,6.75.15.09.31.19.46.28.43-.16.86-.32,1.29-.49-.08.71-.17,1.43-.26,2.15.17-.07.34-.14.52-.21.79.94,1.59,1.88,2.42,2.86.45-.27.97-.75,1.15-.65ZM128.63,84.29c-.9,4.2-2.19,8.25-3.56,12.33-2.31,6.85-5.94,12.96-9.5,19.13-2.15,3.71-4.7,7.2-6.85,10.91-2.44,4.21-4.47,8.64-5.77,13.37-.29,1.05-.81,2.04-1.28,3.2-8.12-6.56-17.81-9.82-26.04-15.59,2.69-.91,5.47-1.81,8.22-2.8,1.54-.55,3.17-1.04,4.52-1.92,5.01-3.25,10.5-5.25,16.23-6.72,1.01-.26,1.99-.62,2.98-.94-.03-.2-.06-.4-.09-.59-1.12.13-2.26.18-3.36.42-5.11,1.11-9.94,2.94-14.39,5.71-4.58,2.86-9.73,4.17-14.87,5.5-.79.2-1.68.03-2.52.03-.11-.17-.21-.35-.32-.52.72-1.05,1.38-2.14,2.16-3.14,2.42-3.07,4.98-6.04,7.33-9.16,5.6-7.45,10.51-15.34,14.61-23.7,2.95-6.02,5.57-12.19,8.54-18.2,2.35-4.76,4.93-9.4,7.53-14.03,1.23-2.18,2.46-4.5,4.21-6.22,1.92-1.89,4.44-3.16,6.7-4.71.15.15.3.29.46.44-.35,1.06-.51,2.22-1.07,3.15-2.11,3.51-4.18,7.07-6.6,10.36-1.95,2.64-3.99,5.12-5.24,8.25-1.84,4.64-4.1,9.1-6.09,13.68-.57,1.32-1.35,2.63-.59,4.31.29.64-.5,1.76-.76,2.67-.23.8-.41,1.61-.61,2.42.2.06.4.12.6.18,1-2.68,2.22-5.31,2.96-8.06,1.05-3.94,2.48-7.68,4.32-11.31,1.02-2.02,1.68-4.22,2.63-6.29.55-1.19,1.17-2.44,2.08-3.34,3.41-3.32,5.94-7.21,7.95-11.48.08-.16.24-.28.67-.75-.29,1.39-.48,2.39-.71,3.39-1.06,4.68-1.38,9.31.07,14.04.77,2.51.9,5.22,1.25,7.85.31,2.35,1.53,4.16,3.32,5.55.97.75,1.12,1.5.89,2.59ZM125.19,67.95c1.68,4.45,3.37,8.9,5.05,13.35-5.32-3.07-4.62-8.43-5.05-13.35ZM142.93,90.2c-2.47-.86-4.86-2.08-7.1-3.45-2.73-1.67-3.72-4.72-4.87-7.46-1.81-4.31-3.33-8.74-4.79-13.19-.41-1.25-.34-2.73-.2-4.08.25-2.44.65-4.87,1.13-7.28.39-1.91.99-3.78,1.51-5.66.25-.93.53-1.85.8-2.77-.25-.06-.5-.12-.74-.18-3.56,6.03-2.88,13.09-4.53,19.45-.66-2.32-.58-4.92-.16-7.44.67-4.05,1.5-8.09,2.57-12.05,1.02-3.8,2.76-7.24,5.56-10.2,2.54-2.68,5.86-3.1,9.06-3.91,4.99-1.27,10.08-1.76,15.23-1.61,2.31.07,4.34.67,6.02,2.32,3.79,3.72,7.59,7.42,11.39,11.12,1.99,1.94,4.18,3.71,5.94,5.83,2.89,3.5,4.13,7.55,3.16,12.15-.17.82-.25,1.8.02,2.57,2.19,6.21.33,11.41-3.49,16.41-2.63,3.44-6.27,5.19-10.1,6.97.36-.42.72-.84,1.08-1.25,2.4-2.78,4.73-5.59,5.87-9.2.25-.78.88-1.55,1.54-2.06,2.35-1.82,3.32-4.22,3.3-7.11,0-1.14-.04-2.28,0-3.42.14-3.17-1.46-5.29-4.13-6.66-1.01-.52-1.55-1.14-1.73-2.25-.4-2.37-.88-4.72-1.39-7.07-.64-2.96-2.41-5.04-5.46-6.63.31.65.36,1.05.59,1.21,3.06,2.26,3.58,5.65,4.12,9.05.24,1.5.28,3.06.75,4.48.3.92,1.04,1.94,1.87,2.38,2.64,1.4,4.03,3.37,3.78,6.4-.14,1.63-.2,3.27-.45,4.88-.12.75-.61,1.43-.94,2.14l-.52-.09c0-1.46.33-3.02-.08-4.36-.61-1.95-1.74-3.73-2.66-5.57-1.83-3.69-4.18-7-6.94-10.09-1.64-1.84-2.99-3.99-5.19-5.14-5.25-2.74-10.51-5.53-16.65-5.72-.63-.02-1.26.06-2.04.1-.1-.69-.21-1.41-.38-2.62,1.1-.03,2.07-.08,3.04-.06.56.01,1.14.3,1.68.22,3.69-.55,7.09.87,10.61,1.42,1.87.29,3.76.46,5.64.61.54.04,1.11-.19,1.64-.57-10.17-1.97-20.25-4.31-30.65-3.05-.02.28-.05.56-.07.84,1.05.05,2.1.14,3.15.12,1.1-.02,2.2-.13,3.31-.21.06.13.11.26.17.39-1.09.68-2.12,1.5-3.28,2.03-2.05.93-3.27,2.23-3.09,4.65.63,8.55-1.95,16.63-3.87,24.78-.94,4.02.29,7.12,4.04,8.59,2.12.83,4.21,1.72,6.33,2.54.55.21,1.16.28,1.74.41.08-.18.16-.36.23-.54-1.37-.8-2.71-1.65-4.11-2.38-1.29-.66-2.67-1.16-3.98-1.78-2.76-1.31-3.53-2.84-2.9-5.78.18-.86.47-1.7.7-2.51,3.48-.48,8.56,2.15,10.12,5.17,1.25,2.42,4.25,3.29,6.59,1.96,2.81-1.6,5.8-2.41,9.07-2.09,3.16.31,3.47-.94,2.58-3.68-.69-2.12-1.11-4.11.19-6.15.36-.57.54-1.3.62-1.98.22-1.88.42-3.63-1.64-4.98-1.14-.75-1.88-2.3-2.48-3.63-1.06-2.34-2.16-4.44-4.57-5.8-2.73-1.54-2.63-1.72-4.97.52-.39.37-.74.79-1.11,1.18.13.16.25.32.38.48.94-.7,1.89-1.41,2.92-2.18,2.25,1.7,5.21,2.89,5.72,6.72-1.92-.19-3.79-.22-5.6-.59-2.52-.51-4.76-.43-6.6,1.66-.3.34-.8.5-1.36.68,2.42-4.15,1.58-8.45.75-13.06,1.98.22,3.91.06,5.55.69,4.46,1.7,9.28,2.72,12.99,5.98,1.64,1.44,2.91,3.29,4.46,4.84,3.41,3.41,5.02,7.98,7.69,11.87.56.82.77,2.04.78,3.07.06,8.95-4.63,15.1-11.96,19.48-6.81,4.07-14.03,3.64-21.22,1.15ZM160.79,70.44c.15.46.15.96.24,1.56-.64.06-1.13.18-1.62.13-3.7-.37-6.93.93-10.04,2.73-1.43.83-2.97.07-3.5-.89-1.52-2.75-3.99-4.09-6.47-5.29.67-2.79,1.33-5.46,1.95-8.15.22-.97.52-1.54,1.71-1.85,1.34-.34,2.67-1.2,3.7-2.15,1.04-.97,2.07-1.3,3.4-1.18,2.5.22,5.01.38,7.51.61.32.03.66.29.92.52.57.5,1.09,1.05,1.64,1.57,2.08,1.94,2.45,2.92,1.06,5.5-1.25,2.33-1.29,4.53-.51,6.91ZM141.55,56.69c-.74,1.2-1.37,2.52-1.81,3.86-.54,1.68-.83,3.43-1.24,5.15-.55,2.29-.77,2.4-4.24,1.97.34-1.4.69-2.67.94-3.95,1.11-5.82,2.45-11.62,1.92-17.62-.18-2.05.62-3.37,2.63-4.03.81-.27,1.52-.86,2.67-1.55.5,3.22,1.04,6.26,1.43,9.32.34,2.62-.98,4.74-2.29,6.86ZM134.59,161.8c-1.1-.41-2.16-1.09-3.03-1.87-2.46-2.21-5.19-3.9-8.16-5.39-3.39-1.71-6.45-4.09-9.85-6.3,2.4-3.07,4.53-5.66,6.5-8.35,3.4-4.64,6.69-9.35,10.06-14.02.35-.48.89-.85,1.38-1.21,5.23-3.76,10.48-7.51,15.7-11.28.44-.32.76-.8,1.13-1.2-.1-.15-.2-.29-.29-.44-.85.52-1.75.99-2.55,1.58-4.19,3.06-8.35,6.15-12.53,9.22-.44.32-.94.57-1.73,1.04.92-2.71,1.59-5.12,2.54-7.42,1.46-3.56,2.99-7.11,4.72-10.54.98-1.94,2.29-3.77,3.73-5.4,1.83-2.07,3.92-3.94,5.98-5.8.48-.43,1.28-.63,1.95-.69,3.13-.28,6.29-.33,9.4-.77,1.57-.22,3.04-1.11,4.8-1.52-1.19,1.18-2.19,2.7-3.6,3.49-3.3,1.84-6.76,3.41-10.22,4.94-3.22,1.42-6.52,2.65-9.79,3.96.04.18.07.35.11.53.42-.03.89.04,1.27-.12,5.72-2.38,11.48-4.67,17.11-7.24,2.49-1.14,4.55-2.99,6.54-4.99,1.68-1.69,4.23-2.51,6.4-3.71.13.19.25.38.38.58-2.71,2.08-5.42,4.16-8.14,6.24.12.19.25.37.37.56.61-.24,1.31-.37,1.83-.75,2.56-1.84,5.11-3.72,7.6-5.66.57-.44,1.55-1.1.03-1.86,1.03-.58,1.93-1.08,2.94-1.65-1.1,2.98-2.04,5.82-3.19,8.59-3.72,8.99-7.57,17.93-11.26,26.93-2.51,6.14-4.96,12.32-7.18,18.57-1.94,5.47-3.34,11.15-5.37,16.59-1.02,2.73-2.88,5.15-4.4,7.69-.58.97-1.4,1.04-2.45.66-2.9-1.04-5.87-1.9-8.75-2.98Z"/>
  <path d="M67.04,134.88s-.04.08-.06.12c0,.01,0,.03-.01.04h.03c.01-.06.03-.11.04-.15Z"/>
  <path d="M96.24,111.75c1.56-.52,2.82-.94,4.07-1.36-2.13-.91-3.45-.43-4.07,1.36Z"/>
  <path d="M98.76,114.09c.03.24.07.49.1.73,1.73-.38,3.46-.77,5.18-1.15-.05-.23-.1-.47-.15-.7l-5.14,1.12Z"/>
  <path d="M160.36,84.16c-4.99-.3-9.97-.66-14.64-2.71,1.55,3.29,11.87,4.64,14.64,2.71Z"/>
</svg>