<?xml version="1.0" encoding="UTF-8"?>
<svg id="Layer_2" data-name="Layer 2" xmlns="http://www.w3.org/2000/svg" viewBox="0 0 405.63 379.79">
  <g id="Layer_1-2" data-name="Layer 1">
    <g>
      <g id="Ij6eti.tif">
        <g>
          <path d="M328.2,225.09c-7.06-21.97-28.63-38.57-51.69-40.15-6.62-.45-12.27-.4-17.55-.44,2.87,4.44,4.61,9.7,4.86,15.29.07,1.56-.02,3.09-.25,4.59,5.55-.13,11.11-.15,16.51.93,21.62,4.32,33.39,24.63,31.71,45.33,2.28-.62,4.63-.96,6.99-.96,4.51,0,8.67,1.08,12.35,2.94v-15.26c-1.01-4.09-1.64-8.22-2.94-12.26Z"/>
          <path d="M184.8,24.42c-2.26-12.64-11.92-21.87-24.41-24.42H19.4v73.4s1.06,1.53,1.06,1.53l8.64.09c-1.38,22.56,3.73,47.19-4.87,68.54-6.33,15.71-24.23,35.49-24.23,52.73v128.37h85.32c-3.28-4.64-5.29-10.29-5.57-16.32-.05-1.04-.02-2.07.07-3.08H19.4v-32.34h67.54c.34-.59.7-1.17,1.07-1.74-1.79-5.33-1.71-11.25-.48-16.68.12-.54.28-1.08.46-1.62H19.4v-52.71c0-15.77,20.07-38.49,25.39-55.45,6.91-22.03,2.43-46.83,3.71-69.69h50.77c12.22,0,27.49-12.26,27.49-24.9v-30.72h30.72c2.57,0,8.08,5.49,8.08,8.08v11.32h-.09c.02.23.05.45.04.7-.07,1.84-.12,3.67-.18,5.51,0,1.97-.05,3.94-.16,5.91-.05,2.2-.1,4.4-.11,6.6,0,.24-.05.46-.07.69h.56v6.64c7.78.31,14.48,3.76,19.27,9.06.49-16.66.96-33.33-.04-49.48ZM107.36,46.89c0,2.51-3.52,8.08-6.14,8.08h-62.41V19.4h67.58l.97.97v26.52Z"/>
          <path d="M265.53,323.3c-2.49-1.69-4.67-3.78-6.51-6.16-2.62,3.05-5.88,5.58-9.5,7.37,5.34-.26,10.68-.66,16-1.2Z"/>
          <path d="M211.3,309.09c-6.19,1.75-12.44,3.3-18.82,4.3-8.05,1.26-15.74,1.87-23.87,1.69-2.85-.06-5.69-.19-8.54-.22-1.92-.03-3.83-.03-5.75.02-.58.04-1.04.07-1.45.09-1.09.31-2.18.61-2.51.69-1.39.35-2.78.72-4.17,1.08,15.62,1.57,31.23,3.18,46.86,4.69,6.68.65,13.35,2.06,20.06,2.57,4.08.31,8.16.52,12.25.66-6.46-3.16-11.42-8.77-14.05-15.57Z"/>
        </g>
      </g>
      <g id="Ij6eti.tif-2" data-name="Ij6eti.tif">
        <path d="M234.89,54.94c12.49,2.55,22.15,11.78,24.41,24.42,2.07,33.54-2.19,69.38.17,102.65,1.76,24.75,19.23,38.75,39.66,49.59,19.85,10.53,31.16,6.85,51.88,8.27,23.06,1.58,44.63,18.18,51.69,40.15,1.3,4.04,1.93,8.17,2.94,12.26v71.79c-37.72,12.66-78.17,17.94-118.02,14.87-6.71-.52-13.38-1.93-20.06-2.57-28.57-2.77-57.1-5.87-85.69-8.41v11.64h-107.36v-128.37c0-17.24,17.9-37.02,24.23-52.73,8.6-21.35,3.49-45.98,4.87-68.54l-8.64-.09-1.06-1.53V54.94h140.99ZM113.31,109.91h62.41c2.62,0,6.14-5.57,6.14-8.08v-26.52l-.97-.97h-67.58v35.57ZM240.07,93.74v-11.32c0-2.59-5.52-8.08-8.08-8.08h-30.72v30.72c0,12.64-15.27,24.9-27.49,24.9h-50.77c-1.29,22.86,3.2,47.66-3.71,69.69-5.32,16.95-25.39,39.68-25.39,55.45v52.71h107.03c42.32,5.51,84.58,15.52,127.41,12.93,19.34-1.17,38.61-5,57.26-10,4.27-22.37-7.6-45.81-31.02-50.5-9.84-1.97-20.25-.26-30.14-.91-11.46-.75-23.26-4.92-33.56-9.77l-10.3,16.78-16.3-9.61,9.98-17.82c-3.71-2.73-7.64-5.14-11.21-8.08-1.44-1.18-4.46-5.43-6.13-4.86l-16.4,11.52-1.75.2-10.27-15.48,17.94-13.11c-2.16-5.71-4.8-11.45-5.08-17.7h-20.7v-19.4h19.4v-19.4h-19.4v-20.05h19.4v-19.4h-19.4v-19.4h19.4ZM386.23,331.09c-38.08,9.95-76.29,11.72-115.35,7.02-22.93-2.76-45.74-7.28-68.66-10.25h-108.32s0,32.33,0,32.33h67.91v-14.23c34.38,3.48,68.75,6.99,103.15,10.35,28.31,2.76,49.99,5.23,78.82,1.85,14.34-1.68,28.42-5.1,42.44-8.32v-18.75Z"/>
      </g>
    </g>
  </g>
</svg>