<svg width="30" height="28" viewBox="0 0 30 28" fill="none" xmlns="http://www.w3.org/2000/svg">
<g clip-path="url(#clip0_2840_3459)">
<path d="M24.2735 16.5944C23.7509 14.9748 22.1558 13.7506 20.4511 13.6348C19.9614 13.601 19.544 13.6053 19.1528 13.6021C19.3643 13.9297 19.4936 14.3174 19.5122 14.7291C19.5177 14.8438 19.51 14.9573 19.4936 15.0676C19.9044 15.0578 20.3152 15.0567 20.714 15.1353C22.3136 15.4542 23.1834 16.9515 23.0596 18.4771C23.2284 18.4313 23.4015 18.4061 23.5767 18.4061C23.9098 18.4061 24.2177 18.4859 24.4904 18.6235V17.4986C24.416 17.1972 24.3688 16.8925 24.2735 16.5944Z" fill="#808080"/>
<path d="M13.6672 1.79976C13.4996 0.868209 12.7853 0.186747 11.8617 0H1.4352V5.41129L1.51408 5.52377L2.15389 5.53032C2.052 7.19357 2.42997 9.00862 1.79345 10.5834C1.32454 11.7421 0 13.2 0 14.4701V23.9342H6.31048C6.06727 23.5923 5.91937 23.1763 5.89855 22.7307C5.89526 22.6542 5.89745 22.5778 5.90403 22.5035H1.4352V20.1195H6.431C6.4562 20.0758 6.48249 20.0332 6.51097 19.9906C6.37841 19.5975 6.38389 19.1607 6.47592 18.7609C6.48468 18.7205 6.49673 18.6812 6.50988 18.6419H1.4352V14.7552C1.4352 13.5932 2.91969 11.9168 3.313 10.6675C3.82464 9.04357 3.49268 7.21432 3.58799 5.52923H7.34251C8.24636 5.52923 9.37589 4.62499 9.37589 3.69344V1.43063H11.6481C11.8376 1.43063 12.2463 1.8358 12.2463 2.02691V2.86127H12.2397C12.2408 2.87874 12.2441 2.89512 12.243 2.91369C12.2375 3.0491 12.2342 3.18452 12.2299 3.31994C12.2299 3.46519 12.2266 3.61044 12.2178 3.75568C12.2145 3.91731 12.2101 4.08003 12.2101 4.24166C12.2101 4.25914 12.2068 4.27552 12.2047 4.2919H12.2463V4.78115C12.8215 4.80409 13.3178 5.05854 13.6716 5.44842C13.7078 4.21982 13.7428 2.99122 13.6683 1.80085L13.6672 1.79976ZM7.94069 3.45645C7.94069 3.64102 7.67995 4.05273 7.48603 4.05273H2.87039V1.43063H7.86839L7.9396 1.50271V3.45755L7.94069 3.45645Z" fill="#808080"/>
<path d="M19.6383 23.8347C19.4542 23.7102 19.2932 23.5562 19.1573 23.3804C18.9634 23.6053 18.7224 23.7921 18.4551 23.9231C18.8506 23.9046 19.245 23.874 19.6383 23.8347Z" fill="#808080"/>
<path d="M15.6273 22.7876C15.1693 22.9165 14.707 23.0311 14.2348 23.1043C13.6388 23.1971 13.0713 23.2419 12.4688 23.2288C12.2584 23.2244 12.0481 23.2146 11.8366 23.2124C11.6953 23.2102 11.5529 23.2102 11.4115 23.2135C11.3688 23.2168 11.3348 23.2179 11.3042 23.2201C11.2242 23.243 11.1431 23.2648 11.119 23.2714C11.016 23.2965 10.913 23.3249 10.8101 23.3511C11.9648 23.4669 13.1206 23.5848 14.2753 23.6973C14.7694 23.7454 15.2625 23.8491 15.7587 23.8873C16.06 23.9103 16.3624 23.9256 16.6648 23.9354C16.1871 23.7028 15.8201 23.2889 15.6251 22.7876H15.6273Z" fill="#808080"/>
<path d="M17.3726 4.05041C18.2962 4.23825 19.0105 4.91862 19.1781 5.85017C19.3315 8.32265 19.016 10.9644 19.1912 13.4183C19.3216 15.2432 20.6133 16.2752 22.1241 17.0746C23.5922 17.8511 24.4292 17.5792 25.9608 17.684C27.6666 17.8009 29.2617 19.024 29.7832 20.6436C29.8796 20.9417 29.9256 21.2453 30.0001 21.5478V26.8401C27.2097 27.7727 24.2188 28.1626 21.2717 27.9365C20.7754 27.8983 20.2813 27.7945 19.7883 27.7465C17.675 27.5423 15.5649 27.314 13.4505 27.1262V27.9846H5.50977V18.5205C5.50977 17.2494 6.83431 15.7914 7.30212 14.6327C7.93864 13.059 7.56067 11.2429 7.66256 9.57964L7.02275 9.57309L6.94387 9.4606V4.04932H17.3715L17.3726 4.05041ZM8.38016 8.10314H12.9958C13.1897 8.10314 13.4505 7.69252 13.4505 7.50686V5.55203L13.3792 5.48104H8.38126V8.10314H8.38016ZM17.755 6.91058V6.07623C17.755 5.88511 17.3474 5.47995 17.1568 5.47995H14.8846V7.74494C14.8846 8.67649 13.755 9.58073 12.8512 9.58073H9.09666C9.00135 11.2658 9.33331 13.094 8.82167 14.719C8.42836 15.9694 6.94387 17.6447 6.94387 18.8067V22.6923H14.8594C17.9894 23.0986 21.114 23.8368 24.2824 23.6457C25.7132 23.5594 27.1385 23.2766 28.5167 22.9086C28.8323 21.2595 27.9547 19.5307 26.2226 19.1856C25.4952 19.0404 24.725 19.166 23.9942 19.119C23.1463 19.0633 22.2731 18.7564 21.5117 18.3993L20.7502 19.6367L19.5451 18.9279L20.2835 17.6141C20.0085 17.4121 19.7182 17.2352 19.4542 17.0178C19.3479 16.9305 19.1244 16.617 19.0006 16.6596L17.7878 17.5082L17.6585 17.5224L16.8993 16.3812L18.226 15.4147C18.0661 14.9931 17.8711 14.5705 17.8503 14.1096H16.3198V12.679H17.755V11.2483H16.3198V9.77076H17.755V8.34012H16.3198V6.90949H17.755V6.91058ZM28.5649 24.4091C25.7482 25.143 22.9228 25.2729 20.0337 24.9267C18.3378 24.7236 16.6506 24.3894 14.9558 24.171H6.94496V26.5539H11.9671V25.5055C14.5099 25.7622 17.0516 26.021 19.5966 26.2689C21.6902 26.472 23.2942 26.6544 25.4261 26.4054C26.4867 26.282 27.5285 26.0297 28.5649 25.7917V24.4091Z" fill="#808080"/>
</g>
<defs>
<clipPath id="clip0_2840_3459">
<rect width="30" height="28" fill="white"/>
</clipPath>
</defs>
</svg>
