<?xml version="1.0" encoding="UTF-8"?>
<svg id="Layer_1" data-name="Layer 1" xmlns="http://www.w3.org/2000/svg" viewBox="0 0 251 205">
  <defs>
    <style>
      .cls-1 {
        fill: #fff;
      }
    </style>
  </defs>
  <path class="cls-1" d="M132.25,131.64s0-.04,0,0h0Z"/>
  <path class="cls-1" d="M196.07,100.13c-.78.72-1.53,1.47-2.28,2.23-1.82,1.85-3.57,3.76-5.29,5.71-.91,1.03-1.86,2.12-2.72,3.13-.45.52-.87,1.02-1.35,1.6-.45.54-.9,1.07-1.34,1.61-1.67,2.03-3.3,4.1-4.89,6.2-1.23,1.63-2.45,3.29-3.54,5.02-1.58,2.5-3.15,5.01-4.79,7.47-1.73,2.59-3.56,5.1-5.6,7.45-1.99,2.29-4.2,4.42-6.7,6.16-2.35,1.64-4.94,2.87-7.75,3.48-2.52.55-5.15.59-7.66-.03-2.41-.59-4.65-1.85-6.41-3.6-1.91-1.9-3.26-4.38-4.13-6.91-.05-.13-.08-.27-.13-.4.01.1.02.2.03.29.36,2.76,1.48,5.51,3.06,7.8,1.24,1.79,2.87,3.31,4.8,4.33,3.86,2.02,8.29,2.11,12.35.78.55-.18.93-.32,1.51-.57.54-.23,1.09-.48,1.6-.77.32-.18.46-.26.7-.41.27-.17.54-.34.8-.51.53-.35,1.04-.72,1.55-1.11.25-.19.5-.39.75-.59.11-.09.22-.18.33-.28.02-.02.03-.03.04-.03.01,0,.02-.02.04-.04.07-.06.13-.11.2-.17.48-.42.95-.86,1.41-1.3.93-.9,1.81-1.85,2.66-2.84,0,0,.09-.11.11-.13.05-.06.09-.11.14-.17.1-.11.19-.23.29-.34.21-.25.41-.51.62-.76.41-.51.81-1.03,1.2-1.56.79-1.05,1.55-2.13,2.29-3.22,1.46-2.15,2.85-4.34,4.24-6.53,1.16-1.83,2.3-3.69,3.58-5.44.76-1.03,1.56-2.04,2.36-3.04,2.41-2.99,4.89-5.92,7.41-8.82,2.3-2.64,4.62-5.28,7.1-7.76.4-.4.81-.79,1.23-1.17.26-.23.53-.45.79-.67.07-.06.14-.12.21-.17,0,0,.1-.08.12-.1.1-.09.21-.18.31-.27.25-.22.5-.44.74-.66.98-.89,1.92-1.81,2.82-2.77.45-.48.89-.97,1.32-1.46.12-.13.23-.27.35-.41.02-.02.02-.02.03-.04,0,0,0,0,.02-.02.05-.06.1-.11.14-.17.21-.25.42-.5.62-.76,2.54-3.14,4.66-6.41,6.42-9.96-1.02,1.64-2.14,3.22-3.38,4.71-.72.87-1.47,1.69-2.27,2.49-.42.42-.85.84-1.31,1.22-.23.18-.46.37-.69.55-.18.14-.41.28-.56.43-.04.04-.1.08-.16.11-1.06.95-2.11,1.91-3.15,2.87-.05.14-.14.27-.22.35Z"/>
  <path class="cls-1" d="M192.98,61c.08-.13.16-.25.24-.38-.15.13-.3.26-.45.38.07-.02.15-.03.21,0Z"/>
  <path class="cls-1" d="M176.78,116.24c-.12-.86-.27-1.72-.38-2.59-.23-1.76-.28-3.52.09-5.27.23-1.06.62-2.07,1.05-3.06.44-1,.9-2,1.37-2.99.93-1.99,1.9-3.96,2.8-5.96.88-1.97,1.7-3.97,2.28-6.05.57-2.06.96-4.16,1.34-6.26.38-2.12.67-4.26,1.18-6.35.52-2.1,1.2-4.15,1.96-6.17.53-1.41,1.13-2.8,1.75-4.18-1.31,2.4-2.62,4.81-3.9,7.24-2.24,4.25-4.38,8.55-6.34,12.94-1.93,4.3-3.65,8.72-4.74,13.31-.53,2.23-.89,4.49-1.05,6.78-.13,1.93-.15,3.87-.12,5.81.03,2.1.11,4.19.23,6.29.06.98.12,1.95.19,2.93.03.43.1.87.06,1.3.27-.4.53-.81.82-1.21.67-.94,1.37-1.87,2.07-2.79-.08-.31-.16-.62-.24-.94-.23-.91-.3-1.85-.43-2.78ZM177.92,98.28c.65-2.29,1.34-4.57,2.12-6.82.39-1.12.8-2.23,1.24-3.33.45-1.1.89-2.26,1.54-3.26.03-.05.18-.11.15,0-.17.62-.43,1.22-.68,1.81-.26.63-.51,1.26-.76,1.9-.84,2.2-1.58,4.44-2.26,6.7-.68,2.29-1.21,4.64-2.08,6.86-.03.09-.24.19-.22.03.2-1.33.57-2.6.94-3.89Z"/>
  <path class="cls-1" d="M148.87,104.01c.11-.62.23-1.24.35-1.86.16-.81.43-1.6.71-2.38,1.74-4.73,4.9-8.66,8.38-12.22,2.43-2.48,5.16-4.64,8.03-6.61.16-.19.39-.35.62-.42.9-.61,1.82-1.2,2.74-1.78,4.05-2.53,8.15-4.78,12.12-7.45,2.04-1.37,3.91-2.78,5.66-4.47.91-.88,1.83-1.84,2.6-2.78.42-.5.82-1.02,1.21-1.55.19-.25.36-.52.55-.77.02-.03.06-.05.08-.08-3.55,2.67-7.89,4.06-11.83,6.03-3.29,1.64-6.54,3.32-9.67,5.17-.12.1-.25.19-.39.24-.75.45-1.49.9-2.22,1.37-1.99,1.29-3.92,2.66-5.76,4.15-1.76,1.41-3.49,2.98-5.09,4.69-1.57,1.68-3,3.49-4.29,5.46-1.31,2-2.43,4.15-3.18,6.43-.67,2.04-1.03,4.16-1.15,6.3-.06,1.12-.07,2.23-.05,3.35.01.79.05,1.58.05,2.37.05-.33.11-.66.16-1,.12-.73.23-1.47.37-2.21ZM152.01,91.85c1.09-2.1,2.63-4,4.21-5.75,2.88-3.18,6.26-5.89,9.84-8.22,1.87-1.22,3.84-2.26,5.72-3.44,1.9-1.19,3.73-2.58,5.86-3.35.15-.05.04.16-.03.2-2.25,1.28-4.36,2.76-6.58,4.09-1.83,1.09-3.69,2.12-5.46,3.31-1.74,1.16-3.43,2.41-5.02,3.76-1.6,1.36-3.12,2.83-4.51,4.4-1.4,1.59-2.58,3.31-3.77,5.05-.09.13-.39.17-.27-.05Z"/>
  <path class="cls-1" d="M130.27,99.1c.25-.28.49-.56.73-.84.14-.17.36-.42.57-.68.97-1.16,1.89-2.36,2.77-3.59,0,0,0,0,0-.01,0,0,0,0,0,0,0-.01.02-.03.02-.04.03-.05.06-.11.09-.16.05-.09.1-.18.15-.27.11-.2.22-.39.32-.59.41-.78.78-1.58,1.1-2.39.04-.1.08-.21.12-.31-.07.2.05-.13.06-.18.06-.18.12-.36.18-.55.12-.38.23-.77.32-1.16.09-.37.17-.74.24-1.11.04-.2.07-.4.1-.6,0-.05.01-.1.02-.15,0,0,0,0,0,0,.01-.09.02-.18.03-.27.08-.72.1-1.44.07-2.17-.01-.34-.04-.68-.07-1.02-.02-.18-.04-.37-.07-.55-.01-.08-.02-.15-.04-.23,0-.01,0-.05-.01-.07,0-.03-.01-.06-.02-.09-.13-.67-.3-1.32-.52-1.96-.22-.63-.48-1.25-.79-1.85-.15-.29-.31-.58-.48-.86-.05-.08-.1-.16-.15-.25,0,0,0,0,0-.01-.02-.04-.05-.08-.07-.11-.09-.14-.18-.27-.28-.41-.78-1.11-1.72-2.12-2.75-3-.54-.46-1.1-.89-1.69-1.28-.09-.06-.17-.11-.26-.17-.03-.02-.07-.04-.1-.06,0,0,0,0,0,0,0,0,0,0-.01,0-.15-.09-.3-.19-.45-.28-.31-.18-.62-.36-.94-.52-1.35-.71-2.77-1.27-4.22-1.69-1.62-.47-3.01-.73-4.65-.89-1.71-.17-3.43-.17-5.15-.04-.45.04-.9.08-1.35.14-.03,0-.06,0-.07,0-.06,0-.12.02-.18.02-.1.01-.2.03-.3.04-.22.03-.44.07-.66.1-.92.15-1.83.35-2.73.58-.93.24-1.85.52-2.76.84-.12.04-.25.09-.37.13-.01,0-.02,0-.03,0,0,0-.02,0-.03.01-.06.02-.12.05-.18.07-.21.08-.41.16-.61.24-.48.19-.95.39-1.42.6-.94.42-1.86.89-2.76,1.39-.24.13-.47.26-.7.4-.05.03-.1.06-.15.09-.01,0-.08.05-.11.06-.08.05-.17.1-.25.15-.47.29-.94.59-1.4.89-.93.62-1.83,1.28-2.7,1.97-.22.17-.44.35-.65.53-.12.1-.24.2-.35.3-.01.01-.01,0-.02.02,0,0,0,0,0,0-.05.04-.1.08-.15.13-.46.39-.9.8-1.35,1.21-.89.83-1.76,1.69-2.62,2.55-.47.47-.84.86-1.3,1.32-.24.24-.48.49-.72.73-.2.2-.45.44-.59.62-.03.04-.07.08-.12.12-.65.95-1.32,1.89-1.99,2.82,1.25-.38,2.51-.72,3.78-1.03,4.78-1.17,9.64-1.87,14.51-2.5,4.89-.63,10.13-.33,14.68-2.45.28-.13.69-.12.71.28,0,.18-.07.36-.18.51.08-.04.17-.04.24.02.13.13-.02.33-.11.43-.34.39-.67.79-1.03,1.17-2.83,3.07-5.76,6.04-8.34,9.33-1.29,1.64-2.5,3.35-3.57,5.15-1.09,1.83-2.06,3.74-3.09,5.61-1.04,1.89-2.19,3.72-3.5,5.43-1.38,1.79-2.94,3.45-4.51,5.06-1.56,1.6-3.15,3.16-4.7,4.77-1.49,1.54-2.77,2.99-4.03,4.72-1.16,1.59-2.16,3.16-3.06,4.86-.46.87-.89,1.76-1.3,2.65-.18.38-.38.75-.59,1.11.74-.95,1.49-1.89,2.27-2.8,1.55-1.8,3.25-3.45,5.1-4.96,3.79-3.1,8.09-5.53,12.46-7.72,4.4-2.21,8.92-4.18,13.33-6.39,1.08-.54,2.16-1.1,3.22-1.68.55-.3,1.09-.6,1.63-.91.28-.16.56-.32.84-.49-.03.02-.12.07.02-.01.07-.04.14-.08.21-.12.12-.07.23-.14.34-.21,2.04-1.25,4.02-2.62,5.86-4.15.06-.05.11-.1.17-.14.57-.56,1.16-1.11,1.71-1.69.48-.51.95-1.02,1.42-1.54Z"/>
  <path class="cls-1" d="M157.54,89.68c-1.7,1.8-3.23,3.76-4.52,5.88-.63,1.03-1.18,2.1-1.66,3.2-.4.92-.78,1.88-1,2.86-.29,1.3-.51,2.61-.82,3.91-.15.64-.28,1.3-.49,1.93,0,0-.06.15-.08.19,0,.02-.02.04-.02.06-.01.04-.03.09-.05.13-.03.06-.05.13-.08.19-.08.17-.28.43-.5.39,0,.1,0,.19-.01.29,0,.01-.01.02-.01.04,1.36-1.21,2.73-2.42,4.04-3.68,2.05-1.95,3.79-3.87,5.4-6.17.93-1.33,1.74-2.64,2.5-4.02.8-1.44,1.53-2.92,2.22-4.42,1.18-2.58,2.22-5.22,3.22-7.88-.99.69-1.96,1.4-2.9,2.16-1.86,1.49-3.58,3.17-5.24,4.93Z"/>
  <path class="cls-1" d="M98.17,101.71c-2.86,2.93-5.6,5.92-8.06,9.18-2.47,3.28-4.59,6.8-6.08,10.63-.81,2.07-1.41,4.21-1.94,6.36-.12.48-.23.97-.35,1.46.4-.82.83-1.63,1.28-2.42,1.02-1.77,2.15-3.47,3.41-5.08,2.75-3.53,6.11-6.53,9.19-9.77,1.52-1.6,2.91-3.16,4.17-4.95,1.23-1.76,2.28-3.55,3.31-5.42,1.06-1.92,2.08-3.85,3.28-5.69,1.16-1.78,2.46-3.46,3.82-5.08,1.14-1.35,2.34-2.65,3.56-3.93-2.06,1.85-4.11,3.7-6.15,5.57-3.23,2.97-6.38,6.01-9.45,9.15ZM100.46,101.74c-.78,1.07-1.75,2.02-2.61,3.03-1.53,1.81-2.98,3.68-4.37,5.59-1.39,1.91-2.66,3.93-4.18,5.73-.06.07-.28.12-.19-.03.65-1.16,1.41-2.24,2.17-3.32,1.38-1.96,2.8-3.9,4.29-5.78.74-.93,1.5-1.85,2.28-2.74.78-.89,1.58-1.84,2.52-2.57.08-.06.14,0,.09.09Z"/>
  <path class="cls-1" d="M117.83,82.53c.07-.05.14-.11.21-.16-.08.03-.16.07-.23.1.01.02.02.04.03.07Z"/>
  <path class="cls-1" d="M102.14,117.42c-1.1.55-2.19,1.1-3.28,1.68-.55.29-1.1.59-1.64.9-.28.16-.56.32-.85.48-.12.07-.23.14-.35.2-.07.04-.14.08-.21.12-.02.01-.04.02-.05.03-.01,0-.02.01-.04.03-2.09,1.25-4.11,2.61-6.01,4.14-.25.2-.5.4-.74.61-.01.01-.02.01-.03.02-.05.05-.11.09-.16.14-.12.1-.24.21-.36.32-.44.39-.87.79-1.29,1.2-.83.81-1.62,1.66-2.37,2.53-.05.06-.1.12-.15.18-.02.03-.03.03-.04.03-.06.07-.11.15-.15.2-.14.17-.28.34-.42.51-.29.36-.58.71-.86,1.07-.6.76-1.19,1.53-1.77,2.3-1.23,1.64-2.44,3.29-3.67,4.93-2.54,3.38-5.18,6.74-8.26,9.65-2.9,2.75-6.27,5.15-10.16,6.24-4.1,1.15-8.4.54-12.24-1.21-2.11-.96-4.03-2.37-5.46-4.2-1.34-1.72-2.26-3.74-2.71-5.87-.02-.09-.02-.17-.04-.26.06,2.99.91,5.97,2.78,8.39,1.44,1.85,3.35,3.27,5.49,4.21,2.02.88,4.13,1.49,6.3,1.63.49.03.99.04,1.48.02.25,0,.5-.02.76-.04.12,0,.25-.02.37-.03.06,0,.12-.01.19-.02.03,0,.03,0,.04,0,.01,0,0,0,.03,0,.94-.13,1.86-.34,2.76-.62.12-.04.23-.08.35-.12.06-.02.12-.04.17-.06.01,0,.05-.02.08-.03.2-.08.4-.15.6-.24.44-.18.87-.38,1.29-.59.42-.21.83-.44,1.23-.68.04-.02.09-.06.11-.07.05-.03.11-.07.16-.1.09-.06.18-.11.27-.17.2-.13.39-.25.58-.39.42-.29.84-.59,1.25-.91.21-.16.41-.32.61-.48.08-.07.17-.14.25-.21.03-.02.13-.11.19-.16.77-.66,1.51-1.35,2.23-2.07.74-.74,1.45-1.51,2.15-2.29.18-.21.36-.41.55-.62.09-.1.18-.21.27-.32,0-.01,0,0,.01-.01,0,0,0,0,.02-.02.03-.04.06-.07.09-.11.36-.43.71-.85,1.06-1.29,2.64-3.25,5.04-6.69,7.59-10.01,1.18-1.53,2.39-3.05,3.7-4.47,1.4-1.52,2.95-2.9,4.58-4.17,3.31-2.59,6.97-4.71,10.65-6.71,3.96-2.15,7.98-4.18,11.89-6.41.51-.29,1.02-.58,1.52-.88.09-.05.18-.1.27-.16,0,0,.09-.05.12-.07.1-.06.2-.12.29-.18.27-.16.53-.32.8-.48,1.03-.63,2.05-1.28,3.05-1.95.63-.42,1.23-.86,1.85-1.3-3.24,1.81-6.59,3.41-9.95,4.98-2.26,1.06-4.53,2.12-6.77,3.23Z"/>
  <path class="cls-1" d="M79.7,133.05c.98-4.42,2.01-8.87,3.83-13.04,1.65-3.8,3.94-7.3,6.49-10.55,2.6-3.31,5.48-6.39,8.44-9.38,3.16-3.19,6.4-6.28,9.74-9.29,1.77-1.6,3.57-3.19,5.4-4.72.24-.2.47-.4.71-.6-1.5.88-3.05,1.65-4.65,2.32-2.34.97-4.78,1.65-7.24,2.25-4.88,1.18-9.84,1.97-14.71,3.15-2.42.59-4.83,1.24-7.17,2.11-.76.28-1.51.6-2.25.92-1.71,1.85-3.47,3.66-5.27,5.43-4.09,4.04-8.4,7.83-12.96,11.33-2.11,1.62-4.24,3.23-6.3,4.92-.27.22-.54.44-.8.66-.14.12-.28.23-.42.35-.04.03-.07.06-.11.09-.02.02-.14.12-.13.11-.51.43-1,.87-1.5,1.31-1,.91-1.98,1.84-2.92,2.81-.48.49-.94.99-1.4,1.51-.12.13-.24.27-.35.4-.05.06-.1.11-.15.17-.02.02-.06.07-.08.09-.2.24-.4.48-.59.72-.82,1.03-1.59,2.1-2.29,3.22-.3.48-.62,1.04-.93,1.64-.29.56-.57,1.13-.8,1.71-.2.51-.38,1.02-.55,1.62-.16.55-.3,1.1-.41,1.66-.43,2.07-.51,4.34-.1,6.45.4,2.06,1.23,4.06,2.51,5.73,1.37,1.79,3.19,3.19,5.23,4.13,1.97.91,4.08,1.55,6.2,1.73.96.08,1.92.08,2.88,0,.11-.01.23-.02.34-.04.03,0,.1-.01.1-.01.04,0,.08-.01.12-.02.22-.03.45-.07.67-.11.46-.09.92-.2,1.38-.33.22-.06.43-.13.65-.2.12-.04.23-.08.35-.12.04-.01.08-.03.12-.04.02,0,.01,0,.02,0,0,0,0,0,.03,0,.44-.17.88-.35,1.31-.55.41-.19.82-.4,1.22-.62.11-.06.22-.12.33-.18.05-.03.11-.06.16-.09.01,0,.03-.02.06-.03.18-.11.36-.22.54-.33.81-.52,1.59-1.09,2.34-1.69.2-.16.39-.32.58-.48.01,0,0,0,.01-.01,0,0,0,0,0,0,.05-.04.1-.09.15-.13.08-.07.17-.14.25-.22.37-.32.73-.65,1.08-.99.74-.7,1.45-1.43,2.13-2.18.36-.39.71-.78,1.06-1.18.17-.2.35-.4.52-.6,0,0,0,0,0,0,.04-.05.09-.11.13-.16.07-.09.15-.18.22-.27,2.37-2.84,4.53-5.83,6.74-8.8,0,0,0-.01,0-.03-.01-.52-.07-1.03.05-1.54Z"/>
  <path class="cls-1" d="M60.48,111.31c.11-.19.13-.23.22-.4.07-.13.15-.26.22-.4.36-.64.71-1.29,1.07-1.93.68-1.18,1.33-2.35,2.18-3.42,3-3.77,7.01-6.54,11.29-8.68,1.14-.57,2.27-1.13,3.44-1.62,1.18-.49,2.37-.94,3.58-1.34,2.36-.79,4.77-1.44,7.19-2,4.84-1.1,9.75-1.91,14.56-3.16,1.19-.31,2.4-.62,3.56-1.04,1.14-.41,2.27-.87,3.37-1.38,1.12-.52,2.23-1.09,3.29-1.73.52-.31,1.02-.64,1.52-.98.13-.09.26-.18.39-.27-2.16.66-4.43.95-6.67,1.15-2.45.22-4.9.39-7.35.69-4.8.59-9.59,1.35-14.28,2.57-4.66,1.21-9.23,2.87-13.41,5.28-2.02,1.17-4.04,2.57-5.79,4.1-1.65,1.45-3.06,2.95-4.29,4.73-1.06,1.55-1.93,3.28-2.64,5.09-.66,1.66-1.13,3.39-1.73,5.07.05-.04.1-.08.15-.11.04-.07.08-.14.12-.21ZM69.01,98c1.73-1.62,3.81-2.91,5.89-4.04,3.77-2.05,7.86-3.48,12.02-4.5,2.15-.52,4.33-.85,6.49-1.34,2.18-.49,4.36-1.21,6.62-1.2.13,0,0,.2-.08.21-2.52.5-4.99,1.17-7.5,1.69-2.11.43-4.22.79-6.31,1.32-2.05.52-4.08,1.15-6.06,1.9-1.96.75-3.88,1.63-5.71,2.66-1.84,1.03-3.52,2.25-5.21,3.5-.19.14-.28-.08-.13-.21Z"/>
  <path class="cls-1" d="M67.99,102.42c-1.5,1.3-3,2.79-4.04,4.5-.06.1-.12.2-.18.29-.01.02-.01.02-.02.03,0,0,0,.01-.03.05-.03.05-.06.11-.1.16-.17.29-.34.58-.52.87-.21.36-.42.71-.64,1.06-.23.37-.41.66-.61.97,0,0,0,0,0,0,1.22-.95,2.42-1.91,3.59-2.9,3.83-3.27,7.5-6.74,10.98-10.38-.91.44-1.81.9-2.69,1.39-2.03,1.12-4,2.43-5.75,3.95Z"/>
  <path class="cls-1" d="M173.26,123.97c-.19-1.98-.28-3.98-.37-5.97-.09-2.08-.14-4.16-.12-6.24.02-2.02.12-4.04.37-6.05.29-2.3.79-4.57,1.42-6.8,1.29-4.55,3.12-8.93,5.1-13.22,2.02-4.36,4.19-8.65,6.48-12.87,1.18-2.17,2.38-4.35,3.64-6.47.28-.48.56-.96.84-1.44-1.14,1.33-2.38,2.59-3.69,3.75-1.87,1.66-3.91,3.08-6,4.44-4.05,2.62-8.22,4.9-12.26,7.49-.44.28-.87.56-1.3.85-.54,1.44-1.08,2.88-1.65,4.31-1.21,3.04-2.52,6.04-4.09,8.91-1.59,2.91-3.44,5.66-5.63,8.15-1.54,1.74-3.24,3.33-4.96,4.89-1.77,1.6-3.57,3.16-5.35,4.76-1.83,1.64-3.63,3.31-5.33,5.07-.42.44-.84.88-1.25,1.34-.2.22-.4.44-.59.66-.1.12-.2.23-.3.35-.03.04-.06.07-.1.11,0,.01-.07.08-.1.11-.75.89-1.47,1.82-2.14,2.78-.33.47-.64.95-.94,1.45-.03.05-.06.1-.09.15,0,0-.03.06-.06.1-.07.12-.13.23-.2.35-.14.25-.28.5-.41.76-.26.49-.5,1-.71,1.51-.11.25-.21.5-.3.75,0,.03-.05.12-.06.15-.01.03-.04.1-.04.12-.04.12-.08.24-.12.37-.17.52-.32,1.04-.44,1.57-.06.27-.12.54-.16.82-.02.14-.05.27-.07.41,0,.06-.02.13-.03.19,0,.03,0,.06-.01.08-.13,1.1-.15,2.22-.04,3.32.23,2.43,1.1,4.83,2.29,7.01,1.2,2.21,2.98,4.15,5.17,5.4,2.12,1.21,4.49,1.78,6.91,1.79,2.52.01,5.05-.59,7.3-1.59,1.34-.59,2.38-1.23,3.57-2.09.6-.43,1.18-.88,1.75-1.35.04-.04.09-.07.13-.11,0,0,.03-.03.05-.04.02-.02.04-.03.04-.03.03-.03.07-.06.1-.09.14-.12.28-.25.43-.37.27-.24.54-.49.8-.74.54-.52,1.07-1.05,1.58-1.59.25-.27.5-.54.75-.82.23-.26.55-.62.71-.82.15-.18.46-.55.67-.8.24-.3.49-.6.73-.91.46-.59.91-1.19,1.35-1.79,1.79-2.45,3.45-5,5.09-7.55.67-1.04,1.33-2.09,2.01-3.13-.02-.06-.03-.12-.05-.17-.23-.35-.27-.79-.31-1.19Z"/>
  <path class="cls-1" d="M187.56,63c1.07-.53,2.07-1.06,3-1.67.49-.32.96-.65,1.41-1.01.1-.08.2-.16.3-.24.02-.02.12-.1.12-.1.04-.04.09-.08.13-.11.21-.19.42-.38.63-.58.2-.2.68-.51.96-.24.16.16.12.39.02.59.05-.02.09-.03.14-.03.18.02.18.18.13.32-.18.47-.36.95-.55,1.42-.82,1.94-1.7,3.85-2.52,5.78-.81,1.9-1.57,3.82-2.23,5.78-.67,1.98-1.24,4.01-1.66,6.06-.43,2.11-.71,4.24-1.05,6.36-.34,2.08-.82,4.17-1.48,6.17-.68,2.09-1.58,4.12-2.5,6.12-.92,1.99-1.89,3.96-2.81,5.95-.83,1.8-1.7,3.59-1.9,5.59-.17,1.7.06,3.39.31,5.07.14.89.28,1.78.36,2.68.06.69-.01,1.37-.12,2.04.5-.64.99-1.28,1.5-1.91,1.76-2.17,3.56-4.32,5.39-6.43,1.8-2.07,3.64-4.11,5.52-6.1,1.59-1.68,3.2-3.34,4.9-4.91.1-.09.28-.21.45-.24,1.07-.93,2.15-1.85,3.24-2.74.03-.04.05-.08.08-.11.37-.35.69-.81,1.01-1.21.36-.44.75-.85,1.12-1.28.68-.78,1.29-1.51,1.95-2.32.64-.79,1.26-1.6,1.85-2.43.58-.81,1.12-1.64,1.64-2.48.06-.1.12-.2.18-.3,0-.01.09-.15.11-.19.12-.2.23-.4.35-.61.23-.41.46-.83.68-1.25.42-.81.81-1.64,1.17-2.47.18-.41.35-.83.51-1.25.04-.11.09-.23.13-.34.01-.03.07-.18.08-.21.07-.19.14-.39.21-.58.55-1.59.99-3.23,1.3-4.88.3-1.6.47-2.99.53-4.66.06-1.52,0-3.04-.17-4.54-.08-.74-.19-1.41-.31-2.05-.13-.69-.29-1.38-.48-2.06-.36-1.31-.83-2.6-1.4-3.84-.27-.59-.57-1.17-.9-1.73-.09-.15-.18-.3-.27-.45-.04-.06-.07-.12-.11-.18-.02-.03-.04-.06-.06-.09-.01-.02,0-.02-.01-.02,0,0,0,0,0,0-.17-.27-.35-.53-.53-.8-.71-1-1.5-1.94-2.38-2.78-.43-.41-.89-.81-1.37-1.17-.23-.18-.46-.35-.7-.51-.13-.09-.26-.18-.4-.26,0,0,0,0-.02-.01-.02-.01-.04-.03-.06-.04-.06-.04-.12-.07-.18-.11-.99-.6-2.05-1.08-3.16-1.43-.55-.17-1.11-.31-1.68-.41,0,0,0,0,0,0,0,0-.01,0-.03,0-.04,0-.08-.01-.12-.02-.06,0-.13-.02-.19-.03-.14-.02-.29-.04-.43-.05-.29-.03-.58-.06-.87-.07-.61-.03-1.22-.02-1.83.03-.16.01-.32.03-.48.04-.06,0-.12.01-.18.02-.02,0-.11.01-.13.02-.33.05-.65.1-.97.17-.63.13-1.26.3-1.87.5-.16.05-.33.11-.49.17-.03.01-.09.03-.12.04-.09.03-.18.07-.26.1-.32.13-.64.26-.96.41-.68.31-1.34.66-1.99,1.04,0,0,0,0,0,0,0,0,0,0,0,0-.04.03-.09.05-.14.08-.07.04-.14.09-.22.13-.16.1-.33.21-.49.31-.33.22-.66.45-.98.68-.35.26-.7.52-1.04.79-.17.13-.33.27-.49.4-.05.04-.09.08-.14.11-.01,0-.04.03-.06.05-.03.03-.06.05-.06.05-.04.03-.07.06-.11.1-.7.61-1.38,1.25-2.03,1.92-.78.79-1.48,1.58-2.12,2.37-.73.91-1.43,1.85-2.08,2.82-2.35,3.51-4.19,7.42-5.8,11.39,3.19-1.87,6.47-3.59,9.8-5.18,2.14-1.02,4.35-1.9,6.49-2.95Z"/>
  <path d="M129.89,72.1c.08.05-.03-.02,0,0h0Z"/>
  <path d="M87.91,83.53c.12.05.06.21,0,.29-.03.04-.06.08-.09.13.05-.04.09-.08.12-.12.15-.18.4-.42.59-.62.24-.25.48-.49.72-.73.46-.46.83-.85,1.3-1.32.86-.86,1.73-1.72,2.62-2.55.44-.41.89-.81,1.35-1.21.05-.04.1-.08.15-.13,0,0,0,0,0,0-.11.09.08-.07,0,0,0,0,0,0,.02-.02.12-.1.24-.2.35-.3.22-.18.43-.35.65-.53.87-.69,1.78-1.35,2.7-1.97.46-.31.93-.61,1.4-.89.08-.05.17-.1.25-.15-.02.01-.03.02.05-.03-.02.01-.03.02-.05.03.03-.02.09-.05.11-.06.05-.03.1-.06.15-.09.23-.14.47-.27.7-.4.9-.5,1.82-.96,2.76-1.39.47-.21.94-.41,1.42-.6.2-.08.41-.16.61-.24.06-.02.12-.05.18-.07.02,0,.02,0,.03-.01-.12.04.11-.04,0,0,0,0,.01,0,.03,0,.12-.04.25-.09.37-.13.91-.32,1.83-.6,2.76-.84.9-.23,1.81-.43,2.73-.58.22-.04.44-.07.66-.1.1-.01.2-.03.3-.04.06,0,.12-.02.18-.02.02,0,.05,0,.07,0,0,0,0,0-.01,0,.07,0,.05,0,.01,0,.45-.06.9-.1,1.35-.14,1.71-.14,3.44-.13,5.15.04,1.64.16,3.03.42,4.65.89,1.46.42,2.88.99,4.22,1.69.32.17.63.34.94.52.15.09.3.18.45.28,0,0,0,0,.01,0-.03-.02.08.05,0,0,0,0,0,0,0,0,.03.02.07.04.1.06.09.06.17.11.26.17.59.39,1.15.82,1.69,1.28,1.03.88,1.97,1.89,2.75,3,.09.13.19.27.28.41.02.04.05.07.07.11,0,0,0,0,0,.01,0,0,0,0,0,0-.04-.07.05.08,0,0,.05.08.1.16.15.25.17.28.33.57.48.86.31.6.57,1.21.79,1.85.22.64.39,1.3.52,1.96,0,.03.01.06.02.09,0-.03,0-.04,0,.04,0-.01,0-.03,0-.04,0,.02.01.06.01.07.01.08.02.15.04.23.03.18.05.37.07.55.04.34.06.68.07,1.02.03.72,0,1.45-.07,2.17,0,.09-.02.18-.03.27.02-.15-.01.11,0,0,0,0,0,0,0,0,0,0,0,0,0,0,0,.05-.01.1-.02.15-.03.2-.06.4-.1.6-.07.37-.15.74-.24,1.11-.1.39-.2.77-.32,1.16-.06.18-.12.36-.18.55-.02.05-.14.38-.06.18-.04.11-.08.21-.12.31-.32.82-.69,1.62-1.1,2.39-.11.2-.21.4-.32.59-.05.09-.1.18-.15.27-.03.05-.06.11-.09.16,0,.01-.02.03-.02.04,0,0,0,0,0,0,0,0,0,0,0,.01.2-.27.65-.64,1.02-.49.38.15.2.66.02.9-.85,1.18-1.73,2.33-2.65,3.45-1.5,1.81-3.1,3.52-4.78,5.16,1.89-1.63,3.64-3.41,5.19-5.38,2.32-2.94,4.25-6.32,5.07-10,.65-2.89.57-5.93-.44-8.72-.94-2.61-2.66-4.92-4.78-6.69-2.34-1.95-5.13-3.31-8.05-4.11-3.31-.91-6.78-1.17-10.19-.85-3.92.36-7.74,1.44-11.31,3.08-4.13,1.9-7.93,4.56-11.21,7.7-.9.86-1.74,1.76-2.54,2.71-.41.49-.74.9-1.12,1.43-.36.5-.67,1.05-1.05,1.53-.03.03-.05.08-.06.13.03-.04.06-.08.09-.12.06-.08.22-.22.34-.17Z"/>
  <path d="M135.06,77.15s0,0,0,0c.05.08-.05-.07,0,0Z"/>
  <path d="M52.39,119.04s.02-.02.03-.02c0,0,0,0-.03.02Z"/>
  <path d="M137.01,82.15s0,.03,0,.04c-.01-.08-.01-.07,0-.04Z"/>
  <path d="M100.06,73.41s.04-.02.05-.03c-.08.05-.08.05-.05.03Z"/>
  <path d="M106.03,70.55c.11-.04-.12.04,0,0h0Z"/>
  <path d="M94.68,77.27c.08-.07-.11.09,0,0h0Z"/>
  <path d="M60.45,111.91c-.15-.06-.22,0-.29.07.1-.07.21-.1.29-.07Z"/>
  <path d="M60.08,112.05s0,0,0,0c0-.01,0-.02,0,0Z"/>
  <path d="M39.96,135.25c.41.01.4.44.28.73-.42,1.01-.77,2.12-1.03,3.27-.3,1.35-.42,2.75-.39,4.15.02.09.02.17.04.26.44,2.13,1.36,4.15,2.71,5.87,1.43,1.83,3.35,3.24,5.46,4.2,3.84,1.75,8.14,2.36,12.24,1.21,3.89-1.09,7.26-3.5,10.16-6.24,3.08-2.91,5.72-6.27,8.26-9.65,1.23-1.64,2.44-3.29,3.67-4.93.58-.77,1.17-1.54,1.77-2.3.28-.36.57-.72.86-1.07.14-.17.28-.34.42-.51.04-.05.1-.13.15-.2-.01,0,.02-.05.07-.07-.02.01-.05.05-.07.07,0,0,.01,0,.04-.03.05-.06.1-.12.15-.18.76-.88,1.54-1.73,2.37-2.53.42-.41.85-.81,1.29-1.2.12-.11.24-.21.36-.32.05-.05.11-.09.16-.14-.08.06,0,0,.02-.02,0,0-.01.01-.02.02,0,0,.01,0,.03-.02.24-.21.49-.41.74-.61,1.9-1.53,3.92-2.89,6.01-4.14.02-.01.03-.02.04-.03-.1.06.1-.06,0,0,.01,0,.03-.01.05-.03.07-.04.14-.08.21-.12.12-.07.23-.14.35-.2.28-.16.56-.32.85-.48.54-.31,1.09-.61,1.64-.9,1.08-.58,2.18-1.14,3.28-1.68,2.24-1.11,4.51-2.17,6.77-3.23,3.36-1.58,6.71-3.17,9.95-4.98,1.43-1.01,2.84-2.05,4.19-3.17.26-.21.52-.43.78-.65.02-.02.03-.02.04-.03.01,0,.02-.02.04-.03.06-.06.13-.11.19-.17.13-.11.26-.22.39-.34.5-.43.99-.88,1.47-1.33.41-.38.79-.78,1.19-1.17-.06.05-.11.1-.17.14-1.85,1.53-3.82,2.9-5.86,4.15-.11.07-.23.14-.34.21-.07.04-.14.08-.21.12-.14.09-.05.03-.02.01-.28.17-.56.33-.84.49-.54.31-1.08.61-1.63.91-1.06.58-2.14,1.14-3.22,1.68-4.4,2.21-8.92,4.19-13.33,6.39-4.37,2.19-8.67,4.62-12.46,7.72-1.84,1.51-3.54,3.15-5.1,4.96-.78.91-1.53,1.85-2.27,2.8-.32.57-.65,1.13-.97,1.7-.03.06-.13.14-.23.19-.11.22-.22.43-.33.65-.06.13-.49.45-.52.16-2.21,2.96-4.37,5.96-6.74,8.8-.07.09-.15.18-.22.27-.04.05-.09.11-.13.16,0,0,0,0,0,0,0,0,0,0,0,0,.09-.1-.11.13,0,0-.17.2-.34.4-.52.6-.35.4-.7.79-1.06,1.18-.69.75-1.4,1.48-2.13,2.18-.35.34-.71.67-1.08.99-.08.07-.17.15-.25.22-.05.04-.1.09-.15.13,0,0,0,0,0,0,.1-.09-.11.1,0,0,0,0,0,0-.01.01-.19.16-.39.32-.58.48-.75.6-1.53,1.17-2.34,1.69-.18.11-.36.22-.54.33.05-.03.1-.06-.03.02,0,0,.02-.01.03-.02-.02.01-.05.03-.06.03-.05.03-.11.06-.16.09-.11.06-.22.12-.33.18-.4.22-.81.43-1.22.62-.43.2-.87.38-1.31.55-.02,0-.02,0-.03,0,.09-.03-.08.03,0,0,0,0,0,0-.02,0-.04.01-.08.03-.12.04-.12.04-.23.08-.35.12-.21.07-.43.14-.65.2-.45.13-.91.24-1.38.33-.22.04-.45.08-.67.11-.04,0-.08.01-.12.02,0,0-.07,0-.1.01,0,0,.02,0,.03,0-.06,0-.05,0-.03,0-.11.01-.23.03-.34.04-.96.09-1.92.09-2.88,0-2.12-.19-4.24-.83-6.2-1.73-2.05-.94-3.86-2.34-5.23-4.13-1.28-1.67-2.11-3.66-2.51-5.73-.41-2.11-.32-4.38.1-6.45.11-.56.25-1.11.41-1.66.18-.6.35-1.1.55-1.62.23-.59.51-1.15.8-1.71.31-.59.63-1.15.93-1.64.69-1.12,1.46-2.19,2.29-3.22.19-.24.39-.48.59-.72.01-.02.06-.07.08-.09,0,.01-.02.02-.03.03.04-.04.04-.04.03-.03.05-.06.1-.11.15-.17.12-.13.23-.27.35-.4.46-.51.92-1.01,1.4-1.51.94-.97,1.92-1.91,2.92-2.81.49-.44.99-.88,1.5-1.31,0,0,.12-.1.13-.11,0,0-.02.02-.03.02.03-.03.04-.03.03-.02.04-.03.07-.06.11-.09.14-.12.28-.23.42-.35.27-.22.53-.44.8-.66,2.06-1.69,4.18-3.3,6.3-4.92,4.56-3.5,8.87-7.29,12.96-11.33,1.79-1.77,3.55-3.58,5.27-5.43-.62.27-1.23.55-1.84.85-3.49,3.64-7.15,7.11-10.98,10.38-1.17,1-2.37,1.95-3.59,2.9-.18.28-.36.57-.54.84-.16.24-.31.53-.52.73-.01.01-.02.02-.03.03,0,0,0,.01-.01.02-.05.06-.09.11-.14.17-.04.05-.09.1-.13.15-.12.12-.35.31-.52.17-.02-.02-.04-.05-.05-.07-.05.12-.09.24-.13.36-.11.26-.76.59-.68.08.02-.15.06-.29.08-.43-2.21,1.68-4.42,3.34-6.55,5.1-4.27,3.53-8.32,7.44-11.15,12.25-1.12,1.91-1.95,3.95-2.45,6.09.18-.32.56-.63.92-.62Z"/>
  <path d="M60.1,112.01s.03-.06.05-.09c.01-.02.08-.16.06-.11-.03.07.16-.31.09-.18.02-.04.04-.08.06-.11-.05.04-.1.08-.15.11-.05.15-.11.3-.17.45.01-.01.02-.02.04-.03,0-.02.02-.04.02-.04Z"/>
  <path d="M134.36,93.98s0,0,0-.01c0,0,0,0,0,0,0,0,0,0,0,0,0,0,0,0,0,0Z"/>
  <polygon points="134.36 93.98 134.36 93.97 134.36 93.98 134.36 93.98"/>
  <path d="M137.1,86.45s0,0,0,0c-.01.1.02-.15,0,0Z"/>
  <path d="M113.11,68.81s0,0,.01,0c.04,0,.06,0-.01,0Z"/>
  <path d="M45.94,125.37s.02-.02.03-.03c.01-.01.01-.01-.03.03Z"/>
  <path d="M72.55,143.85s0,0,0,0c-.11.13.09-.11,0,0Z"/>
  <path d="M88.94,125.64s.01-.01.02-.02c-.02.02-.1.08-.02.02Z"/>
  <path d="M84.57,130.03s.05-.06.07-.07c-.06.03-.08.07-.07.07Z"/>
  <path d="M95.77,120.84c.1-.06-.1.06,0,0h0Z"/>
  <path d="M67.35,149.16c-.11.1.1-.09,0,0h0Z"/>
  <path d="M60.78,153.16c-.08.03.09-.03,0,0h0Z"/>
  <path d="M57.41,153.99s-.02,0-.03,0c-.02,0-.03,0,.03,0Z"/>
  <path d="M63.88,151.67s-.02.01-.03.02c.13-.08.08-.05.03-.02Z"/>
  <path d="M87.82,83.95c-.08.07-.18.12-.27.08-.09-.04-.09-.13-.07-.21-.81,1.08-1.64,2.15-2.46,3.21.27-.09.54-.17.81-.26.67-.93,1.35-1.87,1.99-2.82Z"/>
  <path d="M87.55,84.03c.09.04.19-.01.27-.08.03-.04.06-.08.09-.13.06-.08.11-.24,0-.29-.12-.05-.27.08-.34.17-.03.04-.06.08-.09.12-.02.08-.02.17.07.21Z"/>
  <path d="M127.25,102.24s0,0,.03-.02c.1-.09.2-.17.3-.26.22-.19.44-.39.65-.58.43-.39.85-.8,1.26-1.21.43-.43.85-.88,1.26-1.33.18-.2.36-.41.54-.62.02-.02.01-.02.02-.03,0,0,0,0,.02-.02.05-.06.09-.11.14-.17.08-.09.16-.19.23-.28.66-.8,1.28-1.63,1.86-2.5.27-.41.54-.82.79-1.24,0,0,0,0,0,.01-.88,1.23-1.81,2.43-2.77,3.59-.22.26-.43.51-.57.68-.24.28-.49.56-.73.84-.46.52-.94,1.04-1.42,1.54-.55.58-1.13,1.13-1.71,1.69.02-.02.05-.04.07-.06.03-.02.03-.02.04-.03Z"/>
  <path d="M66.18,152.72s-.01.01-.02.02c.08-.07.06-.05.02-.02Z"/>
  <path d="M71.39,147.41c-.07.08.09-.11,0,0h0Z"/>
  <path d="M122.25,107.2c-1.11.7-2.25,1.37-3.39,2.01-.61.43-1.22.88-1.85,1.3-1,.67-2.02,1.32-3.05,1.95-.26.16-.53.32-.8.48-.1.06-.2.12-.29.18.02-.01.02-.01-.04.02.01,0,.02-.01.04-.02-.03.02-.11.06-.12.07-.09.05-.18.1-.27.16-.51.3-1.01.59-1.52.88-3.91,2.23-7.93,4.26-11.89,6.41-3.69,2-7.34,4.12-10.65,6.71-1.63,1.27-3.18,2.65-4.58,4.17-1.31,1.42-2.53,2.93-3.7,4.47-2.55,3.32-4.95,6.75-7.59,10.01-.35.43-.7.86-1.06,1.29-.03.04-.06.07-.09.11-.01.02-.01.01-.02.02.09-.11-.07.08,0,0,0,0,0,0-.01.01-.09.11-.18.21-.27.32-.18.21-.36.42-.55.62-.69.78-1.41,1.55-2.15,2.29-.72.72-1.46,1.41-2.23,2.07.04-.04.06-.05-.02.02,0,0,.01-.01.02-.02-.06.05-.16.14-.19.16-.08.07-.17.14-.25.21-.2.16-.41.33-.61.48-.41.31-.82.62-1.25.91-.19.13-.39.26-.58.39-.09.06-.18.11-.27.17-.05.03-.11.07-.16.1-.02,0-.07.04-.11.07,0,0,.02,0,.02-.01-.11.06-.08.05-.02.01-.4.24-.81.47-1.23.68-.42.21-.85.41-1.29.59-.2.08-.4.16-.6.24.04-.02.08-.03-.03.01,0,0,.02,0,.03-.01-.03.01-.07.02-.08.03-.06.02-.12.04-.17.06-.12.04-.23.08-.35.12-.9.29-1.82.5-2.76.62-.03,0-.02,0-.03,0,.05,0-.06,0,0,0-.01,0-.01,0-.04,0-.06,0-.12.01-.19.02-.12.01-.25.02-.37.03-.25.02-.5.03-.76.04-.49.02-.99,0-1.48-.02-2.17-.14-4.28-.75-6.3-1.63-2.14-.94-4.05-2.35-5.49-4.21-1.88-2.42-2.72-5.4-2.78-8.39-.42-2.18-.39-4.41,0-6.6.06-.32.14-.62.22-.93-.02.03-.04.06-.06.09-1.81,4.39-2.32,9.49-.43,13.95.88,2.07,2.26,3.93,4.02,5.34,1.91,1.54,4.21,2.57,6.56,3.21,2.03.55,4.15.78,6.25.55,1.99-.21,3.91-.78,5.72-1.64,3.8-1.8,7-4.71,9.8-7.8,2.93-3.23,5.5-6.76,8.1-10.26,1.2-1.61,2.4-3.23,3.67-4.79.14-.17.28-.34.42-.51.11-.13.25-.36.39-.49-.03.02-.04.01.06-.05-.02.01-.04.04-.06.05.02-.01.04-.03.06-.05.04-.04.08-.09.11-.13.06-.07.13-.15.19-.22.17-.2.34-.39.52-.59.67-.74,1.38-1.46,2.12-2.14.37-.34.75-.68,1.14-1.01-.05.04-.07.06.03-.02,0,0-.02.02-.03.02.05-.04.13-.11.15-.12.1-.08.2-.17.3-.25.2-.16.4-.33.61-.49.81-.64,1.63-1.24,2.48-1.83.86-.59,1.73-1.16,2.62-1.71.21-.13.42-.26.63-.39.12-.07.23-.14.35-.21.04-.02.08-.05.12-.07.03-.02.06-.04.09-.05-.05.03-.05.03.03-.02,0,0-.02.01-.03.02,0,0,0,0,.02,0,.47-.28.94-.55,1.42-.82,3.87-2.22,7.87-4.21,11.78-6.35,4.31-2.35,8.53-4.86,12.48-7.79,2.6-1.92,5.04-4.04,7.34-6.3-1.79,1.54-3.71,2.94-5.72,4.21Z"/>
  <path d="M83.46,133.52s.04-.04.06-.05c-.1.07-.1.08-.06.05Z"/>
  <path d="M94.94,124.25s.02-.01.03-.02c-.08.05-.08.05-.03.02Z"/>
  <path d="M112.87,113.11s-.02.01-.04.02c.06-.04.06-.03.04-.02Z"/>
  <path d="M87.6,129.38s.02-.02.03-.02c-.1.08-.08.07-.03.02Z"/>
  <path d="M62.78,155.19s-.02,0-.02.01c-.05.03-.08.05.02-.01Z"/>
  <path d="M59.63,156.71s-.02,0-.03.01c.1-.04.07-.03.03-.01Z"/>
  <path d="M56.23,157.55c-.06,0,.05,0,0,0h0Z"/>
  <path d="M134.34,94.02s0,.01,0,0h0Z"/>
  <path d="M127.25,102.24c-.08.07.06-.05,0,0h0Z"/>
  <path d="M131.32,98.19c-.08.09.06-.07,0,0h0Z"/>
  <path d="M123.87,105.36c-.1.09.1-.08,0,0h0Z"/>
  <path d="M135.4,94.38c.17-.24.35-.75-.02-.9-.37-.14-.81.22-1.02.49,0,.02-.02.03-.02.04,0,.01,0,.01,0,0,0,0,.01-.02.02-.04,0,0,0,0,0,0-.25.42-.52.84-.79,1.24-.58.86-1.2,1.69-1.86,2.5-.08.09-.15.19-.23.28-.05.06-.09.11-.14.17-.01.01,0,.01-.02.02.06-.07-.08.09,0,0,0,0,0,0-.02.03-.18.21-.36.41-.54.62-.41.45-.83.9-1.26,1.33-.41.41-.83.82-1.26,1.21-.22.2-.43.39-.65.58-.1.09-.2.17-.3.26-.02.02-.02.02-.03.02.06-.05-.08.07,0,0-.01,0,0,0-.04.03-.02.02-.05.04-.07.06-.4.39-.78.79-1.19,1.17-.48.45-.97.89-1.47,1.33-.13.11-.26.22-.39.34-.06.06-.13.11-.19.17-.02.02-.03.02-.04.03.1-.08-.1.09,0,0-.01,0-.02.02-.04.03-.26.22-.52.43-.78.65-1.35,1.11-2.76,2.15-4.19,3.17,1.15-.64,2.28-1.3,3.39-2.01,2.01-1.27,3.93-2.67,5.72-4.21,1.67-1.64,3.28-3.35,4.78-5.16.92-1.12,1.81-2.27,2.65-3.45Z"/>
  <path d="M134.34,94.02s.01-.02.02-.04c0,0,0,0,0,0,0,.02-.02.03-.02.04Z"/>
  <path d="M38.83,143.39c-.03-1.4.1-2.8.39-4.15.26-1.15.61-2.26,1.03-3.27.12-.29.13-.71-.28-.73-.35-.01-.74.3-.92.62-.07.31-.16.62-.22.93-.39,2.19-.42,4.42,0,6.6Z"/>
  <path d="M61.94,106.57c.71-1.81,1.58-3.54,2.64-5.09,1.22-1.79,2.63-3.28,4.29-4.73,1.75-1.53,3.76-2.93,5.79-4.1,4.18-2.41,8.75-4.07,13.41-5.28,4.69-1.22,9.48-1.97,14.28-2.57,2.45-.3,4.9-.47,7.35-.69,2.24-.2,4.51-.48,6.67-1.15.14-.1.28-.2.42-.3.25-.17.52-.2.81-.26.1-.02.17.01.21.07.08-.03.16-.06.23-.1.3-.24.61-.48.92-.72.14-.11.25-.1.31-.05.02,0,.03-.02.04-.02.11-.15.19-.33.18-.51-.01-.4-.42-.41-.71-.28-4.55,2.12-9.78,1.82-14.68,2.45-4.87.63-9.73,1.33-14.51,2.5-1.27.31-2.53.65-3.78,1.03-.24.33-.47.67-.71,1-.1.13-.33.34-.51.25-.18-.08-.11-.33-.01-.45.14-.18.28-.37.42-.55-3.19,1.01-6.31,2.27-9.25,3.87-4.25,2.3-8.25,5.31-11.22,9.15-2.51,3.25-4.02,7.18-5.06,11.12-.11.41-.2.82-.28,1.24.34-.26.67-.52,1.01-.78.6-1.68,1.07-3.41,1.73-5.07Z"/>
  <path d="M59.79,112.76c.05-.12.09-.24.13-.36-.04-.1.02-.22.12-.32.06-.15.11-.3.17-.45-.34.26-.67.52-1.01.78-.03.14-.06.29-.08.43-.08.5.57.18.68-.08Z"/>
  <path d="M84.61,88.02c.18.08.42-.12.51-.25.24-.33.47-.67.71-1-.27.08-.54.17-.81.26-.14.18-.28.37-.42.55-.1.12-.17.37.01.45Z"/>
  <path d="M80.27,133.68c.08-.46.15-.92.27-1.38.25-.98.68-1.89,1.12-2.79.03-.06.06-.11.09-.17.12-.49.23-.97.35-1.46.53-2.15,1.13-4.29,1.94-6.36,1.49-3.83,3.62-7.35,6.08-10.63,2.45-3.26,5.19-6.25,8.06-9.18,3.06-3.14,6.22-6.18,9.45-9.15,2.04-1.87,4.09-3.72,6.15-5.57.26-.28.52-.56.79-.84.76-.79,1.53-1.56,2.32-2.33-.14.1-.28.19-.41.29-.7.49-1.43.93-2.16,1.36-.24.2-.47.4-.71.6-1.83,1.53-3.63,3.12-5.4,4.72-3.33,3.01-6.58,6.1-9.74,9.29-2.96,2.99-5.84,6.07-8.44,9.38-2.55,3.25-4.84,6.75-6.49,10.55-1.82,4.17-2.84,8.62-3.83,13.04-.11.51-.06,1.02-.05,1.54,0,.01,0,.02,0,.03.2-.27.41-.55.61-.82,0-.03-.01-.06,0-.12Z"/>
  <path d="M117.81,82.73c-.11.19-.23.38-.36.56.44-.42.88-.84,1.33-1.25-.24.12-.49.23-.73.34-.07.05-.14.11-.21.16.02.06.01.13-.03.2Z"/>
  <path d="M80.27,133.79c-.21.27-.41.55-.61.82.04.29.46-.03.52-.16.11-.21.22-.43.33-.65-.1.05-.21.07-.24-.02Z"/>
  <path d="M119.11,81.71s.09-.07.15-.11c-.06-.06-.17-.06-.31.05-.31.23-.61.48-.92.72.25-.1.49-.21.73-.34.11-.11.23-.22.34-.32Z"/>
  <path d="M83.6,128.16c.91-1.7,1.9-3.28,3.06-4.86,1.27-1.73,2.55-3.19,4.03-4.72,1.55-1.61,3.15-3.17,4.7-4.77,1.57-1.62,3.14-3.27,4.51-5.06,1.31-1.71,2.46-3.55,3.5-5.43,1.03-1.87,2-3.78,3.09-5.61,1.07-1.79,2.28-3.51,3.57-5.15,2.58-3.29,5.52-6.26,8.34-9.33.35-.38.69-.78,1.03-1.17.09-.1.24-.31.11-.43-.06-.07-.15-.06-.24-.02-.01.01-.02.03-.03.05.07.09.05.27-.08.41-.41.41-.82.82-1.26,1.21-1.39,1.25-2.79,2.5-4.18,3.75-1.22,1.28-2.42,2.58-3.56,3.93-1.37,1.62-2.66,3.31-3.82,5.08-1.2,1.83-2.22,3.77-3.28,5.69-1.03,1.87-2.08,3.66-3.31,5.42-1.26,1.8-2.65,3.36-4.17,4.95-3.08,3.24-6.44,6.24-9.19,9.77-1.25,1.61-2.39,3.31-3.41,5.08-.46.79-.88,1.6-1.28,2.42-.14.58-.28,1.17-.42,1.75-.13.55-.25,1.1-.4,1.65-.03.11-.07.21-.1.31.29-.38.58-.76.87-1.13.2-.37.41-.73.59-1.11.42-.89.84-1.78,1.3-2.65Z"/>
  <path d="M80.5,133.81c.1-.05.19-.13.23-.19.32-.57.65-1.13.97-1.7-.29.38-.58.75-.87,1.13-.09.26-.2.51-.33.76Z"/>
  <path d="M119.31,81.58s-.03.02-.04.02c0,0,.01.01.02.02.01-.01.02-.03.03-.05Z"/>
  <path d="M118.81,82.02s-.02,0-.03.01c-.45.41-.89.83-1.33,1.25-.07.09-.13.19-.22.27-.11.1-.23.19-.35.28-.79.76-1.56,1.54-2.32,2.33-.27.28-.52.56-.79.84,1.39-1.25,2.79-2.5,4.18-3.75.43-.39.84-.8,1.26-1.21.14-.14.15-.32.08-.41-.13.17-.31.31-.48.39Z"/>
  <path d="M80.53,132.3c-.12.45-.18.92-.27,1.38,0,.05,0,.09,0,.12.04-.06.09-.12.13-.17.14-.19.29-.37.43-.56.04-.1.08-.21.1-.31.14-.55.27-1.1.4-1.65.14-.58.28-1.17.42-1.75-.03.06-.06.11-.09.17-.44.9-.88,1.81-1.12,2.79Z"/>
  <path d="M80.4,133.62c-.04.06-.09.12-.13.17.03.09.13.07.24.02.12-.25.24-.5.33-.76-.14.19-.29.37-.43.56Z"/>
  <path d="M118.77,82.03s.02,0,.03-.01c.17-.09.35-.22.48-.39,0,0-.01-.02-.02-.02-.06.03-.12.07-.15.11-.12.11-.23.22-.34.32Z"/>
  <path d="M63.75,107.24s-.02.04,0,0h0Z"/>
  <path d="M87.69,93.2c4.88-1.18,9.84-1.97,14.71-3.15,2.46-.6,4.9-1.28,7.24-2.25,1.6-.66,3.16-1.44,4.65-2.32,1.17-.99,2.34-1.99,3.54-2.95,0-.02-.01-.05-.03-.07-.25.1-.49.2-.74.28-.23.08-.47.14-.7.21-.13.09-.26.18-.39.27-.5.34-1,.67-1.52.98-1.06.64-2.17,1.21-3.29,1.73-1.1.51-2.22.98-3.37,1.38-1.16.41-2.36.73-3.56,1.04-4.81,1.25-9.72,2.06-14.56,3.16-2.43.55-4.83,1.21-7.19,2-1.21.4-2.41.85-3.58,1.34-1.17.49-2.3,1.05-3.44,1.62-4.28,2.14-8.29,4.91-11.29,8.68-.85,1.07-1.5,2.24-2.18,3.42-.37.64-.72,1.29-1.07,1.93-.07.13-.15.26-.22.4-.1.17-.12.21-.22.4-.04.07-.08.14-.12.21.5-.38,1.01-.77,1.5-1.16,0,0,0,0,0,0,.2-.31.38-.6.61-.97.22-.35.43-.71.64-1.06.17-.29.34-.58.52-.87.03-.05.06-.11.1-.16.02-.03.02-.04.03-.05-.02.04.01-.03,0,0,0,0,0,0,.02-.03.06-.1.12-.2.18-.29,1.04-1.71,2.54-3.2,4.04-4.5,1.75-1.51,3.72-2.83,5.75-3.95.88-.49,1.79-.95,2.69-1.39.53-.56,1.08-1.11,1.6-1.68.14-.15.51-.37.7-.17.2.21-.03.54-.18.7-.09.1-.19.2-.29.3.74-.32,1.49-.64,2.25-.92,2.34-.88,4.74-1.53,7.17-2.11Z"/>
  <path d="M60.07,112.07s0,0,0,0c0,0,0,0,0-.01,0,0,0,0,0,0,0,.01-.01.02-.01.02,0,0,0,0,0,0Z"/>
  <path d="M60.07,112.08s0,0,0,0c0,0,0,.01-.01.02.04-.03.08-.08.12-.12-.03.02-.05.04-.08.06,0,0,0,.01-.01.02,0,0,0,.01,0,0Z"/>
  <path d="M60.07,112.07s0-.01.01-.02c0,0,0,0,0,0,0,0,0,0,0,.01,0,0,0,0,0,0Z"/>
  <path d="M60.3,111.63c.08-.13-.12.25-.09.18.02-.05-.05.09-.06.11-.02.03-.03.06-.05.09,0,0-.01.02-.02.04,0,0,0,0,0,0,.01-.02,0-.01,0,0,.02-.02.05-.04.08-.06.06-.07.14-.13.29-.07-.08-.03-.19,0-.29.07-.04.04-.07.08-.12.12,0,0,0-.01.01-.02,0,0,0,0,0,0,0,0,0-.01.01-.02-.01.01-.02.02-.04.03-.04.11-.08.21-.12.32,0,.03.02.05.05.07.16.14.4-.05.52-.17.05-.05.09-.1.13-.15.05-.06.1-.11.14-.17,0,0,0-.01.01-.02-.23.22.14-.19.04-.05-.01.02-.02.03-.04.05.01-.01.01-.01.03-.03.2-.2.36-.5.52-.73.18-.28.36-.56.54-.84-.5.39-1,.77-1.5,1.16-.02.04-.04.08-.06.11Z"/>
  <path d="M60.78,111.97s.03-.03.04-.05c.1-.14-.27.27-.04.05Z"/>
  <path d="M78.74,95.23c-.19-.2-.56.03-.7.17-.53.57-1.07,1.12-1.6,1.68.61-.29,1.22-.58,1.84-.85.09-.1.19-.2.29-.3.15-.16.37-.49.18-.7Z"/>
  <path d="M60.07,112.07s0,0,0,0c0,0,0,0,0,0Z"/>
  <path d="M117.81,82.46c-.04-.05-.12-.09-.21-.07-.29.06-.56.09-.81.26-.14.09-.28.2-.42.3.23-.07.47-.13.7-.21.25-.09.5-.18.74-.28Z"/>
  <path d="M59.93,112.4c.04-.11.08-.21.12-.32-.1.1-.15.22-.12.32Z"/>
  <path d="M117.81,82.73c.04-.07.04-.14.03-.2-1.2.96-2.36,1.96-3.54,2.95.74-.43,1.46-.88,2.16-1.36.14-.09.27-.19.41-.29.19-.18.39-.36.58-.55.13-.18.25-.36.36-.56Z"/>
  <path d="M117.45,83.28c-.19.18-.39.36-.58.55.12-.09.24-.18.35-.28.09-.08.15-.17.22-.27Z"/>
  <path d="M69.15,98.21c1.69-1.24,3.38-2.47,5.21-3.5,1.83-1.03,3.75-1.91,5.71-2.66,1.98-.76,4.01-1.38,6.06-1.9,2.09-.53,4.2-.88,6.31-1.32,2.51-.52,4.99-1.19,7.5-1.69.07-.01.21-.21.08-.21-2.25-.02-4.44.71-6.62,1.2-2.15.48-4.34.81-6.49,1.34-4.16,1.01-8.25,2.45-12.02,4.5-2.08,1.13-4.15,2.42-5.89,4.04-.14.13-.06.35.13.21Z"/>
  <path d="M97.85,104.22c-.78.89-1.54,1.81-2.28,2.74-1.49,1.88-2.9,3.82-4.29,5.78-.77,1.08-1.53,2.16-2.17,3.32-.09.16.13.11.19.03,1.52-1.81,2.79-3.82,4.18-5.73,1.39-1.91,2.84-3.78,4.37-5.59.86-1.01,1.83-1.96,2.61-3.03.06-.08,0-.15-.09-.09-.95.73-1.74,1.68-2.52,2.57Z"/>
  <path d="M211.94,58.32c-.92-2.49-2.25-4.86-4-6.86-1.6-1.84-3.59-3.36-5.83-4.34-2.23-.97-4.72-1.37-7.15-1.15-2.91.26-5.67,1.31-8.17,2.8-3.34,1.99-6.23,4.72-8.67,7.73-3.07,3.78-5.36,8.13-7.28,12.59-.44,1.02-.85,2.04-1.26,3.07.56-.34,1.12-.69,1.68-1.02,1.61-3.97,3.45-7.88,5.8-11.39.65-.97,1.34-1.91,2.08-2.82.64-.79,1.34-1.57,2.12-2.37.65-.67,1.33-1.31,2.03-1.92.04-.03.07-.06.11-.1,0,0,.03-.03.06-.05-.02.02-.04.03.01-.01.06-.05.03-.02-.01.01.02-.02.05-.04.06-.05.05-.04.09-.08.14-.11.16-.14.33-.27.49-.4.34-.27.69-.54,1.04-.79.32-.23.65-.46.98-.68.16-.11.32-.21.49-.31.07-.05.14-.09.22-.13.04-.03.09-.05.14-.08,0,0,0,0,0,0-.13.07.07-.05,0,0,0,0,0,0,0,0,.65-.38,1.31-.73,1.99-1.04.32-.14.63-.28.96-.41.09-.03.18-.07.26-.1.03-.01.09-.03.12-.04-.01,0-.03,0-.04.01.08-.03.07-.03.04-.01.16-.06.32-.11.49-.17.61-.2,1.24-.37,1.87-.5.32-.07.65-.12.97-.17.03,0,.11-.02.13-.02-.02,0-.04,0-.05,0,.06,0,.06,0,.05,0,.06,0,.12-.01.18-.02.16-.02.32-.03.48-.04.61-.05,1.22-.06,1.83-.03.29.01.58.04.87.07.14.02.29.03.43.05.06,0,.13.02.19.03.04,0,.08.01.12.02.02,0,.02,0,.03,0,0,0,.04,0,0,0,0,0,0,0,0,0,.57.1,1.13.24,1.68.41,1.11.35,2.17.83,3.16,1.43.06.04.12.07.18.11.02.01.04.03.06.04-.02-.02-.06-.04.02.01,0,0-.01,0-.02-.01,0,0,.01,0,.02.01.13.09.27.17.4.26.24.16.47.33.7.51.48.37.93.76,1.37,1.17.88.85,1.68,1.78,2.38,2.78.18.26.36.53.53.8,0,0,0,0,0,0-.04-.06.02.04,0,0,0,0,0,0,.01.02.02.03.04.06.06.09.04.06.07.12.11.18.09.15.18.3.27.45.32.56.62,1.14.9,1.73.57,1.24,1.04,2.52,1.4,3.84.19.68.35,1.37.48,2.06.12.64.23,1.31.31,2.05.17,1.51.22,3.03.17,4.54-.06,1.66-.22,3.06-.53,4.66-.31,1.66-.75,3.29-1.3,4.88-.07.19-.14.39-.21.58,0-.01,0,0,0,.03,0,0,0-.02,0-.03-.01.03-.07.18-.08.21-.04.11-.09.23-.13.34-.16.42-.33.84-.51,1.25-.36.84-.75,1.66-1.17,2.47-.22.42-.44.84-.68,1.25-.11.2-.23.41-.35.61-.02.03-.1.17-.11.19l.02-.04s-.03.04-.02.04c-.06.1-.12.2-.18.3-.52.85-1.07,1.68-1.64,2.48-.59.83-1.21,1.64-1.85,2.43-.66.81-1.27,1.54-1.95,2.32-.37.43-.76.84-1.12,1.28-.32.4-.64.86-1.01,1.21-.03.03-.06.06-.08.11.05-.04.11-.09.16-.14.07-.06.22-.11.28-.01.06.09-.02.24-.09.31-.05.04-.09.09-.14.13.06-.03.13-.07.16-.11.16-.15.38-.29.56-.43.23-.18.46-.36.69-.55.46-.38.89-.8,1.31-1.22.8-.79,1.55-1.62,2.27-2.49,1.23-1.49,2.36-3.07,3.38-4.71.42-.86.83-1.73,1.22-2.62.85-1.98,1.51-3.86,2.04-6.01.23-.93.42-1.88.56-2.83,0-.06.02-.12.03-.19,0,0,.01-.08.01-.11.01-.09.02-.18.03-.27.02-.22.05-.44.06-.66.03-.42.05-.85.06-1.27,0-.43.37-.83.73-1.01.28-.13.72-.12.74.27.27-1.9.39-3.82.32-5.74-.11-2.95-.65-5.9-1.68-8.67Z"/>
  <path d="M207.1,86.45l-.02.04s0,0,.02-.04Z"/>
  <path d="M170.04,73.1c.14-.05.27-.14.39-.24-.13.08-.26.16-.39.24Z"/>
  <path d="M187.01,49.92c.07-.05-.13.07,0,0h0Z"/>
  <path d="M197.94,47.55s0,0,0,0h0Z"/>
  <path d="M203.03,49.55s.01,0,.02.01c-.08-.05-.04-.03-.02-.01Z"/>
  <path d="M208.43,55.09s-.04-.06,0,0h0Z"/>
  <path d="M210.1,80.17s0,.02,0,.03c.01-.03.01-.04,0-.03Z"/>
  <path d="M193.76,47.47s.04,0,.05,0c.01,0,0,0-.05,0Z"/>
  <path d="M190.31,48.34s.03,0,.04-.01c.04-.01.04-.02-.04.01Z"/>
  <path d="M183.48,52.48s-.04.03-.01.01c.04-.03.07-.06.01-.01Z"/>
  <path d="M133.12,128.09s0,.02,0,0c0-.02.01-.03,0,0Z"/>
  <path d="M138.09,120.04s.03-.03.04-.05c0,0,0,0-.04.05Z"/>
  <path d="M134.83,124.53s.02-.03.03-.05c0,0,0,0-.03.05Z"/>
  <path d="M132.25,131.64s0,.02,0,.02c0,0,0,0,0-.01h0s0,0,0,0Z"/>
  <path d="M159.37,143.99s.02-.02,0,0c-.02.02-.04.04,0,0Z"/>
  <path d="M166.35,80.95c.21-.14.41-.28.62-.42-.23.07-.46.23-.62.42Z"/>
  <path d="M131.52,135.66c-.17,1.17-.16,2.39-.03,3.57.04.13.08.27.13.4.87,2.54,2.22,5.01,4.13,6.91,1.76,1.75,4,3,6.41,3.6,2.51.62,5.14.58,7.66.03,2.81-.61,5.4-1.84,7.75-3.48,2.49-1.74,4.71-3.87,6.7-6.16,2.04-2.35,3.87-4.86,5.6-7.45,1.64-2.46,3.21-4.97,4.79-7.47,1.09-1.73,2.31-3.38,3.54-5.02,1.59-2.1,3.22-4.16,4.89-6.2.44-.54.89-1.08,1.34-1.61.49-.58.91-1.08,1.35-1.6.86-1.01,1.81-2.1,2.72-3.13,1.72-1.94,3.47-3.86,5.29-5.71.75-.76,1.5-1.5,2.28-2.23.08-.08.18-.21.22-.35-.1.09-.2.18-.3.27-.11.1-.36.27-.5.12-.13-.14,0-.4.12-.5.12-.11.25-.21.37-.31-.17.03-.35.15-.45.24-1.7,1.57-3.31,3.23-4.9,4.91-1.88,1.99-3.72,4.03-5.52,6.1-1.84,2.11-3.63,4.26-5.39,6.43-.51.63-1,1.27-1.5,1.91-.06.38-.13.75-.21,1.13-.03.12-.43.5-.49.24-.02-.12-.06-.24-.09-.36-.7.92-1.39,1.85-2.07,2.79-.28.39-.54.8-.82,1.21,0,.06,0,.12-.01.18-.07.47-.14.93-.21,1.4-.02.16-.43.53-.54.26-.06-.15-.12-.3-.18-.45-.68,1.04-1.34,2.09-2.01,3.13-1.64,2.56-3.29,5.1-5.09,7.55-.44.6-.89,1.2-1.35,1.79-.24.31-.48.61-.73.91-.21.26-.51.62-.67.8-.16.19-.48.56-.71.82-.25.28-.49.55-.75.82-.51.55-1.04,1.08-1.58,1.59-.26.25-.53.5-.8.74-.14.13-.28.25-.43.37-.03.03-.07.06-.1.09,0,0-.02.02-.04.03.02-.02.03-.02,0,0-.04.03-.02.02,0,0-.02.02-.05.04-.05.04-.04.04-.09.07-.13.11-.57.47-1.15.92-1.75,1.35-1.19.85-2.23,1.49-3.57,2.09-2.25,1-4.78,1.61-7.3,1.59-2.42-.01-4.79-.59-6.91-1.79-2.19-1.25-3.97-3.19-5.17-5.4-1.19-2.18-2.06-4.57-2.29-7.01-.1-1.11-.09-2.22.04-3.32,0,0,0,0,0,.01,0,0,0-.01,0-.02,0-.04,0-.02,0,0,0,0,0,0,0,0h0s0-.05.01-.08c0-.06.02-.13.03-.19.02-.14.04-.27.07-.41.05-.27.1-.55.16-.82.12-.53.27-1.06.44-1.57.04-.12.08-.24.12-.37,0-.02.03-.08.04-.12,0,.01,0,.01,0,0,0-.03,0-.02,0,0,.01-.03.05-.13.06-.15.1-.25.2-.5.3-.75.22-.51.46-1.01.71-1.51.13-.25.27-.51.41-.76.07-.12.13-.23.2-.35.02-.04.06-.1.06-.1-.01.02-.02.03-.03.05.03-.04.03-.05.03-.05.03-.05.06-.1.09-.15.3-.49.62-.97.94-1.45.67-.96,1.38-1.88,2.14-2.78.03-.04.09-.1.1-.11-.01.02-.03.03-.04.05.04-.05.05-.06.04-.05.03-.04.06-.07.1-.11.1-.12.2-.23.3-.35.2-.22.39-.44.59-.66.41-.45.83-.9,1.25-1.34,1.7-1.77,3.5-3.44,5.33-5.07,1.78-1.59,3.58-3.16,5.35-4.76,1.72-1.56,3.42-3.15,4.96-4.89,2.2-2.49,4.04-5.24,5.63-8.15,1.57-2.87,2.89-5.87,4.09-8.91.57-1.43,1.11-2.87,1.65-4.31-.57.38-1.14.76-1.71,1.16-1,2.66-2.04,5.3-3.22,7.88-.69,1.5-1.42,2.98-2.22,4.42-.77,1.38-1.57,2.69-2.5,4.02-1.61,2.3-3.35,4.21-5.4,6.17-1.32,1.26-2.68,2.47-4.04,3.68-.03.18-.15.34-.3.43-.05.03-.16.07-.26.06-.18.16-.37.33-.55.49-1.85,1.63-3.69,3.27-5.47,4.98-1.81,1.73-3.54,3.54-5.12,5.49-1.5,1.84-2.86,3.82-3.91,5.96-1,2.05-1.69,4.25-1.91,6.53-.13,1.3-.08,2.61.12,3.9.03-.26.06-.53.1-.79.04-.26.6-.53.54-.14Z"/>
  <path d="M183.91,117.39c.11-.12-.08.09,0,0h0Z"/>
  <path d="M200.61,98.32s.08-.09,0,0h0Z"/>
  <path d="M195.03,103.92s-.02.02-.03.03c.05-.04.05-.04.03-.03Z"/>
  <path d="M194.81,105.51s.02-.02.03-.03c0,0,.01-.01.02-.02.15-.13-.2.16-.05.04Z"/>
  <path d="M208.01,87.12c-.06.1-.13.19-.19.29-1.76,3.55-3.87,6.82-6.42,9.96-.21.25-.41.51-.62.76-.05.06-.1.11-.14.17-.02.02-.01.02-.02.02.08-.09-.01.02,0,0-.01.01-.01.01-.03.04-.12.14-.23.27-.35.41-.43.49-.87.98-1.32,1.46-.9.96-1.84,1.89-2.82,2.77-.24.22-.49.44-.74.66-.1.09-.21.18-.31.27.02-.01.02-.01-.03.03.01,0,.02-.02.03-.03-.03.02-.12.1-.12.1-.07.06-.14.12-.21.17-.27.22-.54.44-.79.67-.42.38-.83.77-1.23,1.17-2.48,2.47-4.8,5.12-7.1,7.76-2.52,2.9-5.01,5.83-7.41,8.82-.8,1-1.61,2-2.36,3.04-1.28,1.75-2.42,3.61-3.58,5.44-1.39,2.19-2.78,4.39-4.24,6.53-.74,1.09-1.5,2.16-2.29,3.22-.39.53-.8,1.05-1.2,1.56-.2.26-.41.51-.62.76-.09.11-.19.23-.29.34-.05.06-.09.11-.14.17,0,0,0,0-.03.04.01-.01.02-.03.03-.04-.01.02-.1.12-.11.13-.85.98-1.73,1.93-2.66,2.84-.46.45-.93.88-1.41,1.3-.07.06-.13.11-.2.17-.02.02-.03.03-.04.04.1-.08-.1.09,0,0-.01,0-.02.02-.04.03-.11.09-.22.19-.33.28-.25.2-.5.4-.75.59-.5.39-1.02.76-1.55,1.11-.26.18-.53.35-.8.51-.24.15-.39.24-.7.41-.52.29-1.06.54-1.6.77-.57.25-.96.39-1.51.57-4.05,1.33-8.49,1.25-12.35-.78-1.93-1.01-3.57-2.53-4.8-4.33-1.58-2.29-2.7-5.04-3.06-7.8-.01-.1-.02-.2-.03-.29-.27-.86-.48-1.75-.61-2.64-.12,1.09-.17,2.18-.07,3.28.13,1.47.46,2.92.95,4.32.85,2.42,2.12,4.75,3.92,6.59,1.49,1.52,3.38,2.74,5.42,3.36,2.08.64,4.3.8,6.46.55,2.39-.28,4.71-.99,6.86-2.06,2.37-1.18,4.52-2.88,6.44-4.67,3.92-3.65,7.04-8.09,9.94-12.57,2.27-3.5,4.37-7.15,6.92-10.46.95-1.23,1.93-2.44,2.92-3.64.6-.73,1.21-1.46,1.82-2.19.31-.37.63-.75.94-1.12.16-.19.32-.38.48-.57,0,0,0,0,0,0-.08.09.11-.12,0,0,0,0,0,0,.01-.02.03-.03.06-.07.09-.1.1-.11.19-.23.29-.34,2.49-2.92,5.02-5.82,7.66-8.61.89-.94,1.79-1.88,2.75-2.74.04-.04.08-.07.12-.11-.01,0-.02.02-.03.03-.15.12.2-.17.05-.04,0,0-.01.01-.02.02.2-.17.41-.33.61-.5.54-.46,1.08-.93,1.6-1.41.99-.91,1.95-1.86,2.87-2.85,3.57-3.84,6.61-8.19,8.98-12.86,1.98-3.89,3.61-8.11,4.19-12.46.12-.88.2-1.76.21-2.65,0-.01,0-.02,0-.03-.19,1.38-.45,2.75-.81,4.09-.97,3.64-2.52,7.1-4.48,10.31Z"/>
  <path d="M159.03,148.15c-.1.09.1-.08,0,0h0Z"/>
  <path d="M163.44,143.68s-.02.03-.03.04c.03-.04.04-.04.03-.04Z"/>
  <path d="M211.67,75.66s0,.03,0,.04c0-.06,0-.06,0-.04Z"/>
  <path d="M212.55,72.46c-.37.17-.73.58-.73,1.01,0,.42-.03.85-.06,1.27-.02.22-.04.44-.06.66,0,.09-.02.18-.03.27,0-.02,0-.02,0,.04,0-.01,0-.03,0-.04,0,.03-.01.1-.01.11,0,.06-.02.12-.03.19-.14.95-.33,1.9-.56,2.83-.53,2.16-1.19,4.03-2.04,6.01-.38.89-.79,1.76-1.22,2.62.06-.1.13-.19.19-.29,1.96-3.21,3.5-6.67,4.48-10.31.36-1.34.62-2.71.81-4.09-.02-.39-.47-.4-.74-.27Z"/>
  <path d="M131.52,135.66c.06-.4-.5-.12-.54.14-.04.27-.07.53-.1.79.13.9.34,1.78.61,2.64-.13-1.18-.15-2.4.03-3.57Z"/>
  <path d="M196.25,99.43c.09.1.09.23.05.35,1.04-.97,2.09-1.93,3.15-2.87-.08.03-.16.05-.22-.01-.07-.07-.04-.18.01-.27-1.1.9-2.17,1.81-3.24,2.74.09-.02.18,0,.25.06Z"/>
  <path d="M199.22,96.9c.06.06.14.05.22.01.05-.04.09-.09.14-.13.07-.06.16-.21.09-.31-.06-.09-.21-.05-.28.01-.05.04-.11.09-.16.14-.05.09-.09.2-.01.27Z"/>
  <path d="M196.25,99.43c-.07-.07-.16-.08-.25-.06-.12.11-.25.21-.37.31-.12.1-.26.36-.12.5.14.15.39-.03.5-.12.1-.09.2-.18.3-.27.04-.13.05-.26-.05-.35Z"/>
  <path d="M170.43,72.86c3.13-1.86,6.38-3.53,9.67-5.17,3.94-1.97,8.28-3.36,11.83-6.03.21-.24.46-.41.71-.6.03-.02.08-.04.13-.06.15-.13.3-.25.45-.38.15-.23.29-.47.45-.7.07-.1.2-.17.32-.19.04-.04.09-.07.14-.09.1-.2.14-.43-.02-.59-.27-.27-.75.04-.96.24-.2.2-.41.39-.63.58-.04.04-.09.08-.13.11,0,0-.1.08-.12.1.01,0,.02-.02.03-.03-.04.04-.05.04-.03.03-.1.08-.2.16-.3.24-.45.36-.93.7-1.41,1.01-.93.61-1.93,1.15-3,1.67-2.13,1.05-4.34,1.93-6.49,2.95-3.33,1.59-6.61,3.31-9.8,5.18-.18.43-.35.86-.52,1.3-.06.15-.18.3-.33.42Z"/>
  <path d="M148.26,108.05s-.03.02-.04.04c0,.01,0,.02,0,.03.01-.02.03-.05.05-.07Z"/>
  <path d="M148.21,108.14s0-.02,0-.03c0,0,0,.01-.01.02,0,0,0,.02,0,.03,0,0,0-.02,0-.02Z"/>
  <path d="M192.31,60.05s-.02.02-.03.03c-.01,0-.01,0,.03-.03Z"/>
  <path d="M148.3,108.71c0-.1,0-.19.01-.29-.02,0-.03,0-.05,0-.13-.05-.13-.17-.06-.28,0-.02,0-.04.02-.06,0,0,0-.01,0-.01,0-.03,0-.05.01-.08,0,0,0,0,0,0,0-.02,0-.04,0-.06.02-.22.06-.46.1-.7,0-.79-.04-1.58-.05-2.37-.02-1.12-.01-2.24.05-3.35.12-2.14.49-4.26,1.15-6.3.75-2.28,1.87-4.43,3.18-6.43,1.29-1.98,2.71-3.78,4.29-5.46,1.6-1.71,3.33-3.28,5.09-4.69,1.84-1.49,3.77-2.86,5.76-4.15.73-.47,1.48-.92,2.22-1.37-.09.03-.18.05-.27.05-.42-.01-.4-.44-.29-.73.03-.09.07-.17.11-.26-.37.23-.75.44-1.12.68-4.07,2.56-7.94,5.47-11.31,8.91-3.44,3.52-6.44,7.6-8.25,12.2-.83,2.09-1.36,4.27-1.57,6.51-.22,2.25-.2,4.57,0,6.83.05.63.12,1.24.25,1.86.02.08.08.1.15.1.19-.16.37-.33.56-.5,0-.01.01-.02.01-.04Z"/>
  <path d="M169.77,73.15c.09,0,.18-.02.27-.05.13-.08.26-.16.39-.24.14-.13.27-.28.33-.42.17-.43.35-.87.52-1.3-.57.33-1.12.68-1.68,1.02-.04.09-.07.17-.11.26-.12.29-.13.72.29.73Z"/>
  <path d="M147.99,109.18c.16-.09.27-.25.3-.43-.19.16-.37.33-.56.5.09,0,.2-.03.26-.06Z"/>
  <path d="M193.07,61.14c0,.11-.02.21-.03.31.23-.44.45-.88.69-1.32-.16.17-.33.33-.5.49-.08.13-.16.25-.24.38.06.02.1.06.09.15Z"/>
  <path d="M174.5,122.64c-.07-.98-.14-1.95-.19-2.93-.12-2.09-.2-4.19-.23-6.29-.03-1.94-.01-3.88.12-5.81.16-2.29.52-4.55,1.05-6.78,1.09-4.59,2.81-9.01,4.74-13.31,1.96-4.38,4.1-8.69,6.34-12.94,1.28-2.42,2.59-4.83,3.9-7.24.25-.56.49-1.12.74-1.67.46-1,.93-1.98,1.42-2.97-.02.02-.03.05-.05.07-.53.73-1.1,1.43-1.69,2.12-.28.48-.56.96-.84,1.44-1.26,2.12-2.47,4.3-3.64,6.47-2.29,4.23-4.46,8.51-6.48,12.87-1.99,4.29-3.81,8.67-5.1,13.22-.63,2.23-1.13,4.5-1.42,6.8-.26,2.01-.35,4.03-.37,6.05-.02,2.08.03,4.16.12,6.24.09,1.99.18,3.99.37,5.97.04.41.07.84.31,1.19,0-.04-.03-.07-.03-.11.02.06.04.12.07.17-.01-.02-.02-.04-.03-.06.01.06.03.12.05.17.31-.47.63-.93.94-1.39.03-.43-.03-.88-.06-1.3Z"/>
  <path d="M173.54,125.05s.02.07.03.11c.01.02.02.04.03.06-.02-.06-.04-.12-.07-.17Z"/>
  <path d="M173.79,125.79c.11.27.52-.1.54-.26.07-.47.14-.93.21-1.4,0-.06,0-.12.01-.18-.31.46-.64.92-.94,1.39.05.15.12.3.18.45Z"/>
  <path d="M193.84,59.91c.03-.06.09-.13.15-.19-.12.02-.25.09-.32.19-.15.23-.3.47-.45.7.17-.16.34-.32.5-.49.04-.07.07-.15.11-.22Z"/>
  <path d="M178.35,116.91c-.08-.9-.23-1.79-.36-2.68-.25-1.68-.48-3.37-.31-5.07.2-2,1.07-3.79,1.9-5.59.92-1.99,1.89-3.96,2.81-5.95.92-2,1.82-4.02,2.5-6.12.66-2.01,1.14-4.09,1.48-6.17.35-2.12.63-4.25,1.05-6.36.42-2.05.99-4.08,1.66-6.06.66-1.96,1.42-3.88,2.23-5.78.83-1.93,1.7-3.85,2.52-5.78.2-.47.37-.95.55-1.42.05-.14.06-.3-.13-.32-.05,0-.1,0-.14.03-.02.03-.03.06-.05.09.12.01.19.09.09.28-.26.53-.51,1.06-.79,1.58-1.05,1.92-2.11,3.85-3.16,5.77-.61,1.38-1.21,2.77-1.75,4.18-.76,2.02-1.45,4.07-1.96,6.17-.52,2.1-.8,4.23-1.18,6.35-.37,2.1-.77,4.21-1.34,6.26-.58,2.09-1.4,4.08-2.28,6.05-.9,2-1.86,3.97-2.8,5.96-.47.99-.93,1.99-1.37,2.99-.43.99-.83,2-1.05,3.06-.37,1.74-.32,3.51-.09,5.27.11.86.26,1.72.38,2.59.13.93.2,1.87.43,2.78.08.31.16.62.24.94.26-.34.53-.67.79-1,.11-.67.18-1.35.12-2.04Z"/>
  <path d="M177.53,120.32c.05.26.46-.11.49-.24.08-.38.15-.75.21-1.13-.26.33-.53.67-.79,1,.03.12.06.24.09.36Z"/>
  <path d="M194.07,59.72s.03-.06.05-.09c-.05.02-.09.06-.14.09.03,0,.06,0,.09,0Z"/>
  <path d="M193.72,60.13c-.24.44-.46.88-.69,1.32-.03.21-.08.41-.2.61-.14.23-.3.44-.46.66-.49.98-.96,1.97-1.42,2.97-.25.55-.5,1.11-.74,1.67,1.05-1.92,2.1-3.85,3.16-5.77.28-.52.54-1.05.79-1.58.09-.19.02-.27-.09-.28-.06.11-.14.21-.21.27-.05.05-.1.09-.14.14Z"/>
  <path d="M193.72,60.13s.1-.09.14-.14c.07-.07.14-.17.21-.27-.03,0-.06,0-.09,0-.06.06-.12.13-.15.19-.04.07-.08.15-.11.22Z"/>
  <path d="M148.97,107.65s0-.01,0-.02c-.01.03-.01.03,0,.02Z"/>
  <path d="M180.94,73.1c2.09-1.36,4.14-2.78,6-4.44,1.31-1.16,2.54-2.42,3.69-3.75.77-1.31,1.53-2.62,2.34-3.91-.06-.02-.13-.02-.21,0-.08.07-.16.14-.25.21-.19.16-.4.29-.6.44-.03.03-.06.05-.08.08-.19.25-.36.51-.55.77-.39.53-.79,1.04-1.21,1.55-.78.93-1.69,1.9-2.6,2.78-1.75,1.69-3.62,3.1-5.66,4.47-3.97,2.66-8.07,4.92-12.12,7.45-.92.58-1.84,1.17-2.74,1.78.07-.02.15-.04.22-.04.43.01.4.44.29.73-.03.07-.06.14-.08.21.43-.29.87-.57,1.3-.85,4.04-2.59,8.21-4.87,12.26-7.49Z"/>
  <path d="M166.35,80.95c-2.86,1.97-5.6,4.13-8.03,6.61-3.48,3.56-6.64,7.49-8.38,12.22-.29.78-.55,1.56-.71,2.38-.12.62-.23,1.24-.35,1.86-.14.74-.25,1.49-.37,2.21-.05.34-.11.67-.16,1,0,.25,0,.5,0,.74.1-.09.21-.16.29-.15.24.01-.09.09-.29.19,0,.14,0,.27-.02.41.22.04.42-.23.5-.39.03-.06.06-.13.08-.19.02-.04.04-.09.05-.13,0-.02.02-.04.02-.06,0,.01,0,.01,0-.02,0,0,0,.01,0,.02.02-.04.08-.19.08-.19.21-.62.34-1.28.49-1.93.31-1.3.53-2.61.82-3.91.22-.98.6-1.94,1-2.86.48-1.1,1.03-2.18,1.66-3.2,1.3-2.12,2.83-4.08,4.52-5.88,1.66-1.76,3.38-3.44,5.24-4.93.94-.75,1.91-1.47,2.9-2.16.17-.46.35-.92.52-1.39.03-.08.08-.17.15-.25Z"/>
  <path d="M148.62,107.82c-.08,0-.19.06-.29.15,0,.01,0,.03,0,.04.2-.1.53-.18.29-.19Z"/>
  <path d="M167.18,80.48c-.07,0-.14.02-.22.04-.21.14-.41.28-.62.42-.07.08-.12.17-.15.25-.17.46-.35.92-.52,1.39.56-.39,1.13-.78,1.71-1.16.03-.07.06-.14.08-.21.11-.29.14-.72-.29-.73Z"/>
  <path d="M192.77,61c-.05.02-.1.04-.13.06-.26.18-.51.36-.71.6.2-.15.4-.29.6-.44.08-.07.16-.14.25-.21Z"/>
  <path d="M148.26,108.05s.05-.03.07-.04c0-.01,0-.03,0-.04-.03.03-.05.05-.07.08Z"/>
  <path d="M148.24,107.99s0,0,0,0c0,.05,0-.06,0,0Z"/>
  <path d="M148.33,107.97c0-.25,0-.5,0-.74-.04.24-.08.49-.1.7,0,.02,0,.04,0,.06,0-.05,0,.05,0,0,0,0,0,0,0,0,0,0,0,0,0,0,0,.03,0,.05-.01.08,0,0,0,0,0,.01.01-.01.02-.02.04-.04.02-.03.05-.06.07-.08Z"/>
  <path d="M148.22,108.08s-.02.04-.02.06c0,0,0-.01.01-.02,0-.01,0-.02,0-.03Z"/>
  <path d="M148.26,108.05s-.03.05-.05.07c0,0,0,.02,0,.03,0,0,0,.02,0,.02,0,0,0-.02,0-.03-.06.11-.07.23.06.28.02,0,.03,0,.05,0,0-.14.01-.27.02-.41-.03.01-.05.03-.07.04Z"/>
  <path d="M193.07,61.14c0-.09-.04-.13-.09-.15-.81,1.29-1.57,2.6-2.34,3.91.59-.69,1.16-1.39,1.69-2.12.02-.02.03-.05.05-.07.21-.43.44-.84.66-1.27.01-.1.02-.2.03-.31Z"/>
  <path d="M193.03,61.45c-.22.42-.45.84-.66,1.27.16-.22.31-.43.46-.66.12-.2.17-.4.2-.61Z"/>
  <path d="M152.28,91.9c1.19-1.74,2.37-3.46,3.77-5.05,1.39-1.58,2.9-3.05,4.51-4.4,1.6-1.35,3.28-2.6,5.02-3.76,1.77-1.19,3.63-2.22,5.46-3.31,2.22-1.32,4.34-2.81,6.58-4.09.06-.04.17-.25.03-.2-2.13.77-3.96,2.16-5.86,3.35-1.89,1.18-3.86,2.22-5.72,3.44-3.59,2.34-6.96,5.04-9.84,8.22-1.58,1.75-3.12,3.65-4.21,5.75-.11.22.18.18.27.05Z"/>
  <path d="M177.2,102.14c.87-2.22,1.4-4.57,2.08-6.86.68-2.26,1.42-4.5,2.26-6.7.24-.64.5-1.27.76-1.9.24-.59.51-1.19.68-1.81.03-.11-.12-.05-.15,0-.65,1-1.09,2.15-1.54,3.26-.44,1.1-.85,2.21-1.24,3.33-.78,2.25-1.47,4.53-2.12,6.82-.37,1.29-.74,2.56-.94,3.89-.02.16.18.06.22-.03Z"/>
</svg>