<?xml version="1.0" encoding="UTF-8"?>
<svg id="Layer_1" data-name="Layer 1" xmlns="http://www.w3.org/2000/svg" viewBox="0 0 251 205">
  <defs>
    <style>
      .cls-1 {
        fill: #fff;
      }
    </style>
  </defs>
  <g id="sdfIIm">
    <g>
      <path d="M181.52,27.37c.41-.06.61.27.82.57,1.1,1.56,2.54,4.95,3.5,6.83,8.84,17.25,17.62,34.62,26.04,52.08,1.55,3.22,4.31,8.09,5.31,11.31.23.73.39,1.44-.05,2.13-1.54,2.45-10.66,3.52-13.47,4.13-1.78,3.53-4.85,6.3-7.93,8.7-5.64,4.38-12.5,7.97-18.76,11.42-20.24,11.16-41.11,21.93-61.76,32.34-7.57,3.82-15.76,8.29-23.58,11.45-3.82,1.55-9.4,3.64-12.99.73-2.27,2.43-4.77,5.59-7.43,7.58-1.38,1.03-1.96,1.56-3.3.08-1.7-1.89-3.54-5.3-4.88-7.55-7.02-11.84-13.57-24.82-19.59-37.23-2.99-6.16-6.42-12.93-8.75-19.33-.33-.92-1.37-3.43-1.1-4.24.06-.19.19-.35.36-.45l9.91-4.94c.81-4.78,4.29-8.76,7.74-11.95s7.52-5.88,11.46-8.55c-1.57-1.68-5.38-4.94-4.99-7.41.32-2.04,5.63-6.68,7.34-8.16,5.89-5.08,12.66-9.91,19.07-14.34,14.54-10.04,29.4-17.25,46.29-22.63,2.47-.79,8.44-2.75,10.78-2.22,1.94.44,2.62,5.81,2.84,7.49.11.83.05,1.97.18,2.72.03.19.08.3.25.4,2.66-1.02,5.31-2.09,8.02-2.95,5.76-1.82,12.22-3.46,18.22-1.98l10.43-6.02ZM139.4,29.17c-1.96.2-4.61,1.1-6.54,1.69-8.38,2.55-17.36,6.2-25.33,9.86-12.32,5.66-24.18,14.11-34.9,22.4-3.43,2.65-10,7.49-12.35,10.89-.93,1.35-.91,1.52-.07,2.94,1.78,2.99,6.66,7.02,9.42,9.31,4.37,3.62,9.1,7.16,14.01,9.98,11.42-6.39,22.9-12.67,34.27-19.15,7.19-4.09,14.67-8.17,21.67-12.55.65-.41,3.35-1.94,3.53-2.45.12-1.13.31-2.38.37-3.51.36-7.57.58-19.66-1.22-26.88-.53-2.11-.49-2.78-2.86-2.54ZM181.4,29.29l-9.51,5.34,31.15,68.25c3.55-.53,7.76-.97,11.07-2.38.44-.19,1.8-.76,1.82-1.23.02-.36-1.46-3.46-1.74-4.07-2.99-6.6-6.41-13.24-9.62-19.75-7.62-15.44-15.6-30.7-23.17-46.15ZM199.25,107.99c.82-.87,3.35-3.79,3.06-4.94l-31.21-67.75c-.1-.29-.31-.32-.55-.42-3.69-1.46-10.29.02-14.08,1.03-3.99,1.06-7.84,2.6-11.71,4.03.55,7.37.35,14.78.03,22.15,5.17,4.76,9.27,11.09,12.58,17.28,1.93,3.6,5.9,11.37,5.29,15.35-.29,1.86-5.77,5.77-7.43,6.94-11.02,7.79-24.9,15.25-37.05,21.22-3.65,1.79-12.29,6.24-15.98,6.62-2.21.23-3.37-1.73-4.55-3.32-6.13-8.25-10.71-19.1-14.6-28.58-6.87-3.71-12.83-8.89-18.76-13.92-.63-.01-6.87,4.52-7.82,5.26-2.82,2.19-5.84,4.82-7.99,7.66-1.29,1.71-3.68,5.49-2.82,7.64l33.09,62.62c.99.84,1.29,1.69,2.68,2,4.24.96,11.68-2.83,15.59-4.67,24.5-11.54,49.34-24.81,73.17-37.72,8.94-4.84,22.16-11.2,29.04-18.49ZM84.56,97.4c2.57,6.89,5.9,13.7,9.5,20.12,1.3,2.32,4.94,8.87,6.89,10.22,1,.7,2.61-.1,3.72-.48,10.96-3.79,24.42-11.53,34.57-17.41,6.16-3.57,15.14-8.56,20.23-13.34,1.1-1.04,1.85-1.61,1.78-3.24-.23-5.24-7.02-16.68-10.07-21.24-.84-1.26-6.09-8.62-7.26-8.51l-33.03,19.19c.12.41.92.02,1.21.03,1.16.03,2.48.51,3.64.21.54-.14,5.8-3.25,6.44-3.73.8-.6,1.35-1.56,2.11-2.25,2.9-2.66,5.66-2.77,9.04-4.03,2.99-1.12,6.04-3.3,9.21-4.51.51-.2,1.62-.78,2.09-.49,4.55,5.89,8.71,12.97,11.38,19.94.32.83,1.59,4.21,1.45,4.86-.08.38-1.24,1.28-1.62,1.59-3.55,2.95-8.32,5.79-12.29,8.21-9.12,5.54-18.98,10.96-28.56,15.66-4.11,2.02-8.28,4.08-12.66,5.44-.29-.06-1.41-1.81-1.67-2.21-3.43-5.15-6.78-11.59-9.43-17.2-.35-.74-1.85-3.72-1.89-4.24-.02-.29.26-.41.43-.56,1.78-1.54,4.3-2.65,6.13-4.2.31-.51.08-1.18.17-1.77.19-1.23.73-2.29,1.6-3.16l-13.07,7.1ZM102.5,122.71c.51.3,9.59-4.07,10.85-4.68,9.34-4.53,18.89-9.8,27.81-15.12,4.36-2.6,10.62-6.09,14.33-9.39,1.41-1.25,1.07-1.35.52-3.1-.83-2.64-2.25-5.65-3.48-8.14-2.32-4.7-5.1-9.48-8.42-13.54l-7.75,3.63c.91-.27,2.08-.17,2.95-.36,1.06-.23,2.78-1.51,3.99-1.83.24-.06.4-.15.65,0,.28.17,1.85,2.53,2.17,3,2.67,4.01,5.36,9.12,7.27,13.55.39.9,1.97,4.52,1.87,5.23-.09.64-3.38,2.86-4.08,3.35-4.16,2.92-8.84,5.66-13.24,8.22-11.2,6.53-22.83,12.69-34.73,17.82-.34.02-.66-.58-.85-.86-1.22-1.71-2.4-3.91-3.45-5.75-2.61-4.59-4.94-9.33-7.21-14.1-.03-.28.3-.45.47-.6,1.06-.93,2.75-1.68,3.88-2.59l-.02-1.22c-.81.56-5.3,3.17-5.57,3.71-.11.22-.1.43,0,.65,3.62,7.57,7.4,15.1,12.06,22.09ZM96.5,98.37c-.33-.24-3.17,2.05-3.73,2.34l-.08.25c3.3,6.63,6.57,13.31,10.66,19.5,9.41-4.07,18.52-8.84,27.47-13.83,8.06-4.49,16.25-9.17,23.56-14.79-2.43-7.3-6.26-14.19-10.59-20.51l-.4-.24-2.83,1.37c2.06,1.55,2.1,5.25,1.41,7.54-.65,2.14-2.12,3.07-3.02,4.97,5.31.36.98,4.29-.99,5.88-6.25,5.06-18.63,11.4-26.33,13.7-1.4.42-4.69,1.47-5.86.45-.72-.64-.15-1.11-.25-1.51-.19-.74-4.15-1.14-4.95-1.35-1.93-.52-3.52-1.79-4.07-3.76ZM140.35,73.24c-.68-.62-2.19-.28-3.05-.17-2.87.38-7.31,1.41-9.86,2.73-4.67,2.42-5.48,7.56-11.65,8.04-1.67.13-3.4-.46-5.01,0-2.18.61-4.19,3.33-6.26,4.55-1.95,1.16-4.35,1.41-6,2.39-2.34,1.38-2.03,6.2-.85,8.29,1.55,2.75,4.35,2.17,6.87,2.97,1.35.43,2.5,1.54,3.99,1.51,1.97-.03,4.88-1.64,6.65-2.57,7.74-4.05,14.64-9.53,22.07-14.09.74-.73.66-1.83,1.03-2.68.79-1.79,2.47-2.5,3.05-5.02.36-1.56.3-4.8-.97-5.95ZM107.48,84.81l-8.71,4.84c3.3-.7,6.54-2.2,8.71-4.84ZM140.54,86.13c-.15-.24-1.44-.49-1.75-.27-.06.04-.5,1.06-.73,1.36-.95,1.24-3.88,2.62-5.32,3.56-3.92,2.58-7.74,5.31-11.71,7.82l-8.22,4.61c4.22-1.38,8.33-3.33,12.27-5.4,2.98-1.57,14.39-7.96,15.4-10.74.09-.24.18-.73.06-.94ZM108.77,104.34c-.39-.01-.79.04-1.17-.04-.47-.1-1.07-.67-1.41-.2-.08.42.83.48,1.06.55l1.52-.31ZM44.64,104.36l-9.32,4.58c-.38.36.3,1.91.49,2.43,2.07,5.95,5.49,12.5,8.26,18.21,6.62,13.66,14.01,28.76,21.96,41.63.67,1.08,2.22,3.79,3.03,4.55.18.16.25.3.53.22,3.18-2.4,5.7-5.51,8.43-8.38v-.32s-33.39-62.93-33.39-62.93Z"/>
      <path class="cls-1" d="M199.25,107.99c-6.88,7.29-20.1,13.65-29.04,18.49-23.83,12.91-48.67,26.18-73.17,37.72-3.91,1.84-11.36,5.63-15.59,4.67-1.39-.31-1.69-1.16-2.68-2l-33.09-62.62c-.86-2.15,1.53-5.93,2.82-7.64,2.16-2.85,5.18-5.47,7.99-7.66.95-.74,7.18-5.27,7.82-5.26,5.93,5.03,11.89,10.21,18.76,13.92,3.89,9.48,8.47,20.33,14.6,28.58,1.19,1.59,2.35,3.55,4.55,3.32,3.68-.38,12.32-4.83,15.98-6.62,12.15-5.96,26.02-13.43,37.05-21.22,1.66-1.17,7.14-5.08,7.43-6.94.61-3.98-3.36-11.75-5.29-15.35-3.32-6.18-7.41-12.51-12.58-17.28.32-7.37.52-14.78-.03-22.15,3.87-1.43,7.72-2.97,11.71-4.03,3.79-1.01,10.39-2.49,14.08-1.03.24.1.45.13.55.42l31.21,67.75c.29,1.15-2.24,4.07-3.06,4.94Z"/>
      <path class="cls-1" d="M139.4,29.17c2.37-.25,2.34.43,2.86,2.54,1.8,7.22,1.57,19.32,1.22,26.88-.05,1.12-.25,2.38-.37,3.51-.18.51-2.88,2.04-3.53,2.45-7,4.38-14.48,8.46-21.67,12.55-11.37,6.48-22.85,12.76-34.27,19.15-4.91-2.82-9.64-6.36-14.01-9.98-2.76-2.29-7.64-6.32-9.42-9.31-.85-1.42-.87-1.59.07-2.94,2.35-3.4,8.92-8.24,12.35-10.89,10.72-8.29,22.57-16.74,34.9-22.4,7.96-3.66,16.95-7.31,25.33-9.86,1.93-.59,4.58-1.48,6.54-1.69ZM65.41,76.35c.81,1.03,2.46,2.45,3.49,3.37,3.59,3.24,7.92,6.65,11.9,9.41.61.42,2.44,1.86,3.02,1.81,14.31-7.94,28.65-15.83,42.82-24.02,3.56-2.06,7.22-4.05,10.69-6.26.42-.27,1.42-.79,1.56-1.19.24-.74.03-2.43.06-3.33.24-5.51.22-11.09-.16-16.62-.11-1.69-.34-3.4-.56-5.09-.06-.1-.14-.2-.24-.25-.38-.19-2.89.66-3.51.85-8.53,2.58-17.89,6.42-25.97,10.18-9.93,4.63-19.07,11.01-27.86,17.49-4.74,3.49-10.99,7.92-15.05,12.07-.61.62-.74.84-.17,1.56Z"/>
      <path class="cls-1" d="M181.4,29.29c7.57,15.46,15.55,30.72,23.17,46.15,3.21,6.52,6.63,13.15,9.62,19.75.28.62,1.76,3.72,1.74,4.07-.02.47-1.38,1.05-1.82,1.23-3.31,1.4-7.52,1.84-11.07,2.38l-31.15-68.25,9.51-5.34Z"/>
      <path class="cls-1" d="M44.64,104.36l33.4,62.93v.32c-2.74,2.87-5.26,5.98-8.44,8.38-.29.08-.36-.06-.53-.22-.81-.76-2.36-3.47-3.03-4.55-7.95-12.87-15.34-27.97-21.96-41.63-2.77-5.72-6.18-12.27-8.26-18.21-.18-.52-.86-2.07-.49-2.43l9.32-4.58Z"/>
      <path class="cls-1" d="M96.5,98.37c.56,1.97,2.14,3.24,4.07,3.76.8.21,4.76.61,4.95,1.35.1.4-.47.88.25,1.51,1.17,1.03,4.46-.03,5.86-.45,7.7-2.3,20.08-8.64,26.33-13.7,1.96-1.59,6.3-5.51.99-5.88.9-1.9,2.37-2.83,3.02-4.97.7-2.29.66-5.98-1.41-7.54l2.83-1.37.4.24c4.33,6.32,8.16,13.21,10.59,20.51-7.31,5.62-15.5,10.3-23.56,14.79-8.95,4.99-18.06,9.76-27.47,13.83-4.1-6.19-7.37-12.87-10.66-19.5l.08-.25c.56-.29,3.39-2.57,3.73-2.34Z"/>
      <path class="cls-1" d="M140.35,73.24c1.27,1.16,1.33,4.4.97,5.95-.58,2.52-2.26,3.23-3.05,5.02-.37.85-.3,1.94-1.03,2.68-7.43,4.56-14.33,10.04-22.07,14.09-1.77.93-4.68,2.53-6.65,2.57-1.49.03-2.64-1.08-3.99-1.51-2.53-.81-5.32-.22-6.87-2.97-1.18-2.09-1.48-6.9.85-8.29,1.65-.98,4.05-1.23,6-2.39,2.07-1.23,4.07-3.94,6.26-4.55,1.61-.45,3.34.13,5.01,0,6.17-.47,6.98-5.62,11.65-8.04,2.55-1.32,6.99-2.35,9.86-2.73.87-.12,2.37-.45,3.05.17ZM125.35,80c-.1.03-1.52.83-1.65.94-.76.63-.62,1.76-.56,2.66.12,1.8.96,3.92.97,5.66,0,.59-.48,2.1-.43,2.42.1.64.75.4.96-.27.8-2.57-.47-5.31-.68-7.82-.18-2.24.19-1.85,1.84-2.96.21-.35,0-.73-.45-.62ZM100.81,93.38l-.27.22.16.48c1.9.51,3.84.88,5.69,1.57,1.69.64,6.13,3.44,7.44,3.34.31-.02.96-.26,1.05-.58.22-.84-.91-.36-1.35-.37-1.22-.02-3.21-1.53-4.38-2.09-1.31-.64-7.23-2.93-8.35-2.58Z"/>
      <path class="cls-1" d="M84.56,97.4l13.07-7.1c-.87.87-1.41,1.93-1.6,3.16-.09.59.14,1.26-.17,1.77-1.83,1.55-4.35,2.65-6.13,4.2-.18.15-.46.27-.43.56.05.53,1.54,3.51,1.89,4.24,2.65,5.61,6,12.05,9.43,17.2.26.39,1.38,2.15,1.67,2.21,4.37-1.37,8.55-3.43,12.66-5.44,9.58-4.7,19.44-10.12,28.56-15.66,3.98-2.42,8.74-5.25,12.29-8.21.38-.31,1.53-1.2,1.62-1.59.14-.65-1.13-4.03-1.45-4.86-2.67-6.96-6.83-14.05-11.38-19.94-.47-.29-1.58.29-2.09.49-3.16,1.22-6.22,3.39-9.21,4.51-3.38,1.27-6.14,1.38-9.04,4.03-.76.69-1.31,1.65-2.11,2.25-.64.48-5.9,3.59-6.44,3.73-1.15.3-2.47-.18-3.64-.21-.29,0-1.09.38-1.21-.03l33.03-19.19c1.16-.11,6.41,7.25,7.26,8.51,3.05,4.56,9.84,16,10.07,21.24.07,1.63-.68,2.2-1.78,3.24-5.09,4.78-14.07,9.77-20.23,13.34-10.14,5.88-23.61,13.62-34.57,17.41-1.1.38-2.71,1.18-3.72.48-1.95-1.36-5.59-7.9-6.89-10.22-3.6-6.42-6.93-13.23-9.5-20.12Z"/>
      <path class="cls-1" d="M102.5,122.71c-4.66-6.99-8.44-14.52-12.06-22.09-.1-.22-.11-.43,0-.65.27-.54,4.77-3.16,5.57-3.71l.02,1.22c-1.13.91-2.82,1.66-3.88,2.59-.17.15-.5.33-.47.6,2.27,4.77,4.6,9.51,7.21,14.1,1.05,1.84,2.23,4.05,3.45,5.75.2.27.51.88.85.86,11.91-5.13,23.54-11.29,34.73-17.82,4.4-2.57,9.08-5.31,13.24-8.22.71-.49,4-2.72,4.08-3.35.1-.71-1.48-4.34-1.87-5.23-1.91-4.43-4.6-9.54-7.27-13.55-.32-.48-1.89-2.83-2.17-3-.25-.15-.41-.07-.65,0-1.21.32-2.92,1.59-3.99,1.83-.87.19-2.04.08-2.95.36l7.75-3.63c3.32,4.06,6.1,8.83,8.42,13.54,1.23,2.5,2.65,5.5,3.48,8.14.55,1.75.88,1.85-.52,3.1-3.71,3.3-9.97,6.79-14.33,9.39-8.92,5.32-18.47,10.59-27.81,15.12-1.25.61-10.33,4.98-10.85,4.68Z"/>
      <path class="cls-1" d="M140.54,86.13c.13.2.03.7-.06.94-1.01,2.78-12.42,9.18-15.4,10.74-3.94,2.07-8.05,4.02-12.27,5.4l8.22-4.61c3.97-2.5,7.79-5.24,11.71-7.82,1.43-.94,4.37-2.32,5.32-3.56.23-.31.67-1.32.73-1.36.32-.21,1.61.03,1.75.27Z"/>
      <path class="cls-1" d="M107.48,84.81c-2.18,2.64-5.41,4.14-8.71,4.84l8.71-4.84Z"/>
      <path class="cls-1" d="M108.77,104.34l-1.52.31c-.23-.06-1.15-.12-1.06-.55.34-.47.94.1,1.41.2.38.08.78.03,1.17.04Z"/>
      <path d="M65.41,76.35c-.56-.72-.44-.94.17-1.56,4.06-4.15,10.31-8.58,15.05-12.07,8.8-6.48,17.93-12.86,27.86-17.49,8.08-3.76,17.44-7.6,25.97-10.18.63-.19,3.13-1.04,3.51-.85.1.05.18.15.24.25.22,1.68.45,3.39.56,5.09.37,5.52.4,11.1.16,16.62-.04.89.18,2.58-.06,3.33-.13.4-1.13.92-1.56,1.19-3.47,2.2-7.13,4.2-10.69,6.26-14.16,8.2-28.51,16.09-42.82,24.02-.58.06-2.41-1.38-3.02-1.81-3.98-2.76-8.3-6.17-11.9-9.41-1.03-.93-2.67-2.34-3.49-3.37ZM137.5,35.09c-6.97,1.98-13.8,4.57-20.49,7.35-12.8,5.32-22.46,11.22-33.63,19.31-5.99,4.33-12.01,8.86-17.38,13.93,5.31,5.44,11.41,10.09,17.67,14.39,18.22-10.14,36.53-20.17,54.39-30.93l.09-15.91-.65-8.15Z"/>
      <path d="M100.81,93.38c1.12-.35,7.03,1.95,8.35,2.58,1.17.56,3.16,2.07,4.38,2.09.43,0,1.57-.47,1.35.37-.08.32-.74.56-1.05.58-1.31.09-5.75-2.71-7.44-3.34-1.85-.7-3.79-1.07-5.69-1.57l-.16-.48.27-.22Z"/>
      <path d="M125.35,80c.44-.12.67.27.45.62-1.64,1.11-2.02.72-1.84,2.96.21,2.51,1.47,5.25.68,7.82-.21.67-.87.92-.96.27-.05-.31.43-1.83.43-2.42,0-1.74-.85-3.86-.97-5.66-.06-.91-.19-2.04.56-2.66.13-.11,1.55-.91,1.65-.94Z"/>
      <path class="cls-1" d="M137.5,35.09l.65,8.15-.09,15.91c-17.86,10.77-36.17,20.79-54.39,30.93-6.26-4.3-12.36-8.95-17.67-14.39,5.36-5.07,11.39-9.6,17.38-13.93,11.17-8.09,20.83-13.99,33.63-19.31,6.69-2.78,13.52-5.37,20.49-7.35ZM136.01,36.58c-11.91,4.1-24.45,8.5-35.36,14.85-9.65,5.62-20.67,13.62-29.24,20.79-.51.43-3.66,3.1-3.73,3.37-.09.4,1.05,1.39,1.38,1.71,2.96,2.88,6.95,5.96,10.28,8.44.57.42,4.17,3.09,4.46,3.06,17.8-9.95,35.72-19.72,53.18-30.25.41-5.63.1-11.3.03-16.93-.31-.84-.08-4.53-.56-4.93-.14-.11-.27-.16-.45-.11Z"/>
      <path d="M136.01,36.58c.18-.05.31,0,.45.11.48.4.25,4.1.56,4.93.07,5.63.38,11.29-.03,16.93-17.46,10.54-35.38,20.31-53.18,30.25-.29.03-3.9-2.64-4.46-3.06-3.33-2.48-7.32-5.56-10.28-8.44-.33-.32-1.47-1.31-1.38-1.71.06-.27,3.22-2.94,3.73-3.37,8.57-7.17,19.6-15.18,29.24-20.79,10.91-6.35,23.45-10.75,35.36-14.85ZM135.88,37.52c-9.77,3.25-19.72,6.92-28.95,11.48-7.46,3.69-14.7,8.72-21.46,13.56-5.18,3.72-11.5,8.14-16.09,12.48-.17.16-.67.57-.63.79,4.71,4.36,9.74,8.41,15.05,12.02,17.53-9.73,35.06-19.48,52.32-29.67.55-6.88.11-13.78-.25-20.66Z"/>
      <path class="cls-1" d="M135.88,37.52c.35,6.88.8,13.78.25,20.66-17.27,10.19-34.79,19.94-52.32,29.67-5.31-3.61-10.34-7.66-15.05-12.02-.04-.22.46-.63.63-.79,4.59-4.34,10.91-8.76,16.09-12.48,6.76-4.85,14-9.88,21.46-13.56,9.23-4.56,19.18-8.23,28.95-11.48Z"/>
    </g>
  </g>
</svg>