<?xml version="1.0" encoding="UTF-8"?>
<svg id="Layer_1" data-name="Layer 1" xmlns="http://www.w3.org/2000/svg" viewBox="0 0 251 205">
  <defs>
    <style>
      .cls-1 {
        fill: #231f20;
      }

      .cls-2 {
        fill: #fff;
      }
    </style>
  </defs>
  <path class="cls-2" d="M190.61,65.85c1.58,1.05,3.12,2.17,4.65,3.28,1.36.99,2.75,1.94,4.09,2.95,1.87,1.41,4.09,3.1,5.33,5.24,1.18-1.75,2.32-3.52,3.41-5.33,1.12-1.85,2.47-3.78,2.98-5.92.2-.84.21-1.73-.1-2.54-.28-.73-.8-1.34-1.36-1.87-1.36-1.27-3.03-2.24-4.58-3.25-1.72-1.13-3.46-2.22-5.23-3.28-1.68-1.01-3.4-2.2-5.28-2.8-2.92-.93-5.67.7-7.84,2.55-1.95,1.67-3.65,3.65-5.12,5.76,1.46.5,2.81,1.35,4.12,2.12,1.67.98,3.31,2.02,4.93,3.09ZM204.07,61.56c.21-.39.71-.47,1.08-.28,1.36.68,2.62,1.52,3.8,2.48.34.28.26.83,0,1.12-.31.34-.8.26-1.12,0-.08-.06-.15-.12-.23-.19-.03-.03-.07-.05-.1-.08,0,0,0,0,0,0-.14-.11-.28-.21-.42-.31-.28-.21-.57-.4-.87-.59-.6-.39-1.22-.74-1.86-1.06-.39-.2-.47-.72-.28-1.08ZM193.36,55.59c.1-.38.57-.71.97-.55,2.19.85,4.3,1.88,6.32,3.09.87.52.08,1.89-.8,1.36-1.89-1.14-3.88-2.13-5.94-2.93-.4-.15-.67-.52-.55-.97Z"/>
  <path class="cls-2" d="M194.99,83.73c-1.39-1.69-2.93-3.26-4.55-4.72-3.22-2.91-6.77-5.42-10.45-7.71-3.73-2.32-7.59-4.43-11.6-6.23-4.01-1.8-8.14-3.3-12.33-4.59-8.42-2.59-17.12-4.47-25.87-5.51-8.68-1.03-17.43-1.14-26.15-.57-.03.02-.05.05-.07.07-2.48,1.89-4.93,3.83-7.34,5.8-6.69,5.46-13.19,11.15-19.5,17.05,1.66-.61,3.39-.97,5.16-1.1.09-.11.21-.19.36-.21.96-.13,1.93-.26,2.9-.37,7.17-.86,14.39-1.23,21.6-.99,7.32.25,14.61,1.13,21.82,2.44,5.56,1.01,11.08,2.32,16.45,4.09,5.83,1.92,11.5,4.39,16.82,7.47,5.94,3.42,11.43,7.6,16.38,12.33,0,0,0,.01.01.02,1.59,1.49,3.13,3.05,4.44,4.8,1.11,1.48,2.04,3.14,2.55,4.92.51-.56,1.01-1.12,1.51-1.69,2.78-3.16,5.43-6.42,7.97-9.77,1.3-1.71,2.77-3.41,3.71-5.35.42-.86.66-1.78.56-2.73-.05-.45-.17-.89-.33-1.32-.17-.16-.27-.38-.27-.61-.1-.2-.2-.4-.31-.59-.97-1.73-2.21-3.39-3.47-4.92ZM169.43,71.9c-3.35-1.66-6.77-3.18-10.26-4.54-6.15-2.4-12.47-4.33-18.91-5.78-6.46-1.45-13.02-2.41-19.62-2.85-1.01-.07-1.01-1.65,0-1.58,3.78.26,7.55.68,11.29,1.25,6.64,1.02,13.2,2.56,19.6,4.59,6.41,2.03,12.67,4.56,18.69,7.54.91.45.11,1.81-.8,1.36ZM174.32,74.25c-.9-.47-.1-1.84.8-1.36,5.01,2.64,9.68,5.9,13.91,9.66.76.68-.36,1.79-1.12,1.12-4.13-3.67-8.7-6.83-13.59-9.41ZM193.63,95.5c-1.85,1.96-3.54,4.06-5.06,6.28-.24.35-.69.51-1.08.28-.35-.2-.52-.73-.28-1.08,1.6-2.33,3.37-4.54,5.31-6.6.7-.74,1.81.38,1.12,1.12ZM197.82,91.55c-.54.58-1.09,1.16-1.63,1.75-.14.15-.35.22-.56.23-.21,0-.41-.09-.56-.23-.15-.13-.23-.36-.23-.56,0-.21.09-.41.23-.56.54-.58,1.09-1.16,1.63-1.75.14-.15.35-.22.56-.23.21,0,.41.09.56.23.14.13.23.36.23.56,0,.21-.09.41-.23.56Z"/>
  <path class="cls-2" d="M139.96,53.72c-.2-.42-.58-.71-.99-.94,0,0-.01,0-.02-.01-.13-.07-.26-.14-.38-.2-1.41-.7-2.92-1.24-4.39-1.83-2.67-1.07-5.35-2.09-8.06-3.07-1.38-.5-2.77-.98-4.16-1.46-1.34-.46-2.71-1.01-4.11-1.23-2.5-.39-4.58,1.07-6.21,2.81-.89.95-1.75,1.92-2.67,2.84-.66.66-1.3,1.33-1.93,2.01.05,0,.1,0,.14,0,8.96-.42,17.93-.04,26.81,1.26,1.98.29,3.95.62,5.92.99.27-.33.23-.78.05-1.16Z"/>
  <path class="cls-2" d="M194.7,81.01c1.45,1.58,2.73,3.29,3.96,5.05.37.54.74,1.09,1.07,1.66.99-1.32,1.98-2.64,2.94-3.98.53-.73,1.05-1.51,1.27-2.39.21-.82.08-1.68-.24-2.46-.57-1.41-1.75-2.55-2.86-3.56-1.18-1.07-2.46-2.02-3.75-2.95-2.74-1.97-5.46-3.99-8.3-5.83-1.52-.99-3.07-1.94-4.64-2.85-1.41-.82-2.94-1.79-4.62-1.91-2.82-.2-4.78,1.82-6.44,3.83,3.94,1.99,7.75,4.25,11.4,6.76,3.67,2.53,7.17,5.35,10.19,8.63Z"/>
  <path class="cls-2" d="M176.41,101.1c-.68-.62-1.37-1.23-2.07-1.82-1.84-1.58-3.75-3.07-5.79-4.37-4.03-2.57-8.62-4.38-13.46-4.43-2.4-.03-4.84.39-7.03,1.38-2.07.93-3.91,2.28-5.57,3.8-1.7,1.55-3.24,3.27-4.76,4.99-1.57,1.77-3.11,3.55-4.65,5.35-4.92,5.74-9.73,11.58-14.65,17.32,1.75-.79,3.62-1.33,5.51-1.66,1.2-.2,2.42-.33,3.63-.37,4.99-.16,9.96,1.07,14.47,3.15,4.44,2.06,8.55,5.03,11.77,8.72,3.56,4.09,6.15,9.18,6.63,14.63.17,1.88.03,3.77-.38,5.59,6.06-7.85,11.76-15.98,17.05-24.37,1.38-2.2,2.74-4.41,4.07-6.64,1.25-2.09,2.51-4.24,3.04-6.64,1.01-4.54-1.71-8.51-4.71-11.63-.65-.68-1.33-1.33-2.01-1.98,0,0-.02,0-.03-.02-.35-.34-.71-.66-1.07-.99ZM161.38,96.14c-.22.37-.71.49-1.08.28-1.52-.84-3.28-1.38-4.98-1.53-.43-.04-.79-.33-.79-.79,0-.4.36-.83.79-.79,2.03.18,3.99.76,5.77,1.74.37.21.49.72.28,1.08ZM179.27,110.08c.51.88-.86,1.68-1.36.8-2.87-5-7.19-9.05-12.35-11.6-.91-.45-.11-1.81.8-1.36,5.39,2.67,9.93,6.95,12.92,12.17Z"/>
  <path class="cls-2" d="M40.78,118.98c-1.31,3.32-1.2,7-.28,10.41,2.42,8.95,10.07,15.41,18.16,19.27,4.7,2.24,9.97,3.94,15.24,3.5,4.83-.4,9.06-3.03,11.54-7.19,2.51-4.2,2.81-9.19,1.43-13.83-1.4-4.71-4.31-8.89-7.92-12.19-6.78-6.21-16.58-10.08-25.82-8.53-1.37.24-2.72.59-4.03,1.06-3.65,1.33-6.87,3.82-8.33,7.51ZM63.01,113.63c3.75.96,7.39,2.6,10.52,4.89.78.58,1.53,1.18,2.24,1.84,5.58,5.15,9.17,13.28,7.45,20.91-.43,1.93-1.29,3.8-2.67,5.23-1.32,1.37-3.08,2.24-4.91,2.65-3.87.87-8.05.07-11.72-1.25-3.87-1.39-7.42-3.53-10.62-6.11-3.19-2.57-6.17-5.6-8.27-9.14-2-3.36-3.52-7.69-2.11-11.55,1.39-3.79,4.82-6.49,8.61-7.64,3.7-1.13,7.79-.77,11.49.17Z"/>
  <path class="cls-2" d="M111.99,131.74c-1.31,3.32-1.2,7-.28,10.41,2.42,8.95,10.07,15.41,18.16,19.27,4.7,2.24,9.97,3.94,15.24,3.5,4.83-.4,9.06-3.03,11.54-7.19,2.51-4.2,2.81-9.19,1.43-13.83-1.4-4.71-4.31-8.89-7.92-12.19-6.78-6.21-16.58-10.08-25.82-8.53-1.37.24-2.72.59-4.03,1.06-3.65,1.32-6.87,3.82-8.33,7.51ZM133.89,126.4c3.75.96,7.39,2.6,10.52,4.89.78.58,1.53,1.18,2.24,1.84,5.58,5.15,9.17,13.28,7.45,20.91-.43,1.93-1.29,3.8-2.67,5.23-1.32,1.37-3.08,2.24-4.91,2.65-3.87.87-8.05.07-11.72-1.25-3.88-1.39-7.42-3.53-10.62-6.11-3.19-2.57-6.17-5.6-8.27-9.14-2-3.36-3.52-7.69-2.11-11.55,1.39-3.79,4.82-6.49,8.61-7.64,3.7-1.13,7.79-.77,11.49.17Z"/>
  <path class="cls-2" d="M56.35,108.51c4.99-.16,9.96,1.07,14.47,3.15,4.44,2.06,8.55,5.03,11.77,8.72,3.56,4.09,6.15,9.18,6.63,14.63.17,1.88.03,3.77-.38,5.59,6.06-7.85,11.76-15.98,17.05-24.37,1.38-2.2,2.74-4.41,4.07-6.64,1.25-2.09,2.51-4.24,3.04-6.64,1.01-4.54-1.71-8.51-4.71-11.63-1.63-1.7-3.39-3.28-5.17-4.81-1.84-1.58-3.75-3.07-5.79-4.37-4.03-2.57-8.62-4.38-13.46-4.43-2.4-.03-4.84.39-7.03,1.38-2.07.93-3.91,2.28-5.57,3.8-1.7,1.55-3.24,3.27-4.76,4.99-1.57,1.77-3.11,3.55-4.65,5.35-4.92,5.74-9.73,11.58-14.65,17.32,1.75-.79,3.62-1.33,5.51-1.66,1.2-.2,2.42-.33,3.63-.37ZM100.72,92.22c.2-.34.74-.54,1.08-.28,2.4,1.79,4.45,3.99,6.06,6.52.55.86-.82,1.65-1.36.8-1.45-2.29-3.32-4.33-5.5-5.95-.34-.26-.52-.68-.28-1.08ZM80.1,80.73c6.71.5,13.13,3.25,18.12,7.77.75.68-.36,1.8-1.12,1.12-4.66-4.23-10.73-6.84-17-7.31-1.01-.08-1.01-1.65,0-1.58Z"/>
  <path class="cls-2" d="M131.22,127.44c-3.45-.59-7.17-.49-10.36,1.08-3.15,1.56-5.92,4.56-6.05,8.23-.06,1.86.47,3.72,1.19,5.43.74,1.75,1.76,3.4,2.92,4.9,2.33,3.02,5.24,5.68,8.36,7.87,3.12,2.19,6.56,3.94,10.25,4.93,3.32.89,7.28,1.4,10.5-.12,3.37-1.59,4.71-5.17,4.88-8.71.33-7.2-3.59-14.17-9.3-18.4-.69-.51-1.41-.98-2.15-1.42-3.14-1.87-6.64-3.17-10.24-3.78ZM145.59,140.42c2.46,2.41,3.73,5.97,3.27,9.39-.06.42-.32.79-.79.79-.39,0-.85-.37-.79-.79.41-3.04-.61-6.13-2.81-8.28-.73-.71.39-1.83,1.12-1.12ZM141.14,137.1c-1.44-1.47-3.22-2.56-5.16-3.17-.41-.13-.67-.55-.55-.97.11-.4.56-.68.97-.55,2.21.69,4.23,1.92,5.86,3.58.71.73-.4,1.84-1.12,1.12Z"/>
  <path class="cls-2" d="M139.5,46.35c-.85-.54-1.81-.9-2.73-1.31-1.04-.47-2.08-.94-3.13-1.41-2.09-.94-4.17-1.92-6.27-2.83-.93-.4-1.93-.77-2.96-.76-.82,0-1.61.26-2.33.65-1.28.71-2.32,1.78-3.27,2.88.27.06.53.13.8.2,3.07.89,6.09,2.05,9.09,3.16,3.02,1.12,6.03,2.31,9,3.55.45.19.92.37,1.37.58.62-.69,1.22-1.43,1.44-2.34.24-1.01-.16-1.83-1.01-2.37Z"/>
  <path class="cls-2" d="M60.34,114.68c-3.45-.59-7.17-.49-10.36,1.08-3.15,1.56-5.92,4.56-6.05,8.23-.06,1.86.47,3.72,1.19,5.43.74,1.75,1.76,3.4,2.92,4.9,2.33,3.02,5.24,5.68,8.36,7.87,3.12,2.19,6.56,3.94,10.25,4.93,3.32.89,7.28,1.4,10.5-.12,3.37-1.59,4.71-5.17,4.88-8.71.33-7.2-3.59-14.17-9.3-18.4-.69-.51-1.41-.98-2.15-1.42-3.14-1.87-6.64-3.17-10.24-3.78ZM60.77,119.77c-3.86-1.94-8.84-1.36-12.15,1.43-.77.65-1.89-.46-1.12-1.12,3.88-3.27,9.52-3.95,14.06-1.67.91.46.11,1.82-.8,1.36ZM69.27,123.44c-.13.15-.36.23-.56.23-.23,0-.39-.1-.56-.23-.02-.01-.13-.1-.14-.11-.05-.04-.11-.08-.17-.12-.14-.1-.28-.2-.43-.3-.29-.2-.59-.38-.89-.55s-.62-.33-.93-.48c-.08-.04-.16-.07-.24-.11-.04-.02-.08-.03-.11-.05,0,0,0,0,0,0-.16-.07-.33-.13-.49-.19-.42-.15-.65-.52-.55-.97.09-.39.58-.69.97-.55,1.5.55,2.86,1.33,4.1,2.33.34.28.26.83,0,1.12Z"/>
  <path class="cls-2" d="M142.86,82.02c-5.53-1.69-11.19-2.91-16.89-3.86-7.06-1.18-14.2-1.89-21.36-2-5.17-.08-10.34.16-15.49.66,4.49,1.09,8.58,3.43,12.23,6.22,1.99,1.52,3.87,3.17,5.71,4.87,1.71,1.59,3.36,3.23,4.77,5.11.94,1.26,1.76,2.65,2.3,4.14,1.55-.61,3.15-1,4.82-1.16,5.65-.53,11.81,1.52,15.98,5.43,3.05-3.5,6.11-7.2,10.06-9.72,4.26-2.71,9.33-3.34,14.24-2.4.57.11,1.13.24,1.68.39-.53-.3-1.07-.61-1.61-.9-5.24-2.82-10.76-5.06-16.45-6.8Z"/>
  <path class="cls-1" d="M134.92,101.44c-4.17-3.91-10.33-5.96-15.98-5.43-1.67.16-3.27.55-4.82,1.16.18.49.32.99.43,1.5,5.29-2.19,11.6-1.14,16.41,1.76,1.05.63,2.03,1.37,2.92,2.21.3-.34.59-.69.88-1.03.05-.06.1-.12.15-.17Z"/>
  <path class="cls-1" d="M177.47,102.09s.02,0,.03.02c-.36-.34-.73-.68-1.09-1.01.36.33.72.66,1.07.99Z"/>
  <path class="cls-1" d="M162.21,88.64c-5.32-3.07-10.99-5.54-16.82-7.47-5.37-1.77-10.89-3.08-16.45-4.09-7.21-1.31-14.49-2.19-21.82-2.44-7.22-.25-14.44.13-21.6.99-.97.12-1.93.24-2.9.37-.14.02-.27.1-.36.21,1.9-.14,3.84-.01,5.75.35.37.07.74.17,1.1.26,5.15-.5,10.32-.74,15.49-.66,7.16.11,14.3.82,21.36,2,5.7.95,11.36,2.17,16.89,3.86,5.68,1.74,11.21,3.98,16.45,6.8.54.29,1.07.59,1.61.9,4.27,1.15,8.16,3.41,11.65,6.09,1.99,1.52,3.87,3.17,5.71,4.87.11.1.22.21.33.31,0,0,0-.01-.01-.02-4.95-4.74-10.44-8.91-16.38-12.33Z"/>
  <path class="cls-1" d="M118.42,123.31c4.92-5.74,9.73-11.58,14.65-17.32,1.54-1.79,3.08-3.58,4.65-5.35,1.53-1.72,3.06-3.44,4.76-4.99,1.67-1.52,3.51-2.87,5.57-3.8,2.2-.99,4.63-1.4,7.03-1.38,4.84.05,9.42,1.86,13.46,4.43,2.04,1.3,3.96,2.79,5.79,4.37.7.6,1.38,1.21,2.07,1.82-.3-.27-.59-.55-.89-.83-4.47-4.04-9.37-7.58-14.61-10.55-.56-.15-1.12-.28-1.68-.39-4.91-.95-9.98-.32-14.24,2.4-3.95,2.51-7.02,6.21-10.06,9.72.21.19.41.39.61.59.71.73-.41,1.85-1.12,1.12-.17-.17-.35-.34-.52-.5-6.33,7.31-12.45,14.81-18.79,22.11-.75.87-1.51,1.73-2.27,2.59-.03.03-.04.07-.06.1,1.54-1.8,3.49-3.16,5.64-4.13Z"/>
  <path class="cls-1" d="M184.92,111.46c.23-.25.45-.5.67-.75-.51-1.79-1.44-3.45-2.55-4.92-1.31-1.75-2.84-3.31-4.44-4.8.69.7-.37,1.76-1.1,1.12.69.65,1.36,1.3,2.01,1.98,3,3.12,5.71,7.1,4.71,11.63-.53,2.4-1.8,4.55-3.04,6.64-1.33,2.23-2.69,4.44-4.07,6.64-5.29,8.39-10.99,16.52-17.05,24.37-.41,1.83-1.12,3.59-2.08,5.21,6.66-8.34,12.91-17,18.7-25.97,1.47-2.28,2.92-4.59,4.34-6.91,1.33-2.17,2.74-4.35,3.76-6.69.89-2.04,1.39-4.17,1.19-6.37-.69.59-1.69-.45-1.03-1.17Z"/>
  <path class="cls-1" d="M135.53,102.02c-.2-.2-.4-.39-.61-.59-.05.06-.1.12-.15.17-.3.34-.59.69-.88,1.03.18.17.35.33.52.5.71.73,1.82-.39,1.12-1.12Z"/>
  <path class="cls-1" d="M172.57,95.81c-3.49-2.68-7.39-4.94-11.65-6.09,5.24,2.98,10.14,6.51,14.61,10.55.3.27.59.55.89.83.37.33.73.67,1.09,1.01.73.65,1.79-.42,1.1-1.12-.11-.1-.22-.21-.33-.31-1.84-1.7-3.72-3.35-5.71-4.87Z"/>
  <path class="cls-1" d="M123.38,122.61c.12.45.55.62.97.55.42-.07.66-.59.55-.97-.12-.44-.55-.62-.97-.55-.42.07-.66.59-.55.97Z"/>
  <path class="cls-1" d="M156.7,158.77c-.32-.32-.27-.78,0-1.12.81-1.01,1.62-2.03,2.41-3.05.32-.41.63-.83.94-1.24.41-1.82.54-3.7.38-5.59-.48-5.45-3.08-10.54-6.63-14.63-3.22-3.7-7.32-6.67-11.77-8.72-4.51-2.09-9.48-3.32-14.47-3.15-1.22.04-2.43.17-3.63.37.42-.07.85.11.97.55.11.38-.13.9-.55.97,9.24-1.55,19.04,2.32,25.82,8.53,3.61,3.3,6.52,7.48,7.92,12.19,1.38,4.64,1.08,9.63-1.43,13.83-2.48,4.16-6.72,6.79-11.54,7.19-5.27.44-10.54-1.25-15.24-3.5-8.09-3.86-15.74-10.32-18.16-19.27-.92-3.4-1.03-7.09.28-10.41,1.45-3.69,4.68-6.19,8.33-7.51,1.31-.48,2.66-.82,4.03-1.06-.42.07-.85-.11-.97-.55-.1-.38.13-.9.55-.97-1.88.33-3.76.87-5.51,1.66-1.48,1.72-2.96,3.44-4.47,5.14-.65.73-1.67-.26-1.17-1.01-.32.38-.63.77-.91,1.19-2.14,3.18-2.75,7.16-2.27,10.91,1.22,9.52,8.34,17.01,16.38,21.61,8.87,5.07,21.99,8.9,29.95.18.78-.85,1.46-1.78,2.05-2.76-.05.07-.1.14-.16.2-.27.33-.84.28-1.12,0Z"/>
  <path class="cls-1" d="M113.95,128.45c1.5-1.7,2.99-3.42,4.47-5.14-2.15.97-4.11,2.32-5.64,4.13-.5.75.53,1.74,1.17,1.01Z"/>
  <path class="cls-1" d="M159.11,154.6c-.8,1.02-1.6,2.04-2.41,3.05-.27.33-.32.79,0,1.12.28.28.85.33,1.12,0,.05-.07.1-.14.16-.2.97-1.62,1.67-3.38,2.08-5.21-.32.41-.62.83-.94,1.24Z"/>
  <path class="cls-1" d="M143.33,131.57c-.23.4-.06.82.28,1.08.34.25.88.06,1.08-.28.23-.4.06-.83-.28-1.08-.34-.25-.88-.06-1.08.28Z"/>
  <path class="cls-1" d="M113.79,133.87c-1.42,3.86.11,8.19,2.11,11.55,2.1,3.54,5.08,6.56,8.27,9.14,3.2,2.58,6.75,4.72,10.62,6.11,3.67,1.32,7.85,2.12,11.72,1.25,1.84-.41,3.6-1.28,4.91-2.65,1.38-1.43,2.23-3.31,2.67-5.23,1.72-7.63-1.87-15.76-7.45-20.91-.71-.66-1.46-1.26-2.24-1.84.34.25.52.68.28,1.08-.2.34-.73.53-1.08.28,5.71,4.23,9.63,11.2,9.3,18.4-.16,3.53-1.5,7.11-4.88,8.71-3.22,1.52-7.18,1.01-10.5.12-3.69-.99-7.13-2.74-10.25-4.93-3.11-2.19-6.03-4.85-8.36-7.87-1.16-1.51-2.17-3.15-2.92-4.9-.72-1.7-1.25-3.56-1.19-5.43.13-3.67,2.89-6.67,6.05-8.23,3.19-1.57,6.91-1.66,10.36-1.08,3.6.61,7.1,1.92,10.24,3.78.74.44,1.46.91,2.15,1.42-.34-.25-.52-.68-.28-1.08.2-.34.74-.54,1.08-.28-3.13-2.29-6.77-3.93-10.52-4.89-3.7-.94-7.79-1.29-11.49-.17-3.79,1.15-7.22,3.85-8.61,7.64Z"/>
  <path class="cls-1" d="M166.35,97.91c-.91-.45-1.71.91-.8,1.36,5.16,2.55,9.49,6.6,12.35,11.6.5.88,1.87.09,1.36-.8-2.99-5.22-7.53-9.5-12.92-12.17Z"/>
  <path class="cls-1" d="M161.09,95.06c-1.79-.98-3.74-1.57-5.77-1.74-.42-.04-.79.39-.79.79,0,.46.36.75.79.79,1.7.15,3.45.69,4.98,1.53.37.21.86.09,1.08-.28.21-.36.09-.87-.28-1.08Z"/>
  <path class="cls-1" d="M135.43,132.96c-.12.42.14.84.55.97,1.95.61,3.72,1.7,5.16,3.17.71.73,1.83-.39,1.12-1.12-1.62-1.66-3.64-2.89-5.86-3.58-.41-.13-.86.15-.97.55Z"/>
  <path class="cls-1" d="M147.28,149.81c-.06.42.4.79.79.79.47,0,.73-.36.79-.79.46-3.42-.81-6.98-3.27-9.39-.73-.71-1.84.4-1.12,1.12,2.2,2.15,3.22,5.24,2.81,8.28Z"/>
  <path class="cls-1" d="M113.34,98.44c-.2-.33-.11-.91.28-1.08.17-.07.34-.13.5-.19-.54-1.49-1.36-2.88-2.3-4.14-1.4-1.87-3.05-3.52-4.77-5.11-1.84-1.7-3.72-3.35-5.71-4.87-3.65-2.8-7.74-5.13-12.23-6.22-2.03.2-4.06.43-6.08.7-.42.06-.84-.09-.97-.55-.07-.24.01-.56.19-.76-1.76.13-3.5.49-5.16,1.1-2.08,1.94-4.13,3.9-6.17,5.89-.73.71-1.84-.41-1.12-1.12.09-.09.18-.17.27-.26-2.37,2.15-4.46,4.64-6.54,7.03-6.65,7.63-13.03,15.49-19.67,23.13-.75.87-1.51,1.73-2.27,2.59-.03.03-.04.07-.06.1,1.54-1.8,3.49-3.16,5.64-4.13,4.92-5.74,9.73-11.58,14.65-17.32,1.54-1.79,3.08-3.58,4.65-5.35,1.53-1.72,3.06-3.44,4.76-4.99,1.67-1.52,3.51-2.87,5.57-3.8,2.2-.99,4.63-1.4,7.03-1.38,4.84.05,9.42,1.86,13.46,4.43,2.04,1.3,3.96,2.79,5.79,4.37,1.78,1.53,3.54,3.12,5.17,4.81,3,3.12,5.71,7.1,4.71,11.63-.53,2.4-1.8,4.55-3.04,6.64-1.33,2.23-2.69,4.44-4.07,6.64-5.29,8.39-10.99,16.52-17.05,24.37-.41,1.83-1.12,3.59-2.08,5.21,6.66-8.34,12.91-17,18.7-25.97,1.47-2.28,2.92-4.59,4.34-6.91,1.33-2.17,2.74-4.35,3.76-6.69,1.01-2.3,1.52-4.73,1.08-7.24-.02-.11-.05-.22-.07-.33-.05.02-.09.03-.14.05-.39.17-.84.12-1.08-.28Z"/>
  <path class="cls-1" d="M113.62,97.36c-.39.17-.48.74-.28,1.08.24.41.69.45,1.08.28.04-.02.09-.03.14-.05-.11-.51-.25-1.01-.43-1.5-.17.07-.34.12-.5.19Z"/>
  <path class="cls-1" d="M82.27,76.21c-.18.21-.26.52-.19.76.13.46.55.61.97.55,2.02-.27,4.05-.51,6.08-.7-.37-.09-.73-.19-1.1-.26-1.91-.37-3.85-.49-5.75-.35Z"/>
  <path class="cls-1" d="M52.16,109.85c.12.45.55.62.97.55.42-.07.66-.59.55-.97-.12-.44-.55-.62-.97-.55-.42.07-.66.59-.55.97Z"/>
  <path class="cls-1" d="M85.48,146.01c-.32-.32-.27-.78,0-1.12.81-1.01,1.62-2.03,2.41-3.05.32-.41.62-.83.94-1.24.41-1.82.54-3.7.38-5.59-.48-5.45-3.08-10.54-6.63-14.63-3.22-3.7-7.32-6.67-11.77-8.72-4.51-2.09-9.48-3.32-14.47-3.15-1.22.04-2.43.17-3.63.37.42-.07.85.11.97.55.11.38-.13.9-.55.97,9.24-1.55,19.04,2.32,25.82,8.53,3.61,3.3,6.52,7.48,7.92,12.19,1.38,4.64,1.08,9.63-1.43,13.83-2.48,4.16-6.72,6.79-11.54,7.19-5.27.44-10.54-1.25-15.24-3.5-8.09-3.86-15.74-10.32-18.16-19.27-.92-3.4-1.03-7.09.28-10.41,1.45-3.69,4.68-6.19,8.33-7.51,1.31-.48,2.66-.82,4.03-1.06-.42.07-.85-.11-.97-.55-.1-.38.13-.9.55-.97-1.88.33-3.76.87-5.51,1.66-1.48,1.72-2.96,3.44-4.47,5.14-.65.73-1.67-.26-1.17-1.01-.32.38-.63.77-.91,1.19-2.14,3.18-2.75,7.16-2.27,10.91,1.22,9.52,8.34,17.01,16.38,21.61,8.87,5.07,21.99,8.9,29.95.18.78-.85,1.46-1.78,2.05-2.76-.05.07-.1.13-.16.2-.27.33-.84.28-1.12,0Z"/>
  <path class="cls-1" d="M42.74,115.69c1.5-1.7,2.99-3.42,4.47-5.14-2.15.97-4.11,2.32-5.64,4.13-.5.75.53,1.74,1.17,1.01Z"/>
  <path class="cls-1" d="M87.9,141.84c-.8,1.02-1.6,2.04-2.41,3.05-.27.33-.32.79,0,1.12.28.28.85.33,1.12,0,.05-.07.1-.13.16-.2.97-1.62,1.67-3.38,2.08-5.21-.32.41-.62.83-.94,1.24Z"/>
  <path class="cls-1" d="M72.45,118.81c-.23.4-.06.82.28,1.08.34.25.88.06,1.08-.28.23-.4.06-.83-.28-1.08-.34-.25-.88-.06-1.08.28Z"/>
  <path class="cls-1" d="M42.91,121.11c-1.42,3.86.11,8.19,2.11,11.55,2.1,3.54,5.08,6.56,8.27,9.14,3.2,2.58,6.75,4.72,10.62,6.11,3.67,1.32,7.85,2.12,11.72,1.25,1.84-.41,3.6-1.28,4.91-2.65,1.38-1.43,2.23-3.31,2.67-5.23,1.72-7.63-1.87-15.76-7.45-20.91-.71-.66-1.46-1.26-2.24-1.84.34.25.52.68.28,1.08-.2.34-.73.53-1.08.28,5.71,4.23,9.63,11.2,9.3,18.4-.16,3.53-1.5,7.11-4.88,8.71-3.22,1.52-7.18,1.01-10.5.12-3.69-.99-7.13-2.74-10.25-4.93-3.11-2.19-6.03-4.85-8.36-7.87-1.16-1.51-2.17-3.15-2.92-4.9-.72-1.7-1.25-3.56-1.19-5.43.13-3.67,2.89-6.67,6.05-8.23,3.19-1.57,6.91-1.66,10.36-1.08,3.6.61,7.1,1.92,10.24,3.78.74.44,1.46.91,2.15,1.42-.34-.25-.52-.68-.28-1.08.2-.34.74-.54,1.08-.28-3.13-2.29-6.77-3.93-10.52-4.89-3.7-.94-7.79-1.29-11.49-.17-3.79,1.15-7.22,3.85-8.61,7.64Z"/>
  <path class="cls-1" d="M80.1,82.31c6.28.47,12.34,3.08,17,7.31.75.68,1.87-.43,1.12-1.12-4.99-4.52-11.41-7.27-18.12-7.77-1.01-.08-1.01,1.5,0,1.58Z"/>
  <path class="cls-1" d="M101,93.3c2.17,1.63,4.04,3.66,5.5,5.95.54.85,1.91.06,1.36-.8-1.61-2.53-3.66-4.73-6.06-6.52-.34-.26-.88-.06-1.08.28-.24.4-.06.82.28,1.08Z"/>
  <path class="cls-1" d="M61.56,118.4c-4.54-2.28-10.18-1.6-14.06,1.67-.78.66.34,1.77,1.12,1.12,3.31-2.79,8.29-3.36,12.15-1.43.9.45,1.7-.91.8-1.36Z"/>
  <path class="cls-1" d="M65.23,121.71s0,0,0,0c.08.03.08.03,0,0Z"/>
  <path class="cls-1" d="M68.01,123.33s.03.02.04.03c-.04-.03-.05-.04-.04-.03Z"/>
  <path class="cls-1" d="M65.17,120c-.39-.14-.88.16-.97.55-.1.45.14.82.55.97.16.06.33.12.49.19,0,0,0,0,0,0,0,0,0,0,0,0,.09.04.09.04,0,0,.04.02.08.03.11.05.08.04.16.07.24.11.32.15.63.31.93.48s.6.36.89.55c.14.1.29.2.43.3.06.04.11.08.17.12,0,0,0,0,.04.03-.01-.01-.03-.02-.04-.03.01.01.12.1.14.11.17.14.33.23.56.23.19,0,.42-.09.56-.23.26-.29.34-.84,0-1.12-1.24-1-2.61-1.78-4.1-2.33Z"/>
  <path class="cls-1" d="M204.31,77.88c.13-.18.24-.37.37-.56-1.24-2.14-3.46-3.82-5.33-5.24-1.34-1.01-2.73-1.96-4.09-2.95-1.54-1.12-3.07-2.23-4.65-3.28-1.61-1.08-3.26-2.11-4.93-3.09-1.31-.77-2.66-1.62-4.12-2.12-.17.25-.36.5-.53.75-.56.84-1.92.05-1.36-.8.08-.11.16-.23.23-.34-1.53-.17-3.09.18-4.42.98-1.5.91-2.66,2.26-3.76,3.6-.02.03-.03.06-.04.08.48.23.96.46,1.43.7,1.66-2,3.62-4.02,6.44-3.83,1.67.12,3.2,1.09,4.62,1.91,1.57.91,3.12,1.86,4.64,2.85,2.83,1.84,5.55,3.86,8.3,5.83,1.29.93,2.57,1.88,3.75,2.95,1.11,1,2.29,2.14,2.86,3.56.31.78.44,1.64.24,2.46-.22.89-.75,1.66-1.27,2.39-.97,1.34-1.96,2.66-2.94,3.98.3.51.56,1.04.77,1.59,1.11-1.5,2.23-3,3.34-4.51,1.06-1.44,1.97-3.02,1.75-4.87-.04-.34-.12-.68-.21-1-.63.33-1.55-.34-1.07-1.06Z"/>
  <path class="cls-1" d="M199.03,89.85c-.08-.21-.17-.41-.27-.61,0,.23.1.46.27.61Z"/>
  <path class="cls-1" d="M207.56,58.2c-1.84-1.24-3.7-2.44-5.59-3.6-1.85-1.14-3.72-2.37-5.7-3.27-1.68-.76-3.43-1.1-5.24-.67-1.51.36-2.91,1.15-4.15,2.06-2.77,2.03-5.07,4.71-6.98,7.54.24.03.47.06.71.11.32.07.64.17.95.27,1.47-2.11,3.16-4.09,5.12-5.76,2.17-1.85,4.92-3.48,7.84-2.55,1.88.6,3.6,1.79,5.28,2.8,1.76,1.06,3.5,2.16,5.23,3.28,1.55,1.01,3.22,1.99,4.58,3.25.57.53,1.09,1.14,1.36,1.87.31.82.3,1.7.1,2.54-.51,2.14-1.85,4.07-2.98,5.92-1.09,1.81-2.24,3.58-3.41,5.33.3.51.53,1.05.7,1.62.11-.06.21-.14.3-.27,1.24-1.82,2.44-3.68,3.59-5.56,1.12-1.83,2.34-3.68,3.06-5.71.66-1.86.67-3.92-.49-5.58-1.08-1.55-2.73-2.58-4.27-3.62Z"/>
  <path class="cls-1" d="M204.31,77.88c-.49.72.43,1.39,1.07,1.06-.16-.57-.4-1.11-.7-1.62-.12.18-.24.37-.37.56Z"/>
  <path class="cls-1" d="M181.03,61.38c.17-.25.35-.5.53-.75-.31-.11-.63-.2-.95-.27-.24-.05-.47-.09-.71-.11-.08.11-.16.23-.23.34-.56.85.8,1.64,1.36.8Z"/>
  <path class="cls-1" d="M108.97,50.63c.92-.92,1.78-1.89,2.67-2.84,1.63-1.74,3.71-3.2,6.21-2.81,1.41.22,2.77.77,4.11,1.23,1.39.47,2.78.96,4.16,1.46,2.7.98,5.39,2,8.06,3.07,1.46.59,2.97,1.13,4.39,1.83.13.06.25.13.38.2-.43-.22-.69-.82-.26-1.28.13-.14.26-.28.39-.42-.45-.21-.92-.39-1.37-.58-2.98-1.24-5.98-2.43-9-3.55-3-1.11-6.02-2.27-9.09-3.16-.26-.08-.53-.14-.8-.2-.22.26-.44.51-.65.77-.62.74-1.63-.23-1.18-.99-.57,0-1.14.05-1.7.2-1.31.34-2.47,1.07-3.49,1.93-1.18.99-2.12,2.21-3.2,3.3-1.21,1.23-2.46,2.42-3.56,3.74-.06.08-.1.16-.13.23.72-.04,1.43-.09,2.15-.12.63-.68,1.27-1.35,1.93-2.01Z"/>
  <path class="cls-1" d="M138.97,52.78c.4.23.79.52.99.94.18.37.22.83-.05,1.16.54.1,1.08.2,1.62.31.29-.81.15-1.76-.34-2.49-.21-.31-.47-.58-.75-.81-.21.25-.42.49-.63.72-.26.28-.57.3-.83.17Z"/>
  <path class="cls-1" d="M138.95,52.77s.01,0,.02.01c0,0-.02,0-.02-.01Z"/>
  <path class="cls-1" d="M122.09,40.69c.72-.4,1.51-.65,2.33-.65,1.03,0,2.03.36,2.96.76,2.1.91,4.18,1.89,6.27,2.83,1.04.47,2.08.94,3.13,1.41.91.41,1.88.78,2.73,1.31.85.54,1.25,1.36,1.01,2.37-.22.91-.81,1.66-1.44,2.34.49.23.95.49,1.36.82,1.27-1.53,2.36-3.45,1.33-5.41-.49-.92-1.4-1.5-2.3-1.94-1.12-.54-2.27-1.03-3.41-1.55-2.38-1.08-4.76-2.15-7.14-3.23-2.1-.95-4.29-1.78-6.57-.92-2.2.83-3.82,2.62-5.3,4.38-.03.04-.04.08-.07.12.61,0,1.23.09,1.84.22.96-1.11,2-2.17,3.27-2.88Z"/>
  <path class="cls-1" d="M138.69,51.49c-.42.46-.16,1.06.26,1.28,0,0,.02,0,.02.01.26.12.57.1.83-.17.21-.23.42-.47.63-.72-.41-.33-.87-.59-1.36-.82-.13.14-.26.28-.39.42Z"/>
  <path class="cls-1" d="M118.16,44.34c.21-.26.43-.51.65-.77-.61-.13-1.22-.22-1.84-.22-.45.76.56,1.73,1.18.99Z"/>
  <path class="cls-1" d="M193.91,56.56c2.06.8,4.05,1.79,5.94,2.93.87.53,1.67-.84.8-1.36-2.01-1.21-4.13-2.24-6.32-3.09-.4-.15-.87.17-.97.55-.12.45.15.82.55.97Z"/>
  <path class="cls-1" d="M207.5,64.6s0,0,0,0c.09.07-.1-.08,0,0Z"/>
  <path class="cls-1" d="M204.35,62.63c.64.32,1.26.67,1.86,1.06.3.19.59.39.87.59.14.1.28.21.42.31,0,0,0,0,0,0,0,0,0,0,0,0-.09-.07.09.07,0,0,.03.03.07.05.1.08.08.06.15.12.23.19.32.26.81.34,1.12,0,.26-.29.34-.84,0-1.12-1.18-.96-2.44-1.8-3.8-2.48-.37-.19-.87-.11-1.08.28-.19.36-.11.88.28,1.08Z"/>
  <path class="cls-1" d="M104.24,53.38c.21.37.07.74-.21,1,8.72-.57,17.47-.46,26.15.57,8.75,1.04,17.45,2.92,25.87,5.51,4.19,1.29,8.33,2.8,12.33,4.59,4.01,1.8,7.87,3.91,11.6,6.23,3.68,2.29,7.23,4.8,10.45,7.71,1.62,1.47,3.16,3.03,4.55,4.72,1.26,1.53,2.49,3.19,3.47,4.92.11.19.21.39.31.59,0-.13.03-.25.1-.35.29-.39.58-.77.87-1.16-.33-.57-.7-1.13-1.07-1.66-1.23-1.76-2.5-3.47-3.96-5.05-3.02-3.29-6.52-6.11-10.19-8.63-3.65-2.52-7.46-4.77-11.4-6.76-.09.11-.18.22-.27.33-.62.76-1.66-.26-1.16-1.03-3.63-1.76-7.37-3.32-11.2-4.65-6.17-2.14-12.53-3.81-18.96-5.08-.11.32-.29.62-.54.87-.72.71-1.84-.4-1.12-1.12.02-.02.03-.05.04-.07-1.97-.37-3.95-.7-5.92-.99-8.88-1.3-17.85-1.68-26.81-1.26-.05,0-.1,0-.14,0-.3.33-.61.66-.9,1-.59.7-1.54-.14-1.24-.88-.4.02-.8.04-1.2.07-.26.02-.46.14-.58.31.02-.01.03-.03.05-.04.34-.26.88-.05,1.08.28Z"/>
  <path class="cls-1" d="M199.15,89.96s-.08-.07-.12-.11c.16.42.28.86.33,1.32.1.96-.15,1.88-.56,2.73-.94,1.94-2.42,3.64-3.71,5.35-2.54,3.35-5.2,6.61-7.97,9.77-.5.57-1.01,1.13-1.51,1.69.1.35.19.7.25,1.05.05.29.09.58.11.87.03-.02.06-.03.08-.06,2.94-3.23,5.76-6.57,8.46-10.01,1.4-1.78,2.77-3.58,4.11-5.41,1.21-1.65,2.42-3.56,2.35-5.68-.02-.75-.19-1.47-.45-2.16-.09.12-.18.25-.27.37-.25.34-.68.52-1.08.28Z"/>
  <path class="cls-1" d="M185.59,110.71c-.22.25-.44.5-.67.75-.66.72.35,1.77,1.03,1.17-.03-.29-.06-.58-.11-.87-.06-.36-.15-.71-.25-1.05Z"/>
  <path class="cls-1" d="M198.87,88.89c-.08.1-.1.23-.1.35.1.2.19.41.27.61.04.04.07.08.12.11.4.23.82.06,1.08-.28.09-.12.18-.25.27-.37-.21-.55-.47-1.08-.77-1.59-.29.39-.58.77-.87,1.16Z"/>
  <path class="cls-1" d="M172.84,65.95c.09-.11.18-.22.27-.33-.47-.24-.96-.47-1.43-.7-.5.77.54,1.79,1.16,1.03Z"/>
  <path class="cls-1" d="M106.13,53.64c.29-.35.6-.67.9-1-.72.03-1.43.08-2.15.12-.29.74.65,1.58,1.24.88Z"/>
  <path class="cls-1" d="M139.86,54.94c-.72.71.39,1.83,1.12,1.12.26-.25.43-.55.54-.87-.54-.11-1.08-.21-1.62-.31-.02.02-.02.05-.04.07Z"/>
  <path class="cls-1" d="M77.11,77.3c6.31-5.9,12.81-11.59,19.5-17.05,2.42-1.97,4.86-3.91,7.34-5.8.03-.02.05-.05.07-.07-.11,0-.23.01-.34.02-.75.05-.94-.79-.58-1.27-9.21,7.01-18,14.59-26.48,22.47-2.2,2.04-4.37,4.11-6.53,6.21,1.15-1.05,2.36-2.02,3.67-2.86,1.07-.68,2.18-1.23,3.33-1.65Z"/>
  <path class="cls-1" d="M70.94,83.19c2.03-1.98,4.09-3.94,6.17-5.89-1.15.43-2.27.97-3.33,1.65-1.31.84-2.52,1.81-3.67,2.86-.09.09-.18.17-.27.26-.73.71.39,1.82,1.12,1.12Z"/>
  <path class="cls-1" d="M103.69,54.41c.11,0,.23-.01.34-.02.28-.26.42-.64.21-1-.19-.33-.74-.54-1.08-.28-.02.01-.03.03-.05.04-.36.47-.17,1.32.58,1.27Z"/>
  <path class="cls-1" d="M192.52,94.38c-1.94,2.06-3.72,4.27-5.31,6.6-.24.35-.07.87.28,1.08.39.23.84.07,1.08-.28,1.52-2.22,3.22-4.32,5.06-6.28.7-.74-.42-1.86-1.12-1.12Z"/>
  <path class="cls-1" d="M197.26,90.2c-.21,0-.41.08-.56.23-.54.58-1.09,1.16-1.63,1.75-.14.15-.23.35-.23.56,0,.19.09.42.23.56.15.14.35.24.56.23.21,0,.41-.08.56-.23.54-.58,1.09-1.16,1.63-1.75.14-.15.23-.35.23-.56,0-.19-.09-.42-.23-.56-.15-.14-.35-.24-.56-.23Z"/>
  <path class="cls-1" d="M170.23,70.54c-6.03-2.98-12.28-5.51-18.69-7.54-6.4-2.03-12.96-3.57-19.6-4.59-3.75-.58-7.51-1-11.29-1.25-1.01-.07-1.01,1.51,0,1.58,6.6.45,13.17,1.4,19.62,2.85,6.44,1.45,12.76,3.38,18.91,5.78,3.48,1.36,6.91,2.88,10.26,4.54.91.45,1.71-.91.8-1.36Z"/>
  <path class="cls-1" d="M189.03,82.55c-4.23-3.76-8.9-7.01-13.91-9.66-.9-.47-1.69.89-.8,1.36,4.89,2.58,9.46,5.74,13.59,9.41.76.67,1.88-.44,1.12-1.12Z"/>
</svg>