<svg width="281" height="231" viewBox="0 0 281 231" fill="none" xmlns="http://www.w3.org/2000/svg">
<path d="M95.5469 175.984C92.1094 175.984 88.9583 175.438 86.0938 174.344C83.2292 173.25 80.7812 171.661 78.75 169.578C76.7708 167.547 75.3125 165.125 74.375 162.312C73.4375 159.5 73.099 156.401 73.3594 153.016L75.5469 130.672L75.4688 123.562L80.9375 92.3906C81.3021 90.5677 82.2656 89.6562 83.8281 89.6562C84.6094 89.6562 85.2604 89.9688 85.7812 90.5938C86.3021 91.2188 86.5365 92.026 86.4844 93.0156L84.375 152.547C84.2708 155.828 85.2344 158.51 87.2656 160.594C89.349 162.677 92.0833 163.719 95.4688 163.719H184.531C187.865 163.719 190.547 162.677 192.578 160.594C194.661 158.51 195.651 155.828 195.547 152.547L193.438 93.0156C193.438 92.026 193.672 91.2188 194.141 90.5938C194.661 89.9688 195.339 89.6562 196.172 89.6562C197.734 89.6562 198.672 90.5677 198.984 92.3906L204.531 123.562L204.453 130.672L206.562 153.016C206.875 156.401 206.536 159.5 205.547 162.312C204.609 165.125 203.125 167.547 201.094 169.578C199.115 171.661 196.693 173.25 193.828 174.344C191.016 175.438 187.865 175.984 184.375 175.984H95.5469ZM60.2344 176.375L36.875 169.734C32.6562 168.589 29.8177 166.401 28.3594 163.172C26.901 159.995 26.7448 156.297 27.8906 152.078L59.2188 40.4375C60.1042 37.2604 61.6146 34.5 63.75 32.1562C65.9375 29.8125 68.9844 27.9115 72.8906 26.4531L97.5781 17.0781L94.9219 30.3594L77.6562 36.4531C75.4167 37.2344 73.6979 38.4062 72.5 39.9688C71.3542 41.5312 70.4688 43.4844 69.8438 45.8281L40.1562 154.266C39.8438 155.464 39.8438 156.427 40.1562 157.156C40.4688 157.885 41.1719 158.406 42.2656 158.719L62.9688 164.188C63.8021 164.396 64.5052 164.344 65.0781 164.031C65.7031 163.771 66.1458 163.146 66.4062 162.156L77.2656 115.359L82.5781 143.719L76.875 169.5C75.9896 173.51 73.9844 175.932 70.8594 176.766C67.7865 177.651 64.2448 177.521 60.2344 176.375ZM134.375 171.922V44.5781H145.703V171.922H134.375ZM219.766 176.375C215.755 177.521 212.188 177.651 209.062 176.766C205.99 175.932 204.01 173.51 203.125 169.5L197.344 143.719L202.656 115.359L213.594 162.156C213.802 163.146 214.219 163.771 214.844 164.031C215.469 164.344 216.172 164.396 216.953 164.188L237.656 158.719C238.75 158.406 239.453 157.885 239.766 157.156C240.13 156.427 240.13 155.464 239.766 154.266L210.078 45.8281C209.453 43.4844 208.542 41.5312 207.344 39.9688C206.198 38.4062 204.531 37.2344 202.344 36.4531L185 30.3594L182.422 17.0781L207.031 26.4531C210.938 27.9115 213.984 29.8125 216.172 32.1562C218.359 34.5 219.896 37.2604 220.781 40.4375L252.031 152.078C253.229 156.297 253.099 159.995 251.641 163.172C250.182 166.401 247.344 168.589 243.125 169.734L219.766 176.375ZM127.344 58.7188C124.844 61.4271 122.031 62.625 118.906 62.3125C115.781 61.9479 113.125 60.3333 110.938 57.4688L90.7812 30.2031C89.6875 28.7448 89.0365 27.1562 88.8281 25.4375C88.6198 23.6667 89.1406 22.2083 90.3906 21.0625L105.703 7C107.161 5.64583 108.568 4.57812 109.922 3.79688C111.328 2.96354 113.62 2.54688 116.797 2.54688H163.281C166.458 2.54688 168.724 2.96354 170.078 3.79688C171.484 4.57812 172.917 5.64583 174.375 7L189.688 21.0625C190.938 22.2083 191.458 23.6667 191.25 25.4375C191.042 27.1562 190.391 28.7448 189.297 30.2031L169.141 57.4688C166.953 60.3333 164.297 61.9479 161.172 62.3125C158.047 62.625 155.234 61.4271 152.734 58.7188L137.578 42.3125H142.5L127.344 58.7188ZM123.047 50.3594L134.688 37.4688C136.406 35.5938 136.354 33.7448 134.531 31.9219L117.188 13.7188C116.562 13.0417 115.807 12.7031 114.922 12.7031C114.089 12.7031 113.359 12.9896 112.734 13.5625L101.25 23.9531C100.573 24.526 100.234 25.2292 100.234 26.0625C100.234 26.8438 100.469 27.5469 100.938 28.1719L117.266 50.0469C118.047 51.1406 118.984 51.7135 120.078 51.7656C121.224 51.7656 122.214 51.2969 123.047 50.3594ZM157.109 50.3594C157.943 51.2969 158.906 51.7656 160 51.7656C161.146 51.7135 162.135 51.1406 162.969 50.0469L179.219 28.1719C179.74 27.4948 179.974 26.7917 179.922 26.0625C179.922 25.2812 179.583 24.5781 178.906 23.9531L167.5 13.5625C166.823 12.9375 166.068 12.651 165.234 12.7031C164.401 12.7031 163.672 13.0417 163.047 13.7188L145.625 31.9219C143.854 33.7448 143.802 35.5938 145.469 37.4688L157.109 50.3594ZM104.531 133.797C103.281 134.734 101.901 135.073 100.391 134.812C98.9323 134.552 97.7604 133.797 96.875 132.547C95.9896 131.297 95.651 129.943 95.8594 128.484C96.1198 126.974 96.875 125.75 98.125 124.812L113.359 113.797C114.609 112.911 115.99 112.599 117.5 112.859C119.01 113.068 120.208 113.771 121.094 114.969C121.979 116.219 122.292 117.599 122.031 119.109C121.823 120.568 121.094 121.766 119.844 122.703L104.531 133.797ZM175.469 133.797L160.234 122.703C158.932 121.766 158.177 120.568 157.969 119.109C157.76 117.599 158.099 116.219 158.984 114.969C159.87 113.771 161.068 113.068 162.578 112.859C164.089 112.599 165.443 112.911 166.641 113.797L181.875 124.812C183.177 125.75 183.932 126.974 184.141 128.484C184.401 129.943 184.089 131.297 183.203 132.547C182.266 133.797 181.042 134.552 179.531 134.812C178.073 135.073 176.719 134.734 175.469 133.797Z" fill="black"/>
</svg>
