<?xml version="1.0" encoding="UTF-8"?>
<svg height="600" width="800" xmlns="http://www.w3.org/2000/svg" xmlns:xlink="http://www.w3.org/1999/xlink">
    <g id="Notes" font-family="'LucidaGrande', 'Lucida Grande', sans-serif" font-size="13">
        <rect fill="white" height="600.0" width="800.0" x="0.0" y="0.0" />
        <g font-size="13">
            <text x="18.0" y="176.0">Small</text>
            <text x="18.0" y="376.0">Medium</text>
            <text x="18.0" y="576.0">Large</text>
        </g>
        <g font-size="9">
            <text x="250.0" y="30.0">Ultralight</text>
            <text x="450.0" y="30.0">Regular</text>
            <text x="650.0" y="30.0">Black</text>
            <text id="template-version" fill="#505050" text-anchor="end" x="785.0" y="575.0">Template v.3.0</text>
            <a href="https://github.com/swhitty/SwiftDraw">
                <text fill="#505050" text-anchor="end" x="785.0" y="590.0">https://github.com/swhitty/SwiftDraw</text>
            </a>
        </g>
    </g>
    <g id="Guides" stroke="rgb(39, 170, 225)" stroke-width="0.5">
        <path id="Capline-S" d="M18,76 l800,0" />
        <path id="H-reference" d="M85,145.755 L87.685,145.755 L113.369,79.287 L114.052,79.287 L114.052,76 L112.148,76 L85,145.755 Z M95.693,121.536 L130.996,121.536 L130.263,119.313 L96.474,119.313 L95.693,121.536 Z M139.15,145.755 L141.787,145.755 L114.638,76 L113.466,76 L113.466,79.287 L139.15,145.755 Z" stroke="none" />
        <path id="Baseline-S" d="M18,146 l800,0" />
        <path id="left-margin-Ultralight-S" d="M221,56 l0,110" />
        <path id="right-margin-Ultralight-S" d="M309,56 l0,110" />
        <path id="left-margin-Regular-S" d="M421,56 l0,110" />
        <path id="right-margin-Regular-S" d="M509,56 l0,110" />
        <path id="left-margin-Black-S" d="M621,56 l0,110" />
        <path id="right-margin-Black-S" d="M709,56 l0,110" />
        <path id="Capline-M" d="M18,276 l800,0" />
        <path id="Baseline-M" d="M18,346 l800,0" />
        <path id="Capline-L" d="M18,476 l800,0" />
        <path id="Baseline-L" d="M18,546 l800,0" />
    </g>
    <g id="Symbols">
        <g id="Ultralight-S">
            <path d="M246.453,117.287 C246.815,117.833 246.911,118.498 246.966,119.145 C247.031,119.953 247.065,120.846 247.295,121.596 C247.568,122.616 248.463,123.586 249.575,123.52 C250.126,123.498 250.641,123.159 250.939,122.663 C251.382,121.964 251.439,121.014 251.741,120.242 C252.065,119.351 252.767,119.023 253.683,119.09 C254.82,119.168 256.148,119.652 257.324,119.848 C258.216,120.018 259.115,120.143 260.022,120.213 C261.802,120.343 263.649,120.308 265.266,119.553 C266.022,119.223 266.958,118.513 267.528,118.111 C268.222,117.608 268.158,118.198 268.15,118.715 C267.859,123.997 267.086,139.648 266.765,144.72 C266.633,145.637 266.108,145.826 265.06,145.947 C258.835,146.401 252.906,143.856 247.378,141.222 C245.424,140.263 243.481,139.162 242.007,137.539 C239.816,135.121 238.943,131.76 238.421,128.583 C237.816,124.693 237.996,120.755 238.277,116.829 C238.312,116.307 238.346,115.741 238.472,115.251 C238.94,113.422 240.467,114.323 241.745,114.835 C243.221,115.519 245.508,115.903 246.445,117.276 L246.452,117.287 L246.453,117.287 Z" />
            <path d="M277.122,101.471 C273.193,98.261 268.571,100.622 264.914,103.092 C263.779,103.865 262.696,104.814 261.59,105.59 C260.445,106.392 259.207,107.074 257.802,107.064 C256.825,107.096 255.525,106.564 254.547,105.785 C251.897,103.783 250.364,100.793 248.501,98.119 C248.448,98.028 248.341,97.925 248.379,97.832 C248.748,97.218 253.164,95.626 254.23,95.242 C254.324,95.217 254.379,95.127 254.399,95.026 C254.649,93.726 253.144,91.939 252.008,91.722 C251.866,91.696 251.754,91.688 251.622,91.712 C251.119,91.813 249.797,92.201 249.092,92.449 C248.159,92.763 246.077,94.536 245.366,93.274 C244.113,91.342 241.903,88.248 242.566,86.189 C242.805,85.417 243.499,84.709 244.24,84.211 C253.536,77.941 266.425,79.182 272.32,89.626 C274.326,92.777 276.439,96.316 277.215,99.688 C277.289,100.004 277.615,101.534 277.133,101.474 L277.122,101.47 L277.122,101.471 Z" />
            <path d="M279.733,137.046 C278.43,141.784 271.013,150.205 270.021,140.589 C269.696,137.612 269.951,133.972 270.061,130.653 C270.222,126.743 270.385,122.83 270.601,119.036 C270.891,114.569 271.216,109.38 273.158,105.399 C274.437,102.741 276.718,101.621 278.493,104.681 C279.842,107.06 280.274,110.065 280.585,112.986 C280.898,116.157 281.037,119.316 281.132,122.498 C281.283,127.422 281.233,132.37 279.738,137.03 L279.733,137.045 L279.733,137.046 Z" />
            <path d="M283.964,135.267 C283.602,135.13 283.574,134.687 283.537,134.341 C283.486,133.622 283.42,132.652 283.373,131.894 C283.33,131.308 283.427,130.819 283.948,130.504 C285.053,129.875 285.868,129.138 286.365,127.957 C287.41,125.482 287.121,122.567 287.076,119.942 C286.891,114.508 286.565,108.051 285.632,102.62 C285.468,101.76 285.23,100.828 284.894,100.028 C284.065,97.984 282.592,96.793 280.376,97.801 C279.693,98.085 279.146,98.253 278.542,97.693 C278.27,97.456 278.011,97.165 277.753,96.905 C277.411,96.55 277.076,96.226 276.923,95.945 C276.628,95.463 277.001,95.055 277.412,94.745 C283.202,90.394 288.005,92.997 289.701,99.321 C290.777,103.143 290.645,107.183 290.962,111.098 C291.663,119.287 294.767,132.581 284.972,135.186 C284.564,135.29 284.209,135.351 283.973,135.269 L283.963,135.266 L283.964,135.267 Z" />
            <path d="M276.968,92.097 C276.914,92.13 276.871,92.09 276.838,92.046 C276.388,91.374 275.786,90.46 275.26,89.665 C274.941,89.185 274.645,88.737 274.446,88.436 C274.328,88.244 274.163,88.074 274.233,87.922 C275.135,86.188 277.141,84.174 277.541,82.405 C277.607,81.739 277.142,81.263 276.601,80.72 C276.365,80.499 276.124,80.301 275.876,80.114 C275.591,79.917 275.415,79.751 275.191,79.681 C275.119,79.67 275.07,79.709 275.021,79.761 C274.663,80.153 273.388,81.558 272.453,82.587 C271.971,83.117 271.582,83.549 271.45,83.689 C271.418,83.719 271.388,83.748 271.347,83.722 C270.866,83.2 269.659,81.719 269.159,81.127 C269.059,81.01 269.08,80.891 269.162,80.766 C269.32,80.493 269.698,80.064 270.142,79.607 C271.093,78.653 271.77,78.014 272.617,77.319 C273.517,76.59 274.611,75.795 275.766,76.048 C277.782,76.625 281.441,80.47 281.732,82.362 C281.831,83.153 281.632,83.826 281.362,84.635 C280.408,87.182 278.57,90.004 276.974,92.095 L276.969,92.098 L276.968,92.097 Z" />
            <path d="M268.842,78.827 C268.265,79.345 267.415,80.109 266.797,80.664 C266.489,80.939 266.277,81.131 266.283,81.125 C266.274,81.12 266.266,81.116 266.25,81.106 C265.578,80.711 264.227,79.921 263.544,79.52 C264.796,77.979 267.168,78.011 268.839,78.825 L268.842,78.827 Z" />
        </g>
        <g id="Regular-S">
            <path d="M446.453,117.287 C446.815,117.833 446.911,118.498 446.966,119.145 C447.031,119.953 447.065,120.846 447.295,121.596 C447.568,122.616 448.463,123.586 449.575,123.52 C450.126,123.498 450.641,123.159 450.939,122.663 C451.382,121.964 451.439,121.014 451.741,120.242 C452.065,119.351 452.767,119.023 453.683,119.09 C454.82,119.168 456.148,119.652 457.324,119.848 C458.216,120.018 459.115,120.143 460.022,120.213 C461.802,120.343 463.649,120.308 465.266,119.553 C466.022,119.223 466.958,118.513 467.528,118.111 C468.222,117.608 468.158,118.198 468.15,118.715 C467.859,123.997 467.086,139.648 466.765,144.72 C466.633,145.637 466.108,145.826 465.06,145.947 C458.835,146.401 452.906,143.856 447.378,141.222 C445.424,140.263 443.482,139.162 442.007,137.539 C439.816,135.121 438.943,131.76 438.421,128.583 C437.816,124.693 437.996,120.755 438.277,116.829 C438.312,116.307 438.346,115.741 438.472,115.251 C438.94,113.422 440.467,114.323 441.745,114.835 C443.221,115.519 445.508,115.903 446.445,117.276 L446.452,117.287 L446.453,117.287 Z" />
            <path d="M477.122,101.471 C473.193,98.261 468.571,100.622 464.914,103.092 C463.779,103.865 462.696,104.814 461.59,105.59 C460.445,106.392 459.207,107.074 457.802,107.064 C456.825,107.096 455.525,106.564 454.547,105.785 C451.897,103.783 450.364,100.793 448.501,98.119 C448.448,98.028 448.341,97.925 448.379,97.832 C448.748,97.218 453.164,95.626 454.23,95.242 C454.324,95.217 454.379,95.127 454.399,95.026 C454.649,93.726 453.144,91.939 452.008,91.722 C451.866,91.696 451.754,91.688 451.622,91.712 C451.119,91.813 449.797,92.201 449.092,92.449 C448.159,92.763 446.077,94.536 445.366,93.274 C444.113,91.342 441.903,88.248 442.566,86.189 C442.805,85.417 443.499,84.709 444.24,84.211 C453.536,77.941 466.425,79.182 472.32,89.626 C474.326,92.777 476.439,96.316 477.215,99.688 C477.289,100.004 477.615,101.534 477.133,101.474 L477.122,101.47 L477.122,101.471 Z" />
            <path d="M479.733,137.046 C478.43,141.784 471.013,150.205 470.021,140.589 C469.696,137.612 469.951,133.972 470.061,130.653 C470.222,126.743 470.385,122.83 470.601,119.036 C470.891,114.569 471.216,109.38 473.158,105.399 C474.437,102.741 476.718,101.621 478.493,104.681 C479.842,107.06 480.274,110.065 480.585,112.986 C480.898,116.157 481.037,119.316 481.132,122.498 C481.283,127.422 481.233,132.37 479.738,137.03 L479.733,137.045 L479.733,137.046 Z" />
            <path d="M483.964,135.267 C483.602,135.13 483.574,134.687 483.537,134.341 C483.486,133.622 483.42,132.652 483.373,131.894 C483.33,131.308 483.427,130.819 483.948,130.504 C485.053,129.875 485.868,129.138 486.365,127.957 C487.41,125.482 487.121,122.567 487.076,119.942 C486.891,114.508 486.565,108.051 485.632,102.62 C485.468,101.76 485.23,100.828 484.894,100.028 C484.065,97.984 482.592,96.793 480.376,97.801 C479.693,98.085 479.146,98.253 478.542,97.693 C478.27,97.456 478.011,97.165 477.753,96.905 C477.411,96.55 477.076,96.226 476.923,95.945 C476.628,95.463 477.001,95.055 477.412,94.745 C483.202,90.394 488.005,92.997 489.701,99.321 C490.777,103.143 490.645,107.183 490.962,111.098 C491.663,119.287 494.767,132.581 484.972,135.186 C484.564,135.29 484.209,135.351 483.973,135.269 L483.963,135.266 L483.964,135.267 Z" />
            <path d="M476.968,92.097 C476.914,92.13 476.871,92.09 476.838,92.046 C476.388,91.374 475.786,90.46 475.26,89.665 C474.941,89.185 474.645,88.737 474.446,88.436 C474.328,88.244 474.163,88.074 474.233,87.922 C475.135,86.188 477.141,84.174 477.541,82.405 C477.607,81.739 477.142,81.263 476.601,80.72 C476.365,80.499 476.124,80.301 475.876,80.114 C475.591,79.917 475.415,79.751 475.191,79.681 C475.119,79.67 475.07,79.709 475.021,79.761 C474.663,80.153 473.388,81.558 472.453,82.587 C471.971,83.117 471.582,83.549 471.45,83.689 C471.418,83.719 471.388,83.748 471.347,83.722 C470.866,83.2 469.659,81.719 469.159,81.127 C469.059,81.01 469.08,80.891 469.162,80.766 C469.32,80.493 469.698,80.064 470.142,79.607 C471.093,78.653 471.77,78.014 472.617,77.319 C473.517,76.59 474.611,75.795 475.766,76.048 C477.782,76.625 481.441,80.47 481.732,82.362 C481.831,83.153 481.632,83.826 481.362,84.635 C480.408,87.182 478.57,90.004 476.974,92.095 L476.969,92.098 L476.968,92.097 Z" />
            <path d="M468.842,78.827 C468.265,79.345 467.415,80.109 466.797,80.664 C466.489,80.939 466.277,81.131 466.283,81.125 C466.274,81.12 466.266,81.116 466.25,81.106 C465.578,80.711 464.227,79.921 463.544,79.52 C464.796,77.979 467.168,78.011 468.839,78.825 L468.842,78.827 Z" />
        </g>
        <g id="Black-S">
            <path d="M646.453,117.287 C646.815,117.833 646.911,118.498 646.966,119.145 C647.031,119.953 647.065,120.846 647.295,121.596 C647.568,122.616 648.463,123.586 649.575,123.52 C650.126,123.498 650.641,123.159 650.939,122.663 C651.382,121.964 651.439,121.014 651.741,120.242 C652.065,119.351 652.767,119.023 653.683,119.09 C654.82,119.168 656.148,119.652 657.324,119.848 C658.216,120.018 659.115,120.143 660.022,120.213 C661.802,120.343 663.649,120.308 665.266,119.553 C666.022,119.223 666.958,118.513 667.528,118.111 C668.222,117.608 668.158,118.198 668.15,118.715 C667.859,123.997 667.086,139.648 666.765,144.72 C666.633,145.637 666.108,145.826 665.06,145.947 C658.835,146.401 652.906,143.856 647.378,141.222 C645.424,140.263 643.482,139.162 642.007,137.539 C639.816,135.121 638.943,131.76 638.421,128.583 C637.816,124.693 637.996,120.755 638.277,116.829 C638.312,116.307 638.346,115.741 638.472,115.251 C638.94,113.422 640.467,114.323 641.745,114.835 C643.221,115.519 645.508,115.903 646.445,117.276 L646.452,117.287 L646.453,117.287 Z" />
            <path d="M677.122,101.471 C673.193,98.261 668.571,100.622 664.914,103.092 C663.779,103.865 662.696,104.814 661.59,105.59 C660.445,106.392 659.207,107.074 657.802,107.064 C656.825,107.096 655.525,106.564 654.547,105.785 C651.897,103.783 650.364,100.793 648.501,98.119 C648.448,98.028 648.341,97.925 648.379,97.832 C648.748,97.218 653.164,95.626 654.23,95.242 C654.324,95.217 654.379,95.127 654.399,95.026 C654.649,93.726 653.144,91.939 652.008,91.722 C651.866,91.696 651.754,91.688 651.622,91.712 C651.119,91.813 649.797,92.201 649.092,92.449 C648.159,92.763 646.077,94.536 645.366,93.274 C644.113,91.342 641.903,88.248 642.566,86.189 C642.805,85.417 643.499,84.709 644.24,84.211 C653.536,77.941 666.425,79.182 672.32,89.626 C674.326,92.777 676.439,96.316 677.215,99.688 C677.289,100.004 677.615,101.534 677.133,101.474 L677.122,101.47 L677.122,101.471 Z" />
            <path d="M679.733,137.046 C678.43,141.784 671.013,150.205 670.021,140.589 C669.696,137.612 669.951,133.972 670.061,130.653 C670.222,126.743 670.385,122.83 670.601,119.036 C670.891,114.569 671.216,109.38 673.158,105.399 C674.437,102.741 676.718,101.621 678.493,104.681 C679.842,107.06 680.274,110.065 680.585,112.986 C680.898,116.157 681.037,119.316 681.132,122.498 C681.282,127.422 681.233,132.37 679.738,137.03 L679.733,137.045 L679.733,137.046 Z" />
            <path d="M683.964,135.267 C683.602,135.13 683.574,134.687 683.537,134.341 C683.486,133.622 683.419,132.652 683.373,131.894 C683.33,131.308 683.427,130.819 683.948,130.504 C685.053,129.875 685.868,129.138 686.365,127.957 C687.41,125.482 687.12,122.567 687.076,119.942 C686.891,114.508 686.565,108.051 685.632,102.62 C685.468,101.76 685.229,100.828 684.894,100.028 C684.065,97.984 682.592,96.793 680.376,97.801 C679.693,98.085 679.146,98.253 678.542,97.693 C678.27,97.456 678.011,97.165 677.753,96.905 C677.411,96.55 677.076,96.226 676.923,95.945 C676.628,95.463 677.001,95.055 677.412,94.745 C683.202,90.394 688.005,92.997 689.701,99.321 C690.777,103.143 690.645,107.183 690.962,111.098 C691.663,119.287 694.767,132.581 684.972,135.186 C684.564,135.29 684.209,135.351 683.973,135.269 L683.963,135.266 L683.964,135.267 Z" />
            <path d="M676.968,92.097 C676.914,92.13 676.871,92.09 676.838,92.046 C676.388,91.374 675.786,90.46 675.26,89.665 C674.942,89.185 674.645,88.737 674.446,88.436 C674.328,88.244 674.163,88.074 674.233,87.922 C675.135,86.188 677.141,84.174 677.541,82.405 C677.607,81.739 677.142,81.263 676.601,80.72 C676.365,80.499 676.124,80.301 675.876,80.114 C675.591,79.917 675.415,79.751 675.191,79.681 C675.119,79.67 675.07,79.709 675.021,79.761 C674.663,80.153 673.388,81.558 672.453,82.587 C671.971,83.117 671.582,83.549 671.45,83.689 C671.418,83.719 671.388,83.748 671.347,83.722 C670.866,83.2 669.659,81.719 669.159,81.127 C669.059,81.01 669.08,80.891 669.162,80.766 C669.32,80.493 669.698,80.064 670.143,79.607 C671.094,78.653 671.77,78.014 672.617,77.319 C673.517,76.59 674.611,75.795 675.766,76.048 C677.782,76.625 681.441,80.47 681.732,82.362 C681.831,83.153 681.632,83.826 681.362,84.635 C680.408,87.182 678.57,90.004 676.974,92.095 L676.969,92.098 L676.968,92.097 Z" />
            <path d="M668.842,78.827 C668.265,79.345 667.415,80.109 666.797,80.664 C666.489,80.939 666.277,81.131 666.283,81.125 C666.274,81.12 666.266,81.116 666.25,81.106 C665.578,80.711 664.227,79.921 663.544,79.52 C664.796,77.979 667.168,78.011 668.839,78.825 L668.842,78.827 Z" />
        </g>
    </g>
</svg>