<?xml version="1.0" encoding="UTF-8"?>
<svg id="Layer_1" data-name="Layer 1" xmlns="http://www.w3.org/2000/svg" viewBox="0 0 251 205">
  <defs>
    <style>
      .cls-1 {
        fill: #fff;
      }
    </style>
  </defs>
  <g id="d2sr9p">
    <g>
      <path d="M186.45,79.55c4.86,4.14,10.26,8.62,14.86,13.03,3.56,3.41,5,4.73,1.26,9.24l-.78,23.62c1.86.56,4.23,2.58,3.95,4.7-.35,2.59-2.54,3.26-4.57,4.25-14.39,6.99-31.3,13.27-46.31,19.11-8.46,3.29-25.89,11.39-34.28,10.59-.91-.09-1.85-.37-2.73-.62-5.55-1.63-20.03-15.47-25.02-20.07-10.13-9.34-20.25-19.2-29.73-29.19-13.87-14.61-28.09-25.91-7.52-43.63,13.55-11.68,41.28-20.2,58.59-25.29,6.14-1.8,18.12-6.6,23.7-3.34,5.36,3.13,12.37,8.81,17.52,12.68,10.44,7.85,21.12,16.46,31.07,24.92ZM136.29,157.81c-11.88,3.06-21.37-4.14-19.1-16.8,2.23-12.45,15.8-15.64,25.5-19.38,19.41-7.48,38.5-15.81,58.31-22.21.89-.46,1.97-1.73,1.17-2.64-16.9-15.35-34.52-30.03-52.92-43.57-2.38-1.75-12.48-9.54-14.46-9.87-2.39-.4-5,.1-7.31.61-13.13,2.91-29.84,8.81-42.47,13.73-12.49,4.87-39.77,16.3-37.12,33.14.87,5.51,13.32,17.82,17.66,22.39,13.63,14.37,30.98,31.72,46.4,43.98,6.87,5.46,10.89,5.47,19.2,2.84l5.13-2.21ZM200.46,102.45c-19.97,6.14-39.15,14.59-58.61,22.12-6.77,2.62-14.11,3.7-18.56,10.17l76.49-29.73.68-2.56ZM200.04,106.64c-12.54,4.45-25.02,9.13-37.43,13.94-11.92,4.62-24.65,9.26-36.25,14.5-3.72,1.68-5.84,1.87-6.85,6.36l80.47-31.72.06-3.09ZM199.52,111.43l-81.45,31.59,1.35,3.49,81.45-31.59-1.35-3.49ZM199.62,117.13l-78.97,30.27-.74.97.9,2.69,78.1-30.15.7-3.79ZM198.98,121.6l-77.07,30.35,1.11,2.83,77.07-30.35-1.11-2.83ZM199.2,126.35l-73.39,28.93c4.85,1.89,9.32.28,13.94-1.36,19.35-6.87,38.41-16.93,57.8-23.98,1.46-.53,1.66-2.22,1.65-3.59ZM202.86,130.86c1.41-1.44-1.17-3.22-1.56-2.82l.16,2.98-43.78,18.41c15.35-5.29,30.24-12.16,45.18-18.56Z"/>
      <path class="cls-1" d="M136.29,157.81l-5.13,2.21c-8.31,2.63-12.33,2.62-19.2-2.84-15.42-12.26-32.77-29.61-46.4-43.98-4.34-4.57-16.8-16.88-17.66-22.39-2.65-16.84,24.63-28.27,37.12-33.14,12.63-4.92,29.34-10.82,42.47-13.73,2.31-.51,4.93-1.01,7.31-.61,1.97.33,12.08,8.12,14.46,9.87,18.39,13.55,36.01,28.23,52.92,43.57.8.91-.29,2.18-1.17,2.64-19.82,6.4-38.9,14.74-58.31,22.21-9.7,3.74-23.27,6.93-25.5,19.38-2.27,12.66,7.22,19.86,19.1,16.8ZM121.58,126.74l-.36-1.88c-16.26-13.87-31.58-28.8-46.38-44.21-1.28-1.33-7.57-8.93-8.45-9.17-3.13-.86-.21,3.28.48,4.14,7.12,8.75,17.77,18.87,26,26.85,7.6,7.37,16.75,16.34,24.96,22.85,1.19.95,2.28,2.32,3.74,1.42Z"/>
      <polygon class="cls-1" points="199.62 117.13 198.92 120.92 120.81 151.07 119.91 148.37 120.65 147.4 199.62 117.13"/>
      <path class="cls-1" d="M200.04,106.64l-.06,3.09-80.47,31.72c1.01-4.49,3.13-4.68,6.85-6.36,11.6-5.24,24.33-9.88,36.25-14.5,12.41-4.81,24.89-9.49,37.43-13.94Z"/>
      <path class="cls-1" d="M199.2,126.35c.01,1.37-.19,3.06-1.65,3.59-19.39,7.05-38.45,17.11-57.8,23.98-4.62,1.64-9.09,3.25-13.94,1.36l73.39-28.93Z"/>
      <rect class="cls-1" x="115.79" y="127.1" width="87.36" height="3.74" transform="translate(-35.84 66.4) rotate(-21.2)"/>
      <path class="cls-1" d="M200.46,102.45l-.68,2.56-76.49,29.73c4.44-6.47,11.79-7.55,18.56-10.17,19.47-7.53,38.65-15.98,58.61-22.12Z"/>
      <rect class="cls-1" x="119.59" y="136.67" width="82.83" height="3.04" transform="translate(-39.43 68.6) rotate(-21.49)"/>
      <path class="cls-1" d="M202.86,130.86c-14.94,6.4-29.83,13.27-45.18,18.56l43.78-18.41-.16-2.98c.39-.4,2.97,1.39,1.56,2.82Z"/>
      <path d="M121.58,126.74c-1.46.9-2.55-.48-3.74-1.42-8.21-6.52-17.36-15.48-24.96-22.85-8.22-7.98-18.88-18.09-26-26.85-.69-.85-3.61-5-.48-4.14.88.24,7.17,7.84,8.45,9.17,14.8,15.41,30.11,30.35,46.38,44.21l.36,1.88Z"/>
    </g>
  </g>
</svg>