<?xml version="1.0" encoding="UTF-8"?>
<svg id="Layer_1" data-name="Layer 1" xmlns="http://www.w3.org/2000/svg" viewBox="0 0 251 205">
  <defs>
    <style>
      .cls-1 {
        fill: #c6c5c4;
      }

      .cls-2, .cls-3 {
        fill: #fff;
      }

      .cls-3, .cls-4 {
        stroke: #000;
        stroke-miterlimit: 10;
        stroke-width: 2px;
      }

      .cls-4 {
        fill: none;
      }
    </style>
  </defs>
  <g>
    <path class="cls-2" d="M155.64,44.78c0,7.79-6.78,13.35-11.88,18.46-5.11,5.11-10.67,11.88-18.46,11.88s-13.35-6.78-18.46-11.88-11.88-10.67-11.88-18.46,6.78-13.35,11.88-18.46c5.11-5.11,10.67-11.88,18.46-11.88s13.35,6.78,18.46,11.88c5.11,5.11,11.88,10.67,11.88,18.46Z"/>
    <path class="cls-4" d="M155.64,44.78c0,7.79-6.78,13.35-11.88,18.46-5.11,5.11-10.67,11.88-18.46,11.88s-13.35-6.78-18.46-11.88-11.88-10.67-11.88-18.46,6.78-13.35,11.88-18.46c5.11-5.11,10.67-11.88,18.46-11.88s13.35,6.78,18.46,11.88c5.11,5.11,11.88,10.67,11.88,18.46Z"/>
  </g>
  <g>
    <path class="cls-1" d="M147.94,44.78c0,5.67-5.91,9.3-9.63,13.02s-7.35,9.63-13.02,9.63-9.3-5.91-13.02-9.63-9.63-7.35-9.63-13.02,5.91-9.3,9.63-13.02,7.35-9.63,13.02-9.63,9.3,5.91,13.02,9.63,9.63,7.35,9.63,13.02Z"/>
    <path class="cls-4" d="M147.94,44.78c0,5.67-5.91,9.3-9.63,13.02s-7.35,9.63-13.02,9.63-9.3-5.91-13.02-9.63-9.63-7.35-9.63-13.02,5.91-9.3,9.63-13.02,7.35-9.63,13.02-9.63,9.3,5.91,13.02,9.63,9.63,7.35,9.63,13.02Z"/>
  </g>
  <g>
    <path class="cls-3" d="M131.49,185.8c-3.32,0-3.32,2.65-6.63,2.65s-3.32-2.65-6.63-2.65-3.32,2.65-6.63,2.65-3.32-2.65-6.63-2.65-3.32,2.65-6.63,2.65-3.31-2.65-6.63-2.65-3.31,2.65-6.63,2.65-3.31-2.65-6.63-2.65-3.31,2.65-6.63,2.65-3.32-2.65-6.63-2.65l37.19-127.11,29.12,8.74v118.37Z"/>
    <path class="cls-3" d="M102.89,58.99c-.9.48-2.23,1.24-3.72,2.35-7.71,5.76-8.8,12.83-13.67,22.72-.69,1.4-4.81,7.63-13.04,20.08-6.95,10.5-7.98,11.77-10.27,16.1-6.19,11.71-3.86,12.26-7.78,17.34-.73.95-2.56,3.2-1.96,5.39.53,1.93,2.7,2.97,3.55,3.38,2.83,1.36,3.8.12,6.76,1.2,2.94,1.07,2.69,2.56,5.95,3.78,1.17.44,4.14,1.81,5.94.3,1.06-.88,1.79-2.66,2.59-4.78.64-1.69,4.43-13.01,12.64-35.47,3.5-9.57,4.21-8.4,7.04-16.19,5.11-14.03,6.09-26.81,5.95-36.21Z"/>
    <path class="cls-3" d="M119.51,185.8c3.32,0,3.32,2.65,6.64,2.65s3.32-2.65,6.63-2.65,3.32,2.65,6.63,2.65,3.32-2.65,6.63-2.65,3.31,2.65,6.63,2.65,3.31-2.65,6.63-2.65,3.31,2.65,6.63,2.65,3.31-2.65,6.63-2.65,3.31,2.65,6.63,2.65,3.32-2.65,6.63-2.65l-37.19-127.11-29.12,8.74c-.79,5.55-1.67,13.98-1.42,24.27.17,6.74.73,11,1.22,15.64,1.36,13.14,1.31,23.42,1.22,43.98-.05,9.53-.3,21.17-1.02,34.48Z"/>
    <path class="cls-3" d="M148.11,58.99c.48-.2,1.18.04,2.14.83,7.48,7.31,11.43,14.15,13.68,19.2,1.83,4.13,2.29,6.54,5.08,11.62,2.9,5.27,4.58,6.64,9.52,13.5,3.57,4.97,6.88,9.56,10.35,16.1,6.2,11.67,3.72,12.19,7.69,17.34.73.95,2.56,3.19,1.96,5.39-.44,1.61-1.98,2.48-3.55,3.38-3.13,1.78-4.36,1.04-8.24,2.77-2.39,1.06-2.35,1.53-4.46,2.21-1.61.52-4.32,1.65-5.94.3-1.06-.88-1.79-2.66-2.59-4.78-4.81-13.08-9.26-25.61-12.64-35.47-1.66-4.84-3.35-9.91-4.99-14.97-8.78-27.05-10.06-36.51-8.02-37.43h.02Z"/>
    <g>
      <circle class="cls-3" cx="125.5" cy="92.93" r="2.73"/>
      <circle class="cls-3" cx="125.5" cy="113.99" r="2.73"/>
      <circle class="cls-3" cx="125.5" cy="135.05" r="2.73"/>
      <circle class="cls-3" cx="125.5" cy="156.11" r="2.73"/>
    </g>
    <path class="cls-3" d="M102.37,58.69c-.83.93-2.51,3.05-3,6.21-.24,1.55-.12,2.89.05,3.85,4.02-1.03,8.04-2.06,12.06-3.09l14.02-.04-23.13-6.94Z"/>
    <path class="cls-3" d="M148.63,58.69c.67.96,1.48,2.32,2.08,4.07.84,2.45.92,4.61.86,6-1.95-.42-3.95-.9-6.01-1.42-2.09-.53-4.11-1.09-6.05-1.66-4.67-.01-9.34-.03-14.02-.04l23.13-6.94Z"/>
  </g>
</svg>