<?xml version="1.0" encoding="UTF-8"?>
<svg id="Layer_1" data-name="Layer 1" xmlns="http://www.w3.org/2000/svg" viewBox="0 0 251 205">
  <defs>
    <style>
      .cls-1 {
        fill: #fff;
      }
    </style>
  </defs>
  <g id="hTknsz">
    <g>
      <path d="M131.19,21.8c3.68-.33,8.31.52,11.2,2.96,2.03,1.71,1.24,3.38,4.49,2.47,6.24-1.76,12.02-4.94,18.86-4.69,7.86.29,23.84,9.58,29.66,14.99,10.28,9.55,11.52,23.96,11.47,37.22-.06,15.73-.23,31.54-.61,47.26-.1,3.99.21,9.1-.2,12.87-.34,3.13-1.19,4.01-3.68,5.57-12.15,7.58-27.2,11.21-40.67,15.85-21.64,7.46-42.98,15.97-64.7,23.19-3.27,1.09-11.67,3.89-14.75,3.77-6.89-.26-14.25-8.42-19.31-12.67-3.66-3.08-7.91-6.14-11.36-9.35-2.46-2.29-3.37-4.44-4.16-7.71-1.97-8.13-1-17.69-1.27-26.08-.42-12.75-1.16-25.49-1.59-38.23-.22-6.57-1.49-12.32,1.9-18.4,5.1-9.16,21.92-14.49,31.43-18.05,1.48-.55,4.94-1.29,5.99-2.06.32-.24.65-.63.8-1.01.3-.7,1.16-4.17,1.26-4.98s-.2-2.33,0-2.81c.38-.9,2.94-3.56,3.77-4.29,4.93-4.32,15.2-7.39,21.52-9.65,5.45-1.95,14.49-5.68,19.98-6.17ZM133.2,23.2c-5.98-.07-15.93,3.73-21.78,5.77-5.95,2.08-12.87,4.32-18.06,7.89-.91.62-5.32,3.88-5.14,4.86l5.61,4.26c7.66-4.02,15.51-7.62,23.53-10.87,4.81-1.95,9.87-4.07,14.88-5.44.79-.22,4.87-.81,4.96-1.39-.09-.89-.41-1.56-.86-2.31-.19-.33-1.74-2.41-1.91-2.52-.3-.2-.87-.26-1.24-.26ZM192.17,38.03c-2.03-2.78-4.81-5.04-7.74-6.84-5.02-3.09-13.23-7.2-19.11-7.44-4.89-.19-13.79,2.44-18.14,4.79-1.98,1.07-1.09,2.4.73,2.76,3.82.76,6.55-4.65,11.64-2.79,1.87.68,2.4,2.57,1.22,4.15-1.02,1.37-5.35,2.67-7.06,3.2-1.2.37-5.73,1.76-6.67,1.74-3.66-.1-5.32-6.46-8.22-6.18-13.36,5.85-27.67,9.4-40.85,15.68-1.19.57-5.67,2.61-6.35,3.31-1.2,1.23-.55,2.52-.61,3.8-.24,4.57-1.7,6.09-5.38,8.32-1.7,1.03-7.07,4.14-8.7,4.57-2.55.67-4.03-2.55-4.21-4.66-.25-2.79,2.95-2.62,4.95-3.46,1.83-.77,4.05-2.46,5.14-4.11.13-.19,1.44-2.3.86-2.36-6.17,1.34-12.37,3.83-18.14,6.4s-16.7,7.73-18.93,13.86c-1.38,3.81-.72,13.12-.64,17.45.07,3.76.11,7.52.18,11.28,1.99,16.06.78,32.38,1.82,48.46.17,2.59.8,5.77,2.42,7.84,1.78,2.28,6.67,6.35,9.04,8.46,3.65,3.25,9.88,8.86,14.01,11.13.29.16.53.29.87.23.29-.29-.68-5.67-.78-6.56-2.15-18.9-1.84-38.84-2.43-57.91-.26-8.28-1.09-17.89-.18-26.12.83-7.56,12.42-12.27,18.55-15.04,11.13-5.03,22.68-9.2,33.93-13.94,2.07-.97.85-3.41,3.1-4.34,2.94-1.21,6.03-.09,9.01.18,2.07-2.03,5.74-5.94,8.86-5.78,1.45.07,2.71,1.33,4,1.15,12.63-4.45,26.22-9.1,39.54-10.96,1.45-.2,2.78-.37,4.26-.27ZM141.82,26.04c-1.06-1-2.72-1.61-4.15-1.28.81,1.47.81,3.8,2.11,4.82,1.03.81,2.01,1.07,3.02,2.21,1.7,1.91,1.53,4.83,4.6,4.6,1.67-.12,9.16-2.92,10.93-3.76.48-.23.99-.49,1.24-.99-.05-1.51-1.44-2.43-2.89-2.27-1.87.2-5.71,2.33-7.98,2.88-.7.17-1.34.4-2.06.14-1.74-.63-3.32-4.96-4.81-6.36ZM136.46,30.39c-2.44-.1-5.03.66-7.34,1.4-10.2,3.26-19.6,7.92-29.06,12.78-2.55,1.31-5.4,2.38-7.85,3.82-.26.15-.51-.04-.4.5,2.93-1.05,5.71-2.42,8.6-3.57,5.22-2.07,10.55-3.9,15.79-5.93,5.82-2.26,13.13-4.64,18.59-7.35.64-.32,1.79-.81,1.67-1.65ZM198.39,44.05c.55-.35-.49-1.25-.78-1.49-2.01-1.68-4.65-3.37-7.35-3.33-8.37.14-18.41,2.88-26.4,5.39-4.84,1.52-11.4,3.57-15.81,5.91-2.55,1.35-3.44,3.57-6.71,4.76-1.79.65-3.61.43-5.09.95-.6.21-1.51,1-2.27,1.35-1.73.79-5.02,2.14-6.85,1.95-.85-.09-1.96-.58-2.84-.58-2.08,0-9.56,3.35-11.96,4.33-11.85,4.82-24.83,9.98-35.18,17.51-7.17,5.22-5.55,11.22-5.44,19.28.28,21.33,1.1,42.64,2.21,63.96.29,5.46-.7,13.89,4.89,17.04,1.35.76,2.39.9,3.96.77-8.13-6.21-6.41-17.41-6.83-26.46-.64-13.72-1.37-27.3-1.61-41.03-.11-6.19-1.39-20.33,1.56-25.37,4.15-7.08,18.55-13.68,25.99-16.85,19.71-8.38,41.3-15.72,61.7-22.38,7.69-2.51,20.47-6.96,28.3-6.49,1.09.06,6.01,1.1,6.52.78ZM74.34,61.19c.1,2.57.32,5.21,3.53,3.83,2.2-.94,7.96-3.94,9.72-5.36,2.87-2.31,2-6.91,2.43-10.24.14-1.08,1.07-3.2.39-4.05-.25-.31-2.64-1.86-2.82-1.7-1.33,3.71-1.16,7.53-3.19,11-2.32,3.97-5.62,5.68-10.06,6.53ZM187.71,44.33c-1.97.14-3.92.53-5.84,1-8.21,2.02-17.1,5.16-25.2,7.78-15.09,4.89-29.96,10.37-44.8,15.94-9.97,3.74-20.74,7.76-29.01,14.64-3.76,3.13-6.81,6.08-7.52,11.18-.3,18.22.68,36.51,1.39,54.68.32,8-.13,18.67,2.35,26.21,3.04,9.23,17.19,2.85,23.49.66,8.39-2.93,16.58-6.42,24.93-9.46,21.51-7.84,43.99-14.3,65.12-22.98,4.17-1.71,10.14-4.2,11.35-8.96,1.73-6.74,1.09-14.14,1.26-21.07.37-15.64,1.03-31.19,0-46.85-.37-5.59-1.22-15.3-4.74-19.8-2.17-2.77-9.51-3.2-12.8-2.97ZM145.5,50.11c-2.21-.97-3.96-.23-5.63,1.3-1.03.94-1.64,1.43-.9,2.92.22.29,1.81-.1,2.2-.22,1.75-.53,4.04-2.1,4.33-4ZM128.77,54.38c-3.37.46-3.35,3.92-.49,3.9.83,0,4.28-1.1,4.54-1.87.16-.49-.54-1.77-.99-1.97-.51-.23-2.43-.14-3.06-.05Z"/>
      <path class="cls-1" d="M192.17,38.03c-1.48-.11-2.81.06-4.26.27-13.32,1.86-26.91,6.51-39.54,10.96-1.29.18-2.55-1.08-4-1.15-3.12-.16-6.79,3.75-8.86,5.78-2.98-.27-6.07-1.39-9.01-.18-2.26.93-1.03,3.36-3.1,4.34-11.26,4.74-22.8,8.9-33.93,13.94-6.13,2.77-17.72,7.48-18.55,15.04-.9,8.23-.07,17.83.18,26.12.59,19.07.28,39.01,2.43,57.91.1.89,1.06,6.27.78,6.56-.35.06-.59-.07-.87-.23-4.13-2.27-10.36-7.88-14.01-11.13-2.37-2.11-7.26-6.18-9.04-8.46-1.62-2.07-2.25-5.26-2.42-7.84-1.04-16.09.17-32.4-1.82-48.46-.07-3.76-.11-7.52-.18-11.28-.08-4.32-.74-13.63.64-17.45,2.22-6.13,13.25-11.33,18.93-13.86s11.96-5.06,18.14-6.4c.58.06-.73,2.17-.86,2.36-1.08,1.65-3.31,3.34-5.14,4.11-1.99.84-5.19.67-4.95,3.46.19,2.11,1.66,5.32,4.21,4.66,1.63-.43,7-3.54,8.7-4.57,3.68-2.22,5.14-3.75,5.38-8.32.07-1.27-.59-2.56.61-3.8.68-.69,5.15-2.74,6.35-3.31,13.18-6.27,27.49-9.83,40.85-15.68,2.9-.28,4.55,6.08,8.22,6.18.94.03,5.47-1.37,6.67-1.74,1.71-.53,6.04-1.83,7.06-3.2,1.18-1.58.65-3.47-1.22-4.15-5.08-1.86-7.81,3.55-11.64,2.79-1.82-.36-2.7-1.7-.73-2.76,4.35-2.35,13.25-4.98,18.14-4.79,5.88.23,14.1,4.34,19.11,7.44,2.93,1.8,5.71,4.07,7.74,6.84Z"/>
      <path class="cls-1" d="M187.71,44.33c3.29-.23,10.63.2,12.8,2.97,3.52,4.5,4.37,14.21,4.74,19.8,1.03,15.67.37,31.21,0,46.85-.17,6.92.47,14.32-1.26,21.07-1.22,4.76-7.18,7.25-11.35,8.96-21.14,8.67-43.62,15.14-65.12,22.98-8.35,3.04-16.54,6.53-24.93,9.46-6.3,2.2-20.45,8.58-23.49-.66-2.48-7.54-2.04-18.21-2.35-26.21-.72-18.17-1.69-36.46-1.39-54.68.72-5.1,3.76-8.05,7.52-11.18,8.27-6.88,19.04-10.89,29.01-14.64,14.84-5.57,29.71-11.06,44.8-15.94,8.1-2.63,16.99-5.76,25.2-7.78,1.91-.47,3.87-.87,5.84-1ZM187.31,47.75c-5.24.43-10.32,2.69-15.29,4.22-25.82,7.95-51.53,15.95-76.38,26.6-6.36,2.72-16.31,8.63-16.91,16.28-.48,6.12.26,12.78.42,18.91.47,17.87.1,38.59,3.47,56.06.54,2.79,1.59,7.59,5.06,8.01,4.8.58,13.65-3.75,18.51-5.44,25.2-8.77,50.85-16.25,75.53-26.45,5.54-2.29,11.08-4.72,16.08-8.06,2.81-1.88,4.21-3.03,4.64-6.62.71-5.95.62-13.24.8-19.31.44-14.58.84-30.73-.4-45.25-.92-10.73-2.23-20.04-15.53-18.95Z"/>
      <path class="cls-1" d="M198.39,44.05c-.51.32-5.43-.72-6.52-.78-7.83-.47-20.61,3.98-28.3,6.49-20.4,6.66-41.99,14-61.7,22.38-7.45,3.17-21.84,9.77-25.99,16.85-2.95,5.04-1.67,19.19-1.56,25.37.24,13.73.97,27.31,1.61,41.03.42,9.04-1.3,20.24,6.83,26.46-1.56.13-2.6,0-3.96-.77-5.59-3.15-4.6-11.58-4.89-17.04-1.12-21.32-1.94-42.63-2.21-63.96-.1-8.06-1.73-14.06,5.44-19.28,10.36-7.54,23.33-12.69,35.18-17.51,2.4-.98,9.88-4.33,11.96-4.33.88,0,1.98.49,2.84.58,1.83.19,5.12-1.16,6.85-1.95.76-.35,1.67-1.14,2.27-1.35,1.48-.51,3.3-.3,5.09-.95,3.27-1.18,4.16-3.4,6.71-4.76,4.41-2.34,10.97-4.39,15.81-5.91,7.98-2.51,18.02-5.25,26.4-5.39,2.7-.05,5.34,1.65,7.35,3.33.29.25,1.33,1.14.78,1.49Z"/>
      <path class="cls-1" d="M133.2,23.2c.37,0,.94.07,1.24.26.17.11,1.71,2.19,1.91,2.52.44.75.76,1.42.86,2.31-.1.58-4.17,1.18-4.96,1.39-5,1.37-10.07,3.49-14.88,5.44-8.02,3.25-15.87,6.84-23.53,10.87l-5.61-4.26c-.19-.98,4.23-4.24,5.14-4.86,5.2-3.56,12.11-5.81,18.06-7.89,5.85-2.04,15.8-5.84,21.78-5.77Z"/>
      <path class="cls-1" d="M74.34,61.19c4.44-.85,7.75-2.56,10.06-6.53,2.03-3.47,1.85-7.28,3.19-11,.18-.16,2.57,1.4,2.82,1.7.69.85-.24,2.97-.39,4.05-.43,3.33.44,7.93-2.43,10.24-1.76,1.42-7.53,4.42-9.72,5.36-3.21,1.38-3.43-1.26-3.53-3.83Z"/>
      <path class="cls-1" d="M141.82,26.04c1.49,1.41,3.07,5.73,4.81,6.36.71.26,1.35.03,2.06-.14,2.27-.54,6.11-2.68,7.98-2.88,1.45-.15,2.84.76,2.89,2.27-.25.5-.76.76-1.24.99-1.76.84-9.26,3.64-10.93,3.76-3.07.23-2.9-2.69-4.6-4.6-1.01-1.14-1.99-1.4-3.02-2.21-1.31-1.02-1.3-3.35-2.11-4.82,1.43-.34,3.09.27,4.15,1.28Z"/>
      <path class="cls-1" d="M128.77,54.38c.64-.09,2.55-.18,3.06.05.45.2,1.15,1.48.99,1.97-.25.78-3.71,1.87-4.54,1.87-2.86.03-2.89-3.44.49-3.9Z"/>
      <path class="cls-1" d="M145.5,50.11c-.28,1.9-2.58,3.47-4.33,4-.39.12-1.98.51-2.2.22-.74-1.49-.13-1.98.9-2.92,1.67-1.53,3.42-2.26,5.63-1.3Z"/>
      <path d="M187.31,47.75c13.3-1.09,14.61,8.22,15.53,18.95,1.24,14.51.83,30.67.4,45.25-.18,6.08-.09,13.37-.8,19.31-.43,3.6-1.83,4.75-4.64,6.62-5,3.34-10.54,5.77-16.08,8.06-24.68,10.19-50.33,17.67-75.53,26.45-4.86,1.69-13.71,6.02-18.51,5.44-3.47-.42-4.52-5.22-5.06-8.01-3.38-17.48-3-38.19-3.47-56.06-.16-6.13-.9-12.79-.42-18.91.6-7.66,10.55-13.56,16.91-16.28,24.85-10.65,50.56-18.65,76.38-26.6,4.97-1.53,10.05-3.79,15.29-4.22ZM187.92,48.94c-5.6.11-12.58,2.97-17.91,4.63-14.98,4.67-29.77,9.36-44.46,14.88-9.86,3.71-20.91,7.64-30.39,12.05-20.04,9.32-15.53,22.88-14.41,41.71.83,14,.79,28.05,2.22,42.03.3,2.99.86,9.69,3.23,11.66,1.62,1.34,3.96.25,5.82.01,26.23-8.64,52.48-17.47,78.29-27.31,6.89-2.63,14.1-5.31,20.8-8.36,5.6-2.55,9.21-3.64,10.3-10.42.96-6,1.03-12.98,1.23-19.09.42-13.29.19-27.14-.8-40.42-.71-9.58-1.05-21.63-13.91-21.37Z"/>
      <path class="cls-1" d="M187.92,48.94c12.86-.26,13.2,11.79,13.91,21.37.99,13.27,1.22,27.13.8,40.42-.19,6.11-.27,13.09-1.23,19.09-1.08,6.78-4.69,7.87-10.3,10.42-6.7,3.05-13.91,5.73-20.8,8.36-25.81,9.84-52.06,18.67-78.29,27.31-1.86.24-4.2,1.33-5.82-.01-2.37-1.97-2.92-8.67-3.23-11.66-1.43-13.98-1.38-28.04-2.22-42.03-1.12-18.83-5.63-32.39,14.41-41.71,9.48-4.41,20.54-8.34,30.39-12.05,14.69-5.52,29.48-10.21,44.46-14.88,5.33-1.66,12.32-4.52,17.91-4.63ZM138.23,72.89c-22.66,1.85-28.52,37.26-5.56,42.04,17.06,3.56,32.99-12.03,27.21-29.22-3.2-9.53-12.01-13.61-21.65-12.82ZM191.56,113.05l-.08-.6-.24-.16c-1.76-.55-5.67,2.23-7.31,3.08,0,.21.85.47,1.1.47.53,0,2.37-.95,2.47-.28l-1.16,6.75c.32.03.47.05.7-.2.74-.78.89-5.87,1.53-7.11.71-1.01,1.84-1.57,2.98-1.95ZM180.1,126.53l1.21-7.14-.1-2.1-.66.54c-.23,2.27-.91,4.74-1.05,7-.04.59-.23,1.74.6,1.71ZM173.07,124.72c-.27-.36,2.52-3.93,2.31-4.85-.04-.16-.26-.51-.41-.58-.41-.09-.27.17-.4.4-.78,1.43-1.28,2.98-2.62,4.03l-1.1-3.22-.2,9.25c1.63-.39.65-2.43,1.22-3.6.52-.36,4.07,1.59,4.81.28l-2.34-1.28-1.28-.43ZM155.57,135.38c3.02-.1,6.01-1.71,6.42-4.94.47-3.75-3-6.87-6.07-3.85l-.35,8.8ZM152.15,135.48v-6.44s-.2-.59-.4-.5c-.71,2.4-.83,4.8-.2,7.24.15.11.56-.15.6-.3ZM148.93,133.98c-.54-.07-1.2.09-1.71,0-.78-.15-1.25-2.66-1.61-3.42-.27-.57-.58-1.37-1.22-1.02-1.16.63-1.19,1.21-1.44,2.39-.63,3.04-.91,6.22-1.37,9.3.4.45.56.06.75-.26.64-1.09.06-3.12,1.22-3.81.24-.14,2.25-.8,2.43-.77l1.54,1.93c.46-.27-.22-1.7-.14-2.19.06-.37,1.73-2,1.55-2.14ZM133.04,133.57l-6.23,2.42c.18,1.52,2.11.13,2.52,1.39s-.22,6.5.29,7.05c.33.07.42-.09.58-.33.81-1.23-.29-5.61.11-7.33.37-1.61,2.19-1.83,2.73-3.2ZM124.19,139.81c.36-4.88-5.04-1.45-4.62,1.69.37,2.76,3.69,1.76,5.44,2.45.07.72-.18,1.59-.71,2.09-1.19,1.11-3.7,0-3.72,2.21,2.35,0,5.94-1.15,5.78-4.07-.14-2.63-2.54-1.71-4.23-2.01-2.17-.39-1.23-3.76.87-3.08.48.16.67.74,1.19.71ZM110.11,143.33c-.4,2.4.3,5.83,0,8.35l1.17-.95c-.14-2.27-.48-5.98.6-8.04,1.3-2.48,4.14-.35,2.81,2.41-.4.83-1.67,1.06-1.67,2.16.83,1.02,4.79,4.78,4.94,1.51.02-.53-.98-.22-1.56-.46-2.21-.88.35-4.72-.88-6.96-1.5-2.71-5.03-.26-5.4,1.98ZM105.88,143.23c-.36-.3-.73,1.02-.75,1.15-.41,2.56.99,6.65,1.26,9.3.85-.47.59-2.17.5-3.11-.15-1.57-.72-3.26-.81-4.84-.05-.93.51-1.54-.2-2.5ZM101.06,143.43c-1.25.52-4.46,1.19-4.75,2.61l.34,11.87c.69.25.71-.48.77-1.12.17-1.78-.22-3.64.21-5.37,1.49-.7,3.47-.69,4.44-2.25l-4.29.52c-.83-1.49-.18-2.96,1.09-3.92.9-.68,2.41-.84,2.2-2.33Z"/>
      <path d="M138.23,72.89c9.65-.79,18.45,3.29,21.65,12.82,5.78,17.19-10.15,32.78-27.21,29.22-22.96-4.79-17.1-40.19,5.56-42.04ZM139.24,74.3c-9.5.89-19.03,9.54-20.07,19.15-2.1,19.42,19.81,26.64,33.28,15.18,14.14-12.03,6.41-36.16-13.21-34.33Z"/>
      <path d="M110.11,143.33c.37-2.24,3.9-4.69,5.4-1.98,1.24,2.24-1.33,6.08.88,6.96.59.23,1.59-.07,1.56.46-.15,3.27-4.11-.49-4.94-1.51,0-1.1,1.27-1.33,1.67-2.16,1.33-2.76-1.51-4.89-2.81-2.41-1.08,2.07-.74,5.77-.6,8.04l-1.17.95c.3-2.51-.4-5.95,0-8.35Z"/>
      <path d="M148.93,133.98c.18.13-1.49,1.77-1.55,2.14-.08.49.6,1.92.14,2.19l-1.54-1.93c-.17-.03-2.19.63-2.43.77-1.16.69-.58,2.71-1.22,3.81-.19.33-.35.71-.75.26.46-3.07.74-6.25,1.37-9.3.24-1.18.28-1.76,1.44-2.39.64-.35.95.45,1.22,1.02.36.76.83,3.27,1.61,3.42.51.09,1.17-.06,1.71,0ZM143.5,135.58c3.02,0,2.54-2.64.9-4.22-.96,1.21-.97,2.77-.9,4.22Z"/>
      <path d="M124.19,139.81c-.53.02-.71-.56-1.19-.71-2.09-.68-3.04,2.69-.87,3.08,1.69.3,4.09-.62,4.23,2.01.16,2.92-3.43,4.07-5.78,4.07.03-2.21,2.54-1.1,3.72-2.21.54-.5.78-1.38.71-2.09-1.74-.69-5.06.31-5.44-2.45-.43-3.14,4.98-6.57,4.62-1.69Z"/>
      <path d="M155.57,135.38l.35-8.8c3.07-3.01,6.54.1,6.07,3.85-.41,3.24-3.4,4.85-6.42,4.94ZM158.69,126.84c-1.18-.03-1.93.67-2.1,1.82-.26,1.83-.51,6.43,2.47,4.68,2.45-1.45,2.83-6.43-.37-6.5Z"/>
      <path d="M101.06,143.43c.21,1.48-1.3,1.65-2.2,2.33-1.26.96-1.92,2.44-1.09,3.92l4.29-.52c-.97,1.56-2.95,1.55-4.44,2.25-.43,1.74-.04,3.6-.21,5.37-.06.64-.08,1.38-.77,1.12l-.34-11.87c.29-1.42,3.5-2.09,4.75-2.61Z"/>
      <path d="M173.07,124.72l1.28.43,2.34,1.28c-.74,1.31-4.28-.64-4.81-.28-.57,1.17.41,3.21-1.22,3.6l.2-9.25,1.1,3.22c1.34-1.05,1.84-2.6,2.62-4.03.12-.23-.01-.49.4-.4.14.07.37.42.41.58.2.92-2.58,4.49-2.31,4.85Z"/>
      <path d="M191.56,113.05c-1.14.38-2.27.94-2.98,1.95-.65,1.24-.79,6.34-1.53,7.11-.24.25-.38.23-.7.2l1.16-6.75c-.1-.67-1.94.28-2.47.28-.25,0-1.1-.26-1.1-.47,1.64-.86,5.55-3.63,7.31-3.08l.24.16.08.6Z"/>
      <path d="M133.04,133.57c-.54,1.38-2.36,1.59-2.73,3.2-.4,1.72.7,6.1-.11,7.33-.16.24-.25.39-.58.33-.52-.55.1-5.85-.29-7.05-.41-1.26-2.34.12-2.52-1.39l6.23-2.42Z"/>
      <path d="M105.88,143.23c.71.96.15,1.57.2,2.5.09,1.58.66,3.27.81,4.84.09.94.35,2.64-.5,3.11-.27-2.65-1.67-6.74-1.26-9.3.02-.14.39-1.45.75-1.15Z"/>
      <path d="M180.1,126.53c-.83.04-.63-1.12-.6-1.71.14-2.26.82-4.72,1.05-7l.66-.54.1,2.1-1.21,7.14Z"/>
      <path d="M152.15,135.48c-.04.15-.45.41-.6.3-.62-2.44-.51-4.84.2-7.24.2-.09.4.47.4.5v6.44Z"/>
      <path class="cls-1" d="M139.24,74.3c19.62-1.83,27.35,22.3,13.21,34.33-13.47,11.46-35.38,4.24-33.28-15.18,1.04-9.62,10.57-18.27,20.07-19.15ZM133.59,92.69c-1,1.22-6.24,1.93-7.86,2.9-.25.15-.61.44-.69.71-.25.84.72,5.47,1.06,6.5.16.49.24,1.03.76,1.27.8.37,6.15-2.04,7.59-1.37.58.39.77,5.5,1.2,6.64.16.43.42.84.91.91.87.14,7.76-1.9,8.35-2.5,1.06-1.08.25-3.8.18-5.23-.04-.82-.16-3.29.11-3.93.89-2.04,7.85-.27,8.15-3.93.05-.61-.16-1.71-.27-2.36-.17-1.05-1.07-5.07-1.96-5.48-1.64-.75-6.63,3.2-8.76,1.92-.39-1.82-.34-7.17-1.7-8.35-.23-.2-1.02-.48-1.32-.5-.78-.05-5.22,1.32-6.11,1.7-.37.16-.69.37-.85.76-.7,1.63,1.31,6.85,1.46,8.91.03.45.03,1.08-.26,1.45Z"/>
      <path class="cls-1" d="M143.5,135.58c-.07-1.45-.05-3.01.9-4.22,1.63,1.58,2.12,4.21-.9,4.22Z"/>
      <path class="cls-1" d="M158.69,126.84c3.2.07,2.82,5.05.37,6.5-2.97,1.75-2.73-2.85-2.47-4.68.16-1.15.92-1.85,2.1-1.82Z"/>
      <path d="M133.59,92.69c.3-.36.29-1,.26-1.45-.15-2.05-2.16-7.27-1.46-8.91.16-.38.48-.6.85-.76.89-.39,5.34-1.75,6.11-1.7.31.02,1.1.3,1.32.5,1.36,1.19,1.31,6.54,1.7,8.35,2.13,1.28,7.12-2.67,8.76-1.92.89.41,1.79,4.43,1.96,5.48.1.65.32,1.75.27,2.36-.3,3.66-7.26,1.89-8.15,3.93-.28.63-.16,3.11-.11,3.93.07,1.44.89,4.15-.18,5.23-.59.6-7.48,2.64-8.35,2.5-.49-.08-.75-.49-.91-.91-.43-1.14-.62-6.25-1.2-6.64-1.44-.66-6.79,1.74-7.59,1.37-.52-.24-.6-.78-.76-1.27-.35-1.03-1.31-5.65-1.06-6.5.08-.28.44-.57.69-.71,1.62-.98,6.86-1.68,7.86-2.9ZM135.4,101.65c.18.18.56,1.21.61,1.5.23,1.33-.12,5.79,1.9,5.64.77-.05,4.24-1.1,4.98-1.46,1.63-.81,1.3-2.38,1.2-4.02-.08-1.38-.91-4.37-.2-5.43,1.83-2.77,7.56-.47,8.03-3.43.17-1.04-.52-5.52-1.59-5.84-.85-.26-5.79,1.99-7.41,2.09-1.48.09-1.72-.68-1.99-1.92-.38-1.71-.01-6.81-2.19-7.08-.53-.06-3.55.66-4.11.9-1.53.65-.96,2.08-.77,3.39.29,1.98,1.2,4.77,1.18,6.67,0,.93-.38,1.31-1.15,1.66-1.38.63-6.55,1.81-7.21,2.64-.93,1.17.19,4.33.73,5.64,1.71-.19,6.72-2.23,7.98-.94Z"/>
      <path class="cls-1" d="M135.4,101.65c-1.26-1.29-6.27.75-7.98.94-.55-1.31-1.66-4.47-.73-5.64.66-.83,5.83-2.01,7.21-2.64.77-.35,1.14-.74,1.15-1.66.02-1.9-.89-4.69-1.18-6.67-.19-1.31-.75-2.74.77-3.39.56-.24,3.58-.97,4.11-.9,2.17.27,1.81,5.37,2.19,7.08.28,1.24.52,2.01,1.99,1.92,1.62-.1,6.55-2.34,7.41-2.09,1.07.32,1.76,4.8,1.59,5.84-.47,2.96-6.2.66-8.03,3.43-.71,1.07.12,4.06.2,5.43.1,1.64.43,3.22-1.2,4.02-.74.37-4.21,1.41-4.98,1.46-2.02.14-1.68-4.32-1.9-5.64-.05-.29-.44-1.32-.61-1.5Z"/>
    </g>
  </g>
</svg>