<?xml version="1.0" encoding="UTF-8"?>
<svg xmlns="http://www.w3.org/2000/svg" xmlns:xlink="http://www.w3.org/1999/xlink" viewBox="0 0 251 205">
  <defs>
    <style>
      .cls-1 {
        fill: #fafcf5;
      }

      .cls-2, .cls-3 {
        fill: none;
      }

      .cls-4 {
        mask: url(#mask);
      }

      .cls-5 {
        fill: #f9fcf3;
      }

      .cls-6 {
        fill: #3f3f3f;
      }

      .cls-7 {
        fill: #c8e294;
      }

      .cls-8 {
        filter: url(#luminosity-noclip);
      }

      .cls-9 {
        fill: #e9f3d3;
      }

      .cls-10 {
        fill: #edf5dc;
      }

      .cls-11 {
        fill: #f1f8e4;
      }

      .cls-12 {
        fill: #eef6de;
      }

      .cls-13 {
        fill: #e4f1cb;
      }

      .cls-14 {
        fill: #b4d76d;
      }

      .cls-15 {
        fill: #c4df8b;
      }

      .cls-16 {
        fill: #c0de85;
      }

      .cls-17 {
        fill: #daecb8;
      }

      .cls-18 {
        fill: #c1de86;
      }

      .cls-19 {
        fill: #d0e6a4;
      }

      .cls-20 {
        fill: #cde49e;
      }

      .cls-21 {
        fill: #b7d973;
      }

      .cls-22 {
        fill: #f2f8e6;
      }

      .cls-23 {
        filter: url(#luminosity-noclip-3);
      }

      .cls-24 {
        filter: url(#luminosity-noclip-5);
      }

      .cls-25 {
        fill: #dfeec1;
      }

      .cls-26 {
        fill: #c3df8a;
      }

      .cls-27 {
        fill: #bfdd82;
      }

      .cls-28 {
        fill: #cce49c;
      }

      .cls-29 {
        fill: #fcfefa;
      }

      .cls-30 {
        fill: #bada79;
      }

      .cls-31 {
        opacity: .25;
      }

      .cls-31, .cls-32, .cls-33, .cls-34 {
        mix-blend-mode: multiply;
      }

      .cls-35 {
        fill: #e8f3d2;
      }

      .cls-36 {
        fill: #e6f2ce;
      }

      .cls-37 {
        fill: #cee59f;
      }

      .cls-38 {
        fill: #deedbe;
      }

      .cls-39 {
        fill: #d4e8aa;
      }

      .cls-40 {
        fill: #f5f9eb;
      }

      .cls-41 {
        fill: #cfe6a2;
      }

      .cls-42 {
        fill: #d7eab2;
      }

      .cls-43 {
        fill: #d3e7a8;
      }

      .cls-32 {
        fill: url(#linear-gradient-2);
      }

      .cls-33 {
        fill: url(#linear-gradient-3);
      }

      .cls-44 {
        fill: #fbfdf7;
      }

      .cls-45 {
        fill: #b6d872;
      }

      .cls-46 {
        fill: #6b7055;
      }

      .cls-47 {
        fill: #d6e9b0;
      }

      .cls-48 {
        fill: #d8eab4;
      }

      .cls-49 {
        fill: #c6e08f;
      }

      .cls-50 {
        fill: #c7e191;
      }

      .cls-51 {
        fill: #f1f7e3;
      }

      .cls-52 {
        fill: #dbecb9;
      }

      .cls-53 {
        fill: #d9ebb6;
      }

      .cls-54 {
        fill: #e1efc4;
      }

      .cls-55 {
        fill: #e3f0c9;
      }

      .cls-56 {
        fill: #bbdb7b;
      }

      .cls-57 {
        fill: #f3f9e8;
      }

      .cls-58 {
        fill: #e6f2cf;
      }

      .cls-59 {
        fill: #e5f1cc;
      }

      .cls-60 {
        fill: #f8fbf2;
      }

      .cls-61 {
        fill: #e2efc6;
      }

      .cls-62 {
        fill: #f0f7e2;
      }

      .cls-63 {
        fill: #ecf5d9;
      }

      .cls-64 {
        fill: #d8eab3;
      }

      .cls-65 {
        fill: #bedc81;
      }

      .cls-66 {
        fill: #c4e08c;
      }

      .cls-67 {
        fill: #f6faee;
      }

      .cls-68 {
        fill: #ebf4d8;
      }

      .cls-69 {
        fill: #d1e6a5;
      }

      .cls-70 {
        fill: #e0efc3;
      }

      .cls-71 {
        fill: #b5d86f;
      }

      .cls-72 {
        isolation: isolate;
      }

      .cls-73 {
        mask: url(#mask-2);
      }

      .cls-74 {
        mask: url(#mask-3);
      }

      .cls-75 {
        mask: url(#mask-4);
      }

      .cls-76 {
        mask: url(#mask-5);
      }

      .cls-77 {
        mask: url(#mask-1);
      }

      .cls-78 {
        fill: #d5e8ad;
      }

      .cls-79 {
        fill: #b5d76e;
      }

      .cls-80 {
        fill: #b6d871;
      }

      .cls-81 {
        fill: #d4e8ac;
      }

      .cls-82 {
        fill: #ddedbc;
      }

      .cls-83 {
        fill: #fcfdf8;
      }

      .cls-84 {
        fill: #e7f2d0;
      }

      .cls-85 {
        fill: #c2de88;
      }

      .cls-86 {
        fill: #f4f9ea;
      }

      .cls-87 {
        fill: #dcecbb;
      }

      .cls-88 {
        clip-path: url(#clippath-1);
      }

      .cls-89 {
        fill: #fff8f5;
      }

      .cls-90 {
        fill: #c9e296;
      }

      .cls-91 {
        fill: #b4d76c;
      }

      .cls-92 {
        fill: #fafcf6;
      }

      .cls-93 {
        fill: #bddc7e;
      }

      .cls-94 {
        fill: #eaf4d6;
      }

      .cls-95 {
        fill: #d3e8a9;
      }

      .cls-96 {
        fill: #bada78;
      }

      .cls-97 {
        fill: #bcdc7d;
      }

      .cls-98 {
        fill: #fdfefb;
      }

      .cls-99 {
        fill: #f7fbf0;
      }

      .cls-100 {
        fill: #f5faec;
      }

      .cls-101 {
        fill: #cbe399;
      }

      .cls-102 {
        fill: #c7e192;
      }

      .cls-103 {
        fill: #fff;
      }

      .cls-104 {
        fill: #c0dd84;
      }

      .cls-105 {
        fill: #e0eec2;
      }

      .cls-106 {
        fill: #d0e6a3;
      }

      .cls-107 {
        fill: #e9f3d4;
      }

      .cls-108 {
        fill: #daebb7;
      }

      .cls-109 {
        fill: #f2f8e5;
      }

      .cls-110 {
        fill: #bbdb7a;
      }

      .cls-111 {
        fill: #eef6dd;
      }

      .cls-112 {
        fill: #f3f8e7;
      }

      .cls-113 {
        fill: #bcdb7c;
      }

      .cls-114 {
        fill: #dfeec0;
      }

      .cls-115 {
        fill: #cfe5a1;
      }

      .cls-116 {
        fill: #f9fcf4;
      }

      .cls-117 {
        fill: #b2d669;
      }

      .cls-118 {
        fill: #f4f9e9;
      }

      .cls-119 {
        fill: #cce49b;
      }

      .cls-120 {
        fill: #d7eab1;
      }

      .cls-34 {
        fill: url(#linear-gradient);
      }

      .cls-121 {
        fill: #e4f1ca;
      }

      .cls-122 {
        fill: #eaf4d5;
      }

      .cls-123 {
        fill: #d9ebb5;
      }

      .cls-124 {
        fill: #deeebf;
      }

      .cls-125 {
        fill: #edf5db;
      }

      .cls-126 {
        fill: #f7fbef;
      }

      .cls-127 {
        fill: #c5e08d;
      }

      .cls-128 {
        fill: #e1efc5;
      }

      .cls-129 {
        fill: #cee5a0;
      }

      .cls-130 {
        fill: #d6e9af;
      }

      .cls-131 {
        fill: #ecf5da;
      }

      .cls-132 {
        fill: #c1de87;
      }

      .cls-3 {
        stroke: #000;
        stroke-miterlimit: 10;
        stroke-width: 2px;
      }

      .cls-133 {
        fill: #bfdd83;
      }

      .cls-134 {
        fill: #f0f7e1;
      }

      .cls-135 {
        fill: #d2e7a7;
      }

      .cls-136 {
        fill: #b9da77;
      }

      .cls-137 {
        fill: #f8fbf1;
      }

      .cls-138 {
        fill: #e5f1cd;
      }

      .cls-139 {
        fill: #b9da76;
      }

      .cls-140 {
        fill: #cae398;
      }

      .cls-141 {
        fill: #c5e08e;
      }

      .cls-142 {
        fill: #b3d66a;
      }

      .cls-143 {
        fill: #f6faed;
      }

      .cls-144 {
        fill: #d1e7a6;
      }

      .cls-145 {
        fill: #d5e9ae;
      }

      .cls-146 {
        fill: #bedc7f;
      }

      .cls-147 {
        fill: #c6e190;
      }

      .cls-148 {
        fill: #c2df89;
      }

      .cls-149 {
        fill: #e2f0c7;
      }

      .cls-150 {
        fill: #fcfdf9;
      }

      .cls-151 {
        fill: #c8e295;
      }

      .cls-152 {
        fill: #ebf4d7;
      }

      .cls-153 {
        fill: #b7d974;
      }

      .cls-154 {
        fill: #ddedbd;
      }

      .cls-155 {
        clip-path: url(#clippath);
      }

      .cls-156 {
        fill: #eff7e0;
      }

      .cls-157 {
        fill: #b3d76b;
      }

      .cls-158 {
        fill: #c9e297;
      }

      .cls-159 {
        fill: #e7f2d1;
      }

      .cls-160 {
        fill: #cbe39a;
      }

      .cls-161 {
        fill: #e3f0c8;
      }

      .cls-162 {
        fill: #b8d975;
      }

      .cls-163 {
        mix-blend-mode: screen;
        opacity: .35;
      }

      .cls-164 {
        fill: #dcecba;
      }

      .cls-165 {
        fill: #cde49d;
      }

      .cls-166 {
        fill: #eff6df;
      }
    </style>
    <filter id="luminosity-noclip" x="108.34" y="16.99" width="8.56" height="5.8" color-interpolation-filters="sRGB" filterUnits="userSpaceOnUse">
      <feFlood flood-color="#fff" result="bg"/>
      <feBlend in="SourceGraphic" in2="bg"/>
    </filter>
    <filter id="luminosity-noclip-2" x="108.34" y="-7957" width="8.56" height="32766" color-interpolation-filters="sRGB" filterUnits="userSpaceOnUse">
      <feFlood flood-color="#fff" result="bg"/>
      <feBlend in="SourceGraphic" in2="bg"/>
    </filter>
    <mask id="mask-1" x="108.34" y="-7957" width="8.56" height="32766" maskUnits="userSpaceOnUse"/>
    <linearGradient id="linear-gradient" x1="112.49" y1="22.55" x2="113.09" y2="16.4" gradientUnits="userSpaceOnUse">
      <stop offset="0" stop-color="#000"/>
      <stop offset=".4" stop-color="#6a6a6a"/>
      <stop offset=".81" stop-color="#d4d4d4"/>
      <stop offset="1" stop-color="#fff"/>
    </linearGradient>
    <mask id="mask" x="108.34" y="16.99" width="8.56" height="5.8" maskUnits="userSpaceOnUse">
      <g class="cls-8">
        <g class="cls-77">
          <path class="cls-34" d="M116.65,22.23l.25-5.24c-2.28.13-5.14.34-6.93.51-.56,1.66-1.1,3.43-1.63,5.29l8.32-.56Z"/>
        </g>
      </g>
    </mask>
    <clipPath id="clippath">
      <path class="cls-2" d="M116.65,22.23l.25-5.24c-2.28.13-5.14.34-6.93.51-.56,1.66-1.1,3.43-1.63,5.29l8.32-.56Z"/>
    </clipPath>
    <filter id="luminosity-noclip-3" x="103.29" y="23.72" width="13.29" height="17.34" color-interpolation-filters="sRGB" filterUnits="userSpaceOnUse">
      <feFlood flood-color="#fff" result="bg"/>
      <feBlend in="SourceGraphic" in2="bg"/>
    </filter>
    <filter id="luminosity-noclip-4" x="103.29" y="-7957" width="13.29" height="32766" color-interpolation-filters="sRGB" filterUnits="userSpaceOnUse">
      <feFlood flood-color="#fff" result="bg"/>
      <feBlend in="SourceGraphic" in2="bg"/>
    </filter>
    <mask id="mask-3" x="103.29" y="-7957" width="13.29" height="32766" maskUnits="userSpaceOnUse"/>
    <linearGradient id="linear-gradient-2" x1="109.63" y1="39.86" x2="111.29" y2="22.58" xlink:href="#linear-gradient"/>
    <mask id="mask-2" x="103.29" y="23.72" width="13.29" height="17.34" maskUnits="userSpaceOnUse">
      <g class="cls-23">
        <g class="cls-74">
          <path class="cls-32" d="M107.93,24.69c-1.58,5.57-2.69,10.02-4.65,16.37,3.42-.67,7.09-.48,12.53-.79l.76-16.54-8.64.97Z"/>
        </g>
      </g>
    </mask>
    <clipPath id="clippath-1">
      <path class="cls-2" d="M107.93,24.69c-1.58,5.57-2.69,10.02-4.65,16.37,3.42-.67,7.09-.48,12.53-.79l.76-16.54-8.64.97Z"/>
    </clipPath>
    <filter id="luminosity-noclip-5" x="88.96" y="40.27" width="31.46" height="145.02" color-interpolation-filters="sRGB" filterUnits="userSpaceOnUse">
      <feFlood flood-color="#fff" result="bg"/>
      <feBlend in="SourceGraphic" in2="bg"/>
    </filter>
    <filter id="luminosity-noclip-6" x="88.96" y="-7957" width="31.46" height="32766" color-interpolation-filters="sRGB" filterUnits="userSpaceOnUse">
      <feFlood flood-color="#fff" result="bg"/>
      <feBlend in="SourceGraphic" in2="bg"/>
    </filter>
    <mask id="mask-5" x="88.96" y="-7957" width="31.46" height="32766" maskUnits="userSpaceOnUse"/>
    <linearGradient id="linear-gradient-3" x1="104.69" y1="185.61" x2="104.69" y2="42.57" gradientUnits="userSpaceOnUse">
      <stop offset="0" stop-color="#000"/>
      <stop offset=".26" stop-color="#494949"/>
      <stop offset=".63" stop-color="#aaa"/>
      <stop offset=".88" stop-color="#e7e7e7"/>
      <stop offset="1" stop-color="#fff"/>
    </linearGradient>
    <mask id="mask-4" x="88.96" y="40.27" width="31.46" height="145.02" maskUnits="userSpaceOnUse">
      <g class="cls-24">
        <g class="cls-76">
          <path class="cls-33" d="M120.42,185.28c-3.77-.13-15.05-1.05-17.14-1.4-14.72-31.33-23.02-54.89,0-142.82,3.42-.67,8.31-.79,12.53-.79-1.63,36.24-11.25,86.93,4.61,145.02Z"/>
        </g>
      </g>
    </mask>
  </defs>
  <g class="cls-72">
    <g id="Layer_1" data-name="Layer 1">
      <g>
        <g>
          <g>
            <path class="cls-103" d="M151.88,185.72c39.73-41.21,10.18-124.72-5.04-166.14-1.35-3.68-41.32-3.7-42.68,0-15.22,41.42-44.78,124.93-5.04,166.14,3.17,3.29,49.6,3.29,52.77,0Z"/>
            <path class="cls-103" d="M150.04,182.95c36.96-39.83,9.46-120.57-4.69-160.61-1.26-3.56-38.44-3.57-39.7,0-14.16,40.04-41.65,120.77-4.69,160.61,2.95,3.18,46.13,3.18,49.08,0Z"/>
          </g>
          <g>
            <path class="cls-6" d="M154.98,42.56c-2.83-8.45-5.64-16.35-8.08-22.98-1.35-3.68-41.32-3.7-42.68,0-2.47,6.73-5.32,14.39-8.2,22.98,13.19-3.49,45.77-3.21,58.95,0Z"/>
            <path class="cls-6" d="M152.07,41.96c-2.58-8.33-4.8-16.85-7.02-23.39-7.05-2.63-34.61-2.24-38.85.04-2.25,6.63-4.65,14.84-7.27,23.3,11.77-2.32,40.23-2.62,53.13.05Z"/>
          </g>
          <rect x="99.28" y="166.19" width="52.66" height="11.57" rx="5.05" ry="5.05"/>
          <g>
            <path class="cls-89" d="M147.88,169.36h0l-8.81-.02c-.31,0-.56-.25-.56-.56,0-.31.25-.56.56-.56h0l8.81.02c.31,0,.56.25.56.56,0,.31-.25.56-.56.56Z"/>
            <path class="cls-89" d="M135.38,169.34h-4.43c-.31,0-.56-.26-.56-.57,0-.31.25-.56.56-.56h4.43c.31,0,.56.26.56.57,0,.31-.25.56-.56.56Z"/>
            <path class="cls-89" d="M113.44,169.36c-.31,0-.56-.25-.56-.56,0-.31.25-.56.56-.56l14.75-.03h0c.31,0,.56.25.56.56,0,.31-.25.56-.56.56l-14.75.03h0Z"/>
            <path class="cls-89" d="M111.23,169.36h-7.9c-.31,0-.56-.25-.56-.56s.25-.56.56-.56h7.9c.31,0,.56.25.56.56s-.25.56-.56.56Z"/>
            <path class="cls-89" d="M147.88,172.58h-1.57c-.31-.01-.56-.26-.56-.57,0-.31.25-.56.56-.56h1.57c.31,0,.56.26.56.57,0,.31-.25.56-.56.56Z"/>
            <path class="cls-89" d="M143.17,172.56h-6.39c-.31-.02-.56-.27-.56-.58,0-.31.25-.56.56-.56h6.39c.31.01.56.27.56.58,0,.31-.25.56-.56.56Z"/>
            <path class="cls-89" d="M125.56,172.55c-.31,0-.56-.25-.56-.56s.25-.56.56-.56h7.79s0,0,0,0c.31,0,.56.25.56.56,0,.31-.25.56-.56.56h-7.79Z"/>
            <path class="cls-89" d="M121.15,172.56c-.31,0-.56-.25-.56-.56,0-.31.25-.56.56-.56h1.32s0,0,0,0c.31,0,.56.25.56.56,0,.31-.25.56-.56.56h-1.32s0,0,0,0Z"/>
            <path class="cls-89" d="M108.87,172.58c-.31,0-.56-.25-.56-.56,0-.31.25-.56.56-.56l8.5-.02h0c.31,0,.56.25.56.56,0,.31-.25.56-.56.56l-8.5.02h0Z"/>
            <path class="cls-89" d="M105.88,172.58h-2.55c-.31,0-.56-.25-.56-.56s.25-.56.56-.56h2.55c.31,0,.56.25.56.56s-.25.56-.56.56Z"/>
            <path class="cls-89" d="M140.95,175.73c-.31,0-.56-.25-.56-.56,0-.31.25-.56.56-.56l6.93-.03h0c.31,0,.56.25.56.56,0,.31-.25.56-.56.56l-6.93.03h0Z"/>
            <path class="cls-89" d="M138.13,175.74h0l-17.04-.04c-.31,0-.56-.25-.56-.56,0-.31.25-.56.56-.56h0l17.04.04c.31,0,.56.25.56.56,0,.31-.25.56-.56.56Z"/>
            <path class="cls-89" d="M114.43,175.73c-.31,0-.56-.25-.56-.56,0-.31.25-.56.56-.57l4.12-.03h0c.31,0,.56.25.56.56,0,.31-.25.56-.56.57l-4.12.03h0Z"/>
            <path class="cls-89" d="M110.89,175.74h0l-7.56-.04c-.31,0-.56-.25-.56-.57,0-.31.25-.56.56-.56h0l7.56.04c.31,0,.56.25.56.57,0,.31-.25.56-.56.56Z"/>
          </g>
          <g class="cls-163">
            <g class="cls-4">
              <g class="cls-155">
                <polygon class="cls-117" points="108.34 22.15 115.02 22.79 108.34 22.79 108.34 22.15"/>
                <polygon class="cls-117" points="108.34 22.1 115.45 22.79 115.02 22.79 108.34 22.15 108.34 22.1"/>
                <polygon class="cls-142" points="108.34 22.06 115.88 22.79 115.45 22.79 108.34 22.1 108.34 22.06"/>
                <polygon class="cls-157" points="108.34 22.02 116.3 22.79 115.88 22.79 108.34 22.06 108.34 22.02"/>
                <polygon class="cls-91" points="108.34 21.98 116.73 22.79 116.3 22.79 108.34 22.02 108.34 21.98"/>
                <polygon class="cls-14" points="108.34 21.94 116.9 22.76 116.9 22.79 116.73 22.79 108.34 21.98 108.34 21.94"/>
                <polygon class="cls-79" points="108.34 21.9 116.9 22.72 116.9 22.76 108.34 21.94 108.34 21.9"/>
                <polygon class="cls-71" points="108.34 21.86 116.9 22.68 116.9 22.72 108.34 21.9 108.34 21.86"/>
                <polygon class="cls-80" points="108.34 21.82 116.9 22.64 116.9 22.68 108.34 21.86 108.34 21.82"/>
                <polygon class="cls-45" points="108.34 21.77 116.9 22.6 116.9 22.64 108.34 21.82 108.34 21.77"/>
                <polygon class="cls-21" points="108.34 21.73 116.9 22.56 116.9 22.6 108.34 21.77 108.34 21.73"/>
                <polygon class="cls-153" points="108.34 21.69 116.9 22.52 116.9 22.56 108.34 21.73 108.34 21.69"/>
                <polygon class="cls-162" points="108.34 21.65 116.9 22.47 116.9 22.52 108.34 21.69 108.34 21.65"/>
                <polygon class="cls-139" points="108.34 21.61 116.9 22.43 116.9 22.47 108.34 21.65 108.34 21.61"/>
                <polygon class="cls-136" points="108.34 21.57 116.9 22.39 116.9 22.43 108.34 21.61 108.34 21.57"/>
                <polygon class="cls-96" points="108.34 21.53 116.9 22.35 116.9 22.39 108.34 21.57 108.34 21.53"/>
                <polygon class="cls-30" points="108.34 21.48 116.9 22.31 116.9 22.35 108.34 21.53 108.34 21.48"/>
                <polygon class="cls-110" points="108.34 21.44 116.9 22.27 116.9 22.31 108.34 21.48 108.34 21.44"/>
                <polygon class="cls-56" points="108.34 21.4 116.9 22.23 116.9 22.27 108.34 21.44 108.34 21.4"/>
                <polygon class="cls-113" points="108.34 21.36 116.9 22.19 116.9 22.23 108.34 21.4 108.34 21.36"/>
                <polygon class="cls-97" points="108.34 21.32 116.9 22.14 116.9 22.19 108.34 21.36 108.34 21.32"/>
                <polygon class="cls-93" points="108.34 21.28 116.9 22.1 116.9 22.14 108.34 21.32 108.34 21.28"/>
                <polygon class="cls-146" points="108.34 21.24 116.9 22.06 116.9 22.1 108.34 21.28 108.34 21.24"/>
                <polygon class="cls-65" points="108.34 21.19 116.9 22.02 116.9 22.06 108.34 21.24 108.34 21.19"/>
                <polygon class="cls-27" points="108.34 21.15 116.9 21.98 116.9 22.02 108.34 21.19 108.34 21.15"/>
                <polygon class="cls-133" points="108.34 21.11 116.9 21.94 116.9 21.98 108.34 21.15 108.34 21.11"/>
                <polygon class="cls-104" points="108.34 21.07 116.9 21.9 116.9 21.94 108.34 21.11 108.34 21.07"/>
                <polygon class="cls-16" points="108.34 21.03 116.9 21.85 116.9 21.9 108.34 21.07 108.34 21.03"/>
                <polygon class="cls-18" points="108.34 20.99 116.9 21.81 116.9 21.85 108.34 21.03 108.34 20.99"/>
                <polygon class="cls-132" points="108.34 20.95 116.9 21.77 116.9 21.81 108.34 20.99 108.34 20.95"/>
                <polygon class="cls-85" points="108.34 20.91 116.9 21.73 116.9 21.77 108.34 20.95 108.34 20.91"/>
                <polygon class="cls-148" points="108.34 20.86 116.9 21.69 116.9 21.73 108.34 20.91 108.34 20.86"/>
                <polygon class="cls-26" points="108.34 20.82 116.9 21.65 116.9 21.69 108.34 20.86 108.34 20.82"/>
                <polygon class="cls-15" points="108.34 20.78 116.9 21.61 116.9 21.65 108.34 20.82 108.34 20.78"/>
                <polygon class="cls-66" points="108.34 20.74 116.9 21.56 116.9 21.61 108.34 20.78 108.34 20.74"/>
                <polygon class="cls-127" points="108.34 20.7 116.9 21.52 116.9 21.56 108.34 20.74 108.34 20.7"/>
                <polygon class="cls-141" points="108.34 20.66 116.9 21.48 116.9 21.52 108.34 20.7 108.34 20.66"/>
                <polygon class="cls-49" points="108.34 20.62 116.9 21.44 116.9 21.48 108.34 20.66 108.34 20.62"/>
                <polygon class="cls-147" points="108.34 20.57 116.9 21.4 116.9 21.44 108.34 20.62 108.34 20.57"/>
                <polygon class="cls-50" points="108.34 20.53 116.9 21.36 116.9 21.4 108.34 20.57 108.34 20.53"/>
                <polygon class="cls-102" points="108.34 20.49 116.9 21.32 116.9 21.36 108.34 20.53 108.34 20.49"/>
                <polygon class="cls-7" points="108.34 20.45 116.9 21.28 116.9 21.32 108.34 20.49 108.34 20.45"/>
                <polygon class="cls-151" points="108.34 20.41 116.9 21.23 116.9 21.28 108.34 20.45 108.34 20.41"/>
                <polygon class="cls-90" points="108.34 20.37 116.9 21.19 116.9 21.23 108.34 20.41 108.34 20.37"/>
                <polygon class="cls-158" points="108.34 20.33 116.9 21.15 116.9 21.19 108.34 20.37 108.34 20.33"/>
                <polygon class="cls-140" points="108.34 20.28 116.9 21.11 116.9 21.15 108.34 20.33 108.34 20.28"/>
                <polygon class="cls-101" points="108.34 20.24 116.9 21.07 116.9 21.11 108.34 20.28 108.34 20.24"/>
                <polygon class="cls-160" points="108.34 20.2 116.9 21.03 116.9 21.07 108.34 20.24 108.34 20.2"/>
                <polygon class="cls-119" points="108.34 20.16 116.9 20.99 116.9 21.03 108.34 20.2 108.34 20.16"/>
                <polygon class="cls-28" points="108.34 20.12 116.9 20.94 116.9 20.99 108.34 20.16 108.34 20.12"/>
                <polygon class="cls-165" points="108.34 20.08 116.9 20.9 116.9 20.94 108.34 20.12 108.34 20.08"/>
                <polygon class="cls-20" points="108.34 20.04 116.9 20.86 116.9 20.9 108.34 20.08 108.34 20.04"/>
                <polygon class="cls-37" points="108.34 20 116.9 20.82 116.9 20.86 108.34 20.04 108.34 20"/>
                <polygon class="cls-129" points="108.34 19.95 116.9 20.78 116.9 20.82 108.34 20 108.34 19.95"/>
                <polygon class="cls-115" points="108.34 19.91 116.9 20.74 116.9 20.78 108.34 19.95 108.34 19.91"/>
                <polygon class="cls-41" points="108.34 19.87 116.9 20.7 116.9 20.74 108.34 19.91 108.34 19.87"/>
                <polygon class="cls-106" points="108.34 19.83 116.9 20.65 116.9 20.7 108.34 19.87 108.34 19.83"/>
                <polygon class="cls-19" points="108.34 19.79 116.9 20.61 116.9 20.65 108.34 19.83 108.34 19.79"/>
                <polygon class="cls-69" points="108.34 19.75 116.9 20.57 116.9 20.61 108.34 19.79 108.34 19.75"/>
                <polygon class="cls-144" points="108.34 19.71 116.9 20.53 116.9 20.57 108.34 19.75 108.34 19.71"/>
                <polygon class="cls-135" points="108.34 19.66 116.9 20.49 116.9 20.53 108.34 19.71 108.34 19.66"/>
                <polygon class="cls-43" points="108.34 19.62 116.9 20.45 116.9 20.49 108.34 19.66 108.34 19.62"/>
                <polygon class="cls-95" points="108.34 19.58 116.9 20.41 116.9 20.45 108.34 19.62 108.34 19.58"/>
                <polygon class="cls-39" points="108.34 19.54 116.9 20.37 116.9 20.41 108.34 19.58 108.34 19.54"/>
                <polygon class="cls-81" points="108.34 19.5 116.9 20.32 116.9 20.37 108.34 19.54 108.34 19.5"/>
                <polygon class="cls-78" points="108.34 19.46 116.9 20.28 116.9 20.32 108.34 19.5 108.34 19.46"/>
                <polygon class="cls-145" points="108.34 19.42 116.9 20.24 116.9 20.28 108.34 19.46 108.34 19.42"/>
                <polygon class="cls-130" points="108.34 19.37 116.9 20.2 116.9 20.24 108.34 19.42 108.34 19.37"/>
                <polygon class="cls-47" points="108.34 19.33 116.9 20.16 116.9 20.2 108.34 19.37 108.34 19.33"/>
                <polygon class="cls-120" points="108.34 19.29 116.9 20.12 116.9 20.16 108.34 19.33 108.34 19.29"/>
                <polygon class="cls-42" points="108.34 19.25 116.9 20.08 116.9 20.12 108.34 19.29 108.34 19.25"/>
                <polygon class="cls-64" points="108.34 19.21 116.9 20.03 116.9 20.08 108.34 19.25 108.34 19.21"/>
                <polygon class="cls-48" points="108.34 19.17 116.9 19.99 116.9 20.03 108.34 19.21 108.34 19.17"/>
                <polygon class="cls-123" points="108.34 19.13 116.9 19.95 116.9 19.99 108.34 19.17 108.34 19.13"/>
                <polygon class="cls-53" points="108.34 19.09 116.9 19.91 116.9 19.95 108.34 19.13 108.34 19.09"/>
                <polygon class="cls-108" points="108.34 19.04 116.9 19.87 116.9 19.91 108.34 19.09 108.34 19.04"/>
                <polygon class="cls-17" points="108.34 19 116.9 19.83 116.9 19.87 108.34 19.04 108.34 19"/>
                <polygon class="cls-52" points="108.34 18.96 116.9 19.79 116.9 19.83 108.34 19 108.34 18.96"/>
                <polygon class="cls-164" points="108.34 18.92 116.9 19.74 116.9 19.79 108.34 18.96 108.34 18.92"/>
                <polygon class="cls-87" points="108.34 18.88 116.9 19.7 116.9 19.74 108.34 18.92 108.34 18.88"/>
                <polygon class="cls-82" points="108.34 18.84 116.9 19.66 116.9 19.7 108.34 18.88 108.34 18.84"/>
                <polygon class="cls-154" points="108.34 18.8 116.9 19.62 116.9 19.66 108.34 18.84 108.34 18.8"/>
                <polygon class="cls-38" points="108.34 18.75 116.9 19.58 116.9 19.62 108.34 18.8 108.34 18.75"/>
                <polygon class="cls-124" points="108.34 18.71 116.9 19.54 116.9 19.58 108.34 18.75 108.34 18.71"/>
                <polygon class="cls-114" points="108.34 18.67 116.9 19.5 116.9 19.54 108.34 18.71 108.34 18.67"/>
                <polygon class="cls-25" points="108.34 18.63 116.9 19.46 116.9 19.5 108.34 18.67 108.34 18.63"/>
                <polygon class="cls-105" points="108.34 18.59 116.9 19.41 116.9 19.46 108.34 18.63 108.34 18.59"/>
                <polygon class="cls-70" points="108.34 18.55 116.9 19.37 116.9 19.41 108.34 18.59 108.34 18.55"/>
                <polygon class="cls-54" points="108.34 18.51 116.9 19.33 116.9 19.37 108.34 18.55 108.34 18.51"/>
                <polygon class="cls-128" points="108.34 18.46 116.9 19.29 116.9 19.33 108.34 18.51 108.34 18.46"/>
                <polygon class="cls-61" points="108.34 18.42 116.9 19.25 116.9 19.29 108.34 18.46 108.34 18.42"/>
                <polygon class="cls-149" points="108.34 18.38 116.9 19.21 116.9 19.25 108.34 18.42 108.34 18.38"/>
                <polygon class="cls-161" points="108.34 18.34 116.9 19.17 116.9 19.21 108.34 18.38 108.34 18.34"/>
                <polygon class="cls-55" points="108.34 18.3 116.9 19.12 116.9 19.17 108.34 18.34 108.34 18.3"/>
                <polygon class="cls-121" points="108.34 18.26 116.9 19.08 116.9 19.12 108.34 18.3 108.34 18.26"/>
                <polygon class="cls-13" points="108.34 18.22 116.9 19.04 116.9 19.08 108.34 18.26 108.34 18.22"/>
                <polygon class="cls-59" points="108.34 18.18 116.9 19 116.9 19.04 108.34 18.22 108.34 18.18"/>
                <polygon class="cls-138" points="108.34 18.13 116.9 18.96 116.9 19 108.34 18.18 108.34 18.13"/>
                <polygon class="cls-36" points="108.34 18.09 116.9 18.92 116.9 18.96 108.34 18.13 108.34 18.09"/>
                <polygon class="cls-58" points="108.34 18.05 116.9 18.88 116.9 18.92 108.34 18.09 108.34 18.05"/>
                <polygon class="cls-84" points="108.34 18.01 116.9 18.83 116.9 18.88 108.34 18.05 108.34 18.01"/>
                <polygon class="cls-159" points="108.34 17.97 116.9 18.79 116.9 18.83 108.34 18.01 108.34 17.97"/>
                <polygon class="cls-35" points="108.34 17.93 116.9 18.75 116.9 18.79 108.34 17.97 108.34 17.93"/>
                <polygon class="cls-9" points="108.34 17.89 116.9 18.71 116.9 18.75 108.34 17.93 108.34 17.89"/>
                <polygon class="cls-107" points="108.34 17.84 116.9 18.67 116.9 18.71 108.34 17.89 108.34 17.84"/>
                <polygon class="cls-122" points="108.34 17.8 116.9 18.63 116.9 18.67 108.34 17.84 108.34 17.8"/>
                <polygon class="cls-94" points="108.34 17.76 116.9 18.59 116.9 18.63 108.34 17.8 108.34 17.76"/>
                <polygon class="cls-152" points="108.34 17.72 116.9 18.55 116.9 18.59 108.34 17.76 108.34 17.72"/>
                <polygon class="cls-68" points="108.34 17.68 116.9 18.5 116.9 18.55 108.34 17.72 108.34 17.68"/>
                <polygon class="cls-63" points="108.34 17.64 116.9 18.46 116.9 18.5 108.34 17.68 108.34 17.64"/>
                <polygon class="cls-131" points="108.34 17.6 116.9 18.42 116.9 18.46 108.34 17.64 108.34 17.6"/>
                <polygon class="cls-125" points="108.34 17.55 116.9 18.38 116.9 18.42 108.34 17.6 108.34 17.55"/>
                <polygon class="cls-10" points="108.34 17.51 116.9 18.34 116.9 18.38 108.34 17.55 108.34 17.51"/>
                <polygon class="cls-111" points="108.34 17.47 116.9 18.3 116.9 18.34 108.34 17.51 108.34 17.47"/>
                <polygon class="cls-12" points="108.34 17.43 116.9 18.26 116.9 18.3 108.34 17.47 108.34 17.43"/>
                <polygon class="cls-166" points="108.34 17.39 116.9 18.21 116.9 18.26 108.34 17.43 108.34 17.39"/>
                <polygon class="cls-156" points="108.34 17.35 116.9 18.17 116.9 18.21 108.34 17.39 108.34 17.35"/>
                <polygon class="cls-134" points="108.34 17.31 116.9 18.13 116.9 18.17 108.34 17.35 108.34 17.31"/>
                <polygon class="cls-62" points="108.34 17.27 116.9 18.09 116.9 18.13 108.34 17.31 108.34 17.27"/>
                <polygon class="cls-51" points="108.34 17.22 116.9 18.05 116.9 18.09 108.34 17.27 108.34 17.22"/>
                <polygon class="cls-11" points="108.34 17.18 116.9 18.01 116.9 18.05 108.34 17.22 108.34 17.18"/>
                <polygon class="cls-109" points="108.34 17.14 116.9 17.97 116.9 18.01 108.34 17.18 108.34 17.14"/>
                <polygon class="cls-22" points="108.34 17.1 116.9 17.92 116.9 17.97 108.34 17.14 108.34 17.1"/>
                <polygon class="cls-112" points="108.34 17.06 116.9 17.88 116.9 17.92 108.34 17.1 108.34 17.06"/>
                <polygon class="cls-57" points="108.34 17.02 116.9 17.84 116.9 17.88 108.34 17.06 108.34 17.02"/>
                <polygon class="cls-118" points="108.5 16.99 116.9 17.8 116.9 17.84 108.34 17.02 108.34 16.99 108.5 16.99"/>
                <polygon class="cls-86" points="108.93 16.99 116.9 17.76 116.9 17.8 108.5 16.99 108.93 16.99"/>
                <polygon class="cls-40" points="109.36 16.99 116.9 17.72 116.9 17.76 108.93 16.99 109.36 16.99"/>
                <polygon class="cls-100" points="109.78 16.99 116.9 17.68 116.9 17.72 109.36 16.99 109.78 16.99"/>
                <polygon class="cls-100" points="110.21 16.99 116.9 17.64 116.9 17.68 109.78 16.99 110.21 16.99"/>
                <polygon class="cls-143" points="110.64 16.99 116.9 17.59 116.9 17.64 110.21 16.99 110.64 16.99"/>
                <polygon class="cls-67" points="111.07 16.99 116.9 17.55 116.9 17.59 110.64 16.99 111.07 16.99"/>
                <polygon class="cls-126" points="111.5 16.99 116.9 17.51 116.9 17.55 111.07 16.99 111.5 16.99"/>
                <polygon class="cls-99" points="111.93 16.99 116.9 17.47 116.9 17.51 111.5 16.99 111.93 16.99"/>
                <polygon class="cls-137" points="112.36 16.99 116.9 17.43 116.9 17.47 111.93 16.99 112.36 16.99"/>
                <polygon class="cls-60" points="112.79 16.99 116.9 17.39 116.9 17.43 112.36 16.99 112.79 16.99"/>
                <polygon class="cls-5" points="113.22 16.99 116.9 17.35 116.9 17.39 112.79 16.99 113.22 16.99"/>
                <polygon class="cls-116" points="113.65 16.99 116.9 17.3 116.9 17.35 113.22 16.99 113.65 16.99"/>
                <polygon class="cls-1" points="114.08 16.99 116.9 17.26 116.9 17.3 113.65 16.99 114.08 16.99"/>
                <polygon class="cls-92" points="114.5 16.99 116.9 17.22 116.9 17.26 114.08 16.99 114.5 16.99"/>
                <polygon class="cls-44" points="114.93 16.99 116.9 17.18 116.9 17.22 114.5 16.99 114.93 16.99"/>
                <polygon class="cls-44" points="115.36 16.99 116.9 17.14 116.9 17.18 114.93 16.99 115.36 16.99"/>
                <polygon class="cls-83" points="115.79 16.99 116.9 17.1 116.9 17.14 115.36 16.99 115.79 16.99"/>
                <polygon class="cls-150" points="116.22 16.99 116.9 17.06 116.9 17.1 115.79 16.99 116.22 16.99"/>
                <polygon class="cls-29" points="116.65 16.99 116.9 17.01 116.9 17.06 116.22 16.99 116.65 16.99"/>
                <polygon class="cls-98" points="116.9 17.01 116.65 16.99 116.9 16.99 116.9 17.01"/>
              </g>
            </g>
            <g class="cls-73">
              <g class="cls-88">
                <polygon class="cls-117" points="103.29 39.25 116.5 40.52 116.44 41.06 103.29 41.06 103.29 39.25"/>
                <polygon class="cls-117" points="103.29 39.13 116.51 40.41 116.5 40.52 103.29 39.25 103.29 39.13"/>
                <polygon class="cls-142" points="103.29 39.02 116.52 40.29 116.51 40.41 103.29 39.13 103.29 39.02"/>
                <polygon class="cls-157" points="103.29 38.9 116.53 40.18 116.52 40.29 103.29 39.02 103.29 38.9"/>
                <polygon class="cls-91" points="103.29 38.79 116.54 40.06 116.53 40.18 103.29 38.9 103.29 38.79"/>
                <polygon class="cls-14" points="103.29 38.67 116.55 39.95 116.54 40.06 103.29 38.79 103.29 38.67"/>
                <polygon class="cls-79" points="103.29 38.55 116.56 39.83 116.55 39.95 103.29 38.67 103.29 38.55"/>
                <polygon class="cls-71" points="103.29 38.44 116.57 39.72 116.56 39.83 103.29 38.55 103.29 38.44"/>
                <polygon class="cls-80" points="103.29 38.32 116.58 39.6 116.58 39.69 116.57 39.72 103.29 38.44 103.29 38.32"/>
                <polygon class="cls-45" points="103.29 38.2 116.58 39.49 116.58 39.6 103.29 38.32 103.29 38.2"/>
                <polygon class="cls-21" points="103.29 38.09 116.58 39.37 116.58 39.49 103.29 38.2 103.29 38.09"/>
                <polygon class="cls-153" points="103.29 37.97 116.58 39.25 116.58 39.37 103.29 38.09 103.29 37.97"/>
                <polygon class="cls-162" points="103.29 37.86 116.58 39.14 116.58 39.25 103.29 37.97 103.29 37.86"/>
                <polygon class="cls-139" points="103.29 37.74 116.58 39.02 116.58 39.14 103.29 37.86 103.29 37.74"/>
                <polygon class="cls-136" points="103.29 37.62 116.58 38.9 116.58 39.02 103.29 37.74 103.29 37.62"/>
                <polygon class="cls-96" points="103.29 37.51 116.58 38.79 116.58 38.9 103.29 37.62 103.29 37.51"/>
                <polygon class="cls-30" points="103.29 37.39 116.58 38.67 116.58 38.79 103.29 37.51 103.29 37.39"/>
                <polygon class="cls-110" points="103.29 37.27 116.58 38.56 116.58 38.67 103.29 37.39 103.29 37.27"/>
                <polygon class="cls-56" points="103.29 37.16 116.58 38.44 116.58 38.56 103.29 37.27 103.29 37.16"/>
                <polygon class="cls-113" points="103.29 37.04 116.58 38.32 116.58 38.44 103.29 37.16 103.29 37.04"/>
                <polygon class="cls-97" points="103.29 36.93 116.58 38.21 116.58 38.32 103.29 37.04 103.29 36.93"/>
                <polygon class="cls-93" points="103.29 36.81 116.58 38.09 116.58 38.21 103.29 36.93 103.29 36.81"/>
                <polygon class="cls-146" points="103.29 36.69 116.58 37.97 116.58 38.09 103.29 36.81 103.29 36.69"/>
                <polygon class="cls-65" points="103.29 36.58 116.58 37.86 116.58 37.97 103.29 36.69 103.29 36.58"/>
                <polygon class="cls-27" points="103.29 36.46 116.58 37.74 116.58 37.86 103.29 36.58 103.29 36.46"/>
                <polygon class="cls-133" points="103.29 36.34 116.58 37.62 116.58 37.74 103.29 36.46 103.29 36.34"/>
                <polygon class="cls-104" points="103.29 36.23 116.58 37.51 116.58 37.62 103.29 36.34 103.29 36.23"/>
                <polygon class="cls-16" points="103.29 36.11 116.58 37.39 116.58 37.51 103.29 36.23 103.29 36.11"/>
                <polygon class="cls-18" points="103.29 35.99 116.58 37.28 116.58 37.39 103.29 36.11 103.29 35.99"/>
                <polygon class="cls-132" points="103.29 35.88 116.58 37.16 116.58 37.28 103.29 35.99 103.29 35.88"/>
                <polygon class="cls-85" points="103.29 35.76 116.58 37.04 116.58 37.16 103.29 35.88 103.29 35.76"/>
                <polygon class="cls-148" points="103.29 35.65 116.58 36.93 116.58 37.04 103.29 35.76 103.29 35.65"/>
                <polygon class="cls-26" points="103.29 35.53 116.58 36.81 116.58 36.93 103.29 35.65 103.29 35.53"/>
                <polygon class="cls-15" points="103.29 35.41 116.58 36.69 116.58 36.81 103.29 35.53 103.29 35.41"/>
                <polygon class="cls-66" points="103.29 35.3 116.58 36.58 116.58 36.69 103.29 35.41 103.29 35.3"/>
                <polygon class="cls-127" points="103.29 35.18 116.58 36.46 116.58 36.58 103.29 35.3 103.29 35.18"/>
                <polygon class="cls-141" points="103.29 35.06 116.58 36.35 116.58 36.46 103.29 35.18 103.29 35.06"/>
                <polygon class="cls-49" points="103.29 34.95 116.58 36.23 116.58 36.35 103.29 35.06 103.29 34.95"/>
                <polygon class="cls-147" points="103.29 34.83 116.58 36.11 116.58 36.23 103.29 34.95 103.29 34.83"/>
                <polygon class="cls-50" points="103.29 34.72 116.58 36 116.58 36.11 103.29 34.83 103.29 34.72"/>
                <polygon class="cls-102" points="103.29 34.6 116.58 35.88 116.58 36 103.29 34.72 103.29 34.6"/>
                <polygon class="cls-7" points="103.29 34.48 116.58 35.76 116.58 35.88 103.29 34.6 103.29 34.48"/>
                <polygon class="cls-151" points="103.29 34.37 116.58 35.65 116.58 35.76 103.29 34.48 103.29 34.37"/>
                <polygon class="cls-90" points="103.29 34.25 116.58 35.53 116.58 35.65 103.29 34.37 103.29 34.25"/>
                <polygon class="cls-158" points="103.29 34.13 116.58 35.42 116.58 35.53 103.29 34.25 103.29 34.13"/>
                <polygon class="cls-140" points="103.29 34.02 116.58 35.3 116.58 35.42 103.29 34.13 103.29 34.02"/>
                <polygon class="cls-101" points="103.29 33.9 116.58 35.18 116.58 35.3 103.29 34.02 103.29 33.9"/>
                <polygon class="cls-160" points="103.29 33.79 116.58 35.07 116.58 35.18 103.29 33.9 103.29 33.79"/>
                <polygon class="cls-119" points="103.29 33.7 103.29 33.67 116.58 34.95 116.58 35.07 103.29 33.79 103.29 33.7"/>
                <polygon class="cls-28" points="103.29 33.67 103.3 33.55 116.58 34.83 116.58 34.95 103.29 33.67"/>
                <polygon class="cls-165" points="103.3 33.55 103.31 33.44 116.58 34.72 116.58 34.83 103.3 33.55"/>
                <polygon class="cls-20" points="103.31 33.44 103.32 33.32 116.58 34.6 116.58 34.72 103.31 33.44"/>
                <polygon class="cls-37" points="103.32 33.32 103.33 33.21 116.58 34.49 116.58 34.6 103.32 33.32"/>
                <polygon class="cls-129" points="103.33 33.21 103.34 33.09 116.58 34.37 116.58 34.49 103.33 33.21"/>
                <polygon class="cls-115" points="103.34 33.09 103.36 32.98 116.58 34.25 116.58 34.37 103.34 33.09"/>
                <polygon class="cls-41" points="103.36 32.98 103.37 32.86 116.58 34.14 116.58 34.25 103.36 32.98"/>
                <polygon class="cls-106" points="103.37 32.86 103.38 32.75 116.58 34.02 116.58 34.14 103.37 32.86"/>
                <polygon class="cls-19" points="103.38 32.75 103.39 32.63 116.58 33.9 116.58 34.02 103.38 32.75"/>
                <polygon class="cls-69" points="103.39 32.63 103.4 32.52 116.58 33.79 116.58 33.9 103.39 32.63"/>
                <polygon class="cls-144" points="103.4 32.52 103.41 32.4 116.58 33.67 116.58 33.79 103.4 32.52"/>
                <polygon class="cls-135" points="103.41 32.4 103.42 32.29 116.58 33.56 116.58 33.67 103.41 32.4"/>
                <polygon class="cls-43" points="103.42 32.29 103.43 32.17 116.58 33.44 116.58 33.56 103.42 32.29"/>
                <polygon class="cls-95" points="103.43 32.17 103.44 32.06 116.58 33.32 116.58 33.44 103.43 32.17"/>
                <polygon class="cls-39" points="103.44 32.06 103.46 31.94 116.58 33.21 116.58 33.32 103.44 32.06"/>
                <polygon class="cls-81" points="103.46 31.94 103.47 31.83 116.58 33.09 116.58 33.21 103.46 31.94"/>
                <polygon class="cls-78" points="103.47 31.83 103.48 31.71 116.58 32.97 116.58 33.09 103.47 31.83"/>
                <polygon class="cls-145" points="103.48 31.71 103.49 31.6 116.58 32.86 116.58 32.97 103.48 31.71"/>
                <polygon class="cls-130" points="103.49 31.6 103.5 31.48 116.58 32.74 116.58 32.86 103.49 31.6"/>
                <polygon class="cls-47" points="103.5 31.48 103.51 31.37 116.58 32.63 116.58 32.74 103.5 31.48"/>
                <polygon class="cls-120" points="103.51 31.37 103.52 31.25 116.58 32.51 116.58 32.63 103.51 31.37"/>
                <polygon class="cls-42" points="103.52 31.25 103.53 31.14 116.58 32.39 116.58 32.51 103.52 31.25"/>
                <polygon class="cls-64" points="103.53 31.14 103.54 31.02 116.58 32.28 116.58 32.39 103.53 31.14"/>
                <polygon class="cls-48" points="103.54 31.02 103.56 30.91 116.58 32.16 116.58 32.28 103.54 31.02"/>
                <polygon class="cls-123" points="103.56 30.91 103.57 30.79 116.58 32.04 116.58 32.16 103.56 30.91"/>
                <polygon class="cls-53" points="103.57 30.79 103.58 30.68 116.58 31.93 116.58 32.04 103.57 30.79"/>
                <polygon class="cls-108" points="103.58 30.68 103.59 30.56 116.58 31.81 116.58 31.93 103.58 30.68"/>
                <polygon class="cls-17" points="103.59 30.56 103.6 30.44 116.58 31.7 116.58 31.81 103.59 30.56"/>
                <polygon class="cls-52" points="103.6 30.44 103.61 30.33 116.58 31.58 116.58 31.7 103.6 30.44"/>
                <polygon class="cls-164" points="103.61 30.33 103.62 30.21 116.58 31.46 116.58 31.58 103.61 30.33"/>
                <polygon class="cls-87" points="103.62 30.21 103.63 30.1 116.58 31.35 116.58 31.46 103.62 30.21"/>
                <polygon class="cls-82" points="103.63 30.1 103.64 29.98 116.58 31.23 116.58 31.35 103.63 30.1"/>
                <polygon class="cls-154" points="103.64 29.98 103.66 29.87 116.58 31.11 116.58 31.23 103.64 29.98"/>
                <polygon class="cls-38" points="103.66 29.87 103.67 29.75 116.58 31 116.58 31.11 103.66 29.87"/>
                <polygon class="cls-124" points="103.67 29.75 103.68 29.64 116.58 30.88 116.58 31 103.67 29.75"/>
                <polygon class="cls-114" points="103.68 29.64 103.69 29.52 116.58 30.77 116.58 30.88 103.68 29.64"/>
                <polygon class="cls-25" points="103.69 29.52 103.7 29.41 116.58 30.65 116.58 30.77 103.69 29.52"/>
                <polygon class="cls-105" points="103.7 29.41 103.71 29.29 116.58 30.53 116.58 30.65 103.7 29.41"/>
                <polygon class="cls-70" points="103.71 29.29 103.72 29.18 116.58 30.42 116.58 30.53 103.71 29.29"/>
                <polygon class="cls-54" points="103.72 29.18 103.73 29.06 116.58 30.3 116.58 30.42 103.72 29.18"/>
                <polygon class="cls-128" points="103.73 29.06 103.74 28.95 116.58 30.18 116.58 30.3 103.73 29.06"/>
                <polygon class="cls-61" points="103.74 28.95 103.76 28.83 116.58 30.07 116.58 30.18 103.74 28.95"/>
                <polygon class="cls-149" points="103.76 28.83 103.77 28.72 116.58 29.95 116.58 30.07 103.76 28.83"/>
                <polygon class="cls-161" points="103.77 28.72 103.78 28.6 116.58 29.84 116.58 29.95 103.77 28.72"/>
                <polygon class="cls-55" points="103.78 28.6 103.79 28.49 116.58 29.72 116.58 29.84 103.78 28.6"/>
                <polygon class="cls-121" points="103.79 28.49 103.8 28.37 116.58 29.6 116.58 29.72 103.79 28.49"/>
                <polygon class="cls-13" points="103.8 28.37 103.81 28.26 116.58 29.49 116.58 29.6 103.8 28.37"/>
                <polygon class="cls-59" points="103.81 28.26 103.82 28.14 116.58 29.37 116.58 29.49 103.81 28.26"/>
                <polygon class="cls-138" points="103.82 28.14 103.83 28.03 116.58 29.25 116.58 29.37 103.82 28.14"/>
                <polygon class="cls-36" points="103.83 28.03 103.84 27.91 116.58 29.14 116.58 29.25 103.83 28.03"/>
                <polygon class="cls-58" points="103.84 27.91 103.85 27.8 116.58 29.02 116.58 29.14 103.84 27.91"/>
                <polygon class="cls-84" points="103.85 27.8 103.87 27.68 116.58 28.91 116.58 29.02 103.85 27.8"/>
                <polygon class="cls-159" points="103.87 27.68 103.88 27.57 116.58 28.79 116.58 28.91 103.87 27.68"/>
                <polygon class="cls-35" points="103.88 27.57 103.89 27.45 116.58 28.67 116.58 28.79 103.88 27.57"/>
                <polygon class="cls-9" points="103.89 27.45 103.9 27.33 116.58 28.56 116.58 28.67 103.89 27.45"/>
                <polygon class="cls-107" points="103.9 27.33 103.91 27.22 116.58 28.44 116.58 28.56 103.9 27.33"/>
                <polygon class="cls-122" points="103.91 27.22 103.92 27.1 116.58 28.32 116.58 28.44 103.91 27.22"/>
                <polygon class="cls-94" points="103.92 27.1 103.93 26.99 116.58 28.21 116.58 28.32 103.92 27.1"/>
                <polygon class="cls-152" points="103.93 26.99 103.94 26.87 116.58 28.09 116.58 28.21 103.93 26.99"/>
                <polygon class="cls-68" points="103.94 26.87 103.95 26.76 116.58 27.98 116.58 28.09 103.94 26.87"/>
                <polygon class="cls-63" points="103.95 26.76 103.97 26.64 116.58 27.86 116.58 27.98 103.95 26.76"/>
                <polygon class="cls-131" points="103.97 26.64 103.98 26.53 116.58 27.74 116.58 27.86 103.97 26.64"/>
                <polygon class="cls-125" points="103.98 26.53 103.99 26.41 116.58 27.63 116.58 27.74 103.98 26.53"/>
                <polygon class="cls-10" points="103.99 26.41 104 26.3 116.58 27.51 116.58 27.63 103.99 26.41"/>
                <polygon class="cls-111" points="104 26.3 104.01 26.18 116.58 27.39 116.58 27.51 104 26.3"/>
                <polygon class="cls-12" points="104.01 26.18 104.02 26.07 116.58 27.28 116.58 27.39 104.01 26.18"/>
                <polygon class="cls-166" points="104.02 26.07 104.03 25.95 116.58 27.16 116.58 27.28 104.02 26.07"/>
                <polygon class="cls-156" points="104.03 25.95 104.04 25.84 116.58 27.05 116.58 27.16 104.03 25.95"/>
                <polygon class="cls-134" points="104.04 25.84 104.05 25.72 116.58 26.93 116.58 27.05 104.04 25.84"/>
                <polygon class="cls-62" points="104.05 25.72 104.07 25.61 116.58 26.81 116.58 26.93 104.05 25.72"/>
                <polygon class="cls-51" points="104.07 25.61 104.08 25.49 116.58 26.7 116.58 26.81 104.07 25.61"/>
                <polygon class="cls-11" points="104.08 25.49 104.09 25.38 116.58 26.58 116.58 26.7 104.08 25.49"/>
                <polygon class="cls-109" points="104.09 25.38 104.1 25.26 116.58 26.46 116.58 26.58 104.09 25.38"/>
                <polygon class="cls-22" points="104.1 25.26 104.11 25.15 116.58 26.35 116.58 26.46 104.1 25.26"/>
                <polygon class="cls-112" points="104.11 25.15 104.12 25.03 116.58 26.23 116.58 26.35 104.11 25.15"/>
                <polygon class="cls-57" points="104.12 25.03 104.13 24.92 116.58 26.12 116.58 26.23 104.12 25.03"/>
                <polygon class="cls-118" points="104.13 24.92 104.14 24.8 116.58 26 116.58 26.12 104.13 24.92"/>
                <polygon class="cls-86" points="104.14 24.8 104.15 24.69 116.58 25.88 116.58 26 104.14 24.8"/>
                <polygon class="cls-40" points="104.15 24.69 104.17 24.57 116.58 25.77 116.58 25.88 104.15 24.69"/>
                <polygon class="cls-100" points="104.17 24.57 104.18 24.46 116.58 25.65 116.58 25.77 104.17 24.57"/>
                <polygon class="cls-100" points="104.18 24.46 104.19 24.34 116.58 25.53 116.58 25.65 104.18 24.46"/>
                <polygon class="cls-143" points="104.19 24.34 104.2 24.22 116.58 25.42 116.58 25.53 104.19 24.34"/>
                <polygon class="cls-67" points="104.2 24.22 104.21 24.11 116.58 25.3 116.58 25.42 104.2 24.22"/>
                <polygon class="cls-126" points="104.21 24.11 104.22 23.99 116.58 25.19 116.58 25.3 104.21 24.11"/>
                <polygon class="cls-99" points="104.22 23.99 104.23 23.88 116.58 25.07 116.58 25.19 104.22 23.99"/>
                <polygon class="cls-137" points="104.23 23.88 104.24 23.76 116.58 24.95 116.58 25.07 104.23 23.88"/>
                <polygon class="cls-60" points="104.24 23.76 104.25 23.72 105.02 23.72 116.58 24.84 116.58 24.95 104.24 23.76"/>
                <polygon class="cls-5" points="106.23 23.72 116.58 24.72 116.58 24.84 105.02 23.72 106.23 23.72"/>
                <polygon class="cls-116" points="107.43 23.72 116.58 24.6 116.58 24.72 106.23 23.72 107.43 23.72"/>
                <polygon class="cls-1" points="108.64 23.72 116.58 24.49 116.58 24.6 107.43 23.72 108.64 23.72"/>
                <polygon class="cls-92" points="109.85 23.72 116.58 24.37 116.58 24.49 108.64 23.72 109.85 23.72"/>
                <polygon class="cls-44" points="111.05 23.72 116.58 24.26 116.58 24.37 109.85 23.72 111.05 23.72"/>
                <polygon class="cls-44" points="112.26 23.72 116.58 24.14 116.58 24.26 111.05 23.72 112.26 23.72"/>
                <polygon class="cls-83" points="113.46 23.72 116.58 24.02 116.58 24.14 112.26 23.72 113.46 23.72"/>
                <polygon class="cls-150" points="114.67 23.72 116.58 23.91 116.58 24.02 113.46 23.72 114.67 23.72"/>
                <polygon class="cls-29" points="115.88 23.72 116.58 23.79 116.58 23.91 114.67 23.72 115.88 23.72"/>
                <polygon class="cls-98" points="116.58 23.79 115.88 23.72 116.58 23.72 116.58 23.79"/>
              </g>
            </g>
            <g class="cls-75">
              <path class="cls-103" d="M120.42,185.28c-3.77-.13-15.05-1.05-17.14-1.4-14.72-31.33-23.02-54.89,0-142.82,3.42-.67,8.31-.79,12.53-.79-1.63,36.24-11.25,86.93,4.61,145.02Z"/>
            </g>
          </g>
          <g class="cls-31">
            <path class="cls-46" d="M117.98,22.53c.38-3.2,4.75-4.53,8.07-4.57,3.32-.03,8.32,1.29,8.32,4.62-5.72.02-11.11-.19-16.39-.06Z"/>
            <path class="cls-46" d="M102.32,24.6c12.92-3.09,37.44-3.09,46.41.03.16.26.51,1.22.72,1.79-5.78-3.4-35.61-4.42-47.71-.24.31-.59.44-1.18.57-1.58Z"/>
            <path class="cls-46" d="M123.03,31.45c2.43,1.07,6.93.21,9.13-1.29,2.85-1.94,2.97-4.62,2.32-7.2-.89.02-1.78.03-2.66.05.16,1.68.2,4.42-.94,5.86-1.14,1.45-3.88,2.58-7.84,2.58Z"/>
          </g>
          <g>
            <g>
              <path d="M148.87,25.48c-.13,0-.25-.08-.3-.2-.11-.27-.96-1.18-7.46-1.87-4.19-.45-9.74-.69-15.63-.69-5.88,0-11.41.24-15.58.69-6.48.69-7.33,1.61-7.44,1.88-.07.16-.25.24-.42.18-.16-.07-.24-.25-.18-.42.15-.37.6-1.49,7.97-2.28,4.19-.45,9.75-.69,15.65-.69,5.91,0,11.48.25,15.69.69,7.39.79,7.84,1.91,7.99,2.27.07.16-.01.35-.18.42-.04.02-.08.02-.12.02Z"/>
              <path d="M102.17,25.66c-.06,0-.13-.01-.19-.04-.25-.1-.38-.39-.28-.65.18-.43.64-1.59,8.11-2.39,4.2-.45,9.76-.69,15.67-.69,5.91,0,11.5.25,15.71.7,7.5.8,7.96,1.95,8.14,2.38.1.25-.02.54-.28.65-.25.1-.55-.03-.65-.28-.04-.11-.61-1.05-7.32-1.77-4.18-.44-9.72-.69-15.61-.69s-11.39.24-15.56.69c-6.68.71-7.25,1.66-7.29,1.77-.05.12-.14.22-.27.27-.06.03-.13.04-.19.04ZM125.48,22.25c-5.89,0-11.44.25-15.63.69-4.82.51-7.45,1.24-7.82,2.17-.03.07,0,.16.08.19.04.01.07.01.11,0,.04-.02.06-.04.08-.08.19-.46,1.42-1.33,7.58-1.99,4.18-.45,9.72-.69,15.6-.69s11.45.25,15.64.69c6.19.66,7.42,1.53,7.61,1.98.03.07.12.11.19.08.07-.03.11-.11.08-.19-.37-.92-3.01-1.65-7.85-2.16-4.21-.45-9.77-.69-15.68-.69Z"/>
            </g>
            <g>
              <path d="M125.5,188.51h0c-11.13,0-24.79-.67-26.61-2.57-9.3-9.65-15.42-22.32-18.2-37.68-2.36-13.07-2.35-28.4.03-45.57,4.5-32.48,16.63-65.48,23.15-83.21,1.06-2.89,19.51-2.98,21.61-2.98s20.61.08,21.67,2.98c6.52,17.73,18.64,50.74,23.15,83.21,2.38,17.17,2.39,32.5.03,45.57-2.78,15.36-8.9,28.04-18.2,37.68h0c-1.83,1.9-15.48,2.57-26.62,2.57ZM125.47,17.13c-5.37,0-10.42.24-14.23.69-5.9.69-6.68,1.6-6.77,1.87-13.62,37.07-45.53,123.89-5.11,165.8,1.32,1.37,12.32,2.37,26.15,2.37h0c13.83,0,24.83-1,26.15-2.37h0c40.41-41.91,8.51-128.73-5.11-165.8-.1-.26-.87-1.18-6.8-1.87-3.83-.45-8.9-.69-14.27-.69ZM151.88,185.72h0,0Z"/>
              <path d="M125.5,188.68h0c-4.04,0-24.33-.13-26.74-2.62-9.33-9.67-15.46-22.38-18.25-37.77-2.36-13.09-2.36-28.44.03-45.63,4.5-32.5,16.64-65.51,23.15-83.25,1.08-2.94,18.33-3.09,21.78-3.09s20.76.15,21.84,3.09c6.52,17.74,18.65,50.76,23.15,83.25,2.38,17.19,2.39,32.54.03,45.63-2.78,15.39-8.92,28.1-18.25,37.77-2.41,2.5-22.7,2.62-26.74,2.62ZM125.47,16.67c-7.57,0-20.62.6-21.45,2.86-6.51,17.72-18.64,50.72-23.14,83.18-2.38,17.15-2.39,32.47-.03,45.52,2.77,15.32,8.88,27.97,18.15,37.59,1.67,1.74,14.51,2.51,26.49,2.51h0c11.98,0,24.82-.78,26.49-2.51,9.28-9.62,15.38-22.27,18.15-37.59,2.36-13.05,2.35-28.37-.03-45.52-4.5-32.46-16.62-65.45-23.13-83.17-.83-2.26-13.91-2.86-21.51-2.86ZM125.5,188.04c-14.1,0-24.9-1-26.28-2.43-40.49-41.99-8.56-128.88,5.08-165.99.17-.46,1.29-1.33,6.92-1.98,3.82-.44,8.88-.69,14.25-.69s10.46.25,14.29.69c5.65.66,6.77,1.52,6.94,1.98,13.64,37.11,45.56,124,5.08,165.99-1.38,1.43-12.19,2.43-26.28,2.43ZM125.47,17.31c-5.36,0-10.41.24-14.21.69-6.08.71-6.59,1.65-6.63,1.75-13.61,37.04-45.49,123.79-5.15,165.62,1.27,1.32,12.46,2.32,26.02,2.32,13.57,0,24.76-1,26.03-2.32,40.33-41.83,8.46-128.58-5.15-165.62-.04-.11-.55-1.04-6.65-1.75-3.82-.44-8.88-.69-14.25-.69ZM151.89,185.89v-.35s0,0,0,0v.35Z"/>
            </g>
            <g>
              <path d="M96.02,42.89c-.09,0-.17-.04-.23-.1-.08-.09-.11-.21-.07-.32,2.59-7.76,5.18-14.79,7.46-21l.73-2c1.06-2.89,19.51-2.98,21.61-2.98s20.61.08,21.67,2.98c2.84,7.72,5.55,15.45,8.08,22.99.04.11.01.23-.07.32-.08.09-.2.12-.31.09-12.65-3.08-45.2-3.61-58.8,0-.03,0-.06.01-.08.01ZM124.53,39.73c11.59,0,23.25.86,29.96,2.39-2.47-7.36-5.13-14.9-7.89-22.43-.1-.26-.87-1.18-6.8-1.87-3.83-.45-8.89-.69-14.27-.69s-10.42.24-14.23.69c-5.9.69-6.68,1.6-6.78,1.87l-.73,2c-2.23,6.05-4.74,12.89-7.27,20.42,6.63-1.64,17.29-2.38,28.01-2.38Z"/>
              <path d="M154.98,43.06s-.08,0-.12-.01c-12.63-3.08-45.13-3.6-58.71,0-.17.05-.37,0-.49-.14-.13-.13-.17-.32-.11-.5,2.59-7.76,5.18-14.8,7.47-21l.73-2c1.08-2.94,18.33-3.09,21.78-3.09s20.76.15,21.84,3.09c2.84,7.71,5.55,15.45,8.08,23,.06.17.02.36-.1.49-.1.1-.23.16-.37.16ZM124.53,40.19c11.88,0,23.84.91,30.42,2.52.05.01.11,0,.14-.04.04-.04.05-.09.03-.14-2.53-7.54-5.24-15.28-8.08-22.99-.83-2.26-13.91-2.86-21.51-2.86s-20.62.6-21.45,2.86l-.73,2c-2.28,6.2-4.87,13.23-7.46,20.99-.02.05,0,.11.03.15.04.04.09.05.14.04,6.55-1.73,17.47-2.51,28.47-2.51ZM154.76,42.36l-.31-.07c-6.47-1.47-17.93-2.39-29.92-2.39s-21.87.87-27.97,2.37l-.31.08.1-.3c2.53-7.54,5.05-14.38,7.27-20.42l.73-2c.17-.46,1.29-1.33,6.92-1.98,3.82-.44,8.88-.69,14.25-.69s10.46.25,14.29.69c5.65.66,6.77,1.52,6.94,1.98,2.76,7.52,5.42,15.07,7.89,22.43l.1.3ZM124.53,39.55c11.83,0,23.15.89,29.69,2.33-2.44-7.27-5.06-14.71-7.79-22.13-.04-.1-.55-1.04-6.65-1.75-3.82-.44-8.88-.69-14.25-.69s-10.41.24-14.21.69c-6.08.71-6.59,1.65-6.63,1.75l-.73,2c-2.19,5.96-4.67,12.7-7.17,20.11,6.16-1.47,16.24-2.31,27.74-2.31Z"/>
            </g>
            <g>
              <g>
                <path d="M126.06,32.15c-5.01,0-9.08-2.87-9.08-6.41,0-.84.13-1.62.37-2.3.06-.17.24-.25.41-.19.17.06.25.24.19.41-.22.61-.33,1.31-.33,2.08,0,3.18,3.78,5.76,8.43,5.76s8.43-2.59,8.43-5.76c0-.74-.08-1.38-.24-1.95-.05-.17.05-.35.22-.4.17-.05.35.05.4.22.18.62.26,1.32.26,2.12,0,3.53-4.07,6.41-9.08,6.41Z"/>
                <path d="M126.06,32.32c-5.1,0-9.25-2.95-9.25-6.58,0-.86.13-1.66.38-2.36.05-.12.14-.22.26-.28.12-.06.26-.06.38-.02.13.05.23.14.28.26.06.12.06.26.02.38-.21.59-.32,1.27-.32,2.02,0,3.08,3.7,5.59,8.26,5.59s8.26-2.51,8.26-5.59c0-.73-.08-1.35-.23-1.9-.04-.13-.02-.26.04-.38.07-.12.17-.2.3-.24.13-.04.26-.02.38.04.12.07.2.17.24.3.18.64.27,1.35.27,2.17,0,3.63-4.15,6.58-9.25,6.58ZM117.66,23.41s-.04,0-.06.01c-.03.02-.06.05-.07.08-.24.66-.36,1.41-.36,2.24,0,3.44,3.99,6.23,8.9,6.23s8.9-2.8,8.9-6.23c0-.79-.08-1.46-.26-2.07-.01-.04-.03-.07-.07-.09-.03-.02-.07-.02-.11-.01-.04.01-.07.04-.09.07-.02.03-.02.07-.01.11.17.58.25,1.24.25,1.99,0,3.28-3.86,5.94-8.61,5.94s-8.61-2.67-8.61-5.94c0-.79.12-1.51.34-2.14.01-.04.01-.08,0-.11-.02-.04-.05-.06-.08-.07-.02,0-.03,0-.05,0Z"/>
              </g>
              <g>
                <path d="M133.92,21.7c-.14,0-.26-.09-.3-.22-.42-1.28-1.66-2.99-7.53-2.99-4.14,0-6.64.97-7.45,2.89-.07.16-.26.24-.42.17-.16-.07-.24-.26-.17-.42.92-2.18,3.62-3.29,8.04-3.29,4.78,0,7.37,1.09,8.14,3.43.06.17-.04.35-.2.41-.03.01-.07.02-.1.02Z"/>
                <path d="M133.92,21.88c-.22,0-.41-.14-.47-.34-.41-1.23-1.61-2.87-7.37-2.87-4.06,0-6.51.94-7.29,2.79-.05.12-.15.22-.27.27-.12.05-.26.05-.38,0-.12-.05-.22-.15-.27-.27-.05-.12-.05-.26,0-.38.95-2.25,3.71-3.4,8.2-3.4,4.87,0,7.51,1.13,8.31,3.55.09.26-.06.54-.32.63-.05.02-.1.03-.16.03ZM126.09,18.31c5.98,0,7.26,1.78,7.7,3.11.02.07.11.12.18.09.08-.03.12-.11.09-.18-.74-2.26-3.28-3.31-7.98-3.31-4.34,0-6.99,1.07-7.88,3.18-.02.04-.02.07,0,.11.01.04.04.06.08.08.04.02.08.02.11,0,.04-.01.06-.04.08-.08.84-1.99,3.4-3,7.61-3Z"/>
              </g>
            </g>
          </g>
        </g>
        <path class="cls-3" d="M143.22,113.43c-.25,11.05-7.6,25.27-16.59,25.46-9.45.2-18.91-15.17-17.1-26.4.92-5.71,4.03-5.84,9.36-17.47,4.81-10.49,4.91-16.11,7.74-16.41,3.19-.34,6.37,6.45,9.72,13.61,4.67,9.97,7,14.96,6.86,21.21Z"/>
      </g>
    </g>
  </g>
</svg>