<?xml version="1.0" encoding="UTF-8"?>
<svg id="Layer_1" data-name="Layer 1" xmlns="http://www.w3.org/2000/svg" viewBox="0 0 251 205">
  <defs>
    <style>
      .cls-1 {
        stroke: #231f20;
        stroke-miterlimit: 10;
        stroke-width: .5px;
      }

      .cls-2 {
        fill: #fff;
      }
    </style>
  </defs>
  <g id="r5zEUR">
    <g>
      <path class="cls-1" d="M193.8,35.97c2.02,5.64,3.46,12.09,4.09,18.06.55,5.27,1.05,10.59-5.77,11.2-5,.45-7.58-.23-9-5.4-1.68-6.13-1.05-16,.42-22.17l1.69-6.12c-1.47,3.22-3.26,6.26-4.8,9.45-1.79,3.71-3.31,7.62-5.01,11.37-1.14,2.51-1.67,2.71-3.3,4.6-1.82,2.11-2.59,4.91-3.77,7.37-2.84,5.95-5.76,12-8.89,17.8-.5.93-1.33,3.27-2.17,3.74-.32.18-.7-.03-.86.27l-29.43,57.83c1.41.91,1.08,1.5.4,2.79-.57,1.07-2.87,5.01-3.68,5.56-.36.25-.64.17-.85.29-.61.35-4.37,7.78-5.08,9.11-.55,1.03-1.32,2.05-1.74,3.2,1.58,1.74.82,3.17-1.51,2.41l-.91,1.59c-.08.27.95,1.13,1.19,1.45,1.8,2.4.11,4.52-2.61,4.56-.43,0-1.46-.31-1.69-.08l-4.91,9.26c-.48.35-.99,1-1.46,1.29-.21.13-.24.22-.49-.01.6-4.19,3.29-7.81,4.61-11.8-.49-.65-1.04-1.02-1.43-1.8-1.49-3.02,1.35-4.99,4.11-4.04l.8-1.82c-1.8-1.6-.91-2.96,1.3-2.48l5.97-12.98c.03-.15-.45-.51-.31-1.11.25-1.04,1.99-5.51,2.54-6.33.51-.75,1.2-1.08,2.07-1.12l28.23-58.28-.05-1.51,13.91-29.19c1.12-2.22-.72-5,.27-7.13.85-1.82,3.15-2.97,4.16-4.54s1-3.54,2.02-5.19c.66-1.06,2.04-1.89,2.54-3.01.69-1.57-.35-3.5.11-4.93.83-2.54,4.46-3.57,3.94-6.83-.3-.24-2.57.84-2.93,1.18-1.17,1.12-1.88,3.76-3.28,4.31s-2.8-1.08-2.14-2.37c2.29-2.17,4.12-6.78,7.97-5.07.17-.19.06-.27.03-.43-.16-1.09-.85-2.37-.93-3.61-.1-1.4.23-2.68,1.9-2.57,2.93.2,10.94,5.26,12.35,7.91.69,1.31.38,2.29-.63,3.31-.35.35-1.79,1.07-1.78,1.44.01.29,2.27,4.41,2.62,5.18.79,1.75,1.53,3.58,2.17,5.38ZM191.04,21.44c.17-.21.06-.33,0-.53-.79-2.23-7.99-6.43-10.25-7.31-.52-.2-1.12-.23-1.64-.45-.24.34-.08.24.06.4,2.88,3.48,7.84,5.98,11.85,7.89ZM178.22,13.24c-.69.59-.66,1.12-.63,1.93.11,2.74,2.16,5.08,1.04,8.1-.7,1.88-1.59,2.11-2.76,3.38-1.72,1.86-.79,2.83-.81,4.88-.03,2.85-2.18,3.32-3.19,5.29-.61,1.19-.69,2.93-1.31,4.12-1.29,2.47-4.79,3.49-4.8,6.76-.01,2.28.95,3.11-.08,5.74-2.86,7.36-7.6,14.89-10.69,22.25-.47,2.13-2.08,4.1-2.91,5.99-1.04,2.39,1.8,2.83,3.4,3.37.5.17.91.65,1.47.46.7-.24,1.16-1.77,1.54-2.45,3.83-6.81,6.98-14.12,10.33-21.18.72-1.51,1.48-3.28,2.48-4.6.77-1.03,1.92-1.73,2.59-2.85,1.43-2.38,2.42-5.61,3.61-8.16,2.47-5.29,5.15-10.52,7.84-15.67.89-1.71,1.78-4.4,3.18-5.63.96-.84,2.39-1.11,2.79-2.63.2-.74-.88-.71-1.39-.94-4.45-2-8.29-4.71-11.69-8.19ZM177.73,19.58c-3.46-1.13-5.08,3.01-7.14,4.9-.72,1.29.77,2.63,1.98,1.58.93-.8,1.47-2.62,2.44-3.64.25-.27.9-.76,1.23-.94.37-.2,2.11-.65,2.19-.8.27-.45-.25-.96-.7-1.1ZM193.26,35.92c-1.28-3.51-2.73-6.98-4.66-10.18-1.02,2.74.16,5.6.59,8.31s.39,5.65.86,8.4c1.28,7.61,6.98,16.05-1.27,22.06-.12.09-.39.18-.23.36,4.23-.06,8.44.23,9.16-5.06.8-5.86-2.38-18.22-4.44-23.89ZM190.15,62.83c-1.41-1.49-1.75-3.71-2.05-5.67-.64-4.09-.61-9.5.48-13.5.21-.77.77-1.8.86-2.44.12-.86-.36-5.04-.52-6.13-.26-1.84-.88-3.61-1.06-5.47l-.05-3.02c-2.55,5.54-4.34,11.66-4.98,17.73-.46,4.34-.6,15.54,2.3,18.86.5.57,1.6,1.42,2.37,1.45.43.01,2.71-1.49,2.65-1.8ZM190.51,62.46c4.91-6.06.16-13.64-.97-20.14-1.62,4.72-1.78,10.37-.94,15.26.13.75,1,5.01,1.91,4.87ZM123.62,142.15l2.79,1.36s.03.22.18.19l8.82-16.97,20.65-40.87-4.22-1.88-28.21,58.17ZM123.34,152.07c.81-.31,2.36-3.45,2.86-4.31.54-.93,1.95-2.14,1.02-3.09-.52-.53-2.8-1.87-3.52-2.1-1-.33-1.57-.06-2.1.81-.71,1.15-1.8,4.07-2.29,5.45-.26.71-.27,1.18.39,1.65.47.34,2.36,1.43,2.87,1.58.13.04.67.07.78.02ZM114.38,166.88l7.8-14.18-.07-.45-2.69-1.52-7.08,14.85c-.09.41,1.7,1.08,2.04,1.29ZM112.78,163.98c-.48-.24-1.42-.31-1.56.35.01.51.41.91.87,1.08l.7-1.43ZM114.88,166.95c.72.19,1.75.39,1.5-.7-.07-.3-.53-1.13-.84-.67-.26.39-.41.95-.66,1.36ZM114.1,167.1l-2-.98c-.44.6-.51,1.38-.79,2-.29.66-2.01,3.64-1.68,4.06s.99.54,1.46.71l3.01-5.78ZM110.76,168.13c-1.79-.42-3.93-.02-3.89,2.23.06,3.44,7.02,5.91,8.16,2.44.34-1.02-.65-2.68-1.55-3.17-.35-.19-.68.74-.71.96-.05.36.95.73.66,1.81-.64,2.31-5.32.46-4.86-1.79.26-1.29,1.26-.97,1.59-1.29.27-.27.38-.85.6-1.18ZM109.3,171.49l.55-1.68c-.73.07-1.22,1.23-.55,1.68ZM111.59,172.96c1.13.4,1.87-.88,1.12-1.75-.29-.22-.27.05-.38.25-.28.48-.47,1.02-.73,1.5ZM110.25,174.61l-1.58-.77-4.25,9.44.86.42,4.97-9.09Z"/>
      <path class="cls-1" d="M158.47,18.12c1.01.52,1.86,1.71,1.95,2.84.07.82-.69,4.68-.96,5.57-.31,1.02-.79,1.67-1.94,1.46-2.87-.51-.19-4.39,0-6.03.12-1.09-.26-2.19-.82-3.11-.79.77-1.41,1.51-1.79,2.58-.55,1.53.13,2.86-.96,4.48-.8,1.19-2.72,1.62-3.46,2.75-.87,1.33-.55,2.69-1.09,4.07-.87,2.25-2.42,3.02-2.88,5.64s.23,4.52-2.31,6.28c-1.94,1.34-2.73,1.14-4.14,3.55-2.54,4.35-4.68,9.74-6.98,14.33-1.53,3.05-3.3,6.09-4.83,9.14-.75,1.5-.99,3.64-2.68,4.33-9.39,18.38-18,37.25-27.44,55.59l-.04.23c1.06,1.3.06,2.77-.63,4.04-.38.7-2.28,3.93-2.74,4.16-.17.08-.47-.04-.59.09-.18.22-.96,1.64-1.18,2.04-1.34,2.45-2.54,5.05-3.85,7.51-.45.86-.85,1.77-1.26,2.65,1.72,1.32.97,2.96-1.14,2.33l-.88,1.75c3.58,2.41,1.15,6.66-2.76,5.32-.88,1.37-1.51,2.86-2.28,4.28-.14.27-.4.48-.56.78-1.05,1.91-1.72,4.42-3.68,5.56-.37-2.31.99-4.11,1.84-6.11.13-.31.15-.64.27-.93.65-1.51,1.45-2.94,1.99-4.5l-.04-.22c-3.29-2.56-1.66-6.67,2.61-5.39.17-.43.91-1.45.74-1.84-.19-.42-1.37-.86-1.09-1.78.42-.76,1.31-.79,2.08-.69.29-.52.59-1.07.82-1.61,1.05-2.42,2-4.92,3.05-7.36.41-.96,1.48-2.49,1.42-3.46-.03-.46-.34-.7-.26-1.34.13-1.04,1.76-5.21,2.29-6.28s1.12-.82,2.1-.69c1.28-3.21,2.97-6.28,4.45-9.42,6.91-14.67,14.11-29.48,20.57-44.34.32-.73,1.19-2.06,1.32-2.69.03-.15-.41-.48-.33-.99.06-.37.61-1.73.8-2.18,3.05-7.2,7.23-14.68,10.77-21.68.59-1.16,1.08-2.19,1.39-3.46.28-1.12.2-2.48.6-3.54.86-2.26,2.62-4.69,3.72-6.87l7.09-14.53c-.07-.33-.27-.11-.39.07-4.36,6.65-11.47,13.85-18.71,17.27-4.33,2.04-6.35,1.84-9.32-2.03-4.21-5.49-2.02-8.17,3.11-11.53,8.33-5.45,18.14-9.26,27.96-10.82.48-.35-.7-2.94,1.04-4.22.69-.51,1.87-.54,2.7-.47,2.69.24,10.18,2.79,11.79,4.82,1.95,2.45-2.8,3.53-4.14,4.28-.14.08-.27.05-.32.29ZM162.55,13.74c-.82-.59-1.82-1.43-2.72-1.87-1.99-.99-6.98-2.69-9.16-2.71-.17,0-1.65-.04-1.48.37,3.5,1.85,7.05,3.38,10.97,4.03l2.39.19ZM162.9,14.45c-.54-.37-1.21-.22-1.81-.32-4.02-.68-7.55-1.81-11.17-3.73-1.26-.66-1.7-1.51-2.04.82-.28,1.95.4,2.39-.56,4.72-2.55,6.14-5.9,12.41-8.95,18.32-1.19,2.3-2.72,4.75-3.79,7.01-.71,1.5-.41,3.41-1.01,5-2.62,6.91-7.6,13.84-10.35,20.82-.11,1.39-2.68,4.84-2.37,5.93.05.19.11.27.27.38.63.48,2.73,1.79,3.43,2.01.57.18,1.24.13,1.67-.32l13.98-27.9c1.03-2.12,4.03-2.35,5.09-4.24.97-1.73.39-3.89.96-5.58.61-1.81,1.98-2.85,2.66-4.36.51-1.15.29-2.68.8-3.86.73-1.71,2.19-1.9,3.39-2.98,1.53-1.38.9-2.4,1.21-4.08.46-2.43,1.91-3.62,4.02-4.6,1.51-.7,4.33-1.1,4.58-3.06ZM157.99,18.26l-.8.39c.43,1.16.88,2.11.73,3.41-.18,1.56-1.27,2.85-1.32,4.26s1.76,1.77,2.28.63c.3-3.01,2.65-6.76-.9-8.68ZM117.91,36.95c.02-.86-.05-1.6.1-2.47,1.32-7.86,10.14-8.7,15.88-11.82,2.11-1.14,3.98-2.67,6.06-3.86,2.55-1.47,5.68-2.32,7.44-4.85-8.07,1.07-16.04,4.04-23.16,7.95-2.49,1.37-7.95,4.38-9.21,6.82-1.57,3.03,1.01,6.07,2.9,8.23ZM118.55,37.56c.18.38.83.68,1.23.83,3.78,1.41,11.3-4.33,14.13-6.68,5.49-4.55,9.93-10.32,13.27-16.62l-2.34,1.68c-1.31.85-2.8,1.36-4.16,2.11-1.08.6-4.76,2.76-5.47,3.49-.44.46-.85,1.43-1.32,2.04-2.62,3.37-6.43,6.48-10.17,8.52-1.57.86-3.37,1.85-5.2,1.68-.39.24-.17,2.56.01,2.94ZM134.16,22.91c-5.15,3.1-13.16,3.72-15.44,10.25-.06.18-.3,1.01-.12,1.11,1.86-.01,3.51-.93,5.09-1.81,3.42-1.91,8.17-5.56,10.29-8.86.09-.15.46-.58.18-.69ZM125.05,76.05c-1.46-.42-2.55-1.5-3.94-2.1l-26.45,56.37,3.07,1.32,27.31-55.6ZM96.83,131.61c-.62-.32-2.34-1.01-3-1.12-.28-.05-.68-.05-.89.17-.49,1.06-1.06,2.24-1.48,3.32-.27.7-1.2,3.12-1.09,3.71.05.24.14.33.3.49.37.36,2.06,1.01,2.64,1.21.4.14,1.15.42,1.46.08l2.89-4.76c.76-1.42.67-2.33-.83-3.1ZM93.68,139.94l-2.93-1.25-6.1,14.57,1.91.93,7.13-14.24ZM84.75,151.35c-1.51-.35-1.98.81-.55,1.5l.55-1.5ZM88.04,154.33c.66-.24.16-1.43-.42-1.58l-.7,1.43,1.12.15ZM86.35,154.61l-1.86-.91-2.58,5.65c.4.12,1.32.88,1.67.52l2.77-5.27ZM83.01,155.64c-2.28-.8-4.76.47-3.39,3.13.97,1.89,4.09,3.38,6.1,2.51,2.27-.99,1.59-3.22,0-4.49-1.23,1.11.4,2.04-.81,3.18-1.56,1.47-5.22-.91-4.14-2.65.61-.98,1.44-.43,1.66-.56s.38-.86.57-1.11ZM82.38,157.29c-1.09-.63-1.78.79-1.05,1.61.29.22.27-.05.38-.25.25-.43.42-.92.66-1.36ZM84.26,159.97c.44-.48,1.13-.78.56-1.5-.13.07-1.25,1.72-.56,1.5ZM82.57,161.63l-1.43-.7-3.94,8.8c-.21.41.36.79.69.61l4.69-8.71Z"/>
      <path class="cls-2" d="M178.22,13.24c3.4,3.48,7.23,6.18,11.69,8.19.52.23,1.59.19,1.39.94-.4,1.51-1.83,1.78-2.79,2.63-1.41,1.23-2.29,3.92-3.18,5.63-2.69,5.15-5.37,10.38-7.84,15.67-1.19,2.54-2.18,5.78-3.61,8.16-.67,1.12-1.82,1.82-2.59,2.85-.99,1.32-1.76,3.09-2.48,4.6-3.35,7.05-6.5,14.36-10.33,21.18-.38.68-.84,2.2-1.54,2.45-.55.19-.97-.29-1.47-.46-1.6-.54-4.44-.98-3.4-3.37.82-1.9,2.44-3.86,2.91-5.99,3.09-7.36,7.83-14.89,10.69-22.25,1.02-2.64.06-3.46.08-5.74.02-3.27,3.51-4.29,4.8-6.76.63-1.2.7-2.94,1.31-4.12,1.01-1.97,3.16-2.44,3.19-5.29.02-2.05-.9-3.02.81-4.88,1.17-1.27,2.06-1.5,2.76-3.38,1.13-3.02-.92-5.35-1.04-8.1-.03-.81-.06-1.35.63-1.93ZM180.23,37.78l-.44-.21-5.44,11.52.44.21,5.44-11.52ZM174.09,50.73c-.36-.21-.23-.14-.39.08-.49.66-.9,1.39-1.23,2.15l.43.21,1.19-2.43Z"/>
      <path class="cls-2" d="M123.62,142.15l28.21-58.17,4.22,1.88-20.65,40.87-8.82,16.97c-.14.04-.14-.17-.18-.19l-2.79-1.36ZM154.5,86.51l-10.03,19.21.52.27,10.03-19.21-.52-.27ZM144.36,107.27c-.36-.21-.23-.14-.39.08-.3.41-1.33,1.9-1.12,2.29h.36s1.15-2.37,1.15-2.37Z"/>
      <path class="cls-2" d="M190.15,62.83c.06.3-2.22,1.81-2.65,1.8-.76-.02-1.87-.87-2.37-1.45-2.9-3.32-2.76-14.52-2.3-18.86.64-6.07,2.44-12.18,4.98-17.73l.05,3.02c.18,1.86.79,3.63,1.06,5.47.16,1.09.64,5.27.52,6.13-.09.64-.65,1.67-.86,2.44-1.08,4-1.12,9.42-.48,13.5.31,1.96.64,4.18,2.05,5.67ZM186.95,55.59c.14-.04.09-1.71-.09-1.81-.44.09-.32.14-.33.47,0,.25-.05,1.49.42,1.35ZM187.03,56.34c-.32-.19-.26.32-.28.45-.09.75.22,2.43.45,3.18.16.51,1.38,3.22,1.74,3.33.12.03.42-.09.26-.32-.57-.98-1.23-2.06-1.57-3.15-.18-.59-.45-3.39-.6-3.48Z"/>
      <path class="cls-2" d="M193.26,35.92c2.06,5.68,5.25,18.03,4.44,23.89-.73,5.29-4.94,5-9.16,5.06-.16-.18.11-.28.23-.36,8.25-6.01,2.54-14.45,1.27-22.06-.46-2.75-.42-5.61-.86-8.4s-1.61-5.57-.59-8.31c1.94,3.2,3.39,6.67,4.66,10.18ZM192.97,37.09c.19-.24.01-.41-.04-.64-.26-1.09-1.67-4.59-2.26-5.53-.13-.21-.13-.42-.47-.49-.19.25-.03.41.06.63.65,1.62,1.47,4.1,2.23,5.54.13.24.16.41.48.49ZM193.66,41.85c.09.15.38.07.53,0-.13-.53-.57-3.47-.99-3.58-.25-.07-.28.08-.25.32.06.49.44,1.47.58,2.06.06.28.1,1.15.13,1.21ZM195.64,62.84c-.27-.21-.4,0-.62.1-.76.37-1.5.82-2.29,1.14.25.51,3.04-.77,2.91-1.24Z"/>
      <path class="cls-2" d="M123.34,152.07c-.11.04-.65.01-.78-.02-.51-.14-2.4-1.24-2.87-1.58-.66-.48-.64-.94-.39-1.65.49-1.37,1.59-4.29,2.29-5.45.54-.87,1.11-1.14,2.1-.81.72.24,3,1.57,3.52,2.1.93.95-.48,2.16-1.02,3.09-.5.86-2.05,4-2.86,4.31ZM124.75,148.55c.25.18.44.07.6-.15.21-.29,1.58-2.82,1.58-3.04,0-.55-1.53-1.3-2.01-1.51-.27.37-.03.28.18.47.32.28,1.3.74,1.34.97l-1.69,3.26ZM123.91,150.62l.63-1.46c-.33.02-1.1,1.13-1.05,1.25l.43.21Z"/>
      <path class="cls-2" d="M114.38,166.88c-.34-.21-2.13-.88-2.04-1.29l7.08-14.85,2.69,1.52.07.45-7.8,14.18ZM115.39,164.45c.75-1.18,1.46-2.98,2.1-4.29.05-.1.45-.21-.11-.5-.77,1.82-1.95,3.4-2.73,5.22.24.3.67-.31.74-.43Z"/>
      <path class="cls-2" d="M191.04,21.44c-4.01-1.91-8.97-4.41-11.85-7.89-.13-.16-.29-.06-.06-.4.52.21,1.12.25,1.64.45,2.26.88,9.46,5.07,10.25,7.31.07.2.18.32,0,.53ZM186.17,18.35l-.15-.6-3.08-1.86-.21.43,3.44,2.03Z"/>
      <path class="cls-2" d="M110.76,168.13c-.22.33-.34.91-.6,1.18-.33.32-1.32,0-1.59,1.29-.46,2.25,4.22,4.1,4.86,1.79.3-1.08-.7-1.45-.66-1.81.03-.23.36-1.15.71-.96.89.49,1.89,2.14,1.55,3.17-1.14,3.47-8.1,1-8.16-2.44-.04-2.25,2.1-2.65,3.89-2.23ZM114.58,172.65c.33-.61.07-1.39-.44-1.81l-.29.22.73,1.59Z"/>
      <path class="cls-2" d="M177.73,19.58c.45.15.96.66.7,1.1-.09.15-1.83.6-2.19.8-.32.18-.97.67-1.23.94-.97,1.02-1.51,2.84-2.44,3.64-1.21,1.05-2.71-.29-1.98-1.58,2.06-1.89,3.68-6.03,7.14-4.9ZM173.26,24.1c-.14-.55-1.63,1.3-1.76,1.44l.48.12,1.29-1.56Z"/>
      <polygon class="cls-2" points="110.25 174.61 105.28 183.7 104.42 183.28 108.68 173.84 110.25 174.61"/>
      <path class="cls-2" d="M114.1,167.1l-3.01,5.78c-.47-.16-1.13-.3-1.46-.71s1.38-3.4,1.68-4.06c.28-.62.35-1.4.79-2l2,.98Z"/>
      <path class="cls-2" d="M114.88,166.95c.25-.41.4-.97.66-1.36.31-.46.77.37.84.67.25,1.09-.78.89-1.5.7Z"/>
      <path class="cls-2" d="M112.78,163.98l-.7,1.43c-.46-.17-.85-.57-.87-1.08.14-.66,1.08-.59,1.56-.35Z"/>
      <path class="cls-2" d="M111.59,172.96c.27-.48.45-1.03.73-1.5.12-.2.09-.47.38-.25.75.87.01,2.15-1.12,1.75Z"/>
      <path class="cls-2" d="M109.3,171.49c-.67-.45-.18-1.6.55-1.68l-.55,1.68Z"/>
      <path class="cls-2" d="M162.9,14.45c-.25,1.96-3.06,2.36-4.58,3.06-2.11.98-3.56,2.17-4.02,4.6-.31,1.68.32,2.7-1.21,4.08-1.2,1.08-2.65,1.27-3.39,2.98-.51,1.18-.29,2.71-.8,3.86-.68,1.51-2.05,2.55-2.66,4.36-.56,1.69.01,3.85-.96,5.58-1.06,1.9-4.06,2.12-5.09,4.24l-13.98,27.9c-.44.45-1.1.5-1.67.32-.69-.22-2.79-1.54-3.43-2.01-.16-.12-.22-.19-.27-.38-.31-1.1,2.26-4.55,2.37-5.93,2.75-6.99,7.73-13.92,10.35-20.82.6-1.59.3-3.51,1.01-5,1.08-2.25,2.6-4.7,3.79-7.01,3.05-5.91,6.4-12.18,8.95-18.32.97-2.33.29-2.77.56-4.72.33-2.33.78-1.48,2.04-.82,3.63,1.91,7.16,3.05,11.17,3.73.6.1,1.28-.05,1.81.32ZM143.6,27.52l-.43-.21-5.38,11.02.43.21,5.38-11.02ZM136.26,42.19l1.08-2.22-.32-.42-1.01,2.07c-.03.05.07.31-.03.43l.28.14Z"/>
      <path class="cls-2" d="M125.05,76.05l-27.31,55.6-3.07-1.32,26.45-56.37c1.39.6,2.48,1.68,3.94,2.1ZM121.53,75.56l-.53-.24-8.57,18.95.53.24,8.57-18.95ZM111.99,95.37c-.42.05-.32.25-.42.5-.13.32-.94,2.01-.69,2.14.36-.05.38-.24.51-.52.13-.3.8-2.02.61-2.12Z"/>
      <path class="cls-2" d="M118.55,37.56c-.18-.38-.4-2.71-.01-2.94,1.83.16,3.63-.82,5.2-1.68,3.74-2.04,7.54-5.16,10.17-8.52.47-.6.88-1.58,1.32-2.04.7-.73,4.39-2.89,5.47-3.49,1.36-.75,2.84-1.26,4.16-2.11l2.34-1.68c-3.34,6.3-7.79,12.07-13.27,16.62-2.83,2.35-10.36,8.1-14.13,6.68-.39-.15-1.05-.45-1.23-.83ZM127.33,31.8l-1.09.47-.47.54c.1.36,1.59-.64,1.55-1.01ZM118.68,35.73c.05.19,1.45-.05,1.69-.09,1.51-.24,3.27-.94,4.47-1.88.18-.14.48-.13.33-.44-.19-.39-.29-.08-.47.02-1.76.97-2.52,1.51-4.58,1.93-.3.06-1.59-.03-1.45.46Z"/>
      <path class="cls-2" d="M117.91,36.95c-1.89-2.16-4.47-5.2-2.9-8.23,1.26-2.44,6.72-5.45,9.21-6.82,7.12-3.91,15.09-6.88,23.16-7.95-1.76,2.53-4.89,3.39-7.44,4.85-2.07,1.19-3.95,2.71-6.06,3.86-5.74,3.12-14.56,3.96-15.88,11.82-.15.87-.08,1.61-.1,2.47ZM142.77,15.24c-.77.23-6.33,1.58-6.49,1.88-.04.07.13.48.36.35l6.07-1.73.06-.5ZM135.17,17.74c-.19-.08-2.68,1.07-3,1.32-.24.19-.39.1-.19.49l3.12-1.31c.26-.04.13-.47.06-.5ZM115.5,30.63h-.53c.06.49.34,2.57.7,2.74.19.09.28-.07.24-.32-.1-.72-.61-1.63-.42-2.42Z"/>
      <path class="cls-2" d="M96.83,131.61c1.5.77,1.59,1.68.83,3.1l-2.89,4.76c-.31.34-1.05.06-1.46-.08-.58-.2-2.27-.84-2.64-1.21-.17-.16-.25-.25-.3-.49-.12-.59.81-3,1.09-3.71.42-1.08.98-2.26,1.48-3.32.21-.23.61-.22.89-.17.66.11,2.38.8,3,1.12ZM95.6,131.67c-.55-.27-1.74-.95-2.27-.54-.36.29-1.03,2.07-1.25,2.64-.1.26-.26.45-.08.74.31.24.35-.18.46-.4.46-.88.54-1.92,1.21-2.7.22-.12,1.06.34,1.46.42.29.06.35.22.47-.18ZM91.52,136.76c.22-.47.49-1.08.34-1.6-.44.12-.88,1.43-.34,1.6Z"/>
      <path class="cls-2" d="M93.68,139.94l-7.13,14.24-1.91-.93,6.1-14.57,2.93,1.25ZM89.18,144.83l-.43-.21-.63,1.29.43.21.63-1.29ZM88.19,146.83l-.43-.21c-.33.64-2.3,4.76-2.13,5.08.65.25.6-.86.7-1.08l1.85-3.79Z"/>
      <path class="cls-2" d="M162.55,13.74l-2.39-.19c-3.92-.64-7.47-2.17-10.97-4.03-.17-.41,1.31-.37,1.48-.37,2.18.03,7.17,1.73,9.16,2.71.9.44,1.89,1.28,2.72,1.87ZM158.06,12.78l-.13-.56c-.98-.21-1.91-.72-2.86-1.03-.24-.08-.66-.29-.73.13l3.72,1.46Z"/>
      <path class="cls-2" d="M83.01,155.64c-.19.25-.36.98-.57,1.11s-1.06-.42-1.66.56c-1.08,1.74,2.58,4.13,4.14,2.65,1.21-1.14-.43-2.07.81-3.18,1.58,1.27,2.26,3.5,0,4.49-2.01.87-5.13-.62-6.1-2.51-1.37-2.66,1.11-3.93,3.39-3.13ZM81.66,156.22c.49-1.11-1.83-.08-1.71.23.19.51,1.31-.57,1.71-.23Z"/>
      <path class="cls-2" d="M157.99,18.26c3.54,1.92,1.2,5.68.9,8.68-.52,1.14-2.32.76-2.28-.63s1.14-2.7,1.32-4.26c.15-1.3-.3-2.25-.73-3.41l.8-.39ZM157.62,26.74c.02-.19.57-2.5.05-2.28l-.43,1.97.38.31Z"/>
      <path class="cls-2" d="M82.57,161.63l-4.69,8.71c-.32.18-.89-.2-.69-.61l3.94-8.8,1.43.7Z"/>
      <path class="cls-2" d="M86.35,154.61l-2.77,5.27c-.34.36-1.27-.4-1.67-.52l2.58-5.65,1.86.91Z"/>
      <path class="cls-2" d="M84.75,151.35l-.55,1.5c-1.42-.69-.95-1.85.55-1.5Z"/>
      <path class="cls-2" d="M82.38,157.29c-.24.44-.41.93-.66,1.36-.12.2-.09.47-.38.25-.73-.83-.05-2.24,1.05-1.61Z"/>
      <path class="cls-2" d="M88.04,154.33l-1.12-.15.7-1.43c.59.15,1.09,1.34.42,1.58Z"/>
      <path class="cls-2" d="M84.26,159.97c-.69.22.43-1.43.56-1.5.57.72-.11,1.02-.56,1.5Z"/>
      <rect x="177.05" y="37.07" width=".48" height="12.74" transform="translate(35.52 -71.55) rotate(25.28)"/>
      <path d="M174.09,50.73l-1.19,2.43-.43-.21c.33-.75.74-1.48,1.23-2.15.16-.21.03-.29.39-.08Z"/>
      <rect x="138.91" y="95.96" width="21.67" height=".58" transform="translate(-4.89 184.44) rotate(-62.43)"/>
      <path d="M144.36,107.27l-1.15,2.36h-.36c-.21-.38.82-1.88,1.12-2.28.16-.21.03-.29.39-.08Z"/>
      <path d="M187.03,56.34c.15.09.42,2.89.6,3.48.34,1.09,1,2.17,1.57,3.15.17.23-.14.36-.26.32-.36-.1-1.58-2.81-1.74-3.33-.23-.75-.54-2.43-.45-3.18.01-.12-.05-.64.28-.45Z"/>
      <path d="M186.95,55.59c-.47.14-.42-1.1-.42-1.35.01-.32-.11-.38.33-.47.18.1.23,1.77.09,1.81Z"/>
      <path d="M192.97,37.09c-.32-.08-.35-.25-.48-.49-.76-1.44-1.58-3.93-2.23-5.54-.09-.22-.26-.39-.06-.63.34.07.34.28.47.49.58.94,2,4.45,2.26,5.53.05.23.23.4.04.64Z"/>
      <path d="M193.66,41.85c-.03-.05-.07-.93-.13-1.21-.14-.59-.52-1.58-.58-2.06-.03-.24,0-.39.25-.32.42.12.86,3.05.99,3.58-.14.08-.44.16-.53,0Z"/>
      <path d="M195.64,62.84c.13.47-2.66,1.74-2.91,1.24.79-.32,1.52-.77,2.29-1.14.22-.11.35-.31.62-.1Z"/>
      <path d="M124.75,148.55l1.69-3.26c-.04-.23-1.03-.7-1.34-.97-.21-.19-.45-.09-.18-.47.48.21,2.01.96,2.01,1.51,0,.22-1.36,2.75-1.58,3.04-.16.22-.35.33-.6.15Z"/>
      <path d="M123.91,150.62l-.43-.21c-.04-.12.73-1.24,1.05-1.25l-.63,1.46Z"/>
      <path d="M115.39,164.45c-.08.12-.51.73-.74.43.78-1.82,1.96-3.4,2.73-5.22.56.28.16.39.11.5-.64,1.31-1.35,3.12-2.1,4.29Z"/>
      <polygon points="186.17 18.35 182.73 16.32 182.94 15.89 186.02 17.75 186.17 18.35"/>
      <path d="M114.58,172.65l-.73-1.59.29-.22c.51.42.77,1.2.44,1.81Z"/>
      <path d="M173.26,24.1l-1.29,1.56-.48-.12c.13-.14,1.63-1.99,1.76-1.44Z"/>
      <rect x="140.46" y="26.79" width=".48" height="12.26" transform="translate(28.7 -58.38) rotate(26.02)"/>
      <path d="M136.26,42.19l-.28-.14c.1-.12,0-.37.03-.43l1.01-2.07.32.42-1.08,2.22Z"/>
      <rect x="116.69" y="74.52" width=".59" height="20.79" transform="translate(45.37 -40.65) rotate(24.33)"/>
      <path d="M111.99,95.37c.19.1-.48,1.82-.61,2.12-.12.28-.14.47-.51.52-.25-.13.55-1.82.69-2.14.11-.25,0-.45.42-.5Z"/>
      <path d="M118.68,35.73c-.14-.49,1.15-.4,1.45-.46,2.05-.43,2.82-.96,4.58-1.93.17-.1.27-.41.47-.02.15.31-.14.3-.33.44-1.21.94-2.97,1.64-4.47,1.88-.24.04-1.64.28-1.69.09Z"/>
      <path d="M127.33,31.8c.04.37-1.46,1.37-1.55,1.01l.47-.54,1.09-.47Z"/>
      <path d="M142.77,15.24l-.06.5-6.07,1.73c-.22.13-.39-.29-.36-.35.16-.3,5.73-1.65,6.49-1.88Z"/>
      <path d="M135.17,17.74c.07.03.19.46-.06.5l-3.12,1.31c-.2-.39-.05-.3.19-.49.32-.24,2.81-1.4,3-1.32Z"/>
      <path d="M115.5,30.63c-.19.79.32,1.7.42,2.42.03.25-.06.41-.24.32-.36-.17-.64-2.25-.7-2.73h.53Z"/>
      <path d="M95.6,131.67c-.12.4-.18.23-.47.18-.4-.08-1.24-.54-1.46-.42-.67.77-.75,1.82-1.21,2.7-.11.22-.15.63-.46.4-.17-.29-.02-.48.08-.74.22-.57.89-2.35,1.25-2.64.53-.42,1.72.27,2.27.54Z"/>
      <path d="M91.52,136.76c-.54-.17-.1-1.48.34-1.6.15.52-.12,1.13-.34,1.6Z"/>
      <path d="M88.19,146.83l-1.85,3.79c-.1.21-.06,1.32-.7,1.08-.17-.32,1.8-4.44,2.13-5.08l.43.21Z"/>
      <rect x="88.4" y="144.65" width=".48" height="1.43" transform="translate(72.75 -24.15) rotate(26.02)"/>
      <path d="M158.06,12.78l-3.72-1.46c.07-.41.48-.2.73-.13.95.31,1.88.81,2.86,1.03l.13.56Z"/>
      <path d="M81.66,156.22c-.4-.33-1.51.74-1.71.23-.12-.32,2.2-1.34,1.71-.23Z"/>
      <path d="M157.62,26.74l-.38-.31.43-1.97c.52-.23-.03,2.09-.05,2.28Z"/>
    </g>
  </g>
</svg>