<?xml version="1.0" encoding="UTF-8"?>
<svg id="Layer_1" data-name="Layer 1" xmlns="http://www.w3.org/2000/svg" viewBox="0 0 251 205">
  <defs>
    <style>
      .cls-1 {
        fill: #d1d2d3;
      }

      .cls-2 {
        fill: #fff;
      }

      .cls-3 {
        fill: #221f1f;
      }
    </style>
  </defs>
  <path class="cls-1" d="M142.09,24.33c1.01-3.33-4.95-6.28-12.9-4.14-4.56,1.23-9.36,1.83-13.94.67-4.76-1.21-8.79,2.78-7.81,4.95,0,0,11.4,4.88,15.21,2.52,3.82-2.36,8.04-3.32,10.84-2.04,2.81,1.29,8.59-1.96,8.59-1.96Z"/>
  <path class="cls-2" d="M130.56,26.16c-.86-1.23-2.76-1.15-4.09-.47-1.34.68-2.43,1.8-3.82,2.36-3.57,1.45-7.35-1.15-10.94-2.56-1.39-.54-3.09-.87-4.27.04-2.24,1.74-.15,8.42-1.76,10.75-10.54,3.34-21.8,4.33-28.94,12.77-3.71,4.38-6.06,9.73-8.21,15.05-4.3,10.61-5.43,25.29-8.61,36.29-1.1,3.81-2.8,12.55-3.28,20.82-.38,6.57.59,12.92-.97,15.66-2.29,4.03-3.87,12.03-.93,15.62.94,1.15,4.59,1.3,5.93,1.94,2.28,1.09,4.44-.29,6.72.8,1.48.71,3.16,1.43,4.72.91,2.41-.8,4.34-3.2,4.85-5.68,2.68-13.02,5.16-34.38,9.96-46.64.48-1.23,2.04-3.03,2.59-1.77,1.3,3.01-.88,6.28-1.37,9.65-1.91,13.12.07,18.11-2.78,31.06-1.44,6.56-2.54,17.79-2.75,24.5-.06,1.89.13,7.68.85,9.43.84,2.03,2.55,3.56,4.28,4.91,7.84,6.14,17.33,1.86,27.16,3.42,3.77.6,13.35.38,15.37-2.86.81-1.29,4.47-1.71,5.69-1.7,10.97.04,18.83.25,29.59-1.9,1.36-.27,2.8-.6,3.78-1.58.84-.85,1.21-2.04,1.51-3.2,5.86-22.42-9.72-50.3-5.48-73.09.88-1.13,1.6,3.26,2.22,4.56,5.49,11.7,4.68,22.08,6.93,34.8.63,3.56,1.64,7.52,4.75,9.36,3.84,2.28,11.44.05,15.38-2.05.87-.46,1.79-.98,2.2-1.88.36-.79,1.97-2.17.77-6.14-2.19-7.24-2.61-12.38-4.25-19.76-3.51-15.74-7.93-30.37-11.44-46.1-1.16-5.18-1.49-10.41-2.79-15.56-1.12-4.44-3.28-9.04-6.51-12.28-2.6-2.61-4.01-6.47-7.44-7.81-4.04-1.58-10.22-.73-14.26-2.31-1.21-.47-2.45-.97-3.4-1.85-1.3-1.21-1.84-2.91-2.3-4.67-.48-1.81-2.27-5.57-6.18-5-2.76.4-5.72.2-7.7,1.47"/>
  <path class="cls-2" d="M57.6,153.91c-.89,3.33-.15,7.9-1.04,11.22-.16.61-.32,1.31.03,1.85.2.32.55.51.88.69,2.33,1.25,4.53-1.44,6.97-.42,1.01.43,2.22.82,3.15.24.69-.43,1-1.27,1.25-2.05.78-2.39-.42-6.07.36-8.46"/>
  <path class="cls-2" d="M194.16,147.2c.5,3.25.61,8.24.92,11.52.04.43.07.88-.1,1.27-.14.3-.39.54-.65.75-2.35,1.96-5.55,2.85-8.58,2.4-.37-.06-.77-.15-1.02-.44-.21-.25-.25-.59-.29-.92-.36-3.19-1.41-7.6-1.78-10.79"/>
  <path class="cls-2" d="M87.57,70.07l-11.8,8.89-11.88,4.59s-2.37,7.82-2.81,10.09c-.44,2.28-1.13,7.53-1.13,7.53,0,0,7.64-3.52,11.53-5.35,3.89-1.83,16.79-8.91,16.79-8.91l-.7-16.84Z"/>
  <path class="cls-2" d="M88.13,60.66s34.13,26.71,39.62,26.72c5.49.01,8.65-6.43,13.24-7.69,4.59-1.26,9.18-5.73,9.18-5.73,0,0,9.94-10.17,11.39-10.06,1.45.11,3.22-1.56,3.22-1.56,0,0-2,9.96-2.21,13.31-.22,3.35-.08,7.72-.08,7.72,0,0-15.16,8.7-16.21,9.71s-11.45,8.65-13.65,9.44-4.97,2.25-4.97,2.25c0,0-6.94-3.73-8.55-4.49-1.62-.76-12.22-7.26-14.17-7.85-1.95-.59-9.22-5.08-10.32-5.84-1.11-.76-6.91-4.38-6.91-4.38l.43-21.56Z"/>
  <path class="cls-2" d="M163.4,73.72s8.35,4.18,9.86,5.27c1.5,1.08,11.78,3.77,12,4.74.22.97,3.14,14.02,3.14,14.02,0,0-6.39-.86-9.45-1.68-3.06-.82-13.5-3.52-14.74-5.16-1.23-1.63-1.37-9.52-1.37-9.52l.55-7.67Z"/>
  <path class="cls-3" d="M119,186.5c-1.84,0-3.4-.12-4.25-.26-3.46-.55-6.92-.35-10.27-.16-6.19.35-12.05.69-17.33-3.45-1.83-1.43-3.65-3.07-4.57-5.3-.79-1.92-.8-4.01-.74-5.99.2-6.36,1.09-21.7,2.59-28.51,1.55-7.04,1.56-10.1,1.58-13.64.01-2.89.03-6.17.89-12.12.13-.87.37-2.04.65-3.4.73-3.49,1.8-8.66,1.19-10.88-.31.3-.73.85-.94,1.39-3.34,8.54-5.5,21.31-7.4,32.57-.81,4.78-1.57,9.29-2.36,13.16-.59,2.86-2.91,6.52-5.63,7.42-1.87.62-3.71-.13-5.44-.96-.94-.45-2.04-.45-3.2-.45-1.32,0-2.69,0-4.03-.64-.4-.19-1.17-.32-1.92-.44-1.49-.24-3.03-.49-3.83-1.47-3.31-4.04-2.03-12.58.29-16.67,1.84-3.24,1.66-6.83,1.47-10.64-.15-3.07-.31-6.24.6-9.39,1.3-4.52,2.73-12.55,4.24-21.05,2.21-12.44,4.49-25.31,7.04-31.6,2.13-5.26,4.54-10.78,8.37-15.31,5.7-6.74,13.68-8.82,22.12-11.03,2.27-.59,4.62-1.21,6.91-1.92.42-.92.38-2.69.34-4.26-.06-2.56-.11-5.21,1.48-6.44,1.24-.96,3.05-1.02,5.21-.18.81.32,1.64.7,2.43,1.06,2.77,1.28,5.39,2.48,7.8,1.5.67-.27,1.28-.71,1.94-1.18.57-.4,1.15-.82,1.81-1.15,1.43-.73,3.28-.87,4.56.01.06-.08.14-.14.22-.2,1.62-1.03,3.72-1.21,5.76-1.37.77-.06,1.56-.13,2.32-.24,4.37-.63,6.61,3.29,7.24,5.71.43,1.62.9,3.16,2.03,4.21.88.82,1.83,1.58,2.76,1.59,10.14.14,18.01,3.47,23.37,9.92,4.28,5.14,5.69,10.74,6.29,13.13v.06c.8,3.13,1.45,6.32,2.07,9.41.41,2.02.83,4.1,1.29,6.15,1.76,7.86,3.46,15.47,5.17,23.07,1.71,7.61,3.42,15.22,5.17,23.09.62,2.77,1.06,5.21,1.49,7.57.71,3.92,1.39,7.63,2.74,12.12,1.13,3.74,0,5.53-.62,6.49-.08.13-.16.26-.2.33-.56,1.23-1.75,1.87-2.62,2.33-4.12,2.2-11.79,4.54-16.05,2.02-3.38-2.01-4.5-6-5.21-10.02-.68-3.83-1.1-7.45-1.51-10.94-.94-8-1.83-15.55-5.61-23.61-.22-.47-.43-1.2-.65-1.97-.04-.13-.08-.27-.12-.43-1.26,10.16,1.11,21.46,3.4,32.41,2.72,13.01,5.54,26.47,2.43,38.34-.32,1.22-.75,2.61-1.76,3.63-1.14,1.15-2.74,1.54-4.27,1.85-10.09,2.01-17.76,1.98-27.48,1.93h-2.3c-1.61-.03-4.44.54-4.88,1.24-1.78,2.87-7.72,3.56-12.09,3.56ZM109.72,183.97c1.75,0,3.53.1,5.33.38,4.03.64,12.78.19,14.41-2.42,1.29-2.08,6.45-2.15,6.51-2.15h2.31c9.61.06,17.2.09,27.09-1.88,1.29-.26,2.52-.55,3.28-1.32.68-.68,1-1.74,1.27-2.76,2.99-11.44.22-24.67-2.46-37.47-2.51-12.01-5.11-24.43-3.04-35.55.03-.15.09-.29.19-.41.48-.61,1.05-.58,1.28-.53,1,.19,1.4,1.43,2.02,3.59.19.66.39,1.35.54,1.68,3.91,8.34,4.82,16.04,5.78,24.2.41,3.47.83,7.05,1.5,10.83.63,3.57,1.59,7.09,4.3,8.7,3.36,1.99,10.31,0,14.17-2.06.81-.43,1.51-.84,1.78-1.43.09-.19.2-.37.32-.56.51-.8,1.27-2,.4-4.9-1.39-4.6-2.07-8.35-2.79-12.33-.43-2.34-.87-4.77-1.48-7.5-1.76-7.87-3.47-15.48-5.17-23.09-1.71-7.6-3.41-15.21-5.17-23.07-.46-2.07-.88-4.16-1.29-6.19-.62-3.06-1.26-6.23-2.04-9.32v-.06c-3.57-14.13-12.93-21.4-27.84-21.6-1.58-.02-2.88-1.03-4.04-2.11-1.5-1.39-2.09-3.3-2.57-5.13-.13-.5-1.38-4.84-5.11-4.3-.82.12-1.64.19-2.44.25-1.89.15-3.67.3-4.88,1.08-.11.07-.23.12-.36.14-.06.21-.18.4-.37.54-.43.31-1.03.2-1.34-.23-.52-.74-1.9-.66-2.87-.16-.53.27-1.03.63-1.56,1.01-.71.51-1.45,1.03-2.33,1.39-3.18,1.29-6.3-.15-9.32-1.54-.81-.37-1.57-.72-2.33-1.02-1.05-.41-2.47-.76-3.33-.09-.83.64-.78,2.89-.73,4.88.05,2.22.09,4.32-.83,5.65-.12.17-.3.3-.5.37-2.44.77-4.94,1.43-7.36,2.06-8.14,2.13-15.83,4.14-21.14,10.41-3.65,4.31-5.98,9.67-8.05,14.79-2.47,6.11-4.84,19.45-6.93,31.21-1.52,8.55-2.95,16.63-4.29,21.25-.82,2.84-.67,5.85-.52,8.76.2,3.92.4,7.96-1.72,11.69-2.29,4.03-3.02,11.41-.48,14.51.34.41,1.67.63,2.65.79.92.15,1.79.29,2.44.6.94.45,2.04.45,3.2.45,1.32,0,2.69,0,4.03.64,1.43.68,2.81,1.26,4,.87,1.98-.66,3.88-3.69,4.36-5.99.79-3.83,1.55-8.33,2.35-13.09,1.92-11.36,4.09-24.23,7.5-32.95.35-.91,1.53-2.78,2.92-2.81.64,0,1.17.36,1.45,1.01,1.01,2.35.17,7-.95,12.38-.28,1.33-.52,2.48-.63,3.29-.85,5.82-.86,9.03-.87,11.86-.02,3.65-.03,6.8-1.62,14.04-1.45,6.61-2.35,22.1-2.54,28.15-.06,1.85-.05,3.63.59,5.2.75,1.82,2.36,3.25,3.98,4.52,4.72,3.69,10.22,3.38,16.04,3.05,1.75-.1,3.54-.2,5.35-.2Z"/>
  <path class="cls-3" d="M130.63,182.66c-.08,0-.15,0-.23-.03-.51-.13-.83-.65-.7-1.16,1.31-5.32.81-12.22.4-17.76-.16-2.24-.31-4.17-.32-5.77-.05-7.02-1.07-14.14-2.06-21.03-1.29-9.02-2.63-18.34-1.82-27.61.17-1.99.37-4.01.57-5.96.39-3.88.79-7.89.98-11.84.35-7.06.06-14.28-.21-21.27-.4-10-.8-20.35.64-30.45.14-1.01.47-2.33.81-3.73.76-3.1,1.81-7.35,1-9.24-.21-.49.02-1.05.5-1.26.49-.21,1.05.02,1.26.5,1.07,2.48.02,6.72-.9,10.46-.33,1.35-.65,2.63-.78,3.54-1.41,9.93-1.01,20.19-.62,30.1.28,7.03.56,14.29.21,21.44-.2,4-.6,8.03-.99,11.94-.19,1.95-.39,3.96-.57,5.93-.79,9.04.53,18.26,1.81,27.17,1,6.95,2.02,14.14,2.07,21.28.01,1.54.15,3.44.31,5.65.42,5.68.94,12.75-.45,18.36-.11.44-.5.73-.93.73Z"/>
  <path class="cls-3" d="M88.74,103.36c-.51,0-.93-.4-.96-.91-.11-2.37-.25-4.82-.39-7.43-.97-17.61-2.08-37.57,3.06-46.59.26-.46.85-.62,1.31-.36.46.26.62.85.36,1.31-4.86,8.54-3.72,29.05-2.81,45.54.14,2.61.28,5.07.39,7.44.03.53-.38.98-.91,1-.02,0-.03,0-.05,0Z"/>
  <path class="cls-3" d="M165.36,101.93c-.46,0-.87-.33-.95-.81-3.08-18.83-2.38-36.76,2.06-53.3.14-.51.66-.82,1.18-.68.51.14.82.66.68,1.18-4.37,16.27-5.05,33.93-2.02,52.49.09.52-.27,1.02-.79,1.1-.05,0-.1.01-.16.01Z"/>
  <path class="cls-3" d="M107.44,26.77c-.37,0-.71-.21-.87-.56-.51-1.12-.17-2.55.89-3.82,1.55-1.85,4.63-3.32,8.02-2.46,3.8.97,8.21.75,13.46-.66,6.26-1.69,11.07-.36,13.07,1.7,1.03,1.07,1.39,2.36,1,3.64-.15.51-.69.79-1.2.64-.51-.15-.79-.69-.64-1.2.18-.6,0-1.19-.54-1.75-1.6-1.65-5.96-2.59-11.19-1.18-5.58,1.5-10.3,1.72-14.43.67-2.59-.66-4.92.45-6.08,1.83-.56.67-.8,1.38-.61,1.79.22.48,0,1.05-.48,1.27-.13.06-.26.09-.4.09Z"/>
  <path class="cls-3" d="M125.06,36.6c-.34,0-.68-.08-1-.23-.64-.3-1.08-.87-1.19-1.52-.12-.73.23-1.49.89-1.95.56-.39,1.22-.47,1.8-.25.45-.27,1.03-.14,1.31.3.35.55.46,1.25.3,1.91-.16.63-.53,1.15-1.07,1.46-.32.18-.68.27-1.05.27ZM124.78,34.56s.06.06.14.09c.1.04.19.03.23.01.04-.02.07-.06.1-.11-.12,0-.24-.04-.35-.1-.04.02-.09.06-.12.1Z"/>
  <path class="cls-3" d="M127.93,44.79c-.26,0-.52-.1-.71-.31-1.66-1.8-5.19-3.49-7.76-4.72-.41-.2-.8-.38-1.16-.56-4.64-2.27-7.56-2.01-10.13-1.79-.88.08-1.72.15-2.54.11-.53-.03-.94-.48-.91-1.01.03-.53.48-.94,1.01-.91.69.04,1.43-.03,2.28-.1,2.68-.23,6.02-.52,11.14,1.98.35.17.74.36,1.14.55,2.71,1.3,6.43,3.07,8.34,5.15.36.39.33,1-.06,1.36-.18.17-.42.25-.65.25Z"/>
  <path class="cls-3" d="M128.19,46.76c-.07,0-.14,0-.2-.02-.52-.11-.85-.62-.73-1.14.65-3,5.4-5.86,7.6-6.78,2.34-.98,9.47-3.95,11.09-6.33.3-.44.89-.55,1.33-.26.44.3.55.89.26,1.33-1.72,2.53-7.28,5.09-11.94,7.03-2.43,1.01-6.06,3.56-6.46,5.41-.1.45-.5.76-.94.76Z"/>
  <path class="cls-3" d="M123.03,172.43c-.08,0-.17-.01-.25-.03-.51-.14-.82-.66-.68-1.18,1.43-5.33.89-9.9.07-16.83-.55-4.69-1.24-10.53-1.56-18.45-.16-3.95-1.14-12.97-3.21-15.63-.32-.42-.25-1.02.17-1.35.42-.32,1.02-.25,1.35.17,2.55,3.29,3.47,13.19,3.61,16.73.31,7.84.99,13.64,1.54,18.3.84,7.15,1.4,11.87-.13,17.55-.12.43-.5.71-.93.71Z"/>
  <path class="cls-3" d="M89.28,147.81c-.32,0-.64-.04-.94-.13-1.82-.52-2.66-2.42-3.12-3.44-.08-.17-.15-.34-.2-.43-.26-.46-.09-1.05.38-1.3.46-.26,1.05-.09,1.3.38.09.16.17.35.27.57.35.78.93,2.1,1.89,2.37.61.17,1.39-.06,2.33-.7,2.68-1.81,5.32-2.26,7.88-2.7,2.72-.47,5.29-.91,7.64-3.03.11-.1.33-.3.36-.4.03-.09,0-.32-.02-.48l-.82-6.62c-.01-.12-.05-.4-.1-.47-.04-.04-.19-.1-.67-.14-3.17-.29-7.89-.45-11.68-.58-2.76-.09-5.14-.17-6.31-.28-.53-.05-.92-.51-.87-1.04.05-.53.51-.92,1.04-.87,1.12.1,3.47.18,6.2.27,3.82.13,8.57.29,11.79.58.49.04,1.41.13,1.99.85.39.48.46,1.06.51,1.44l.82,6.62c.04.35.1.82-.07,1.32-.19.58-.62.96-.89,1.21-2.77,2.5-5.73,3.01-8.6,3.5-2.47.42-4.79.82-7.13,2.4-1.06.72-2.07,1.08-3,1.08Z"/>
  <path class="cls-3" d="M94.02,166.06c-3.61,0-7.39-.51-10.72-1.49-.51-.15-.8-.68-.65-1.19.15-.51.68-.8,1.19-.65,4.54,1.33,9.96,1.75,14.49,1.13,2-.27,3.75-.59,4.91-1.69,1.47-1.39,1.68-3.76,1.77-6.06.14-3.67.15-8.27.16-12.32v-2.1c0-.53.44-.96.96-.96h0c.53,0,.96.43.96.96v2.1c-.01,4.07-.02,8.68-.17,12.39-.1,2.58-.37,5.49-2.37,7.38-1.7,1.61-4.17,1.95-5.97,2.19-1.46.2-3,.3-4.57.3Z"/>
  <path class="cls-3" d="M164.93,145.59c-.12,0-.24-.02-.36-.07-2.92-1.19-5.5-2.61-7.99-3.98-2.09-1.15-4.25-2.34-6.61-3.39-.44-.19-1.03-.46-1.46-1-.57-.72-.61-1.59-.6-2.35.02-2.84.28-5.7.77-8.5.05-.27.21-.51.45-.66.24-.14.52-.18.79-.09,2.4.76,4.92.13,7.85-.6,2.27-.57,4.83-1.21,7.72-1.27,0,0,.01,0,.02,0,.52,0,.95.42.96.94.01.53-.41.97-.94.98-2.67.05-5.02.64-7.29,1.21-2.7.67-5.27,1.32-7.82.83-.36,2.37-.56,4.77-.58,7.17,0,.43,0,.92.19,1.14.14.17.46.31.74.44,2.43,1.09,4.63,2.29,6.75,3.46,2.37,1.31,4.63,2.55,7.19,3.63l3.84-4.04c.37-.38.97-.4,1.36-.03.38.37.4.97.03,1.36l-4.3,4.52c-.18.19-.44.3-.7.3Z"/>
  <path class="cls-3" d="M163.35,164.08c-3.21,0-5.61-.62-8.35-1.91-.05-.02-4.97-2.63-4.71-7.22.17-2.95-.02-5.84-.21-8.63-.19-2.86-.39-5.82-.21-8.9.03-.53.49-.93,1.01-.9.53.03.93.49.9,1.01-.17,2.95.02,5.85.21,8.66.19,2.85.39,5.81.21,8.87-.19,3.27,3.58,5.36,3.62,5.38,4.09,1.92,7.15,2.32,16.19.75.52-.09,1.02.26,1.11.78.09.52-.26,1.02-.78,1.11-3.77.66-6.6,1-8.99,1Z"/>
  <path class="cls-3" d="M58.82,168.96c-.58,0-1.18-.12-1.8-.46-.35-.19-.89-.48-1.23-1.01-.6-.93-.31-2.03-.15-2.62.41-1.55.45-3.5.49-5.38.04-2,.08-4.07.55-5.84.14-.51.66-.82,1.18-.68.51.14.82.66.68,1.18-.41,1.55-.45,3.5-.49,5.38-.04,2-.08,4.07-.55,5.84-.07.26-.23.86-.09,1.08.08.12.35.27.53.36.78.42,1.56.19,2.76-.22,1.22-.41,2.6-.88,4.12-.24.77.32,1.72.65,2.27.31.4-.25.63-.87.84-1.53.33-1.02.24-2.34.14-3.73-.11-1.52-.22-3.08.23-4.46.16-.5.71-.78,1.21-.62.5.16.78.71.62,1.21-.33,1.02-.24,2.34-.14,3.73.11,1.52.22,3.08-.23,4.46-.25.77-.63,1.93-1.65,2.57-1.46.91-3.26.15-4.03-.17-.85-.36-1.73-.06-2.76.29-.77.26-1.6.54-2.49.54Z"/>
  <path class="cls-3" d="M187.31,164.21c-.57,0-1.14-.04-1.71-.13-.33-.05-1.1-.17-1.61-.78-.4-.48-.46-1.05-.51-1.42-.18-1.57-.54-3.56-.89-5.5-.35-1.96-.72-3.99-.91-5.62-.06-.53.32-1,.85-1.06.53-.06,1,.32,1.06.85.18,1.56.54,3.56.89,5.5.35,1.96.72,3.99.91,5.62.01.11.04.35.08.42,0-.01.09.05.42.1,2.76.42,5.68-.4,7.82-2.18.16-.13.33-.29.39-.41.08-.17.05-.52.02-.78-.11-1.23-.19-2.56-.28-3.96-.14-2.3-.28-4.68-.59-6.68-.08-.52.28-1.01.8-1.1.52-.08,1.01.28,1.1.8.32,2.09.47,4.52.61,6.86.08,1.39.16,2.7.27,3.9.04.45.1,1.12-.19,1.75-.22.47-.56.8-.9,1.09-2.12,1.76-4.87,2.73-7.62,2.73Z"/>
  <path class="cls-3" d="M59.79,168.22c-.11,0-.22-.02-.32-.06-.5-.18-.76-.73-.58-1.23.84-2.37.89-4.69.93-7.15.03-1.7.06-3.45.37-5.29.09-.52.58-.88,1.1-.79.52.09.88.58.79,1.1-.28,1.7-.31,3.38-.34,5.01-.05,2.5-.1,5.09-1.04,7.75-.14.39-.51.64-.9.64Z"/>
  <path class="cls-3" d="M63.96,168.12c-.06,0-.13,0-.19-.02-.52-.1-.86-.61-.75-1.13.49-2.44.63-4.06.79-5.76.15-1.68.3-3.42.81-5.97.1-.52.61-.86,1.13-.75.52.1.86.61.75,1.13-.49,2.44-.63,4.06-.78,5.76-.15,1.68-.3,3.42-.82,5.97-.09.46-.49.77-.94.77Z"/>
  <path class="cls-3" d="M191.64,163.06c-.49,0-.9-.37-.95-.86-.12-1.12-.21-2.27-.32-3.48-.25-2.9-.5-5.89-1.06-8.79-.1-.52.24-1.02.76-1.12.52-.1,1.02.24,1.12.76.58,2.99.84,6.04,1.09,8.99.1,1.21.2,2.35.31,3.44.06.53-.33,1-.85,1.05-.03,0-.07,0-.1,0Z"/>
  <path class="cls-3" d="M187.76,163.8c-.52,0-.95-.42-.96-.95-.03-1.97-.22-4-.4-5.96-.19-2-.38-4.07-.41-6.11,0-.53.42-.97.95-.97h.01c.52,0,.95.42.96.95.03,1.97.22,3.99.4,5.96.19,2,.38,4.07.41,6.11,0,.53-.42.97-.95.97h-.01Z"/>
  <path class="cls-3" d="M123.14,82.19c-.42,0-.77-.32-.82-.74-.16-1.62.22-3.16.6-4.65.3-1.22.59-2.37.59-3.53,0-1.06-.25-2.11-.51-3.23-.08-.35-.16-.69-.24-1.04-.67-3.15-.75-6.35-.23-9.52.07-.45.49-.75.94-.68.45.07.75.5.68.94-.48,2.97-.41,5.97.22,8.92.07.34.15.67.23,1.01.27,1.15.55,2.35.55,3.6,0,1.36-.32,2.67-.64,3.93-.35,1.42-.69,2.76-.56,4.09.05.45-.28.86-.74.9-.03,0-.06,0-.08,0Z"/>
  <path class="cls-3" d="M100.49,180.74c-1.9,0-3.88-.23-5.68-1.07-2.2-1.02-3.88-2.83-5.37-4.43-.31-.33-.29-.85.04-1.16.33-.31.85-.29,1.16.04,1.45,1.56,2.96,3.17,4.86,4.06,2.6,1.21,5.71.95,8.45.73.45-.04.85.3.89.75.04.45-.3.85-.75.89-1.12.09-2.34.19-3.6.19Z"/>
  <path class="cls-3" d="M153.63,174.99c-.41,0-.76-.3-.81-.72-.06-.45.26-.86.71-.92,2.07-.27,4.17-.43,6.25-.46h.32c1.29-.03,2.52-.04,3.58-.5.95-.4,1.88-1.39,1.74-2.43-.06-.45.25-.87.7-.93.45-.06.87.25.93.7.26,1.87-1.17,3.51-2.72,4.17-1.36.58-2.81.6-4.2.62h-.32c-2.02.04-4.06.19-6.06.45-.04,0-.07,0-.11,0Z"/>
  <path class="cls-3" d="M188.02,146.24c-.4,0-.75-.29-.81-.7-.07-.45.24-.87.69-.94,1.84-.27,3.51-1.7,4.07-3.47.14-.43.6-.67,1.03-.54.43.14.67.6.54,1.03-.75,2.38-2.92,4.23-5.39,4.6-.04,0-.08,0-.12,0Z"/>
  <path class="cls-3" d="M64.45,150.97s-.02,0-.03,0c-3.55-.13-6.87-2.56-8.07-5.9-.15-.43.07-.9.5-1.05.43-.15.9.07,1.05.49.98,2.73,3.69,4.7,6.59,4.81.45.02.81.4.79.85-.02.44-.38.79-.82.79Z"/>
  <path class="cls-3" d="M93.62,117.55c-.39,0-.73-.27-.81-.66-.48-2.44.07-4.84.59-7.16.3-1.35.62-2.74.72-4.09.28-3.88-1.23-7.79-2.56-11.25-.16-.42.05-.9.47-1.06.42-.16.9.05,1.06.47,1.39,3.61,2.97,7.71,2.67,11.96-.1,1.47-.43,2.93-.75,4.33-.51,2.25-.99,4.38-.58,6.48.09.45-.2.88-.65.97-.05.01-.11.02-.16.02Z"/>
  <path class="cls-3" d="M159.31,120.73s-.06,0-.1,0c-.45-.05-.77-.46-.72-.91.18-1.52-.15-3.05-.49-4.67-.29-1.37-.59-2.78-.58-4.23,0-1.21.23-2.39.45-3.52.14-.72.27-1.4.35-2.09.22-1.93.04-3.94-.14-5.88-.04-.45.29-.85.74-.89.45-.04.85.29.89.74.18,2.02.37,4.12.13,6.22-.09.75-.23,1.49-.37,2.2-.21,1.11-.41,2.16-.42,3.23,0,1.27.26,2.54.55,3.87.36,1.68.73,3.42.52,5.21-.05.42-.4.73-.82.73Z"/>
  <path class="cls-3" d="M123.71,48.2c-.27,0-.53-.13-.69-.37-2.4-3.59-6.56-6.03-10.87-6.36-.45-.03-.79-.43-.76-.88.03-.45.43-.79.88-.76,4.8.37,9.44,3.09,12.11,7.09.25.38.15.89-.23,1.14-.14.09-.3.14-.46.14Z"/>
  <path class="cls-3" d="M132.72,51.18c-.36,0-.69-.24-.79-.6-.42-1.5.17-3.17,1.76-4.97,2.71-3.06,6.19-5.4,10.04-6.75.43-.15.9.07,1.05.5.15.43-.07.9-.5,1.05-3.6,1.27-6.83,3.44-9.36,6.29-1.2,1.35-1.67,2.5-1.41,3.43.12.44-.13.89-.57,1.01-.07.02-.15.03-.22.03Z"/>
</svg>