<?xml version="1.0" encoding="UTF-8"?>
<svg id="Layer_1" data-name="Layer 1" xmlns="http://www.w3.org/2000/svg" viewBox="0 0 251 205">
  <defs>
    <style>
      .cls-1 {
        fill: #a5a5a5;
      }

      .cls-2 {
        fill: #fff;
      }
    </style>
  </defs>
  <g>
    <path class="cls-2" d="M128.86,69.69c-4.01,9.4,2.28,19.3,6.79,24.92,4.51,5.62,10.8,12.54,20.92,10.75,0,0-32.1,28.64-32.56,28.39.5-4.78-.88-15.62-7.86-24.49-6.15-7.82-16.28-15.07-22.13-14.09l34.84-25.47Z"/>
    <path d="M125.96,133.47c-1.82,1.43-2.04,1.31-2.42,1.1-.33-.19-.52-.55-.48-.92.52-5-1.09-15.46-7.66-23.81-5.8-7.38-15.72-14.66-21.23-13.74-.43.07-.86-.16-1.03-.57-.17-.4-.07-.87.31-1.13l34.84-25.47c.34-.25.81-.24,1.15.02s.45.72.28,1.11c-3.61,8.45,1.63,17.69,6.66,23.95,4.75,5.91,10.6,12.08,20.01,10.41.42-.07.83.14,1.02.52.19.38.09.84-.22,1.12-.08.07-8.12,7.24-16.11,14.29-8.88,7.83-13.05,11.48-15.13,13.11ZM96.85,94.27c6.34,1.05,14.69,7.59,20.05,14.4,6.12,7.77,8.15,17.34,8.15,23.12,4.51-3.73,18.28-15.9,28.71-25.19-9.56.2-15.51-7.23-18.85-11.39-6.71-8.36-9.38-16.25-7.85-23.02l-30.21,22.09Z"/>
  </g>
  <g>
    <path class="cls-2" d="M123.11,56.9c-11.99-15.16-31.27-13.65-43.16,1.26-8.26,10.36-5.79,21.71.22,30.42,9.15,13.26,25.29,15.19,38.59,6.15,11.79-8.01,14.21-25.37,4.35-37.83Z"/>
    <path d="M120.66,94.52c-.44.35-.89.68-1.36,1-6.72,4.57-14.36,6.5-21.52,5.44-7.33-1.08-13.86-5.29-18.38-11.84-7.47-10.83-7.54-22.33-.18-31.55,6.24-7.83,14.77-12.3,23.4-12.29,8.08.02,15.62,3.93,21.24,11.03h0c5.01,6.34,7.21,14.4,6.03,22.11-1.01,6.55-4.26,12.2-9.22,16.1ZM86.32,53.13c-2.02,1.59-3.91,3.47-5.62,5.61-9.31,11.68-3.83,23.37.26,29.3,8.64,12.52,23.97,14.95,37.27,5.91,5.28-3.6,8.77-9.21,9.78-15.82,1.1-7.19-.95-14.71-5.64-20.64-5.25-6.64-12.26-10.3-19.75-10.31-5.71-.01-11.38,2.1-16.29,5.96Z"/>
  </g>
  <g>
    <path class="cls-1" d="M169.67,114.84c-11.99-15.16-31.27-13.65-43.16,1.26-8.26,10.36-5.79,21.71.22,30.42,9.15,13.26,25.29,15.19,38.59,6.15,11.79-8.01,14.21-25.37,4.35-37.83Z"/>
    <path d="M167.21,152.46c-.44.35-.89.68-1.36,1-6.72,4.57-14.36,6.5-21.52,5.44-7.33-1.08-13.86-5.29-18.38-11.84-7.47-10.83-7.54-22.33-.18-31.55,6.24-7.82,14.77-12.31,23.4-12.29,8.08.02,15.62,3.93,21.24,11.03h0c5.01,6.34,7.21,14.4,6.03,22.11-1.01,6.55-4.26,12.2-9.22,16.1ZM132.88,111.07c-2.02,1.59-3.91,3.47-5.62,5.61-9.31,11.67-3.83,23.37.26,29.3,8.64,12.52,23.97,14.95,37.27,5.91,5.28-3.6,8.77-9.21,9.78-15.82,1.1-7.19-.95-14.71-5.64-20.64-5.25-6.64-12.26-10.3-19.75-10.31-5.71-.01-11.38,2.1-16.29,5.96Z"/>
  </g>
  <g>
    <rect x="116.31" y="57.45" width="6.18" height=".63" transform="translate(-9.11 90.6) rotate(-40.15)"/>
    <rect x="79.93" y="87.37" width="5.4" height=".63" transform="translate(-36.68 70.9) rotate(-38.69)"/>
  </g>
  <g>
    <rect x="116.6" y="88.93" width=".63" height="6.27" transform="translate(-31.82 97.07) rotate(-40.15)"/>
    <rect x="86.27" y="52.02" width=".63" height="5.48" transform="translate(-15.23 66.15) rotate(-38.69)"/>
  </g>
  <g>
    <path d="M164.15,117.98c-.13.1-.33.09-.44-.04-.11-.13-.1-.33.04-.45l4.72-3.99c.16-.13.33-.1.45.04.11.13.1.33-.04.45l-4.72,3.99h0Z"/>
    <path d="M127.63,147.6c-.14.11-.33.08-.44-.05-.11-.14-.09-.33.05-.44l4.21-3.38c.11-.13.33-.09.44.05.11.14.09.33-.05.44l-4.21,3.38h0Z"/>
  </g>
  <g>
    <path d="M166.04,152.69c-.13.1-.33.09-.44-.04l-4.04-4.79c-.11-.13-.1-.33.04-.45.14-.11.33-.1.45.04l4.04,4.79c.11.13.1.33-.04.45h0Z"/>
    <path d="M135.41,115.12c-.14.11-.33.08-.44-.05l-3.42-4.27c-.11-.14-.09-.33.05-.44h0c.14-.11.33-.09.44.05l3.42,4.27c.11.14.09.33-.05.44h0Z"/>
  </g>
  <path d="M103.28,81.22c-.19.15-.44.22-.69.2-.25-.03-.48-.15-.64-.35l-9.89-12.47c-.33-.41-.26-1.01.15-1.33h0c.41-.33,1-.26,1.33.15l9.29,11.71,7.94-6.47c.42-.33,1-.27,1.33.14.33.41.27,1-.14,1.33l-8.69,7.08h-.01Z"/>
  <path d="M160.86,145.01c-.12.1-.25.19-.38.29-7.39,5.41-17.98,6.64-24.99-2.81-2.81-3.79-4.05-9.11-3.24-13.9.71-4.21,2.91-7.68,6.36-10.02,9.99-6.8,18.98-2.79,23.64,2.71,3.01,3.55,4.51,8.85,3.93,13.83-.34,2.91-1.55,6.95-5.32,9.91ZM138.14,119.69c-2.83,2.22-4.64,5.31-5.27,9-.78,4.62.41,9.77,3.12,13.42,6.75,9.1,16.97,7.9,24.1,2.67,3.88-2.85,5.11-6.88,5.45-9.76.57-4.81-.88-9.93-3.78-13.35-4.49-5.3-13.15-9.16-22.8-2.59h0c-.28.19-.56.4-.83.61Z"/>
  <path d="M113.37,86.03c-.12.1-.25.19-.38.29-7.39,5.41-17.98,6.64-24.99-2.81-2.81-3.79-4.05-9.11-3.24-13.9.71-4.21,2.91-7.68,6.36-10.03,9.99-6.8,18.98-2.79,23.64,2.71,3.01,3.55,4.51,8.85,3.93,13.83-.34,2.91-1.55,6.95-5.32,9.91ZM90.66,60.71c-2.83,2.22-4.64,5.31-5.27,9-.78,4.62.41,9.77,3.12,13.42,6.75,9.1,16.97,7.9,24.1,2.67,3.89-2.86,5.11-6.88,5.45-9.76.57-4.81-.88-9.93-3.78-13.35-4.49-5.3-13.15-9.16-22.8-2.59h0c-.28.19-.56.4-.83.61Z"/>
</svg>