<?xml version="1.0" encoding="UTF-8"?>
<svg id="Layer_1" data-name="Layer 1" xmlns="http://www.w3.org/2000/svg" viewBox="0 0 251 205">
  <defs>
    <style>
      .cls-1 {
        fill: #fff;
      }

      .cls-2 {
        fill: #221f1f;
      }

      .cls-3 {
        fill: #c2bdc0;
      }
    </style>
  </defs>
  <g>
    <path class="cls-1" d="M90.46,62.41c-5.28-.46-6.73-9.42-4.39-11.85.43-.45.95-.86,1.14-1.45.38-1.15-.6-2.26-1.02-3.4-.84-2.28,1.09-5.1,3.51-5.14.55,0,1.13.09,1.61-.17.51-.28.74-.89.91-1.45.5-1.68.83-3.49,1.98-4.82,1.15-1.33,3.48-1.82,4.58-.45.31.38.49.88.88,1.18.84.65,2.09.05,2.76-.78.67-.82,1.09-1.88,1.96-2.48,1.35-.95,3.32-.41,4.49.76,1.17,1.17,1.72,2.79,2.24,4.36.36-2.34,3.75-3.3,5.57-1.79,1.82,1.51,1.85,4.52.43,6.42,1.69-.6,3.77.35,4.44,2.01.67,1.67-.18,3.79-1.82,4.52,1.7.07,3.21,1.62,3.22,3.32.01,1.7-1.47,3.28-3.17,3.37.99.87,1.33,2.41.79,3.62-.54,1.21-2.98,2.8-4.29,2.65"/>
    <path class="cls-1" d="M67.86,104.69c.03-2.82.99-5.54,1.96-8.19,3.29-9.01,6.9-18.12,13.01-25.52,6.11-7.4,15.18-12.96,24.77-12.56,4.43.18,8.95,1.74,11.93,5.02,6.94,7.67,3.27,21.48,10.88,28.49,3.16,2.9,8.33,5.02,8.06,9.3"/>
    <path class="cls-1" d="M67.86,104.69c8.57-8.42,17.79-10.91,29.39-14.06,3.12-.84,6.39-1.53,9.56-.87,4.41.92,7.85,4.28,11.85,6.36,6.65,3.45,14.87,3.34,21.11,7.49.46.3.93.67,1.07,1.2.17.66-.23,1.32-.57,1.91-2.05,3.52-2.48,7.95-1.15,11.8.69,2,1.82,3.85,2.22,5.93.75,3.92-1.31,7.94-4.28,10.6-2.97,2.66-6.75,4.21-10.44,5.71-2.75,1.12-5.5,2.23-8.36,3-7.27,1.94-14.94,1.5-22.46,1.05-4.15-.25-8.34-.5-12.31-1.73-6.93-2.14-12.82-7.29-16.15-13.74,0,0-7.57-16.71.52-24.65Z"/>
    <path class="cls-3" d="M78.31,122.53c-2.1,2.7-2.69,6.96-.26,9.37.73.72,1.65,1.21,2.56,1.67,4.08,2.04,8.47,3.71,13.03,3.73,1.91.01,3.81-.27,5.71-.1,2.84.24,6.42.6,9.25.93,4.95.58,8.87-.7,13.35-2.89,1.05-.51,2.12-1.05,2.95-1.87,1.78-1.77,2.1-4.75.93-6.97-1.02-1.95-2.99-3.26-5.07-3.96-2.08-.7-4.3-.87-6.49-1.03-7.12-.52-14.23-1.03-21.35-1.55-2.64-.19-5.31-.38-7.92.05-2.61.44-5.19,1.56-6.88,3.6"/>
    <path class="cls-2" d="M90.46,63.76s-.08,0-.12,0c-2.61-.23-4.76-2.12-5.92-5.19-1.08-2.88-1.21-6.99.67-8.94.09-.09.18-.19.28-.28.25-.24.5-.49.56-.66.09-.28-.19-.83-.47-1.36-.19-.36-.38-.74-.53-1.15-.55-1.48-.29-3.21.68-4.64.98-1.43,2.5-2.29,4.08-2.32.15,0,.3,0,.45,0,.19,0,.47.01.55-.02,0-.01.1-.14.25-.64.08-.28.16-.57.24-.86.4-1.47.86-3.13,2.01-4.46.95-1.09,2.42-1.75,3.85-1.73,1.14.02,2.14.49,2.81,1.32.17.21.3.42.41.6.08.13.2.32.25.36.11.02.57-.18.88-.56.19-.23.36-.51.55-.8.42-.65.9-1.4,1.68-1.95,2.03-1.42,4.72-.59,6.22.91.72.72,1.23,1.56,1.64,2.42.34-.25.73-.46,1.16-.62,1.71-.65,3.64-.38,4.93.69,1.69,1.4,2.29,3.83,1.72,6.04,1.55.34,2.94,1.41,3.55,2.93.61,1.51.35,3.24-.53,4.55,1.2.86,2.02,2.27,2.03,3.79.01,1.71-.99,3.29-2.43,4.12.41,1.1.42,2.35-.07,3.43-.74,1.66-3.68,3.67-5.68,3.44-.74-.08-1.27-.75-1.19-1.49.08-.74.76-1.27,1.49-1.19.68.09,2.58-1.14,2.9-1.86.3-.67.1-1.58-.45-2.06-.41-.36-.56-.94-.38-1.46.18-.52.66-.88,1.2-.9.98-.05,1.9-1.03,1.89-2.01,0-.98-.94-1.95-1.92-1.98-.63-.02-1.15-.48-1.27-1.09-.12-.61.2-1.23.77-1.49.98-.44,1.52-1.8,1.12-2.79-.4-.99-1.73-1.6-2.74-1.24-.56.2-1.19,0-1.54-.48-.35-.48-.35-1.13,0-1.61.96-1.28,1.07-3.5-.21-4.57-.54-.45-1.44-.55-2.24-.24-.3.12-1.02.46-1.13,1.19-.09.62-.6,1.09-1.22,1.14-.62.06-1.2-.33-1.39-.92-.45-1.34-.95-2.86-1.91-3.83-.72-.72-2-1.14-2.76-.61-.35.24-.63.68-.96,1.19-.22.34-.44.69-.72,1.03-1.12,1.39-3.16,2.14-4.63,1-.44-.34-.69-.75-.89-1.08-.08-.13-.15-.25-.21-.32-.16-.2-.41-.3-.75-.31-.61-.03-1.34.32-1.76.8-.75.86-1.09,2.1-1.45,3.41-.08.3-.17.61-.26.91-.15.5-.49,1.67-1.56,2.25-.69.38-1.4.35-1.91.34-.11,0-.22,0-.32,0-.7.01-1.41.44-1.89,1.14-.48.7-.62,1.52-.38,2.18.09.26.24.54.4.84.48.93,1.09,2.1.64,3.45-.26.79-.79,1.31-1.22,1.74-.08.08-.16.15-.23.23-.81.84-1.02,3.63-.08,6.12.45,1.21,1.53,3.26,3.62,3.45.74.06,1.29.72,1.23,1.46-.06.7-.65,1.23-1.34,1.23Z"/>
    <path class="cls-2" d="M105.56,146.55c-3.3,0-6.6-.2-9.85-.39-4.17-.25-8.48-.51-12.63-1.79-7.2-2.23-13.37-7.48-16.95-14.41-.01-.02-.02-.04-.03-.06-.33-.72-7.86-17.66.8-26.17l.95.96-.95-.96c8.82-8.66,18.15-11.19,29.96-14.39,3.29-.89,6.78-1.61,10.21-.89,3.12.65,5.74,2.39,8.26,4.07,1.34.89,2.6,1.72,3.93,2.42,2.88,1.49,6.05,2.28,9.4,3.12,4.05,1.01,8.23,2.05,11.83,4.44.4.27,1.34.89,1.63,1.98.31,1.18-.29,2.2-.68,2.87l-.03.06c-1.85,3.19-2.24,7.19-1.04,10.68.24.7.55,1.4.87,2.13.55,1.25,1.12,2.55,1.4,3.98.78,4.03-1.03,8.57-4.71,11.86-3.18,2.84-7.24,4.5-10.83,5.95-2.74,1.11-5.57,2.26-8.52,3.05-4.3,1.14-8.68,1.49-13.04,1.49ZM68.56,128.76c3.25,6.27,8.83,11.02,15.33,13.03,3.84,1.19,7.98,1.43,11.99,1.67,7.32.44,14.89.89,22.03-1.01,2.79-.74,5.54-1.86,8.2-2.94,3.55-1.44,7.22-2.93,10.05-5.46,2.33-2.09,4.57-5.63,3.86-9.34-.22-1.14-.71-2.24-1.22-3.4-.33-.75-.67-1.53-.95-2.34-1.46-4.22-.99-9.05,1.26-12.92l.04-.06c.14-.24.4-.69.4-.84-.01-.01-.1-.13-.5-.4-3.21-2.14-6.99-3.08-10.99-4.07-3.36-.84-6.83-1.7-9.99-3.34-1.46-.76-2.85-1.68-4.18-2.56-2.42-1.61-4.71-3.13-7.33-3.67-2.87-.6-5.99.05-8.93.85-11.45,3.1-20.48,5.55-28.8,13.72h0c-7.19,7.06-.58,22.35-.25,23.1Z"/>
    <path class="cls-2" d="M67.86,106.04h-.01c-.75,0-1.34-.62-1.34-1.36.03-3.14,1.14-6.19,2.04-8.64,3.28-8.97,7-18.36,13.23-25.91,7.05-8.55,16.73-13.44,25.86-13.05,5.23.21,9.92,2.21,12.87,5.47,3.62,4,4.54,9.42,5.43,14.66.91,5.37,1.77,10.44,5.37,13.74.79.73,1.73,1.41,2.72,2.13,2.82,2.06,6.02,4.38,5.78,8.25-.05.74-.69,1.31-1.43,1.26-.74-.05-1.31-.69-1.26-1.43.15-2.39-2.19-4.09-4.67-5.9-1.01-.73-2.05-1.49-2.95-2.32-4.27-3.93-5.25-9.7-6.2-15.28-.86-5.08-1.68-9.88-4.77-13.3-2.47-2.73-6.47-4.4-10.98-4.58-8.29-.34-17.16,4.17-23.67,12.07-5.97,7.23-9.45,16.01-12.78,25.12-.87,2.37-1.85,5.06-1.88,7.74,0,.74-.61,1.34-1.35,1.34Z"/>
    <path class="cls-2" d="M110.96,139.63c-.81,0-1.64-.05-2.5-.15-2.79-.33-6.32-.68-9.21-.93-1.05-.09-2.12-.03-3.26.03-.76.04-1.55.09-2.35.08-5.32-.03-10.33-2.23-13.63-3.88-1-.5-2.05-1.06-2.91-1.92-3.01-2.99-2.29-8.02.15-11.16.33-.42.85-.59,1.34-.49,1.65-1.31,3.79-2.22,6.22-2.63,2.78-.46,5.55-.26,8.24-.07l21.35,1.55c2.25.16,4.57.33,6.83,1.1,2.67.9,4.74,2.54,5.83,4.62,1.48,2.81.99,6.41-1.17,8.56-1.01,1.01-2.29,1.63-3.31,2.13-3.88,1.89-7.43,3.16-11.59,3.16ZM98.07,135.8c.47,0,.93.02,1.41.06,2.91.25,6.48.61,9.3.94,4.66.55,8.28-.65,12.6-2.76.89-.43,1.9-.92,2.59-1.61,1.32-1.31,1.61-3.62.69-5.39-.77-1.46-2.3-2.63-4.31-3.31-1.93-.65-4.08-.81-6.16-.96l-21.35-1.55c-2.52-.18-5.13-.37-7.6.04-2.6.43-4.75,1.55-6.07,3.13-.18.22-.42.37-.68.44-.95,2.06-1.03,4.61.5,6.13.58.58,1.38,1,2.22,1.42,4.93,2.46,8.77,3.57,12.44,3.59.72.01,1.43-.03,2.19-.08.73-.04,1.47-.08,2.23-.08Z"/>
    <path class="cls-2" d="M79.9,122.88c-.48,0-.95-.26-1.19-.71-1.28-2.37-2.6-4.82-3.25-7.58-.42-1.78-.53-3.58-.64-5.31l-.5-7.94c-.05-.74.52-1.39,1.26-1.43.75-.05,1.39.52,1.43,1.26l.5,7.94c.1,1.62.21,3.3.58,4.86.57,2.42,1.81,4.71,3,6.93.35.66.11,1.48-.55,1.83-.2.11-.42.16-.64.16Z"/>
    <path class="cls-2" d="M90.08,119.58c-.62,0-1.17-.42-1.31-1.05l-1.84-8.01c-1.1-4.78-2.6-11.33-.08-16.93.31-.68,1.1-.98,1.78-.68.68.31.98,1.1.68,1.78-1.98,4.41-1.06,9.5.25,15.22l1.84,8.01c.17.73-.29,1.45-1.01,1.62-.1.02-.2.03-.3.03Z"/>
    <path class="cls-2" d="M101.13,120.72s-.07,0-.1,0c-.74-.05-1.3-.7-1.25-1.44.13-1.85-.51-4.86-1.08-7.51-.39-1.84-.76-3.57-.9-4.95-.56-5.77.32-11.65,2.55-17,.29-.69,1.08-1.01,1.77-.73.69.29,1.01,1.08.73,1.77-2.06,4.94-2.88,10.37-2.36,15.69.12,1.22.47,2.89.85,4.64.63,2.97,1.29,6.03,1.13,8.27-.05.71-.64,1.25-1.35,1.25Z"/>
    <path class="cls-2" d="M110.14,121.17c-.07,0-.13,0-.2-.02-.74-.11-1.25-.8-1.13-1.54.11-.77.32-2.2.52-3.63.2-1.44.41-2.88.52-3.65.93-6.19,1.89-12.59,2.12-18.92.03-.74.64-1.32,1.4-1.3.75.03,1.33.65,1.3,1.4-.24,6.48-1.21,12.96-2.15,19.22-.11.77-.32,2.2-.52,3.63-.2,1.44-.41,2.88-.52,3.65-.1.67-.68,1.15-1.33,1.15Z"/>
    <path class="cls-2" d="M119.55,122.28c-.12,0-.25-.02-.37-.05-.72-.2-1.13-.95-.93-1.67.65-2.29,1.5-4.63,2.4-7.11,1.79-4.93,3.64-10.02,3.81-14.66.03-.75.66-1.32,1.4-1.3.75.03,1.33.65,1.3,1.4-.18,5.07-2.11,10.36-3.97,15.49-.88,2.43-1.72,4.72-2.34,6.93-.17.59-.71.98-1.3.98Z"/>
    <path class="cls-2" d="M125.69,125.84c-.3,0-.6-.1-.85-.31-.58-.47-.66-1.32-.19-1.9.77-.94,2.08-3.98,2.55-5.5.79-2.54,1.91-4.83,3-7.04,1.4-2.86,2.73-5.57,3.32-8.68.14-.73.85-1.21,1.58-1.07.73.14,1.21.85,1.07,1.58-.66,3.47-2.13,6.47-3.55,9.36-1.04,2.12-2.11,4.31-2.84,6.65-.4,1.28-1.84,4.94-3.04,6.4-.27.33-.65.5-1.05.5Z"/>
    <path class="cls-2" d="M94.31,54.32c-.29,0-.58-.09-.83-.29-1.17-.91-1.75-2.45-1.47-3.9.13-.66.42-1.17.86-1.52.8-.64,1.94-.56,2.59.17.5.55.45,1.41-.1,1.91-.21.18-.45.29-.71.33.04.34.22.69.49.89.59.46.69,1.31.23,1.9-.27.34-.66.52-1.07.52ZM93.45,50.58h0s0,0,0,0Z"/>
    <path class="cls-2" d="M110.73,55.67c-.48,0-.94-.25-1.19-.7-.36-.65-.12-1.47.54-1.83.41-.23.66-.82.54-1.27-.12-.44-.62-.82-1.08-.82-.01,0-.02,0-.03,0-.75.02-1.37-.55-1.4-1.3-.03-.75.55-1.37,1.3-1.4,1.73-.06,3.36,1.14,3.82,2.8.46,1.66-.34,3.53-1.85,4.36-.21.11-.43.17-.65.17Z"/>
    <path class="cls-2" d="M107.98,45.62c-.68,0-1.27-.51-1.34-1.21-.04-.37-.32-.76-.73-1-.41-.24-.88-.3-1.23-.15-.69.3-1.48-.02-1.77-.71-.29-.68.02-1.48.71-1.77,1.14-.49,2.5-.38,3.66.3,1.16.68,1.92,1.81,2.05,3.04.08.74-.46,1.41-1.2,1.49-.05,0-.1,0-.14,0Z"/>
    <path class="cls-2" d="M101.03,54.88c-.06,0-.12,0-.17-.01-.74-.1-1.26-.77-1.17-1.51.25-1.96,2.2-3.48,4.16-3.26.74.09,1.27.75,1.19,1.5-.09.74-.76,1.27-1.5,1.19-.51-.06-1.11.42-1.18.92-.09.68-.67,1.18-1.34,1.18Z"/>
    <path class="cls-2" d="M74.87,128c-.15,0-.3-.02-.45-.08l-3-1.06c-1.41-.5-2.87-1.02-4.21-1.91-1.34-.89-3.55-3.21-4.02-5.05-.18-.72.25-1.46.98-1.64.72-.18,1.46.25,1.64.98.24.94,1.86,2.78,2.89,3.47,1.06.71,2.36,1.17,3.62,1.61l3,1.06c.7.25,1.07,1.02.82,1.72-.2.55-.72.9-1.27.9Z"/>
    <path class="cls-2" d="M127.36,132.51c-.58,0-1.12-.38-1.29-.96-.21-.71.19-1.47.91-1.68,3.53-1.06,6.68-3.65,9.72-6.16.75-.62,1.52-1.25,2.28-1.85.59-.46,1.43-.36,1.9.23.46.59.36,1.43-.23,1.9-.74.58-1.46,1.18-2.23,1.81-3.25,2.68-6.62,5.45-10.66,6.66-.13.04-.26.06-.39.06Z"/>
    <path class="cls-2" d="M79.96,142.39c-.39,0-.78-.17-1.05-.5-.47-.58-.38-1.43.2-1.9,2.29-1.85,4.77-3.51,7.36-4.93.65-.36,1.47-.12,1.83.53.36.65.12,1.47-.53,1.83-2.45,1.34-4.79,2.91-6.96,4.67-.25.2-.55.3-.85.3Z"/>
    <path class="cls-2" d="M116.51,145.77c-.47,0-.93-.25-1.18-.69-.36-.65-.65-1.47-.92-2.26-.25-.71-.7-2.03-1.02-2.31-.68-.23-1.06-.97-.85-1.66.21-.71.97-1.12,1.68-.91,1.53.46,2.15,2.25,2.75,3.99.24.68.48,1.39.73,1.83.36.65.13,1.47-.52,1.84-.21.12-.43.17-.66.17ZM113.44,140.53h0,0ZM113.36,140.5h0Z"/>
    <path class="cls-2" d="M98.79,145.02c-.73,0-1.33-.59-1.35-1.32-.05-2.3.9-4.64,2.55-6.25.53-.52,1.39-.51,1.91.02.52.53.51,1.39-.02,1.91-1.12,1.1-1.77,2.69-1.74,4.26.02.75-.58,1.36-1.32,1.38,0,0-.02,0-.03,0Z"/>
    <path class="cls-2" d="M122.41,91.16c-.15,0-.3-.03-.44-.09-4.02-1.66-6.45-6.44-5.42-10.67.15-.62.78-1,1.4-.85.62.15,1,.78.85,1.4-.77,3.16,1.05,6.74,4.06,7.98.59.24.87.92.63,1.51-.18.45-.62.72-1.07.72Z"/>
    <path class="cls-2" d="M75.12,94.69c-.24,0-.48-.07-.68-.22-.52-.38-.63-1.1-.25-1.62l5.93-8.13c.38-.52,1.1-.63,1.62-.25.52.38.63,1.1.25,1.62l-5.93,8.13c-.23.31-.58.48-.94.48Z"/>
  </g>
  <g>
    <path class="cls-1" d="M141.5,163.39c3.49.61,7.05-.56,10.25-2.09,3.2-1.52,6.25-3.43,9.64-4.46,5.71-1.73,12.26-.95,17.27-4.2,2.03-1.32,3.76-3.87,2.72-6.05-.59-1.24-1.91-1.96-3.18-2.49-3.69-1.54-10.37.63-14.36.91.44-1.41,2.75-1.09,6.04-3.02,2.93-1.71,10.46-5.8,13.46-7.36,2.02-1.05,4.3-2.96,3.59-5.12-.71-2.18-3.71-2.35-5.96-1.94-3.47.63-6.87,1.67-10.11,3.07-1.61.7-3.63,1.44-4.97.3,2.6-5.04,9.93-5.23,14-9.19,1.15-1.12,2.04-2.8,1.47-4.3-.72-1.88-3.21-2.3-5.2-2.02-6.73.96-16.06,11.48-17.98,9.31-1.26-1.43,5.53-7.87,9.36-11.06,1.27-1.06,2.22-3.41,1.3-4.77-.28-.41-.74-.68-1.2-.86-2.08-.82-4.51-.21-6.37,1.02s-3.28,3.02-4.67,4.78c-1.28,1.63-2.56,3.26-3.84,4.88-.48.61-1.07,1.28-1.85,1.28-1.45,0-1.79-2.05-1.44-3.45,1.04-4.12,6.3-9.5,3.87-12.07-2.43-2.56-6.16,1.37-7.93,3.63-3.83,4.88-5.1,11.74-9.57,16.05-2.97,2.86-6.88,4.76-9.35,8.07-2.1,2.82-2.99,6.47-5.39,9.05-1.03,1.11-2.3,1.98-3.56,2.83-2.07,1.41-4.14,2.81-6.21,4.22-.95.64-1.92,1.31-2.54,2.28-1.08,1.68-.84,3.94.02,5.74.86,1.8,2.27,3.28,3.54,4.81,2.3,2.78,4.25,5.84,5.79,9.11.63,1.33,1.29,2.81,2.61,3.45,1.45.7,3.19.15,4.62-.58,5.94-3.02,10.47-8.98,17.04-10.1"/>
    <path class="cls-1" d="M123.33,138.98s-10.68,8.9-11.98,9.38c-1.3.48-5.17,4.86-2.07,8.85,3.1,3.98,8.35,11.42,8.88,13.09.53,1.67-.54,3.09,2.61,3.45,3.15.36,12.38-5.99,13.67-6.9,1.29-.91,8.57-3.3,8.57-3.3,0,0-4.31-7.81-6.25-9.43-1.94-1.62-3.28-5.69-5.01-8.16-1.73-2.47-8.42-6.97-8.42-6.97Z"/>
    <path class="cls-2" d="M119.36,174.23c-1.08-.89-1.7-2.21-2.21-3.31l-.06-.13c-1.49-3.18-3.39-6.16-5.63-8.86-.23-.27-.46-.55-.69-.82-1.1-1.29-2.24-2.63-3.01-4.24-1.17-2.44-1.15-5.02.05-6.89.76-1.18,1.88-1.94,2.87-2.62l6.21-4.22c1.18-.8,2.41-1.64,3.35-2.66,1.21-1.31,2.02-2.95,2.87-4.69.71-1.44,1.44-2.93,2.44-4.27,1.58-2.12,3.69-3.68,5.72-5.18,1.35-1,2.62-1.94,3.76-3.03,2.34-2.25,3.75-5.26,5.24-8.45,1.2-2.56,2.44-5.21,4.21-7.47,1.7-2.17,4.27-4.79,6.82-4.91,1.1-.05,2.1.36,2.89,1.2,2.14,2.26.32,5.5-1.45,8.64-.88,1.56-1.79,3.18-2.13,4.53-.19.77-.07,1.61.18,1.92.05.06.06.06.11.06.18,0,.49-.28.93-.83l3.84-4.88c1.36-1.73,2.9-3.68,4.94-5.04,2.42-1.6,5.2-2.02,7.46-1.13.79.31,1.36.73,1.74,1.29,1.3,1.91.25,4.87-1.51,6.34-4.61,3.84-8.05,7.57-8.89,9.16,1.13-.43,3.33-2.03,5.01-3.26,3.67-2.67,7.83-5.69,11.57-6.22,2.37-.34,5.48.19,6.47,2.77.8,2.08-.38,4.24-1.75,5.57-1.9,1.85-4.37,2.91-6.76,3.93-2.46,1.05-4.8,2.05-6.26,3.81.79-.02,1.77-.39,2.7-.79,3.32-1.44,6.81-2.5,10.37-3.15,2.92-.53,6.37-.09,7.29,2.73.76,2.33-.79,4.78-4.17,6.53-2.81,1.46-9.64,5.17-12.87,7.02,2.78-.4,5.55-.56,7.64.31,1.35.56,3,1.42,3.79,3.07,1.32,2.76-.59,5.89-3.14,7.55-3.31,2.15-7.2,2.65-10.97,3.13-2.22.28-4.51.58-6.6,1.21-2.25.68-4.34,1.77-6.54,2.92-.95.5-1.94,1.01-2.93,1.48-2.7,1.29-6.77,2.91-10.96,2.18-.01,0-.03,0-.04,0-3.14.92-5.85,3-8.7,5.19-2.09,1.61-4.24,3.27-6.63,4.48-2.23,1.13-4.14,1.33-5.67.59-.33-.16-.63-.36-.9-.58ZM152.31,105.15c-.27-.22-.55-.32-.89-.3-1.24.06-3.18,1.59-5.07,4.01-1.61,2.05-2.74,4.46-3.93,7.02-1.52,3.24-3.09,6.6-5.74,9.15-1.25,1.2-2.64,2.23-3.99,3.23-1.98,1.47-3.86,2.85-5.23,4.7-.87,1.17-1.52,2.49-2.21,3.9-.89,1.81-1.81,3.69-3.26,5.25-1.13,1.22-2.46,2.12-3.76,3l-6.21,4.22c-.84.57-1.71,1.16-2.21,1.94-.89,1.39-.54,3.28.09,4.59.64,1.34,1.63,2.5,2.68,3.73.24.28.48.56.71.84,2.37,2.85,4.37,6,5.95,9.36l.06.13c.54,1.14,1.09,2.33,2,2.77.83.4,2.04.21,3.57-.57,2.19-1.11,4.26-2.71,6.26-4.25,3.34-2.57,6.79-5.23,11.11-5.97.46-.08.9.12,1.16.47,2.26.01,4.81-.68,7.85-2.14.96-.46,1.92-.96,2.86-1.45,2.2-1.15,4.48-2.33,6.95-3.08,2.28-.69,4.67-1,6.99-1.29,3.66-.47,7.12-.91,9.98-2.76,1.68-1.09,2.99-3.09,2.29-4.55-.44-.93-1.6-1.51-2.56-1.91-2.24-.93-6.06-.25-9.43.35-1.6.28-3.1.55-4.39.64-.39.03-.77-.14-1.01-.44-.24-.31-.32-.71-.2-1.08.42-1.36,1.68-1.76,3.02-2.19.97-.31,2.17-.69,3.55-1.5,2.97-1.73,10.52-5.83,13.51-7.39,1.67-.87,3.45-2.36,3.01-3.7-.48-1.48-3.14-1.42-4.63-1.15-3.38.62-6.7,1.63-9.85,2.99-1.36.59-4.17,1.81-6.16.15-.01-.01-.03-.02-.04-.04-.42-.36-.53-.95-.28-1.44,1.68-3.26,4.98-4.67,8.18-6.04,2.29-.98,4.46-1.91,6.05-3.45.79-.77,1.57-2.02,1.19-3.03-.46-1.19-2.36-1.5-3.93-1.27-3.16.45-7.24,3.41-10.52,5.8-3.99,2.9-6.87,4.99-8.51,3.12-.23-.26-.49-.72-.44-1.41.24-3.1,8.32-9.99,9.93-11.34.97-.81,1.54-2.51,1.08-3.2-.07-.11-.24-.26-.66-.43-1.54-.61-3.52-.27-5.29.91-1.73,1.14-3.08,2.86-4.39,4.53l-3.84,4.88c-.44.56-1.36,1.72-2.77,1.73-.79,0-1.49-.34-1.98-.97-.84-1.07-.91-2.76-.61-3.95.42-1.66,1.41-3.41,2.36-5.11,1.35-2.39,2.74-4.86,1.8-5.86-.06-.06-.12-.12-.18-.17Z"/>
    <path class="cls-2" d="M141.68,163.97c-.2-.17-.35-.4-.4-.68-.28-1.44-2.31-4.74-3.42-5.82-2.58-2.5-4.34-4.94-5.38-7.46-.17-.42-.33-.85-.48-1.26-.26-.72-.51-1.4-.84-2.02-1.37-2.56-6.41-5.31-8.56-6.49-.57-.31-.78-1.03-.47-1.6.31-.57,1.03-.78,1.6-.47,2.53,1.39,7.8,4.27,9.51,7.45.41.77.7,1.56.98,2.33.15.41.29.79.44,1.17.91,2.22,2.49,4.4,4.84,6.66,1.42,1.38,3.71,5.12,4.09,7.05.13.64-.29,1.26-.93,1.39-.36.07-.72-.03-.98-.25Z"/>
    <path class="cls-2" d="M108.56,156.82c-.07-.06-.13-.12-.18-.19-.4-.52-.3-1.26.22-1.66,2.43-1.87,15.01-11.29,18.61-13.34.57-.32,1.29-.12,1.61.44.32.57.12,1.29-.44,1.61-3.25,1.85-15.16,10.72-18.33,13.15-.44.34-1.06.32-1.47-.03Z"/>
    <path class="cls-2" d="M111.57,160.64c-.06-.05-.12-.11-.17-.18-.41-.51-.32-1.25.19-1.66,2.45-1.94,14.89-11.76,19.67-13.93.59-.27,1.29,0,1.56.59.27.59,0,1.29-.59,1.56-3.51,1.6-12.53,8.34-19.18,13.63-.44.35-1.07.33-1.49-.01Z"/>
    <path class="cls-2" d="M114.85,164.68s-.09-.08-.13-.12c-.43-.49-.39-1.23.09-1.67,4.54-4.05,13.65-11.18,19.02-12.18.64-.12,1.26.3,1.38.94.12.64-.3,1.26-.94,1.38-4.86.91-13.82,8-17.87,11.62-.44.39-1.1.4-1.54.03Z"/>
    <path class="cls-2" d="M117.26,167.87c-.15-.12-.27-.28-.34-.47-.24-.6.05-1.29.65-1.54,2.02-.81,4.97-3.06,7.83-5.23,2.29-1.74,4.45-3.39,6.13-4.28,1.73-.93,3.57-1.5,5.36-2.05.62-.19,1.28.16,1.48.78.19.62-.16,1.28-.78,1.48-1.68.52-3.41,1.05-4.94,1.87-1.51.81-3.6,2.4-5.81,4.08-2.98,2.27-6.06,4.61-8.37,5.54-.42.17-.87.08-1.19-.19Z"/>
    <path class="cls-2" d="M118.59,172.11c-.13-.11-.24-.24-.31-.4-.28-.59-.03-1.29.56-1.57,3.41-1.61,7.33-4.22,11.13-6.75,3.09-2.06,6-4,8.4-5.23.58-.3,1.29-.07,1.59.51.3.58.07,1.29-.51,1.59-2.28,1.17-5.14,3.08-8.17,5.1-3.87,2.58-7.87,5.24-11.43,6.92-.43.2-.92.12-1.26-.16Z"/>
    <path class="cls-2" d="M128.43,138.41c-.36-.3-.48-.81-.25-1.24,1.73-3.34,4.95-5.83,8.62-6.67.55-.12,1.09.22,1.21.76.12.54-.22,1.09-.76,1.21-3.09.7-5.81,2.81-7.27,5.62-.26.5-.87.69-1.36.43-.07-.03-.13-.07-.18-.12Z"/>
    <path class="cls-2" d="M145.18,156.52c-.24-.2-.39-.51-.36-.85.04-.56.52-.98,1.08-.94,1.67.12,3.55.25,5.1-.4.84-.35,1.6-.94,2.41-1.56.95-.73,1.93-1.48,3.14-1.92.52-.19,1.11.08,1.3.6.19.52-.08,1.11-.6,1.3-.92.34-1.73.96-2.6,1.63-.87.67-1.77,1.36-2.86,1.82-1.99.84-4.23.68-6.03.55-.22-.02-.42-.1-.57-.23Z"/>
  </g>
  <g>
    <path class="cls-1" d="M113.84,140.97c-1.25-3.32-.76-7.03.14-10.46.9-3.43,2.21-6.78,2.58-10.3.64-5.93-1.35-12.23.9-17.75.91-2.24,3.1-4.41,5.44-3.8,1.33.35,2.28,1.51,3.04,2.66,2.2,3.34,1.32,10.31,1.79,14.28,1.3-.69.56-2.9,1.84-6.49,1.13-3.19,3.75-11.36,4.72-14.6.66-2.18,2.1-4.77,4.36-4.48,2.27.29,3,3.2,3.02,5.49.02,3.53-.36,7.06-1.13,10.51-.39,1.71-.74,3.84.63,4.94,4.47-3.5,3.28-10.73,6.41-15.47.89-1.34,2.37-2.53,3.95-2.24,1.98.36,2.86,2.72,2.95,4.73.31,6.79-8.28,17.92-5.79,19.4,1.64.97,6.7-6.9,9.12-11.26.8-1.44,2.94-2.82,4.45-2.16.46.2.8.6,1.07,1.02,1.19,1.89,1.05,4.39.19,6.45-.86,2.06-2.36,3.79-3.83,5.48-1.36,1.56-2.72,3.12-4.08,4.69-.51.59-1.05,1.29-.91,2.05.26,1.42,2.35,1.38,3.66.77,3.85-1.79,8.16-7.96,11.13-6.05,2.97,1.91-.19,6.3-2.08,8.46-4.08,4.67-10.59,7.2-13.98,12.39-2.26,3.46-3.39,7.65-6.19,10.69-2.38,2.59-5.8,4.15-7.89,6.98-.9,1.22-1.51,2.63-2.12,4.02-1,2.3-1.99,4.59-2.99,6.89-.46,1.05-.93,2.13-1.76,2.92-1.45,1.38-3.71,1.56-5.64,1.05-1.93-.51-3.64-1.62-5.39-2.58-3.16-1.75-6.54-3.09-10.03-3.99-1.43-.37-3-.74-3.88-1.92-.96-1.29-.74-3.1-.29-4.65,1.86-6.39,6.87-11.97,6.75-18.62"/>
    <path class="cls-1" d="M141.22,154.27s-6.75,12.16-6.98,13.52c-.22,1.36-3.81,5.98-8.3,3.69-4.49-2.3-12.78-6.07-14.52-6.28-1.74-.21-2.94,1.11-3.88-1.92-.94-3.03,3.57-13.28,4.23-14.72.66-1.43,1.65-9.03,1.65-9.03,0,0,8.48,2.78,10.43,4.38,1.96,1.6,6.2,2.16,8.95,3.4,2.75,1.24,8.42,6.97,8.42,6.97Z"/>
    <path class="cls-2" d="M106.59,163.97c-1.01-1.37-1.18-3.28-.48-5.68.75-2.57,1.98-5,3.16-7.35,1.62-3.21,3.17-6.26,3.48-9.51,0-.01-.01-.03-.02-.04-1.5-3.98-.66-8.29.1-11.18.28-1.06.6-2.13.91-3.16.72-2.38,1.39-4.63,1.64-6.97.23-2.17.09-4.48-.04-6.71-.23-3.78-.47-7.7,1.02-11.36,1.15-2.82,3.87-5.27,6.83-4.5,1.77.46,2.92,1.93,3.73,3.15,1.24,1.89,1.61,4.64,1.74,7.45,1.22-3.52,3.59-10.93,4.5-13.96,1.1-3.64,3.2-5.63,5.64-5.31,2.95.38,4.03,3.69,4.05,6.66.02,3.62-.37,7.24-1.16,10.77-.22.99-.4,2.02-.27,2.8,1.46-1.76,2-4.25,2.58-6.86.56-2.54,1.14-5.16,2.6-7.38,1.05-1.59,2.96-3.15,5.14-2.75,2.72.49,3.81,3.45,3.92,5.84.17,3.77-2.02,8.43-3.96,12.53-.89,1.88-2.05,4.34-2.26,5.53,1.4-1.12,4.42-5.2,7.34-10.45,1.11-2.01,3.83-3.6,5.95-2.67.62.27,1.14.75,1.59,1.47,1.29,2.05,1.4,4.87.28,7.54-.95,2.26-2.58,4.14-4.02,5.8l-4.08,4.69c-.46.53-.68.89-.64,1.06,0,.05.01.06.08.1.35.18,1.2.15,1.92-.19,1.26-.59,2.68-1.78,4.05-2.94,2.75-2.32,5.6-4.72,8.22-3.04.97.62,1.57,1.53,1.72,2.62.36,2.53-1.73,5.54-3.55,7.62-1.89,2.17-4.26,3.88-6.55,5.53-2.86,2.06-5.55,4.01-7.33,6.73-.86,1.32-1.55,2.75-2.28,4.26-1.1,2.28-2.23,4.64-4.03,6.59-1.13,1.23-2.46,2.23-3.74,3.19-1.55,1.16-3.01,2.26-4.07,3.69-.83,1.12-1.41,2.48-1.98,3.79l-2.99,6.89c-.48,1.1-1.01,2.34-2.03,3.31-1.61,1.53-4.14,2.03-6.76,1.34-1.73-.46-3.25-1.33-4.73-2.17-.31-.18-.62-.35-.93-.53-3.07-1.7-6.35-3-9.75-3.88l-.14-.03c-1.18-.3-2.59-.66-3.67-1.56-.27-.22-.52-.48-.74-.77ZM168.84,119.34c-1.15-.74-3.32,1.09-5.42,2.86-1.49,1.26-3.03,2.55-4.58,3.27-1.12.52-2.79.77-4,.14-.71-.37-1.18-.99-1.32-1.77-.26-1.39.72-2.51,1.18-3.04l4.08-4.69c1.39-1.6,2.83-3.25,3.63-5.16.82-1.96.79-3.97-.1-5.37-.24-.38-.43-.52-.54-.57-.76-.33-2.33.55-2.94,1.65-1.02,1.84-6.28,11.06-9.28,11.87-.67.18-1.17,0-1.47-.17-2.14-1.27-.62-4.49,1.48-8.94,1.73-3.67,3.88-8.23,3.73-11.41-.07-1.59-.72-3.4-1.98-3.62-1.06-.19-2.15.81-2.76,1.73-1.22,1.85-1.73,4.15-2.26,6.58-.75,3.39-1.52,6.9-4.4,9.16-.43.34-1.04.33-1.47,0-.01-.01-.03-.02-.04-.04-2-1.65-1.32-4.64-1-6.08.76-3.35,1.13-6.8,1.1-10.24-.01-1.51-.44-4.13-1.99-4.33-1.41-.18-2.54,1.85-3.08,3.65-.97,3.23-3.59,11.42-4.74,14.66-.53,1.5-.69,2.76-.81,3.77-.17,1.39-.33,2.71-1.59,3.37-.34.18-.76.18-1.1,0-.35-.18-.58-.52-.62-.91-.15-1.28-.17-2.81-.19-4.43-.04-3.43-.08-7.31-1.42-9.33-.57-.87-1.36-1.9-2.35-2.16-1.57-.41-3.29,1.25-4.05,3.1-1.29,3.16-1.08,6.64-.85,10.32.14,2.33.29,4.74.03,7.11-.27,2.56-1.01,5.02-1.73,7.4-.3,1.01-.62,2.05-.89,3.08-.86,3.26-1.07,5.89-.63,8.11.4.19.67.58.68,1.05.08,4.38-1.89,8.27-3.79,12.03-1.14,2.25-2.32,4.58-3,6.94-.48,1.66-.45,2.88.11,3.62.6.81,1.87,1.13,3.09,1.45l.14.04c3.59.92,7.06,2.3,10.31,4.1.32.18.64.36.96.54,1.4.8,2.73,1.56,4.17,1.94,1.4.37,3.33.37,4.53-.77.67-.63,1.09-1.6,1.49-2.53l2.99-6.89c.62-1.43,1.26-2.92,2.25-4.25,1.27-1.72,2.94-2.97,4.55-4.18,1.25-.94,2.43-1.83,3.42-2.9,1.56-1.69,2.57-3.79,3.64-6.02.73-1.51,1.48-3.07,2.43-4.52,2.01-3.08,5.02-5.25,7.92-7.35,2.28-1.65,4.44-3.21,6.16-5.17,2.02-2.31,3.16-4.51,2.99-5.73-.05-.34-.19-.6-.46-.82-.06-.05-.12-.1-.2-.14Z"/>
    <path class="cls-2" d="M113.24,140.9c.2.17.46.27.74.27,1.46.01,5.09,1.38,6.35,2.27,2.94,2.07,5.66,3.34,8.33,3.89.45.09.9.16,1.33.23.76.12,1.47.24,2.14.45,2.77.87,6.42,5.3,7.97,7.2.42.5,1.16.58,1.66.16.5-.41.58-1.16.16-1.66-1.83-2.23-5.65-6.87-9.09-7.95-.83-.26-1.67-.39-2.47-.52-.43-.07-.83-.13-1.23-.22-2.35-.48-4.78-1.63-7.45-3.51-1.62-1.14-5.72-2.69-7.69-2.7-.65,0-1.18.52-1.19,1.17,0,.37.16.7.43.92Z"/>
    <path class="cls-2" d="M126.45,172.11c.07.06.14.1.22.14.58.29,1.29.06,1.59-.52,1.38-2.73,8.29-16.86,9.63-20.77.21-.62-.12-1.29-.74-1.5-.62-.21-1.29.12-1.5.74-1.21,3.53-7.7,16.9-9.5,20.47-.25.5-.12,1.1.3,1.44Z"/>
    <path class="cls-2" d="M122.13,169.86c.06.05.13.1.2.14.58.3,1.29.08,1.59-.5,1.45-2.77,8.77-16.82,10.01-21.93.15-.63-.23-1.27-.87-1.43-.63-.15-1.27.23-1.43.87-.91,3.75-5.85,13.86-9.81,21.38-.26.5-.13,1.11.29,1.46Z"/>
    <path class="cls-2" d="M117.55,167.39s.09.07.15.1c.56.34,1.28.16,1.62-.4,3.14-5.21,8.44-15.5,8.42-20.95,0-.65-.53-1.18-1.18-1.18-.65,0-1.18.53-1.18,1.18.02,4.95-5.28,15.07-8.08,19.73-.3.51-.18,1.15.26,1.52Z"/>
    <path class="cls-2" d="M113.96,165.62c.15.12.32.21.52.25.64.13,1.26-.29,1.39-.93.42-2.14,2.08-5.46,3.68-8.66,1.28-2.57,2.5-5.01,3.07-6.82.59-1.87.8-3.79,1.01-5.65.07-.65-.39-1.23-1.04-1.3-.65-.07-1.23.39-1.31,1.04-.2,1.75-.4,3.55-.92,5.2-.51,1.63-1.68,3.98-2.93,6.47-1.67,3.35-3.4,6.81-3.88,9.26-.09.44.08.87.41,1.14Z"/>
    <path class="cls-2" d="M109.55,165.1c.13.11.28.19.46.23.63.16,1.28-.22,1.44-.85.95-3.65,2.78-7.99,4.56-12.19,1.44-3.42,2.81-6.64,3.57-9.23.18-.63-.17-1.28-.8-1.47-.63-.18-1.28.17-1.47.8-.73,2.45-2.06,5.62-3.48,8.97-1.81,4.28-3.68,8.71-4.67,12.52-.12.46.05.92.39,1.21Z"/>
    <path class="cls-2" d="M140.82,149.15c.36.3.89.31,1.27.02,2.96-2.32,4.8-5.96,4.94-9.71.02-.56-.42-1.03-.97-1.05-.56-.02-1.03.42-1.05.97-.12,3.17-1.67,6.24-4.17,8.2-.44.35-.52.98-.17,1.42.05.06.1.11.15.15Z"/>
    <path class="cls-2" d="M119.9,136.07c.24.2.58.29.9.2.54-.14.86-.7.72-1.24-.43-1.61-.91-3.44-.56-5.09.19-.89.62-1.75,1.08-2.66.54-1.07,1.1-2.17,1.3-3.44.09-.55-.28-1.07-.83-1.16-.55-.09-1.07.28-1.16.83-.16.96-.62,1.88-1.11,2.86-.5.98-1.01,2-1.25,3.15-.45,2.11.13,4.28.59,6.02.06.21.18.39.33.52Z"/>
  </g>
</svg>