<?xml version="1.0" encoding="UTF-8"?>
<svg xmlns="http://www.w3.org/2000/svg" viewBox="0 0 251 205">
  <defs>
    <style>
      .cls-1 {
        fill: #fff5f1;
      }

      .cls-2 {
        mix-blend-mode: multiply;
        opacity: .25;
      }

      .cls-3 {
        fill: #f4f4f4;
      }

      .cls-4 {
        isolation: isolate;
      }

      .cls-5 {
        fill: #933b0e;
      }

      .cls-6 {
        fill: #fff;
      }

      .cls-7 {
        fill: #ededed;
      }
    </style>
  </defs>
  <g class="cls-4">
    <g id="Layer_1" data-name="Layer 1">
      <g>
        <g>
          <path class="cls-3" d="M107.23,160.34c6,1.07,10.11,8.33,9.41,14.58-.17,1.54.56,3.03,1.89,3.84,3.45,2.11,6.1,7.24,4.51,9.59-1.87,2.76-9.75,3.66-18.12,4.01-12.46.52-32.62-.55-34.06-2.49-7.07-9.56,6.14-25.49,24.55-19.44,10.76,3.53,14.78-5.28,11.82-10.08Z"/>
          <path class="cls-6" d="M107.23,160.34c6,1.07,10.79,8.43,7.7,13.8-.78,1.35-1.5,3.7,2.2,4.46,3.96.81,7.78,6.63,4.82,9.59-3.75,3.75-38.22,4.74-44.88-1.92-8.41-8.41,1.69-21.24,18.34-15.85,15.73,5.09,16.43-5.47,11.82-10.08Z"/>
        </g>
        <g>
          <path class="cls-7" d="M181.96,38.75s-35.19,94.41-36.71,99.6c-1.22,4.18-8.54,5.05-17.43,3.89l-3.39,11.49c-.63,2.15-6.55,2.31-13.24.35-6.68-1.95-11.59-5.28-10.96-7.43l3.36-11.39c-8.24-3.79-14.05-8.51-12.78-12.84,1.52-5.19,22.92-103.63,22.92-103.63,0,0,4.96-12.21,37.79-2.6,34.21,10.01,30.43,22.56,30.43,22.56Z"/>
          <path class="cls-6" d="M177.3,42.48c-8.83,23.77-32.55,87.6-34.07,92.79-1.22,4.18-3.98,9.2-15.41,6.97-7.25-1.41-17.06-3.62-24.22-6.97-10.27-4.81-10.94-8.51-9.67-12.84,1.52-5.19,17.89-78.19,22.1-98.04,1.04-4.9,10.94-13.08,34.42-5.71,26.2,8.22,29.12,17.73,26.86,23.8Z"/>
          <path class="cls-6" d="M124.78,142.41s-1.99,7.41-2.67,9.7c-.98,3.3-20.83-.71-19.57-4.44l2.75-9.4c7.55,3.55,14.57,3.74,19.49,4.14Z"/>
        </g>
        <g>
          <path d="M139.72,115.93c-3.97,0-9-1.18-11.11-1.72-5.91-1.52-12.13-3.87-16.63-6.26-3.73-1.99-8.08-4.96-7.64-7.84.35-2.28,2.77-12.61,5.58-24.57,2.55-10.86,5.43-23.17,7.12-30.98.46-2.14,2.04-3.59,4.69-4.31,4.75-1.29,13.19-.08,22.56,3.23,8.78,3.1,16.59,7.44,19.9,11.06,1.65,1.8,2.22,3.41,1.72,4.78l-.36-.13.36.13c-4.33,11.75-9.94,26.25-14.45,37.9-2.92,7.55-5.23,13.51-6.39,16.66-.56,1.53-2.72,2.04-5.34,2.04ZM126.21,40.51c-1.65,0-3.09.16-4.29.48-2.35.64-3.74,1.89-4.14,3.72-1.68,7.82-4.57,20.13-7.12,31-2.8,11.95-5.22,22.26-5.56,24.51-.29,1.9,2.28,4.4,7.24,7.03,4.45,2.37,10.6,4.69,16.46,6.2,8.65,2.23,14.74,2.29,15.53.16,1.16-3.16,3.47-9.12,6.39-16.67,4.51-11.65,10.13-26.15,14.45-37.89.4-1.08-.13-2.42-1.56-3.99-3.23-3.53-10.92-7.79-19.59-10.86-6.83-2.41-13.13-3.7-17.81-3.7Z"/>
          <g>
            <path d="M124.71,77.14c1.35-4.67,6.23-7.35,10.9-6,4.67,1.35,7.35,6.23,6,10.9-1.35,4.67-6.23,7.35-10.9,6-4.67-1.35-7.35-6.23-6-10.9Z"/>
            <g>
              <path d="M136.49,69.79c-.15,0-.31-.02-.46-.07-.82-.25-1.28-1.12-1.03-1.94l2.12-6.89c.25-.82,1.12-1.28,1.94-1.03.82.25,1.28,1.12,1.03,1.94l-2.12,6.89c-.21.67-.82,1.1-1.48,1.1Z"/>
              <path d="M127.88,99.95c-.13,0-.27-.02-.41-.05-.83-.22-1.32-1.08-1.09-1.91l1.89-6.96c.22-.83,1.08-1.32,1.91-1.09.83.22,1.32,1.08,1.09,1.91l-1.89,6.96c-.19.69-.81,1.15-1.5,1.15Z"/>
            </g>
            <g>
              <path d="M143.74,75.53c-.56,0-1.1-.3-1.38-.83-.4-.76-.11-1.7.65-2.1l6.37-3.37c.76-.4,1.7-.11,2.1.65.4.76.11,1.7-.65,2.1l-6.37,3.37c-.23.12-.48.18-.73.18Z"/>
              <path d="M116.33,90.76c-.54,0-1.06-.28-1.35-.78-.43-.74-.17-1.69.58-2.12l6.25-3.58c.74-.43,1.69-.17,2.12.58.43.74.17,1.69-.58,2.12l-6.25,3.58c-.24.14-.51.21-.77.21Z"/>
            </g>
            <g>
              <path d="M127.5,70.82c-.54,0-1.06-.28-1.35-.78l-3.58-6.25c-.43-.74-.17-1.69.58-2.12.74-.43,1.69-.17,2.12.58l3.58,6.25c.43.74.17,1.69-.58,2.12-.24.14-.51.21-.77.21Z"/>
              <path d="M142.52,98.35c-.56,0-1.1-.3-1.38-.83l-3.37-6.37c-.4-.76-.11-1.7.65-2.1.76-.4,1.7-.11,2.1.65l3.37,6.37c.4.76.11,1.7-.65,2.1-.23.12-.48.18-.73.18Z"/>
            </g>
            <g>
              <path d="M151.69,86.83c-.15,0-.31-.02-.46-.07l-6.89-2.12c-.82-.25-1.28-1.12-1.03-1.94.25-.82,1.12-1.28,1.94-1.03l6.89,2.12c.82.25,1.28,1.12,1.03,1.94-.21.67-.82,1.1-1.48,1.1Z"/>
              <path d="M121.61,77.99c-.13,0-.27-.02-.41-.05l-6.96-1.89c-.83-.22-1.32-1.08-1.09-1.91.22-.83,1.08-1.32,1.91-1.09l6.96,1.89c.83.22,1.32,1.08,1.09,1.91-.19.69-.81,1.15-1.5,1.15Z"/>
            </g>
          </g>
        </g>
        <g class="cls-2">
          <path d="M127.47,142.39c-8.37.32-18.93-1.82-24.26-5.28.24-.64.33-1.1.57-1.74,7.01,3.02,16.61,5.88,23.68,7.02Z"/>
          <path d="M110.57,144.87c5.23,1.4,10.74,1.71,16.08.83.26-.74.52-1.47.78-2.2-.8.94-2.04,1.36-3.24,1.65-4.64,1.12-9.6.89-13.61-.28Z"/>
          <path d="M103.99,142.55c-.71-.13-1.4-.41-1.98-.84.15-.47.24-.95.27-1.44.49.78,1.04,1.52,1.71,2.28Z"/>
          <path d="M125.55,150.26c-.95.46-2.07.37-3.12.27,1.3-.41,2.53-1.02,3.63-1.81-.25.73-.49,1.46-.51,1.55Z"/>
          <path class="cls-5" d="M86.7,192.01c-3.92-.73-7.99-.7-11.82-1.81-1.27-.37-2.53-.87-3.56-1.69-1.04-.82-1.84-2-2-3.31.07,1.45.19,3,1.11,4.12,1.05,1.27,2.82,1.61,4.45,1.86,4.21.64,8.49,1.19,11.82.83Z"/>
        </g>
        <g>
          <g>
            <path d="M118.06,151.14c-6.21,0-14.28-1.7-16.81-4.35-.7-.74-.94-1.51-.71-2.29.05-.16.22-.26.39-.21.16.05.26.22.21.39-.16.56.02,1.11.57,1.68,1.38,1.45,4.91,2.78,9.44,3.56,4.42.76,8.88.81,11.64.14,1.17-.29,2.64-.85,2.95-1.92.05-.16.22-.26.39-.21.16.05.26.22.21.39-.32,1.09-1.46,1.88-3.4,2.35-1.33.32-3.02.47-4.87.47Z"/>
            <path d="M119.55,146.07c-6.21,0-14.28-1.7-16.81-4.35-.7-.74-.94-1.51-.71-2.29.05-.16.22-.26.39-.21.16.05.26.22.21.39-.16.56.02,1.11.57,1.68,1.38,1.45,4.91,2.78,9.44,3.56,4.42.76,8.88.81,11.64.14,1.17-.29,2.64-.85,2.95-1.92.05-.17.22-.26.39-.21.16.05.26.22.21.39-.32,1.09-1.46,1.88-3.4,2.35-1.33.32-3.02.48-4.87.48Z"/>
          </g>
          <path d="M119.61,155.78c-2.45,0-5.45-.48-8.51-1.38-3.26-.95-6.21-2.26-8.31-3.68-2.19-1.49-3.21-2.95-2.86-4.13l3.32-11.37c.05-.16.22-.26.39-.21.16.05.26.22.21.39l-3.32,11.37c-.51,1.74,3.69,4.98,10.75,7.04,7.06,2.06,12.34,1.59,12.85-.14l3.32-11.37c.05-.16.22-.26.39-.21.16.05.26.22.21.39l-3.33,11.37c-.35,1.18-1.99,1.87-4.64,1.94-.15,0-.31,0-.47,0Z"/>
          <path d="M134.39,143.03c-5.27,0-11.99-1.08-19.09-3.13-10.17-2.93-18.57-7.13-22.47-11.21-2.11-2.21-2.89-4.35-2.31-6.34,1.5-5.12,22.7-102.63,22.91-103.61,0-.02,0-.03.02-.05.05-.13,1.36-3.2,6.77-5.08,3.14-1.09,7.03-1.55,11.57-1.36,5.65.23,12.32,1.46,19.83,3.66,19.85,5.81,26.98,12.5,29.48,17.09,1.86,3.43,1.2,5.76,1.17,5.85,0,0,0,.01,0,.02-.35.94-35.21,94.46-36.71,99.58-.57,1.93-2.34,3.28-5.28,4-1.64.4-3.63.6-5.87.6ZM114.03,18.9c-.48,2.2-21.42,98.51-22.92,103.63-.52,1.77.21,3.7,2.16,5.74,8.15,8.53,35.29,16.39,46.84,13.58,2.71-.66,4.34-1.86,4.83-3.57,1.5-5.13,36.14-98.06,36.71-99.61.05-.17.77-3.19-2.39-7.31-3.03-3.95-10.32-9.73-27.83-14.85-16.81-4.92-26.1-3.98-30.94-2.33-4.96,1.69-6.35,4.46-6.47,4.73ZM181.96,38.75h0,0ZM181.96,38.75h0,0Z"/>
          <path d="M98,192.8c-4.68,0-9.73-.16-14.27-.45-5.48-.36-12.21-1.05-13.13-2.3-2.86-3.87-2.63-9.07.62-13.56,2.25-3.11,5.68-5.5,9.67-6.74,4.52-1.4,9.58-1.27,14.61.38,4.69,1.54,8.64.82,10.85-1.98,1.76-2.23,2.01-5.37.61-7.64-.06-.1-.06-.24,0-.34.07-.1.19-.15.31-.13,2.92.52,5.56,2.47,7.43,5.49,1.77,2.86,2.59,6.3,2.23,9.43-.16,1.43.51,2.78,1.74,3.54,2.34,1.43,4.43,4.32,4.99,6.87.28,1.28.14,2.37-.39,3.15-1.63,2.41-7.29,3.69-18.37,4.15-2.12.09-4.47.13-6.92.13ZM87.43,169.41c-7.08,0-12.72,3.3-15.71,7.44-3.08,4.26-3.32,9.18-.62,12.83.46.62,4.02,1.48,12.67,2.05,6.91.45,15.01.58,21.13.32,6.74-.28,15.92-.99,17.88-3.87.43-.64.53-1.56.29-2.67-.52-2.41-2.5-5.13-4.7-6.47-1.45-.88-2.23-2.47-2.04-4.14.64-5.62-2.84-12.63-8.5-14.1,1.15,2.42.78,5.51-.99,7.74-2.38,3.01-6.58,3.81-11.53,2.18-2.76-.91-5.41-1.31-7.87-1.31Z"/>
        </g>
        <g>
          <g>
            <path d="M100.68,105.84c1.49-4.71,6.51-7.33,11.22-5.84,4.71,1.49,7.33,6.51,5.84,11.22-1.49,4.71-6.51,7.33-11.22,5.84-4.71-1.49-7.33-6.51-5.84-11.22Z"/>
            <path class="cls-6" d="M109.22,118.03c-.96,0-1.92-.15-2.87-.44-2.42-.76-4.39-2.42-5.56-4.67-1.17-2.25-1.39-4.82-.63-7.24,1.57-4.99,6.92-7.77,11.91-6.19,2.42.76,4.39,2.42,5.56,4.67,1.17,2.25,1.39,4.82.63,7.24-.76,2.42-2.42,4.39-4.67,5.56-1.37.71-2.86,1.08-4.37,1.08ZM109.21,100.13c-3.57,0-6.89,2.29-8.02,5.87-.68,2.14-.48,4.42.56,6.41,1.04,1.99,2.78,3.46,4.92,4.13,2.14.68,4.42.48,6.41-.56,1.99-1.04,3.46-2.78,4.13-4.92.68-2.14.48-4.42-.56-6.41-1.04-1.99-2.78-3.46-4.92-4.13-.84-.26-1.69-.39-2.52-.39Z"/>
          </g>
          <g>
            <path class="cls-1" d="M104.23,112.15c-.05,0-.1,0-.16-.02-.29-.09-.45-.39-.37-.68l2.53-8.49c.09-.29.39-.45.68-.37.29.09.45.39.37.68l-2.53,8.49c-.07.24-.29.39-.52.39Z"/>
            <path class="cls-1" d="M110.06,114.08c-.41,0-.82-.09-1.22-.26-1.92-.85-2.05-3.82-1.2-6.18.97-2.68,2.88-4.05,4.87-3.48h0s0,0,0,0c1.09.31,1.84,1.18,2.09,2.43.45,2.21-.67,5.27-2.43,6.69-.67.54-1.39.81-2.11.81ZM111.62,105.11c-1.4,0-2.46,1.48-2.96,2.89-.68,1.89-.64,4.27.62,4.82.74.33,1.48.19,2.21-.4,1.46-1.17,2.41-3.8,2.05-5.62-.17-.86-.62-1.4-1.32-1.6h0c-.2-.06-.4-.08-.59-.08Z"/>
          </g>
        </g>
      </g>
    </g>
  </g>
</svg>