<svg width="281" height="231" viewBox="0 0 281 231" fill="none" xmlns="http://www.w3.org/2000/svg">
<path fill-rule="evenodd" clip-rule="evenodd" d="M95.5468 175.984C92.1093 175.984 88.9582 175.438 86.0937 174.344C83.2291 173.25 80.7812 171.661 78.7499 169.578C78.2094 169.023 77.7078 168.44 77.2451 167.827L76.8749 169.5C75.9895 173.51 73.9843 175.932 70.8593 176.766C67.7864 177.651 64.2447 177.521 60.2343 176.375L36.8749 169.734C32.6562 168.589 29.8176 166.401 28.3593 163.172C26.9009 159.995 26.7447 156.297 27.8905 152.078L59.2187 40.4375C60.1041 37.2604 61.6145 34.5 63.7499 32.1562C65.9374 29.8125 68.9843 27.9115 72.8905 26.4531L92.7205 18.9228L105.703 7C107.161 5.64583 108.568 4.57812 109.922 3.79688C111.328 2.96354 113.62 2.54688 116.797 2.54688H163.281C166.458 2.54688 168.724 2.96354 170.078 3.79688C171.484 4.57812 172.917 5.64583 174.375 7L187.424 18.9836L207.031 26.4531C210.937 27.9115 213.984 29.8125 216.172 32.1562C218.359 34.5 219.896 37.2604 220.781 40.4375L244.035 123.512C260.754 133.2 272 151.287 272 172C272 202.928 246.928 228 216 228C186.412 228 162.183 205.053 160.14 175.984H95.5468ZM160.608 163.719C162.322 152.154 167.572 141.743 175.222 133.618L160.234 122.703C158.932 121.766 158.177 120.568 157.969 119.109C157.76 117.599 158.099 116.219 158.984 114.969C159.87 113.771 161.068 113.068 162.578 112.859C164.088 112.599 165.443 112.911 166.641 113.797L181.875 124.812C182.527 125.282 183.042 125.824 183.42 126.437C183.159 126.628 182.899 126.82 182.642 127.015C191.959 120.095 203.501 116 216 116C220.746 116 225.354 116.59 229.755 117.702L210.078 45.8281C209.453 43.4844 208.542 41.5312 207.344 39.9688C206.198 38.4062 204.531 37.2344 202.344 36.4531L188.319 31.5256L169.141 57.4688C166.953 60.3333 164.297 61.9479 161.172 62.3125C158.047 62.625 155.234 61.4271 152.734 58.7188L145.703 51.1076V163.719H160.608ZM66.4062 162.156L75.7993 121.678L80.9374 92.3906C81.302 90.5677 82.2655 89.6562 83.828 89.6562C84.6093 89.6562 85.2603 89.9688 85.7812 90.5938C86.302 91.2188 86.5364 92.026 86.4843 93.0156L84.3749 152.547C84.2707 155.828 85.2343 158.51 87.2655 160.594C89.3489 162.677 92.0832 163.719 95.4687 163.719H134.375V51.1076L127.344 58.7188C124.844 61.4271 122.031 62.625 118.906 62.3125C115.781 61.9479 113.125 60.3333 110.937 57.4688L91.7296 31.486L77.6562 36.4531C75.4166 37.2344 73.6978 38.4062 72.4999 39.9688C71.3541 41.5312 70.4687 43.4844 69.8437 45.8281L40.1562 154.266C39.8437 155.464 39.8437 156.427 40.1562 157.156C40.4687 157.885 41.1718 158.406 42.2655 158.719L62.9687 164.188C63.802 164.396 64.5051 164.344 65.078 164.031C65.703 163.771 66.1457 163.146 66.4062 162.156ZM198.984 92.3906L203.424 117.342C203.375 117.354 203.326 117.365 203.277 117.376C203.23 117.387 203.182 117.398 203.135 117.409C202.833 117.479 202.532 117.551 202.231 117.627C199.536 118.301 196.921 119.175 194.402 120.234L193.437 93.0156C193.437 92.026 193.672 91.2188 194.141 90.5938C194.661 89.9688 195.338 89.6562 196.172 89.6562C197.734 89.6562 198.672 90.5677 198.984 92.3906ZM123.047 50.3594L134.687 37.4688C136.406 35.5938 136.354 33.7448 134.531 31.9219L117.187 13.7188C116.562 13.0417 115.807 12.7031 114.922 12.7031C114.088 12.7031 113.359 12.9896 112.734 13.5625L101.25 23.9531C100.573 24.526 100.234 25.2292 100.234 26.0625C100.234 26.8438 100.469 27.5469 100.937 28.1719L117.266 50.0469C118.047 51.1406 118.984 51.7135 120.078 51.7656C121.224 51.7656 122.213 51.2969 123.047 50.3594ZM157.109 50.3594C157.943 51.2969 158.906 51.7656 160 51.7656C161.146 51.7135 162.135 51.1406 162.969 50.0469L179.219 28.1719C179.739 27.4948 179.974 26.7917 179.922 26.0625C179.922 25.2812 179.583 24.5781 178.906 23.9531L167.5 13.5625C166.823 12.9375 166.068 12.651 165.234 12.7031C164.401 12.7031 163.672 13.0417 163.047 13.7188L145.625 31.9219C143.854 33.7448 143.802 35.5938 145.469 37.4688L157.109 50.3594ZM104.531 133.797C103.281 134.734 101.901 135.073 100.391 134.812C98.9322 134.552 97.7603 133.797 96.8749 132.547C95.9895 131.297 95.6509 129.943 95.8593 128.484C96.1197 126.974 96.8749 125.75 98.1249 124.812L113.359 113.797C114.609 112.911 115.989 112.599 117.5 112.859C119.01 113.068 120.208 113.771 121.094 114.969C121.979 116.219 122.292 117.599 122.031 119.109C121.823 120.568 121.094 121.766 119.844 122.703L104.531 133.797ZM216 217C240.853 217 261 196.853 261 172C261 147.147 240.853 127 216 127C191.147 127 171 147.147 171 172C171 196.853 191.147 217 216 217ZM211.089 202.385V155.354H210.753L195.636 165.474V152.289L211.047 141.791H226.416V202.385H211.089Z" fill="black"/>
</svg>
