<?xml version="1.0" encoding="UTF-8"?>
<svg id="Layer_1" data-name="Layer 1" xmlns="http://www.w3.org/2000/svg" viewBox="0 0 251 205">
  <defs>
    <style>
      .cls-1 {
        fill: #fff;
      }

      .cls-2 {
        fill: #7b7b7b;
      }
    </style>
  </defs>
  <path class="cls-1" d="M171.67,166.36c-.1.78-.19,1.56-.3,2.34-.02.14.01.26.06.36-29.81,12.38-62.03,12.27-92.05.62.12-.12.19-.29.15-.51-.27-1.24-.52-2.48-.77-3.72,28.58,15.67,63.28,11.02,92.91.9Z"/>
  <path class="cls-1" d="M55.32,65.75c4.87,5.54,11.84,8.89,19.24,9.1-.05.81-.1,1.62-.14,2.43-7.89.29-14.37-2.81-19.93-8.24.31-1.05.58-2.16.84-3.29Z"/>
  <path class="cls-1" d="M196.38,74.88c-2.75,1.17-5.38,2.57-8.3,3.36-3.53.95-7,1.01-10.61,1.14-.03-1.06-.08-2.12-.13-3.18,6.56.64,12.9-1.21,18.34-4.88.23,1.19.45,2.38.7,3.56Z"/>
  <path class="cls-2" d="M104.63,26.37c13.26,3.78,28.74,4.13,41.93-.24-11.99,12.05-29.96,11.62-42.14.15l.03-.03c.04.05.1.1.19.12Z"/>
  <path class="cls-1" d="M104.42,27.34c11.83,12.26,31.44,11.59,43.16-.61.19-.19.2-.42.12-.61.91.33,1.83.62,2.77.88-11.66,15.96-35.84,15.26-48.02.84.53-.09,1.08-.17,1.61-.26.18-.03.3-.12.37-.24Z"/>
  <path class="cls-1" d="M60.32,57c-.9,1.28-1.19,2.87-1.01,4.41.03.24.4.25.38,0-.1-1.52.3-2.85,1.03-4.18.15-.26-.23-.48-.4-.23ZM57.47,62.87c.41-1.41.82-2.82,1.14-4.25.06-.25-.3-.35-.38-.1-.42,1.4-.76,2.83-1.1,4.26-.06.22.28.31.34.09ZM186.36,46.41c-.39-1.69-1.17-3.26-2.16-4.67-.13-.19-.45-.02-.32.19.88,1.46,1.48,2.99,1.97,4.62.1.33.59.19.51-.14ZM183.93,39.76c.78,1.21,1.49,2.58,2.47,3.64.17.19.45-.05.34-.27-.63-1.27-1.66-2.42-2.49-3.56-.14-.19-.45-.02-.32.19ZM174.25,119.36c-.06-.22-.4-.17-.4.05-.01,1.6-.11,3.06-.7,4.57-.1.25.31.42.43.19.71-1.47,1.08-3.21.66-4.81ZM172.47,120.94c.65-1.13.9-2.38.74-3.67-.03-.26-.45-.28-.43,0,.07,1.21-.15,2.37-.66,3.46-.12.24.22.45.35.21ZM164.4,165.16c1.26.31,2.75.22,3.81-.6.27-.21.05-.6-.27-.46-1.13.5-2.17.8-3.41.55-.33-.06-.48.43-.14.51ZM117.31,158.25c.18-.95.34-1.95.34-2.92,0-.28-.43-.35-.5-.06-.23.94-.3,1.95-.35,2.92-.01.28.46.35.51.06ZM118.71,152.85c-.13,1.05-.03,2.14,0,3.2,0,.27.42.27.42,0,.02-1.06.13-2.16,0-3.2-.03-.27-.38-.27-.41,0ZM81.8,163.71c1.43.62,2.86,1.26,4.31,1.82.25.1.43-.32.18-.43-1.42-.63-2.88-1.2-4.33-1.78-.22-.09-.38.29-.16.38ZM80.66,163.71c-.2-.19-.48.1-.3.3.82.93,2,1.75,3.25,1.94.3.05.42-.35.13-.46-1.17-.43-2.17-.89-3.08-1.78ZM171.8,165.39c-30.65,10.56-63.09,13.88-93.12-.37-6.88-35.81-3.07-72.77-1.94-108.93.01-.37-.52-.35-.56,0-.7,5.92-1.2,11.87-1.56,17.85-7.5-.58-13.85-3.46-19.14-8.87h0c2.28-10.43,3.33-23.51,13.04-28.65,9.88-5.23,22.21-6.71,33.26-8.47,10.69,16.95,38.33,14.81,49.52-.49.05-.08.08-.15.08-.22,10.82,2.71,23.32,1.52,32.19,9.03,5.21,4.41,7.04,11.08,8.57,17.46,1.33,5.5,2.28,11.05,3.34,16.6-5.47,3.81-11.57,5.39-18.19,5.24-.35-6.61-1.09-13.19-2.46-19.68-.09-.42-.69-.23-.63.17,2.57,18.75,2.15,37.39,1.39,56.25-.71,17.73-1.56,35.46-3.8,53.08ZM109.36,38.44c-1.57-.52-3.1-.99-4.55-1.81-.26-.15-.48.24-.23.4,1.45.88,3.03,1.63,4.72,1.82.24.03.27-.34.06-.41ZM108.08,37.47c.23.15.51-.2.3-.38-1.26-1.03-2.67-1.91-4-2.82-.23-.15-.42.2-.21.36,1.28.95,2.55,2.01,3.92,2.84Z"/>
  <path d="M184.25,39.57c.84,1.14,1.87,2.28,2.49,3.56.1.22-.17.45-.34.27-.98-1.06-1.69-2.43-2.47-3.64-.13-.2.18-.37.32-.19Z"/>
  <path d="M184.2,41.73c.99,1.41,1.77,2.99,2.16,4.67.08.33-.41.47-.51.14-.49-1.63-1.09-3.16-1.97-4.62-.13-.21.19-.38.32-.19Z"/>
  <path d="M173.16,123.98c.59-1.51.69-2.97.7-4.57,0-.23.34-.27.4-.05.42,1.6.05,3.34-.66,4.81-.12.24-.53.06-.43-.19Z"/>
  <path d="M172.12,120.73c.52-1.09.73-2.25.66-3.46-.02-.28.4-.26.43,0,.16,1.29-.09,2.54-.74,3.67-.13.24-.47.03-.35-.21Z"/>
  <path d="M164.54,164.65c1.24.26,2.28-.05,3.41-.55.31-.15.54.25.27.46-1.06.82-2.55.91-3.81.6-.34-.08-.19-.58.14-.51Z"/>
  <path d="M118.71,152.85c.03-.27.38-.27.41,0,.13,1.05.03,2.14,0,3.2,0,.27-.42.27-.42,0-.02-1.06-.13-2.16,0-3.2Z"/>
  <path d="M117.65,155.33c0,.96-.16,1.97-.34,2.92-.05.29-.52.22-.51-.06.05-.96.12-1.98.35-2.92.07-.28.5-.22.5.06Z"/>
  <path d="M109.3,38.85c-1.69-.2-3.28-.94-4.72-1.82-.25-.15-.02-.54.23-.4,1.45.83,2.98,1.3,4.55,1.81.21.07.19.44-.06.41Z"/>
  <path d="M108.38,37.09c.22.18-.07.52-.3.38-1.37-.84-2.63-1.89-3.92-2.84-.21-.16-.02-.51.21-.36,1.34.92,2.75,1.79,4,2.82Z"/>
  <path d="M81.97,163.33c1.45.58,2.91,1.14,4.33,1.78.25.11.07.53-.18.43-1.45-.56-2.88-1.2-4.31-1.82-.22-.09-.06-.47.16-.38Z"/>
  <path d="M80.36,164.01c-.18-.2.1-.49.3-.3.91.89,1.91,1.35,3.08,1.78.29.11.17.51-.13.46-1.25-.19-2.43-1.01-3.25-1.94Z"/>
  <path d="M59.31,61.41c-.18-1.54.11-3.13,1.01-4.41.17-.24.55-.03.4.23-.73,1.33-1.13,2.66-1.03,4.18.02.25-.35.24-.38,0Z"/>
  <path d="M58.61,58.62c-.32,1.43-.73,2.84-1.14,4.25-.06.22-.4.13-.34-.09.34-1.43.68-2.86,1.1-4.26.08-.25.44-.15.38.1Z"/>
  <path d="M54.49,69.04c5.56,5.43,12.05,8.53,19.93,8.24.04-.81.09-1.62.14-2.43-7.39-.2-14.37-3.56-19.24-9.1-.26,1.13-.53,2.24-.84,3.29ZM177.47,79.38c3.61-.13,7.08-.19,10.61-1.14,2.92-.79,5.54-2.19,8.3-3.36-.24-1.19-.46-2.37-.7-3.56-5.43,3.67-11.78,5.52-18.34,4.88.05,1.06.09,2.12.13,3.18ZM79.53,169.17c.04.22-.03.38-.15.51,30.02,11.65,62.24,11.76,92.05-.62-.05-.1-.08-.22-.06-.36.11-.78.2-1.56.3-2.34-29.62,10.12-64.32,14.77-92.91-.9.24,1.24.49,2.48.77,3.72ZM151.3,27.45c-11.19,15.31-38.83,17.45-49.52.49-11.05,1.77-23.38,3.24-33.26,8.47-9.71,5.14-10.76,18.21-13.04,28.64h0c5.29,5.42,11.64,8.3,19.14,8.87.36-5.97.86-11.93,1.56-17.85.05-.35.58-.37.56,0-1.13,36.16-4.94,73.12,1.94,108.93,30.02,14.24,62.47,10.93,93.12.37,2.24-17.62,3.09-35.35,3.8-53.08.76-18.85,1.18-37.5-1.39-56.25-.06-.4.54-.59.63-.17,1.38,6.49,2.11,13.06,2.46,19.68,6.61.15,12.71-1.44,18.19-5.24-1.06-5.54-2.02-11.1-3.34-16.6-1.53-6.38-3.36-13.05-8.57-17.46-8.87-7.51-21.37-6.32-32.19-9.03,0,.07-.03.15-.08.22ZM104.06,27.58c-.53.09-1.08.17-1.61.26,12.19,14.42,36.36,15.12,48.02-.84-.94-.26-1.87-.55-2.77-.88.08.19.07.42-.12.61-11.72,12.2-31.33,12.87-43.16.61-.06.12-.19.21-.37.24ZM104.13,26.01c.09.09.19.18.28.26,12.18,11.47,30.15,11.9,42.14-.15-13.19,4.38-28.67,4.03-41.93.24-.08-.02-.15-.07-.19-.12-.16-.22.03-.61.37-.54,14.44,3,27.41,2.35,41.77-.56.31-.06.51.14.56.37.05-.15.19-.26.39-.2,12.12,3.34,27.57,1.58,37.49,10.62,4.72,4.3,6.57,10.45,8.08,16.45,1.84,7.37,3.53,14.95,4.29,22.51.03.37-.34.54-.65.46-4.99,3.98-13,5.68-19.24,4.87.3,10.69-.27,21.45-.69,32.07-.7,17.71-1.56,35.41-3.77,53,.09.17.08.41-.07.56-.13,1.05-.26,2.1-.4,3.16.2.27.21.7-.14.85-29.29,12.96-64.41,13.51-93.81.55-.31-.13-.28-.51-.1-.73-.04-.06-.08-.12-.09-.21-4.14-18.1-4.7-36.76-4.72-55.26-.01-11.91.06-23.94.66-35.92-7.58.29-15.27-2.6-20.13-8.56-.23.24-.69.04-.62-.36,1.14-7.11,2.82-14.37,4.74-21.31,1.2-4.35,2.96-8.27,6.7-11.01,4.85-3.56,11.41-5.09,17.14-6.53,6.28-1.58,12.67-2.69,19.06-3.73.06-.06.16-.08.24-.04.7-.11,1.39-.23,2.09-.34-.15-.32.25-.69.55-.4Z"/>
</svg>