<?xml version="1.0" encoding="UTF-8"?>
<svg height="600" width="800" xmlns="http://www.w3.org/2000/svg" xmlns:xlink="http://www.w3.org/1999/xlink">
    <g id="Notes" font-family="'LucidaGrande', 'Lucida Grande', sans-serif" font-size="13">
        <rect fill="white" height="600.0" width="800.0" x="0.0" y="0.0" />
        <g font-size="13">
            <text x="18.0" y="176.0">Small</text>
            <text x="18.0" y="376.0">Medium</text>
            <text x="18.0" y="576.0">Large</text>
        </g>
        <g font-size="9">
            <text x="250.0" y="30.0">Ultralight</text>
            <text x="450.0" y="30.0">Regular</text>
            <text x="650.0" y="30.0">Black</text>
            <text id="template-version" fill="#505050" text-anchor="end" x="785.0" y="575.0">Template v.3.0</text>
            <a href="https://github.com/swhitty/SwiftDraw">
                <text fill="#505050" text-anchor="end" x="785.0" y="590.0">https://github.com/swhitty/SwiftDraw</text>
            </a>
        </g>
    </g>
    <g id="Guides" stroke="rgb(39, 170, 225)" stroke-width="0.5">
        <path id="Capline-S" d="M18,76 l800,0" />
        <path id="H-reference" d="M85,145.755 L87.685,145.755 L113.369,79.287 L114.052,79.287 L114.052,76 L112.148,76 L85,145.755 Z M95.693,121.536 L130.996,121.536 L130.263,119.313 L96.474,119.313 L95.693,121.536 Z M139.15,145.755 L141.787,145.755 L114.638,76 L113.466,76 L113.466,79.287 L139.15,145.755 Z" stroke="none" />
        <path id="Baseline-S" d="M18,146 l800,0" />
        <path id="left-margin-Ultralight-S" d="M221,56 l0,110" />
        <path id="right-margin-Ultralight-S" d="M309,56 l0,110" />
        <path id="left-margin-Regular-S" d="M421,56 l0,110" />
        <path id="right-margin-Regular-S" d="M509,56 l0,110" />
        <path id="left-margin-Black-S" d="M621,56 l0,110" />
        <path id="right-margin-Black-S" d="M709,56 l0,110" />
        <path id="Capline-M" d="M18,276 l800,0" />
        <path id="Baseline-M" d="M18,346 l800,0" />
        <path id="Capline-L" d="M18,476 l800,0" />
        <path id="Baseline-L" d="M18,546 l800,0" />
    </g>
    <g id="Symbols">
        <g id="Ultralight-S">
            <path d="M244.494,114.402 C244.898,115.003 245,115.733 245.063,116.447 C245.137,117.337 245.171,118.317 245.427,119.144 C245.728,120.266 246.718,121.337 247.946,121.263 C248.555,121.24 249.123,120.866 249.453,120.317 C249.942,119.546 250.005,118.504 250.34,117.654 C250.698,116.674 251.477,116.311 252.49,116.385 C253.746,116.47 255.214,117.002 256.516,117.218 C257.505,117.405 258.495,117.541 259.501,117.62 C261.469,117.762 263.51,117.722 265.302,116.895 C266.137,116.532 267.172,115.75 267.804,115.309 C268.571,114.753 268.503,115.405 268.492,115.971 C268.168,121.784 267.315,139.007 266.962,144.594 C266.814,145.602 266.234,145.812 265.074,145.942 C258.188,146.441 251.631,143.642 245.518,140.741 C243.357,139.687 241.207,138.475 239.575,136.685 C237.153,134.022 236.186,130.322 235.612,126.827 C234.941,122.543 235.146,118.209 235.453,113.892 C235.492,113.32 235.527,112.697 235.669,112.153 C236.186,110.142 237.875,111.133 239.285,111.694 C240.917,112.447 243.448,112.872 244.483,114.379 L244.483,114.391 L244.494,114.402 Z" />
            <path d="M277.67,94.782 C272.063,94.93 269.891,100.216 268.6,104.907 C268.207,106.368 267.98,107.938 267.61,109.377 C267.229,110.867 266.678,112.328 265.495,113.326 C264.699,114.051 263.226,114.544 261.844,114.595 C258.182,114.827 254.742,113.433 251.256,112.544 C251.148,112.504 250.983,112.498 250.949,112.391 C250.818,111.615 253.371,107.111 253.991,106.028 C254.053,105.938 254.031,105.824 253.974,105.728 C253.246,104.465 250.698,104.057 249.59,104.691 C249.453,104.771 249.351,104.844 249.26,104.963 C248.913,105.411 248.083,106.686 247.667,107.394 C247.11,108.323 246.644,111.303 245.137,110.759 C242.697,110.045 238.614,109.054 237.687,106.856 C237.329,106.04 237.403,104.952 237.665,104 C240.946,92.091 252.649,83.865 265.114,88.346 C269.066,89.536 273.388,90.969 276.464,93.224 C276.754,93.434 278.13,94.476 277.681,94.777 L277.67,94.777 L277.67,94.782 Z" />
            <path d="M281.298,136.152 C279.853,141.364 271.653,150.633 270.556,140.05 C270.198,136.775 270.476,132.77 270.601,129.115 C270.778,124.815 270.96,120.504 271.199,116.328 C271.517,111.411 271.875,105.7 274.025,101.32 C275.441,98.397 277.96,97.162 279.927,100.527 C281.417,103.145 281.895,106.453 282.242,109.666 C282.589,113.156 282.742,116.634 282.845,120.136 C283.01,125.557 282.958,131.002 281.304,136.129 L281.304,136.146 L281.298,136.152 Z" />
            <path d="M285.972,134.192 C285.569,134.039 285.54,133.551 285.5,133.172 C285.443,132.379 285.37,131.314 285.318,130.481 C285.273,129.835 285.375,129.297 285.955,128.951 C287.178,128.26 288.076,127.444 288.628,126.147 C289.782,123.422 289.464,120.215 289.413,117.325 C289.208,111.343 288.85,104.238 287.815,98.261 C287.633,97.315 287.371,96.289 286.996,95.406 C286.08,93.156 284.448,91.848 281.997,92.952 C281.241,93.264 280.638,93.451 279.967,92.833 C279.666,92.573 279.382,92.25 279.097,91.967 C278.716,91.576 278.347,91.219 278.182,90.913 C277.858,90.38 278.267,89.933 278.722,89.593 C285.125,84.805 290.436,87.666 292.313,94.629 C293.501,98.833 293.359,103.281 293.706,107.592 C294.479,116.606 297.914,131.234 287.081,134.101 C286.632,134.214 286.24,134.282 285.978,134.192 L285.967,134.192 L285.972,134.192 Z" />
            <path d="M275.6,89.74 C275.572,89.802 275.509,89.797 275.452,89.78 C274.611,89.474 273.479,89.054 272.489,88.698 C271.892,88.477 271.335,88.273 270.96,88.137 C270.727,88.04 270.471,88.001 270.437,87.819 C270.107,85.695 270.579,82.596 269.783,80.766 C269.407,80.131 268.679,80.012 267.843,79.882 C267.491,79.842 267.144,79.82 266.803,79.814 C266.422,79.825 266.155,79.791 265.91,79.876 C265.836,79.91 265.819,79.978 265.808,80.058 C265.745,80.641 265.523,82.715 265.364,84.239 C265.279,85.026 265.216,85.661 265.188,85.87 C265.176,85.916 265.171,85.961 265.12,85.967 C264.346,85.82 262.305,85.287 261.474,85.089 C261.31,85.049 261.253,84.93 261.241,84.766 C261.201,84.42 261.258,83.791 261.361,83.1 C261.588,81.633 261.77,80.624 262.072,79.457 C262.396,78.222 262.856,76.806 264.051,76.279 C266.223,75.48 272,76.505 273.496,77.995 C274.099,78.63 274.366,79.361 274.65,80.256 C275.463,83.14 275.668,86.839 275.611,89.734 L275.6,89.74 Z" />
            <path d="M258.483,80.664 C258.37,81.508 258.199,82.76 258.074,83.667 C258.011,84.114 257.972,84.431 257.972,84.42 C257.96,84.42 257.949,84.42 257.932,84.426 C257.084,84.573 255.378,84.879 254.514,85.032 C254.463,82.845 256.487,81.179 258.478,80.67 L258.483,80.664 Z" />
        </g>
        <g id="Regular-S">
            <path d="M444.494,114.402 C444.898,115.003 445,115.733 445.063,116.447 C445.137,117.337 445.171,118.317 445.427,119.144 C445.728,120.266 446.718,121.337 447.946,121.263 C448.555,121.24 449.123,120.866 449.453,120.317 C449.942,119.546 450.005,118.504 450.34,117.654 C450.698,116.674 451.477,116.311 452.49,116.385 C453.746,116.47 455.214,117.002 456.516,117.218 C457.505,117.405 458.495,117.541 459.501,117.62 C461.469,117.762 463.51,117.722 465.302,116.895 C466.137,116.532 467.172,115.75 467.804,115.309 C468.571,114.753 468.503,115.405 468.492,115.971 C468.168,121.784 467.315,139.007 466.962,144.594 C466.814,145.602 466.234,145.812 465.074,145.942 C458.188,146.441 451.631,143.642 445.518,140.741 C443.357,139.687 441.207,138.475 439.575,136.685 C437.153,134.022 436.186,130.322 435.612,126.827 C434.941,122.543 435.146,118.209 435.453,113.892 C435.492,113.32 435.527,112.697 435.669,112.153 C436.186,110.142 437.875,111.133 439.285,111.694 C440.917,112.447 443.448,112.872 444.483,114.379 L444.483,114.391 L444.494,114.402 Z" />
            <path d="M477.67,94.782 C472.063,94.93 469.891,100.216 468.6,104.907 C468.207,106.368 467.98,107.938 467.61,109.377 C467.229,110.867 466.678,112.328 465.495,113.326 C464.699,114.051 463.226,114.544 461.844,114.595 C458.182,114.827 454.742,113.433 451.256,112.544 C451.148,112.504 450.983,112.498 450.949,112.391 C450.818,111.615 453.371,107.111 453.991,106.028 C454.053,105.938 454.031,105.824 453.974,105.728 C453.246,104.465 450.698,104.057 449.59,104.691 C449.453,104.771 449.351,104.844 449.26,104.963 C448.913,105.411 448.083,106.686 447.667,107.394 C447.11,108.323 446.644,111.303 445.137,110.759 C442.697,110.045 438.614,109.054 437.687,106.856 C437.329,106.04 437.403,104.952 437.665,104 C440.946,92.091 452.649,83.865 465.114,88.346 C469.066,89.536 473.388,90.969 476.464,93.224 C476.754,93.434 478.13,94.476 477.681,94.777 L477.67,94.777 L477.67,94.782 Z" />
            <path d="M481.298,136.152 C479.853,141.364 471.653,150.633 470.556,140.05 C470.198,136.775 470.476,132.77 470.601,129.115 C470.778,124.815 470.96,120.504 471.199,116.328 C471.517,111.411 471.875,105.7 474.025,101.32 C475.441,98.397 477.96,97.162 479.927,100.527 C481.417,103.145 481.895,106.453 482.242,109.666 C482.589,113.156 482.742,116.634 482.845,120.136 C483.01,125.557 482.958,131.002 481.304,136.129 L481.304,136.146 L481.298,136.152 Z" />
            <path d="M485.972,134.192 C485.569,134.039 485.54,133.551 485.5,133.172 C485.443,132.379 485.37,131.314 485.318,130.481 C485.273,129.835 485.375,129.297 485.955,128.951 C487.178,128.26 488.076,127.444 488.628,126.147 C489.782,123.422 489.464,120.215 489.413,117.325 C489.208,111.343 488.85,104.238 487.815,98.261 C487.633,97.315 487.371,96.289 486.996,95.406 C486.08,93.156 484.448,91.848 481.997,92.952 C481.241,93.264 480.638,93.451 479.967,92.833 C479.666,92.573 479.382,92.25 479.097,91.967 C478.716,91.576 478.347,91.219 478.182,90.913 C477.858,90.38 478.267,89.933 478.722,89.593 C485.125,84.805 490.436,87.666 492.313,94.629 C493.501,98.833 493.359,103.281 493.706,107.592 C494.479,116.606 497.914,131.234 487.081,134.101 C486.632,134.214 486.24,134.282 485.978,134.192 L485.967,134.192 L485.972,134.192 Z" />
            <path d="M475.6,89.74 C475.572,89.802 475.509,89.797 475.452,89.78 C474.611,89.474 473.479,89.054 472.489,88.698 C471.892,88.477 471.335,88.273 470.96,88.137 C470.727,88.04 470.471,88.001 470.437,87.819 C470.107,85.695 470.579,82.596 469.783,80.766 C469.407,80.131 468.679,80.012 467.843,79.882 C467.491,79.842 467.144,79.82 466.803,79.814 C466.422,79.825 466.155,79.791 465.91,79.876 C465.836,79.91 465.819,79.978 465.808,80.058 C465.745,80.641 465.523,82.715 465.364,84.239 C465.279,85.026 465.216,85.661 465.188,85.87 C465.176,85.916 465.171,85.961 465.12,85.967 C464.346,85.82 462.305,85.287 461.474,85.089 C461.31,85.049 461.253,84.93 461.241,84.766 C461.201,84.42 461.258,83.791 461.361,83.1 C461.588,81.633 461.77,80.624 462.072,79.457 C462.396,78.222 462.856,76.806 464.051,76.279 C466.223,75.48 472,76.505 473.496,77.995 C474.099,78.63 474.366,79.361 474.65,80.256 C475.463,83.14 475.668,86.839 475.611,89.734 L475.6,89.74 Z" />
            <path d="M458.483,80.664 C458.37,81.508 458.199,82.76 458.074,83.667 C458.011,84.114 457.972,84.431 457.972,84.42 C457.96,84.42 457.949,84.42 457.932,84.426 C457.084,84.573 455.378,84.879 454.514,85.032 C454.463,82.845 456.487,81.179 458.478,80.67 L458.483,80.664 Z" />
        </g>
        <g id="Black-S">
            <path d="M644.494,114.402 C644.898,115.003 645,115.733 645.063,116.447 C645.137,117.337 645.171,118.317 645.427,119.144 C645.728,120.266 646.718,121.337 647.946,121.263 C648.555,121.24 649.123,120.866 649.453,120.317 C649.942,119.546 650.005,118.504 650.34,117.654 C650.698,116.674 651.477,116.311 652.49,116.385 C653.746,116.47 655.214,117.002 656.516,117.218 C657.505,117.405 658.495,117.541 659.501,117.62 C661.469,117.762 663.51,117.722 665.302,116.895 C666.137,116.532 667.172,115.75 667.804,115.309 C668.571,114.753 668.503,115.405 668.492,115.971 C668.168,121.784 667.315,139.007 666.962,144.594 C666.814,145.602 666.234,145.812 665.074,145.942 C658.188,146.441 651.631,143.642 645.518,140.741 C643.357,139.687 641.207,138.475 639.575,136.685 C637.153,134.022 636.186,130.322 635.612,126.827 C634.941,122.543 635.146,118.209 635.453,113.892 C635.492,113.32 635.527,112.697 635.669,112.153 C636.186,110.142 637.875,111.133 639.285,111.694 C640.917,112.447 643.448,112.872 644.483,114.379 L644.483,114.391 L644.494,114.402 Z" />
            <path d="M677.67,94.782 C672.063,94.93 669.891,100.216 668.6,104.907 C668.207,106.368 667.98,107.938 667.61,109.377 C667.229,110.867 666.678,112.328 665.495,113.326 C664.699,114.051 663.226,114.544 661.844,114.595 C658.182,114.827 654.742,113.433 651.256,112.544 C651.148,112.504 650.983,112.498 650.949,112.391 C650.818,111.615 653.371,107.111 653.991,106.028 C654.053,105.938 654.031,105.824 653.974,105.728 C653.246,104.465 650.698,104.057 649.589,104.691 C649.453,104.771 649.351,104.844 649.26,104.963 C648.913,105.411 648.083,106.686 647.667,107.394 C647.11,108.323 646.644,111.303 645.137,110.759 C642.697,110.045 638.614,109.054 637.688,106.856 C637.329,106.04 637.403,104.952 637.665,104 C640.946,92.091 652.649,83.865 665.114,88.346 C669.066,89.536 673.388,90.969 676.464,93.224 C676.754,93.434 678.13,94.476 677.681,94.777 L677.67,94.777 L677.67,94.782 Z" />
            <path d="M681.298,136.152 C679.853,141.364 671.653,150.633 670.556,140.05 C670.198,136.775 670.476,132.77 670.601,129.115 C670.778,124.815 670.96,120.504 671.198,116.328 C671.517,111.411 671.875,105.7 674.025,101.32 C675.441,98.397 677.96,97.162 679.927,100.527 C681.417,103.145 681.895,106.453 682.242,109.666 C682.589,113.156 682.742,116.634 682.845,120.136 C683.01,125.557 682.958,131.002 681.304,136.129 L681.304,136.146 L681.298,136.152 Z" />
            <path d="M685.972,134.192 C685.569,134.039 685.54,133.551 685.5,133.172 C685.443,132.379 685.37,131.314 685.318,130.481 C685.273,129.835 685.375,129.297 685.955,128.951 C687.178,128.26 688.076,127.444 688.628,126.147 C689.782,123.422 689.464,120.215 689.413,117.325 C689.208,111.343 688.85,104.238 687.815,98.261 C687.633,97.315 687.371,96.289 686.996,95.406 C686.08,93.156 684.448,91.848 681.997,92.952 C681.241,93.264 680.638,93.451 679.967,92.833 C679.666,92.573 679.382,92.25 679.097,91.967 C678.716,91.576 678.347,91.219 678.182,90.913 C677.858,90.38 678.267,89.933 678.722,89.593 C685.125,84.805 690.436,87.666 692.313,94.629 C693.501,98.833 693.359,103.281 693.706,107.592 C694.479,116.606 697.914,131.234 687.081,134.101 C686.632,134.214 686.24,134.282 685.978,134.192 L685.967,134.192 L685.972,134.192 Z" />
            <path d="M675.6,89.74 C675.571,89.802 675.509,89.797 675.452,89.78 C674.61,89.474 673.479,89.054 672.489,88.698 C671.892,88.477 671.335,88.273 670.96,88.137 C670.727,88.04 670.471,88.001 670.437,87.819 C670.107,85.695 670.579,82.596 669.783,80.766 C669.407,80.131 668.679,80.012 667.844,79.882 C667.491,79.842 667.144,79.82 666.803,79.814 C666.422,79.825 666.155,79.791 665.91,79.876 C665.836,79.91 665.819,79.978 665.808,80.058 C665.745,80.641 665.523,82.715 665.364,84.239 C665.279,85.026 665.216,85.661 665.188,85.87 C665.176,85.916 665.171,85.961 665.12,85.967 C664.346,85.82 662.305,85.287 661.474,85.089 C661.31,85.049 661.253,84.93 661.241,84.766 C661.201,84.42 661.258,83.791 661.361,83.1 C661.588,81.633 661.77,80.624 662.072,79.457 C662.396,78.222 662.856,76.806 664.05,76.279 C666.223,75.48 672,76.505 673.496,77.995 C674.099,78.63 674.366,79.361 674.65,80.256 C675.464,83.14 675.668,86.839 675.611,89.734 L675.6,89.74 Z" />
            <path d="M658.483,80.664 C658.37,81.508 658.199,82.76 658.074,83.667 C658.011,84.114 657.972,84.431 657.972,84.42 C657.96,84.42 657.949,84.42 657.932,84.426 C657.084,84.573 655.378,84.879 654.514,85.032 C654.463,82.845 656.487,81.179 658.478,80.67 L658.483,80.664 Z" />
        </g>
    </g>
</svg>