<?xml version="1.0" encoding="UTF-8"?>
<svg xmlns="http://www.w3.org/2000/svg" viewBox="0 0 251 205">
  <defs>
    <style>
      .cls-1 {
        fill: #efeeee;
        mix-blend-mode: multiply;
      }

      .cls-2 {
        fill: #fffbdd;
        mix-blend-mode: screen;
        opacity: .4;
      }

      .cls-3 {
        isolation: isolate;
      }

      .cls-4 {
        fill: #fff;
      }

      .cls-5 {
        fill: #221f1f;
      }

      .cls-6 {
        fill: #b2b2b2;
      }
    </style>
  </defs>
  <g class="cls-3">
    <g id="Layer_1" data-name="Layer 1">
      <g>
        <g>
          <g>
            <path class="cls-4" d="M166.7,101.53l-2.21-9.95c-.89-4.02-4.87-6.55-8.89-5.66l-16.09,3.57c-4.02.89-6.55,4.87-5.66,8.89l2.21,9.95c.89,4.02,4.87,6.55,8.89,5.66l16.09-3.57c4.02-.89,6.55-4.87,5.66-8.89ZM158.31,107.77l-12.01,2.67c-3,.67-5.97-1.22-6.63-4.22l-1.65-7.43c-.67-3,1.23-5.97,4.22-6.63l12.01-2.67c3-.67,5.97,1.23,6.63,4.22l1.65,7.43c.67,3-1.23,5.97-4.22,6.63Z"/>
            <path class="cls-5" d="M143.33,114.59h0c-3.65,0-6.88-2.59-7.67-6.16l-2.21-9.95c-.94-4.23,1.74-8.44,5.98-9.38l16.09-3.57c.56-.12,1.14-.19,1.71-.19,3.65,0,6.88,2.59,7.67,6.16l2.21,9.95c.94,4.23-1.74,8.44-5.98,9.38l-16.09,3.57c-.56.13-1.14.19-1.71.19ZM157.22,86.16c-.51,0-1.03.06-1.53.17l-16.09,3.57c-3.79.84-6.18,4.61-5.34,8.4l2.21,9.95c.71,3.19,3.59,5.51,6.86,5.51h0c.51,0,1.03-.06,1.53-.17l16.09-3.57c3.79-.84,6.19-4.61,5.35-8.4l-2.21-9.95c-.71-3.19-3.59-5.51-6.86-5.51ZM145.09,110.98c-2.77,0-5.22-1.97-5.83-4.68l-1.65-7.42c-.71-3.22,1.32-6.41,4.54-7.13l12-2.66c.43-.1.87-.14,1.3-.14,2.77,0,5.23,1.97,5.83,4.68l1.65,7.43c.35,1.56.06,3.16-.79,4.5-.86,1.35-2.19,2.28-3.75,2.62l-12.01,2.67c-.43.1-.87.14-1.3.14ZM155.46,89.77c-.38,0-.75.04-1.12.12l-12.01,2.66c-2.77.62-4.52,3.37-3.91,6.14l1.65,7.43c.52,2.34,2.63,4.03,5.02,4.03.38,0,.75-.04,1.12-.12l12.01-2.66c1.34-.3,2.49-1.1,3.22-2.26.74-1.16.98-2.54.68-3.88l-1.65-7.42c-.52-2.34-2.63-4.03-5.02-4.03Z"/>
          </g>
          <path class="cls-1" d="M166.7,101.53l-2.21-9.95s0-.02,0-.04c-2.32-2.7-5.01-4.57-9.08-3.55-3.67.93-15.56,3.03-16.9,4.49-.84.92-1.47,2-2.43,2.81-.81.69-1.58.45-2.22-.08-.22,1.01-.23,2.09,0,3.16l2.21,9.95c.89,4.02,4.87,6.55,8.89,5.66l16.09-3.57c4.02-.89,6.55-4.87,5.66-8.89ZM158.31,107.77l-12.01,2.67c-3,.67-5.97-1.22-6.63-4.22l-1.65-7.43c-.67-3,1.23-5.97,4.22-6.63l12.01-2.67c3-.67,5.97,1.23,6.63,4.22l1.65,7.43c.67,3-1.23,5.97-4.22,6.63ZM164.83,104.25c-.13.55-.92.52-1.07,0-.85-2.91-1.17-5.93-1.63-8.92-.29-1-.58-2-.87-2.99-.19-.65.66-.9,1.02-.43.16.21.3.45.44.67,0,0,0,.02.02.02,2.06,3.18,2.94,8.1,2.1,11.64Z"/>
          <g>
            <path class="cls-6" d="M211.32,49.53c-6.05-7.97-32.15-11.21-32.15-11.21-43.59-5.45-105.13,7.26-133.69,26.63-13.44,9.11-12.28,18.74-12.28,18.74l1.06,13.57,2.88-1.86c5.06-16.46,48.72-34.77,79.19-41.24,30.48-6.47,95.08-2.23,94.06,8.1-.05.56-.16,1.12-.28,1.67,0,0,0,0,0,0,3.13-9.39,1.33-14.08,1.2-14.38Z"/>
            <path d="M34.26,97.81c-.09,0-.17-.02-.25-.06-.18-.09-.29-.26-.31-.46l-1.06-13.57c-.05-.38-1.04-10.05,12.52-19.25,23.92-16.22,71.11-27.99,112.21-27.99,7.75,0,15.11.43,21.86,1.27,1.08.13,26.41,3.36,32.53,11.43.03.04.05.08.07.12.21.51,1.97,5.29-1.19,14.77-.09.28-.4.45-.68.37-.29-.08-.46-.37-.39-.66.13-.57.22-1.09.27-1.59.06-.62-.18-1.23-.74-1.85-4.51-4.97-28.44-8.72-55.68-8.72-14.54,0-27.66,1.09-36.96,3.06-28.95,6.15-73.67,24.23-78.78,40.86-.04.12-.12.23-.23.3l-2.88,1.86c-.09.06-.2.09-.3.09ZM157.37,37.61c-40.9,0-87.83,11.69-111.58,27.8-12.96,8.79-12.05,18.12-12.04,18.21l.99,12.66,1.93-1.24c5.52-16.98,50.45-35.25,79.55-41.43,9.37-1.99,22.58-3.09,37.19-3.09,23.99,0,51.1,3.12,56.51,9.08.25.27.45.55.61.84,1.61-6.63.49-10.12.29-10.64-5.93-7.65-31.47-10.91-31.73-10.94-6.71-.84-14.02-1.26-21.72-1.26Z"/>
          </g>
          <g>
            <path class="cls-4" d="M142.98,109.39l-3.4-12.92s-.43-2.58-4.1.09c-1.88,1.37-40.6,15.76-63.33,16.52-22.73.76-38.82-16.76-38.95-29.39l2.04,26.06s.99,3.04,5.1,6.26c4.12,3.22,19.06,15.82,43.94,10.59,24.88-5.23,47.63-15.16,53.16-15.34,0,0,3.49-.2,5.54-1.88Z"/>
            <path d="M72.58,128.42h0c-17.4,0-28.12-8.45-32.15-11.64l-.42-.33c-4.2-3.29-5.25-6.4-5.29-6.53-.01-.04-.02-.08-.02-.13l-1.87-23.89c-.11-.75-.16-1.5-.17-2.21,0-.3.23-.55.53-.56.3-.02.56.21.58.51l.17,2.14c1.62,11.18,16.24,27.45,38.21,26.74,23.08-.77,61.49-15.3,63.02-16.41,1.22-.89,2.22-1.32,3.07-1.32,1.3,0,1.82,1.04,1.91,1.59l3.39,12.87c.06.21-.02.43-.18.57-2.16,1.77-5.71,1.99-5.86,2-2.27.08-7.85,1.95-14.93,4.33-10.02,3.37-23.74,7.98-38.15,11-4,.84-7.97,1.27-11.81,1.27ZM35.79,109.63c.16.42,1.29,3.12,4.9,5.94l.43.33c3.95,3.12,14.45,11.4,31.46,11.4h0c3.77,0,7.66-.42,11.58-1.24,14.34-3.01,28.03-7.61,38.02-10.97,7.44-2.5,12.82-4.3,15.23-4.38.02,0,3.01-.19,4.92-1.54l-3.31-12.56c-.04-.2-.19-.71-.82-.71-.41,0-1.16.19-2.41,1.11-2.22,1.61-41.15,15.88-63.64,16.62-.48.02-.97.02-1.44.02-9.54,0-18.83-3.27-26.15-9.22-4.66-3.78-8.24-8.44-10.22-13.13l1.44,18.32Z"/>
          </g>
          <g>
            <path class="cls-4" d="M138.44,101.52s16.55-3.62,16.8-3.62,1.53-.68,2.3-1.28c0,0,1.53-1.36,1.79.51,0,0,.85,1.28-.68,2.38-1.53,1.11-1.79,1.12-3.23,1.28-1.45.16-16.31,3.71-16.31,3.71,0,0-1.46-.48-.67-2.99Z"/>
            <path class="cls-5" d="M139.09,104.94l-.11-.04s-1.84-.64-.93-3.51l.07-.23.23-.05c7.57-1.66,16.64-3.63,16.89-3.63.2-.04,1.33-.63,2.04-1.19.05-.04.65-.56,1.28-.56.36,0,.98.17,1.15,1.26.34.6.56,1.85-.84,2.86-1.54,1.12-1.87,1.18-3.34,1.35-1.49.17-16.2,3.68-16.35,3.71l-.11.03ZM138.77,101.87c-.42,1.54.15,2.06.38,2.2,1.62-.39,14.82-3.53,16.21-3.69,1.42-.16,1.63-.18,3.04-1.21,1.16-.84.64-1.72.58-1.82l-.06-.17c-.06-.42-.18-.63-.35-.63-.25,0-.62.25-.76.37-.64.5-2.1,1.38-2.57,1.38-.4.05-9.98,2.14-16.47,3.56Z"/>
          </g>
          <g>
            <path class="cls-4" d="M211.98,50.55c-.18-.35-.41-.68-.66-1.02.13.3,1.93,4.99-1.21,14.39-5.29,12.07-18.11,21.25-38.53,32.5-21.6,11.9-55.55,30.9-68.53,42.71-15.51,14.12-13.45,21.17-13.45,21.17.56,7.36,8.81,7.8,8.81,7.8,11.14-1.3,10.21-9.29,32.5-27.67,14.69-12.12,33.47-21.99,50.03-31.07,13.11-7.19,27.28-15.11,34.93-28.53,1.01-1.77,2.22-4.21,2.13-6.33-.25-5.63-6.02-23.96-6.02-23.96ZM148.88,120.2c-.87,0-1.58-.71-1.58-1.58s.71-1.58,1.58-1.58,1.58.71,1.58,1.58-.71,1.58-1.58,1.58ZM159.57,114.17c-.87,0-1.58-.71-1.58-1.58s.71-1.58,1.58-1.58,1.58.71,1.58,1.58-.71,1.58-1.58,1.58ZM170.25,108.21c-.87,0-1.58-.71-1.58-1.58s.71-1.58,1.58-1.58,1.58.71,1.58,1.58-.71,1.58-1.58,1.58ZM180.94,102.18c-.87,0-1.58-.71-1.58-1.58s.71-1.58,1.58-1.58,1.58.71,1.58,1.58-.71,1.58-1.58,1.58ZM191.63,96.14c-.87,0-1.58-.71-1.58-1.58s.71-1.58,1.58-1.58,1.58.71,1.58,1.58-.71,1.58-1.58,1.58ZM202.31,88.54c-.87,0-1.58-.71-1.58-1.58s.71-1.58,1.58-1.58,1.58.71,1.58,1.58-.71,1.58-1.58,1.58Z"/>
            <path class="cls-5" d="M98.4,168.5s-.01,0-.02,0c-.09,0-8.6-.55-9.18-8.16-.07-.22-1.94-7.38,13.58-21.49,12.28-11.17,43.11-28.72,68.6-42.77,19.7-10.85,32.98-20.04,38.36-32.31,3.1-9.29,1.28-13.89,1.2-14.08-.08-.18,0-.39.17-.49.17-.1.39-.05.51.1.31.4.53.74.7,1.07.26.81,5.81,18.51,6.06,24.12.1,2.26-1.2,4.81-2.18,6.54-7.84,13.75-22.31,21.68-35.08,28.68l-4.29,2.35c-15.13,8.26-32.27,17.62-45.68,28.68-9.81,8.09-15.08,14.13-18.92,18.53-4.93,5.65-7.4,8.48-13.78,9.22-.02,0-.03,0-.05,0ZM212.33,53.05c.11,2.43-.2,6.07-1.84,11-5.48,12.51-18.88,21.79-38.72,32.72-25.45,14.02-56.24,31.54-68.45,42.66-15.07,13.71-13.36,20.7-13.34,20.77.52,6.78,7.88,7.47,8.42,7.51,6.05-.71,8.46-3.47,13.24-8.96,3.87-4.43,9.16-10.49,19.02-18.62,13.46-11.11,30.65-20.49,45.8-28.76l4.29-2.35c12.68-6.95,27.05-14.83,34.77-28.38.94-1.64,2.17-4.07,2.08-6.12-.19-4.31-3.71-16.34-5.27-21.48ZM148.88,120.59c-1.09,0-1.97-.88-1.97-1.97s.89-1.97,1.97-1.97,1.97.89,1.97,1.97-.89,1.97-1.97,1.97ZM148.88,117.43c-.65,0-1.18.53-1.18,1.18s.53,1.18,1.18,1.18,1.18-.53,1.18-1.18-.53-1.18-1.18-1.18ZM159.57,114.57c-1.09,0-1.97-.88-1.97-1.97s.88-1.97,1.97-1.97,1.97.89,1.97,1.97-.88,1.97-1.97,1.97ZM159.57,111.41c-.65,0-1.18.53-1.18,1.18s.53,1.18,1.18,1.18,1.18-.53,1.18-1.18-.53-1.18-1.18-1.18ZM170.25,108.6c-1.09,0-1.97-.88-1.97-1.97s.89-1.97,1.97-1.97,1.97.88,1.97,1.97-.89,1.97-1.97,1.97ZM170.25,105.44c-.65,0-1.18.53-1.18,1.18s.53,1.18,1.18,1.18,1.19-.53,1.19-1.18-.53-1.18-1.19-1.18ZM180.94,102.58c-1.09,0-1.97-.89-1.97-1.97s.88-1.97,1.97-1.97,1.97.89,1.97,1.97-.89,1.97-1.97,1.97ZM180.94,99.42c-.65,0-1.18.53-1.18,1.18s.53,1.18,1.18,1.18,1.18-.53,1.18-1.18-.53-1.18-1.18-1.18ZM191.63,96.54c-1.09,0-1.97-.88-1.97-1.97s.89-1.97,1.97-1.97,1.97.88,1.97,1.97-.89,1.97-1.97,1.97ZM191.63,93.38c-.65,0-1.19.53-1.19,1.19s.53,1.18,1.19,1.18,1.18-.53,1.18-1.18-.53-1.19-1.18-1.19ZM202.31,88.93c-1.09,0-1.97-.88-1.97-1.97s.88-1.97,1.97-1.97,1.97.88,1.97,1.97-.88,1.97-1.97,1.97ZM202.31,85.78c-.65,0-1.18.53-1.18,1.19s.53,1.18,1.18,1.18,1.18-.53,1.18-1.18-.53-1.19-1.18-1.19Z"/>
          </g>
          <path class="cls-2" d="M95.34,151.62c2.84-3.78,6.07-7.3,9.7-10.33,9.69-8.1,20.64-14.91,31.33-21.6,11.36-7.1,23.14-13.5,34.48-20.63,1.43-.91,2.87-1.82,4.3-2.75-.49.27-.97.54-1.47.82-21.6,11.9-55.54,30.9-68.53,42.71-7.62,6.93-11,12.16-12.46,15.69.82-1.38,1.74-2.69,2.64-3.9Z"/>
        </g>
        <path class="cls-2" d="M35.04,94.68s9.57,23.1,47.32,20.71c0,0-21.26,2.65-33.01-4.45-14.28-8.63-14.31-16.26-14.31-16.26Z"/>
      </g>
    </g>
  </g>
</svg>