<?xml version="1.0" encoding="UTF-8"?>
<svg id="Layer_1" data-name="Layer 1" xmlns="http://www.w3.org/2000/svg" viewBox="0 0 251 205">
  <defs>
    <style>
      .cls-1 {
        stroke-dasharray: 3.19 5.32;
      }

      .cls-1, .cls-2 {
        fill: none;
        stroke-linecap: round;
      }

      .cls-1, .cls-2, .cls-3 {
        stroke: #000;
        stroke-miterlimit: 10;
      }

      .cls-4 {
        fill: #80cbc4;
      }

      .cls-3 {
        fill: #fff;
      }
    </style>
  </defs>
  <g>
    <path class="cls-3" d="M60.6,58.58s-.24,1.33-.61,3.49c-.85,5.01-1.25,10.66-2.32,15.88-1.05,5.08-3.45,10.82-3,16.07.67,7.79,9.98,7.81,15.77,8.85.97.18,2.01.36,3.1.56,7.67,1.35,15.65,2.78,23.52,4.21,1.15.21,2.31.42,3.48.63,1.1.2,2.21.42,3.32.66,1.11.24,2.23.49,3.35.76,9.77,1.54,19.51,3.3,29.3,5.13.83.16,1.66.31,2.49.46,25.71,4.65,47.87,8.66,47.88,8.66,8.12,1.47,9.39-7.37,10.94-13.04,2.09-7.68,2.45-15.45,3.86-23.24.38-2.12.62-3.45.62-3.45L60.6,58.58Z"/>
    <path class="cls-3" d="M204.24,73.54c.8-4.4-2.13-8.62-6.53-9.42,0,0-21.04-3.81-45.91-8.31l-2.42-.44c-10.49-1.64-20.8-4.41-31.26-6.01-10.91-1.68-21.78-3.58-32.65-5.55l-2.19-.4c-7.03-1.27-11.34-2.05-11.34-2.05-4.4-.8-8.62,2.13-9.42,6.53l-1.93,10.68,141.71,25.64,1.93-10.68Z"/>
    <g>
      <line class="cls-4" x1="161.09" y1="58.89" x2="150.52" y2="117.3"/>
      <g>
        <line class="cls-2" x1="161.09" y1="58.89" x2="160.82" y2="60.36"/>
        <line class="cls-1" x1="159.88" y1="65.6" x2="151.26" y2="113.21"/>
        <line class="cls-2" x1="150.79" y1="115.83" x2="150.52" y2="117.3"/>
      </g>
    </g>
    <g>
      <path d="M79.19,68.4l.08-1.1.02-.11c.05-.29.14-.51.26-.67.12-.15.37-.2.75-.13s.73.23,1.05.49c.32.26.56.58.7.97.29.75.36,1.56.2,2.43s-.34,1.54-.56,2.02c-.22.48-.52.91-.9,1.29.45.62.6,1.53.47,2.74-.03.27-.09.6-.15.98-.07.38-.16.75-.3,1.1-.13.35-.31.68-.52.98-.22.3-.47.55-.74.76-.6.44-1.33.58-2.18.42-.29-.05-.45-.22-.49-.49-.02-.21,0-.45.04-.73l1-4.39,1.28-6.57ZM78.26,78.57v.1s-.17.93-.17.93c.49-.02.89-.24,1.2-.64.31-.4.51-.79.57-1.17s.12-.69.15-.91c.03-.22.05-.5.05-.84,0-.33-.01-.63-.05-.89-.1-.63-.35-1.03-.76-1.2-.22.88-.44,1.92-.66,3.13l-.34,1.48ZM80.01,69.65l-.56,3.1c.73.11,1.26-.7,1.57-2.43s.19-2.68-.36-2.85c-.23.32-.44,1.05-.65,2.19Z"/>
      <path d="M85.01,75.18l.16-.79c.01-.07,0-.1-.01-.11l.07-.38c.39-2.18.8-3.71,1.22-4.58.35-.74.64-1.18.87-1.33.23-.15.44-.2.63-.17,1.61.29,2.57,1.3,2.89,3.04.18,1,.15,2.18-.1,3.55l-.03.15-.38,2.36c-.72,3.98-2.01,5.81-3.85,5.48-.76-.14-1.27-.67-1.53-1.59-.24-.88-.33-1.72-.28-2.52.07-1.21.19-2.25.34-3.11ZM86.76,72.56l-.45,1.9c-.36,2.01-.52,3.79-.46,5.35.19.93.42,1.51.7,1.72.25.05.5-.01.73-.18.24-.17.45-.41.63-.73.18-.32.34-.66.49-1.03.14-.36.27-.75.39-1.17.2-.72.35-1.35.44-1.87s.19-1.33.3-2.42c.1-1.09.2-1.9.3-2.43l.07-.37c.08-.51,0-.99-.25-1.44-.25-.45-.62-.72-1.11-.81s-.84.12-1.09.63c-.21.42-.37.96-.49,1.62l-.2,1.23Z"/>
      <path d="M98.26,79.78v1.32c-.04.17-.05.59-.04,1.27.01.68,0,1.12-.04,1.33v.02c-.06.3-.21.48-.45.53-.29-.05-.51-.14-.65-.27-.15-.12-.19-.32-.14-.59.11-.59.16-1.46.16-2.62l-2-.67c-.21.44-.4.92-.57,1.46-.17.54-.3.92-.41,1.16-.21.49-.49.71-.82.65-.16-.03-.3-.11-.42-.24-.12-.13-.16-.28-.14-.44l.08-.17c1.59-3.44,2.91-6.82,3.99-10.16.03-.09.1-.37.21-.82.25-1,.5-1.62.74-1.87l.7.13c.19.03.35.11.47.22.13.11.17.26.14.43-.19,1.06-.33,2.65-.43,4.77-.1,2.13-.22,3.65-.39,4.56ZM97.1,80c0-.21.04-.57.13-1.07s.18-1.13.25-1.89c.08-.76.15-1.64.22-2.65.07-1.01.13-1.74.17-2.2-1.26,3.37-2.11,5.75-2.55,7.15.21.2.8.42,1.78.67Z"/>
      <path d="M103.77,77.95l-.43,2.25c-.33,1.83-.46,3.3-.39,4.41l-.33.52-.58-.1-.22-.35c.13-.62.26-1.32.4-2.09s.38-2.44.72-5c.34-2.56.62-4.46.85-5.71.12-.66.41-.94.87-.86.72.13,1.3.43,1.72.9.43.47.58,1.05.45,1.76l-.26,1.46c-.07.4-.21.75-.42,1.05-.21.3-.44.62-.71.94-.26.33-.41.51-.43.55.01.35.03,1.04.04,2.06.02,2.23.18,3.87.51,4.9.09.3.13.52.1.67s-.09.27-.2.36c-.1.09-.23.12-.37.1-.29-.05-.51-.44-.66-1.15-.15-.71-.23-1.49-.24-2.33-.04-2.57-.1-3.99-.16-4.26l-.25-.05ZM104.96,71.84l-.12.28c-.1.57-.24,1.39-.4,2.47s-.3,1.86-.38,2.35c.36-.11.7-.5,1.03-1.18.33-.68.53-1.21.6-1.58s.11-.66.12-.84c.01-.18,0-.39-.02-.62-.05-.47-.32-.76-.81-.87Z"/>
      <path d="M109.44,83.48l1.25-6.53c.08-.45.16-1.14.25-2.07.08-.93.15-1.52.2-1.77s.16-.43.34-.54c.18-.11.36-.15.53-.12,1.43.26,2.44,1.3,3.03,3.14.34,1.05.42,2.1.22,3.16l-.23,1.04-.21,1.15c-.25,1.39-.48,2.31-.69,2.76-.21.44-.41.81-.6,1.1-.19.29-.4.53-.64.74-.54.48-1.18.82-1.91,1.04l-1.5-.27c-.35-.06-.36-1-.04-2.82ZM110.68,84.91l-.09.5c1.2.22,2.15-.87,2.83-3.26.15-.55.28-1.09.37-1.61.76-4.18.35-6.51-1.23-6.99-.2.53-.39,1.27-.56,2.23s-.39,2.46-.65,4.52c-.26,2.06-.49,3.59-.67,4.61Z"/>
      <path d="M120.86,81.09l-.7,4.43-.11.62-.12.58.27.05.6.09c.57.1.82.33.76.67-.03.18-.13.31-.29.41-.16.1-.33.13-.52.1l-.91-.17c-.63-.11-1.03-.2-1.2-.26-.11,0-.2-.02-.26-.03-.49-.09-.71-.29-.66-.6.02-.13.09-.24.19-.34.1-.1.19-.15.28-.14l.59.11.09-.27.66-4.44.95-4.61c.14-.79.25-1.54.3-2.25l-.4-.07-.48-.07c-.2-.04-.35-.1-.46-.2-.1-.1-.13-.26-.09-.47.06-.32.43-.42,1.11-.29l2.48.45c.56.1.82.3.76.59-.02.13-.1.24-.25.32-.14.09-.29.12-.45.09l-1.07-.19c-.05.58-.14,1.23-.27,1.94l-.83,3.95Z"/>
      <path d="M126.22,80.51l.82-3.85c.12-.64.46-1.11,1.04-1.39l-.02.13c.06-.02.11-.03.16-.02.32.06.63.69.91,1.9.28,1.21.5,2.52.65,3.93.15,1.41.3,2.83.44,4.27.14,1.43.24,2.28.29,2.53.8-2.85,1.58-6.34,2.32-10.47l.07-.56c.07-.41.28-.59.63-.53.2.04.33.14.4.32.07.18.08.38.04.6l-.28,1.57c-.31,1.63-.77,3.79-1.4,6.49-.63,2.7-1.08,4.2-1.37,4.52-.4.05-.67.06-.82.03s-.25-.1-.31-.21c-.06-.11-.09-.27-.11-.49-.01-.21-.03-.35-.05-.43l.03-.09c.09-.51-.11-2.24-.61-5.17-.5-2.93-.87-4.96-1.13-6.07l-1.89,10.46s.03.08.06.16c.06.16.08.31.06.44s-.11.25-.26.35c-.15.11-.31.14-.48.11-.45-.08-.6-.55-.45-1.39l1.25-7.13Z"/>
      <path d="M141.2,87.6l-.3,2.22c-.12.68-.46,1.17-1,1.45-.54.28-1.13.37-1.77.25-.96-.17-1.59-.66-1.9-1.45-.22-.56-.33-1.08-.33-1.54,0-.46,0-.82.02-1.07,0-.25.05-.58.11-1,.08-.58.15-1.05.21-1.4l.16-.89c.35-1.96.63-3.18.84-3.68s.43-.96.66-1.37c.23-.42.47-.73.74-.94.63-.5,1.28-.69,1.97-.57s.99.36.93.71c-.03.16-.12.28-.27.36-.15.08-.32.11-.49.07l-.43-.13c-.48-.09-.93.32-1.34,1.22-.6,1.29-1.07,2.89-1.41,4.81-.24,1.31-.36,2.21-.36,2.72,0,.51.01.93.06,1.28.03.36.1.65.2.87.23.54.6.85,1.1.94.67.12,1.2-.92,1.6-3.13l.17-.95c-.09-.07-.25-.13-.47-.17l-.41-.06c-.48-.09-.69-.29-.63-.61.04-.2.13-.33.29-.41.16-.08.33-.1.53-.06h0s.28.06.28.06c1.24.23,1.83.55,1.75.98l-.5,1.47Z"/>
      <path d="M91.21,92.22l.39-1.97c.15-.85.22-1.5.19-1.96.18-.47.41-.68.69-.63l.91.17c.8.14,1.3.58,1.5,1.3.18.64.2,1.34.06,2.11-.18.97-.31,1.56-.39,1.77-.09.21-.18.41-.27.6-.09.19-.18.33-.28.44-.1.11-.22.22-.37.35-.15.12-.31.22-.48.3-.39.16-.84.27-1.35.34l-.4,2.22-.55,3.97c-.03.17-.13.3-.29.39-.16.09-.34.12-.52.09l-.39-.33c-.03-.8.07-1.83.3-3.1l.75-3.69c-.05-.2-.06-.37-.03-.53v-.07c.2-.25.37-.83.54-1.75ZM92.67,90.08l-.69,4.06v.03c.84.04,1.46-1.05,1.87-3.29.12-.66.12-1.12,0-1.38-.13-.28-.38-.46-.75-.52,0-.02-.07-.04-.22-.07l-.21,1.18Z"/>
      <path d="M101.94,99.08v1.32c-.04.17-.05.59-.04,1.27.01.68,0,1.12-.04,1.33v.02c-.06.3-.21.48-.45.53-.29-.05-.51-.14-.65-.27-.15-.12-.19-.32-.14-.59.11-.59.16-1.46.16-2.62l-2-.67c-.21.44-.4.92-.57,1.46-.17.54-.3.92-.41,1.16-.21.49-.49.71-.82.65-.16-.03-.3-.11-.42-.24-.12-.13-.16-.28-.14-.44l.08-.17c1.59-3.44,2.91-6.82,3.99-10.16.03-.09.1-.37.21-.82.25-1,.5-1.62.74-1.87l.7.13c.19.03.35.11.47.22.13.11.17.26.14.43-.19,1.06-.33,2.65-.43,4.77-.1,2.13-.22,3.65-.39,4.56ZM100.78,99.3c0-.21.04-.57.13-1.07s.18-1.13.25-1.89c.08-.76.15-1.64.22-2.65.07-1.01.13-1.74.17-2.2-1.26,3.37-2.11,5.75-2.55,7.15.21.2.8.42,1.78.67Z"/>
      <path d="M105.4,103.16l.84.31c.26.05.51-.03.75-.22.24-.19.43-.46.59-.78.3-.63.5-1.2.59-1.71s.1-1.03.02-1.56c-.08-.53-.2-1.03-.37-1.51-.17-.47-.34-.96-.5-1.45-.39-1.16-.49-2.25-.31-3.26.11-.62.32-1.15.61-1.6.55-.82,1.16-1.17,1.81-1.06.24.04.46.16.65.36.19.19.27.38.24.57-.06.32-.26.45-.59.39-.15-.03-.29-.09-.41-.2-.44-.06-.83.38-1.16,1.31-.07.2-.13.45-.18.73s-.05.64,0,1.07c.05.44.14.83.26,1.19.13.35.26.75.41,1.17.14.43.28.84.4,1.24.28.92.32,1.93.11,3.02-.14.84-.48,1.61-1.01,2.3-.26.35-.58.61-.98.78-.39.18-.81.23-1.26.15v.05c-.56-.18-.83-.51-.8-.97l.3-.31Z"/>
      <path d="M112.2,104.39l.84.31c.26.05.51-.03.75-.22.24-.19.43-.46.59-.78.3-.63.5-1.2.59-1.71s.1-1.03.02-1.56c-.08-.53-.2-1.03-.37-1.51-.17-.47-.34-.96-.5-1.45-.39-1.16-.49-2.25-.31-3.26.11-.62.32-1.15.61-1.6.55-.82,1.16-1.17,1.81-1.06.24.04.46.16.65.36.19.19.27.38.24.57-.06.32-.26.45-.59.39-.15-.03-.29-.09-.41-.2-.44-.06-.83.38-1.16,1.31-.07.2-.13.45-.18.73s-.05.64,0,1.07c.05.44.14.83.26,1.19.13.35.26.75.41,1.17.14.43.28.84.4,1.24.28.92.32,1.93.11,3.02-.14.84-.48,1.61-1.01,2.3-.26.35-.58.61-.98.78-.39.18-.81.23-1.26.15v.05c-.56-.18-.83-.51-.8-.97l.3-.31Z"/>
    </g>
    <g>
      <rect x="172.69" y="86.11" width="13.38" height="2.37" transform="translate(18.4 -30.54) rotate(10.25)"/>
      <rect x="172.17" y="89.6" width="13.38" height="1.17" transform="translate(18.91 -30.4) rotate(10.25)"/>
      <rect x="171.52" y="93.21" width="13.38" height="1.17" transform="translate(19.54 -30.22) rotate(10.25)"/>
      <rect x="170.87" y="96.82" width="13.38" height="1.17" transform="translate(20.17 -30.05) rotate(10.25)"/>
      <rect x="170.21" y="100.42" width="13.38" height="1.17" transform="translate(20.81 -29.88) rotate(10.25)"/>
      <rect x="169.56" y="104.03" width="13.38" height="1.17" transform="translate(21.44 -29.7) rotate(10.25)"/>
      <rect x="168.91" y="107.63" width="13.38" height="1.17" transform="translate(22.07 -29.53) rotate(10.25)"/>
      <rect x="169.25" y="106.02" width="13.38" height=".63" transform="translate(21.74 -29.62) rotate(10.25)"/>
      <rect x="169.89" y="102.5" width="13.38" height=".63" transform="translate(21.12 -29.79) rotate(10.25)"/>
      <rect x="170.52" y="98.98" width="13.38" height=".63" transform="translate(20.51 -29.96) rotate(10.25)"/>
      <rect x="171.16" y="95.47" width="13.38" height=".63" transform="translate(19.89 -30.13) rotate(10.25)"/>
      <rect x="171.79" y="91.95" width="13.38" height=".63" transform="translate(19.28 -30.3) rotate(10.25)"/>
      <rect x="168.45" y="109.55" width="13.38" height="2.37" transform="translate(22.51 -29.41) rotate(10.25)"/>
    </g>
  </g>
  <g>
    <path class="cls-3" d="M58.69,76.78s-.47,1.27-1.21,3.33c-1.71,4.79-3.09,10.28-5.06,15.24-1.92,4.82-5.28,10.05-5.76,15.3-.7,7.79,8.46,9.43,13.98,11.47.92.34,1.91.71,2.96,1.09,7.32,2.67,14.93,5.47,22.42,8.25,1.1.41,2.2.82,3.32,1.23,1.05.39,2.1.8,3.16,1.23s2.11.87,3.16,1.33c9.35,3.22,18.63,6.66,27.96,10.17.79.3,1.58.59,2.37.89,24.51,9.07,45.63,16.88,45.64,16.89,7.74,2.86,10.53-5.61,13.05-10.93,3.4-7.2,5.11-14.79,7.85-22.21.75-2.02,1.22-3.29,1.22-3.29L58.69,76.78Z"/>
    <path class="cls-3" d="M197.52,116.58c1.55-4.2-.59-8.86-4.79-10.41,0,0-20.05-7.42-43.76-16.19-.76-.28-1.53-.57-2.3-.85-10.04-3.44-19.71-7.97-29.73-11.38-10.45-3.56-20.83-7.33-31.18-11.16l-2.09-.77c-6.7-2.48-10.81-4-10.81-4-4.2-1.55-8.86.59-10.41,4.79l-3.77,10.18,135.06,49.98,3.77-10.18Z"/>
    <g>
      <line class="cls-4" x1="157.58" y1="94.62" x2="136.98" y2="150.29"/>
      <g>
        <line class="cls-2" x1="157.58" y1="94.62" x2="157.06" y2="96.02"/>
        <line class="cls-1" x1="155.22" y1="101.01" x2="138.42" y2="146.39"/>
        <line class="cls-2" x1="137.5" y1="148.88" x2="136.98" y2="150.29"/>
      </g>
    </g>
    <g>
      <path d="M75.28,89.68l.27-1.06.04-.11c.1-.28.23-.48.37-.61.15-.13.4-.13.76,0s.67.36.95.67c.27.31.45.67.53,1.07.16.79.08,1.6-.23,2.42s-.61,1.46-.91,1.89c-.3.43-.67.8-1.11,1.11.33.69.33,1.61-.02,2.78-.08.26-.19.58-.32.94-.13.36-.29.71-.49,1.03-.19.32-.42.62-.69.88-.27.26-.56.46-.86.61-.67.32-1.41.34-2.22.03-.28-.1-.41-.29-.4-.56.02-.21.07-.44.16-.71l1.75-4.15,2.41-6.24ZM72.59,99.54l-.02.1-.33.89c.48.06.91-.08,1.29-.42.38-.34.64-.69.77-1.06s.24-.65.31-.87c.07-.22.13-.49.2-.82.06-.33.1-.62.11-.88.02-.64-.16-1.08-.54-1.31-.37.83-.77,1.82-1.2,2.97l-.59,1.4ZM75.87,91.06l-1.09,2.95c.7.24,1.36-.47,1.97-2.12.61-1.65.66-2.61.14-2.87-.28.28-.62.96-1.02,2.04Z"/>
      <path d="M79.83,97.38l.3-.75c.02-.06.03-.1,0-.11l.13-.36c.77-2.08,1.43-3.51,2-4.3.47-.67.84-1.05,1.09-1.16.25-.1.47-.12.65-.06,1.53.57,2.31,1.73,2.31,3.49,0,1.01-.23,2.17-.71,3.48l-.05.14-.79,2.26c-1.41,3.8-2.99,5.37-4.75,4.72-.73-.27-1.14-.88-1.23-1.83-.08-.91-.03-1.75.17-2.53.28-1.18.58-2.18.88-3.01ZM82,95.11l-.77,1.79c-.71,1.91-1.17,3.64-1.39,5.18.02.95.15,1.56.39,1.82.24.09.49.07.75-.05.27-.12.51-.32.75-.61.23-.28.46-.59.67-.92.2-.33.4-.69.59-1.08.33-.68.58-1.27.76-1.76s.42-1.27.71-2.33c.29-1.06.53-1.84.72-2.34l.13-.35c.17-.49.17-.98,0-1.47-.16-.49-.48-.82-.95-1s-.85-.02-1.18.43c-.28.38-.54.88-.77,1.51l-.41,1.18Z"/>
      <path d="M92.07,104.22l-.24,1.3c-.06.16-.14.58-.25,1.25-.11.67-.19,1.11-.27,1.3v.02c-.11.29-.29.44-.54.44-.28-.1-.48-.23-.6-.38-.12-.15-.13-.35-.04-.61.21-.56.41-1.41.62-2.55l-1.85-1.01c-.28.39-.56.84-.81,1.34-.26.5-.46.86-.61,1.07-.3.45-.6.61-.92.5-.15-.06-.28-.16-.38-.31-.09-.15-.11-.3-.06-.46l.11-.16c2.16-3.11,4.06-6.21,5.7-9.31.05-.09.16-.34.35-.77.42-.94.77-1.51,1.05-1.71l.67.25c.18.07.32.17.43.3.1.13.13.29.06.45-.37,1.01-.79,2.55-1.26,4.63-.47,2.08-.86,3.55-1.18,4.42ZM90.89,104.23c.03-.21.14-.55.32-1.03s.37-1.09.58-1.82c.21-.73.44-1.59.68-2.57.25-.98.43-1.69.55-2.13-1.83,3.1-3.08,5.3-3.76,6.59.17.23.71.55,1.63.97Z"/>
      <path d="M97.82,103.38l-.81,2.14c-.65,1.75-1.03,3.17-1.15,4.27l-.42.45-.55-.2-.15-.39c.23-.59.48-1.25.76-1.99s.8-2.34,1.58-4.8c.78-2.46,1.39-4.29,1.83-5.48.23-.62.57-.86,1.01-.69.69.26,1.2.65,1.54,1.19.34.54.38,1.14.13,1.81l-.52,1.39c-.14.38-.34.7-.6.96-.26.26-.54.53-.86.8-.31.28-.49.43-.52.46-.05.35-.16,1.03-.32,2.04-.37,2.2-.49,3.84-.36,4.92.04.31.03.54-.02.68s-.14.25-.26.32c-.12.07-.24.08-.38.03-.28-.1-.43-.52-.45-1.25-.02-.73.04-1.51.17-2.34.41-2.54.6-3.95.59-4.23l-.24-.09ZM100.05,97.57l-.17.26c-.2.54-.48,1.33-.83,2.36s-.62,1.78-.79,2.24c.37-.05.77-.37,1.22-.98.44-.61.73-1.09.86-1.46s.22-.63.27-.81c.04-.18.07-.38.08-.61.03-.47-.19-.81-.64-1Z"/>
      <path d="M102.43,109.81l2.37-6.22c.16-.43.36-1.09.6-1.99.25-.9.41-1.47.5-1.71s.23-.4.43-.47c.2-.08.38-.09.55-.02,1.36.5,2.17,1.71,2.43,3.62.15,1.09.04,2.14-.33,3.15l-.41.98-.4,1.09c-.49,1.33-.88,2.19-1.16,2.59-.28.4-.55.73-.78.97-.24.25-.49.46-.76.62-.61.37-1.3.6-2.06.69l-1.43-.53c-.34-.12-.18-1.05.46-2.78ZM103.4,111.44l-.18.47c1.15.42,2.27-.48,3.36-2.72.25-.52.47-1.02.65-1.52,1.47-3.99,1.48-6.35,0-7.1-.29.49-.6,1.19-.94,2.1-.34.91-.82,2.36-1.43,4.34-.62,1.98-1.11,3.45-1.47,4.43Z"/>
      <path d="M114.09,109.45l-1.46,4.24-.22.59-.21.55.26.1.58.19c.54.2.75.47.63.79-.06.17-.18.29-.36.36-.18.07-.35.07-.53,0l-.87-.32c-.6-.22-.98-.38-1.14-.46-.11-.03-.19-.05-.25-.07-.47-.17-.65-.41-.54-.71.05-.12.13-.22.25-.3.12-.08.22-.11.3-.09l.56.21.14-.25,1.42-4.26,1.74-4.37c.28-.75.51-1.48.69-2.16l-.38-.14-.46-.15c-.19-.07-.33-.16-.41-.28-.08-.11-.08-.28,0-.48.11-.3.49-.33,1.15-.09l2.36.87c.53.2.75.44.65.71-.05.12-.14.21-.3.27-.15.06-.31.06-.45,0l-1.02-.38c-.15.56-.35,1.18-.6,1.87l-1.51,3.74Z"/>
      <path d="M119.48,109.82l1.48-3.65c.23-.61.65-1.01,1.27-1.19l-.05.13c.06-.01.12-.01.16,0,.31.11.5.79.57,2.03.07,1.24.06,2.57-.04,3.98-.1,1.41-.2,2.84-.31,4.28-.11,1.44-.16,2.28-.16,2.54,1.29-2.67,2.66-5.97,4.12-9.9l.17-.54c.15-.39.38-.53.71-.41.19.07.3.2.33.39.04.19.02.39-.06.59l-.55,1.5c-.59,1.55-1.42,3.6-2.51,6.15-1.09,2.55-1.8,3.95-2.13,4.21-.4-.02-.67-.06-.81-.11s-.23-.14-.27-.26c-.04-.12-.05-.29-.02-.5.03-.21.04-.35.03-.43l.04-.08c.18-.49.28-2.22.31-5.2.02-2.98,0-5.03-.06-6.18l-3.69,9.97s.01.09.03.16c.03.17.02.32-.02.44s-.15.22-.32.3c-.16.08-.33.09-.49.03-.43-.16-.5-.64-.2-1.45l2.47-6.8Z"/>
      <path d="M132.98,119.42l-.68,2.13c-.24.65-.65,1.07-1.24,1.25-.58.18-1.18.16-1.79-.06-.92-.34-1.45-.93-1.61-1.76-.12-.59-.14-1.12-.06-1.58.08-.46.15-.81.2-1.05.05-.24.15-.56.28-.96.18-.56.33-1,.45-1.34l.31-.85c.69-1.86,1.18-3.02,1.47-3.47s.59-.87.89-1.24c.3-.37.6-.64.89-.79.71-.38,1.38-.46,2.04-.21s.92.53.79.86c-.06.15-.17.26-.33.31-.17.05-.33.05-.49-.01l-.4-.2c-.46-.17-.97.15-1.54.97-.81,1.17-1.56,2.66-2.23,4.49-.46,1.24-.74,2.12-.83,2.61-.09.5-.15.92-.17,1.27-.03.36-.01.65.04.9.13.57.44.94.92,1.12.64.24,1.35-.7,2.12-2.8l.34-.91c-.08-.09-.22-.17-.44-.25l-.39-.13c-.46-.17-.63-.41-.52-.71.07-.19.19-.3.36-.35.17-.05.34-.04.53.03h0s.27.11.27.11c1.19.44,1.7.86,1.55,1.27l-.75,1.36Z"/>
      <path d="M82.96,115.24l.73-1.88c.3-.81.47-1.44.53-1.89.26-.43.52-.6.79-.5l.87.32c.76.28,1.18.8,1.25,1.54.06.66-.04,1.36-.31,2.08-.34.92-.57,1.48-.7,1.67-.12.19-.24.37-.37.54-.12.17-.24.3-.36.38-.12.09-.26.18-.43.28-.17.1-.34.16-.53.21-.41.09-.87.12-1.39.1l-.78,2.12-1.23,3.81c-.06.16-.18.27-.36.34-.18.06-.35.06-.53,0l-.33-.4c.11-.79.39-1.79.84-3l1.38-3.5c-.01-.2,0-.38.06-.53l.03-.07c.22-.21.5-.75.82-1.63ZM84.77,113.38l-1.39,3.87v.03c.81.19,1.62-.78,2.41-2.91.23-.62.31-1.08.24-1.36-.08-.3-.29-.52-.64-.64,0-.02-.06-.06-.2-.11l-.42,1.12Z"/>
      <path d="M92.33,123.87l-.24,1.3c-.06.16-.14.58-.25,1.25-.11.67-.19,1.11-.27,1.3v.02c-.11.29-.29.44-.54.44-.28-.1-.48-.23-.6-.38-.12-.15-.13-.35-.04-.61.21-.56.41-1.41.62-2.55l-1.85-1.01c-.28.39-.56.84-.81,1.34-.26.5-.46.86-.61,1.07-.3.45-.6.61-.92.5-.15-.06-.28-.16-.38-.31-.09-.15-.11-.3-.06-.46l.11-.16c2.16-3.11,4.06-6.21,5.7-9.31.05-.09.16-.34.35-.77.42-.94.77-1.51,1.05-1.71l.67.25c.18.07.32.17.43.3.1.13.13.29.06.45-.37,1.01-.79,2.55-1.26,4.63-.47,2.08-.86,3.55-1.18,4.42ZM91.15,123.88c.03-.21.14-.55.32-1.03s.37-1.09.58-1.82c.21-.73.44-1.59.68-2.57.25-.98.43-1.69.55-2.13-1.83,3.1-3.08,5.3-3.76,6.59.17.23.71.55,1.63.97Z"/>
      <path d="M95.02,128.49l.77.45c.25.09.51.06.78-.09.27-.15.51-.37.72-.67.41-.57.7-1.1.88-1.58s.28-1,.29-1.54c.01-.54-.02-1.05-.1-1.55-.08-.5-.16-1-.24-1.51-.18-1.21-.09-2.3.26-3.27.22-.59.51-1.08.88-1.47.69-.71,1.34-.95,1.96-.72.23.09.43.24.58.47.15.23.2.43.14.6-.11.3-.33.39-.65.28-.14-.05-.27-.14-.37-.27-.43-.14-.88.23-1.37,1.09-.11.19-.21.42-.31.68s-.16.62-.19,1.06c-.03.44-.01.84.05,1.21.06.37.13.78.19,1.23.07.45.12.88.18,1.29.11.96-.02,1.96-.41,2.99-.29.8-.76,1.5-1.4,2.09-.31.29-.68.49-1.1.6-.42.11-.84.08-1.27-.07l-.02.05c-.51-.28-.72-.64-.61-1.09l.35-.26Z"/>
      <path d="M101.5,130.89l.77.45c.25.09.51.06.78-.09.27-.15.51-.37.72-.67.41-.57.7-1.1.88-1.58s.28-1,.29-1.54c.01-.54-.02-1.05-.1-1.55-.08-.5-.16-1-.24-1.51-.18-1.21-.09-2.3.26-3.27.22-.59.51-1.08.88-1.47.69-.71,1.34-.95,1.96-.72.23.09.43.24.58.47.15.23.2.43.14.6-.11.3-.33.39-.65.28-.14-.05-.27-.14-.37-.27-.43-.14-.88.23-1.37,1.09-.11.19-.21.42-.31.68s-.16.62-.19,1.06c-.03.44-.01.84.05,1.21.06.37.13.78.19,1.23.07.45.12.88.18,1.29.11.96-.02,1.96-.41,2.99-.29.8-.76,1.5-1.4,2.09-.31.29-.68.49-1.1.6-.42.11-.84.08-1.27-.07l-.02.05c-.51-.28-.72-.64-.61-1.09l.35-.26Z"/>
    </g>
    <g>
      <rect x="163.95" y="124.59" width="13.38" height="2.37" transform="translate(54.25 -51.4) rotate(20.31)"/>
      <rect x="162.93" y="127.95" width="13.38" height="1.17" transform="translate(55.15 -50.87) rotate(20.31)"/>
      <rect x="161.65" y="131.39" width="13.38" height="1.17" transform="translate(56.26 -50.22) rotate(20.31)"/>
      <rect x="160.38" y="134.83" width="13.38" height="1.17" transform="translate(57.38 -49.56) rotate(20.31)"/>
      <rect x="159.11" y="138.26" width="13.38" height="1.17" transform="translate(58.49 -48.91) rotate(20.31)"/>
      <rect x="157.84" y="141.7" width="13.38" height="1.17" transform="translate(59.6 -48.25) rotate(20.31)"/>
      <rect x="156.57" y="145.14" width="13.38" height="1.17" transform="translate(60.72 -47.6) rotate(20.31)"/>
      <rect x="157.23" y="143.61" width="13.38" height=".63" transform="translate(60.13 -47.94) rotate(20.31)"/>
      <rect x="158.47" y="140.26" width="13.38" height=".63" transform="translate(59.05 -48.58) rotate(20.31)"/>
      <rect x="159.71" y="136.9" width="13.38" height=".63" transform="translate(57.96 -49.22) rotate(20.31)"/>
      <rect x="160.95" y="133.55" width="13.38" height=".63" transform="translate(56.88 -49.86) rotate(20.31)"/>
      <rect x="162.19" y="130.2" width="13.38" height=".63" transform="translate(55.79 -50.5) rotate(20.31)"/>
      <rect x="155.68" y="146.93" width="13.38" height="2.37" transform="translate(61.49 -47.14) rotate(20.31)"/>
    </g>
  </g>
</svg>