<?xml version="1.0" encoding="UTF-8"?>
<svg id="Layer_1" data-name="Layer 1" xmlns="http://www.w3.org/2000/svg" viewBox="0 0 251 205">
  <defs>
    <style>
      .cls-1 {
        fill: #fff;
      }
    </style>
  </defs>
  <path d="M187.56,141.23l-34.93,44.65L54.59,113.63l33.01-45.62c0-.84-6.52-4.4-7.14-5.43-.28-.46-.41-1.19-.14-1.66l23.12-17.9,102.57,75.16-10.9,26.93c-.34.53-.59.41-1.1.26-1.13-.33-5.52-4.78-6.45-4.14ZM82.84,62.13l111.4,80.36,9.39-23.68c-32.6-25.1-66.92-47.84-99.37-73.12l-1.43-.3-19.99,16.74ZM97.57,74.79c-2.67-.95-5.47-4.46-7.79-5.49-.33-.14-.55-.36-.87-.01l-31.65,44.5,95.23,69.5,33.72-43.81-9.34-6.51-27.44,35.63c-.78.12-1.36-.22-2.03-.53-2.64-1.26-8.08-5.83-10.85-7.83-22-15.87-43.1-32.92-65.04-48.85l26.05-36.59ZM98.96,76.51l-24.75,34,24.86,18.92,26.3-34.07-26.41-18.86ZM149.7,113l-22.76-16.54-25.79,34.47,23.38,17.65,25.18-35.58ZM148.85,166.38l26.07-34.51-23.24-17.09-25.8,34.89,22.97,16.72Z"/>
  <path class="cls-1" d="M82.84,62.13l19.99-16.74,1.43.3c32.45,25.28,66.77,48.01,99.37,73.12l-9.39,23.68L82.84,62.13Z"/>
  <path class="cls-1" d="M97.57,74.79l-26.05,36.59c21.94,15.93,43.04,32.99,65.04,48.85,2.77,1.99,8.2,6.57,10.85,7.83.66.32,1.25.65,2.03.53l27.44-35.63,9.34,6.51-33.72,43.81L57.26,113.78l31.65-44.5c.32-.35.54-.13.87.01,2.32,1.03,5.13,4.54,7.79,5.49Z"/>
  <polygon class="cls-1" points="98.96 76.51 125.37 95.37 99.06 129.43 74.21 110.52 98.96 76.51"/>
  <polygon class="cls-1" points="148.85 166.38 125.88 149.67 151.68 114.78 174.92 131.87 148.85 166.38"/>
  <polygon class="cls-1" points="149.7 113 124.53 148.58 101.15 130.92 126.94 96.45 149.7 113"/>
  <g>
    <path d="M100.53,22.12c.57-1.17,2.11-3.35,3.46-2.3l-3.03,3.04c1.87,3.73,2.92-1.86,5.36-1.11-1.08,2.07-5.44,3.05-1.66,4.82l3.52-2.76c-.15,1.57-1.7,2.37-2.7,3.37l.81,1.6,3.76-2.91-2.7,3.75c1.41,3.19,2.94-1.2,4.93-1.18l-2.99,3.48,1.37,1.1c0-.81,2.6-2.71,3-2.15l-2.5,3.12,1.89,2.04,2.96-2.13,30.67,35.08,1.18.36c1.16-1.16,6.43-6.74,7.54-6.67.63.04.8.3,1.22.64,1.84,1.51,5.48,6.32,7.2,8.44,6.15,7.57,14.71,18.5,19.66,26.72,2.44,4.05,3.47,8.72,6.03,12.71l-9.63,9.63c-1.22.65-3.59-1.2-4.76-1.92-15.42-9.51-26.81-24.91-40.69-36.35-.55-1.45,3.56-4.05,4.64-5.18.73-.76,1.39-1.57,2.16-2.29l-31.21-34.76c-.61-1.6,3.57-3,.35-5.39-1.33-.98-2.28,2.36-3.81,1.82l2.65-2.87-1.34-1.23c-.75-.06-2.29,2.93-3.68,2.4-.35-.47,2.27-2.41,2.66-2.88s.71-.81-.05-1.1c-1.84-.7-2.77,2.65-4.55,2.34l3.26-3.87c-2.46-1.81-2.88,1.87-5.13,1.81.33-1.79,3.47-2.34,2.47-4.24-1.15-2.18-3.01,1.59-4.27,1.75.04-1.06,4.38-4.93,1.04-4.6-1.38.14-1.58,2.4-3.2,1.61l2.66-2.85-1.72-1.35-2.31,1.79,1.68-2.66-.78-1.59-2.2,1.4,1.18-2.17-1.02-1.54c.92-1.11,1.73.22,2.62,0,.65-.16,1.6-1.79,1.55,0l-.83,1.33.84,1.32c.47.06,2.28-3.31,3.09-1.47l-2.47,2.24,1.82,1.83ZM115.86,36.14l-4.2,3.74,30.54,34.3,4.2-3.74-30.54-34.3ZM176.21,91.75c-6.59-9.19-13.46-18.23-20.77-26.86l-18.29,16.67c-.38,1.06,6.72,6.71,7.9,7.86,7.68,7.47,14.83,15.56,23.28,22.22,1.4,1.1,9.16,6.87,10.18,7.05.74.13,1.07-.4,1.57-.77.76-.57,6.18-5.68,6.53-6.21.22-.34.34-.46.3-.92-.05-.58-3.55-8.48-4.12-9.57-1.76-3.34-4.38-6.43-6.56-9.47Z"/>
    <path class="cls-1" d="M176.21,91.75c2.18,3.04,4.81,6.13,6.56,9.47.57,1.08,4.07,8.99,4.12,9.57.04.46-.08.58-.3.92-.34.54-5.76,5.64-6.53,6.21-.5.37-.82.9-1.57.77-1.02-.18-8.78-5.95-10.18-7.05-8.45-6.66-15.6-14.75-23.28-22.22-1.18-1.15-8.27-6.8-7.9-7.86l18.29-16.67c7.31,8.63,14.18,17.67,20.77,26.86Z"/>
    <rect class="cls-1" x="126.23" y="32.2" width="5.62" height="45.93" transform="translate(-4.01 99.78) rotate(-41.69)"/>
  </g>
  <g>
    <path d="M190.49,172.4l1.55.42.11,1.01-5.85,15.13c-.94.2-7.27-3.46-8.87-4.15-3.62-1.55-9.48-2.83-12.46-4.48-.47-.26-1.02-.41-.92-1.09l5.62-13.94c.52-1.47,2.71-.06,2.98-.26l20.05-49.25.68-.66,2.96-.04c2.06-4.82,3.57-10.55,6.23-15.06.82-1.38,2.63-4.28,4.54-3.98,4.25,2.51,7.93,8.04,7.16,13.08-.39,2.52-5.19,10.75-5.01,11.85.09.56,2.36.94,1.56,2.48l-20.33,48.96ZM207.85,120.73c2.79-7.94,8.7-13.04,1.53-20.85-2.34-2.55-3.07-3.19-5.15.07-2.87,4.5-4.32,11.32-6.76,16.18l10.38,4.61ZM208.73,122.91l-14.76-5.65-19.37,48.67c4.05,1.29,8.43,3.79,12.4,4.99.48.15,1.28.41,1.69.15l20.04-48.15ZM166.61,178.91c6.35,2.02,12.87,4.09,18.45,7.83l4.94-12.38-19.05-7.59-4.33,12.14Z"/>
    <path class="cls-1" d="M208.73,122.91l-20.04,48.15c-.42.26-1.21,0-1.69-.15-3.97-1.2-8.35-3.7-12.4-4.99l19.37-48.67,14.76,5.65Z"/>
    <path class="cls-1" d="M166.61,178.91l4.33-12.14,19.05,7.59-4.94,12.38c-5.58-3.74-12.1-5.81-18.45-7.83Z"/>
    <path class="cls-1" d="M207.85,120.73l-10.38-4.61c2.44-4.86,3.89-11.69,6.76-16.18,2.08-3.25,2.81-2.62,5.15-.07,7.17,7.81,1.26,12.91-1.53,20.85Z"/>
  </g>
  <g>
    <path d="M72.85,78.93l1.17.59c-.78,2.33-1.23,4.77-1.96,7.12-3.74,11.99-8.43,23.85-12.52,35.74-2.32,6.75-5.44,24.35-15.07,23.81-7.72-.43-8.62-8.1-7.38-14.22,5.43-19.26,13.39-37.69,18.77-57.01.17-1.2,1.8-.38,2.07-.82.43-2.51,1.83-4.47,2.35-6.99,1.79-8.68-3.39-18.23-.03-26.07,4.74-11.06,28.84-7.02,29.07,6.36.22,12.46-15.57,19.04-16.47,31.49ZM72.28,36.47l-1.84,6.7-.42-.11,1.84-6.7-3.65.41c-3.01,9.65-1.43,20.09-4.62,29.75l1.25.34,1.13-3.3-.5,3.47c.82.22,2.13-8.6,2.35-9.47,1.84-7.28,4.4-13.89,7.5-20.71l-3.04-.39ZM78.26,37.66l-2.08-.54c-1.38,4.44-3.95,8.82-5.42,13.13-1.9,5.56-2.28,11.52-4.23,17.07.81.34.82.31,1.1-.49l.68.54,12.58-27.9-.15-.92-1.4-.55-1.65,1.76.57-2.1ZM70.17,68.77c2.53-5.98,7.57-10.48,10.9-15.93,1.46-2.4,3.84-6.79,4.58-9.39.54-1.9-2.24-3.25-3.52-4.29l-12.35,26.13v1.57s.89-1.56.89-1.56c.21,1.11-2.38,3.27-.5,3.46ZM66.98,37.72c-2.15-.42-2.63,1.69-3.49,2.73-.26.31-.69.1-1.09.72-3.85,5.91,1.08,14-.17,20.47l1.4-1.86-.42,4.83c2.43-8.8,1.31-18.1,3.77-26.89ZM85.72,54.79c.78-1.73.94-4.24,1.67-6.07l-1.29,1.44c.39-2.01,1.79-4.2.55-6.14-1.3.52-1.09,2.13-1.64,3.32-3.77,8.21-9.62,13.7-13.94,21.44,1.04,1.25,1.06-.11,1.85-.16l.4,1,.76-.52c2.54-4.65,9.6-9.77,11.64-14.31ZM70.67,78.32c.76-1.28,2.63-5.73,1.95-6.85l-10.65-3.17-2.01,6.47,10.71,3.55ZM71.91,80.51l-12.78-3.5c-.49-.13-1.45-1.71-2.11.32l14.43,4.86.46-1.67ZM70.58,83.74l-14.13-4.33-8.67,26.67c-3.02,8.84-10.74,24.32-8.87,33.33,1.45,7.01,8.86,5.62,12.23.5,4.22-6.42,7.25-20.14,9.89-27.93,2.46-7.25,5.48-14.45,7.76-21.75.67-2.14,1.14-4.35,1.79-6.49Z"/>
    <path class="cls-1" d="M70.58,83.74c-.64,2.14-1.12,4.35-1.79,6.49-2.27,7.3-5.3,14.51-7.76,21.75-2.65,7.8-5.67,21.51-9.89,27.93-3.37,5.12-10.77,6.51-12.23-.5-1.87-9.01,5.85-24.49,8.87-33.33l8.67-26.67,14.13,4.33Z"/>
    <path class="cls-1" d="M72.28,36.47l3.04.39c-3.1,6.81-5.65,13.42-7.5,20.71-.22.87-1.54,9.7-2.35,9.47l.5-3.47-1.13,3.3-1.25-.34c3.19-9.67,1.6-20.1,4.62-29.75l3.65-.41-1.84,6.7.42.11,1.84-6.7ZM67.1,53.74c.48-2.18,1.27-4.32,1.78-6.49l-.42-.11-1.9,6.91-.03,3.37c.77-1.07.37-2.83.56-3.67Z"/>
    <path class="cls-1" d="M78.26,37.66l-.57,2.1,1.65-1.76,1.4.55.15.92-12.58,27.9-.68-.54c-.28.8-.29.83-1.1.49,1.95-5.55,2.34-11.52,4.23-17.07,1.47-4.31,4.04-8.69,5.42-13.13l2.08.54ZM72.03,52.17l-.42-.11-3.68,13.4.42.11,3.68-13.4Z"/>
    <path class="cls-1" d="M85.72,54.79c-2.04,4.54-9.1,9.66-11.64,14.31l-.76.52-.4-1c-.79.05-.8,1.41-1.85.16,4.33-7.74,10.17-13.24,13.94-21.44.54-1.18.34-2.8,1.64-3.32,1.24,1.94-.17,4.13-.55,6.14l1.29-1.44c-.72,1.83-.89,4.34-1.67,6.07Z"/>
    <path class="cls-1" d="M70.67,78.32l-10.71-3.55,2.01-6.47,10.65,3.17c.68,1.12-1.19,5.58-1.95,6.85Z"/>
    <path class="cls-1" d="M66.98,37.72c-2.47,8.78-1.34,18.09-3.77,26.89l.42-4.83-1.4,1.86c1.25-6.47-3.69-14.55.17-20.47.4-.61.83-.4,1.09-.72.86-1.04,1.35-3.15,3.49-2.73Z"/>
    <path class="cls-1" d="M70.17,68.77c-1.88-.2.7-2.36.5-3.46l-.88,1.56v-1.57s12.34-26.13,12.34-26.13c1.28,1.04,4.07,2.39,3.52,4.29-.75,2.6-3.12,6.99-4.58,9.39-3.33,5.45-8.37,9.95-10.9,15.93Z"/>
    <path class="cls-1" d="M71.91,80.51l-.46,1.67-14.43-4.86c.67-2.03,1.62-.45,2.11-.32l12.78,3.5Z"/>
    <path d="M67.1,53.74c-.19.84.21,2.6-.56,3.67l.03-3.37,1.9-6.91.42.11c-.51,2.17-1.3,4.31-1.78,6.49Z"/>
    <rect x="69.77" y="51.86" width=".43" height="13.9" transform="translate(18.05 -16.42) rotate(15.34)"/>
  </g>
  <g>
    <path d="M88.87,92.08l1.05.41c-.46,2.07-.63,4.2-1.05,6.27-2.13,10.6-5.09,21.18-7.53,31.72-1.39,5.98-2.49,21.34-10.78,21.74-6.65.32-8.1-6.17-7.59-11.52,2.93-16.98,8.11-33.47,10.99-50.49.04-1.04,1.51-.49,1.7-.89.14-2.19,1.17-3.99,1.39-6.19.76-7.59-4.53-15.31-2.35-22.33,3.07-9.89,24.07-8.59,25.46,2.85,1.3,10.66-11.64,17.69-11.29,28.43ZM84.6,55.77l-.98,5.9-.37-.06.98-5.9-3.09.68c-1.72,8.54.57,17.33-1.3,25.89l1.1.18.68-2.93-.12,3.02c.72.12,1.06-7.56,1.17-8.32.93-6.4,2.53-12.29,4.57-18.4l-2.64-.06ZM89.83,56.25l-1.83-.28c-.79,3.92-2.59,7.9-3.47,11.73-1.13,4.93-.93,10.07-2.1,15,.73.22.73.19.9-.52l.63.4,8.29-25.01-.21-.77-1.25-.35-1.25,1.66.3-1.85ZM85.68,83.62c1.63-5.35,5.55-9.65,7.92-14.61,1.04-2.18,2.68-6.16,3.09-8.45.3-1.67-2.21-2.58-3.4-3.36l-8.25,23.48.15,1.34.61-1.41c.27.93-1.74,3.01-.12,3.01ZM80.17,57.31c-1.88-.17-2.11,1.68-2.75,2.65-.19.29-.58.15-.87.71-2.77,5.41,2.18,11.89,1.68,17.54l1.03-1.72.07,4.18c1.3-7.75-.5-15.62.83-23.36ZM97.75,70.26c.51-1.55.43-3.72.88-5.35l-.98,1.35c.15-1.76,1.16-3.76-.07-5.31-1.06.56-.75,1.92-1.11,2.99-2.5,7.37-7.01,12.59-10.03,19.61,1.01.98.89-.19,1.57-.3l.43.82.61-.52c1.76-4.21,7.35-9.22,8.69-13.29ZM86.95,91.75c.54-1.16,1.74-5.14,1.06-6.04l-9.4-1.76-1.14,5.72,9.49,2.09ZM88.21,93.51l-11.25-1.86c-.43-.07-1.39-1.34-1.78.46l12.79,2.87.24-1.47ZM87.36,96.4l-12.49-2.44-5.05,23.61c-1.8,7.84-7.03,21.79-4.62,29.34,1.87,5.87,8.09,4.02,10.52-.67,3.04-5.87,4.41-17.89,5.98-24.8,1.46-6.43,3.41-12.86,4.7-19.32.38-1.89.59-3.82.95-5.72Z"/>
    <path class="cls-1" d="M87.36,96.4c-.36,1.89-.57,3.82-.95,5.72-1.3,6.46-3.24,12.89-4.7,19.32-1.57,6.91-2.94,18.93-5.98,24.8-2.43,4.69-8.65,6.54-10.52.67-2.4-7.55,2.82-21.5,4.62-29.34l5.05-23.61,12.49,2.44Z"/>
    <path class="cls-1" d="M84.6,55.77l2.64.06c-2.05,6.11-3.64,12-4.57,18.4-.11.77-.45,8.44-1.17,8.32l.12-3.02-.68,2.93-1.1-.18c1.87-8.56-.42-17.36,1.3-25.89l3.09-.68-.98,5.9.37.06.98-5.9ZM81.7,71.02c.22-1.91.7-3.81.95-5.72l-.37-.06-1.01,6.09.28,2.89c.56-.99.07-2.46.15-3.19Z"/>
    <path class="cls-1" d="M89.83,56.25l-.3,1.85,1.25-1.66,1.25.35.21.77-8.29,25.01-.63-.4c-.17.71-.18.74-.9.52,1.18-4.93.97-10.07,2.1-15,.88-3.83,2.68-7.8,3.47-11.73l1.83.28ZM85.79,69.23l-.37-.06-1.95,11.81.37.06,1.95-11.81Z"/>
    <path class="cls-1" d="M97.75,70.26c-1.34,4.07-6.93,9.08-8.69,13.29l-.61.52-.43-.82c-.67.12-.56,1.28-1.57.3,3.01-7.01,7.53-12.24,10.03-19.61.36-1.06.04-2.43,1.11-2.99,1.24,1.55.23,3.55.07,5.31l.98-1.35c-.46,1.63-.37,3.8-.88,5.35Z"/>
    <path class="cls-1" d="M86.95,91.75l-9.49-2.09,1.14-5.72,9.4,1.76c.68.9-.52,4.88-1.06,6.04Z"/>
    <path class="cls-1" d="M80.17,57.31c-1.33,7.74.47,15.61-.83,23.36l-.07-4.18-1.03,1.72c.49-5.65-4.46-12.13-1.68-17.54.29-.56.67-.42.87-.71.64-.97.87-2.82,2.75-2.65Z"/>
    <path class="cls-1" d="M85.68,83.62c-1.63,0,.39-2.08.12-3.01l-.61,1.41-.15-1.34,8.25-23.48c1.19.78,3.7,1.68,3.4,3.36-.41,2.29-2.05,6.27-3.09,8.45-2.37,4.97-6.28,9.27-7.92,14.61Z"/>
    <path class="cls-1" d="M88.21,93.51l-.24,1.47-12.79-2.87c.39-1.8,1.35-.53,1.78-.46l11.25,1.86Z"/>
    <path d="M81.7,71.02c-.08.74.41,2.21-.15,3.19l-.28-2.89,1.01-6.09.37.06c-.25,1.91-.73,3.81-.95,5.72Z"/>
    <rect x="84.44" y="69.12" width=".37" height="11.97" transform="translate(13.39 -12.8) rotate(9.39)"/>
  </g>
</svg>