<?xml version="1.0" encoding="UTF-8"?>
<svg id="Layer_1" data-name="Layer 1" xmlns="http://www.w3.org/2000/svg" viewBox="0 0 251 205">
  <defs>
    <style>
      .cls-1 {
        fill: #fff;
      }
    </style>
  </defs>
  <path class="cls-1" d="M137.4,85.24c-.44.16-.88.31-1.33.47-1.43.49-2.86.95-4.31,1.4-1.29.4-2.6.76-3.9,1.11.02.39.05.77.07,1.16.14,2.88.22,5.76.35,8.64.03.65.08,1.29.12,1.94,2.33-.3,4.63-.78,6.89-1.49.84-.26,1.67-.57,2.5-.9.12-1.82.19-3.64.16-5.46-.04-2.31-.27-4.58-.55-6.86Z"/>
  <path class="cls-1" d="M147.31,127.14c.07-.04.04-.03,0,0h0Z"/>
  <path class="cls-1" d="M126.56,88.53c-1.08.27-2.16.54-3.25.76-2.82.58-5.68.99-8.56,1.21-.48.04-.97.03-1.46.06.31,1.31.71,2.6,1.17,3.85.73,1.97,1.66,3.86,2.66,5.7.94.1,1.88.16,2.82.2,2.37.09,4.74.03,7.08-.2-.03-.81-.06-1.63-.09-2.43-.12-3.05-.22-6.1-.38-9.14Z"/>
  <path class="cls-1" d="M112.64,86.83c.09.85.24,1.7.41,2.55,1.11-.05,2.22-.09,3.33-.19,3.42-.33,6.79-.98,10.12-1.79-.13-2.36-.29-4.71-.54-7.06-.25-2.35-.65-4.69-1.22-6.98-1.97.29-3.91.74-5.8,1.36-2.27.74-4.46,1.75-6.5,3,0,.11-.01.22-.02.32-.1,2.93-.08,5.88.24,8.8Z"/>
  <path class="cls-1" d="M110.58,135.96c-.12,1.32-.11,2.66-.09,4,.31-.13.63-.24.94-.34.13-.04.26-.07.39-.1-.02-.08-.04-.17-.07-.25-.33-1.11-.7-2.23-1.17-3.3Z"/>
  <path class="cls-1" d="M139.01,98.11c-.02.23-.03.45-.05.68-.09.98-.2,1.96-.32,2.94,0,0,0,.02,0,.03.17-.16.34-.31.5-.47.33-.33.65-.66.97-1.01.16-.18.33-.36.49-.55.03-.04.09-.1.11-.13.07-.09.14-.17.21-.26.61-.76,1.19-1.56,1.71-2.38.31-.49.39-.62.63-1.05.07-.12.12-.24.19-.35-.56.42-1.14.81-1.75,1.17-.87.52-1.77.97-2.7,1.4Z"/>
  <path class="cls-1" d="M137.26,84.13c-.06-.44-.11-.88-.17-1.32-.31-2.3-.66-4.6-1.16-6.87-.2-.89-.42-1.79-.67-2.68-3.12-.41-6.29-.43-9.41-.06,1.13,4.53,1.65,9.2,1.94,13.86,1.75-.46,3.49-.94,5.21-1.49,1.43-.45,2.84-.96,4.25-1.45Z"/>
  <path class="cls-1" d="M91.73,53.63c2.75-.71,5.53-1.31,8.29-1.94,9.99-2.27,19.99-4.49,30.03-6.52,4.96-1,9.93-1.97,14.91-2.91,2.3-.43,4.59-.89,6.9-1.27,0-.02,0-.04.01-.06.04-.21.07-.41.11-.62.05-.28.1-.56.14-.84.01-.07.02-.15.03-.22,0,0,0,0,0-.01,0-.02,0-.05,0-.07,0-.05.01-.1.02-.16v-.03s0,0,0-.01c0,0,0,0,0-.01,0,0,0,0,0,0,.01-.13.03-.23.08-.35,0-.03.02-.05.03-.08,0-.01,0-.02.01-.04.05-.15.1-.3.15-.45.1-.29.19-.57.3-.86.06-.16.11-.32.17-.51,0,0,0-.02,0-.03-.66.27-1.31.54-2.01.73-.87.25-1.77.42-2.66.6-1.78.37-3.56.76-5.33,1.19-3.57.88-7.07,1.99-10.62,2.92-6.32,1.65-12.68,3.11-19.08,4.45-4.5.94-8.98,1.98-13.49,2.87-3.44.68-6.91,1.34-10.21,2.58-1.44.55-2.9,1.18-4.12,2.14-.43.34-.79.72-1.11,1.22-.05.09-.1.19-.15.3,0,0,0,0,0,0,2.43-.91,5.04-1.39,7.55-2.03Z"/>
  <path class="cls-1" d="M123.57,132.69s0,.03,0,.04c.01-.02.02-.03,0-.04Z"/>
  <path class="cls-1" d="M136.45,72.27c.26.04.53.07.8.11,1.42.24,2.83.55,4.21.96.94.27,1.92.54,2.8.97-1.29-2.4-3.08-4.52-5.24-6.21-1.86-1.45-3.98-2.43-6.21-3.01,1.05,1.01,1.79,2.43,2.35,3.68.51,1.14.93,2.31,1.29,3.5Z"/>
  <path class="cls-1" d="M111.64,89.46s.09,0,.13,0c-.17-.94-.3-1.89-.38-2.85-.21-2.73-.18-5.47-.07-8.21-1.11.75-2.17,1.56-3.15,2.46-.68.63-1.32,1.3-1.96,1.97-.08.65-.14,1.29-.15,1.94-.01,1.66.18,3.35.53,5.01,1.56-.55,3.41-.28,5.05-.31Z"/>
  <path class="cls-1" d="M116.08,101.2s-.03-.05-.04-.07c-1-.12-1.99-.28-2.98-.48-.49-.1-.98-.22-1.47-.35.97,1.16,2.06,2.23,3.27,3.14,1.17.88,2.46,1.57,3.81,2.12-.14-.22-.28-.45-.42-.67-.75-1.21-1.49-2.43-2.17-3.68Z"/>
  <path class="cls-1" d="M139.92,84.43c-.41.11-.82.25-1.22.39.32,2.68.56,5.35.55,8.07,0,1.38-.07,2.75-.16,4.13.97-.44,1.93-.94,2.83-1.51.91-.58,1.78-1.23,2.55-1.99.61-1.37,1.07-2.7,1.44-4.23.54-2.23.78-4.55.65-6.85-.79.38-1.64.66-2.44.9-1.38.42-2.79.72-4.18,1.1Z"/>
  <path class="cls-1" d="M137.73,98.67c-2.96,1.2-6.12,1.96-9.26,2.39.11,1.56.23,3.12.35,4.68.04.57-1.15,1.42-1.28.61-.27-1.68-.38-3.4-.46-5.12-2.95.32-5.96.33-8.91.12-.13,0-.26-.03-.4-.04.59,1.03,1.2,2.04,1.83,3.04.39.63.81,1.24,1.19,1.87.02.03.03.06.05.09.19.05.37.12.56.17,1.91.48,3.88.65,5.84.5.89-.07,1.75-.21,2.66-.42.93-.22,1.8-.5,2.55-.81.86-.35,1.7-.76,2.51-1.23.05-.03.1-.06.16-.09,0,0,0,0,0,0,.09-.06.19-.11.28-.17.2-.13.4-.26.6-.39.38-.26.76-.53,1.12-.81.03-.02.06-.05.09-.07.07-.4.14-.79.18-1.17.13-1.04.23-2.09.32-3.14Z"/>
  <path class="cls-1" d="M131.86,134.26c.3-.46.34-1.05.27-1.59-.15-1.05-.74-1.99-1.51-2.72-.23,1.69-.09,3.45.17,5.12.4-.22.82-.43,1.07-.82Z"/>
  <path class="cls-1" d="M115.38,99.86c-1.5-2.94-2.69-6.03-3.38-9.25-.53.02-1.07.06-1.6.06-.77,0-1.54.01-2.31-.05-.31-.03-.63-.08-.94-.15-.17-.03-.3-.07-.41-.13.65,2.73,1.74,5.38,3.2,7.69.17.27.36.52.54.78,1.23.29,2.45.63,3.7.86.4.08.81.11,1.21.18Z"/>
  <path class="cls-1" d="M128.45,71.93c2.15-.14,4.3-.09,6.44.13-.91-2.84-2.26-5.5-4.58-7.46-1.66-.21-3.36-.24-5.03-.06-.93.1-1.86.28-2.77.49,1.54,2.11,2.43,4.7,3.11,7.2.94-.13,1.88-.24,2.83-.3Z"/>
  <path class="cls-1" d="M104.9,139.97c.16.04.32.05.49.05.16,0,.19,0,.33-.04,0,0,.09-.03.13-.05.17-.07-.07.02.06-.03.03-.01.05-.03.07-.05.05-.04.09-.09.13-.13-.14.15.14-.22.09-.13.07-.13.12-.25.14-.31.09-.27.14-.54.16-.8.04-.61-.04-1.21-.29-1.77-.48-1.07-1.47-1.45-2.51-1.28.16,1.55.4,3.09.67,4.63.17-.08.35-.13.54-.08Z"/>
  <path class="cls-1" d="M108.05,80.02c1.04-.93,2.16-1.77,3.32-2.55.07-1.53.17-3.05.29-4.58.03-.38.05-.77.07-1.16-.07.06-.13.12-.2.16-.39.22-.67.48-.99.75-.19.17-.58.57-.72.74-1.32,1.6-2.15,3.59-2.74,5.56-.26.86-.48,1.75-.66,2.64.52-.55,1.08-1.08,1.63-1.57Z"/>
  <path class="cls-1" d="M124.41,72.12c-.68-2.39-1.67-4.65-2.73-6.89-1.19.32-2.35.74-3.48,1.22-1.19.52-2.31,1.16-3.45,1.77-.64.35-1.28.66-1.91,1,0,.4-.04.8-.05,1.19-.04.86-.09,1.72-.14,2.58-.07,1.26-.13,2.52-.19,3.78,3.68-2.22,7.78-3.66,12.02-4.38-.03-.09-.05-.19-.07-.28Z"/>
  <path class="cls-1" d="M140.21,74.27c-1.13-.31-2.27-.55-3.42-.75.8,3.04,1.24,6.19,1.65,9.27.04.31.08.61.12.92.76-.25,1.52-.48,2.3-.68,1.19-.31,2.39-.58,3.56-.94.64-.19,1.27-.41,1.88-.68.05-.02.1-.05.15-.07-.12-1.06-.31-2.1-.6-3.13-.25-.89-.57-1.75-.95-2.59-.08.03-.16.05-.21.04-1.53-.28-2.97-.96-4.48-1.38Z"/>
  <path class="cls-1" d="M164.95,131c-.47-7.24-.96-14.5-1.65-21.72-.59-6.15-1.24-12.29-1.84-18.44-.78-8.01-1.5-16.03-2.09-24.05-.31-4.24-.58-8.49-.79-12.74-.11-2.12-.2-4.25-.28-6.37-.04-1.08-.08-2.16-.09-3.25-.01-.63-.01-1.25.02-1.86-.08.03-.15.03-.17-.07-.07-.45.08-.89.29-1.3-2.58.81-5.15,1.65-7.81,2.14-2.71.5-5.42,1.01-8.13,1.53-9.96,1.91-19.91,3.92-29.85,5.96-4.98,1.02-9.95,2.07-14.92,3.17-2.45.54-4.89,1.08-7.34,1.59-1.18.25-2.36.53-3.55.77-.85.17-1.69.33-2.55.43.1.56.11,1.15.16,1.69.09.97.13,1.95.27,2.91.04.26.17.61.24.93.2.99.22,2.05.33,3.06.94,8.79,1.76,17.59,2.65,26.38.94,9.22,2.02,18.43,3.25,27.62.61,4.6,1.22,9.21,1.82,13.82.54,4.12.85,8.25,1.15,12.39.3,4.24.73,8.47.89,12.71.07,1.91-.01,3.81,0,5.72,0,1.5-.04,3-.07,4.5.18-.19.36-.37.54-.56.47-.5,1.19-.75,1.82-.97.56-.19,1.12-.36,1.69-.51,1.28-.32,2.57-.57,3.87-.79,2.54-.43,5.11-.73,7.66-1.07,2.04-.27,4.04-.87,6.04-1.34,2.28-.54,4.56-1.05,6.85-1.56,5.24-1.17,10.49-2.32,15.75-3.41,5.3-1.1,10.6-2.17,15.91-3.23,3.7-.73,7.38-1.57,11.14-1.79-.05-.44-.1-.89-.12-1.33-.27-6.99-.65-13.97-1.1-20.94ZM104.6,141.47c.18,1.12.36,2.25.48,3.38.11,1.1.25,2.35-.01,3.43-.04.16-.5.62-.61.29-.16-.49-.17-1.06-.22-1.57-.06-.58-.14-1.17-.22-1.75-.15-1.13-.35-2.26-.56-3.38-.41-2.16-.86-4.32-1.06-6.51-.03-.32.32-.72.6-.83,1-.39,2.18-.63,3.17-.08,2.81,1.57,1.64,7.16-1.57,7.01ZM113.94,140.67c-.11-.04-.22-.05-.34-.06.04.16.1.32.14.48.23.97.25,1.97.33,2.96.01.17-.31.47-.44.26-.45-.78-.91-1.54-1.16-2.42-.12-.42-.23-.84-.34-1.26-.37.06-.74.16-1.1.28-.18.06-.36.14-.53.22,0,1.87-.07,3.78-.93,5.47-.1.19-.64.5-.56.07.32-1.69.42-3.37.42-5.07-.24.1-.48.18-.72.22-.18.03-.4.1-.58.06-.08-.02-.06-.14-.04-.18.14-.23.35-.43.55-.62.09-.08.12-.11.12-.12.02-.02.03-.03.05-.06.09-.09.19-.16.29-.23.1-.07.21-.13.31-.19-.06-2.12-.11-4.25.38-6.34.09-.38.8-1.04,1.11-.54.94,1.51,1.57,3.15,2.09,4.85.09.28.15.56.24.84.26,0,.53.05.76.16.25.11.35.32.51.52.22.27-.28.78-.57.67ZM122.03,142.5c-.5.86-1.32,1.72-2.36,1.86-.42.06-.84-.02-1.21-.23-.18-.1-.34-.21-.48-.36-.25-.27-.19-.44-.29-.77-.08-.24.33-.76.6-.6.15.09.31.06.46.15.11.06.21.15.31.23.19.13.37.25.59.32.34.1.65.04.92-.18.63-.53,1.05-1.61.79-2.41-.23-.69-.83-1.18-1.38-1.62-.61-.48-1.24-.93-1.74-1.53-.38-.14-.76-.52-1.03-.77-.72-.65-2.1-1.89-1.56-2.99.35-.72,1.17-.98,1.92-.93.25.01.55.04.79.12.24.08.46.24.67.38.42.27.55.62.62,1.11.02.15-.24.39-.38.28-.63-.51-1.63-.78-2.46-.71.03.09.06.17.09.21.47.82,1.29,1.53,2.04,2.08.12.09.06,0,.12.08.01.01.05.02.06.03.01,0,0,0,0,0,.01,0,.02,0,.03,0,.26.2.46.47.71.68.54.48,1.15.87,1.68,1.36.49.44.93.99,1.06,1.65.19.89-.13,1.81-.58,2.57ZM128.61,142.27c-.33.55-.84,1-1.47,1.19-.3.09-.65.15-.95.05-.33-.11-.44-.33-.64-.58-.11-.14.09-.37.23-.39.43-.06.85-.18,1.29-.24.13-.02.24-.03.37-.07.01,0,.06-.05.1-.07,0,0,0,0,0,0,0,0,0,0,0,0,0,0,0,0,0,0-.13.07.08-.14,0,0,0,0,0,0,0,0,.02-.04.05-.07.08-.11-.06.11.1-.24.09-.2.09-.26.13-.54.15-.81.08-1.28-.23-2.6-.74-3.77-.2-.46-.44-.99-.82-1.33-.41-.38-1.06-.58-1.56-.81-.8-.36-2.59-.97-2.29-2.15.18-.72.91-1.19,1.53-1.51.53-.27,1.09-.51,1.68-.48.45.02.97,0,1.38.19.36.17-.15.64-.34.7-.6.19-1.23.08-1.83.21-.46.1-.89.48-1.27.64.01.04.03.08.04.1.15.24.45.4.68.54.57.32,1.18.56,1.78.83.51.23,1.07.46,1.43.9.77.96,1.19,2.22,1.42,3.41.24,1.22.32,2.61-.34,3.72ZM116.2,107.05c-4.72-2.31-8.17-6.55-10.13-11.37-1.74-4.28-2.51-9.2-1.47-13.74.53-2.32,1.36-4.63,2.54-6.69,1.04-1.81,2.42-3.72,4.5-4.36.05-.02.08.02.12.02.02-.37.06-.75.1-1.12-.08.05-.17.09-.25.15-.44.31-.62-.17-.3-.48.24-.24.49-.47.73-.71.03-.14.05-.28.08-.41.04-.14.56-.65.63-.3,0,0,0,.01,0,.02.5-.48,1.03-.94,1.59-1.35,2.21-1.61,4.97-2.68,7.59-3.41,2.52-.7,5.18-1.05,7.79-.92,2.57.12,5.15.69,7.49,1.78,2.37,1.1,4.42,2.71,6.17,4.64,2.83,3.12,4.55,7.03,5.07,11.2.52,4.12-.18,8.32-1.65,12.18-1.48,3.9-3.85,7.51-6.86,10.39-.54.52-1.12,1.01-1.71,1.49-.06.2-.13.4-.22.59-.08.18-.75.77-.86.32,0-.03,0-.05,0-.08-2.39,1.73-5.08,3.04-7.96,3.69-4.33.98-9.01.43-13-1.52ZM132.47,135.01c-.32.37-.9.88-1.49,1.11.17.86.36,1.71.61,2.55.27.91.72,1.95.73,2.9,0,.21-.33.56-.54.39-.36-.29-.57-.79-.75-1.21-.21-.48-.39-.97-.54-1.47-.34-1.13-.61-2.28-.81-3.44-.39-2.27-.56-4.67.02-6.92.11-.42.66-.94,1.1-.66,1.44.92,2.63,2.56,2.62,4.33,0,.9-.35,1.75-.95,2.42ZM140.64,139.53c-1.32.59-2.81.27-3.92-.61-1.19-.94-2.02-2.71-1.44-4.2.05-.13.4-.42.49-.18.13.35.15.73.26,1.09.1.34.23.67.4.99.33.6.81,1.13,1.37,1.51.44.29.99.52,1.48.58.24.03.6.03.75,0,.34-.06.4-.09.69-.24,0,0,0,0,0,0,0,0,0,0,.01,0,.03-.02.06-.04.09-.06.05-.03.09-.07.14-.1,0,0,0,0,0,0,.02-.02.04-.04.06-.06.04-.04.08-.09.13-.13,0-.01.08-.1.1-.13.04-.06.08-.12.12-.19,0-.02.06-.11.07-.13.04-.08.08-.17.12-.25.26-.6.41-1.47.29-2.19-.1-.62-.41-1.13-.87-1.54-.25-.22-.37-.3-.66-.43-.13-.06-.27-.11-.41-.14-.03,0-.22-.05-.15-.04.07.01-.09,0-.13-.01-.14-.01-.27-.01-.41,0-.03,0-.03,0-.05,0,0,0,0,0-.01,0-.05.02-.12.03-.17.04-.02,0-.02,0-.02,0-.01,0,0,0-.03.02,0,0-.02.01-.03.02-.03.02-.08.05-.1.06,0,0,0,0,0,0-.02.02-.01.01-.02.02,0,0,0,0,0,.01-.04.06-.08.11-.11.17.12-.17.02-.03-.02.06-.04.07-.08.14-.11.21-.16.34-.33.65-.54.95-.04.13-.07.27-.11.4-.03.13-.44.54-.52.25-.03-.11-.05-.22-.07-.33-.06-.05-.1-.11-.14-.2-.02-.04-.08-.2-.1-.3-.05-.25.02-.53.1-.77.17-.52.51-1.01.91-1.38.71-.65,1.67-1.01,2.62-.79,1.51.36,2.42,1.9,2.49,3.37.09,1.78-.83,3.91-2.52,4.67ZM154.99,137.05c-.72.06-1.52-.4-2.07-.84-.6-.49-1.14-1.05-1.74-1.54-1.08-.89-2.26-1.86-3.75-1.71-.4.03-.39-.45-.27-.7.17-.37.54-.64.94-.68.19-.01.38-.03.56-.07.1-.02.2-.05.3-.07.14-.04.04,0,.13-.04.07-.03.14-.06.21-.1.03-.01.03-.02.04-.02,0,0,0,0,.03-.02.02-.01.07-.05.11-.08.03-.03.07-.07.09-.08,0,0,0,0,0,0,0-.01,0-.02.03-.04.03-.04.03-.04.03-.04.03-.05.06-.11.08-.17,0-.02,0-.02.01-.02,0,0,0-.01,0-.04.09-.32.1-.36.09-.69-.02-.89-.45-1.85-1.12-2.49-.16-.15-.35-.3-.46-.36-.09-.05-.19-.09-.28-.12-.04-.01-.09-.03-.13-.04-.02,0-.03,0-.04-.01,0,0,0,0-.02,0-.07,0-.28,0-.23,0,.03,0-.1.03-.12.04-.03.01-.07.03-.1.05-.01.01-.03.02-.04.04.13-.16-.12.14-.08.08.07-.08-.21.31-.14.19-.09.15-.16.31-.23.46-.15.36-.26.74-.35,1.12-.27,1.11-.26,2.18-.12,3.31.15,1.24.4,2.47.49,3.72.04.56.04,1.12-.06,1.67-.1.55-.34,1.02-.57,1.53-.07.15-.51.34-.41.05.21-.6.07-1.37.03-2-.04-.75-.18-1.48-.31-2.21-.26-1.47-.64-3-.5-4.51.15-1.67.72-3.93,2.41-4.68,1.11-.49,2.2.13,2.86,1.04.7.97,1.11,2.26.78,3.44-.16.59-.47,1.06-.86,1.44.81.26,1.57.67,2.23,1.19.66.51,1.32,1.08,1.89,1.69.47.51,1,1.28,1.02,1.99,0,.18-.19.34-.35.35ZM158.61,124.47c-.25.12-.54.16-.8.25-.23.08-.46.14-.71.19-.25.05-.5.09-.75.14.02.01.05.02.06.05.08.23.19.38.21.64.02.26,0,.53,0,.79,0,.54.02,1.08.04,1.63.05,1.11.14,2.23.27,3.34.25,2.21.62,4.41.83,6.63.01.15-.31.45-.41.25-.96-1.95-1.4-4.13-1.65-6.28-.14-1.18-.21-2.36-.22-3.55,0-.56.02-1.11.06-1.66.04-.6.17-1.04.39-1.6.02-.05.09-.12.18-.18-.12.02-.24.04-.36.07-.46.09-.92.18-1.39.22-.23.02-.46.03-.69,0-.22-.02-.31-.1-.37-.26l-.06-.02c-.19-.05.08-.34.17-.36.02,0,.04,0,.07-.01.21-.17.41-.26.69-.33.23-.05.46-.09.69-.14.45-.1.91-.18,1.37-.27.46-.1.93-.2,1.4-.24.23-.02.45,0,.67.06.18.04.4.07.55.18.17.13-.12.43-.23.48Z"/>
  <path d="M82.92,56.71s0-.09.02-.14c.01-.16.04-.31.07-.46,0-.07-.02-.15-.02-.22,0-.02.02-.05.02-.08-.05.06-.11.1-.15.17-.19.31-.23.75-.29,1.14-.03.22.24.06.29-.04.02-.05.05-.09.08-.14,0-.08-.01-.16,0-.24Z"/>
  <path d="M94.51,168.89c.14-.13.25-.26.37-.39.04-1.5.08-3,.07-4.5-.01-1.91.07-3.81,0-5.72-.15-4.24-.58-8.48-.89-12.71-.3-4.14-.61-8.27-1.15-12.39-.6-4.61-1.21-9.21-1.82-13.82-1.22-9.19-2.31-18.4-3.25-27.62-.89-8.79-1.71-17.59-2.65-26.38-.11-1.01-.13-2.07-.33-3.06-.06-.32-.2-.67-.24-.93-.14-.97-.18-1.94-.27-2.91-.05-.54-.07-1.13-.16-1.69-.04,0-.08,0-.11.01-.08.04-.15.07-.21.07,0,0,0,0-.01,0h0c-.02.31-.55.81-.8.64,0,.6,0,1.19,0,1.79,0,.95-.02,1.93.1,2.88.04.34.14.66.21,1,.09.45.07.96.1,1.42.04.52.08,1.04.11,1.56.62,8.65,1.21,17.3,2,25.93.82,8.98,1.88,17.92,2.94,26.88,1.01,8.57,2.3,17.1,2.93,25.71.3,4.12.58,8.23.97,12.34.18,1.88.42,3.75.81,5.6.17.8.26,1.63.39,2.44.11.74.31,1.46.42,2.19.09.65.2,1.29.32,1.93.03.17.2.08.35-.05-.05.02-.1.03-.13.04-.2.06-.14-.2-.05-.28Z"/>
  <path d="M152.38,41.66c-.13.13-.35.25-.52.13-.16-.12-.08-.35-.05-.51.02-.1.04-.2.05-.3-2.31.38-4.6.84-6.9,1.27-4.97.94-9.94,1.91-14.91,2.91-10.04,2.03-20.04,4.25-30.03,6.52-2.77.63-5.54,1.24-8.29,1.94-2.5.64-5.12,1.12-7.55,2.03.12.1.23.21.35.31.25.22-.03.57-.32.75,0,.02,0,.03,0,.05.85-.1,1.7-.26,2.55-.43,1.19-.24,2.36-.53,3.55-.77,2.45-.51,4.9-1.05,7.34-1.59,4.96-1.09,9.94-2.14,14.92-3.17,9.94-2.04,19.88-4.05,29.85-5.96,2.71-.52,5.42-1.03,8.13-1.53,2.66-.49,5.23-1.33,7.81-2.14.06-.12.13-.23.2-.34.09-.15.43-.4.68-.4,0,0,0,0-.02,0-2.17.08-4.35.11-6.5.41-.02.1-.04.2-.06.31-.04.2-.14.36-.28.5Z"/>
  <path d="M83.16,55.66c.04-.09.09-.18.13-.27-.15.11-.25.28-.27.43.05-.05.09-.12.15-.15Z"/>
  <path d="M84.35,55.91c-.09.12-.17.24-.26.36.05.15.09.3.12.46.29-.18.57-.53.32-.75-.12-.1-.23-.21-.35-.31,0,0,0,0-.01,0-.03.07-.06.15-.08.23.09,0,.18,0,.26.01Z"/>
  <path d="M84.17,55.66s0,0,0,.01c0,0,0,0,.01,0,0,0,0,0,0,0Z"/>
  <path d="M84.08,55.9c-.02.05-.04.1-.06.16.03.07.04.14.06.21.09-.12.17-.24.26-.36-.09,0-.18,0-.26-.01Z"/>
  <path d="M83.88,56.86s0,0,.01,0c.06,0,.13-.03.21-.07-.07,0-.14.02-.22.02,0,.02,0,.03,0,.05Z"/>
  <path d="M83.92,56.5c.05-.08.11-.15.17-.23-.02-.07-.04-.14-.06-.21-.04.14-.08.29-.1.44Z"/>
  <path d="M84.09,56.27c-.05.08-.11.15-.17.23-.02.11-.03.21-.04.32.07,0,.14-.01.22-.02.04-.02.07-.04.11-.06-.03-.16-.07-.31-.12-.46Z"/>
  <path d="M83.01,56.11s.02-.05.02-.08c0,0,0,0,0,0,.04-.13.07-.25.12-.37-.05.04-.1.1-.15.15,0,.03-.02.05-.02.08,0,.07.02.15.02.22Z"/>
  <path d="M84.1,56.79s.08,0,.11-.01c0-.02,0-.03,0-.05-.04.02-.07.04-.11.06Z"/>
  <path d="M82.92,56.71s.01-.09.02-.14c-.01.05-.02.1-.02.14Z"/>
  <path d="M168.23,153.21c-.09,0-.19,0-.28,0-.15.37-.47.69-.82.86-.4.19-.87.14-.92-.36-.02-.15-.02-.29-.04-.44-3.76.22-7.44,1.06-11.14,1.79-5.31,1.05-10.61,2.13-15.91,3.23-5.26,1.09-10.51,2.24-15.75,3.41-2.28.51-4.57,1.03-6.85,1.56-2,.47-4,1.07-6.04,1.34-2.56.34-5.12.64-7.66,1.07-1.3.22-2.59.47-3.87.79-.57.14-1.13.31-1.69.51-.63.22-1.35.47-1.82.97-.18.19-.36.38-.54.56,0,.12,0,.24,0,.35,0,.07-.09.18-.19.27.12-.04.25-.09.35-.07.17.03.28.17.48.18.51.02,1.11-.27,1.6-.41,1.18-.33,2.38-.6,3.59-.83,2.55-.48,5.12-.79,7.7-1.11,1.12-.14,2.25-.24,3.35-.51.95-.23,1.9-.46,2.85-.69,2.21-.52,4.42-1.02,6.63-1.51,5.11-1.14,10.25-2.18,15.37-3.25,5.29-1.1,10.58-2.18,15.88-3.23,2.45-.49,4.9-.97,7.35-1.45,1.14-.22,2.27-.46,3.39-.75,1.08-.28,2.15-.67,3.22-1.03.5-.17,1-.32,1.5-.5.2-.07.79-.75.28-.76Z"/>
  <path d="M94.88,168.86c0-.12,0-.24,0-.35-.12.13-.24.26-.37.39-.09.08-.15.34.05.28.04-.01.09-.03.13-.04.1-.09.18-.2.19-.27Z"/>
  <path d="M159.02,40.98c-.18.06-.36.11-.54.17.21.08.41.16.62.24-.33.23-.56.57-.66.96-.02.07-.12.17-.21.21-.04.61-.03,1.23-.02,1.86.02,1.08.05,2.16.09,3.25.08,2.13.17,4.25.28,6.37.21,4.25.48,8.49.79,12.74.59,8.03,1.31,16.04,2.09,24.05.6,6.15,1.26,12.29,1.84,18.44.69,7.23,1.18,14.48,1.65,21.72.45,6.98.82,13.96,1.1,20.94.02.45.07.89.12,1.33.59-.03,1.19-.06,1.78-.06.05-.12.08-.25.08-.38.11-2.85-.14-5.74-.28-8.59-.18-3.69-.38-7.37-.61-11.05-.47-7.49-1.07-14.97-1.83-22.43-.64-6.17-1.23-12.34-1.85-18.51-.77-7.69-1.48-15.39-2.08-23.1-.67-8.54-1.13-17.08-1.52-25.64-.02-.48-.04-.96-.08-1.44-.05-.53-.12-.96-.29-1.46-.05-.13-.14-.17-.25-.17.31.01-.06.49-.22.54Z"/>
  <path d="M158.06,42.49c.02.11.09.11.17.07.03-.46.08-.92.18-1.39-.02,0-.04.01-.05.02-.21.4-.36.85-.29,1.3Z"/>
  <path d="M158.44,42.35c.1-.39.33-.73.66-.96-.21-.08-.41-.16-.62-.24-.02,0-.05.01-.07.02-.1.46-.15.92-.18,1.39.09-.04.19-.14.21-.21Z"/>
  <path d="M158.55,40.85c-.07.11-.14.22-.2.34.02,0,.04-.01.05-.02,0-.01,0-.03,0-.04.02,0,.04.02.06.02.18-.06.36-.11.54-.17.15-.05.52-.52.22-.54-.25,0-.59.25-.68.4Z"/>
  <path d="M158.42,41.13s0,.03,0,.04c.02,0,.05-.01.07-.02-.02,0-.04-.02-.06-.02Z"/>
  <path d="M166.2,153.72c.06.5.53.55.92.36.35-.16.67-.49.82-.86-.6,0-1.19.02-1.78.06.02.15.02.29.04.44Z"/>
  <path d="M82.99,56.84s-.04.07-.06.11c0,.12,0,.23.03.35.02.11.06.16.12.2,0-.21,0-.42,0-.63-.03,0-.05-.01-.07-.02Z"/>
  <path d="M83.78,55.32s-.03-.02,0,0c0,0,0,0,0,0,.04.03.13.1.14.11.08.07.16.14.24.22,0,0,0,0,.01.01.05-.11.1-.21.15-.3.31-.5.68-.88,1.11-1.22,1.22-.96,2.68-1.6,4.12-2.14,3.29-1.24,6.77-1.9,10.21-2.58,4.51-.89,8.99-1.93,13.49-2.87,6.39-1.33,12.76-2.79,19.08-4.45,3.55-.93,7.06-2.04,10.62-2.92,1.77-.44,3.55-.83,5.33-1.19.89-.18,1.78-.35,2.66-.6.69-.2,1.35-.46,2.01-.73.09-.27.16-.53.39-.72.07-.06.19-.09.26-.03.11.09.05.29.02.41,0,.03-.01.05-.02.08.05-.02.09-.04.13-.06.15-.06.45-.49.13-.51-.71-.04-1.41-.14-2.12-.08-.85.07-1.68.23-2.52.39-1.62.33-3.24.68-4.85,1.06-3.3.78-6.54,1.8-9.81,2.68-6.53,1.76-13.12,3.29-19.71,4.84-4.77,1.12-9.55,2.21-14.35,3.19-3.59.73-7.2,1.55-10.63,2.83-1.79.66-3.58,1.48-5.03,2.74-.6.51-1.17,1.17-1.53,1.9.16-.12.35-.18.5-.07Z"/>
  <path d="M83.02,56.3s0,0,0,0c0,0-.02,0,0,0Z"/>
  <path d="M83.88,56.86h0c-.23,0-.47.02-.7.03-.05,0-.08-.01-.11-.02,0,.21,0,.42,0,.63.25.17.78-.33.8-.64Z"/>
  <path d="M82.92,56.71c0,.08,0,.16,0,.24.02-.04.04-.07.06-.11-.05-.03-.07-.08-.07-.14Z"/>
  <path d="M83.03,56.33s0-.03,0-.03c0,0,0,0,0,0,0,0,0,0,0,0,0,0,0,0,0,0,0-.06-.01-.13-.02-.19-.04.15-.06.3-.07.46.02-.07.05-.14.09-.21,0,0,0-.03,0-.03Z"/>
  <path d="M83.05,56.05s-.01-.02-.01-.02h0s0,0,.01.02c0,0,0,0,0,0Z"/>
  <path d="M83.03,56.3s0,0,0,0c0,0,.01,0,0,.03,0,0,0,.03,0,.03,0,0,0,0,0-.01,0-.02,0-.03,0-.05Z"/>
  <path d="M83.82,55.72c0-.08.02-.16.02-.24l-.18.13c.05.03.1.06.15.12Z"/>
  <path d="M82.99,56.84s.05.02.07.02c0-.05,0-.1,0-.15-.02.04-.05.08-.07.13Z"/>
  <path d="M83.67,55.61l.18-.13c0,.08-.02.16-.02.24.01.02.03.04.04.06.1-.04.2-.07.3-.11,0,0,0,0,0-.01,0,0,0,0-.01-.01-.08-.07-.16-.15-.24-.22,0,0-.1-.08-.14-.11-.14-.11-.34-.05-.5.07-.04.09-.09.18-.13.27.17-.12.35-.13.51-.05Z"/>
  <path d="M84.03,56.06c.02-.06.04-.11.06-.16-.05,0-.09,0-.14,0,.02.03.04.04.06.08.01.03.02.06.03.09Z"/>
  <path d="M83.78,55.32s0,0,0,0c-.03-.02-.02-.02,0,0Z"/>
  <path d="M84.08,55.9c.03-.08.05-.16.08-.23-.1.04-.2.07-.3.11.03.04.06.07.08.11.05,0,.09,0,.14,0Z"/>
  <polygon points="83.29 56.33 83.29 56.33 83.3 56.32 83.29 56.33"/>
  <path d="M83.18,56.89c.23,0,.47-.02.7-.03,0-.02,0-.03,0-.05-.24.02-.47.07-.71.07Z"/>
  <path d="M83.25,56.29c.05-.03.1-.08.14-.08.06,0-.02.05-.09.11,0,0,0,0,0,0,.03.03.06.06.09.1,0,0,0,0,.01.01.09-.19.18-.37.27-.56.05,0,.1,0,.15,0,0-.03,0-.06,0-.09-.13.05-.27.09-.4.15-.07.03-.17.12-.26.24,0,0,0,0,0,0,.03.03.06.07.09.1Z"/>
  <path d="M83.29,56.33s0,0,0,0c-.02.02-.05.04-.06.06.03-.04.04-.05.06-.07,0-.01-.02-.02-.03-.03,0,0-.02.01-.03.02.03,0,.05,0-.03.02,0,0,.02-.01.03-.02-.04,0-.11,0-.16,0,0,.01-.01.03-.02.04l.02.21s.02.08.03.1c.04-.07.08-.15.13-.22.01-.02.05-.07.07-.11Z"/>
  <path d="M83.25,56.29s-.06-.07-.09-.1c0,0,0,0,0,0-.03.04-.06.08-.09.13.05,0,.13,0,.16,0,0,0,.02,0,.03-.02Z"/>
  <path d="M83.04,56.35s0,0,0,.01c0,.06.03.19.03.28,0,.03,0,.05,0,.08.01-.02.02-.04.03-.06-.02-.03-.03-.06-.03-.1l-.02-.21Z"/>
  <path d="M83.23,56.3s-.02.02-.03.02c.08-.02.07-.02.03-.02Z"/>
  <path d="M83.06,56.31s-.02,0-.03,0c0,.02,0,.03,0,.05,0-.01.01-.03.02-.04Z"/>
  <path d="M83.3,56.32c.07-.06.16-.11.09-.11-.03,0-.09.04-.14.08.01.01.02.02.03.03.04-.04.04-.04.01,0Z"/>
  <path d="M83.28,56.32s0,0,0,0c0,0,0,0,0,0,.02-.04.02-.04-.01,0Z"/>
  <path d="M83.1,56.66s-.02.04-.03.06c0,.05,0,.1,0,.15.03,0,.06.02.11.02.02-.05.05-.1.07-.15-.06,0-.12-.01-.15-.08Z"/>
  <path d="M83.67,55.61c-.16-.08-.34-.07-.51.05-.05.12-.08.25-.12.37,0,0,.01.01.01.02.21-.15.41-.3.62-.44Z"/>
  <path d="M83.23,56.38s.04-.04.06-.06c0,0,0,0,0,0-.01.02-.02.03-.06.07Z"/>
  <path d="M83.92,56.5c-.07.1-.14.2-.21.29-.06-.07-.12-.14-.19-.2-.09.08-.19.14-.28.15-.02.05-.05.1-.07.15.24,0,.47-.05.71-.07,0-.1.02-.21.04-.32Z"/>
  <path d="M83.06,56.31s.06-.09.09-.13c-.02-.02-.08-.09-.1-.13,0,0,0,0,0,0-.02-.02-.02-.03-.01-.02,0,.03-.02.05-.02.08,0,.06.01.13.02.19,0,0,0,0,.03,0Z"/>
  <path d="M83.06,56.64c0-.09-.03-.21-.03-.28-.04.07-.07.14-.09.21,0,.05-.01.09-.02.14,0,.06.02.11.07.14.02-.04.05-.08.07-.13,0-.03,0-.05,0-.08Z"/>
  <path d="M83.86,55.78s-.03-.04-.04-.06c0,.02,0,.05,0,.07.02,0,.03-.01.05-.02Z"/>
  <path d="M84,55.97s-.04-.05-.06-.08c-.05,0-.09,0-.14,0-.01.11-.02.22-.03.33-.01.11-.12.26-.25.37.06.07.12.14.19.2.07-.1.14-.2.21-.29.03-.15.06-.29.1-.44-.01-.03-.01-.06-.03-.09Z"/>
  <path d="M83.25,56.74c.09-.01.19-.07.28-.15-.05-.05-.09-.1-.14-.15-.05.1-.1.2-.14.3Z"/>
  <path d="M83.77,56.21c.01-.11.02-.22.03-.33-.05,0-.1,0-.15,0-.09.19-.18.37-.27.56.05.05.09.1.14.15.13-.11.24-.26.25-.37Z"/>
  <path d="M83.81,55.89s.09,0,.14,0c-.02-.05-.05-.08-.08-.11-.02,0-.03.01-.05.02,0,.03,0,.06,0,.09Z"/>
  <path d="M83.16,56.18c.09-.11.19-.21.26-.24.13-.06.27-.09.4-.15,0-.02,0-.05,0-.07-.05-.05-.1-.09-.15-.12-.21.15-.41.3-.62.44.03.04.09.11.1.13Z"/>
  <path d="M83.38,56.42s-.06-.06-.09-.1c-.02.04-.06.08-.07.11-.04.07-.08.15-.13.22.03.06.09.08.15.08.05-.1.1-.2.14-.3,0,0,0,0-.01-.01Z"/>
  <polygon points="152.18 38.97 152.19 38.97 152.19 38.96 152.18 38.97"/>
  <path d="M152.93,36.68c-.06.18-.11.35-.17.51-.11.28-.2.57-.3.86-.05.15-.1.3-.15.45,0,.01,0,.02-.01.04,0,0,0,0,0,0,.04-.09-.03.08-.01.03,0-.01,0-.02.01-.03-.01.03-.02.05-.03.08-.05.12-.07.22-.08.35,0,0-.01.12,0,.05,0,0,0,0,0,0,0,.05-.01.1-.02.16,0,.02,0,.05,0,.07,0,0,0,0,0,.01,0,0,0,0,0,0,.01-.08,0,.08,0,.04,0-.01,0-.02,0-.03-.01.07-.02.15-.03.22-.04.28-.09.56-.14.84-.04.21-.07.41-.11.62,0,.02,0,.04-.01.06.14-.02.28-.05.42-.07.14-.02.29-.03.43-.05,0-.02,0-.04.01-.06.03-.19.07-.38.1-.57.05-.27.09-.55.13-.82.03-.25.09-.52.07-.78,0-.03,0-.06,0-.09h0s0,.01,0,.02c-.02.06,0-.12,0-.05,0,0,0,.02,0,.03.04-.17.09-.34.14-.51.07-.26.15-.51.21-.78.04-.2.09-.39.15-.59.02-.09.05-.17.07-.26-.21.09-.43.17-.64.26,0,0,0,.02,0,.03Z"/>
  <path d="M153.01,38.55s0-.02,0-.03c0,0,0-.02,0-.03-.01-.06-.02.12,0,.05Z"/>
  <path d="M152.18,39.01s0,0,0,0c0,.07,0-.05,0-.05,0,0,0,0,0,0,0,.01,0,.03,0,.04Z"/>
  <path d="M152.15,39.24s0,0,0,0c0,.01,0,.02,0,.03,0,.04.02-.12,0-.04Z"/>
  <path d="M152.3,38.53s0,0,0,0c0,.01,0,.02-.01.03-.01.05.05-.13.01-.03Z"/>
  <path d="M152.18,38.98v.03s0-.03,0-.04c0,0,0,0,0,.01Z"/>
  <path d="M151.86,40.98c-.02.1-.04.2-.05.3-.03.16-.1.4.05.51.17.12.4,0,.52-.13.14-.15.24-.31.28-.5.02-.1.04-.2.06-.31-.15.02-.29.03-.43.05-.14.02-.28.05-.42.07Z"/>
  <path d="M153.58,35.9c-.07-.06-.19-.02-.26.03-.22.19-.3.45-.39.72.21-.09.42-.17.64-.26,0-.03.01-.05.02-.08.03-.12.09-.32-.02-.41Z"/>
  <path d="M135.16,104.4s-.02.01-.03.02c-.06.04.02,0,.03-.02Z"/>
  <path d="M137.22,102.98s-.06.05-.09.07c-.37.28-.74.55-1.12.81-.2.13-.4.26-.6.39-.09.06-.19.12-.28.17-.01,0,0,0,0,0,.01,0,.02-.01.03-.02-.02.01-.1.06-.03.02-.05.03-.1.06-.16.09-.81.46-1.64.88-2.51,1.23-.75.31-1.63.59-2.55.81-.91.22-1.77.36-2.66.42-1.96.15-3.94-.02-5.84-.5-.19-.05-.37-.11-.56-.17.33.55.58,1.06.59,1.72,0,.18-.23.43-.42.36-.75-.27-1.14-.94-1.55-1.58-.26-.41-.52-.83-.79-1.24-1.35-.55-2.64-1.24-3.81-2.12-1.21-.91-2.3-1.98-3.27-3.14-1.13-.31-2.25-.72-3.2-1.39-.17-.12.17-.47.32-.44.59.1,1.18.23,1.76.37-.18-.26-.37-.51-.54-.78-1.46-2.31-2.55-4.96-3.2-7.69-.13-.06-.25-.13-.39-.25-.13-.1.11-.3.2-.33.02,0,.04,0,.05-.01-.35-1.66-.54-3.35-.53-5.01,0-.64.07-1.29.15-1.94-.32.33-.63.67-.97.98-.16.15-.57.18-.39-.15.41-.75.96-1.44,1.56-2.07.17-.89.4-1.78.66-2.64.6-1.97,1.42-3.96,2.74-5.56.14-.17.53-.57.72-.74.32-.27.6-.53.99-.75.07-.04.13-.1.2-.16.01-.27.03-.55.05-.82-.04,0-.07-.04-.12-.02-2.09.64-3.46,2.55-4.5,4.36-1.19,2.07-2.01,4.38-2.54,6.69-1.05,4.54-.28,9.46,1.47,13.74,1.96,4.81,5.41,9.06,10.13,11.37,3.99,1.95,8.67,2.5,13,1.52,2.88-.65,5.57-1.96,7.96-3.69-.12-.61-.05-1.26.06-1.91Z"/>
  <path d="M114.75,68.22c1.14-.62,2.26-1.26,3.45-1.77,1.12-.49,2.29-.9,3.48-1.22-.03-.07-.07-.15-.1-.22-.11-.23.39-.73.58-.49.13.16.23.35.36.53.92-.21,1.84-.39,2.77-.49,1.67-.18,3.37-.15,5.03.06-.1-.09-.19-.19-.3-.27-.25-.2.26-.58.46-.54.91.19,1.67.66,2.32,1.29,2.23.59,4.35,1.57,6.21,3.01,2.17,1.68,3.95,3.81,5.24,6.21.37.18.72.38,1.04.63.26.2-.1.56-.4.68.37.84.7,1.7.95,2.59.29,1.03.48,2.08.6,3.13.48-.22.93-.46,1.43-.62.54-.17.36.54.14.75-.42.4-.94.7-1.47.96.14,2.31-.1,4.63-.65,6.85-.37,1.53-.83,2.86-1.44,4.23.02-.02.05-.04.07-.06.74-.74,1.27-1.66,2.12-2.28.11-.08.3-.12.32.06.06.61-.3,1.11-.65,1.57-.4.52-.85,1.01-1.32,1.46-.48.46-1,.89-1.54,1.29-.06.12-.12.24-.19.35-.25.43-.32.56-.63,1.05-.53.83-1.1,1.62-1.71,2.38-.07.09-.14.18-.21.26-.03.03-.08.1-.11.13.01-.01.02-.03.03-.04-.07.08-.06.07-.03.04-.16.19-.32.37-.49.55-.31.35-.64.68-.97,1.01-.16.16-.34.31-.5.47-.1.78-.17,1.56-.4,2.3.59-.47,1.16-.97,1.71-1.49,3.01-2.89,5.38-6.5,6.86-10.39,1.47-3.86,2.16-8.06,1.65-12.18-.52-4.17-2.24-8.08-5.07-11.2-1.75-1.93-3.8-3.54-6.17-4.64-2.34-1.09-4.91-1.66-7.49-1.78-2.62-.12-5.27.22-7.79.92-2.61.73-5.38,1.8-7.59,3.41-.57.41-1.09.87-1.59,1.35.07.38.09.77.09,1.16.63-.34,1.27-.66,1.91-1Z"/>
  <path d="M140.63,99.69s-.02.03-.03.04c-.03.03-.03.04.03-.04Z"/>
  <path d="M111.32,69.47c-.32.31-.14.79.3.48.08-.06.17-.1.25-.15.04-.35.1-.7.17-1.04-.24.24-.48.48-.73.71Z"/>
  <path d="M125.85,73.2c3.12-.37,6.29-.35,9.41.06-.11-.41-.24-.81-.36-1.21-2.14-.22-4.3-.27-6.44-.13-.95.06-1.89.17-2.83.3,0,.03.02.06.02.08.08.3.13.6.2.9Z"/>
  <path d="M118.92,74.71c1.89-.62,3.84-1.06,5.8-1.36-.08-.32-.16-.64-.24-.95-4.23.72-8.33,2.16-12.02,4.38-.01.31-.04.62-.05.94,2.04-1.25,4.23-2.26,6.5-3Z"/>
  <path d="M111.33,78.39c.01-.28.02-.57.03-.85,0-.02,0-.05,0-.07-1.16.77-2.28,1.61-3.32,2.55-.55.49-1.11,1.01-1.63,1.57-.08.41-.14.83-.2,1.24.64-.67,1.28-1.35,1.96-1.97.98-.9,2.05-1.72,3.15-2.46Z"/>
  <path d="M137.24,72.38c-.26-.04-.53-.07-.8-.11.12.41.24.83.35,1.25,1.15.2,2.29.44,3.42.75,1.51.42,2.95,1.11,4.48,1.38.06,0,.13,0,.21-.04-.2-.44-.41-.88-.64-1.31-.89-.43-1.87-.7-2.8-.97-1.38-.4-2.79-.72-4.21-.96Z"/>
  <path d="M145.31,74.93c-.32-.25-.68-.45-1.04-.63.23.43.45.86.64,1.31.3-.12.66-.47.4-.68Z"/>
  <path d="M104.85,83.66c-.18.33.23.3.39.15.34-.31.65-.65.97-.98.05-.42.12-.83.2-1.24-.6.64-1.16,1.32-1.56,2.07Z"/>
  <path d="M116.04,101.13c-.23-.42-.45-.84-.66-1.26-.4-.06-.81-.1-1.21-.18-1.24-.24-2.47-.57-3.7-.86.35.5.72.99,1.12,1.46.49.13.98.25,1.47.35.98.21,1.98.36,2.98.48Z"/>
  <path d="M139.09,97.01c-.02.37-.05.73-.08,1.1.92-.42,1.83-.88,2.7-1.4.6-.36,1.19-.75,1.75-1.17.17-.31.34-.63.5-.95.18-.37.35-.73.51-1.09-.77.76-1.64,1.41-2.55,1.99-.9.57-1.85,1.07-2.83,1.51Z"/>
  <path d="M119.95,100.31c-.94-.04-1.88-.1-2.82-.2.18.33.34.66.52.99.04.07.08.14.12.2.13.01.26.03.4.04,2.95.22,5.97.2,8.91-.12-.02-.37-.04-.75-.05-1.12-2.34.23-4.71.3-7.08.2Z"/>
  <path d="M137.79,97.56c-.82.33-1.66.63-2.5.9-2.26.71-4.57,1.19-6.89,1.49.02.37.04.74.07,1.11,3.14-.43,6.3-1.2,9.26-2.39v-.05c.03-.35.04-.7.07-1.06Z"/>
  <path d="M143.46,95.55c.54-.4,1.05-.83,1.54-1.29.47-.45.92-.94,1.32-1.46.35-.46.71-.96.65-1.57-.02-.18-.21-.14-.32-.06-.84.62-1.37,1.54-2.12,2.28-.02.02-.05.04-.07.06-.16.36-.32.72-.51,1.09-.16.32-.33.64-.5.95Z"/>
  <path d="M108.71,98.46c-.15-.02-.49.32-.32.44.95.67,2.07,1.08,3.2,1.39-.4-.47-.77-.96-1.12-1.46-.58-.14-1.17-.27-1.76-.37Z"/>
  <path d="M144.42,82.08c-1.18.36-2.37.63-3.56.94-.77.2-1.54.43-2.3.68.05.37.1.74.14,1.11.41-.13.81-.27,1.22-.39,1.39-.38,2.8-.68,4.18-1.1.8-.24,1.66-.52,2.44-.9-.02-.37-.06-.73-.1-1.09-.05.02-.1.05-.15.07-.61.27-1.24.48-1.88.68Z"/>
  <path d="M108.08,90.63c.77.07,1.54.05,2.31.05.53,0,1.07-.05,1.6-.06-.08-.38-.15-.77-.22-1.16-.04,0-.09,0-.13,0-1.64.03-3.49-.24-5.05.31.04.2.09.39.14.59.12.05.24.09.41.13.31.06.62.12.94.15Z"/>
  <path d="M131.77,87.1c1.44-.44,2.88-.91,4.31-1.4.44-.15.89-.31,1.33-.47-.05-.37-.09-.74-.14-1.11-1.42.49-2.83,1-4.25,1.45-1.72.54-3.46,1.03-5.21,1.49.02.38.05.76.07,1.15,1.31-.35,2.61-.71,3.9-1.11Z"/>
  <path d="M123.31,89.29c1.09-.22,2.17-.49,3.25-.76-.02-.38-.05-.76-.07-1.14-3.33.82-6.71,1.46-10.12,1.79-1.11.11-2.22.15-3.33.19.08.4.16.79.25,1.18.49-.03.97-.02,1.46-.06,2.87-.22,5.74-.63,8.56-1.21Z"/>
  <path d="M148.02,81.47c.22-.21.4-.93-.14-.75-.5.16-.96.4-1.43.62.04.36.08.73.1,1.09.54-.26,1.05-.56,1.47-.96Z"/>
  <path d="M106.54,89.78c-.08.03-.32.22-.2.33.14.11.26.19.39.25-.05-.2-.09-.39-.14-.59-.02,0-.04,0-.05.01Z"/>
  <path d="M112.05,71.22c-.01.21-.16.37-.33.51-.02.39-.04.78-.07,1.16-.12,1.52-.21,3.05-.29,4.58.19-.12.36-.26.55-.38.18-.11.36-.21.54-.32.06-1.26.12-2.52.19-3.78.05-.86.09-1.72.14-2.58.02-.39.05-.79.05-1.19-.33.18-.65.37-.97.58-.04.37-.08.74-.1,1.12.17.01.29.12.28.31Z"/>
  <path d="M112.76,68.05c-.07-.35-.59.16-.63.3-.04.13-.05.27-.08.41.24-.23.47-.47.71-.69,0,0,0-.01,0-.02Z"/>
  <path d="M112.64,86.83c-.31-2.92-.33-5.86-.24-8.8,0-.11.01-.22.02-.32-.31.19-.63.37-.94.58-.05.03-.1.07-.15.11-.11,2.73-.14,5.48.07,8.21.07.96.21,1.91.38,2.85.42,0,.84-.06,1.27-.07-.17-.84-.31-1.69-.41-2.55Z"/>
  <path d="M114.46,94.41c-.46-1.26-.86-2.54-1.17-3.85-.43.02-.86.04-1.3.05.69,3.22,1.88,6.31,3.38,9.25.58.09,1.16.19,1.75.25-1.01-1.84-1.94-3.73-2.66-5.7Z"/>
  <path d="M119.6,104.35c-.63-1-1.24-2.02-1.83-3.04-.58-.05-1.15-.11-1.73-.18.01.02.03.05.04.07.69,1.25,1.42,2.47,2.17,3.68.14.22.28.45.42.67.71.29,1.43.54,2.17.75-.02-.03-.03-.06-.05-.09-.39-.63-.8-1.24-1.19-1.87Z"/>
  <path d="M119.46,106.8c.41.65.81,1.31,1.55,1.58.19.07.42-.18.42-.36-.01-.66-.26-1.17-.59-1.72-.74-.21-1.46-.46-2.17-.75.26.41.52.83.79,1.24Z"/>
  <path d="M112.76,68.07c-.24.23-.47.46-.71.69-.07.34-.13.69-.17,1.04.32-.21.64-.4.97-.58,0-.39-.01-.78-.09-1.16Z"/>
  <path d="M112.05,71.22c.01-.19-.11-.3-.28-.31-.02.27-.03.55-.05.82.16-.14.31-.3.33-.51Z"/>
  <path d="M111.33,78.39c.05-.03.1-.07.15-.11.31-.2.63-.39.94-.58.01-.31.03-.62.05-.94-.18.11-.37.2-.54.32-.19.12-.37.26-.55.38,0,.02,0,.05,0,.07-.01.28-.02.57-.03.85Z"/>
  <path d="M117.13,100.11c-.59-.06-1.17-.16-1.75-.25.22.42.43.85.66,1.26.58.07,1.15.13,1.73.18-.04-.07-.08-.14-.12-.2-.19-.32-.34-.66-.52-.99Z"/>
  <path d="M113.04,89.38c-.42.02-.84.06-1.27.07.07.39.13.78.22,1.16.43-.01.87-.03,1.3-.05-.09-.39-.17-.79-.25-1.18Z"/>
  <path d="M137.95,92.11c.03,1.82-.04,3.64-.16,5.46.44-.17.87-.35,1.3-.55.09-1.37.16-2.75.16-4.13.01-2.72-.23-5.39-.55-8.07-.43.14-.87.28-1.3.43.28,2.28.51,4.56.55,6.86Z"/>
  <path d="M137.91,102.43s.15-.13.17-.15c.19-.17.37-.35.56-.52,0,0,0-.02,0-.03.12-.98.23-1.96.32-2.94.02-.23.03-.45.05-.68-.42.19-.85.38-1.29.55-.09,1.05-.19,2.1-.32,3.14-.05.38-.12.77-.18,1.17.17-.13.35-.27.52-.41.03-.02.12-.1.17-.14Z"/>
  <path d="M134.9,72.06c.52.05,1.04.13,1.55.21-.36-1.19-.78-2.36-1.29-3.5-.56-1.25-1.31-2.67-2.35-3.68-.82-.21-1.65-.37-2.48-.48,2.31,1.96,3.66,4.62,4.58,7.46Z"/>
  <path d="M135.26,73.27c.25.89.47,1.79.67,2.68.5,2.27.85,4.56,1.16,6.87.06.44.11.88.17,1.32.43-.15.86-.29,1.3-.43-.04-.31-.07-.61-.12-.92-.41-3.08-.85-6.23-1.65-9.27-.4-.07-.81-.15-1.22-.21-.11-.01-.21-.02-.32-.04Z"/>
  <path d="M137.17,104.96c.1.45.77-.14.86-.32.09-.19.15-.39.22-.59-.35.28-.71.56-1.08.83,0,.03,0,.05,0,.08Z"/>
  <path d="M137.91,102.43s.02-.02,0,0c-.02.02-.03.02,0,0Z"/>
  <path d="M130.48,63.79c-.2-.04-.71.35-.46.54.11.08.19.18.3.27.84.11,1.67.27,2.48.48-.65-.63-1.41-1.11-2.32-1.29Z"/>
  <path d="M138.08,102.28s-.14.12-.17.15c.02-.02.04-.03,0,0-.03.03-.02.02,0,0-.05.04-.14.12-.17.14-.17.14-.34.28-.52.41-.11.65-.18,1.3-.06,1.91.37-.27.73-.54,1.08-.83.23-.74.3-1.52.4-2.3-.19.17-.37.35-.56.52Z"/>
  <path d="M135.58,73.3c.41.06.81.14,1.22.21-.11-.42-.22-.83-.35-1.25-.52-.08-1.03-.15-1.55-.21.13.4.25.8.36,1.21.11.01.21.02.32.04Z"/>
  <path d="M137.79,97.56c-.02.35-.03.7-.06,1.06v.05c.43-.18.86-.36,1.28-.55.03-.37.05-.73.08-1.1-.43.19-.86.38-1.3.55Z"/>
  <path d="M137.4,85.24c.43-.15.86-.29,1.3-.43-.05-.37-.09-.74-.14-1.11-.43.14-.87.29-1.3.43.05.37.1.74.14,1.11Z"/>
  <path d="M126.49,87.39c.43-.11.87-.21,1.3-.32-.29-4.66-.81-9.33-1.94-13.86-.38.04-.75.09-1.13.15.57,2.29.98,4.63,1.22,6.98.25,2.35.41,4.7.54,7.06Z"/>
  <path d="M127.94,89.37c-.02-.39-.05-.77-.07-1.16-.43.11-.87.21-1.3.32.16,3.05.26,6.1.38,9.14.03.81.06,1.62.09,2.43.46-.05.91-.1,1.37-.16-.04-.65-.09-1.29-.12-1.94-.13-2.88-.2-5.76-.35-8.64Z"/>
  <path d="M127.08,101.23c.08,1.72.2,3.44.46,5.12.13.8,1.32-.05,1.28-.61-.12-1.56-.24-3.12-.35-4.68-.35.05-.69.1-1.04.14-.12.01-.23.02-.35.03Z"/>
  <path d="M124.48,72.4c.38-.06.76-.12,1.14-.17-.68-2.5-1.56-5.09-3.11-7.2-.28.06-.56.12-.84.19,1.06,2.24,2.05,4.5,2.73,6.89.03.09.05.19.07.28Z"/>
  <path d="M122.16,64.5c-.19-.23-.69.26-.58.49.04.07.07.15.1.22.28-.07.56-.13.84-.19-.12-.17-.22-.36-.36-.53Z"/>
  <path d="M125.65,72.31s-.02-.06-.02-.08c-.38.05-.76.11-1.14.17.09.32.16.63.24.95.37-.06.75-.1,1.13-.15-.07-.3-.12-.6-.2-.9Z"/>
  <path d="M127.03,100.11c.01.37.03.75.05,1.12.12-.01.23-.02.35-.03.35-.04.69-.09,1.04-.14-.03-.37-.05-.74-.07-1.11-.46.06-.91.11-1.37.16Z"/>
  <path d="M127.86,88.21c-.02-.38-.05-.76-.07-1.15-.43.11-.87.22-1.3.32.02.38.05.76.07,1.14.43-.11.87-.21,1.3-.32Z"/>
  <path d="M105.99,139.83s-.02.01-.03.02c0,0-.02.02-.02.03-.07.07.05-.04.05-.04Z"/>
  <path d="M104.36,140.05c-.19.1-.36.25-.48.42-.15.21-.37.77.02.89.24.07.47.1.69.11,0-.02,0-.04,0-.06-.07-.45-.15-.9-.23-1.36Z"/>
  <path d="M103.01,135.6c.23-.09.46-.14.68-.18-.02-.22-.06-.43-.08-.65-.2.28-.4.55-.6.83Z"/>
  <path d="M105.76,139.96s-.03,0-.05.01c0,0,.01,0,.05-.01Z"/>
  <path d="M106.17,134.45c-.99-.55-2.17-.31-3.17.08-.28.11-.63.5-.6.83.2,2.19.65,4.35,1.06,6.51.21,1.12.4,2.25.56,3.38.08.58.16,1.16.22,1.75.05.52.06,1.08.22,1.57.1.33.57-.14.61-.29.26-1.08.12-2.33.01-3.43-.11-1.13-.29-2.26-.48-3.38-.22-.01-.45-.05-.69-.11-.4-.11-.17-.68-.02-.89.12-.17.29-.32.48-.42-.26-1.54-.51-3.08-.67-4.63-.23.04-.46.09-.68.18.2-.28.4-.55.6-.83.02.22.06.43.08.65,1.04-.17,2.03.21,2.51,1.28.25.56.33,1.17.29,1.77-.02.26-.07.54-.16.8-.02.07-.07.18-.14.31.05-.1-.23.28-.09.13-.04.05-.09.09-.13.13,0,0,.02-.01.03-.02,0,0-.12.11-.05.04,0,0,.02-.02.02-.03-.02.02-.05.04-.07.05-.13.05.11-.05-.06.03-.04.02-.13.05-.13.05.02,0,.02,0,.05-.01-.04.01-.05.01-.05.01-.14.04-.17.05-.33.04-.16,0-.32-.02-.49-.05-.19-.04-.37,0-.54.08.08.45.15.9.23,1.36,0,.02,0,.04,0,.06,3.21.15,4.38-5.45,1.57-7.01Z"/>
  <path d="M109.42,141.61c0,1.7-.1,3.38-.42,5.07-.08.43.46.12.56-.07.86-1.69.94-3.6.93-5.47-.33.15-.65.3-.99.44-.03.01-.06.01-.08.03Z"/>
  <path d="M109.79,134.41c.3.49.55,1.02.79,1.55.06-.7.16-1.39.33-2.08-.37.18-.74.36-1.11.54Z"/>
  <path d="M112.52,140.57c-.13,0-.27.04-.4.06.11.42.22.84.34,1.26.26.87.71,1.64,1.16,2.42.12.21.45-.09.44-.26-.08-.99-.1-1.99-.33-2.96-.04-.16-.09-.32-.14-.48-.11,0-.23,0-.34-.02-.24-.03-.49-.03-.73-.02Z"/>
  <path d="M110.49,139.96c-.02-1.33-.03-2.67.09-4-.23-.53-.49-1.05-.79-1.55.37-.18.74-.36,1.11-.54-.17.69-.26,1.38-.33,2.08.47,1.07.84,2.19,1.17,3.3.02.08.05.17.07.25.45-.12.92-.21,1.39-.2,0,0,.02,0,.03,0-.08-.28-.15-.57-.24-.84-.52-1.7-1.15-3.34-2.09-4.85-.32-.51-1.02.16-1.11.54-.49,2.08-.44,4.21-.38,6.34.05-.03.1-.07.16-.1.29-.16.6-.31.91-.44Z"/>
  <path d="M113.99,139.47c-.24-.11-.51-.15-.76-.16.13.43.25.86.36,1.29.12,0,.24.02.34.06.29.11.79-.4.57-.67-.16-.21-.26-.41-.51-.52Z"/>
  <path d="M111.43,139.61c-.31.1-.63.22-.94.34,0,.17,0,.34,0,.51,0,.22,0,.45,0,.67.18-.08.35-.16.53-.22.35-.12.72-.22,1.1-.28-.1-.38-.2-.75-.31-1.12-.13.03-.26.06-.39.1Z"/>
  <path d="M109.41,140.49c-.11.06-.21.12-.31.19-.1.07-.2.14-.29.23-.03.03-.04.04-.05.06.02-.02-.23.23,0,0,0,0-.04.03-.12.12-.2.19-.41.38-.55.62-.03.05-.04.17.04.18.19.04.4-.03.58-.06.24-.04.48-.12.72-.22,0-.36,0-.73,0-1.1,0,0,0-.01,0-.02Z"/>
  <path d="M108.75,140.97c-.23.23.02-.02,0,0h0Z"/>
  <path d="M110.49,139.96c-.31.13-.62.27-.91.44-.05.03-.11.07-.16.1,0,0,0,.01,0,.02,0,.37,0,.73,0,1.1.03-.01.06-.01.08-.03.33-.14.66-.3.99-.44,0-.22,0-.45,0-.67,0-.17,0-.34,0-.51Z"/>
  <path d="M113.2,139.31c-.47-.01-.93.08-1.39.2.1.37.21.75.31,1.12.13-.02.27-.06.4-.06.24-.01.49-.02.73.02.11.01.23.01.34.02-.11-.43-.24-.86-.36-1.29,0,0-.02,0-.03,0Z"/>
  <path d="M116.67,133.62c-.04.06-.26.23-.27.27,0-.02.08-.04.2-.05.06,0,.13,0,.2,0-.05-.15-.1-.3-.1-.3-.04-.02.04-.01-.03.09Z"/>
  <path d="M121.54,138.27c-.54-.48-1.14-.88-1.68-1.36-.25-.22-.45-.49-.71-.68-.01,0-.02,0-.03,0,0,0-.01,0-.09-.02.03,0,.06.01.09.02,0,0,0,0,0,0-.02,0-.05-.02-.06-.03-.06-.07,0,.01-.12-.08-.76-.55-1.57-1.26-2.04-2.08-.02-.04-.05-.12-.09-.21-.06,0-.14,0-.2,0-.12.02-.2.03-.2.05,0-.03.23-.21.27-.27.07-.1,0-.11.03-.09,0,0,.05.16.1.3.83-.06,1.83.2,2.46.71.14.11.4-.12.38-.28-.07-.49-.21-.84-.62-1.11-.21-.14-.43-.3-.67-.38-.24-.08-.54-.1-.79-.12-.75-.04-1.57.21-1.92.93-.54,1.1.84,2.34,1.56,2.99.27.25.64.62,1.03.77,0,0-.01-.01-.02-.02.08.03.15.06.23.09-.07,0-.14-.04-.21-.07.5.6,1.13,1.05,1.74,1.53.55.44,1.16.93,1.38,1.62.26.8-.16,1.88-.79,2.41-.27.23-.58.28-.92.18-.22-.07-.41-.19-.59-.32-.1-.07-.2-.17-.31-.23-.15-.08-.31-.05-.46-.15-.27-.16-.68.36-.6.6.1.32.04.5.29.77.14.15.3.26.48.36.37.21.79.28,1.21.23,1.04-.14,1.86-1,2.36-1.86.45-.76.76-1.69.58-2.57-.14-.66-.57-1.2-1.06-1.65Z"/>
  <path d="M119.12,136.23s-.06-.01-.09-.02c.08.02.1.02.09.02Z"/>
  <path d="M118.22,137.33s.01.01.02.02c.07.03.14.06.21.07-.08-.03-.15-.06-.23-.09Z"/>
  <path d="M127.53,135.14c-.36-.45-.92-.67-1.43-.9-.6-.27-1.21-.51-1.78-.83-.24-.13-.53-.3-.68-.54-.01-.02-.03-.07-.04-.1-.01,0-.02.01-.03.02-.15.06-.01,0,.03-.05,0-.02-.01-.05,0-.04.03,0,.02.03,0,.04,0,.01,0,.01,0,.03.38-.16.81-.54,1.27-.64.6-.13,1.23-.02,1.83-.21.19-.06.7-.53.34-.7-.41-.19-.94-.17-1.38-.19-.6-.03-1.16.21-1.68.48-.62.31-1.35.78-1.53,1.51-.3,1.18,1.49,1.78,2.29,2.15.5.23,1.14.43,1.56.81.38.34.62.87.82,1.33.51,1.17.82,2.49.74,3.77-.02.27-.06.55-.15.81.01-.04-.15.31-.09.2-.02.04-.05.07-.08.11,0,0,0,0,0,0-.03.02-.08.06-.1.07-.13.04-.24.05-.37.07-.44.05-.85.18-1.29.24-.14.02-.34.25-.23.39.2.25.31.47.64.58.3.1.65.04.95-.05.62-.19,1.14-.64,1.47-1.19.66-1.11.58-2.5.34-3.72-.23-1.19-.66-2.45-1.42-3.41Z"/>
  <path d="M123.56,132.78s.02-.01.03-.02c0-.02,0-.02,0-.03-.04.05-.18.11-.03.05Z"/>
  <polygon points="127.53 142.19 127.53 142.19 127.53 142.19 127.53 142.19"/>
  <path d="M127.53,142.19c.08-.14-.13.07,0,0h0Z"/>
  <path d="M130.79,135.08c-.22.12-.43.24-.62.39-.15.12-.49.53-.17.68.3.13.64.09.98-.04-.05-.27-.11-.54-.16-.81-.01-.07-.02-.15-.03-.23Z"/>
  <path d="M130.79,128.26c-.43-.28-.99.24-1.1.66-.59,2.25-.42,4.65-.02,6.92.2,1.16.47,2.31.81,3.44.15.5.33.99.54,1.47.18.42.39.92.75,1.21.21.17.55-.18.54-.39-.01-.96-.47-1.99-.73-2.9-.25-.84-.44-1.69-.61-2.55-.34.13-.67.17-.98.04-.32-.14.02-.55.17-.68.18-.15.4-.28.62-.39-.26-1.68-.4-3.43-.17-5.12-.27-.25-.55-.48-.86-.67.37-.22.73-.44,1.1-.66-.12.44-.18.88-.24,1.33.77.73,1.36,1.67,1.51,2.72.07.53.04,1.12-.27,1.59-.25.38-.67.6-1.07.82.01.08.02.15.03.23.04.27.11.54.16.81.59-.23,1.16-.74,1.49-1.11.6-.67.94-1.52.95-2.42,0-1.77-1.17-3.41-2.62-4.33Z"/>
  <path d="M129.76,129.29c.3.19.59.42.86.67.06-.45.13-.9.24-1.33-.37.22-.73.44-1.1.66Z"/>
  <path d="M141.4,137.74s-.01.02-.02.03c0,0,0,0,.02-.03Z"/>
  <path d="M138.98,133.08c.08-.04-.05,0,0,0h0Z"/>
  <path d="M139.18,133.03s-.06,0,0,0h0Z"/>
  <path d="M141.19,138.05s-.02.02-.04.04c0,0,0,0,.04-.04Z"/>
  <path d="M140.99,138.26s-.01.01-.02.02c-.07.06.1-.08.02-.02Z"/>
  <path d="M138.87,133.13s-.03.01-.03.02c0,0,0,0,0,0,.02,0,.05-.02.08-.04.02-.01.02-.02-.04.01Z"/>
  <path d="M140.73,138.45c-.06.04.06-.03,0,0h0Z"/>
  <path d="M140.67,131.49c-.96-.22-1.92.14-2.62.79-.4.37-.74.86-.91,1.38-.08.24-.15.52-.1.77.02.1.08.26.1.3.04.09.08.15.14.2,0-.04-.02-.08-.03-.11.04.06.08.12.12.18-.04-.02-.06-.05-.09-.07.02.11.04.22.07.33.08.28.49-.12.52-.25.03-.14.07-.27.11-.4-.05.08-.09.15-.16.23.06-.1.12-.19.17-.29,0,.02-.01.04-.02.06.21-.29.37-.6.54-.95.03-.07.07-.14.11-.21.05-.09.14-.24.02-.06.04-.06.08-.11.11-.17,0,0,0,0,0-.01-.08.07.01-.04.02-.03.03-.03.07-.06.04-.02,0,0,.01,0,.03-.02.06-.03.06-.03.04-.01.01,0,.03-.01.03-.02.02-.01.02-.01.03-.02-.05,0,.08-.04,0,0,0,0,0,0,.02,0,.05-.01.12-.02.17-.04.01,0,0,0,.01,0-.06,0,.02-.01,0,0,.01,0,.02,0,.05,0,.14,0,.27,0,.41,0,.03,0,.19.02.13.01-.07-.01.13.03.15.04.14.04.28.09.41.14.29.13.41.21.66.43.46.41.76.92.87,1.54.12.72-.03,1.59-.29,2.19-.04.09-.07.17-.12.25-.01.02-.06.11-.07.13,0,0,.01-.02.02-.03-.02.03-.02.04-.02.03-.04.06-.08.13-.12.19-.02.03-.09.11-.1.13.01-.01.02-.02.04-.04-.03.04-.04.04-.04.04-.04.05-.08.09-.13.13-.02.02-.04.04-.06.06,0,0,0,0,0,0,0,0,.01-.01.02-.02.08-.07-.09.08-.02.02-.04.04-.09.07-.14.1-.03.02-.06.04-.09.06,0,0,0,0-.01,0,.06-.03-.06.04,0,0,0,0,0,0,0,0-.28.15-.35.19-.69.24-.15.03-.51.03-.75,0-.5-.06-1.05-.29-1.48-.58-.57-.38-1.04-.91-1.37-1.51-.17-.31-.3-.64-.4-.99-.11-.36-.12-.74-.26-1.09-.09-.24-.44.05-.49.18-.58,1.49.25,3.26,1.44,4.2,1.11.88,2.6,1.2,3.92.61,1.69-.76,2.61-2.89,2.52-4.67-.07-1.47-.98-3.02-2.49-3.37Z"/>
  <path d="M138.79,133.18s0-.01,0-.01c0,0,0,0,0,.01Z"/>
  <path d="M137.83,134.82c.06-.07.1-.15.16-.23,0-.02.01-.04.02-.06-.06.1-.11.19-.17.29Z"/>
  <path d="M138.83,133.15s0,0,0,0c-.01,0-.02,0,0,0Z"/>
  <path d="M138.81,133.17s.08-.05.1-.06c-.03.01-.06.03-.08.04,0,0,0,.01-.02.03Z"/>
  <path d="M137.26,134.81s.02.08.03.11c.03.02.05.05.09.07-.04-.06-.08-.12-.12-.18Z"/>
  <path d="M138.79,133.18s0,0-.01.02c0,0,0,0,.02-.02,0,0,0,0,0,0,0,0,0,0,0,0-.02,0-.01,0-.01,0Z"/>
  <path d="M138.84,133.14s0,0-.04.02c0,0,0,0,0,.01,0,0,0,0,.01,0,0,0,0,0,0,0,.02-.02.02-.02.02-.03-.01,0-.01,0,0,0Z"/>
  <path d="M138.8,133.17s-.09.1-.02.03c0-.01,0-.02.01-.02,0,0,0,0,0-.01Z"/>
  <path d="M149.35,131.27s.04-.02,0,0h0Z"/>
  <path d="M149.58,131.08c-.03.05.04-.03,0,0h0Z"/>
  <path d="M149.48,131.17s-.04.04,0,0c.04-.04.03-.03,0,0Z"/>
  <path d="M152.44,133.02c-.66-.51-1.42-.93-2.23-1.19-.72.69-1.74,1.06-2.78,1.12,1.48-.15,2.66.83,3.75,1.71.6.49,1.14,1.06,1.74,1.54.55.44,1.35.9,2.07.84.16-.01.36-.17.35-.35-.02-.71-.56-1.48-1.02-1.99-.56-.62-1.23-1.18-1.89-1.69Z"/>
  <path d="M150.21,131.83c-.68-.22-1.39-.33-2.11-.25-.22.46-.44.92-.66,1.38,1.04-.07,2.06-.43,2.78-1.12Z"/>
  <path d="M151.07,130.39c.33-1.18-.08-2.48-.78-3.44-.66-.9-1.75-1.53-2.86-1.04-1.69.76-2.26,3.02-2.41,4.68-.14,1.51.24,3.04.5,4.51.13.73.27,1.47.31,2.21.04.62.18,1.4-.03,2-.1.28.34.1.41-.05.23-.51.47-.97.57-1.53.1-.56.1-1.11.06-1.67-.08-1.25-.34-2.48-.49-3.72-.14-1.13-.15-2.2.12-3.31.09-.38.2-.76.35-1.12.07-.16.14-.32.23-.46-.07.11.21-.28.14-.19-.05.05.21-.24.08-.08,0-.01.02-.02.04-.04,0,0-.01,0-.02,0,.01,0,.01,0,.02-.01.04-.03.07-.04,0,0,0,0,0,0,0,0,.03-.02.07-.03.1-.05,0,0,0,0,.04-.02-.01,0-.03.01-.04.02.02,0,.15-.04.12-.04-.05,0,.17,0,.23,0,.02,0,.02,0,.02,0-.02,0,.01,0,0,0,0,0,.01,0,.04.01.04.01.09.02.13.04.1.03.19.08.28.12.11.06.31.21.46.36.67.64,1.1,1.6,1.12,2.49,0,.33,0,.38-.09.69,0,.02,0,.03,0,.04,0-.01,0,.04,0,0,0,0,0,0-.01.02-.03.06-.05.11-.08.17,0-.01,0,0,0,0,0,0,0,0,0,0,0,0,0,0-.03.04-.02.03-.02.03-.03.04.04-.03-.03.05,0,0,0,0,0,0,0,0-.02.02-.06.06-.09.08.03-.02.04-.03,0,0-.04.03-.02.01,0,0-.03.03-.09.07-.11.08-.02.01-.03.02-.03.02.04-.02,0,0,0,0-.01,0-.02,0-.04.02-.07.03-.14.07-.21.1-.09.04,0,0-.13.04-.1.03-.2.05-.3.07-.19.04-.37.06-.56.07.72-.08,1.43.03,2.11.25.39-.38.7-.85.86-1.44Z"/>
  <path d="M147.79,127.06s-.02,0,0,0h0Z"/>
  <path d="M147.16,132.26c-.11.25-.13.72.27.7.22-.46.44-.92.66-1.38-.4.04-.77.31-.94.68Z"/>
  <path d="M147.3,127.15s.01,0,.02,0c0,0,0,0,0,0,0,0,0,0-.02.01Z"/>
  <path d="M149.63,131s0,0,0,0c0,0,.01-.02,0,0Z"/>
  <path d="M147.41,127.09s.03-.01.04-.02c-.04.02-.05.02-.04.02Z"/>
  <path d="M149.73,130.81s0-.01,0,0h0Z"/>
  <path d="M153.25,125.02s.03.06.04.09c0,0,.01,0,.02,0-.02-.03-.04-.07-.06-.1Z"/>
  <path d="M153.5,124.72s-.02,0-.04,0c-.04.03-.08.05-.12.09.05-.03.1-.06.16-.09Z"/>
  <path d="M158.29,123.8c-.23-.05-.44-.08-.67-.06-.47.05-.94.15-1.4.24-.45.09-.91.18-1.37.27-.23.05-.46.09-.69.14-.28.06-.49.16-.69.33.01,0,.02,0,.04,0-.05.03-.1.06-.16.09.04-.04.08-.05.12-.09-.02,0-.04,0-.07.01-.09.02-.36.31-.17.36l.06.02s-.04-.05-.04-.09c.02.03.04.07.06.1,0,0-.01,0-.02,0,.06.16.15.24.37.26.23.03.46,0,.69,0,.47-.04.93-.13,1.39-.22.12-.02.24-.04.36-.07.09-.06.18-.09.24-.04.25-.04.5-.09.75-.14.24-.05.47-.11.71-.19.26-.09.55-.14.8-.25.11-.05.41-.35.23-.48-.15-.12-.36-.14-.55-.18Z"/>
  <path d="M155.93,125.27c-.22.55-.35,1-.39,1.6-.04.56-.06,1.11-.06,1.66,0,1.19.08,2.37.22,3.55.25,2.15.69,4.33,1.65,6.28.1.21.43-.09.41-.25-.2-2.22-.58-4.42-.83-6.63-.13-1.11-.22-2.22-.27-3.34-.02-.54-.04-1.08-.04-1.63,0-.26.01-.53,0-.79-.02-.26-.13-.41-.21-.64-.01-.03-.04-.04-.06-.05-.08.01-.16.03-.24.04-.08.06-.16.13-.18.18Z"/>
  <path d="M156.11,125.09c.08-.01.16-.03.24-.04-.06-.04-.15-.02-.24.04Z"/>
</svg>