<?xml version="1.0" encoding="UTF-8"?>
<svg id="Layer_1" data-name="Layer 1" xmlns="http://www.w3.org/2000/svg" viewBox="0 0 251 205">
  <defs>
    <style>
      .cls-1 {
        fill: #868686;
      }

      .cls-2 {
        fill: #fff;
      }
    </style>
  </defs>
  <path class="cls-2" d="M122.19,169.36c-1.03,3.74-4.55,5.7-8.04,6.5-4.82,1.11-10.27.38-15.18.27-5.13-.11-10.57.11-15.55-1.32-4.11-1.18-6.69-3.08-7.14-7.79-.26-2.67.07-8.62,3-9.79.03-.01.04-.03.07-.04,0,.49,0,.99.01,1.48,0,.42.38.59.7.52,6.03,3.25,12.61,3.91,19.36,4.21,6.75.3,13.41.48,19.63-2.52.02-.01.03-.03.04-.04.3.07.65-.09.66-.49l.05-1.45c2.52,2.17,3.15,7.7,2.39,10.45ZM114.72,173.93c1.3.06,2.57-.61,3.32-1.66.2-.27-.25-.53-.45-.26-.72.95-1.69,1.45-2.86,1.55-.23.02-.24.36,0,.37Z"/>
  <path class="cls-2" d="M140.25,175.25c-1.37-.49-2.62-1.22-3.63-2.27-.24-.25-.6.12-.38.38,1.04,1.17,2.35,2,3.9,2.29.26.05.36-.31.11-.4ZM139.59,173.2c-.33-.09-.47.41-.14.51,1.11.34,2.22.71,3.36.97.31.08.42-.36.13-.46-1.1-.4-2.22-.7-3.35-1.02ZM138.85,177.15c-3.96-1.65-5.22-4.35-5-8.26.11-1.95-.22-7.28,1.87-8.82.14-.1.28-.19.45-.26.02.96.05,1.92.07,2.89,0,.53.62.66.93.38,5.67,3.61,12.28,3.7,18.8,2.92,5.17-.61,11.06-.96,15.03-4.71.11-.1.14-.24.12-.37.33.05.7-.13.69-.56,0-.39-.02-.78-.03-1.17,3.96,1.15,3.1,10.08,2.01,12.03-1.59,2.84-4.82,4.32-7.74,5.35-4.34,1.52-8.97,2.28-13.55,2.38-2.91.06-6.21-.01-9.31-.57-1.52-.28-2.99-.67-4.34-1.23Z"/>
  <path class="cls-2" d="M129.03,42.3c.65.91.08,1.97-.85,2.38-.96.42-2.13.11-2.4-.99-.16-.65,0-1.37.41-1.9.03-.01.05-.01.08-.03.94-.51,2.1-.38,2.76.54Z"/>
  <path class="cls-2" d="M83.82,30.57c-.11.02-.22.09-.29.23-2.11,4.47-1.32,9.66-.69,14.41-5.28-.65-4.11-15.15,1.07-14.79v.14s-.07.01-.09.02Z"/>
  <path class="cls-2" d="M99.53,34.62c-1.37,2.72-1.73,8.18-.82,11.7l-.32.04c-.03-.2-.18-.38-.43-.39-4.96-.3-9.78-1.14-14.59-2.33-.23-4.13-.78-8.39.92-12.25,4.7,1.91,9.63,2.96,14.68,3.37.19.02.32-.07.38-.19l.18.05Z"/>
  <path class="cls-2" d="M102.59,48.58c-3.33.59-3.1-5.54-3.13-7.22-.02-1.05.02-2.09.1-3.13.09-1.09.32-5.35,3.08-3.72-1.66,4.28-1.02,9.71-.05,14.06Z"/>
  <path class="cls-1" d="M163.19,30.88c.3.13.54-.25.26-.45-1.39-.98-3.08-1.49-4.73-1.8-.38-.07-.55.51-.16.59,1.64.34,3.1.99,4.63,1.66ZM162.12,31.08c-1-.5-2.03-.94-3.07-1.36-.24-.09-.39.3-.17.41,1,.51,2.01.99,3.05,1.42.26.11.45-.34.19-.47ZM103.01,33.65c-1.48-1.3-2.66-.65-3.48.97l-.18-.05c.14-.26.01-.69-.38-.72-5.16-.42-10.07-1.59-14.96-3.27-.04-.01-.07-.02-.1-.02v-.14h.06c.22.02.31-.33.11-.43-.64-.32-1.2-.43-1.71-.37l-.02-.13s.03,0,.05,0c13.61-4.02,28.16-3.13,42.21-3.08,7.03.02,14.05.1,21.08.22,7.32.13,15.68-.79,21.77,4,.02.01.04.02.06.03-.09.1-.18.21-.26.34-.11.16-.09.32-.02.44-.08-.05-.18-.07-.31-.04-5.47,1.47-10.81,2.69-16.41,3.57-.72-.81-1.69-1.22-3.02-.84-.34.09-.4.43-.28.67-.04.05-.07.13-.04.2,0,.02,0,.04.01.05-14.8,1.81-29.16,1.22-43.95-.02.02-.28.05-.56.07-.84,0-.04.01-.09,0-.13,0-.11.02-.24.02-.35,0-.16-.25-.25-.32-.09,0,0,0,.02-.01.02Z"/>
  <path class="cls-2" d="M147.82,34.7c.92,1.05,1.83,1.57,2.75,2.25.16.48.31,1.08.41,1.58.25,1.11.41,2.21.44,3.35.03,1.33-.05,6.2-2.24,6.51.88-4.21.34-9.2-1.19-13.14,0,0,0-.03,0-.04-.05-.14-.1-.39-.16-.51Z"/>
  <path class="cls-2" d="M169.85,43.11c.39-4.01-.18-7.95-1.71-11.7,1-1.23,2.47,2.43,2.59,2.78.39,1.13.59,2.31.62,3.5.06,2.07-.41,3.95-1.25,5.79,0-.15-.09-.31-.25-.38Z"/>
  <path class="cls-2" d="M167.15,32.15c.27-.11.32-.39.21-.59.03.02.05.04.08.06,1.28,3.81,1.75,7.62,1.39,11.59-5.76,1.07-11.83,2.22-17.38,4.11.55-1.47.87-3.2.91-3.77.13-1.86-.02-5.86-1.42-8.05,5.46-.3,11.12-1.4,16.21-3.36Z"/>
  <path class="cls-2" d="M121.29,48.07c.41-3.48.33-7.12.37-10.64,8.63.2,17.31-.41,25.74-1.5.88,4.01,1.09,7.73.92,11.79-9.22,1.2-18.36,1.5-27.51,1.08v-.28c.22,0,.44-.15.48-.44ZM128.59,45.56c1.49-.67,2.24-2.41,1.25-3.83-.86-1.22-2.97-1.88-4.12-.69-.08.08-.11.17-.13.26-.62.68-.92,1.7-.72,2.63.38,1.7,2.23,2.29,3.72,1.63Z"/>
  <path class="cls-2" d="M118.47,39.82c-1.35-.23-2.72-.3-4.08-.4-.32-.03-.31.47,0,.5,1.34.15,2.68.34,4.02.37.27,0,.34-.43.07-.48ZM114.97,38.3c.9.36,1.87.48,2.82.26.3-.07.16-.49-.13-.45-.89.12-1.74.07-2.58-.24-.27-.1-.38.32-.12.43ZM120.8,48.8c-5.83-.27-11.67-.83-17.52-1.63-.41-2.14-.62-4.28-.58-6.47.03-1.72.33-3.4.5-5.09,5.8,1.07,11.73,1.62,17.68,1.8-.44,3.47-.82,7.19-.52,10.66.02.3.24.44.45.44v.28Z"/>
  <path class="cls-2" d="M81.3,135.55c-.02.22.36.27.39.05.17-1.23.44-2.49.44-3.73,0-.22-.34-.28-.4-.05-.28,1.21-.31,2.5-.43,3.73ZM81.65,146.95c-.11,1.67,0,3.36.05,5.03,0,.23.35.23.36,0,.04-1.67.16-3.36.05-5.03-.02-.29-.43-.29-.45,0ZM81.64,157.41c.08.24.45.15.38-.1-.29-1.11-.21-2.18-.21-3.31,0-.28-.41-.33-.49-.07-.33,1.16-.08,2.36.31,3.48ZM81.68,108.69c-.09.26.31.35.41.11.35-.84.6-1.89.31-2.79-.07-.21-.38-.17-.39.05-.05.91,0,1.74-.32,2.63ZM81.67,143.6c0,.27.42.27.42,0,.03-1.34.11-2.69,0-4.02-.02-.28-.41-.28-.43,0-.1,1.34-.02,2.68,0,4.02ZM123.03,51.76c-.03-.34-.5-.34-.53,0-.07.76.07,1.59.1,2.35.01.21.31.21.32,0,.04-.77.17-1.59.1-2.35ZM124.15,81.08c.09.17.38.05.31-.13-.42-1.08-.57-2.21-.62-3.37-.01-.33-.47-.32-.5,0-.11,1.24.22,2.41.8,3.5ZM116.19,131.2c-.02,1.36.02,2.63-.32,3.96-.07.29.37.41.44.13.36-1.33.58-2.79.25-4.14-.05-.21-.37-.16-.38.05ZM114.74,133.22c0-1.46.09-2.9.27-4.36.03-.25-.41-.32-.45-.06-.24,1.46-.28,2.95-.13,4.42.02.2.32.21.31,0ZM92.66,158.55c.88-.14,1.76-.03,2.59.27.2.08.35-.26.15-.35-.93-.39-1.86-.48-2.84-.29-.25.05-.14.41.1.37ZM94.66,159.51c-1.32-.31-2.66-.53-4.01-.74-.29-.04-.42.39-.13.45,1.36.28,2.7.56,4.07.74.26.03.31-.39.06-.45ZM88.5,47.67c1.3.47,2.66,1.08,4.03,1.31.2.03.36-.24.15-.35-1.25-.65-2.72-.96-4.06-1.37-.27-.08-.37.32-.11.42ZM89.17,49.35c-.24.04-.18.43.05.41,1.57-.09,3.14-.09,4.71-.1.31,0,.28-.43,0-.46-1.58-.2-3.2-.11-4.77.15ZM82.03,118.8c0,.24.36.24.37,0,.05-1.45.15-2.91.04-4.36-.02-.3-.44-.3-.47,0-.11,1.45,0,2.91.05,4.36ZM82.01,124.16c-.06,1,0,2.01.04,3.02,0,.21.32.21.32,0,.03-1,.1-2.01.04-3.02-.02-.26-.39-.26-.41,0ZM82.33,89.25c-.16.96.1,2.1.2,3.07.02.22.36.24.36,0-.02-.97.13-2.13-.15-3.07-.05-.19-.37-.22-.41,0ZM82.64,81.86c-.14.89-.03,1.86.02,2.75.02.3.43.3.45,0,.05-.89.16-1.86.02-2.75-.04-.25-.45-.25-.49,0ZM83.28,72.81c-.18.99-.03,2.09,0,3.09,0,.36.55.36.55,0,.02-1,.18-2.11,0-3.09-.05-.27-.49-.27-.54,0ZM100.67,50.78c.02-.54-.83-.67-.95-.13-1.82,8.28-6.7,14.77-15.24,16.92-.42.11-.24.73.18.65,8.11-1.51,15.75-8.86,16.01-17.45ZM94.84,91.72c.09-.23-.28-.38-.39-.16-.35.65-.44,1.39-.37,2.11.03.25.42.26.41,0-.05-.7.1-1.3.36-1.94ZM96.54,91.72c.13-.3-.34-.46-.5-.21-.76,1.14-.89,2.58-.69,3.91.05.38.62.21.57-.15-.18-1.27.14-2.38.62-3.54ZM98.71,46.32c.66,2.55,1.98,4.07,4.05,2.8.27.33.94.07.82-.44-.07-.28-.11-.57-.17-.85,8.87,1.67,17.89,2.33,26.91,2.16,0,.02-.02.04-.02.07-.35,10.7,3.21,21.9-2,31.84-.11.21-.22.43-.34.64-.09,0-.17,0-.26-.01-5.37-.48-10.48-2.12-15.77-2.96-.19-.03-.36.26-.15.35,3.95,1.66,8.26,2.9,12.66,3.5-.03.02-.06.05-.08.1-2.98,12.01-3.42,25.06-4.3,37.37-.93,12.92-1.73,26.01-1.39,38.98-.06,0-.13.02-.19.05-6.01,2.89-12.56,2.63-19.06,2.38-6.53-.26-12.93-.87-18.95-3.53,0-.03.02-.06.02-.09-.24-18.89-.18-37.77.19-56.65.36-18.65,1.58-37.29,1.74-55.94.21,0,.42,0,.65-.04.25-.04.32-.24.29-.43.05-.04.09-.11.09-.21,0-.38-.02-.76-.04-1.14,4.72,1.54,9.61,2.34,14.56,2.61.33.02.47-.26.43-.5l.32-.04ZM122.96,73.6c.04.24.44.19.42-.06-.09-1.01-.1-2.09-.38-3.07-.08-.28-.51-.23-.51.07,0,1.03.28,2.06.47,3.07ZM122.67,67.92c.09.18.38.05.32-.13-.39-1.18-.33-2.38-.05-3.58.08-.32-.36-.42-.48-.13-.54,1.28-.36,2.61.22,3.84ZM122.46,60.91c.1.29.53.18.46-.13-.26-1.12-.1-2.19-.21-3.31-.03-.28-.38-.32-.48-.07-.44,1.08-.14,2.44.24,3.5ZM83.09,100.37c.02-1.22.11-2.47,0-3.69-.02-.26-.38-.26-.41,0-.11,1.22-.02,2.47,0,3.69,0,.26.4.26.41,0Z"/>
  <path class="cls-2" d="M169.52,151.31c.04-1.34.13-2.69.04-4.02-.02-.26-.39-.26-.41,0-.09,1.34,0,2.68.04,4.02,0,.21.32.21.32,0ZM169.57,158.01c.03-1.22.14-2.47-.02-3.68-.03-.26-.37-.26-.4,0-.15,1.22-.05,2.46-.02,3.68.01.28.42.28.43,0ZM169.34,139.49c-.1-.26-.46-.16-.42.11.18,1.11.31,2.21.19,3.32-.02.22.35.27.39.05.24-1.18.26-2.36-.17-3.49ZM167.62,101.44c.41-1.09.57-2.35.3-3.49-.07-.28-.51-.22-.51.07.02,1.14,0,2.18-.27,3.29-.08.32.37.43.49.13ZM168.27,125.84c.04-1.1.18-2.33-.05-3.41-.04-.21-.38-.21-.42,0-.22,1.08-.09,2.31-.04,3.41.01.33.5.33.51,0ZM168.11,134.89c.02.31.47.31.48,0,.07-1.1.19-2.33,0-3.42-.04-.24-.44-.24-.48,0-.19,1.08-.07,2.32,0,3.42ZM167.92,115.78c-.02-.31-.46-.31-.48,0-.05.67-.02,1.34.01,2.01.02.3.44.3.45,0,.03-.67.06-1.34.01-2.01ZM167.57,90.58c-.05-.22-.4-.22-.44,0-.26,1.18-.08,2.55-.02,3.75.02.31.46.31.48,0,.06-1.2.24-2.57-.02-3.75ZM166.82,86.62c.03.29.48.3.46,0-.11-1.35-.15-2.75-.44-4.07-.05-.24-.41-.18-.42.05-.02,1.33.24,2.69.4,4.01ZM148.06,61.57c-1.41-.9-2.53-2.06-3.31-3.55-.16-.3-.57-.04-.44.26.71,1.6,1.91,2.96,3.46,3.79.33.18.61-.31.3-.5ZM145.94,56.12c-.13,1.59.97,3.27,2.56,3.6.28.06.5-.36.21-.49-1.31-.58-2.2-1.64-2.23-3.11-.01-.35-.51-.34-.54,0ZM143.36,82.99c-1.06.75-2.28,1.09-3.55.7-.23-.07-.32.27-.1.36,1.34.51,2.87.33,3.94-.68.19-.18-.07-.52-.28-.37ZM140.38,142.31c.03.23.43.18.41-.05-.1-1.25-.19-2.5-.39-3.74-.04-.26-.48-.2-.46.06.08,1.25.27,2.49.44,3.73ZM144.1,84.75c-1.24.59-2.53.95-3.91,1.01-.27.01-.27.42,0,.42,1.46.02,2.86-.31,4.13-1.06.24-.14.03-.48-.22-.37ZM139.39,144.66c.47-1.48.5-2.99-.03-4.46-.09-.26-.48-.16-.41.11.36,1.42.44,2.82.12,4.26-.04.2.26.29.32.09ZM131.32,49.97c5.67-.15,11.34-.62,16.95-1.38,0,.03,0,.05,0,.08-.02.04-.03.08,0,.13,0,.08,0,.16-.01.25-.02.33.33.47.58.37,1.01.77,1.83-.23,2.43-1.61.08-.01.16-.02.24-.03,5.55-.63,11.23-2.05,16.66-3.48l.03.1c-.13.05-.22.16-.22.34.23,38.55,1.68,77.1,2.64,115.64,0,.04.02.08.03.12-.07,0-.15.02-.22.07-4.53,3.26-10.01,3.84-15.43,4.42-6.21.67-12.07.35-17.65-2.68.57-25.99-1.52-53.11-7.28-78.48,5.46.05,10.87-.96,15.68-3.41.64-.32.08-1.2-.54-.93-5.43,2.34-10.8,3.47-16.68,3.09.09-.14.19-.27.27-.42,6.09-9.54,2.26-21.48,2.56-32.1,0-.03-.01-.06-.02-.09ZM167.25,110.76c.05-1.14.15-2.29-.01-3.42-.03-.23-.43-.23-.46,0-.16,1.13-.06,2.28-.01,3.42.01.31.47.31.48,0ZM166.18,79.3c.07.32.53.18.48-.13-.17-1.11-.25-2.3-.59-3.37-.1-.3-.59-.26-.56.08.06,1.15.43,2.31.67,3.43ZM165.9,73.69c.3-.6.72-1.66.33-2.28-.13-.21-.42-.15-.5.07-.11.3-.03.61-.05.93-.03.38-.14.73-.28,1.08-.11.29.36.49.5.21ZM164.67,68.99c.57.06.64-.8.13-.96-8.21-2.55-14.12-7.74-16.11-16.36-.07-.32-.62-.26-.57.08,1.06,8.24,8.03,16.28,16.55,17.24ZM157.4,162.55c.24-.14.03-.48-.21-.36-1.14.55-2.32.8-3.59.66-.2-.02-.25.32-.04.35,1.33.21,2.66.03,3.84-.65Z"/>
  <path d="M168.92,139.6c-.04-.27.32-.37.42-.11.43,1.13.41,2.31.17,3.49-.04.22-.42.17-.39-.05.12-1.12-.01-2.21-.19-3.32Z"/>
  <path d="M169.56,147.29c.08,1.34,0,2.68-.04,4.02,0,.21-.32.21-.32,0-.04-1.34-.13-2.69-.04-4.02.02-.26.39-.26.41,0Z"/>
  <path d="M169.55,154.33c.16,1.22.05,2.46.02,3.68-.01.28-.42.28-.43,0-.03-1.22-.14-2.47.02-3.68.03-.26.37-.26.4,0Z"/>
  <path d="M168.11,131.47c.04-.24.44-.24.48,0,.19,1.08.07,2.32,0,3.42-.02.31-.47.31-.48,0-.07-1.1-.19-2.33,0-3.42Z"/>
  <path d="M168.22,122.43c.22,1.08.09,2.31.05,3.41-.02.33-.5.33-.51,0-.04-1.1-.18-2.33.04-3.41.04-.21.38-.21.42,0Z"/>
  <path d="M167.4,98.02c0-.3.44-.36.51-.07.28,1.14.11,2.4-.3,3.49-.11.3-.57.19-.49-.13.28-1.11.3-2.15.27-3.29Z"/>
  <path d="M167.92,115.78c.05.67.02,1.34-.01,2.01-.02.3-.44.3-.45,0-.03-.67-.06-1.34-.01-2.01.02-.31.46-.31.48,0Z"/>
  <path d="M167.12,90.58c.04-.22.39-.22.44,0,.26,1.18.08,2.55.02,3.75-.02.31-.46.31-.48,0-.06-1.2-.24-2.57.02-3.75Z"/>
  <path d="M167.24,107.34c.16,1.13.06,2.28.01,3.42-.01.31-.47.31-.48,0-.05-1.14-.15-2.29.01-3.42.03-.23.43-.23.46,0Z"/>
  <path d="M166.83,82.55c.3,1.31.33,2.72.44,4.07.02.3-.43.29-.46,0-.16-1.32-.42-2.68-.4-4.01,0-.24.37-.3.42-.05Z"/>
  <path d="M166.66,79.17c.05.31-.41.45-.48.13-.25-1.12-.61-2.28-.67-3.43-.02-.34.47-.37.56-.08.34,1.07.42,2.26.59,3.37Z"/>
  <path d="M166.23,71.41c.39.62-.03,1.69-.33,2.28-.14.27-.62.08-.5-.21.14-.34.25-.7.28-1.08.02-.31-.06-.62.05-.93.08-.22.37-.27.5-.07Z"/>
  <path d="M159.05,29.71c1.04.42,2.07.86,3.07,1.36.26.13.07.57-.19.47-1.04-.43-2.05-.91-3.05-1.42-.22-.11-.07-.5.17-.41Z"/>
  <path d="M158.72,28.63c1.65.31,3.34.82,4.73,1.8.27.2.04.58-.26.45-1.53-.67-2.99-1.32-4.63-1.66-.39-.08-.22-.66.16-.59Z"/>
  <path d="M157.4,162.55c-1.18.67-2.51.85-3.84.65-.2-.03-.15-.37.04-.35,1.27.14,2.44-.1,3.59-.66.24-.11.44.22.21.36Z"/>
  <path d="M164.67,68.99c-8.52-.97-15.49-9-16.55-17.24-.04-.33.5-.39.57-.08,1.99,8.63,7.91,13.82,16.11,16.36.5.15.44,1.02-.13.96Z"/>
  <path d="M147.81,34.69s-.03-.04-.05-.05c.02,0,.03.02.05.05Z"/>
  <path d="M146.48,56.12c.04,1.47.93,2.53,2.23,3.11.3.13.07.55-.21.49-1.59-.33-2.69-2-2.56-3.6.03-.34.53-.35.54,0Z"/>
  <path d="M148.06,61.57c.31.2.03.68-.3.5-1.55-.84-2.75-2.2-3.46-3.79-.13-.3.28-.56.44-.26.78,1.48,1.9,2.64,3.31,3.55Z"/>
  <path d="M139.59,173.2c1.13.32,2.25.62,3.35,1.02.29.1.18.54-.13.46-1.13-.27-2.24-.63-3.36-.97-.33-.1-.19-.6.14-.51Z"/>
  <path d="M140.79,142.26c.02.24-.38.28-.41.05-.18-1.24-.37-2.49-.44-3.73-.02-.26.42-.32.46-.06.2,1.24.3,2.49.39,3.74Z"/>
  <path d="M139.81,83.69c1.27.39,2.5.05,3.55-.7.22-.15.47.19.28.37-1.06,1.02-2.59,1.2-3.94.68-.22-.09-.13-.43.1-.36Z"/>
  <path d="M144.32,85.12c-1.26.74-2.67,1.07-4.13,1.06-.27,0-.27-.41,0-.42,1.38-.06,2.67-.42,3.91-1.01.25-.11.45.23.22.37Z"/>
  <path d="M139.07,144.58c.32-1.43.24-2.84-.12-4.26-.07-.27.32-.37.41-.11.53,1.47.49,2.98.03,4.46-.06.2-.36.11-.32-.09Z"/>
  <path d="M129.48,83.96c-.01-.06.02-.1.03-.15l.54.02c5.76,25.37,7.85,52.49,7.28,78.48,5.58,3.03,11.44,3.34,17.65,2.68,5.43-.58,10.91-1.16,15.43-4.42.07-.05.15-.07.22-.07-.01-.04-.03-.08-.03-.12-.96-38.53-2.41-77.09-2.64-115.64,0-.18.1-.29.22-.34.21-.07.5.04.51.34,1.64,37.77,2.12,75.61,3.04,113.4,4.86,1.12,4.92,10.2,2.97,13.65-3.76,6.62-14.6,7.95-21.36,8.2-3.44.13-6.93-.11-10.34-.76l.16-.84c3.09.56,6.4.64,9.31.57,4.58-.09,9.22-.85,13.55-2.38,2.91-1.02,6.15-2.51,7.74-5.35,1.08-1.94,1.94-10.88-2.01-12.03.01.39.02.78.03,1.17.01.43-.36.61-.69.56.02.13-.01.26-.12.37-3.97,3.74-9.86,4.09-15.03,4.71-6.53.78-13.14.69-18.8-2.92-.31.27-.92.15-.93-.38-.01-.97-.05-1.93-.07-2.89-.16.07-.31.15-.45.26l-.21-.77c.2-.07.42-.11.65-.15-.48-25.37-3.03-50.05-6.67-75.2Z"/>
  <path d="M136.62,172.98c1.01,1.06,2.26,1.78,3.63,2.27.25.09.15.45-.11.4-1.55-.29-2.86-1.12-3.9-2.29-.22-.26.14-.63.38-.38Z"/>
  <path d="M135.72,160.07c-2.09,1.54-1.76,6.87-1.87,8.82-.22,3.9,1.03,6.61,5,8.26,1.35.56,2.82.95,4.34,1.23l-.16.84c-1.51-.28-2.99-.64-4.46-1.08-2.55-.77-4.87-1.46-5.68-4.22-.88-3.01-.25-8.14.38-11.17.35-1.7.82-2.97,2.23-3.45l.21.77Z"/>
  <path d="M125.78,43.68c.27,1.1,1.44,1.41,2.4.99.93-.41,1.5-1.47.85-2.38-.66-.93-1.82-1.06-2.76-.54-.03.02-.05.02-.08.03-.4.53-.56,1.25-.41,1.9ZM125.72,41.04c1.16-1.19,3.26-.53,4.12.69,1,1.41.24,3.16-1.25,3.83-1.49.66-3.34.08-3.72-1.63-.2-.93.09-1.94.72-2.63.01-.09.04-.18.13-.26Z"/>
  <path d="M123.84,77.58c.05,1.16.2,2.29.62,3.37.07.19-.22.3-.31.13-.59-1.09-.92-2.26-.8-3.5.03-.32.49-.33.5,0Z"/>
  <path d="M122.96,73.6c-.19-1-.48-2.04-.47-3.07,0-.3.43-.35.51-.07.28.99.28,2.06.38,3.07.02.25-.38.3-.42.06Z"/>
  <path d="M122.61,54.11c-.04-.76-.17-1.59-.1-2.35.03-.34.5-.34.53,0,.07.76-.07,1.58-.1,2.35-.01.21-.31.21-.32,0Z"/>
  <path d="M122.45,64.08c.12-.29.56-.19.48.13-.27,1.2-.33,2.4.05,3.58.07.19-.23.31-.32.13-.58-1.23-.76-2.57-.22-3.84Z"/>
  <path d="M122.22,57.4c.1-.26.45-.22.48.07.11,1.12-.04,2.19.21,3.31.07.31-.36.42-.46.13-.37-1.07-.68-2.42-.24-3.5Z"/>
  <path d="M116.57,131.15c.33,1.36.11,2.81-.25,4.14-.08.28-.51.16-.44-.13.33-1.33.3-2.61.32-3.96,0-.22.33-.27.38-.05Z"/>
  <path d="M117.8,38.56c-.95.21-1.92.1-2.82-.26-.26-.1-.15-.53.12-.43.84.31,1.69.36,2.58.24.29-.04.43.38.13.45Z"/>
  <path d="M118.04,172.27c-.75,1.05-2.01,1.72-3.32,1.66-.24-.01-.23-.34,0-.37,1.18-.1,2.15-.6,2.86-1.55.2-.27.66-.01.45.26Z"/>
  <path d="M114.55,128.8c.04-.26.49-.19.45.06-.18,1.46-.27,2.9-.27,4.36,0,.21-.29.2-.31,0-.15-1.47-.11-2.96.13-4.42Z"/>
  <path d="M114.39,39.42c1.37.1,2.74.17,4.08.4.27.04.2.48-.07.48-1.34-.03-2.68-.22-4.02-.37-.31-.03-.32-.53,0-.5Z"/>
  <path d="M124.44,83.42c-4.4-.6-8.72-1.83-12.66-3.5-.21-.09-.04-.38.15-.35,5.29.84,10.4,2.49,15.77,2.96.09,0,.17,0,.26.01.12-.21.24-.43.34-.64l.48.26c-.09.14-.18.28-.27.42,5.89.38,11.25-.74,16.68-3.09.62-.27,1.18.61.54.93-4.81,2.45-10.22,3.46-15.68,3.41l-.54-.02c-1.59-.03-3.19-.15-4.77-.36l-.31-.03Z"/>
  <path d="M147.77,34.64s.03.04.05.05c-.02-.03-.03-.05-.05-.05ZM147.82,34.7c.05.12.1.37.16.51,0,.01,0,.03,0,.04,1.54,3.94,2.07,8.93,1.19,13.14,2.19-.32,2.28-5.18,2.24-6.51-.03-1.14-.19-2.24-.44-3.35-.1-.5-.25-1.09-.41-1.58-.91-.68-1.83-1.2-2.75-2.25ZM103.28,47.18c5.86.8,11.69,1.36,17.52,1.63,9.15.42,18.29.12,27.51-1.08.17-4.06-.04-7.77-.92-11.79-8.43,1.09-17.11,1.7-25.74,1.5-.03,3.51.04,7.16-.37,10.64-.04.3-.26.44-.47.44s-.43-.15-.45-.44c-.3-3.47.08-7.19.52-10.66-5.96-.18-11.88-.73-17.68-1.8-.18,1.69-.47,3.37-.5,5.09-.04,2.18.18,4.33.58,6.47ZM99.53,34.62c.82-1.62,1.99-2.27,3.48-.97,0,0,.01-.02.01-.02.08-.16.32-.08.32.09,0,.11-.02.24-.02.35,0,.04,0,.09,0,.13-.01.28-.04.56-.07.84,14.79,1.24,29.16,1.83,43.95.02,0-.02,0-.04-.01-.05-.02-.08,0-.15.04-.2-.12-.25-.06-.58.28-.67,1.33-.37,2.3.03,3.02.84,5.59-.88,10.94-2.11,16.41-3.57.13-.03.23-.01.31.04l.11.13c.11.19.06.48-.21.59-5.09,1.96-10.75,3.07-16.21,3.36,1.4,2.19,1.55,6.19,1.42,8.05-.04.57-.36,2.3-.91,3.77l.05.44c-.08.01-.16.02-.24.03-.6,1.39-1.42,2.38-2.43,1.61-.25.1-.6-.04-.58-.37,0-.08,0-.16.01-.25-.02-.04-.02-.09,0-.13,0-.03,0-.05,0-.08-5.62.76-11.28,1.23-16.95,1.38,0,.03.02.05.02.09-.3,10.63,3.54,22.57-2.56,32.1l-.48-.26c5.22-9.94,1.65-21.14,2-31.84,0-.03.01-.05.02-.07-9.02.17-18.04-.49-26.91-2.16.05.28.1.56.17.85.12.51-.55.77-.82.44-2.07,1.26-3.39-.26-4.05-2.8-.91-3.51-.55-8.98.82-11.7ZM99.45,41.36c.03,1.68-.2,7.81,3.13,7.22-.97-4.36-1.61-9.79.05-14.06-2.76-1.63-2.98,2.63-3.08,3.72-.09,1.03-.12,2.08-.1,3.13Z"/>
  <path d="M96.54,91.72c-.48,1.16-.8,2.27-.62,3.54.05.37-.51.53-.57.15-.2-1.32-.07-2.76.69-3.91.16-.25.63-.09.5.21Z"/>
  <path d="M94.44,91.55c.11-.21.49-.07.39.16-.26.64-.41,1.25-.36,1.94.02.26-.37.25-.41,0-.08-.72.02-1.46.37-2.11Z"/>
  <path d="M95.25,158.82c-.83-.3-1.71-.41-2.59-.27-.25.04-.35-.32-.1-.37.99-.19,1.92-.1,2.84.29.2.09.05.43-.15.35Z"/>
  <path d="M90.66,158.77c1.35.21,2.69.43,4.01.74.25.06.2.48-.06.45-1.37-.18-2.72-.45-4.07-.74-.3-.06-.16-.49.13-.45Z"/>
  <path d="M93.94,49.67c-1.58.01-3.14.01-4.71.1-.24.02-.29-.37-.05-.41,1.57-.26,3.19-.35,4.77-.15.28.03.31.46,0,.46Z"/>
  <path d="M88.62,47.26c1.34.41,2.81.73,4.06,1.37.21.11.05.38-.15.35-1.37-.22-2.73-.84-4.03-1.31-.26-.09-.15-.5.11-.42Z"/>
  <path d="M100.67,50.78c-.26,8.58-7.9,15.94-16.01,17.45-.42.08-.6-.54-.18-.65,8.55-2.15,13.42-8.64,15.24-16.92.12-.54.97-.41.95.13Z"/>
  <path d="M83.28,75.9c-.02-1-.18-2.11,0-3.09.05-.27.49-.27.54,0,.18.99.03,2.09,0,3.09,0,.36-.55.36-.55,0Z"/>
  <path d="M170.73,34.2c-.12-.36-1.59-4.01-2.59-2.78,1.53,3.74,2.1,7.69,1.71,11.7.15.07.24.22.25.38.84-1.84,1.31-3.72,1.25-5.79-.03-1.19-.23-2.38-.62-3.5ZM124.62,26.4c-14.05-.04-28.6-.94-42.21,3.08-.02,0-.03.01-.05,0-.37.07-.49-.49-.13-.64,14.22-5.5,31.46-3.54,46.4-3.48,8.36.04,16.74.09,25.09.36,5.13.17,10.51.49,14.35,4.28.05.05.09.11.11.16,1.43-.5,2.86,2.15,3.32,3.38,1.35,3.64.93,7.71-1.14,10.98-.24.38-.8.05-.6-.35.07-.13.13-.27.19-.41-.04.03-.09.05-.14.07-.02,0-.03,0-.04.01l-.02.18c-.08.6-.97.64-1,.09-.2.05-.39.1-.6.16-5.43,1.43-11.11,2.85-16.66,3.48l-.05-.44c5.55-1.89,11.61-3.04,17.38-4.11.36-3.97-.11-7.78-1.39-11.59-.03-.02-.05-.04-.08-.06l-.11-.13c-.08-.12-.09-.28.02-.44.09-.13.18-.24.26-.34-.02-.01-.04-.02-.06-.03-6.09-4.79-14.45-3.87-21.77-4-7.02-.13-14.05-.2-21.08-.22Z"/>
  <path d="M82.64,81.86c.04-.25.45-.25.49,0,.14.89.03,1.86-.02,2.75-.02.3-.43.3-.45,0-.05-.89-.16-1.86-.02-2.75Z"/>
  <path d="M82.68,100.37c-.02-1.22-.11-2.47,0-3.69.02-.26.38-.26.41,0,.11,1.22.02,2.47,0,3.69,0,.26-.4.26-.41,0Z"/>
  <path d="M82.74,89.25c.27.94.13,2.1.15,3.07,0,.24-.34.22-.36,0-.09-.97-.36-2.1-.2-3.07.04-.22.36-.19.41,0Z"/>
  <path d="M82.39,106.01c.29.9.04,1.95-.31,2.79-.1.24-.5.15-.41-.11.32-.89.27-1.71.32-2.63.01-.22.32-.27.39-.05Z"/>
  <path d="M82.44,114.44c.11,1.45,0,2.91-.04,4.36-.01.24-.37.24-.37,0-.05-1.45-.16-2.91-.05-4.36.02-.3.44-.3.47,0Z"/>
  <path d="M82.42,124.16c.05,1-.01,2.01-.04,3.02,0,.21-.32.21-.32,0-.03-1-.1-2.01-.04-3.02.01-.26.39-.26.41,0Z"/>
  <path d="M82.13,131.88c0,1.24-.27,2.5-.44,3.73-.03.22-.41.17-.39-.05.12-1.23.15-2.52.43-3.73.05-.22.4-.17.4.05Z"/>
  <path d="M82.11,146.95c.11,1.67,0,3.36-.05,5.03,0,.23-.35.23-.36,0-.05-1.67-.16-3.36-.05-5.03.02-.29.43-.29.45,0Z"/>
  <path d="M82.09,139.58c.1,1.34.02,2.68,0,4.02,0,.27-.42.27-.42,0-.03-1.34-.11-2.69,0-4.02.02-.28.41-.28.43,0Z"/>
  <path d="M81.82,153.99c0,1.13-.08,2.21.21,3.31.07.25-.3.34-.38.1-.39-1.12-.65-2.32-.31-3.48.08-.27.49-.21.49.07Z"/>
  <path d="M83.44,174.82c4.98,1.43,10.42,1.2,15.55,1.32,4.91.11,10.35.84,15.18-.27,3.48-.8,7-2.76,8.04-6.5.76-2.75.13-8.27-2.39-10.45l-.05,1.45c-.01.4-.36.56-.66.49-.02.01-.03.03-.04.04-6.22,2.99-12.88,2.81-19.63,2.52-6.76-.3-13.34-.96-19.36-4.21-.31.07-.69-.1-.7-.52,0-.5,0-.99-.01-1.48-.02.01-.04.03-.07.04-2.93,1.18-3.26,7.13-3,9.79.45,4.71,3.03,6.61,7.14,7.79ZM121.49,172.91c-5.36,6.44-16.11,4.42-23.4,4.25-6.05-.14-18.77.85-22.22-5.82-1.42-2.76-.61-7.34-.07-10.2.42-2.21,1.07-3.93,3.3-4.59.1-.03.18-.01.25.02-.2-18.18-.15-36.37.21-54.55.36-18.62.5-37.43,2.23-55.99-3.41-.6-3.35-6.47-3.1-9.13.2-2.14,1.05-7,3.68-7.3.5-.06,1.07.05,1.71.37.2.1.11.45-.11.43h-.05c-5.18-.36-6.35,14.15-1.07,14.79-.63-4.75-1.42-9.94.69-14.41.07-.14.18-.21.29-.23.03,0,.05-.02.09-.02.03,0,.06.01.1.02,4.89,1.68,9.8,2.85,14.96,3.27.39.03.53.46.38.72-.07.12-.2.21-.38.19-5.05-.41-9.98-1.46-14.68-3.37-1.7,3.86-1.15,8.12-.92,12.25,4.82,1.18,9.64,2.03,14.59,2.33.25.02.39.2.43.39.04.25-.1.52-.43.5-4.95-.27-9.84-1.07-14.56-2.61.02.38.03.76.04,1.14,0,.1-.03.17-.09.21.03.19-.04.39-.29.43-.23.04-.44.04-.65.04-.16,18.65-1.38,37.29-1.74,55.94-.37,18.89-.42,37.77-.19,56.65,0,.03-.01.06-.02.09,6.03,2.66,12.42,3.27,18.95,3.53,6.5.25,13.05.51,19.06-2.38.07-.03.13-.04.19-.05-.34-12.96.46-26.06,1.39-38.98.88-12.31,1.32-25.36,4.3-37.37.02-.05.04-.08.08-.1l.31.03s.05.08.05.13c-.37,12.74-2.72,25.55-3.61,38.3-.83,11.91-.96,23.81-1.34,35.73,4.56,2.74,4.81,11.51,1.65,15.31Z"/>
</svg>