<?xml version="1.0" encoding="UTF-8"?>
<svg id="Layer_1" data-name="Layer 1" xmlns="http://www.w3.org/2000/svg" viewBox="0 0 251 205">
  <defs>
    <style>
      .cls-1 {
        fill: none;
      }

      .cls-1, .cls-2 {
        fill-rule: evenodd;
        stroke: #221f1f;
        stroke-miterlimit: 10;
        stroke-width: 2px;
      }

      .cls-2 {
        fill: #fff;
      }
    </style>
  </defs>
  <path class="cls-2" d="M56.17,86.89c-.81,2.65,1.28,4.4,2.21,11.92.22,1.8.29,3.56.44,7.07.46,11.1-.26,12.92,1.18,15.9,1.21,2.52,3.16,3.57,7.8,6.92,9.91,7.15,18.47,11.11,19.29,11.48,15.82,7.23,30.55,13.96,49.17,11.63,2.86-.36,7.18-.92,12.51-2.94,10.88-4.12,17.06-10.91,27.38-22.52,10.92-12.29,14.26-19.66,15.46-22.52,1.87-4.47,3.46-8.38,3.39-13.69-.04-3.11-.61-3.29-3.39-16.19-.69-3.2-1.48-6.38-2.21-9.57-1.55-6.8-2.05-9.2-4.12-10.6-2.42-1.64-5.54-.93-6.75-.66-19.35,4.27-39.23,5.94-58.54,10.38-23.11,5.31-31.92,7.96-49.53,13.25-3.86,1.16-12.35,3.83-14.28,10.16Z"/>
  <path class="cls-1" d="M56.17,86.89c3.72.13,8.64.22,14.43.14,14.14-.2,24.86-1.35,28.45-1.76,11.17-1.27,20.89-3.09,26.76-4.42,25.5-5.77,48.15-18.14,60.77-25.81"/>
  <path class="cls-1" d="M57.83,95.45c2.47.09,5.96.18,10.14.18,11.38,0,34.34-.13,59.61-6.23,14.4-3.48,36.65-10.62,61.53-26.38"/>
  <path class="cls-1" d="M109.09,93.1c-.31,7.84-1.3,14.3-2.27,19.11-1.54,7.61-2.7,9.49-1.91,13.4.47,2.33,1.62,5.34,11.78,15.46,2.98,2.97,7.03,6.85,12.07,11.21"/>
  <path class="cls-1" d="M139.03,86.19c4.24,7.84,8.5,13.53,11.66,17.33,4.27,5.13,6.65,6.93,7.66,11.19.98,4.12-.18,6.93-2.8,15.75-1.21,4.1-2.92,10.11-4.78,17.6"/>
  <path class="cls-1" d="M60.84,122.97c2.41-.56,5.8-1.28,9.91-1.92,2.65-.42,8.75-1.38,12.99-1.41,3.97-.03,11.72.72,21.52,7.28"/>
  <path class="cls-1" d="M194.97,91.75c-2.4.68-5.83,1.75-9.83,3.38-4.94,2.01-8.37,3.41-12.22,6.33-3.07,2.33-4.99,4.56-7.66,7.66-2.92,3.39-5.08,6.48-6.59,8.82"/>
</svg>