<?xml version="1.0" encoding="UTF-8"?>
<svg id="Layer_1" data-name="Layer 1" xmlns="http://www.w3.org/2000/svg" viewBox="0 0 251 205">
  <defs>
    <style>
      .cls-1 {
        fill: #fff;
      }

      .cls-2 {
        fill: #1b1b1b;
      }
    </style>
  </defs>
  <path class="cls-1" d="M138.3,66.72c.1.05.2.07.31.07-.41.22-.82.45-1.23.68,0,0,0-.02,0-.03.36-.14.68-.39.93-.72Z"/>
  <path class="cls-1" d="M138.55,75.07c.07.05.14.09.21.14-.06.04-.12.09-.17.13-.01-.09-.02-.18-.03-.27Z"/>
  <path class="cls-1" d="M136.87,66.67c-.22-1.14-2.57-4.48-1.22-4.96,1.59.4,2.93,4.08,1.22,4.96Z"/>
  <path class="cls-1" d="M138.15,72.08c.64-.41,1.31-.79,1.98-1.16-.14,1.16-.32,2.31-.55,3.45-1.03-.49-1.45-1.15-1.44-2.29Z"/>
  <path class="cls-1" d="M133.39,83.8c-.12,2.27-4.42-1.38-5.47-1.87,3.4-5.55,5.26-11.8,6.93-17.7,1.42,6.44-.09,13.21-1.46,19.57Z"/>
  <path class="cls-1" d="M138.47,63.31c-.26-.7-.52-1.48-1.06-2.04,1.57-.18,1.58,2.35,1.39,3.37-.05-.4-.16-.84-.33-1.33Z"/>
  <path class="cls-1" d="M127.87,79.88c-.12.23-.23.45-.36.65.79-5.88,3.31-11.79,6.59-16.63-1.64,5.46-3.65,10.94-6.23,15.98Z"/>
  <path class="cls-1" d="M142.12,73.16c-.57.31-1.14.63-1.7.96-.65-5.29,5.54-5.61,1.7-.96Z"/>
  <path class="cls-1" d="M136.32,98.29c-6.36-8.3,1.46-19.37.34-28.97.9,9.25,2.63,18.87,1.62,28.12h0c-.3.79-1.16,1.22-1.95.84Z"/>
  <path class="cls-1" d="M136.75,99.93c.17.02.35.01.52,0-.02,1.45.01,3.85.02,5.31-.95-1.48-.03-3.63-.55-5.3Z"/>
  <path class="cls-1" d="M137.36,60.05c-3.55.41-5.26,3.89-6.69,6.93-1.93-1.99-3.61-4.31-5.88-5.91.08-.1.17-.36.19-.41,3.09-3.6,9.87-6.19,12.43-.61-.01,0-.03,0-.04,0Z"/>
  <path class="cls-1" d="M144.16,69.87c.7.36,1.41.7,2.12,1.02-.83.42-1.65.87-2.43,1.3.13-.82.23-1.59.31-2.33Z"/>
  <path class="cls-1" d="M138.03,71.26c-1.43-3.87,1.52-4.93,4.31-2.37-1.46.74-2.91,1.52-4.31,2.37Z"/>
  <path class="cls-1" d="M140.23,79.02c-.36.19-.83.17-1.21.12-1.32-5.08,8.23-9.11,12.14-6.25-4,1.3-7.33,4.03-10.93,6.12Z"/>
  <path class="cls-1" d="M150.04,74.28c.7-.3,1.23-.5,2.05-.85.1,2.49-.47,4.66-3.2,5.47.61-1.36-.08-3.86,1.15-4.62Z"/>
  <path class="cls-1" d="M146.82,75.78c.67-.4,1.21-.68,1.83-.93-.14,1.53-.37,3.03-.69,4.49-1.17-.64-2.38-1.31-3.59-2.01.78-.49,1.75-1.12,2.45-1.55Z"/>
  <path class="cls-1" d="M74.78,90.44c13.99,13.02,35.16,7.88,51.4,16.1,12.49,8.27,78.64,13.93,72.02-9.99,13.16,25.09-17.16,30.3-35.65,29.98-21.28,1.54-37.48-11.12-58.41-12.37-19.43.99-37.5-4.42-31.37-27.82.33,1.59.94,3.04,2.02,4.11Z"/>
  <path class="cls-1" d="M172.15,81.58c-4.77.64-12.98,8.28-16.33,7.1-3.51-3.01,18.61-12.72,16.33-7.1Z"/>
  <path class="cls-1" d="M163.53,86.43c.58-.31,1.1-.58,1.59-.82-.16,1.05-.33,2.46-.4,2.76-.8-.41-1.6-.83-2.39-1.25.4-.24.8-.47,1.2-.69Z"/>
  <path class="cls-1" d="M163.74,81.03c-1.1.51-2.13,1.04-3.15,1.57-1.1-8.08,6.85-2.74,3.15-1.57Z"/>
  <path class="cls-1" d="M155.47,67.89c-4.64-1.93-11.84-3.31-15.72-6.03,5.06,1.12,12.18,2.1,16,6.07-.1,0-.19-.02-.28-.03Z"/>
  <path class="cls-1" d="M166.15,85.13c.94-.43,1.98-.72,2.92-1.24-.12,9.29-6.58,14.84-2.92,1.24Z"/>
  <path class="cls-1" d="M193.35,107.12c-22.98,9.43-49.34,6.59-71.53-3.53-14.78-5.48-34.25-1.7-46.23-13.8-2.87-8.13-1.48-31.01,8.1-33.37,9.23.61,16.1,9.72,25.65,8.76-8.73,6.91-33.3-5.64-24.4-7.28-11.89-1.54,11.11,18.24,27.07,7.87,3.93-2.19,8-6.96,12.53-3.19,5.25,3.56,6.06,7.23,2.63,12.51-2.6,5.21-.31,9.5,5.22,10.92.1,3.73.09,7.54,1.09,11.15,1.26,2.22,3.02,3.13,2.36,5.93-.67,5.29,4.08,3.93,2.58-.8-.03-.83-.1-1.84-.15-2.68,4.19-4.83.55-13.07.9-19.02,4.05-.79,3.22-4.18,7.94-.49-3.77,1.45-.24,6.98,2.74,4.5,1.29-3.07,3.93-.92,5.88.14-1.51,2.29-2.62,5.3,1.38,5.77,3.2-.44,3.81-4.36,7.36-1.11-3.9,4.87,3.89,7.91,4.2,1.95.54.23,1.08.43,1.6.63.05-.34.23-.67.46-.91-.57-.21-1.16-.43-1.77-.69,1.25-2.67-.35-7.08,2.93-7.72,9.04,3.04,35.65,12.84,21.45,24.48Z"/>
  <path class="cls-1" d="M166.2,79.87c-1.03-2.81.9-3.25,2.35-.92-.73.41-1.59.55-2.35.92Z"/>
  <path class="cls-1" d="M155.16,74.05c.44.28.88.56,1.31.85-1.34.66-2.63,1.32-3.91,2.01.19-1.2.31-2.3.37-3.34.72.27,1.45.56,2.23.48Z"/>
  <path class="cls-1" d="M156.48,70.77c-1.04,5.18-13.87-3.76-16.5-5.12.21-.51.31-1.19.28-1.85,5.52,1.52,10.85,5.16,16.52,5.39-.07.52-.17,1.04-.31,1.58Z"/>
  <path class="cls-1" d="M158.67,74.02c-.44.13-.88.3-1.31.48-.8-2.02.72-2.06,1.91-.8-.2.09-.4.22-.6.33Z"/>
  <path class="cls-1" d="M157.51,79.46c.84-.31,1.86-.81,2.65-1.24.04,2.17-.25,6.5-3.4,5.89.4-1.49.46-3.18.75-4.65Z"/>
  <path class="cls-1" d="M162.99,75.95c-4.01.75-13.95,8.91-15.87,7.44-1.11-4.02,5.49-4.9,7.97-6.85,2.12-.96,7.18-4.1,7.89-.59Z"/>
  <path class="cls-1" d="M156.54,79.9c-.11,1.28-.3,2.54-.56,3.78-1.05-.57-2.08-1.13-3.14-1.7,1.15-.74,2.59-1.55,3.7-2.08Z"/>
  <path class="cls-2" d="M72.47,84.49c-3.82,7.45-3.44,19.77,3.31,25.5,12.11,8.58,28.52,3.77,41.82,7.9,14.76,5.69,29.18,10.67,44.89,10.27,12.56-.93,28.65-.55,37.67-10.49,9.9-18.55-9.58-31.15-25.39-35.59.43-2.36-8.34-7.28-10.15-5.6-.03-2.06-2.35-3.6-4.26-3.41-.6-.79-1.7-1.53-2.8-1.69,1.41-8.42-12.01-9.85-17.77-10.72-3.08-7.56-12.67-6.69-16.67-.5-5.07-2.35-7.77,2.87-11.9,4.33-27.75-5.6-33.94-26.56-38.75,20.01ZM137.4,60.05c-3.58.37-5.29,3.89-6.74,6.93-1.93-1.99-3.61-4.31-5.88-5.91.08-.1.17-.36.19-.41,3.09-3.6,9.87-6.19,12.43-.61ZM136.93,102.02c-.02-.71-.08-1.41-.18-2.09.17.02.35.01.52,0-.02,1.45.01,3.85.02,5.31-.8-.81-.22-2.23-.37-3.22ZM136.39,98.31c-6.52-8.17,1.42-19.42.26-28.99.9,9.25,2.63,18.87,1.62,28.12h0c-.29.76-1.1,1.21-1.88.87ZM141.99,78.02c-1.09.61-1.8,1.33-2.97,1.13-1.32-5.08,8.23-9.11,12.14-6.25-3.36,1.24-6.25,2.94-9.17,5.12ZM145.5,76.63c1.11-.73,2.05-1.33,3.15-1.78-.14,1.53-.37,3.03-.69,4.49-1.17-.64-2.38-1.31-3.59-2.01.38-.24.75-.48,1.13-.71ZM149.5,74.5c.91-.38,1.58-.64,2.58-1.07.1,2.49-.47,4.66-3.2,5.47.29-1.44.5-2.91.62-4.4ZM146.11,70.97c-.78.4-1.53.81-2.26,1.22.13-.82.23-1.59.31-2.33.7.36,1.41.7,2.12,1.02-.06.03-.11.06-.17.09ZM142.99,72.68c-.85.48-1.72.94-2.57,1.44-.43-3.7,4.09-7.11,2.57-1.44ZM139.59,74.37c-2.21-1-1.47-2.82.55-3.45-.14,1.16-.32,2.31-.55,3.45ZM138.58,75.33c-.01-.09-.02-.18-.03-.27.07.05.14.09.21.14-.06.04-.12.09-.17.13ZM138.3,66.72c.1.05.2.07.31.07-.41.22-.82.45-1.23.68,0,0,0-.02,0-.03.36-.14.68-.39.93-.72ZM137.43,66.25c-1.41,1.31-1.22-3.28-2.49-4.02,1.67-1.89,3.29,2.74,2.49,4.02ZM133.45,83.55c.05,2.75-4.37-1.07-5.53-1.61,3.4-5.55,5.26-11.8,6.93-17.7,1.41,6.35-.06,13.04-1.4,19.32ZM127.92,79.79c-.13.26-.26.51-.4.74.79-5.88,3.31-11.79,6.59-16.63-1.63,5.43-3.62,10.88-6.18,15.89ZM138.89,63.52c.02.43,0,.79-.09,1.12-.19-1.11-.61-2.48-1.39-3.37,1.21-.26,1.4,1.44,1.48,2.24ZM139.57,67.11c.85.62,1.76,1.2,2.76,1.78-1.46.74-2.91,1.52-4.31,2.37-.48-2.07-.8-3.4,1.55-4.15ZM155.75,67.93c-4.77-1.79-12.01-3.36-16-6.07,5.06,1.12,12.18,2.1,16,6.07ZM156.79,69.19c.18,8.2-13.6-1.99-16.81-3.54.21-.51.31-1.19.28-1.85,5.52,1.52,10.85,5.16,16.52,5.39ZM152.92,73.57c1.21.54,2.53.37,3.54,1.33-1.34.66-2.63,1.32-3.91,2.01.19-1.2.31-2.3.37-3.34ZM159.27,73.7c-.59.36-1.27.53-1.91.8-.8-2.02.72-2.06,1.91-.8ZM163.17,75.61c-2.75,2.09-6.07,2.7-9.2,4.69-2.09.6-4.61,4.64-6.86,3.08-1.13-3.96,5.33-4.84,7.78-6.75,2.55-.99,6.04-3.98,8.27-1.03ZM154.35,81.07c.82-.47,1.53-.85,2.19-1.16-.11,1.28-.3,2.54-.56,3.78-1.05-.57-2.08-1.13-3.14-1.7.5-.32,1.01-.63,1.51-.92ZM157.45,79.49c.86-.32,1.9-.83,2.72-1.27.04,2.17-.25,6.5-3.4,5.89.34-1.5.57-3.05.68-4.62ZM165.3,80.27c-1.6.76-3.19,1.53-4.72,2.33,0-5.01,1.48-5.77,4.72-2.33ZM168.56,78.95c-.73.41-1.59.55-2.35.92-1.03-2.81.9-3.25,2.35-.92ZM172.6,81.27c-4.39.86-14.15,8.74-16.77,7.41-1.31-4.05,5.75-4.93,8.26-6.83,2.57-1,6.66-4.07,8.51-.58ZM162.32,87.11c.89-.53,1.93-1.08,2.8-1.51-.16,1.05-.33,2.46-.4,2.76-.8-.41-1.6-.83-2.39-1.25ZM165.14,90.44c.86-2.93.26-5.9,3.93-6.56-.61,2.67-.19,9.78-4.08,9.19-.88-.58-.02-1.85.15-2.64ZM197.44,102.49c-17.22,17.6-54.94,10.2-75.61,1.1-14.78-5.49-34.25-1.7-46.23-13.8-2.87-8.13-1.47-31.01,8.1-33.37,9.23.61,16.1,9.72,25.65,8.76-8.73,6.91-33.3-5.64-24.4-7.28-11.89-1.54,11.11,18.24,27.07,7.87,3.93-2.19,8-6.96,12.53-3.19,5.25,3.56,6.06,7.23,2.63,12.51-2.6,5.21-.31,9.5,5.22,10.92.1,3.73.09,7.54,1.09,11.15,1.26,2.22,3.02,3.13,2.36,5.93-.67,5.29,4.08,3.93,2.58-.8-.03-.83-.1-1.84-.15-2.68,4.19-4.83.55-13.07.9-19.02,4.05-.79,3.22-4.18,7.94-.49-3.77,1.45-.24,6.98,2.74,4.5,1.29-3.07,3.93-.92,5.88.14-1.51,2.29-2.62,5.3,1.38,5.77,3.2-.44,3.81-4.36,7.36-1.11-3.9,4.87,3.89,7.91,4.2,1.95.54.23,1.08.43,1.6.63.05-.34.23-.67.46-.91-.57-.21-1.16-.43-1.77-.69,1.25-2.67-.35-7.08,2.93-7.72,9.18,4.09,25.63,7.31,25.54,19.85ZM72.01,90.35c.08-1.4.36-2.71.75-4.02,9.77,18.75,37.11,10.98,53.42,20.2,12.5,8.27,78.64,13.93,72.02-9.99,17.52,41.18-56.84,31.36-77.06,20.72-17.41-6.73-54.01,3.63-49.13-26.91Z"/>
  <path class="cls-1" d="M116.41,88.61c.1.05.2.07.31.07-.41.22-.82.45-1.23.68,0,0,0-.02,0-.03.36-.14.68-.39.93-.72Z"/>
  <path class="cls-1" d="M116.65,96.96c.07.05.14.09.21.14-.06.04-.12.09-.17.13-.01-.09-.02-.18-.03-.27Z"/>
  <path class="cls-1" d="M114.98,88.57c-.22-1.14-2.57-4.48-1.22-4.96,1.59.4,2.93,4.08,1.22,4.96Z"/>
  <path class="cls-1" d="M116.25,93.97c.64-.41,1.31-.79,1.98-1.16-.14,1.16-.32,2.31-.55,3.45-1.03-.49-1.45-1.15-1.44-2.29Z"/>
  <path class="cls-1" d="M111.49,105.7c-.12,2.27-4.42-1.38-5.47-1.87,3.4-5.55,5.26-11.8,6.93-17.7,1.42,6.44-.09,13.21-1.46,19.57Z"/>
  <path class="cls-1" d="M116.57,85.21c-.26-.7-.52-1.48-1.06-2.04,1.57-.18,1.58,2.35,1.39,3.37-.05-.4-.16-.84-.33-1.33Z"/>
  <path class="cls-1" d="M105.98,101.77c-.12.23-.23.45-.36.65.79-5.88,3.31-11.79,6.59-16.63-1.64,5.46-3.65,10.94-6.23,15.98Z"/>
  <path class="cls-1" d="M120.23,95.05c-.57.31-1.14.63-1.7.96-.65-5.29,5.54-5.61,1.7-.96Z"/>
  <path class="cls-1" d="M114.42,120.18c-6.36-8.3,1.46-19.37.34-28.97.9,9.25,2.63,18.87,1.62,28.12h0c-.3.79-1.16,1.22-1.95.84Z"/>
  <path class="cls-1" d="M114.86,121.82c.17.02.35.01.52,0-.02,1.45.01,3.85.02,5.31-.95-1.48-.03-3.63-.55-5.3Z"/>
  <path class="cls-1" d="M115.46,81.94c-3.55.41-5.26,3.89-6.69,6.93-1.93-1.99-3.61-4.31-5.88-5.91.08-.1.17-.36.19-.41,3.09-3.6,9.87-6.19,12.43-.61-.01,0-.03,0-.04,0Z"/>
  <path class="cls-1" d="M122.27,91.76c.7.36,1.41.7,2.12,1.02-.83.42-1.65.87-2.43,1.3.13-.82.23-1.59.31-2.33Z"/>
  <path class="cls-1" d="M116.13,93.15c-1.43-3.87,1.52-4.93,4.31-2.37-1.46.74-2.91,1.52-4.31,2.37Z"/>
  <path class="cls-1" d="M118.33,100.92c-.36.19-.83.17-1.21.12-1.32-5.08,8.23-9.11,12.14-6.25-4,1.3-7.33,4.03-10.93,6.12Z"/>
  <path class="cls-1" d="M128.14,96.18c.7-.3,1.23-.5,2.05-.85.1,2.49-.47,4.66-3.2,5.47.61-1.36-.08-3.86,1.15-4.62Z"/>
  <path class="cls-1" d="M124.93,97.68c.67-.4,1.21-.68,1.83-.93-.14,1.53-.37,3.03-.69,4.49-1.17-.64-2.38-1.31-3.59-2.01.78-.49,1.75-1.12,2.45-1.55Z"/>
  <path class="cls-1" d="M52.89,112.33c13.99,13.02,35.16,7.88,51.4,16.1,12.49,8.27,78.64,13.93,72.02-9.99,13.16,25.09-17.16,30.3-35.65,29.98-21.28,1.54-37.48-11.12-58.41-12.37-19.43.99-37.5-4.42-31.37-27.82.33,1.59.94,3.04,2.02,4.11Z"/>
  <path class="cls-1" d="M150.26,103.47c-4.77.64-12.98,8.28-16.33,7.1-3.51-3.01,18.61-12.72,16.33-7.1Z"/>
  <path class="cls-1" d="M141.63,108.32c.58-.31,1.1-.58,1.59-.82-.16,1.05-.33,2.46-.4,2.76-.8-.41-1.6-.83-2.39-1.25.4-.24.8-.47,1.2-.69Z"/>
  <path class="cls-1" d="M141.84,102.92c-1.1.51-2.13,1.04-3.15,1.57-1.1-8.08,6.85-2.74,3.15-1.57Z"/>
  <path class="cls-1" d="M133.58,89.79c-4.64-1.93-11.84-3.31-15.72-6.03,5.06,1.12,12.18,2.1,16,6.07-.1,0-.19-.02-.28-.03Z"/>
  <path class="cls-1" d="M144.26,107.02c.94-.43,1.98-.72,2.92-1.24-.12,9.29-6.58,14.84-2.92,1.24Z"/>
  <path class="cls-1" d="M171.46,129.02c-22.98,9.43-49.34,6.59-71.53-3.53-14.78-5.48-34.25-1.7-46.23-13.8-2.87-8.13-1.48-31.01,8.1-33.37,9.23.61,16.1,9.72,25.65,8.76-8.73,6.91-33.3-5.64-24.4-7.28-11.89-1.54,11.11,18.24,27.07,7.87,3.93-2.19,8-6.96,12.53-3.19,5.25,3.56,6.06,7.23,2.63,12.51-2.6,5.21-.31,9.5,5.22,10.92.1,3.73.09,7.54,1.09,11.15,1.26,2.22,3.02,3.13,2.36,5.93-.67,5.29,4.08,3.93,2.58-.8-.03-.83-.1-1.84-.15-2.68,4.19-4.83.55-13.07.9-19.02,4.05-.79,3.22-4.18,7.94-.49-3.77,1.45-.24,6.98,2.74,4.5,1.29-3.07,3.93-.92,5.88.14-1.51,2.29-2.62,5.3,1.38,5.77,3.2-.44,3.81-4.36,7.36-1.11-3.9,4.87,3.89,7.91,4.2,1.95.54.23,1.08.43,1.6.63.05-.34.23-.67.46-.91-.57-.21-1.16-.43-1.77-.69,1.25-2.67-.35-7.08,2.93-7.72,9.04,3.04,35.65,12.84,21.45,24.48Z"/>
  <path class="cls-1" d="M144.31,101.77c-1.03-2.81.9-3.25,2.35-.92-.73.41-1.59.55-2.35.92Z"/>
  <path class="cls-1" d="M133.26,95.95c.44.28.88.56,1.31.85-1.34.66-2.63,1.32-3.91,2.01.19-1.2.31-2.3.37-3.34.72.27,1.45.56,2.23.48Z"/>
  <path class="cls-1" d="M134.58,92.67c-1.04,5.18-13.87-3.76-16.5-5.12.21-.51.31-1.19.28-1.85,5.52,1.52,10.85,5.16,16.52,5.39-.07.52-.17,1.04-.31,1.58Z"/>
  <path class="cls-1" d="M136.78,95.92c-.44.13-.88.3-1.31.48-.8-2.02.72-2.06,1.91-.8-.2.09-.4.22-.6.33Z"/>
  <path class="cls-1" d="M135.62,101.36c.84-.31,1.86-.81,2.65-1.24.04,2.17-.25,6.5-3.4,5.89.4-1.49.46-3.18.75-4.65Z"/>
  <path class="cls-1" d="M141.09,97.84c-4.01.75-13.95,8.91-15.87,7.44-1.11-4.02,5.49-4.9,7.97-6.85,2.12-.96,7.18-4.1,7.89-.59Z"/>
  <path class="cls-1" d="M134.65,101.8c-.11,1.28-.3,2.54-.56,3.78-1.05-.57-2.08-1.13-3.14-1.7,1.15-.74,2.59-1.55,3.7-2.08Z"/>
  <path class="cls-2" d="M50.58,106.38c-3.82,7.45-3.44,19.77,3.31,25.5,12.11,8.58,28.52,3.77,41.82,7.9,14.76,5.69,29.18,10.67,44.89,10.27,12.56-.93,28.65-.55,37.67-10.49,9.9-18.55-9.58-31.15-25.39-35.59.43-2.36-8.34-7.28-10.15-5.6-.03-2.06-2.35-3.6-4.26-3.41-.6-.79-1.7-1.53-2.8-1.69,1.41-8.42-12.01-9.85-17.77-10.72-3.08-7.56-12.67-6.69-16.67-.5-5.07-2.35-7.77,2.87-11.9,4.33-27.75-5.6-33.94-26.56-38.75,20.01ZM115.5,81.94c-3.58.37-5.29,3.89-6.74,6.93-1.93-1.99-3.61-4.31-5.88-5.91.08-.1.17-.36.19-.41,3.09-3.6,9.87-6.19,12.43-.61ZM115.04,123.91c-.02-.71-.08-1.41-.18-2.09.17.02.35.01.52,0-.02,1.45.01,3.85.02,5.31-.8-.81-.22-2.23-.37-3.22ZM114.49,120.21c-6.52-8.17,1.42-19.42.26-28.99.9,9.25,2.63,18.87,1.62,28.12h0c-.29.76-1.1,1.21-1.88.87ZM120.1,99.91c-1.09.61-1.8,1.33-2.97,1.13-1.32-5.08,8.23-9.11,12.14-6.25-3.36,1.24-6.25,2.94-9.17,5.12ZM123.6,98.52c1.11-.73,2.05-1.33,3.15-1.78-.14,1.53-.37,3.03-.69,4.49-1.17-.64-2.38-1.31-3.59-2.01.38-.24.75-.48,1.13-.71ZM127.61,96.39c.91-.38,1.58-.64,2.58-1.07.1,2.49-.47,4.66-3.2,5.47.29-1.44.5-2.91.62-4.4ZM124.22,92.87c-.78.4-1.53.81-2.26,1.22.13-.82.23-1.59.31-2.33.7.36,1.41.7,2.12,1.02-.06.03-.11.06-.17.09ZM121.09,94.57c-.85.48-1.72.94-2.57,1.44-.43-3.7,4.09-7.11,2.57-1.44ZM117.69,96.26c-2.21-1-1.47-2.82.55-3.45-.14,1.16-.32,2.31-.55,3.45ZM116.69,97.23c-.01-.09-.02-.18-.03-.27.07.05.14.09.21.14-.06.04-.12.09-.17.13ZM116.41,88.61c.1.05.2.07.31.07-.41.22-.82.45-1.23.68,0,0,0-.02,0-.03.36-.14.68-.39.93-.72ZM115.53,88.14c-1.41,1.31-1.22-3.28-2.49-4.02,1.67-1.89,3.29,2.74,2.49,4.02ZM111.55,105.44c.05,2.75-4.37-1.07-5.53-1.61,3.4-5.55,5.26-11.8,6.93-17.7,1.41,6.35-.06,13.04-1.4,19.32ZM106.02,101.68c-.13.26-.26.51-.4.74.79-5.88,3.31-11.79,6.59-16.63-1.63,5.43-3.62,10.88-6.18,15.89ZM117,85.41c.02.43,0,.79-.09,1.12-.19-1.11-.61-2.48-1.39-3.37,1.21-.26,1.4,1.44,1.48,2.24ZM117.68,89.01c.85.62,1.76,1.2,2.76,1.78-1.46.74-2.91,1.52-4.31,2.37-.48-2.07-.8-3.4,1.55-4.15ZM133.86,89.82c-4.77-1.79-12.01-3.36-16-6.07,5.06,1.12,12.18,2.1,16,6.07ZM134.89,91.09c.18,8.2-13.6-1.99-16.81-3.54.21-.51.31-1.19.28-1.85,5.52,1.52,10.85,5.16,16.52,5.39ZM131.03,95.46c1.21.54,2.53.37,3.54,1.33-1.34.66-2.63,1.32-3.91,2.01.19-1.2.31-2.3.37-3.34ZM137.37,95.59c-.59.36-1.27.53-1.91.8-.8-2.02.72-2.06,1.91-.8ZM141.28,97.5c-2.75,2.09-6.07,2.7-9.2,4.69-2.09.6-4.61,4.64-6.86,3.08-1.13-3.96,5.33-4.84,7.78-6.75,2.55-.99,6.04-3.98,8.27-1.03ZM132.46,102.96c.82-.47,1.53-.85,2.19-1.16-.11,1.28-.3,2.54-.56,3.78-1.05-.57-2.08-1.13-3.14-1.7.5-.32,1.01-.63,1.51-.92ZM135.55,101.39c.86-.32,1.9-.83,2.72-1.27.04,2.17-.25,6.5-3.4,5.89.34-1.5.57-3.05.68-4.62ZM143.41,102.16c-1.6.76-3.19,1.53-4.72,2.33,0-5.01,1.48-5.77,4.72-2.33ZM146.66,100.85c-.73.41-1.59.55-2.35.92-1.03-2.81.9-3.25,2.35-.92ZM150.7,103.16c-4.39.86-14.15,8.74-16.77,7.41-1.31-4.05,5.75-4.93,8.26-6.83,2.57-1,6.66-4.07,8.51-.58ZM140.43,109.01c.89-.53,1.93-1.08,2.8-1.51-.16,1.05-.33,2.46-.4,2.76-.8-.41-1.6-.83-2.39-1.25ZM143.24,112.34c.86-2.93.26-5.9,3.93-6.56-.61,2.67-.19,9.78-4.08,9.19-.88-.58-.02-1.85.15-2.64ZM175.54,124.38c-17.22,17.6-54.94,10.2-75.61,1.1-14.78-5.49-34.25-1.7-46.23-13.8-2.87-8.13-1.47-31.01,8.1-33.37,9.23.61,16.1,9.72,25.65,8.76-8.73,6.91-33.3-5.64-24.4-7.28-11.89-1.54,11.11,18.24,27.07,7.87,3.93-2.19,8-6.96,12.53-3.19,5.25,3.56,6.06,7.23,2.63,12.51-2.6,5.21-.31,9.5,5.22,10.92.1,3.73.09,7.54,1.09,11.15,1.26,2.22,3.02,3.13,2.36,5.93-.67,5.29,4.08,3.93,2.58-.8-.03-.83-.1-1.84-.15-2.68,4.19-4.83.55-13.07.9-19.02,4.05-.79,3.22-4.18,7.94-.49-3.77,1.45-.24,6.98,2.74,4.5,1.29-3.07,3.93-.92,5.88.14-1.51,2.29-2.62,5.3,1.38,5.77,3.2-.44,3.81-4.36,7.36-1.11-3.9,4.87,3.89,7.91,4.2,1.95.54.23,1.08.43,1.6.63.05-.34.23-.67.46-.91-.57-.21-1.16-.43-1.77-.69,1.25-2.67-.35-7.08,2.93-7.72,9.18,4.09,25.63,7.31,25.54,19.85ZM50.12,112.24c.08-1.4.36-2.71.75-4.02,9.77,18.75,37.11,10.98,53.42,20.2,12.5,8.27,78.64,13.93,72.02-9.99,17.52,41.18-56.84,31.36-77.06,20.72-17.41-6.73-54.01,3.63-49.13-26.91Z"/>
</svg>