<?xml version="1.0" encoding="UTF-8"?>
<svg xmlns="http://www.w3.org/2000/svg" xmlns:xlink="http://www.w3.org/1999/xlink" viewBox="0 0 251 205">
  <defs>
    <style>
      .cls-1, .cls-2, .cls-3, .cls-4, .cls-5, .cls-6, .cls-7, .cls-8 {
        stroke: #221f1f;
      }

      .cls-1, .cls-2, .cls-4, .cls-5, .cls-6, .cls-7 {
        stroke-miterlimit: 10;
      }

      .cls-1, .cls-3, .cls-4, .cls-9, .cls-5, .cls-6, .cls-8 {
        fill: #fff;
      }

      .cls-10 {
        opacity: .25;
      }

      .cls-10, .cls-4, .cls-6 {
        mix-blend-mode: multiply;
      }

      .cls-2, .cls-3, .cls-4, .cls-5 {
        stroke-width: .75px;
      }

      .cls-2, .cls-7 {
        fill: none;
      }

      .cls-11 {
        isolation: isolate;
      }

      .cls-3, .cls-8 {
        stroke-linecap: round;
        stroke-linejoin: round;
      }

      .cls-12 {
        clip-path: url(#clippath-1);
      }

      .cls-13 {
        clip-path: url(#clippath-2);
      }

      .cls-4, .cls-6 {
        opacity: .5;
      }

      .cls-14 {
        clip-path: url(#clippath);
      }
    </style>
    <clipPath id="clippath">
      <path class="cls-5" d="M176.42,26.57c2.13,7.52,3.35,19.28,4.22,39.06.57,12.95.75,23.38-.47,29.65.01,1.34.03,2.55.04,3.63l-20.89-.33c-.06-1.22-.12-2.44-.17-3.64-3.32-17-1.53-46.73-1.53-46.73,5.36-10.6,13.74-17.9,18.81-21.64Z"/>
    </clipPath>
    <clipPath id="clippath-1">
      <path class="cls-5" d="M99.31,14.71c-4.29,6.53-8.99,17.38-15.76,35.98-4.43,12.18-7.74,22.07-8.46,28.42-.42,1.27-.79,2.42-1.13,3.45l20.02,5.97c.43-1.15.85-2.29,1.26-3.42,8.27-15.21,15.51-44.11,15.51-44.11-1.93-11.72-7.73-21.2-11.44-26.29Z"/>
    </clipPath>
    <clipPath id="clippath-2">
      <path class="cls-1" d="M140.38,91.86c-5.07,13.68-30.4,81.19-33.65,94.59-.81,2.29-1.48,4.19-1.98,5.6-.08.24.02.5.24.63,1.75.99,9.43,5.11,20.83,8.32.25.07.51-.05.62-.29.47-1.09,1.27-2.91,2.34-5.35,7.11-11.96,29.58-64.99,41.51-94.81,1.5-3.75,5.24-14.8,7.21-21.57.52-1.6,1.03-3.21,1.52-4.83-5.11-.94-14.44-3.32-29.4-9.3-14.96-5.98-23.35-10.69-27.71-13.53-.76,1.51-1.5,3.02-2.23,4.54-3.24,6.26-8.15,16.84-9.65,20.59-11.93,29.82-32.22,83.73-35.32,97.29-.91,2.5-1.59,4.37-2,5.48-.09.24.02.51.25.63,10.47,5.54,18.87,7.85,20.82,8.34.25.06.5-.06.6-.29.61-1.37,1.44-3.2,2.43-5.42,6.89-11.95,35.1-78.3,40.86-91.71l2.68,1.07Z"/>
    </clipPath>
  </defs>
  <g class="cls-11">
    <g id="Layer_1" data-name="Layer 1">
      <g>
        <g>
          <g>
            <path class="cls-5" d="M164.85,11.84c5.56,3.13,9.15,6.19,11.57,14.73l-18.81,21.64,5.62-36.62,1.63.25Z"/>
            <path class="cls-5" d="M176.42,26.57c2.13,7.52,3.35,19.28,4.22,39.06.57,12.95.75,23.38-.47,29.65.01,1.34.03,2.55.04,3.63l-20.89-.33c-.06-1.22-.12-2.44-.17-3.64-3.32-17-1.53-46.73-1.53-46.73,5.36-10.6,13.74-17.9,18.81-21.64Z"/>
            <g>
              <path class="cls-9" d="M176.42,26.57c2.13,7.52,3.35,19.28,4.22,39.06.57,12.95.75,23.38-.47,29.65.01,1.34.03,2.55.04,3.63l-20.89-.33c-.06-1.22-.12-2.44-.17-3.64-3.32-17-1.53-46.73-1.53-46.73,5.36-10.6,13.74-17.9,18.81-21.64Z"/>
              <g class="cls-14">
                <g>
                  <g class="cls-10">
                    <path class="cls-5" d="M182.4,10.51c-5.5,1.3-15.87,3.03-33.59,3.73"/>
                    <path class="cls-5" d="M183.7,24.73c-5.52,1.3-15.91,3.04-33.64,3.73"/>
                    <path class="cls-5" d="M184.76,38.96c-5.53,1.3-15.95,3.04-33.68,3.74"/>
                    <path class="cls-5" d="M185.57,53.2c-5.55,1.3-15.99,3.04-33.72,3.74"/>
                    <path class="cls-5" d="M186.13,67.46c-5.57,1.3-16.03,3.04-33.76,3.74"/>
                    <path class="cls-5" d="M186.44,81.72c-5.59,1.3-16.08,3.04-33.8,3.74"/>
                    <path class="cls-5" d="M186.5,95.99c-5.61,1.3-16.12,3.04-33.84,3.74"/>
                    <path class="cls-5" d="M186.32,110.26c-5.63,1.3-16.16,3.04-33.89,3.74"/>
                  </g>
                  <g class="cls-10">
                    <path class="cls-5" d="M170.34-3.3c1.35,7.07,3,18.87,3.38,22.96,3.14,34.49,4.78,70.82.15,105.31"/>
                    <path class="cls-5" d="M161.35-2.94c1.1,7.08,2.52,18.88,2.88,22.98,3.09,34.84,4.24,70.32,1.4,105.26"/>
                  </g>
                </g>
              </g>
              <path class="cls-2" d="M176.42,26.57c2.13,7.52,3.35,19.28,4.22,39.06.57,12.95.75,23.38-.47,29.65.01,1.34.03,2.55.04,3.63l-20.89-.33c-.06-1.22-.12-2.44-.17-3.64-3.32-17-1.53-46.73-1.53-46.73,5.36-10.6,13.74-17.9,18.81-21.64Z"/>
            </g>
            <path class="cls-5" d="M159.14,94.95l1.51.23c.1.02,10.22,1.52,18.44.27l1.07-.16c.03,3.07.06,5.48.07,7.16,0,.26-.19.49-.45.52-8.31,1.18-17.74.02-19.84-.27-.25-.03-.44-.24-.45-.49-.13-2.46-.24-4.88-.35-7.25Z"/>
            <path class="cls-4" d="M159.49,102.2c-.13-2.46-.24-4.88-.35-7.25l1.51.23s1.39.21,3.48.4c-.27,3.2-.58,5.72-.82,7.5-1.58-.15-2.78-.3-3.37-.38-.25-.03-.44-.24-.45-.49Z"/>
            <g>
              <g>
                <path class="cls-3" d="M159.14,94.95l1.51.23c.07.01,4.74.71,10.3.76"/>
                <path class="cls-3" d="M157.61,48.21c5.36-10.6,13.74-17.9,18.81-21.64"/>
              </g>
              <path class="cls-3" d="M162.78,103.03c-1.32-.13-2.31-.26-2.84-.33-.25-.03-.44-.24-.45-.49-.13-2.46-.24-4.89-.35-7.26-3.32-17-1.53-46.73-1.53-46.73"/>
            </g>
          </g>
          <g>
            <path class="cls-5" d="M114.77,4.14c-6.25,1.31-10.59,3.15-15.46,10.57l11.44,26.29,5.65-36.61-1.63-.25Z"/>
            <path class="cls-5" d="M99.31,14.71c-4.29,6.53-8.99,17.38-15.76,35.98-4.43,12.18-7.74,22.07-8.46,28.42-.42,1.27-.79,2.42-1.13,3.45l20.02,5.97c.43-1.15.85-2.29,1.26-3.42,8.27-15.21,15.51-44.11,15.51-44.11-1.93-11.72-7.73-21.2-11.44-26.29Z"/>
            <g>
              <path class="cls-9" d="M99.31,14.71c-4.29,6.53-8.99,17.38-15.76,35.98-4.43,12.18-7.74,22.07-8.46,28.42-.42,1.27-.79,2.42-1.13,3.45l20.02,5.97c.43-1.15.85-2.29,1.26-3.42,8.27-15.21,15.51-44.11,15.51-44.11-1.93-11.72-7.73-21.2-11.44-26.29Z"/>
              <g class="cls-12">
                <g>
                  <g class="cls-10">
                    <path class="cls-5" d="M98.43-2.41c4.85,2.89,14.22,7.66,30.92,13.66"/>
                    <path class="cls-5" d="M92.91,10.75c4.87,2.9,14.26,7.68,30.96,13.67"/>
                    <path class="cls-5" d="M87.63,24.01c4.89,2.9,14.3,7.69,31,13.69"/>
                    <path class="cls-5" d="M82.58,37.35c4.91,2.91,14.34,7.71,31.03,13.7"/>
                    <path class="cls-5" d="M77.75,50.78c4.92,2.92,14.38,7.72,31.07,13.72"/>
                    <path class="cls-5" d="M73.17,64.29c4.94,2.92,14.42,7.74,31.11,13.73"/>
                    <path class="cls-5" d="M68.82,77.88c4.96,2.93,14.46,7.75,31.15,13.74"/>
                    <path class="cls-5" d="M64.7,91.54c4.98,2.93,14.5,7.76,31.19,13.76"/>
                  </g>
                  <g class="cls-10">
                    <path class="cls-5" d="M114.09-11.95c-3.42,6.34-8.54,17.09-10.12,20.88-13.36,31.95-25.85,66.11-31.81,100.39"/>
                    <path class="cls-5" d="M122.56-8.91c-3.17,6.43-8.08,17.25-9.66,21.05-13.42,32.3-25.19,65.79-32.98,99.96"/>
                  </g>
                </g>
              </g>
              <path class="cls-2" d="M99.31,14.71c-4.29,6.53-8.99,17.38-15.76,35.98-4.43,12.18-7.74,22.07-8.46,28.42-.42,1.27-.79,2.42-1.13,3.45l20.02,5.97c.43-1.15.85-2.29,1.26-3.42,8.27-15.21,15.51-44.11,15.51-44.11-1.93-11.72-7.73-21.2-11.44-26.29Z"/>
            </g>
            <path class="cls-5" d="M95.23,85.11l-1.51-.24c-.1-.02-10.21-1.62-17.67-5.29l-.97-.48c-.96,2.92-1.7,5.21-2.22,6.81-.08.25.03.52.27.63,7.57,3.63,16.92,5.35,19,5.71.25.04.49-.1.58-.34.86-2.31,1.7-4.58,2.52-6.81Z"/>
            <g>
              <g>
                <path class="cls-3" d="M95.23,85.11l-1.51-.24c-.07-.01-4.73-.75-10.05-2.37"/>
                <path class="cls-3" d="M110.74,41c-1.93-11.72-7.73-21.2-11.44-26.29"/>
              </g>
              <path class="cls-3" d="M89.33,91.73c1.3.27,2.28.45,2.8.54.25.04.49-.1.58-.34.86-2.31,1.7-4.59,2.52-6.82,8.27-15.21,15.51-44.11,15.51-44.11"/>
            </g>
          </g>
          <g>
            <path class="cls-5" d="M124.72,15.06l1.87-12.14s4.6,2.96,13.34,4.31,14.02-.1,14.02-.1l-1.87,12.14-27.36-4.21Z"/>
            <path class="cls-4" d="M124.72,15.06l1.87-12.14s4.6,2.96,13.34,4.31,14.02-.1,14.02-.1l-1.87,12.14-27.36-4.21Z"/>
            <path class="cls-5" d="M125.88,98.48c16.29,2.51,28.52,2.83,33.76,2.58.26-.01.46-.21.49-.46.32-2.89,2.05-19.69,1.97-39.12-.05-12.4.45-28.98,3.43-48.32l-.68-1.31c-3.69-1.86-8.1-3.64-10.91-4.71-1.52,1.01-6.76,3.97-14.43,2.78-7.67-1.18-11.78-5.57-12.93-6.99-3,.18-7.74.55-11.82,1.22l-1.04,1.05c-2.98,19.34-7.48,35.31-11.26,47.12-5.92,18.5-9.32,35.05-9.89,37.9-.05.25.09.5.33.59,4.93,1.82,16.68,5.18,32.98,7.69Z"/>
            <g>
              <path class="cls-3" d="M147.45,9.74c-2.2.46-4.88.65-7.94.18s-5.56-1.45-7.52-2.56"/>
              <path class="cls-3" d="M105.5,42.32c2.34-8.13,4.73-17.6,6.72-28.28"/>
              <path class="cls-3" d="M104.89,94.31c-5.47-1.36-9.56-2.63-11.98-3.52-.24-.09-.38-.34-.33-.59.34-1.72,1.71-8.39,4.03-17.45"/>
              <path class="cls-3" d="M161.54,82.67c-.51,9.38-1.22,16.17-1.41,17.92-.03.26-.23.45-.49.47-5.24.25-17.47-.08-33.76-2.58-2.45-.38-4.79-.77-7.03-1.18"/>
              <path class="cls-3" d="M164.3,22.05c-1.31,10.77-1.88,20.52-2.1,28.98"/>
              <path class="cls-3" d="M110.33,14.65s-.92,3.35.33,6.36"/>
              <path class="cls-3" d="M165.93,23.2s-.13,3.47-2.23,5.97"/>
              <g>
                <path class="cls-3" d="M136.23,31.25l-1.76-.27c-.97-.15-1.64-1.06-1.49-2.03l2.75-17.87c.16-1.02,1.14-1.71,2.15-1.48.48.11,1.03.22,1.64.31"/>
                <g>
                  <path class="cls-3" d="M135.76,16.76c-.07.49.26.94.75,1.02s.94-.26,1.02-.75-.26-.94-.75-1.02-.94.26-1.02.75Z"/>
                  <path class="cls-3" d="M134.94,22.04c-.07.49.26.94.75,1.02s.94-.26,1.02-.75-.26-.94-.75-1.02-.94.26-1.02.75Z"/>
                  <path class="cls-3" d="M134.13,27.33c-.07.49.26.94.75,1.02s.94-.26,1.02-.75-.26-.94-.75-1.02-.94.26-1.02.75Z"/>
                </g>
                <path class="cls-3" d="M123.92,5.6c1.8,2.1,6.64,6.75,15.02,8.04,8.38,1.29,14.4-1.69,16.74-3.15"/>
                <path class="cls-3" d="M110.32,70.74s24.16,1.16,42.81-20.46"/>
                <path class="cls-3" d="M114.69,59.91s12.27,2.3,23.7-1.7"/>
              </g>
            </g>
            <path class="cls-5" d="M156.76,9.76l1.26-1c-1.52-.63-2.93-1.19-4.08-1.63-1.52,1.01-6.76,3.97-14.43,2.78-7.67-1.18-11.78-5.57-12.93-6.99-1.22.07-2.74.18-4.38.32l.9,1.33c.21.3,5.14,7.42,15.83,9.06,10.69,1.64,17.53-3.66,17.82-3.89Z"/>
          </g>
        </g>
        <g>
          <path class="cls-1" d="M140.38,91.86c-5.07,13.68-30.4,81.19-33.65,94.59-.81,2.29-1.48,4.19-1.98,5.6-.08.24.02.5.24.63,1.75.99,9.43,5.11,20.83,8.32.25.07.51-.05.62-.29.47-1.09,1.27-2.91,2.34-5.35,7.11-11.96,29.58-64.99,41.51-94.81,1.5-3.75,5.24-14.8,7.21-21.57.52-1.6,1.03-3.21,1.52-4.83-5.11-.94-14.44-3.32-29.4-9.3-14.96-5.98-23.35-10.69-27.71-13.53-.76,1.51-1.5,3.02-2.23,4.54-3.24,6.26-8.15,16.84-9.65,20.59-11.93,29.82-32.22,83.73-35.32,97.29-.91,2.5-1.59,4.37-2,5.48-.09.24.02.51.25.63,10.47,5.54,18.87,7.85,20.82,8.34.25.06.5-.06.6-.29.61-1.37,1.44-3.2,2.43-5.42,6.89-11.95,35.1-78.3,40.86-91.71l2.68,1.07Z"/>
          <g>
            <path class="cls-9" d="M140.38,91.86c-5.07,13.68-30.4,81.19-33.65,94.59-.81,2.29-1.48,4.19-1.98,5.6-.08.24.02.5.24.63,1.75.99,9.43,5.11,20.83,8.32.25.07.51-.05.62-.29.47-1.09,1.27-2.91,2.34-5.35,7.11-11.96,29.58-64.99,41.51-94.81,1.5-3.75,5.24-14.8,7.21-21.57.52-1.6,1.03-3.21,1.52-4.83-5.11-.94-14.44-3.32-29.4-9.3-14.96-5.98-23.35-10.69-27.71-13.53-.76,1.51-1.5,3.02-2.23,4.54-3.24,6.26-8.15,16.84-9.65,20.59-11.93,29.82-32.22,83.73-35.32,97.29-.91,2.5-1.59,4.37-2,5.48-.09.24.02.51.25.63,10.47,5.54,18.87,7.85,20.82,8.34.25.06.5-.06.6-.29.61-1.37,1.44-3.2,2.43-5.42,6.89-11.95,35.1-78.3,40.86-91.71l2.68,1.07Z"/>
            <g class="cls-13">
              <g>
                <g class="cls-10">
                  <path class="cls-1" d="M111.92,67.94c4.81,3.09,14.07,8.22,30.54,14.81,16.47,6.59,26.72,9.26,32.33,10.34"/>
                  <path class="cls-1" d="M106.63,81.18c4.81,3.09,14.07,8.22,30.54,14.81,16.47,6.59,26.72,9.26,32.33,10.34"/>
                  <path class="cls-1" d="M101.34,94.42c4.81,3.09,14.07,8.22,30.54,14.81,16.47,6.59,26.72,9.26,32.33,10.34"/>
                  <path class="cls-1" d="M96.04,107.65c4.81,3.09,14.07,8.22,30.54,14.81,16.47,6.59,26.72,9.26,32.33,10.34"/>
                  <path class="cls-1" d="M90.75,120.89c4.81,3.09,14.07,8.22,30.54,14.81,16.47,6.59,26.72,9.26,32.33,10.34"/>
                  <path class="cls-1" d="M85.45,134.13c4.81,3.09,14.07,8.22,30.54,14.81,16.47,6.59,26.72,9.26,32.33,10.34"/>
                  <path class="cls-1" d="M80.16,147.36c4.81,3.09,14.07,8.22,30.54,14.81,16.47,6.59,26.72,9.26,32.33,10.34"/>
                  <path class="cls-1" d="M74.87,160.6c4.81,3.09,14.07,8.22,30.54,14.81,16.47,6.59,26.72,9.26,32.33,10.34"/>
                </g>
                <g class="cls-10">
                  <path class="cls-1" d="M121.29,194.48c6.69-12.37,29.26-66.43,41.39-96.76,1.53-3.82,5.49-14.99,7.66-21.81"/>
                  <path class="cls-1" d="M126.99,58.58c-3.12,6.43-7.96,17.26-9.49,21.07-12.13,30.33-33.06,85.04-36.75,98.62"/>
                  <path class="cls-1" d="M111.16,190.43c5.94-12.67,28.1-66.9,40.23-97.22,1.53-3.82,5.71-14.91,8.12-21.62"/>
                  <path class="cls-1" d="M137.83,62.91c-2.89,6.53-7.51,17.44-9.03,21.26-12.13,30.33-33.47,84.88-37.91,98.15"/>
                </g>
              </g>
            </g>
            <path class="cls-7" d="M140.38,91.86c-5.07,13.68-30.4,81.19-33.65,94.59-.81,2.29-1.48,4.19-1.98,5.6-.08.24.02.5.24.63,1.75.99,9.43,5.11,20.83,8.32.25.07.51-.05.62-.29.47-1.09,1.27-2.91,2.34-5.35,7.11-11.96,29.58-64.99,41.51-94.81,1.5-3.75,5.24-14.8,7.21-21.57.52-1.6,1.03-3.21,1.52-4.83-5.11-.94-14.44-3.32-29.4-9.3-14.96-5.98-23.35-10.69-27.71-13.53-.76,1.51-1.5,3.02-2.23,4.54-3.24,6.26-8.15,16.84-9.65,20.59-11.93,29.82-32.22,83.73-35.32,97.29-.91,2.5-1.59,4.37-2,5.48-.09.24.02.51.25.63,10.47,5.54,18.87,7.85,20.82,8.34.25.06.5-.06.6-.29.61-1.37,1.44-3.2,2.43-5.42,6.89-11.95,35.1-78.3,40.86-91.71l2.68,1.07Z"/>
          </g>
          <path class="cls-1" d="M96.83,182.49c-5.79-1.53-13.64-4.32-22.11-8.74-.91,2.49-1.59,4.36-1.99,5.48-.09.24.02.51.25.63,10.47,5.54,18.87,7.85,20.82,8.34.25.06.5-.06.6-.29.61-1.37,1.44-3.2,2.43-5.42Z"/>
          <path class="cls-1" d="M106.73,186.45c5.25,2.89,12.86,6.28,22.04,8.92-1.06,2.43-1.86,4.26-2.33,5.34-.1.24-.37.36-.62.29-11.4-3.21-19.08-7.33-20.83-8.32-.22-.12-.32-.39-.24-.63.5-1.41,1.17-3.31,1.97-5.6Z"/>
          <path class="cls-1" d="M121.92,51.31c-.76,1.51-1.49,3.03-2.22,4.55,4.74,3.03,13.35,7.77,28.06,13.65,14.71,5.88,24.21,8.39,29.74,9.46.52-1.6,1.03-3.21,1.53-4.83-5.11-.94-14.44-3.32-29.4-9.3-14.96-5.98-23.35-10.69-27.71-13.53Z"/>
          <path class="cls-6" d="M121.92,51.31c-.76,1.51-1.49,3.03-2.22,4.55,4.74,3.03,13.35,7.77,28.06,13.65,14.71,5.88,24.21,8.39,29.74,9.46.52-1.6,1.03-3.21,1.53-4.83-5.11-.94-14.44-3.32-29.4-9.3-14.96-5.98-23.35-10.69-27.71-13.53Z"/>
          <g>
            <path class="cls-8" d="M148.85,66.78c-3.5-1-11.07-2.03-12.66-.88-1.87,1.36-1.9,6.57-.03,7.32s8.22-1.87,12.7-6.44Z"/>
            <path class="cls-8" d="M148.85,66.78s-12.27,11.03-17.77,20.44"/>
            <path class="cls-8" d="M148.85,66.78c3.23,1.69,9.42,6.16,9.78,8.09.42,2.28-3.16,6.07-5.02,5.32-1.86-.75-4.66-7.02-4.76-13.42Z"/>
            <path class="cls-8" d="M148.85,66.78s1.28,16.45-1.22,27.06"/>
          </g>
        </g>
      </g>
    </g>
  </g>
</svg>