<?xml version="1.0" encoding="UTF-8"?>
<svg id="Layer_2" data-name="Layer 2" xmlns="http://www.w3.org/2000/svg" viewBox="0 0 595.7 313.99">
  <g id="Layer_1-2" data-name="Layer 1">
    <g>
      <path d="M465.45,101.3c-27.38-3.27-89.95-2.4-116.63,3.66-48.46,11.01-97.27,17.39-148.21,14.1-51.41-3.32-97.12-25.25-134.25,24.16-7.02,9.34-17.05,32.58-18.05,43.65-.6,6.62.44,14,0,20.72,1.83,2.53,1.06,6.85,1.97,9.63,24.12,73.84,93.18,62.47,154.76,73.51,24.54,4.4,50.3,9.64,73.81,15.77l59.89,7.49h27.35l26.6-3.1c54.59-10.69,134.93-42.84,149.11-103.46,1.07-4.59.98-9.61,2.51-13.98v-23.54c-4.08-41.72-40.75-64.06-78.86-68.62ZM527.08,197.44c-9.25,60.76-103.14,96.67-156.71,99.64-30.28,1.68-60.29-2.24-90.09-6.64-.01,0-.01-.04,0-.09-1.42-.18-2.77-.55-4.02-1.09-9.18-1.5-18.17-3.99-27.34-5.58-9.13-1.58-18.24-3.11-27.04-6.12-.45-.15-.88-.33-1.31-.51-1.22-.07-2.39-.28-3.5-.62-.96-.02-1.88-.11-2.78-.29,0,.06-.02.12-.02.18-4.14-1.41-8.54-1.95-12.83-2.72-45.24-8.14-106.58.96-130.67-49.37-18.25-38.13,6.49-89.99,49.81-96.58,17.35-2.64,36.9,3.62,54.57,5.51,9.8,1.05,19.76,1.58,29.61,1.81,2.28-.42,4.66-.44,6.95-.05-3.67-.62.86.05,1.36.08.98.07,1.96.11,2.94.16,2.24.11,4.48.2,6.71.41,1.99.19,3.88.44,5.74.77,1.16.03,2.32.06,3.49.07.05,0,.11,0,.16,0,2.89-.43,5.76-.5,7.2-.47,1.9.03,10.76.6,17.93,1.18,11.09-2.33,22.42-2.93,33.68-4.06,3.05-.96,6.07-1.79,9.49-2.12.16-.04.32-.1.48-.14,5.35-1.24,10.74-2.31,16.17-3.04,0-.08.01-.16.02-.24l33.27-4.76c16.3-5.14,36.85-4.88,54.89-5.62,24.99-1.02,52.24-3.44,76.5,4.17,37.13,11.63,51.36,36.75,45.36,76.1Z"/>
      <g>
        <path d="M558.28,146.25c-15.61,0-28.3-12.7-28.3-28.3s12.7-28.3,28.3-28.3,28.3,12.7,28.3,28.3-12.7,28.3-28.3,28.3ZM558.28,100.65c-9.54,0-17.3,7.76-17.3,17.3s7.76,17.3,17.3,17.3,17.3-7.76,17.3-17.3-7.76-17.3-17.3-17.3Z"/>
        <path d="M573.6,192.15c-12.18,0-22.1-9.91-22.1-22.1s9.91-22.1,22.1-22.1,22.1,9.91,22.1,22.1-9.91,22.1-22.1,22.1ZM573.6,156.96c-7.22,0-13.1,5.88-13.1,13.1s5.88,13.1,13.1,13.1,13.1-5.88,13.1-13.1-5.88-13.1-13.1-13.1Z"/>
        <path d="M565.11,239c-10.2,0-18.5-8.3-18.5-18.5s8.3-18.5,18.5-18.5,18.5,8.3,18.5,18.5-8.3,18.5-18.5,18.5ZM565.11,209c-6.34,0-11.5,5.16-11.5,11.5s5.16,11.5,11.5,11.5,11.5-5.16,11.5-11.5-5.16-11.5-11.5-11.5Z"/>
        <path d="M542.43,276.16c-8.82,0-16-7.18-16-16s7.18-16,16-16,16,7.18,16,16-7.18,16-16,16ZM542.43,251.16c-4.96,0-9,4.04-9,9s4.04,9,9,9,9-4.04,9-9-4.04-9-9-9Z"/>
        <path d="M511.95,301.49c-7.44,0-13.5-6.06-13.5-13.5s6.06-13.5,13.5-13.5,13.5,6.06,13.5,13.5-6.06,13.5-13.5,13.5ZM511.95,281.49c-3.58,0-6.5,2.92-6.5,6.5s2.92,6.5,6.5,6.5,6.5-2.92,6.5-6.5-2.92-6.5-6.5-6.5Z"/>
      </g>
      <path d="M59.18,195.45c-.21-4.59,1.79-8.35,4.86-11.04-38.02-11.54-58.43-59.08-41.39-94.66,24.09-50.32,85.43-41.23,130.67-49.37,4.29-.77,8.7-1.31,12.83-2.72,0,.06.02.12.02.18.89-.18,1.82-.27,2.78-.29,1.11-.34,2.28-.54,3.5-.62.43-.18.86-.36,1.31-.51,8.8-3,17.91-4.54,27.04-6.12,9.17-1.58,18.16-4.08,27.34-5.58,1.25-.54,2.6-.9,4.02-1.09,0-.04,0-.08,0-.09,29.81-4.4,59.81-8.32,90.09-6.64,53.57,2.97,147.45,38.88,156.71,99.64.23,1.54.43,3.04.6,4.54,1.95-.58,4.09-.78,6.43-.46,3.7.5,7.56,2.67,10.21,5.76v-5.86c-1.53-4.37-1.43-9.39-2.51-13.98-14.18-60.62-94.52-92.76-149.11-103.46l-26.6-3.1h-27.35l-59.89,7.49c-23.51,6.13-49.27,11.37-73.81,15.77-61.58,11.04-130.64-.33-154.76,73.51-.91,2.78-.13,7.1-1.96,9.63.44,6.71-.6,14.1,0,20.72,1,11.07,11.03,34.31,18.05,43.65,12.97,17.25,26.98,25.8,41.92,29.49-.56-1.58-.91-3.21-.98-4.81Z"/>
      <g>
        <path d="M516.99,111.99c-10.2,0-18.5-8.3-18.5-18.5s8.3-18.5,18.5-18.5,18.5,8.3,18.5,18.5-8.3,18.5-18.5,18.5ZM516.99,81.99c-6.34,0-11.5,5.16-11.5,11.5s5.16,11.5,11.5,11.5,11.5-5.16,11.5-11.5-5.16-11.5-11.5-11.5Z"/>
        <path d="M494.31,69.83c-8.82,0-16-7.18-16-16s7.18-16,16-16,16,7.18,16,16-7.18,16-16,16ZM494.31,44.83c-4.96,0-9,4.04-9,9s4.04,9,9,9,9-4.04,9-9-4.04-9-9-9Z"/>
        <path d="M463.82,39.5c-7.44,0-13.5-6.06-13.5-13.5s6.06-13.5,13.5-13.5,13.5,6.06,13.5,13.5-6.06,13.5-13.5,13.5ZM463.82,19.5c-3.58,0-6.5,2.92-6.5,6.5s2.92,6.5,6.5,6.5,6.5-2.92,6.5-6.5-2.92-6.5-6.5-6.5Z"/>
      </g>
    </g>
  </g>
</svg>