<svg width="35" height="20" viewBox="0 0 35 20" fill="none" xmlns="http://www.w3.org/2000/svg">
<g clip-path="url(#clip0_2848_3431)">
<path d="M27.3472 6.45256C25.7385 6.24427 22.0623 6.29969 20.4947 6.68569C17.6475 7.38698 14.7797 7.79336 11.7867 7.5838C8.76615 7.37233 6.08048 5.97547 3.89893 9.12271C3.48648 9.71763 2.89717 11.1979 2.83842 11.903C2.80316 12.3247 2.86427 12.7948 2.83842 13.2228C2.94594 13.384 2.9007 13.6592 2.95416 13.8362C4.37132 18.5396 8.4289 17.8153 12.047 18.5185C13.4888 18.7988 15.0023 19.1326 16.3837 19.523L19.9025 20.0001H21.5094L23.0723 19.8027C26.2797 19.1218 31 17.0739 31.8331 13.2126C31.896 12.9203 31.8907 12.6005 31.9806 12.3222V10.8228C31.7409 8.16535 29.5864 6.74238 27.3472 6.45192V6.45256ZM30.9683 12.5763C30.4248 16.4465 24.9083 18.7338 21.7609 18.923C19.9818 19.03 18.2186 18.7803 16.4677 18.5001C16.4671 18.5001 16.4671 18.4975 16.4677 18.4943C16.3842 18.4829 16.3049 18.4593 16.2315 18.4249C15.6921 18.3294 15.1639 18.1708 14.6251 18.0695C14.0887 17.9688 13.5535 17.8714 13.0364 17.6797C13.01 17.6701 12.9847 17.6586 12.9595 17.6472C12.8878 17.6427 12.819 17.6293 12.7538 17.6077C12.6974 17.6064 12.6434 17.6007 12.5905 17.5892C12.5905 17.593 12.5893 17.5969 12.5893 17.6007C12.3461 17.5109 12.0875 17.4765 11.8355 17.4274C9.17743 16.9089 5.57343 17.4886 4.15804 14.2827C3.08577 11.854 4.53936 8.55071 7.0846 8.13095C8.10399 7.9628 9.25263 8.36154 10.2908 8.48192C10.8666 8.5488 11.4518 8.58256 12.0305 8.59721C12.1645 8.57046 12.3043 8.56919 12.4389 8.59403C12.2233 8.55453 12.4894 8.59721 12.5188 8.59912C12.5764 8.60358 12.634 8.60613 12.6915 8.60931C12.8231 8.61632 12.9548 8.62205 13.0858 8.63543C13.2027 8.64753 13.3137 8.66346 13.423 8.68448C13.4912 8.68639 13.5593 8.6883 13.6281 8.68893C13.631 8.68893 13.6345 8.68893 13.6375 8.68893C13.8073 8.66155 13.9759 8.65709 14.0605 8.659C14.1721 8.66091 14.6927 8.69721 15.114 8.73416C15.7656 8.58575 16.4312 8.54753 17.0928 8.47555C17.272 8.4144 17.4495 8.36154 17.6504 8.34052C17.6598 8.33797 17.6692 8.33415 17.6786 8.3316C17.9929 8.25261 18.3096 8.18446 18.6287 8.13796C18.6287 8.13287 18.6292 8.12777 18.6298 8.12267L20.5846 7.81948C21.5423 7.49208 22.7497 7.50864 23.8096 7.46151C25.2779 7.39654 26.879 7.24239 28.3043 7.72712C30.4859 8.46791 31.322 10.068 30.9694 12.5744L30.9683 12.5763Z" fill="#808080"/>
<path d="M32.8014 9.31566C31.8843 9.31566 31.1387 8.50672 31.1387 7.51305C31.1387 6.51939 31.8849 5.71045 32.8014 5.71045C33.718 5.71045 34.4642 6.51939 34.4642 7.51305C34.4642 8.50672 33.718 9.31566 32.8014 9.31566ZM32.8014 6.41111C32.2409 6.41111 31.785 6.90539 31.785 7.51305C31.785 8.12072 32.2409 8.615 32.8014 8.615C33.3619 8.615 33.8179 8.12072 33.8179 7.51305C33.8179 6.90539 33.3619 6.41111 32.8014 6.41111Z" fill="#808080"/>
<path d="M33.7013 12.2392C32.9857 12.2392 32.4028 11.608 32.4028 10.8315C32.4028 10.0551 32.9851 9.42383 33.7013 9.42383C34.4175 9.42383 34.9998 10.0551 34.9998 10.8315C34.9998 11.608 34.4175 12.2392 33.7013 12.2392ZM33.7013 9.99773C33.2771 9.99773 32.9316 10.3723 32.9316 10.8322C32.9316 11.292 33.2771 11.6666 33.7013 11.6666C34.1255 11.6666 34.471 11.292 34.471 10.8322C34.471 10.3723 34.1255 9.99773 33.7013 9.99773Z" fill="#808080"/>
<path d="M33.2027 15.2235C32.6034 15.2235 32.1157 14.6948 32.1157 14.0451C32.1157 13.3954 32.6034 12.8667 33.2027 12.8667C33.802 12.8667 34.2896 13.3954 34.2896 14.0451C34.2896 14.6948 33.802 15.2235 33.2027 15.2235ZM33.2027 13.3126C32.8302 13.3126 32.527 13.6412 32.527 14.0451C32.527 14.4489 32.8302 14.7776 33.2027 14.7776C33.5752 14.7776 33.8784 14.4489 33.8784 14.0451C33.8784 13.6412 33.5752 13.3126 33.2027 13.3126Z" fill="#808080"/>
<path d="M31.8702 17.5905C31.352 17.5905 30.9302 17.1332 30.9302 16.5714C30.9302 16.0096 31.352 15.5522 31.8702 15.5522C32.3885 15.5522 32.8103 16.0096 32.8103 16.5714C32.8103 17.1332 32.3885 17.5905 31.8702 17.5905ZM31.8702 15.9981C31.5788 15.9981 31.3415 16.2555 31.3415 16.5714C31.3415 16.8873 31.5788 17.1447 31.8702 17.1447C32.1617 17.1447 32.399 16.8873 32.399 16.5714C32.399 16.2555 32.1617 15.9981 31.8702 15.9981Z" fill="#808080"/>
<path d="M30.0793 19.2037C29.6422 19.2037 29.2861 18.8177 29.2861 18.3438C29.2861 17.8699 29.6422 17.4839 30.0793 17.4839C30.5165 17.4839 30.8725 17.8699 30.8725 18.3438C30.8725 18.8177 30.5165 19.2037 30.0793 19.2037ZM30.0793 17.9298C29.869 17.9298 29.6974 18.1158 29.6974 18.3438C29.6974 18.5718 29.869 18.7578 30.0793 18.7578C30.2897 18.7578 30.4612 18.5718 30.4612 18.3438C30.4612 18.1158 30.2897 17.9298 30.0793 17.9298Z" fill="#808080"/>
<path d="M3.47699 12.4493C3.46465 12.1569 3.58216 11.9174 3.76254 11.746C1.5287 11.011 0.329519 7.98287 1.33069 5.71655C2.74609 2.51135 6.35008 3.09035 9.00813 2.57187C9.26019 2.52282 9.51929 2.48842 9.76195 2.39861C9.76195 2.40243 9.76313 2.40626 9.76313 2.41008C9.81542 2.39861 9.87006 2.39288 9.92646 2.3916C9.99168 2.36995 10.0604 2.35721 10.1321 2.35211C10.1574 2.34065 10.1826 2.32918 10.2091 2.31963C10.7261 2.12854 11.2614 2.03045 11.7978 1.92981C12.3366 1.82917 12.8648 1.66993 13.4041 1.57438C13.4776 1.53999 13.5569 1.51705 13.6403 1.50495C13.6403 1.5024 13.6403 1.49986 13.6403 1.49922C15.3918 1.21896 17.1544 0.969267 18.9335 1.07628C22.081 1.26545 27.5969 3.55279 28.1409 7.42298C28.1544 7.52107 28.1662 7.61661 28.1762 7.71216C28.2907 7.67521 28.4165 7.66247 28.554 7.68286C28.7714 7.7147 28.9981 7.85292 29.1538 8.04975V7.67649C29.0639 7.39813 29.0698 7.07838 29.0064 6.78601C28.1732 2.92474 23.4529 0.877544 20.2455 0.195994L18.6826 -0.00146484H17.0757L13.5569 0.47562C12.1756 0.866079 10.6621 1.19985 9.22023 1.48011C5.60214 2.18332 1.54456 1.45909 0.127403 6.16243C0.073937 6.3395 0.119765 6.61467 0.0122448 6.77582C0.0380968 7.20322 -0.0230078 7.67394 0.0122448 8.09561C0.0709992 8.80073 0.660306 10.281 1.07276 10.876C1.83481 11.9747 2.65796 12.5193 3.53575 12.7544C3.50284 12.6537 3.48228 12.5499 3.47817 12.448L3.47699 12.4493Z" fill="#808080"/>
<path d="M30.3755 7.13362C29.7762 7.13362 29.2886 6.60494 29.2886 5.95524C29.2886 5.30553 29.7762 4.77686 30.3755 4.77686C30.9748 4.77686 31.4625 5.30553 31.4625 5.95524C31.4625 6.60494 30.9748 7.13362 30.3755 7.13362ZM30.3755 5.22273C30.003 5.22273 29.6999 5.5514 29.6999 5.95524C29.6999 6.35907 30.003 6.68774 30.3755 6.68774C30.748 6.68774 31.0512 6.35907 31.0512 5.95524C31.0512 5.5514 30.748 5.22273 30.3755 5.22273Z" fill="#808080"/>
<path d="M29.0431 4.44795C28.5249 4.44795 28.103 3.99061 28.103 3.42881C28.103 2.86701 28.5249 2.40967 29.0431 2.40967C29.5613 2.40967 29.9832 2.86701 29.9832 3.42881C29.9832 3.99061 29.5613 4.44795 29.0431 4.44795ZM29.0431 2.85554C28.7517 2.85554 28.5143 3.11288 28.5143 3.42881C28.5143 3.74474 28.7517 4.00208 29.0431 4.00208C29.3345 4.00208 29.5719 3.74474 29.5719 3.42881C29.5719 3.11288 29.3345 2.85554 29.0431 2.85554Z" fill="#808080"/>
<path d="M27.2517 2.51619C26.8145 2.51619 26.4585 2.13019 26.4585 1.65629C26.4585 1.18239 26.8145 0.796387 27.2517 0.796387C27.6888 0.796387 28.0449 1.18239 28.0449 1.65629C28.0449 2.13019 27.6888 2.51619 27.2517 2.51619ZM27.2517 1.24226C27.0413 1.24226 26.8698 1.42825 26.8698 1.65629C26.8698 1.88432 27.0413 2.07031 27.2517 2.07031C27.462 2.07031 27.6336 1.88432 27.6336 1.65629C27.6336 1.42825 27.462 1.24226 27.2517 1.24226Z" fill="#808080"/>
</g>
<defs>
<clipPath id="clip0_2848_3431">
<rect width="35" height="20" fill="white"/>
</clipPath>
</defs>
</svg>
