<?xml version="1.0" encoding="UTF-8"?>
<svg xmlns="http://www.w3.org/2000/svg" viewBox="0 0 251 205">
  <defs>
    <style>
      .cls-1, .cls-2 {
        mix-blend-mode: multiply;
      }

      .cls-1, .cls-3 {
        opacity: .8;
      }

      .cls-4 {
        fill: #e2e0e0;
      }

      .cls-5 {
        fill: #231f20;
      }

      .cls-6 {
        isolation: isolate;
      }

      .cls-7 {
        fill: #c4c4c4;
      }

      .cls-8 {
        fill: #d7d7d7;
      }

      .cls-9 {
        fill: #fff;
      }

      .cls-10 {
        fill: #979797;
        stroke: #000;
        stroke-miterlimit: 10;
        stroke-width: .5px;
      }

      .cls-11 {
        opacity: .6;
      }

      .cls-12 {
        fill: #f7f7f7;
      }

      .cls-13 {
        fill: #f2f2f2;
      }
    </style>
  </defs>
  <g class="cls-6">
    <g id="Layer_1" data-name="Layer 1">
      <g>
        <g>
          <path class="cls-10" d="M94.67,165.66c-1.65-.59-2.5-2.4-1.91-4.04l10.07-28.16c.59-1.65,2.4-2.5,4.04-1.91s2.5,2.4,1.91,4.04l-10.07,28.16c-.59,1.65-2.4,2.5-4.04,1.91Z"/>
          <g>
            <path class="cls-7" d="M107.83,132.67c.02.62-.14,1.48-.47,2.4l-10.07,28.16c-.33.92-.76,1.69-1.16,2.16.61-.4,1.18-1.11,1.5-2.03l10.07-28.16c.33-.92.35-1.83.13-2.53Z"/>
            <path class="cls-7" d="M95.38,162.55l10.07-28.16c.51-1.43,1.26-2.51,1.8-2.64-.11-.09-.24-.16-.37-.21-1.05-.37-2.37.65-2.96,2.3l-10.07,28.16c-.59,1.65-.22,3.28.83,3.66.14.05.28.07.42.07-.33-.44-.23-1.75.29-3.18Z"/>
          </g>
          <g class="cls-11">
            <path class="cls-9" d="M101.05,143.47c-1.73,4.92-3.46,9.84-5.2,14.75-.63,1.78-1.26,3.59-1.32,5.48-.02.62.29,1.48.93,1.39.4-.06.61-.48.74-.84,1.38-3.71,2.74-7.43,4.1-11.16.67-1.84,1.34-3.69,2-5.54.5-1.4,1.55-3.87,1.64-5.24.17-2.48-2.54.15-2.9,1.15Z"/>
          </g>
        </g>
        <g>
          <path class="cls-10" d="M116.08,166.7c-1.65-.59-2.5-2.4-1.91-4.04l10.07-28.16c.59-1.65,2.4-2.5,4.04-1.91s2.5,2.4,1.91,4.04l-10.07,28.16c-.59,1.65-2.4,2.5-4.04,1.91Z"/>
          <g>
            <path class="cls-7" d="M129.23,133.71c.02.62-.14,1.48-.47,2.4l-10.07,28.16c-.33.92-.76,1.68-1.16,2.16.61-.4,1.18-1.11,1.5-2.03l10.07-28.16c.33-.92.35-1.83.13-2.53Z"/>
            <path class="cls-7" d="M116.78,163.6l10.07-28.16c.51-1.43,1.26-2.51,1.8-2.64-.11-.09-.24-.16-.37-.21-1.05-.37-2.37.66-2.96,2.3l-10.07,28.16c-.59,1.65-.22,3.28.83,3.66.14.05.28.07.42.07-.33-.44-.23-1.75.29-3.18Z"/>
          </g>
          <g class="cls-11">
            <path class="cls-9" d="M122.45,144.51c-1.73,4.92-3.46,9.84-5.2,14.75-.63,1.78-1.26,3.59-1.32,5.48-.02.62.29,1.48.93,1.39.4-.06.6-.48.74-.84,1.38-3.71,2.74-7.43,4.1-11.16.67-1.84,1.34-3.69,2-5.54.5-1.4,1.55-3.87,1.64-5.24.17-2.48-2.54.15-2.9,1.15Z"/>
          </g>
        </g>
        <g>
          <path class="cls-9" d="M155.43,120.27l-9.23,25.82c-1.68,4.69-16.63,3.65-33.77-2.24-.5-.17-1.02-.35-1.53-.54-17.77-6.35-30.77-15.41-29.04-20.23l9.06-25.34,64.51,22.52Z"/>
          <path d="M110.61,144.12c-8.66-3.1-16.48-6.93-22.03-10.79-4.12-2.87-8.77-7.03-7.52-10.52l9.34-26.12,66.1,23.07-9.52,26.62c-.96,2.69-5.09,3.87-11.94,3.4-6.39-.43-14.52-2.25-22.9-5.13-.5-.17-1.02-.36-1.54-.54ZM91.43,98.83l-8.78,24.55c-1.34,3.75,10.04,12.54,28.53,19.15.49.17,1.02.36,1.51.53,17.95,6.16,31.4,6.4,32.7,2.75l8.95-25.02-62.92-21.96Z"/>
        </g>
        <g>
          <path class="cls-12" d="M188.05,63.78s-12.68,12.02-35.85,2.23c-23.18-9.78-52.41-27.86-51.6-31.37,0,0,.45-4.96,4.17-6.04,1.98-.57,5.22-1.25,13.54.25h0c7.35,1.33,18.63,4.35,36.48,10.64,3.24,1.14,6.19,2.19,8.84,3.22.92.36,1.81.71,2.66,1.06,24.49,10.13,22.98,14.36,22.98,14.36l-.79,3.65-.43,2.02Z"/>
          <path d="M154.91,67.75c-.97-.35-1.95-.73-2.96-1.15-10.75-4.53-23.79-11.29-34.88-18.08-8.07-4.94-17.56-11.36-17.1-13.97.05-.5.66-5.41,4.62-6.56,2.38-.69,5.89-1.2,13.83.23h.06c8.59,1.57,20.88,5.15,36.53,10.66,2.79.98,6.02,2.12,8.86,3.22.92.36,1.82.72,2.67,1.07,23.37,9.67,23.62,14.18,23.35,15.11l-1.26,5.83-.14.13c-.13.13-3.35,3.13-9.49,4.93-5.17,1.52-13.39,2.4-24.08-1.43ZM118.14,29.45c-8.68-1.56-11.73-.68-13.2-.25-3.25.95-3.71,5.45-3.71,5.5v.08c-.12.65,2.66,4.2,16.61,12.72,11.02,6.73,23.95,13.43,34.61,17.93,11.76,4.97,20.69,4.13,26.12,2.55,5.18-1.51,8.24-3.96,8.91-4.54l1.18-5.48c0-.22-.35-4.42-22.6-13.63-.85-.35-1.74-.7-2.65-1.06-2.82-1.09-6.04-2.23-8.82-3.21-15.62-5.5-27.86-9.07-36.39-10.61h-.06ZM188.66,57.97h0Z"/>
        </g>
        <g>
          <path class="cls-9" d="M192.44,71.26l-15.66,43.79c-.39,1.08-.98,2.07-1.73,2.9-1.42,1.57-3.4,2.61-5.59,2.83l-14.94,1.52c-5.92.6-11.91-.13-17.51-2.13l-.21-.1-55.44-24.21c-2.48-.89-4.3-2.78-5.19-5.06-.46-1.2-.67-2.51-.56-3.83.06-.75.22-1.5.48-2.23l16.93-47.34c.86-2.41,2.68-4.21,4.88-5.12,1.06-.44,2.16-.97,3.49-.66.54.13.96.35,1.23.52,2,1.19,4.89,2.89,8.41,4.85,6.24,3.48,13.08,7.26,22.23,11.18,0,0,9.2,3.94,18.12,6.52,3.2.92,5.37,1.54,8.38,1.92,1.45.18,2.98.3,5.94.71,1.77.24,3.23.48,4.19.64,5.17.59,10.34,1.17,15.52,1.76.02,0,.05,0,.07.01,0,0,.01,0,.02,0,3.46.5,6.08,2.93,7.04,5.97.13.38.22.76.29,1.15.25,1.42.15,2.94-.38,4.42Z"/>
          <path d="M136.79,120.76l-.26-.12-55.41-24.19c-2.54-.92-4.56-2.89-5.54-5.42-.51-1.31-.71-2.74-.6-4.12.06-.81.24-1.62.51-2.39l16.93-47.34c.89-2.48,2.79-4.48,5.23-5.49l.23-.1c1.04-.43,2.21-.93,3.65-.59.5.12.97.32,1.42.6,2.73,1.63,5.55,3.26,8.38,4.83,5.73,3.19,12.87,7.16,22.17,11.15.09.04,9.27,3.96,18.04,6.49,3.05.88,5.26,1.52,8.28,1.9.52.07,1.05.12,1.65.19,1.07.12,2.39.26,4.29.52,1.42.2,2.84.41,4.21.65l15.39,1.74.06-.03.2.06c3.55.53,6.42,2.98,7.51,6.39.13.37.23.78.31,1.23.28,1.58.14,3.22-.41,4.75l-15.66,43.79c-.41,1.14-1.05,2.22-1.86,3.11-1.56,1.72-3.69,2.8-6,3.03l-14.94,1.52c-5.97.61-12.13-.14-17.79-2.16ZM101.6,32.34c-.12-.04-.23-.08-.35-.1-1.04-.24-1.93.13-2.87.53l-.23.1c-2.11.87-3.76,2.6-4.53,4.75l-16.93,47.34c-.24.67-.39,1.36-.44,2.07-.1,1.21.07,2.41.52,3.56.85,2.19,2.6,3.9,4.81,4.69l.04.02,55.44,24.21.2.09c5.48,1.95,11.43,2.68,17.21,2.09l14.94-1.52c2-.2,3.84-1.13,5.19-2.62.7-.77,1.25-1.7,1.6-2.68l15.66-43.79c.47-1.32.59-2.74.35-4.1-.07-.39-.16-.73-.27-1.06-.93-2.93-3.36-5.02-6.36-5.52l-.07.03-.2-.07-15.49-1.75c-1.39-.24-2.8-.45-4.21-.65-1.88-.26-3.2-.4-4.26-.52-.61-.07-1.15-.12-1.67-.19-3.12-.4-5.36-1.04-8.47-1.94-8.85-2.56-18.1-6.5-18.19-6.54-9.36-4.01-16.53-8-22.29-11.21-2.84-1.58-5.67-3.21-8.43-4.86-.23-.14-.46-.26-.69-.34Z"/>
        </g>
        <path class="cls-5" d="M108.1,90.59c-2.49-.89-3.73-3.83-2.76-6.54.54-1.5,1.65-2.68,3.06-3.24.4-.16.85.04,1.01.44.16.4-.04.85-.44,1.01-.99.39-1.78,1.24-2.16,2.31-.68,1.91.13,3.95,1.82,4.55s3.61-.46,4.29-2.37c.36-1.01.31-2.1-.13-3-.19-.39-.03-.85.36-1.04.39-.19.85-.03,1.04.36.62,1.28.7,2.81.19,4.21-.97,2.72-3.79,4.2-6.28,3.31Z"/>
        <path class="cls-5" d="M109.66,86.22c-.4-.14-.62-.59-.47-1l1.52-4.25c.14-.4.59-.62.99-.47s.62.59.47.99l-1.52,4.25c-.14.4-.59.62-.99.47Z"/>
        <g class="cls-1">
          <path class="cls-13" d="M188.48,61.77c-.56.03-1.14.02-1.71,0-7.19-.29-14.27-1.83-21.31-3.38-3.14-.68-6.29-1.37-9.42-2.06.82.18.84-3.81.75-4.27-.31-1.74-1.43-2.78-2.24-4.28-1.97-3.68,3.01-4.42,5.79-4.77,1.09-.14,2.18-.25,3.27-.32.92.36,1.81.71,2.66,1.06,24.49,10.13,22.98,14.36,22.98,14.36l-.79,3.65Z"/>
        </g>
        <g class="cls-2">
          <path class="cls-5" d="M102.41,32.52c5.95,4.35,12.94,7.51,19.58,10.63,6.91,3.25,13.9,6.56,21.04,9.3,6.28,2.42,12.88,4.25,19.55,5.08,7.98.99,16.02,2.36,24.05,2.88.48.03.51-.65.05-.73-7.42-1.35-15.04-1.95-22.53-2.87-7.35-.91-14.6-2.76-21.51-5.49-13.84-5.47-26.69-12.72-40.03-19.2-.23-.11-.39.24-.2.39h0Z"/>
        </g>
        <g class="cls-2">
          <path class="cls-4" d="M113,76.87c-4.38-1.57-9.34,1.1-11.08,5.95s.41,10.06,4.79,11.63,9.34-1.1,11.08-5.95-.41-10.06-4.79-11.63ZM107.15,93.24c-4.06-1.45-6.1-6.15-4.54-10.49s6.11-6.69,10.17-5.23,6.1,6.15,4.54,10.49-6.1,6.68-10.17,5.23Z"/>
        </g>
        <g class="cls-1">
          <path class="cls-13" d="M192.44,71.26l-15.66,43.79c-.39,1.08-.98,2.07-1.73,2.9-1.42,1.57-3.4,2.61-5.59,2.83l-14.94,1.52c-5.92.6-11.91-.13-17.51-2.13l-.21-.1c.32-.22.69-.38,1.04-.54,2.25-1.02,4.31-2.53,5.91-4.42,2.67-3.16,3.99-7.23,5.25-11.18,4.14-12.98,8.27-25.97,12.4-38.97.29-.91.68-1.93,1.56-2.3.47-.2,1-.17,1.5-.13,4.96.43,9.71,2.32,14.69,2.67,3.98.28,9.14-.38,13.37.5.13.38.22.76.29,1.15.25,1.42.15,2.94-.38,4.42Z"/>
        </g>
        <g class="cls-1">
          <path class="cls-13" d="M84.85,97.1c-2.27-.81-3.91-2.64-4.66-4.87-.4-1.18-.55-2.47-.41-3.78.07-.74.24-1.49.5-2.22l16.93-47.34c.86-2.41,2.59-4.24,4.65-5.2,1.59-.74,3.38-.95,5.12-.51l-1.05-.41c-2.02-.72-4.15-.58-6.01.23-2.13.94-3.9,2.75-4.76,5.16l-16.93,47.34c-.26.73-.42,1.48-.49,2.23-.13,1.32.05,2.62.48,3.81.82,2.25,2.54,4.12,4.92,4.96l38.46,16.93-36.75-16.32Z"/>
          <path class="cls-13" d="M190.72,66.09c-.06-.39-.15-.77-.27-1.14-.82-2.77-3-4.99-5.92-5.68,1.94.99,3.36,2.81,3.94,4.97.11.37.19.75.24,1.13.19,1.4.06,2.91-.47,4.39l-15.66,43.79c-.39,1.08-.97,2.08-1.68,2.91-1.36,1.6-3.21,2.67-5.25,2.95l-13.86,1.91c-5.32.73-10.65.22-15.64-1.48l.15.07c5.36,1.92,11.11,2.56,16.81,1.88l14.39-1.72c2.11-.25,4.03-1.3,5.42-2.89.73-.83,1.31-1.82,1.7-2.91l15.66-43.79c.53-1.48.65-3,.43-4.41Z"/>
        </g>
        <g class="cls-1">
          <path class="cls-13" d="M161.27,62.91c-3.04,10.56-7.27,20.89-11.21,31.15-1.92,4.99-3.79,10.48-6.61,15.05-3.17,5.15-7.3,5.52-12.83,5.73-.65.02-1.03.67-.63,1.22,2.57,3.51,7.82,3.55,11.42,1.68,4.95-2.58,6.85-8.4,8.64-13.27,2.43-6.59,4.75-13.26,6.71-20,2.05-7.03,3.35-14.24,5-21.37.07-.32-.4-.51-.49-.18h0Z"/>
        </g>
        <g class="cls-1">
          <path class="cls-13" d="M94.93,42.75c-5.47,12.02-11.13,23.92-16.17,36.13-1.58,3.83-3.08,8.06-1.26,12.09,1.69,3.73,5.53,6.13,9.36,7.15.87.23,1.97-.87,1.14-1.64-3.03-2.82-7.35-4.97-7.56-9.59-.21-4.61,2.76-9.73,4.34-13.93,3.76-9.95,7.07-20.04,10.59-30.07.1-.29-.32-.43-.44-.16h0Z"/>
        </g>
        <g class="cls-1">
          <path class="cls-13" d="M92.26,102.4c6.4,7.58,15.24,10.84,24.13,14.75,2.17.96,4.31,1.97,6.34,3.22,3.15,1.93,3.76,4.58,3.61,8.06-.26,6.15-2.07,13.24-9.32,13.91-1,.09-1.14,1.76-.16,1.99,4.88,1.17,8.47-2.06,9.95-6.55,1.66-5.02,2.97-12.21.29-17.07-2.85-5.14-8.69-6.96-13.83-9.07-6.92-2.85-14.17-5.79-20.52-9.78-.34-.21-.77.21-.49.53h0Z"/>
        </g>
        <g class="cls-1">
          <path class="cls-13" d="M148.05,123.41c-2.54,3.7-2.69,8.83-3.58,13.11-.64,3.09-1.38,6.82-4.83,7.91-1.85.58-3.8.44-5.65,1.18-.85.34-.46,1.48.3,1.61,5.14.85,9.31,1.11,11.86-4.2,1.28-2.67,1.87-5.68,2.3-8.59.5-3.42,1.19-6.9,1.51-10.33.1-1.03-1.32-1.53-1.91-.68h0Z"/>
        </g>
        <g class="cls-1">
          <path class="cls-13" d="M161.03,42.4c-.47,1.2-1.29,1.93-2.47,2.41-.97.39-2.05.4-3.04.73-.56.19-.44.9-.1,1.21,1.19,1.08,3.19.55,4.34-.33,1.18-.91,1.99-2.37,2.06-3.84.02-.46-.62-.6-.79-.17h0Z"/>
        </g>
        <g class="cls-1">
          <path class="cls-13" d="M143.71,57.06c3.75,1.45,7.57,2.52,11.21,4.25,3.5,1.67,6.6,2.82,10.46,3.21,4.05.41,8.13.61,12.19.84,3.54.2,7.93,1.13,11.24-.38.33-.15.41-.68.08-.88-2.94-1.8-7.01-1.51-10.35-1.8-4.3-.37-8.61-.69-12.9-1.12-7.52-.74-14.16-5.11-21.9-4.44-.17.01-.16.26-.02.31h0Z"/>
        </g>
        <g>
          <path class="cls-8" d="M177.96,51.92c-.86,2.41-15.49-.62-32.68-6.77-16.35-5.85-29.13-12.4-29.59-15.1-.03-.14-.01-.27.03-.39.2-.55,1.1-.82,2.58-.83h0c7.35,1.33,18.63,4.35,36.48,10.64,2.36.82,4.56,1.63,6.6,2.39,1.74.65,3.36,1.28,4.9,1.88,7.55,3.59,12.18,6.71,11.66,8.17Z"/>
          <path d="M145.14,45.55c-14.41-5.15-29.3-12.11-29.86-15.42-.04-.2-.02-.41.05-.6.26-.73,1.23-1.1,2.97-1.11l.12.02c8.58,1.55,20.86,5.13,36.51,10.64,2.55.89,4.87,1.75,6.61,2.4,1.8.68,3.4,1.29,4.91,1.89,10.61,5.05,12.33,7.52,11.91,8.7-1.25,3.49-20.55-1.99-33.21-6.52ZM118.26,29.26c-1.43.02-2.04.29-2.14.55-.02.05-.02.11-.01.17.37,2.2,11.69,8.47,29.32,14.78,8.3,2.97,16.26,5.3,22.4,6.58,7.27,1.51,9.54.99,9.73.45.23-.65-1.86-3.09-11.45-7.65-1.48-.58-3.08-1.2-4.87-1.87-1.73-.65-4.05-1.5-6.59-2.39-15.62-5.5-27.87-9.07-36.4-10.61Z"/>
        </g>
        <path class="cls-9" d="M85.59,74.06c-3.63,4.64-6.09,11.44-3.46,17.12,1.31,2.82,3.79,4.62,6.33,6.25,3.44,2.21,7.18,4.38,11.15,5.46.34.09.74-.33.43-.62-4.2-4.07-10.99-6.07-14.43-10.82-3.76-5.21-.53-11.72.54-17.19.06-.32-.39-.41-.56-.2h0Z"/>
        <g class="cls-3">
          <path class="cls-9" d="M89.29,70.14c-.97,3.09-1.95,6.35-1.31,9.53.41,2.03,1.81,4.14,3.87,4.32,2.21.19,3.93-1.82,5.17-3.67,4.8-7.21,8.75-15.34,15.68-20.53,1.81-1.36,3.81-2.5,5.38-4.13,1.57-1.63,2.67-3.95,2.15-6.15-.64-2.68-3.35-4.25-5.82-5.48-3.74-1.86-7.63-3.71-11.78-4.42-3.78-.65-4.19,1.33-5.19,4.52-2.71,8.68-5.44,17.34-8.16,26.01Z"/>
          <path class="cls-9" d="M90.99,83.95c-1.7-.61-2.82-2.52-3.17-4.26-.66-3.3.39-6.65,1.32-9.61h0c.94-2.99,1.87-5.97,2.81-8.96,1.79-5.68,3.57-11.37,5.35-17.06l.14-.45c.89-2.9,1.49-4.81,5.22-4.17,4.08.7,7.92,2.5,11.82,4.43,2.69,1.34,5.27,2.94,5.9,5.58.48,2.01-.34,4.37-2.19,6.29-1.1,1.15-2.43,2.07-3.72,2.95-.56.38-1.14.78-1.68,1.19-5.33,3.99-8.94,9.81-12.44,15.45-1.04,1.67-2.11,3.4-3.21,5.05-1.13,1.7-2.92,3.95-5.31,3.74-.3-.03-.58-.09-.85-.19ZM107.22,41c-1.52-.54-3.05-.97-4.61-1.24-3.46-.59-3.96,1.02-4.87,3.96l-.14.46c-1.77,5.69-3.56,11.37-5.35,17.06-.94,2.98-1.88,5.97-2.81,8.96h0c-.92,2.92-1.96,6.23-1.31,9.45.38,1.9,1.71,4.01,3.73,4.19,2.23.19,3.93-1.96,5.02-3.6,1.1-1.65,2.17-3.37,3.2-5.04,3.51-5.66,7.14-11.51,12.52-15.53.55-.41,1.13-.81,1.69-1.2,1.27-.88,2.59-1.79,3.67-2.91,1.78-1.85,2.57-4.1,2.11-6.01-.6-2.52-3.11-4.07-5.74-5.37-2.38-1.18-4.73-2.31-7.12-3.16Z"/>
        </g>
      </g>
    </g>
  </g>
</svg>