<?xml version="1.0" encoding="UTF-8"?>
<svg id="Layer_1" data-name="Layer 1" xmlns="http://www.w3.org/2000/svg" viewBox="0 0 251 205">
  <defs>
    <style>
      .cls-1 {
        fill: #fff;
        stroke: #000;
        stroke-miterlimit: 10;
      }
    </style>
  </defs>
  <g>
    <path class="cls-1" d="M208.4,74.08c-37.49-30.87-7.09-23.79-65.69,32.73-7.7,11.99-16.53,8-28.66,9.05-17.17,1.77-54.23,1.54-49.07,27.16,5.96,10.38,15.35,10.43,25.78,11.83,14.39.72,17.12-3.81,27.74-2.52,1.59-.81,31.53,8.99,37.13,5.7,4.35-1.91,6.2-5.82,9.3-12.03,15.79-31.04,7.48-17.62,31.44-48.84-.96,1.52,10.44-14.31,10.33-14.75,2.88-3.66,4.63-5.8,1.71-8.33Z"/>
    <path class="cls-1" d="M78.51,121.39c2.76,7.65,3.36,24.03,1.23,31.73"/>
    <path class="cls-1" d="M131.85,155.07c4.4-9.17,22.51-17.47,34.42-11.89"/>
  </g>
  <g>
    <path class="cls-1" d="M194.34,68.01c-31.54-36.92-2.85-24.66-70.38,20.8-9.67,10.47-17.66,5-29.8,3.93-17.21-1.24-53.67-7.92-53.05,18.21,4.07,11.26,13.3,12.94,23.33,16.13,14.05,3.21,17.52-.78,27.75,2.35,1.71-.52,29.49,14.33,35.57,12.07,4.61-1.13,7.12-4.65,11.25-10.23,20.95-27.82,10.43-16.05,39.45-42.62-1.21,1.33,12.77-12.28,12.74-12.73,3.48-3.11,5.56-4.91,3.14-7.91Z"/>
    <path class="cls-1" d="M58.2,92.01c1.15,8.16-1.01,23.94-4.31,31.46"/>
    <path class="cls-1" d="M104.87,134.46c5.93-8.26,25.21-13.29,35.96-5.72"/>
  </g>
</svg>