<?xml version="1.0" encoding="UTF-8"?>
<svg id="Layer_1" data-name="Layer 1" xmlns="http://www.w3.org/2000/svg" viewBox="0 0 251 205">
  <defs>
    <style>
      .cls-1 {
        fill: #231f20;
      }

      .cls-2 {
        fill: #fff;
      }
    </style>
  </defs>
  <g id="Mp0vTS">
    <g>
      <g>
        <path class="cls-2" d="M118.99,59.62c8.36,2.3,17.73,3.34,25.97,5.85,6.76,2.06,11.28,9.52,10.14,16.46l-21.87,96.34c-.85,2.28-3.19,3.71-5.61,3.31l-43.01-9.77c-2.32-.88-3.69-3.13-3.31-5.61l21.88-96.33c2.25-6.66,8.82-10.94,15.82-10.25ZM137.45,128.24c2.41-10.61-4.24-21.16-14.85-23.57s-21.16,4.24-23.57,14.85c-2.41,10.61,4.24,21.16,14.85,23.57s21.16-4.24,23.57-14.85Z"/>
        <path class="cls-1" d="M128.43,182.64c-.33,0-.65-.03-.98-.08l-43.2-9.82c-2.76-1.05-4.39-3.8-3.95-6.69l21.92-96.5c2.39-7.06,9.49-11.67,16.87-10.92l.17.03c3.85,1.06,8,1.87,12.01,2.65,4.68.91,9.52,1.85,13.98,3.21,7.2,2.19,12.06,10.08,10.84,17.58l-21.92,96.53c-.91,2.44-3.23,4.02-5.73,4.02ZM84.89,170.84l42.94,9.75c1.84.3,3.71-.79,4.43-2.62l21.86-96.27c1.06-6.49-3.18-13.37-9.46-15.28-4.36-1.33-9.15-2.26-13.78-3.16-4.02-.78-8.18-1.59-12.08-2.66-6.43-.6-12.58,3.4-14.67,9.53l-21.87,96.28c-.28,1.89.77,3.69,2.63,4.42ZM118.24,144.58c-1.51,0-3.05-.17-4.58-.52-11.13-2.53-18.13-13.64-15.6-24.77,2.53-11.13,13.64-18.13,24.77-15.6,5.39,1.22,9.98,4.47,12.93,9.15,2.95,4.68,3.9,10.22,2.67,15.61-2.18,9.59-10.73,16.12-20.18,16.12ZM118.23,105.18c-8.54,0-16.26,5.89-18.23,14.56-2.28,10.05,4.04,20.09,14.09,22.37,10.06,2.29,20.09-4.04,22.37-14.09,2.28-10.05-4.04-20.09-14.09-22.37-1.39-.32-2.78-.47-4.14-.47Z"/>
      </g>
      <g>
        <rect class="cls-2" x="120.82" y="52.04" width="25.55" height="9.48" transform="translate(15.89 -28.17) rotate(12.79)"/>
        <path class="cls-1" d="M145.76,65.43l-26.87-6.1,2.54-11.19,26.87,6.1-2.54,11.19ZM121.29,57.82l22.97,5.21,1.66-7.29-22.97-5.21-1.66,7.29Z"/>
      </g>
      <g>
        <path class="cls-2" d="M144.81,36.42l-3.77,16.61-12.86-2.92,3.77-16.61c3.88,2.33,8.35,3.35,12.86,2.92ZM140.13,45.13c.48-2.13-.85-4.25-2.98-4.73s-4.25.85-4.73,2.98.85,4.25,2.98,4.73,4.25-.85,4.73-2.98Z"/>
        <path class="cls-1" d="M141.41,53.63l-13.84-3.14,4.04-17.77.59.36c3.8,2.28,8.14,3.28,12.56,2.85l.69-.06-4.04,17.77ZM128.77,49.73l11.89,2.7,3.51-15.46c-4.17.26-8.25-.66-11.89-2.7l-3.51,15.46ZM136.28,48.71c-.33,0-.67-.04-1-.11-2.39-.54-3.9-2.93-3.36-5.33.54-2.4,2.94-3.9,5.33-3.36,2.4.54,3.9,2.93,3.36,5.33-.26,1.16-.96,2.15-1.97,2.78-.72.45-1.54.69-2.37.69ZM136.26,40.8c-.64,0-1.28.18-1.83.53-.78.49-1.32,1.26-1.53,2.16-.2.9-.05,1.83.45,2.61.49.78,1.26,1.32,2.16,1.53.9.2,1.83.05,2.61-.45.78-.49,1.32-1.26,1.53-2.16.2-.9.05-1.83-.45-2.61-.49-.78-1.26-1.32-2.16-1.53-.26-.06-.52-.09-.77-.09Z"/>
      </g>
      <path d="M137.45,128.24c-2.41,10.61-12.96,17.26-23.57,14.85s-17.26-12.96-14.85-23.57c2.41-10.61,12.96-17.26,23.57-14.85s17.26,12.96,14.85,23.57ZM110.86,108.59l17.9,28.51c11.49-9.43,6.6-27.67-8.2-29.97-3.31-.51-6.65.25-9.7,1.46ZM116.37,122.57c-2.6-4.12-5.33-8.16-7.86-12.33-.15-.11-.5.2-.63.29-2.32,1.62-4.53,4.87-5.49,7.5-4.74,12.99,7.23,25.88,20.57,22.07,1.2-.34,2.3-.91,3.45-1.36.17-.32-.15-.31-.3-.55-3.31-5.17-6.47-10.44-9.74-15.63Z"/>
      <path d="M140.13,45.13c-.48,2.13-2.6,3.46-4.73,2.98s-3.46-2.6-2.98-4.73,2.6-3.46,4.73-2.98,3.46,2.6,2.98,4.73ZM137.52,44.53c.16-.69-.27-1.37-.96-1.53s-1.37.27-1.53.96.27,1.37.96,1.53,1.37-.27,1.53-.96Z"/>
      <path class="cls-2" d="M116.37,122.57c3.28,5.19,6.44,10.45,9.74,15.63.15.24.47.23.3.55-1.16.44-2.25,1.01-3.45,1.36-13.34,3.81-25.3-9.08-20.57-22.07.96-2.64,3.18-5.88,5.49-7.5.13-.09.48-.4.63-.29,2.52,4.17,5.26,8.22,7.86,12.33ZM113.79,120.99c-1.77-.32-6.58-1.19-8.1-.47-1.75.82-.01,1.99,1.03,2.45,2.79,1.24,6.51,1.59,9.2-.06-.31-.32-.75-1.43-1.04-1.64-.34-.25-.72-.21-1.09-.28ZM116.49,124.1c.19-.17-.18-.63-.46-.45l-3.11,1.63c-.91,1.17-1.6,3.32-2.52,4.39-.52.6-1.88,1.19-2.49,1.79.24.12.35-.07.53-.16.45-.23,1.85-1.16,2.16-1.49.92-.97,1.62-3.21,2.57-4.13.46-.45,2.25-1.12,2.96-1.51.14-.08.35-.05.36-.06ZM109.89,133.31l4.8-1.96-.12-4.36,2.42-2.2-.19-.47-2.7,2.44.35,4.41-4.55,2.15ZM117.42,125.3c-.54-.13-1.47,4.11-1.55,4.65-.06.43-.13,2.53.45,2.56.73-.29,1.14-1.32,1.38-2.02.2-.6.85-3.18.71-3.63-.12-.41-.81-1.1-.99-1.55ZM121.24,135.46l-2.74-3.38,1.55-2.58-.35-.3-1.5,2.95,3.04,3.32Z"/>
      <path class="cls-2" d="M110.86,108.59c3.05-1.22,6.39-1.98,9.7-1.46,14.8,2.3,19.69,20.54,8.2,29.97l-17.9-28.51ZM115.67,115.32c-.05-.67.23-1.77.04-2.38-.16-.48-1.19-1.46-1.63-1.79.19.61,1.22,1.27,1.41,1.81.07.22-.32,2.72.18,2.35ZM119.8,118.23l1.05-5.26c-.26,0-.31.21-.38.4-.53,1.52-.53,3.25-1.21,4.73l-.59-1.12c-.1.38.23.73.17,1.11-.05.33-.36.47-.45.74-.08.22.17,1.28.28,1.54.28.68,2.51,4.18,3.01,4.76,1.38,1.6,3.97,2.46,6,2.78,3.41.53,5.61-.86,1.52-2.8-2.32-1.1-4.92-1.48-7.3-2.52-.61-.27-1.08-.73-1.79-.77.94-.92,3.21-1.47,3.8-2.62.51-1,.96-3.37,1.72-4.02.36-.31.9-.36,1.22-.7l-1.68.7-1.84,4.18-3.5,1.83c.13-.31-.19-.79-.18-.98s.43-.38.56-.7c.18-.49-.07-.79,0-1.09.08-.34.53-.59.6-.95l-1.01.76Z"/>
      <circle class="cls-2" cx="136.27" cy="44.25" r="1.28"/>
      <path d="M113.79,120.99c.38.07.75.03,1.09.28.29.21.73,1.32,1.04,1.64-2.69,1.65-6.41,1.3-9.2.06-1.05-.46-2.78-1.63-1.03-2.45,1.53-.72,6.34.15,8.1.47Z"/>
      <path d="M117.42,125.3c.18.46.87,1.15.99,1.55.14.46-.51,3.03-.71,3.63-.23.7-.65,1.73-1.38,2.02-.59-.03-.51-2.13-.45-2.56.07-.54,1-4.77,1.55-4.65Z"/>
      <polygon points="109.89 133.31 114.44 131.16 114.09 126.75 116.8 124.31 116.98 124.78 114.57 126.98 114.69 131.34 109.89 133.31"/>
      <path d="M116.49,124.1s-.22-.02-.36.06c-.71.39-2.49,1.06-2.96,1.51-.94.91-1.65,3.16-2.57,4.13-.31.33-1.71,1.26-2.16,1.49-.18.09-.29.28-.53.16.61-.6,1.97-1.19,2.49-1.79.92-1.06,1.61-3.21,2.52-4.39l3.11-1.63c.28-.18.65.29.46.45Z"/>
      <polygon points="121.24 135.46 118.2 132.14 119.7 129.19 120.05 129.49 118.5 132.08 121.24 135.46"/>
      <path d="M119.8,118.23l1.01-.76c-.07.35-.52.61-.6.95-.07.29.18.6,0,1.09-.12.32-.54.51-.56.7s.31.68.18.98l3.5-1.83,1.84-4.18,1.68-.7c-.32.35-.86.39-1.22.7-.75.65-1.2,3.02-1.72,4.02-.59,1.16-2.86,1.7-3.8,2.62.71.04,1.19.5,1.79.77,2.38,1.04,4.98,1.42,7.3,2.52,4.09,1.95,1.89,3.33-1.52,2.8-2.02-.31-4.62-1.18-6-2.78-.5-.58-2.74-4.09-3.01-4.76-.11-.26-.35-1.32-.28-1.54.1-.27.4-.42.45-.74.06-.38-.27-.72-.17-1.11l.59,1.12c.68-1.48.68-3.21,1.21-4.73.07-.2.12-.41.38-.4l-1.05,5.26Z"/>
      <path d="M115.67,115.32c-.5.37-.11-2.14-.18-2.35-.19-.54-1.21-1.21-1.41-1.81.44.33,1.47,1.31,1.63,1.79.2.61-.09,1.7-.04,2.38Z"/>
    </g>
  </g>
</svg>