<?xml version="1.0" encoding="UTF-8"?>
<svg id="Layer_1" data-name="Layer 1" xmlns="http://www.w3.org/2000/svg" viewBox="0 0 251 205">
  <defs>
    <style>
      .cls-1 {
        fill: #231f20;
      }

      .cls-2 {
        fill: #fff;
      }
    </style>
  </defs>
  <g>
    <g>
      <path class="cls-2" d="M126.67,46.33c1.65-5.66,3.04-9.07,4.56-14.62.76-2.77,1.39-5.66,3.07-7.99,2.35-3.28,5.31-3.3,8.91-2.84,4.36.56,8.57,1.57,12.59,3.37,1.95.87,3.97,2.03,4.79,4,.68,1.64.39,3.51.05,5.25-1.36,7.15-3.18,14.53-5.39,21.46"/>
      <path class="cls-1" d="M127.64,46.59c1.45-4.97,3.26-9.83,4.61-14.82,1.05-3.87,2.22-9.46,7.04-10.05,2.24-.27,4.64.2,6.83.61,2.7.51,5.36,1.23,7.92,2.24,1.99.78,4.42,1.76,5.48,3.75.6,1.12.54,2.47.36,3.69-.2,1.38-.5,2.75-.78,4.11-1.29,6.27-2.88,12.47-4.82,18.57-.39,1.23,1.54,1.76,1.93.53,1.84-5.8,3.37-11.69,4.62-17.64.31-1.45.61-2.91.87-4.37s.42-2.86.13-4.29c-.53-2.6-2.76-4.24-5.02-5.31-2.6-1.23-5.35-2.14-8.15-2.79-2.57-.6-5.27-1.1-7.92-1.16-2.17-.05-4.26.48-5.91,1.94-1.97,1.74-3,4.33-3.73,6.78-.88,2.96-1.64,5.95-2.6,8.89s-1.93,5.83-2.8,8.78c-.36,1.24,1.57,1.77,1.93.53h0Z"/>
    </g>
    <g>
      <g>
        <path class="cls-2" d="M149.14,24.16c2.7.87,5.32,2.01,7.8,3.39.72.4,1.47.86,1.81,1.61.33.72.2,1.55.08,2.33-.43,2.64-.87,5.29-1.3,7.93"/>
        <path class="cls-1" d="M149.04,24.52c2.6.84,5.11,1.93,7.51,3.24.51.28,1.04.56,1.45.98s.59.97.58,1.56c0,.69-.17,1.38-.28,2.07s-.23,1.38-.34,2.08c-.27,1.63-.53,3.26-.8,4.88-.08.47.65.68.72.2.25-1.53.5-3.05.75-4.58.12-.75.25-1.51.37-2.26s.27-1.44.32-2.17c.04-.65-.06-1.33-.43-1.88-.32-.47-.78-.83-1.26-1.13-1.21-.76-2.53-1.38-3.83-1.96-1.48-.67-3-1.25-4.55-1.76-.46-.15-.66.57-.2.72h0Z"/>
      </g>
      <g>
        <path class="cls-2" d="M157.11,41.53c-.41,1.87-.82,3.74-1.23,5.61"/>
        <path class="cls-1" d="M156.75,41.43c-.41,1.87-.82,3.74-1.23,5.61-.04.2.06.41.26.46.19.05.42-.06.46-.26.41-1.87.82-3.74,1.23-5.61.04-.2-.06-.41-.26-.46-.19-.05-.42.06-.46.26h0Z"/>
      </g>
    </g>
  </g>
  <g>
    <g>
      <path class="cls-2" d="M141.25,49.62c-4.68-1.44-9.51-2.43-14.39-2.92-.79-.08-1.66-.13-2.3.34-.72.52-.91,1.5-1.14,2.36-1.57,5.72-6.62,9.35-9.26,14.55-1.44,2.84-2.32,5.92-3.19,8.97-1.57,5.51-3.13,11.02-4.69,16.53-2.81,9.9-5.62,19.81-8.43,29.71-2.84,10.02-5.68,20.03-8.52,30.05-1.05,3.71-2.11,7.42-3.16,11.14-.37,1.3-.74,2.6-1.1,3.89-.73,2.61-2.22,5.48-1.34,8.19.18.56.43,1.09.76,1.58,1.45,2.19,3.87,3.51,6.21,4.69,7.04,3.55,15.41,6,23.3,6.78,2.61.26,5.36.44,7.76-.63.53-.24,1.03-.55,1.48-.93,2.19-1.81,2.48-5.03,3.26-7.63.39-1.29.77-2.59,1.16-3.88,1.1-3.7,2.2-7.4,3.31-11.09,2.97-9.98,5.95-19.95,8.92-29.93,2.94-9.86,5.88-19.73,8.82-29.59,1.64-5.49,3.28-10.98,4.91-16.47.91-3.05,1.82-6.12,2.12-9.28.56-5.81-1.75-11.57,0-17.24.26-.85.63-1.77.3-2.6-.29-.74-1.05-1.16-1.76-1.52-4.38-2.2-8.98-3.95-13.71-5.25"/>
      <path class="cls-1" d="M141.51,48.66c-2.8-.86-5.64-1.56-8.52-2.09-1.41-.26-2.83-.47-4.25-.66-1.28-.16-2.77-.51-4.03-.07s-1.8,1.56-2.13,2.76c-.3,1.07-.64,2.1-1.14,3.1-1.04,2.05-2.48,3.85-3.91,5.64s-2.92,3.63-4.02,5.68c-1.33,2.47-2.21,5.16-2.99,7.84-1.69,5.78-3.29,11.58-4.93,17.37-3.33,11.75-6.66,23.49-9.99,35.24-3.3,11.65-6.61,23.3-9.91,34.96-.78,2.76-1.56,5.51-2.44,8.23s-1.22,5.33.33,7.76c1.32,2.08,3.44,3.47,5.58,4.6,2.36,1.25,4.82,2.34,7.32,3.29,5.09,1.94,10.41,3.27,15.82,3.97,4.86.62,11.2,1.06,13.58-4.28.96-2.15,1.35-4.56,2.03-6.81.85-2.84,1.69-5.69,2.54-8.53,1.74-5.84,3.48-11.68,5.22-17.52,3.47-11.63,6.94-23.27,10.41-34.9,1.74-5.85,3.49-11.69,5.23-17.54.87-2.9,1.73-5.81,2.6-8.71s1.77-5.7,2.37-8.61.69-5.65.42-8.54-.71-5.58-.55-8.39c.08-1.44.43-2.76.83-4.14s.28-2.72-.85-3.66c-.98-.82-2.26-1.31-3.42-1.84-1.28-.59-2.57-1.15-3.88-1.67-2.6-1.04-5.26-1.92-7.96-2.67-1.24-.34-1.77,1.59-.53,1.93,2.7.74,5.36,1.63,7.96,2.67,1.26.5,2.5,1.04,3.72,1.61.6.28,1.2.57,1.79.86.42.21.96.44,1.24.84.33.47.09,1.11-.06,1.61-.22.71-.42,1.4-.56,2.13-.25,1.33-.33,2.68-.3,4.03.06,2.74.53,5.44.7,8.18.34,5.71-1.65,11.15-3.26,16.55s-3.37,11.3-5.05,16.95c-3.37,11.31-6.74,22.61-10.11,33.92s-6.7,22.43-10.03,33.66c-.36,1.21-.75,2.42-1.06,3.64-.27,1.06-.5,2.13-.85,3.17-.32.96-.76,1.9-1.48,2.63-.86.87-2.01,1.34-3.19,1.6-2.49.53-5.2.14-7.69-.19s-5.09-.85-7.59-1.49c-5.02-1.29-9.93-3.11-14.49-5.56-2-1.07-4.21-2.44-5.13-4.62-1.01-2.39.21-4.97.94-7.26.86-2.68,1.56-5.43,2.33-8.14s1.59-5.61,2.39-8.42c1.61-5.69,3.23-11.38,4.84-17.07,3.22-11.35,6.44-22.71,9.66-34.06,1.61-5.67,3.22-11.34,4.82-17.01.79-2.77,1.57-5.55,2.36-8.32s1.54-5.28,2.78-7.74c2.02-4.02,5.46-7.07,7.71-10.94.56-.97,1.04-1.98,1.41-3.04.19-.53.32-1.08.48-1.62.12-.42.26-.93.66-1.16.44-.25,1.06-.15,1.53-.1.74.07,1.48.16,2.22.26,1.36.18,2.72.4,4.06.66,2.68.51,5.33,1.18,7.94,1.98,1.23.38,1.76-1.55.53-1.93h0Z"/>
    </g>
    <g>
      <g>
        <path class="cls-2" d="M86.71,159.17c5.01,5.63,11.35,9.64,18.53,11.92,7.18,2.29,14.98,2.61,22.32.92"/>
        <path class="cls-1" d="M86,159.88c7.85,8.77,19.27,13.9,31.02,14.19,3.63.09,7.26-.29,10.8-1.09,1.25-.28.72-2.21-.53-1.93-11.38,2.58-23.59.18-33.13-6.54-2.48-1.74-4.73-3.79-6.75-6.05-.86-.96-2.27.46-1.41,1.41h0Z"/>
      </g>
      <g>
        <path class="cls-2" d="M123.41,49.38c5.76.48,11.28,1.44,16.81,3.14,2.76.85,5.48,1.85,8.14,2.99,2.4,1.03,5.14,1.86,7.16,3.55"/>
        <path class="cls-1" d="M123.41,50.38c4.39.37,8.75,1.04,13.02,2.12s8.46,2.69,12.6,4.37c1.99.8,4.1,1.53,5.78,2.9.99.81,2.41-.6,1.41-1.41-1.62-1.32-3.49-2.15-5.42-2.92-2.07-.83-4.12-1.72-6.21-2.49-4.33-1.59-8.79-2.8-13.34-3.58-2.6-.45-5.21-.76-7.84-.99-1.28-.11-1.28,1.89,0,2h0Z"/>
      </g>
    </g>
  </g>
</svg>