<?xml version="1.0" encoding="UTF-8"?>
<svg id="Layer_1" data-name="Layer 1" xmlns="http://www.w3.org/2000/svg" viewBox="0 0 251 205">
  <defs>
    <style>
      .cls-1 {
        fill: #231f20;
      }

      .cls-1, .cls-2 {
        stroke: #231f20;
        stroke-miterlimit: 10;
        stroke-width: .75px;
      }

      .cls-2 {
        fill: #fff;
      }
    </style>
  </defs>
  <g>
    <g>
      <path class="cls-2" d="M113,46.3l2.06.32c3.98-.58,11.14-.26,19.2,1.01,8.01,1.26,14.9,3.14,18.53,4.9l2.05.32c.32.05.62-.16.67-.46l4.38-27.94c.25-1.58-9.18-4.38-21.05-6.24s-21.7-2.09-21.95-.5l-4.38,27.94c-.05.31.17.59.5.64Z"/>
      <path class="cls-1" d="M154.78,53.2l-2.05-.32s-.07-.02-.1-.03c-3.71-1.8-10.77-3.67-18.43-4.87h-.06c-7.68-1.21-14.97-1.6-19.04-1.01-.03,0-.07,0-.1,0l-2.06-.32c-.51-.08-.86-.55-.78-1.04l4.38-27.94c.16-1.01,2.37-1.44,6.96-1.33,4.16.1,9.62.64,15.38,1.55s11.13,2.05,15.12,3.23c4.4,1.31,6.38,2.39,6.22,3.4l-4.38,27.94c-.08.49-.55.83-1.06.75ZM152.89,52.2l2,.31c.13.02.26-.06.27-.17l4.38-27.94c.04-.25-.92-1.2-5.74-2.63-3.96-1.17-9.3-2.32-15.03-3.21-5.73-.9-11.16-1.44-15.29-1.54-5.03-.11-6.23.5-6.27.75l-4.38,27.94c-.02.12.07.23.21.25l2.01.31c4.14-.59,11.48-.2,19.19,1.01h.06c7.8,1.24,14.74,3.07,18.58,4.92Z"/>
    </g>
    <g>
      <path class="cls-2" d="M155.52,55.03c.34-2.19-9.17-5.5-21.26-7.4-12.09-1.9-22.16-1.67-22.5.52-.01.07-20.62,131.09-20.63,131.17-.38,2.43,9.11,5.94,21.19,7.84,12.09,1.9,22.19,1.47,22.57-.96.01-.08,20.62-131.1,20.63-131.17Z"/>
      <path class="cls-1" d="M112.32,187.5h-.05c-10.77-1.7-21.96-5.16-21.48-8.24,0-.04,5.46-34.7,10.73-68.21,5.01-31.87,9.89-62.9,9.9-62.95.2-1.28,2.62-1.98,7.18-2.08,4.25-.1,9.81.35,15.65,1.27h.06c10.77,1.7,21.99,5.01,21.55,7.8h0s-20.63,131.17-20.63,131.17c-.48,3.07-12.16,2.94-22.91,1.25ZM134.14,47.96c-5.8-.91-11.31-1.36-15.53-1.26-4.65.11-6.42.87-6.52,1.5,0,.03-4.81,30.6-9.9,62.95-5.29,33.62-10.72,68.16-10.73,68.21-.3,1.92,8.21,5.45,20.9,7.44h.06c12.66,1.99,21.82,1.25,22.12-.67,0,0,20.57-130.83,20.63-131.17.1-.62-1.35-1.9-5.74-3.43-4-1.39-9.41-2.66-15.23-3.58h-.06Z"/>
    </g>
  </g>
  <circle class="cls-2" cx="137.59" cy="26.13" r="2.63"/>
</svg>