<?xml version="1.0" encoding="UTF-8"?>
<svg id="Layer_1" data-name="Layer 1" xmlns="http://www.w3.org/2000/svg" viewBox="0 0 251 205">
  <defs>
    <style>
      .cls-1 {
        fill: #fff;
      }
    </style>
  </defs>
  <path class="cls-1" d="M145.49,147.22c-.64-.38-1.46-.17-2.18.03-3.06.87-6.18,1.53-9.34,1.97.71,2.48-3.19,5.41-5.25,5.72-3.13.46-6.43-1.96-6.72-5.11-3.19-.12-6.37-.45-9.51-1.01-2.02-.36-5.12-1.17-4.91,1.81.28,3.95.77,7.86,1.44,11.76,1.19,6.91,8.68,8,14.72,7.75.77-.03,1.52-.08,2.22-.15,5.23-.48,18.62-1.47,19.25-8.01.22-2.27,2.43-13.48.26-14.75ZM142.53,161.63c-.08.28-.48.16-.43-.12.66-3.9.33-7.63.6-11.52.02-.32.47-.4.57-.08,1.08,3.66.3,8.12-.74,11.72Z"/>
  <path class="cls-1" d="M129.08,153.23c1.43-.45,2.59-1.66,3.08-3.06.1-.28.16-.53.22-.75-3.02.35-6.06.49-9.1.44.98,2.28,3.1,4.21,5.79,3.37Z"/>
  <path class="cls-1" d="M147.46,96.71c-8.56,1.69-17.12,2.07-25.66-.18-2.36-.62-3.26.56-3.18,2.72.15,3.96.33,7.92.93,11.85.23,1.5,1.09,2.26,2.4,2.66,7.9,2.43,15.87,3.74,24.1,1.72,1.59-.39,2.46-1.01,2.52-2.74.09-2.45.35-4.89.48-6.66.18-2.88.24-5.1.48-7.3.19-1.7-.26-2.44-2.08-2.08ZM144.79,107.19c-2.74-2.21-5.44-3.41-8.53-.71-.64.56-1.1,1.25-2,1.41-1.05.18-1.89-.43-2.58-1.14-.8-.82-1-1.4-1.98-2.13-2.46-1.83-4.78-.24-5.57,2.39-.1.33-.62.27-.61-.08.08-2.1,1.45-3.88,3.59-4.25,2.56-.44,3.53,1.15,5.12,2.66,2.03,1.92,3.2-.42,4.98-1.27,1.06-.51,2.25-.76,3.43-.65,2.13.19,4.08,1.35,4.87,3.36.18.45-.43.66-.73.43Z"/>
  <path class="cls-1" d="M106.34,118.52c1.21.92,3.07,1.89,4.13.23.53-.83.59-1.7.59-2.11,0-9.56-1.44-13.18-1.44-13.18-1.99-5.01-5.14-8.26-7.08-9.96-.15.08-.39.22-.57.48-.49.69-.22,1.64-.12,2,.35,1.33.99,4.52,1.86,8.89-1.55,3.29.04,11.68,2.63,13.65Z"/>
  <path class="cls-1" d="M101.76,88.34c-.15-.03-.34.12-.51.2.08.16.14.42.24.44.16.03.34-.12.51-.19-.08-.16-.14-.43-.24-.45Z"/>
  <path class="cls-1" d="M113.89,75.48c-3.4,3.68-6.64,7.48-8.9,12.01-.3.6-.75,1.31-.23,1.94.52.64,1.29.39,1.94.13,3.21-1.26,6.61-2.1,9.5-4.08,7.22-4.95,9.39-12.02,8.62-20.39-.26-2.8-.54-3.07-3.12-1.63-4.39,2.45-8.41,5.42-12.09,8.83-2.72,2.52-4.36,5.72-5.26,9.29-.17.66-.29,1.59.36,1.94.98.53,1.48-.41,1.84-1.1,1.81-3.52,5.13-5.51,7.9-8.24.27.85-.28,1-.56,1.31Z"/>
  <path class="cls-1" d="M152.56,46.46c-7.52-5.64-14.94-10.08-24.51-11.14-2.63-.29-5.4-.35-8.19-.13-8.4.64-16.96,3.7-22.22,10.12-.29.36-.68.71-.81,1.13-.56,1.79-.11,3.82,1,4.83,1.02.92,2.01-.99,2.92-1.79,7.84-6.84,16.76-10.45,27.26-8.51,8.28,1.53,16.02,4.62,23.12,9.25.81.53,1.97,2,3,.81.91-1.06.08-2.42-.7-3.48-.27-.38-.5-.82-.86-1.09Z"/>
  <path class="cls-1" d="M151,52.29c-3.11-1.87-6.37-3.45-9.71-4.8-6.25-2.53-12.41-5.49-18.81-5-9.85-.19-16.92,4.03-22.78,10.74-1.28,1.46-1.8,3.16-1.76,5.15.18,8.65,1.81,17.15,2.51,25.75.03.35.11.69.2,1.03.17.64.62,1.01,1.26.98.93-.06.55-.76.59-1.29.31-5.08,2.36-9.31,5.8-13.08,4.88-5.35,11.57-8.21,17-12.77.49-.41,1.08-.43,1.58.04.54.51.21,1.04.05,1.6-.88,2.93-1.18,5.94-1,8.98.44,7.46-3.58,12.49-9.05,16.69-2.79,2.15-6.34,2.88-9.32,4.69-3.12,1.89.74,5.83,1.78,8.42,1.61,4.01,2.53,8.31,2.67,12.63.06,1.81-.03,3.65.25,5.44.21,1.36,1.07,2.99-.28,4.05-1.18.93-2.43-.14-3.6-.56-.44-.16-.86-.37-1.27-.6-4.18-2.34-2.07,5.62-1.89,7.64.43,4.58.85,9.16,1.28,13.73.1,1.09.23,2.24.88,3.11.98,1.32,2.82,1.6,4.46,1.78,10.96,1.16,22.52,2.24,32.6-2.23.55-.24,1.12-.52,1.49-1,.44-.58.52-1.35.58-2.08.55-6.81,1.11-13.61,1.66-20.42.05-.65.1-1.33-.13-1.93-.42-1.08-1.66-1.67-2.82-1.67-2.09,0-4.23.87-6.4.97-2.44.11-4.87.05-7.29-.24-4.05-.48-7.83-2.22-11.85-2.57-1.25-.11-1.81-.97-1.73-2.2.32-5.16-.66-10.21-1.09-15.31-.28-3.28,1.44-4.64,4.53-3.64,8.56,2.75,17.16,2.65,25.82.47,1.8-.45,2.74-1.28,2.93-3.3,1.06-11.36,2.17-22.71,3.46-34.05.29-2.53-.61-3.92-2.6-5.12ZM144.28,124.73c.05-.33.49-.2.52.07.51,4.21.06,8.66-.13,12.88-.02.4-.62.41-.63,0-.07-4.25-.39-8.73.24-12.95ZM149.13,74.43c-.39,5.28-.69,10.6-1.44,15.85-.05.33-.58.24-.58-.08.04-5.64.57-11.28.98-16.9.38-5.22.34-10.72,1.49-15.83.06-.27.44-.19.46.06.41,5.56-.51,11.35-.93,16.9Z"/>
  <path d="M124.58,33.11c-.92-.04-1.82-.04-2.7,0-9.11.32-16.35,4.1-23.73,9.61-2.66,1.98-3.87,4.31-3.45,7.78,1.15,9.46,1.83,18.98,3.07,28.43,1.5,11.43,2.87,22.87,3.99,34.33,1.64,16.81,3,33.64,5.56,50.35.68,4.45,3.4,7.37,8.08,7.91,8.17.94,16.19.28,24.1-2.13,3.73-1.14,5.59-1.75,6.89-5.63,1.11-3.32,1.27-6.9,1.42-10.37.79-17.5,1.89-34.98,3.3-52.44.7-8.63,1.47-17.26,2.31-25.88.78-7.97.84-16.34,2.81-24.15.39-1.53,0-2.95-1.01-4.27-6.9-9.02-19.59-13.09-30.65-13.52ZM101.25,88.54c.17-.07.36-.23.51-.2.11.02.16.29.24.45-.17.07-.36.22-.51.19-.1-.02-.16-.29-.24-.44ZM103.71,104.87c-.87-4.37-1.51-7.56-1.86-8.89-.1-.36-.37-1.31.12-2,.18-.25.41-.4.57-.48,1.94,1.7,5.09,4.94,7.08,9.96,0,0,1.44,3.63,1.44,13.18,0,.41-.07,1.28-.59,2.11-1.06,1.67-2.92.7-4.13-.23-2.59-1.97-4.18-10.36-2.63-13.65ZM103.53,104.71c.06.05.11.11.17.16,0,0-.16.01-.16.01,0-.06-.01-.12-.02-.17ZM114.45,74.18c-2.77,2.73-6.09,4.72-7.9,8.24-.36.69-.86,1.63-1.84,1.1-.65-.35-.53-1.27-.36-1.94.9-3.57,2.54-6.77,5.26-9.29,3.68-3.41,7.71-6.38,12.09-8.83,2.58-1.44,2.86-1.17,3.12,1.63.77,8.37-1.4,15.44-8.62,20.39-2.89,1.98-6.29,2.82-9.5,4.08-.65.25-1.42.5-1.94-.13-.52-.63-.07-1.34.23-1.94,2.25-4.53,5.5-8.33,8.9-12.01.28-.3.83-.45.56-1.31ZM145.22,161.98c-.64,6.54-14.02,7.53-19.25,8.01-.71.07-1.45.12-2.22.15-6.03.24-13.52-.84-14.72-7.75-.67-3.9-1.16-7.81-1.44-11.76-.21-2.98,2.89-2.17,4.91-1.81,3.14.56,6.32.9,9.51,1.01-.02-.21-.03-.42-.02-.63.02-.58.84-.69,1.01-.14.08.27.18.53.3.8,3.04.05,6.08-.09,9.1-.44.1-.37.22-.7.53-1.07.19-.23.51-.11.66.08.2.25.31.52.39.79,3.15-.44,6.27-1.09,9.34-1.97.72-.21,1.54-.41,2.18-.03,2.16,1.28-.04,12.48-.26,14.75ZM149.54,98.78c-.24,2.2-.3,4.42-.48,7.3-.13,1.77-.39,4.21-.48,6.66-.06,1.73-.93,2.35-2.52,2.74-8.23,2.02-16.2.71-24.1-1.72-1.31-.4-2.17-1.16-2.4-2.66-.6-3.93-.78-7.89-.93-11.85-.08-2.16.82-3.34,3.18-2.72,8.54,2.25,17.1,1.87,25.66.18,1.82-.36,2.27.38,2.08,2.08ZM153.61,57.41c-1.29,11.33-2.4,22.69-3.46,34.05-.19,2.01-1.13,2.84-2.93,3.3-8.66,2.18-17.26,2.29-25.82-.47-3.09-.99-4.81.36-4.53,3.64.43,5.1,1.42,10.16,1.09,15.31-.08,1.23.48,2.09,1.73,2.2,4.02.35,7.8,2.09,11.85,2.57,2.42.29,4.86.35,7.29.24,2.16-.1,4.3-.98,6.4-.97,1.16,0,2.4.59,2.82,1.67.23.61.18,1.28.13,1.93-.55,6.81-1.11,13.61-1.66,20.42-.06.73-.13,1.5-.58,2.08-.37.48-.93.76-1.49,1-10.08,4.47-21.64,3.39-32.6,2.23-1.64-.17-3.48-.45-4.46-1.78-.65-.88-.78-2.02-.88-3.11-.43-4.58-.85-9.16-1.28-13.73-.19-2.02-2.29-9.98,1.89-7.64.41.23.83.44,1.27.6,1.17.42,2.43,1.49,3.6.56,1.35-1.06.5-2.69.28-4.05-.28-1.8-.19-3.63-.25-5.44-.14-4.32-1.05-8.62-2.67-12.63-1.04-2.59-4.9-6.53-1.78-8.42,2.99-1.81,6.53-2.55,9.32-4.69,5.47-4.2,9.49-9.24,9.05-16.69-.18-3.03.11-6.05,1-8.98.17-.56.5-1.09-.05-1.6-.5-.47-1.09-.45-1.58-.04-5.44,4.56-12.12,7.42-17,12.77-3.44,3.77-5.5,8-5.8,13.08-.03.53.34,1.24-.59,1.29-.65.04-1.09-.34-1.26-.98-.09-.34-.17-.68-.2-1.03-.7-8.59-2.34-17.1-2.51-25.75-.04-1.99.48-3.68,1.76-5.15,5.86-6.71,12.93-10.93,22.78-10.74,6.4-.48,12.56,2.48,18.81,5,3.34,1.35,6.6,2.94,9.71,4.8,1.99,1.2,2.89,2.59,2.6,5.12ZM154.12,51.04c-1.03,1.19-2.18-.28-3-.81-7.11-4.62-14.84-7.72-23.12-9.25-10.5-1.94-19.42,1.67-27.26,8.51-.92.8-1.9,2.71-2.92,1.79-1.12-1.01-1.56-3.04-1-4.83.13-.42.52-.77.81-1.13,5.26-6.43,13.83-9.49,22.22-10.12,2.79-.21,5.57-.16,8.19.13,9.57,1.05,16.99,5.5,24.51,11.14.36.27.59.72.86,1.09.78,1.07,1.62,2.42.7,3.48Z"/>
  <path d="M103.53,104.71c0,.06.01.12.02.17,0,0,.16,0,.16-.01-.06-.06-.12-.11-.17-.16Z"/>
  <path d="M140.64,103.4c-1.18-.11-2.37.14-3.43.65-1.78.85-2.95,3.2-4.98,1.27-1.6-1.51-2.57-3.09-5.12-2.66-2.14.37-3.51,2.15-3.59,4.25-.01.36.51.41.61.08.79-2.63,3.12-4.22,5.57-2.39.99.73,1.19,1.31,1.98,2.13.69.71,1.53,1.32,2.58,1.14.9-.16,1.36-.85,2-1.41,3.1-2.7,5.79-1.5,8.53.71.3.24.91.03.73-.43-.79-2.01-2.75-3.17-4.87-3.36Z"/>
  <path d="M128.72,154.94c2.06-.3,5.96-3.24,5.25-5.72-.53.07-1.05.14-1.58.2-.06.23-.12.47-.22.75-.49,1.39-1.66,2.61-3.08,3.06-2.69.85-4.81-1.09-5.79-3.37-.43,0-.86-.01-1.29-.03.29,3.15,3.59,5.57,6.72,5.11Z"/>
  <path d="M133.58,148.43c-.15-.2-.46-.31-.66-.08-.32.37-.43.7-.53,1.07.53-.06,1.05-.12,1.58-.2-.08-.27-.19-.53-.39-.79Z"/>
  <path d="M123,149.06c-.17-.56-.99-.45-1.01.14,0,.21,0,.42.02.63.43.02.86.02,1.29.03-.11-.26-.22-.53-.3-.8Z"/>
  <path d="M142.7,149.99c-.27,3.89.06,7.62-.6,11.52-.05.28.35.4.43.12,1.04-3.59,1.81-8.06.74-11.72-.09-.32-.54-.24-.57.08Z"/>
  <path class="cls-1" d="M144.68,137.68c.18-4.22.64-8.67.13-12.88-.03-.27-.47-.4-.52-.07-.63,4.22-.3,8.7-.24,12.95,0,.41.61.4.63,0Z"/>
  <path class="cls-1" d="M149.59,57.47c-1.15,5.12-1.11,10.61-1.49,15.83-.41,5.62-.95,11.26-.98,16.9,0,.32.53.41.58.08.74-5.25,1.04-10.57,1.44-15.85.41-5.55,1.34-11.34.93-16.9-.02-.25-.4-.34-.46-.06Z"/>
</svg>