<?xml version="1.0" encoding="UTF-8"?>
<svg id="Layer_2" data-name="Layer 2" xmlns="http://www.w3.org/2000/svg" viewBox="0 0 580.87 317.25">
  <defs>
    <style>
      .cls-1 {
        stroke: #010101;
        stroke-miterlimit: 10;
        stroke-width: 4px;
      }
    </style>
  </defs>
  <g id="Layer_1-2" data-name="Layer 1">
    <g>
      <path class="cls-1" d="M359.06,137.73c.02.12.04.24.07.36,1.38-.25,2.76-.51,4.13-.77-1.41.1-2.8.25-4.2.41Z"/>
      <path d="M84.87,190.13c1-11.07,11.03-34.31,18.05-43.65,37.13-49.4,82.84-27.48,134.25-24.16,50.94,3.29,99.75-3.09,148.21-14.1,26.68-6.06,89.26-6.94,116.63-3.66,38.1,4.56,74.78,26.9,78.86,68.62v23.54c-1.53,4.37-1.43,9.39-2.51,13.98-14.18,60.62-94.52,92.76-149.11,103.46l-26.6,3.1h-27.35l-59.89-7.49c-23.51-6.13-49.27-11.37-73.81-15.77-61.58-11.04-130.64.33-154.76-73.51-.91-2.78-.13-7.1-1.97-9.63.44-6.72-.6-14.1,0-20.72ZM518.28,124.6c-24.26-7.6-51.51-5.18-76.5-4.17-18.04.73-38.59.48-54.89,5.62l-33.27,4.76c-.17,2.35-.23,1.61,1.41,1.86,6.53.97,13.04,1.81,19.5,3.14,28.63,5.9,56.99,19.63,86.12,21.35,15.58.92,28.84-3.11,41.92,7.13,8.33,6.52,10.12,22.07,4.62,30.92-7.02,11.31-30.45,16.17-42.3,19.87-27.78,8.66-47.16,30.34-71.44,44.73-17.56,10.41-42.65,20.41-61.97,27.32-3.27,1.17-10.91,2.61-12.99,3.75-.7.38-1.77,2.71-1.65,2.82,29.81,4.4,59.81,8.32,90.09,6.64,53.57-2.97,147.45-38.88,156.71-99.64,5.99-39.35-8.23-64.47-45.36-76.1ZM244.24,138.33c-10.8-.19-21.76-.74-32.53-1.89-17.67-1.89-37.22-8.15-54.57-5.51-43.33,6.58-68.07,58.44-49.81,96.58,24.09,50.32,85.43,41.23,130.67,49.37,4.29.77,8.7,1.31,12.83,2.72.82-8.99,5.92-13.1,12.9-17.74,15.53-10.31,42.41-12.22,61.25-18.85,23.98-8.44,46.86-21.67,67.9-35.77,2.92-1.96,19.52-12.36,20.15-13.82-2.06.11-2.79-1.98-4.12-2.5-35.25-13.65-82.75-14.3-119.74-19.76-16.06-2.37-43.28-5.15-45.24-25.44-.24-2.47.58-4.91.32-7.39ZM303.39,141.46c-1.25-.58-24.31-2.17-27.53-2.22-3.61-.06-16.37.42-15.49,6.03,1.03,6.52,32.84,9.95,39.14,10.84,22.37,3.17,43.8,4.3,66.56,7.93,16.37,2.61,31.36,6.93,46.24,12.24,5.74,2.05,21.56,5.7,24.08,10.8,4.72,9.58-10.84,16.15-16.69,20.55-28.82,21.71-59.33,40.76-93.78,52.33-14.49,4.87-35.69,6.69-48.66,12.58-1.14.52-8.75,5.6-9.01,6.07-.79,1.43-.22,2.28,1.12,2.7,2.49.78,16.17.4,19.64.14,26.09-1.94,77.53-24.28,100.37-38.23,20.53-12.54,39.59-33.02,62.51-41.12,11.58-4.09,22.85-5.17,33.51-10.99,5.72-3.12,11.55-4.09,7.87-12.87-1.99-4.75-8.93-4.82-13.73-5.1-7.81-.46-15.8.55-23.6.03-27.09-1.82-52.5-14.63-78.72-20.27-16.23-3.49-64.67-7.2-73.84-11.44Z"/>
      <path d="M493.68,106.56c-14.18-60.62-94.52-92.76-149.11-103.46l-26.6-3.1h-27.35l-59.89,7.49c-23.51,6.13-49.27,11.37-73.81,15.77-61.58,11.04-130.64-.33-154.76,73.51-.91,2.78-.13,7.1-1.97,9.63.44,6.72-.6,14.1,0,20.72,1,11.07,11.03,34.31,18.05,43.65,22.38,29.77,47.87,33.64,75.84,31.28-.98-1.99-1.58-4.24-1.69-6.72-.15-3.38,1.15-6.75,3.31-9.49-7.94,1.1-15.8,1.61-23.26.48-43.33-6.58-68.07-58.44-49.81-96.58,24.09-50.32,85.43-41.23,130.67-49.37,4.29-.77,8.7-1.31,12.83-2.72.82,8.99,5.92,13.1,12.9,17.74,15.53,10.31,42.41,12.22,61.25,18.85,23.98,8.44,46.85,21.67,67.9,35.77,2.92,1.96,19.52,12.36,20.15,13.82-2.06-.11-2.79,1.98-4.12,2.5-1.49.58-3.01,1.12-4.54,1.65,1.11.13,2.23.24,3.35.4,4.66.65,7.93,4.07,9.69,8.23,5.15-1.74,10.42-2.75,15.75-3.34,1.54-.96,2.71-2,3.25-3.1,4.72-9.58-10.84-16.15-16.69-20.55-28.82-21.71-59.33-40.76-93.78-52.33-14.5-4.87-35.69-6.69-48.66-12.58-1.14-.52-8.75-5.6-9.01-6.07-.79-1.43-.22-2.28,1.12-2.7,2.49-.78,16.17-.4,19.64-.14,26.09,1.94,77.53,24.28,100.37,38.23,20.53,12.54,39.59,33.02,62.51,41.12,7.23,2.55,14.34,3.94,21.26,6.04,2.83-4.44,7.96-7.48,13.26-7.48,3.7,0,6.98,1.3,9.57,3.42.47-.05.93-.07,1.39-.08.89-.68,1.85-1.27,2.85-1.76-10.07-6.7-26.16-10.26-35.33-13.12-27.78-8.66-47.16-30.34-71.44-44.73-17.56-10.41-42.65-20.41-61.98-27.32-3.27-1.17-10.91-2.61-12.99-3.75-.7-.38-1.77-2.71-1.65-2.82,29.81-4.4,59.81-8.32,90.09-6.64,53,2.94,145.45,38.13,156.37,97.72,1.58-.56,3.26-.92,5-.99,5-.22,9.55,2.47,12.42,6.41-1.36-4.25-1.32-9.06-2.36-13.48Z"/>
    </g>
  </g>
</svg>