<?xml version="1.0" encoding="UTF-8"?>
<svg id="Layer_1" data-name="Layer 1" xmlns="http://www.w3.org/2000/svg" viewBox="0 0 251 205">
  <defs>
    <style>
      .cls-1 {
        stroke-width: 2px;
      }

      .cls-1, .cls-2 {
        stroke: #000;
        stroke-linecap: round;
        stroke-linejoin: round;
      }

      .cls-1, .cls-2, .cls-3 {
        fill: #fff;
      }
    </style>
  </defs>
  <g>
    <path class="cls-3" d="M99.02,150.74c.16.02.32.04.47.05-.16,0-.32-.02-.47-.05ZM84.94,100.36c.25-.09.51-.17.77-.24-.26.07-.51.15-.77.24ZM84.43,100.55c-.21.09-.42.19-.63.3.21-.11.43-.21.65-.3.08-.03.16-.07.25-.1-.09.03-.18.07-.26.1ZM76.08,125.04c.05.4.11.81.18,1.21-.06-.41-.12-.81-.18-1.21ZM80.31,103.6c-.13.14-.25.29-.36.44.13-.16.26-.32.39-.47-.01,0-.02.02-.03.03ZM79.4,104.77c.18-.25.36-.5.55-.73-.19.24-.37.48-.55.73ZM77.08,109.53c.18-.53.36-1.04.57-1.53-.2.49-.4,1-.57,1.53Z"/>
    <path d="M98.91,151.17c-.22-.06-.36-.27-.33-.5,0-.02,0-.04.01-.05.06-.21.27-.36.5-.33.15.02.29.03.44.04.24.02.43.22.42.47-.01.25-.22.43-.47.42-.17,0-.34-.03-.52-.05-.02,0-.04,0-.05-.01ZM76.14,126.69c-.17-.04-.3-.18-.33-.36-.07-.41-.12-.82-.18-1.23,0-.06,0-.12.01-.17.05-.17.19-.3.37-.33.24-.03.47.14.5.39.05.4.11.8.17,1.2.04.24-.13.47-.37.51-.06.01-.13,0-.19-.01ZM76.96,109.96s-.02,0-.02,0c-.23-.08-.36-.33-.28-.56.17-.52.37-1.05.58-1.56.1-.23.36-.33.59-.24.21.09.32.32.26.53,0,.02-.01.04-.02.06-.19.47-.38.97-.56,1.49-.08.23-.31.35-.54.29ZM79.29,105.2s-.09-.03-.14-.06c-.2-.14-.25-.42-.11-.62.17-.25.36-.5.57-.76.12-.16.25-.31.38-.46,0,0,.02-.02.03-.03,0,0,0,0,0,0h0s.03-.03.04-.04c.18-.16.45-.15.61.02.17.17.17.44.02.61-.13.15-.26.3-.38.45-.18.23-.36.47-.53.71-.11.16-.31.22-.48.17ZM83.68,101.28c-.12-.03-.22-.11-.28-.23-.11-.22-.03-.49.19-.6.22-.11.44-.22.66-.31.09-.04.18-.07.27-.11.05-.02.09-.03.14-.03.03-.03.07-.05.12-.06.26-.09.52-.18.81-.25.24-.06.48.08.55.31.07.24-.08.48-.31.55-.26.07-.5.15-.73.23-.04.02-.09.02-.13.03-.03.02-.07.04-.11.06l-.24.1c-.21.09-.41.18-.62.29-.1.05-.22.06-.32.03Z"/>
  </g>
  <g>
    <path class="cls-3" d="M100.41,150.77c-.4,4.05,0,8.1,1.38,12.02-10.85-2.71-21.96-17.87-25.21-34.69-.12-.62-.23-1.24-.32-1.85-.06-.41-.12-.81-.18-1.21-.03-.2-.05-.4-.08-.6-.03-.23-.05-.46-.08-.69,0-.02,0-.03,0-.05-.03-.24-.05-.47-.07-.71-.02-.19-.03-.38-.05-.57,0-.12-.02-.25-.03-.37-.04-.63-.07-1.25-.09-1.86,0-.15,0-.29,0-.44,0-.14,0-.28,0-.41,0-.21,0-.41,0-.62,0-.48.02-.95.05-1.42.01-.25.03-.5.04-.74.01-.19.03-.38.04-.57,0-.11.02-.21.03-.31,0-.08.01-.15.02-.23,0-.07.02-.15.02-.22,0-.07.02-.15.02-.22.03-.25.06-.5.09-.75.01-.12.03-.25.05-.37.02-.13.04-.27.06-.41.09-.57.2-1.13.32-1.67.02-.1.04-.19.07-.29.02-.09.04-.17.06-.25.04-.16.08-.32.12-.47s.09-.32.13-.48c.08-.27.16-.54.25-.8.18-.53.36-1.04.57-1.53.1-.25.21-.49.32-.72.04-.09.08-.18.13-.26,0,0,0,0,0-.01h0s.03-.07.05-.09c.04-.07.08-.15.11-.22.06-.11.11-.22.17-.33.03-.05.05-.1.08-.15,0-.01.02-.03.03-.05.02-.03.03-.06.05-.08,0,0,0-.02.02-.03.06-.1.11-.2.17-.3.11-.19.23-.37.35-.55.01-.02.03-.05.04-.07.06-.1.13-.19.19-.28.01-.02.03-.04.04-.06.18-.25.36-.5.55-.73.13-.16.26-.32.39-.47,0,0,0,0,0,0,.04-.04.08-.09.12-.14.16-.18.32-.35.48-.51.01-.02.03-.03.05-.05.09-.09.18-.18.28-.26.03-.03.06-.05.09-.08.09-.08.18-.16.27-.23,0,0,.01-.01.02-.02.01,0,.02-.02.03-.02.03-.02.06-.05.09-.07.03-.03.06-.05.09-.07.03-.02.06-.05.09-.07,0,0,0,0,0,0,.02-.01.03-.02.04-.03.14-.11.29-.22.44-.33.07-.05.15-.1.22-.15.1-.07.2-.13.3-.19.09-.05.18-.11.27-.16.05-.03.11-.06.16-.09.05-.03.11-.06.16-.09.08-.04.15-.08.23-.12.21-.11.43-.21.65-.3.08-.03.16-.07.25-.1.08-.03.17-.06.25-.09.25-.09.51-.17.77-.24.09-.02.17-.05.26-.07.17-.04.35-.08.53-.12.1-.02.19-.04.29-.05.38-.06.78-.11,1.18-.13.1,0,.2-.01.3-.01.1,0,.2,0,.3,0,.71,0,1.45.06,2.21.18,8.81,1.47,18,11.45,23.16,24.12-2.4,2.55-4.59,5.3-6.48,8.18-.2-1.27-.47-2.58-.82-3.89-2.86-10.77-9.85-18.27-15.6-16.74-.09.02-.18.05-.27.08-.04.01-.08.03-.12.04-.06.02-.11.04-.17.06-.05.02-.09.03-.14.06-.04.01-.07.03-.11.04-.06.02-.11.05-.17.08-.16.08-.33.16-.48.25-.05.02-.09.05-.13.08-.05.03-.09.06-.14.09-.02,0-.03.02-.05.03-.08.05-.16.11-.24.17-.09.06-.18.13-.26.2-4.05,3.26-5.41,11.89-2.96,21.11,2.45,9.22,7.92,16.04,13.05,16.85.06,0,.11.02.17.02.16.02.32.04.47.05.05,0,.1,0,.15,0,.08,0,.15,0,.23,0,.08,0,.17,0,.26,0,.05,0,.1,0,.15,0,.04,0,.08,0,.12,0Z"/>
    <path d="M101.39,163.15c-10.96-2.96-22.01-18.23-25.25-34.96-.12-.62-.23-1.24-.33-1.86-.06-.41-.12-.82-.18-1.22l-.08-.6c-.03-.24-.06-.47-.08-.7l.44-.1-.45.05c-.03-.24-.05-.48-.07-.72v-.06c-.02-.18-.03-.35-.05-.52v-.04c-.01-.11-.02-.22-.03-.33-.04-.61-.07-1.24-.09-1.87v-.08c0-.12,0-.25,0-.37,0-.09,0-.19,0-.29v-.12c0-.21,0-.42,0-.63,0-.49.02-.97.05-1.44.01-.25.03-.5.04-.75.01-.17.03-.35.04-.52v-.05c.01-.11.02-.21.03-.32,0-.07.01-.15.02-.22,0-.04,0-.1.02-.16v-.07c.02-.08.02-.16.03-.23.03-.25.06-.5.09-.75.01-.11.03-.24.05-.36.02-.15.04-.29.07-.43.09-.58.2-1.15.33-1.69.02-.1.05-.2.07-.3.02-.08.04-.17.06-.26.04-.15.08-.31.12-.47s.09-.33.14-.49c.08-.28.16-.55.25-.82.18-.55.38-1.07.58-1.56.11-.25.21-.5.33-.74.04-.09.09-.19.13-.28h0s0,0,0,0c0,0,0,0,0,0l.03-.06s.02-.04.02-.05l.29-.56s.05-.09.08-.14c0,0,.03-.06.03-.06l.05-.09s0-.01.01-.02h0c.06-.11.12-.21.18-.32.12-.19.23-.38.36-.57l.04-.07c.06-.1.13-.19.2-.29l.03-.04c.2-.29.39-.54.58-.78.13-.16.26-.32.39-.47.01-.02.03-.03.04-.05l.1-.12c.16-.18.33-.36.5-.53h0s.02-.02.04-.04c.1-.1.2-.19.3-.28l.08-.08c.1-.09.19-.17.28-.25.01,0,.04-.04.05-.04l.26-.22s.03-.02.05-.03c.17-.13.32-.25.48-.36.08-.05.15-.11.23-.16.09-.06.19-.13.29-.19.11-.07.21-.13.3-.18.05-.03.11-.07.18-.1.04-.02.1-.06.16-.09.07-.04.16-.08.24-.13.22-.11.44-.22.67-.31l.25-.1c.11-.04.19-.07.27-.1.25-.09.51-.17.79-.25.09-.02.18-.05.27-.07.18-.05.37-.08.55-.12l.3-.05c.4-.07.81-.11,1.22-.13.1,0,.2-.01.31-.01.11,0,.21,0,.32,0,.74,0,1.51.06,2.28.19,8.7,1.44,18.15,11.25,23.5,24.39.07.16.03.35-.09.48-2.42,2.57-4.58,5.3-6.43,8.12-.1.16-.29.23-.47.19-.18-.04-.32-.19-.35-.37-.2-1.27-.47-2.56-.81-3.84-1.37-5.14-3.71-9.68-6.61-12.79-2.83-3.03-5.83-4.32-8.44-3.63-.08.02-.17.05-.25.07-.04.01-.07.02-.1.03-.07.02-.11.04-.16.06l-.05.02s-.04.02-.06.02c-.01,0-.03.01-.04.02-.02,0-.05.02-.07.03-.06.02-.11.05-.15.07-.16.07-.31.15-.45.24-.05.03-.08.05-.11.07-.05.03-.09.06-.13.08,0,0-.03.02-.04.03-.09.06-.16.11-.24.16-.08.06-.17.12-.24.19-3.96,3.18-5.14,11.87-2.81,20.64,2.33,8.78,7.67,15.72,12.69,16.53.05,0,.1.02.14.02.17.02.31.04.45.04.06,0,.1,0,.14,0,.08,0,.15,0,.21,0,.09,0,.16,0,.24,0,.05,0,.09,0,.12,0,.02,0,.03,0,.05,0,.02,0,.04,0,.07,0,.13-.02.27.03.37.12.1.1.15.23.13.36-.41,4.14.05,8.12,1.36,11.83.05.16.02.33-.09.45-.11.12-.28.17-.44.13-.1-.02-.2-.05-.3-.08ZM78.47,107.25c-.03.07-.07.14-.1.21-.11.23-.21.47-.31.71-.19.46-.38.97-.56,1.49-.09.26-.17.52-.25.79-.05.15-.09.31-.13.47s-.08.31-.12.46c-.02.09-.04.16-.06.24-.03.1-.05.19-.07.28-.12.53-.23,1.08-.32,1.65-.02.14-.04.27-.06.4-.02.13-.04.25-.05.36-.04.25-.07.49-.09.74-.01.08-.02.15-.02.21v.08s-.02.09-.02.14c0,.08-.02.15-.02.23-.01.11-.02.21-.03.31v.06c-.02.17-.03.34-.04.51-.02.24-.03.49-.04.73-.02.46-.04.93-.05,1.41,0,.2,0,.41,0,.61v.12c0,.1,0,.19,0,.29,0,.12,0,.24,0,.36v.08c.02.61.05,1.23.09,1.83,0,.11.01.21.02.32v.05c.02.17.03.34.04.51v.06c.02.23.05.46.07.7,0,0,0,.05,0,.06.02.23.05.45.08.68l.07.59c.05.4.11.8.17,1.2.1.61.2,1.23.32,1.83,3.12,16.16,13.59,30.9,24.08,34.12-1.09-3.44-1.49-7.1-1.18-10.89-.01,0-.02,0-.04,0-.08,0-.17,0-.26,0-.04,0-.1,0-.16,0-.16,0-.33-.02-.51-.05-.05,0-.12-.01-.18-.03-5.44-.86-10.95-7.93-13.41-17.18-2.46-9.25-1.18-18.12,3.11-21.57.09-.07.18-.14.28-.21.08-.06.16-.12.25-.17.02-.02.05-.03.08-.05.02-.02.08-.05.13-.08.04-.03.1-.06.15-.09.16-.09.33-.18.51-.26.06-.03.12-.06.19-.08.03-.01.07-.03.11-.04.03-.02.07-.03.1-.04,0,0,.04-.02.05-.02.07-.03.13-.05.19-.06.03-.01.08-.03.13-.04.09-.03.18-.06.28-.08,2.95-.78,6.26.59,9.33,3.88,3,3.21,5.42,7.89,6.82,13.17.25.94.46,1.88.64,2.82,1.68-2.45,3.59-4.83,5.7-7.09-5.26-12.73-14.36-22.19-22.71-23.58-.72-.12-1.44-.18-2.13-.18-.1,0-.19,0-.29,0-.1,0-.19,0-.29.01-.39.02-.77.06-1.13.12l-.28.05c-.16.03-.33.07-.5.11-.08.02-.16.04-.25.06-.26.07-.5.15-.73.23-.08.03-.15.05-.22.08l-.26.11c-.21.09-.41.18-.62.29-.08.04-.15.07-.22.11-.06.03-.11.06-.16.09-.06.03-.1.06-.14.08-.11.06-.19.11-.28.17-.1.06-.19.12-.28.18-.07.05-.14.1-.21.15-.14.1-.29.21-.42.31-.01,0-.03.03-.06.04-.03.02-.05.05-.08.07l-.18.15s0,0-.02.01c-.01.01-.03.02-.03.03-.07.06-.16.14-.24.21l-.08.08c-.09.09-.18.17-.27.26,0,0-.05.05-.05.05-.16.16-.31.32-.47.49l-.11.12s0,.01-.01.02c-.13.15-.26.3-.38.45-.18.23-.36.46-.53.71,0,0-.04.06-.04.06-.06.09-.13.18-.19.28l-.03.05c-.13.2-.24.38-.35.56-.06.1-.11.19-.17.29,0,.01-.01.02-.02.03l-.07.13c-.03.05-.05.09-.07.13l-.31.6s-.03.07-.05.1Z"/>
  </g>
  <g>
    <path class="cls-3" d="M104.02,167.57c-6.29,3.55-14.87,4.93-23.75-4.15h0c-.58-.6-1.16-1.24-1.75-1.93h0c-.19-.22-.38-.45-.57-.68-.35-.44-.71-.89-1.07-1.36-.07-.09-.14-.19-.21-.29-.14-.19-.28-.39-.43-.58-.19-.26-.38-.53-.57-.81-.24-.36-.49-.72-.74-1.1-.08-.13-.17-.25-.25-.38-.08-.13-.16-.25-.25-.38-.26-.41-.52-.82-.78-1.25-.08-.13-.16-.26-.23-.39-.1-.17-.21-.35-.31-.53-.07-.12-.14-.24-.21-.37-.27-.47-.53-.94-.8-1.44-.11-.21-.23-.42-.34-.63-.11-.22-.23-.43-.35-.65-.11-.21-.22-.42-.33-.63-.22-.43-.44-.86-.65-1.3-.11-.22-.22-.44-.33-.67-.06-.11-.11-.23-.16-.34-.06-.11-.11-.23-.16-.34-.11-.23-.22-.46-.33-.69-.36-.79-.71-1.56-1.03-2.32-.16-.38-.32-.75-.47-1.13-.15-.37-.3-.74-.45-1.11-.14-.37-.28-.73-.42-1.09-.14-.36-.27-.72-.39-1.07-.12-.33-.23-.66-.34-.99-.05-.16-.11-.33-.16-.49-.05-.16-.1-.32-.16-.48-.07-.21-.13-.43-.2-.64-.11-.35-.21-.69-.31-1.04-.04-.16-.09-.31-.13-.47-.17-.61-.32-1.22-.46-1.81-.05-.2-.09-.41-.14-.61-.06-.26-.11-.52-.16-.77-.02-.1-.04-.21-.06-.31-.03-.16-.06-.32-.09-.47-.03-.16-.06-.31-.08-.47-.03-.15-.05-.3-.08-.45,0,0,0-.01,0-.02-.03-.15-.05-.3-.07-.45-.02-.1-.03-.2-.05-.31-.03-.2-.06-.4-.08-.6-.03-.2-.05-.4-.07-.6,0-.07-.02-.14-.02-.21-.02-.13-.03-.26-.04-.38-.02-.19-.04-.39-.05-.58-.02-.19-.03-.38-.04-.57-.01-.23-.03-.46-.04-.68,0-.17-.01-.34-.02-.5,0-.08,0-.16,0-.24,0-.11,0-.22,0-.33,0-.21,0-.41,0-.62,0-.08,0-.16,0-.23,0-.16,0-.32.01-.48,0-.05,0-.1,0-.15,0-.08,0-.17.01-.25,0-.05,0-.1,0-.15,0-.14.02-.29.02-.43,0-.16.02-.32.04-.48.01-.13.02-.25.03-.37,0-.07.02-.14.02-.21.03-.27.06-.53.1-.8.13-.95.3-1.86.52-2.74.06-.25.13-.5.2-.74.02-.07.04-.13.06-.19.1-.33.2-.66.31-.99.94-2.73,2.31-5.03,3.92-6.96,0,0,0-.01.01-.02.09-.11.18-.21.27-.31.09-.11.19-.22.29-.33.07-.08.15-.16.22-.24,0,0,0,0,0,0,.12-.13.25-.26.37-.39,0,0,.02-.02.03-.03.12-.12.24-.24.36-.36.08-.08.17-.17.26-.25.07-.06.13-.13.2-.19.3-.28.6-.54.91-.8.1-.09.2-.17.31-.26.1-.09.21-.17.31-.25.1-.08.21-.17.32-.24.07-.05.13-.1.2-.15,0,0,.01,0,.02-.01.18-.14.37-.27.55-.4.07-.05.14-.1.21-.15.1-.07.2-.14.3-.2.69-.47,1.4-.9,2.1-1.3.12-.07.24-.14.36-.2.25-.14.5-.27.75-.39.11-.06.22-.11.34-.17.51-.25,1.01-.48,1.5-.69.12-.06.25-.11.37-.16.16-.07.33-.14.49-.2.14-.06.28-.11.41-.16.18-.07.37-.14.55-.21.08-.03.16-.06.23-.09.08-.03.15-.06.23-.08.15-.05.3-.11.45-.16.37-.13.73-.24,1.08-.35.1-.03.19-.06.29-.09.09-.03.19-.06.28-.08.08-.02.17-.05.25-.07.18-.05.36-.1.53-.14,0,0,.01,0,.02,0-.22.09-.44.19-.65.3-.08.04-.16.08-.23.12-.06.03-.11.06-.16.09-.06.03-.11.06-.16.09-.02.01-.05.02-.07.04,0,0-.02,0-.02.01-.06.03-.11.07-.17.11-.1.06-.2.13-.3.19-.08.05-.15.1-.22.15-.15.11-.3.21-.44.33-.01.01-.03.02-.04.03,0,0,0,0,0,0-.03.03-.06.05-.09.07-.03.03-.06.05-.09.07-.03.02-.06.05-.09.07-.01,0-.02.02-.03.02,0,0-.01.01-.02.02-.09.08-.18.15-.27.23-.03.03-.06.05-.09.08-.1.09-.19.18-.28.26-.02.02-.03.03-.05.05-.17.16-.33.33-.48.51-.04.04-.08.09-.12.14,0,0,0,0,0,0-.13.15-.26.31-.39.47-.19.24-.37.48-.55.73-.01.02-.03.04-.04.06-.06.09-.13.19-.19.28-.01.02-.03.04-.04.07-.12.18-.23.37-.35.55-.06.1-.12.2-.17.3,0,0-.01.02-.02.03-.02.03-.03.06-.05.08,0,.02-.02.03-.03.05-.03.05-.06.1-.08.15-.03.05-.05.1-.08.15-.02.04-.04.07-.06.11-.01.02-.02.05-.04.07-.04.07-.08.15-.11.22-.01.03-.03.06-.05.09h0s0,.01,0,.02c-.04.09-.09.17-.13.26-.11.24-.22.48-.32.72-.2.49-.39,1-.57,1.53-.09.27-.17.53-.25.8-.05.16-.09.32-.13.48s-.08.31-.12.47c-.02.08-.04.17-.06.25-.02.09-.05.19-.07.29-.12.54-.23,1.1-.32,1.67-.02.13-.04.27-.06.41-.02.12-.04.25-.05.37-.04.25-.07.49-.09.75,0,.07-.02.15-.02.22,0,.07-.02.15-.02.22,0,.07-.02.15-.02.23-.01.1-.02.2-.03.31-.02.19-.03.38-.04.57-.02.25-.03.49-.04.74-.02.47-.04.94-.05,1.42,0,.21,0,.41,0,.62,0,.14,0,.27,0,.41,0,.14,0,.29,0,.44.02.61.04,1.23.09,1.86,0,.12.02.24.03.37.01.19.03.38.05.57.02.24.04.47.07.71,0,.02,0,.03,0,.05.02.23.05.46.08.69.02.2.05.4.08.6.05.4.11.81.18,1.21.1.61.2,1.23.32,1.85,3.25,16.82,14.37,31.98,25.21,34.69.57,1.62,1.31,3.22,2.23,4.78Z"/>
    <path d="M90.14,170.14c-3.26-.88-6.7-2.84-10.19-6.41-.59-.61-1.18-1.25-1.76-1.93,0,0-.01-.01-.02-.02-.19-.23-.38-.46-.57-.69-.36-.45-.72-.91-1.07-1.38-.07-.09-.15-.19-.22-.29-.14-.19-.28-.38-.43-.58-.19-.26-.38-.54-.58-.82-.25-.36-.49-.73-.74-1.11-.08-.12-.17-.25-.25-.38l-.25-.38c-.26-.41-.52-.83-.78-1.26l-.24-.4c-.1-.17-.21-.36-.32-.54-.04-.06-.08-.14-.12-.21l-.09-.15c-.27-.48-.54-.96-.81-1.45-.1-.18-.2-.36-.29-.54l-.4-.75c-.1-.2-.21-.4-.31-.6-.24-.46-.46-.9-.68-1.35-.11-.22-.22-.45-.33-.67-.06-.11-.11-.23-.16-.34-.05-.11-.11-.23-.16-.35-.11-.23-.22-.46-.33-.69-.39-.84-.73-1.6-1.04-2.33-.16-.38-.32-.76-.48-1.13-.15-.37-.3-.75-.45-1.11-.15-.37-.29-.74-.42-1.1-.14-.36-.27-.73-.39-1.08-.12-.33-.23-.66-.34-.99l-.32-.98c-.07-.22-.14-.43-.2-.65-.11-.35-.21-.7-.31-1.05l-.13-.47c-.18-.65-.33-1.25-.47-1.83-.05-.2-.1-.41-.14-.61-.06-.26-.11-.52-.17-.78l-.06-.31c-.03-.16-.06-.32-.09-.48-.03-.16-.06-.32-.09-.48-.03-.17-.06-.31-.08-.46h0s0-.04,0-.06c-.02-.11-.04-.27-.07-.42-.02-.11-.03-.21-.05-.31-.03-.2-.06-.4-.08-.61-.03-.2-.05-.4-.07-.6l-.02-.22c-.01-.12-.03-.25-.04-.38-.02-.16-.03-.32-.04-.48v-.1c-.02-.17-.03-.33-.04-.49v-.08c-.02-.2-.03-.4-.04-.6v-.09c-.01-.17-.02-.34-.02-.52v-.58c-.02-.21-.01-.42-.01-.63v-.23c0-.17,0-.33.01-.49,0-.02,0-.06,0-.1v-.05c0-.09,0-.18.01-.27,0-.04,0-.1,0-.16,0-.07,0-.17.01-.27v-.14c.02-.16.03-.33.04-.49l.03-.38c0-.08.02-.15.02-.21.03-.28.06-.55.1-.82.13-.96.31-1.9.53-2.78.06-.26.13-.51.2-.76.02-.06.04-.13.06-.2.1-.34.2-.67.32-1,.89-2.61,2.24-4.99,4-7.1,0,0,0,0,.01-.01,0,0,0,0,0,0,.1-.12.19-.23.28-.32.06-.07.12-.14.19-.21l.32-.35c.14-.15.26-.28.39-.41.15-.15.27-.28.39-.4.09-.08.17-.17.27-.26l.2-.19c.31-.29.62-.56.92-.81.11-.1.21-.18.32-.26l.31-.25c.11-.09.22-.17.33-.25l.2-.16c.21-.15.39-.29.58-.42.07-.05.15-.11.23-.16l.05-.04c.08-.06.16-.11.25-.17.67-.46,1.39-.9,2.12-1.31.12-.07.25-.14.37-.21.25-.14.51-.27.76-.4.11-.06.23-.12.34-.17.49-.24,1-.48,1.52-.7.12-.05.24-.1.36-.15.18-.08.35-.14.51-.21l.53-.21c.15-.06.3-.11.44-.16.07-.03.16-.06.24-.09l.23-.08c.15-.05.3-.11.46-.16.38-.13.74-.24,1.09-.35.11-.03.2-.06.3-.09.09-.03.19-.06.28-.08l.25-.07c.2-.05.37-.1.54-.14.01,0,.04-.01.06-.01.22-.04.44.1.5.32.06.22-.05.45-.26.54-.21.09-.42.18-.62.29-.08.04-.15.07-.22.11-.06.03-.11.06-.16.09-.06.03-.1.06-.14.08-.01,0-.03.02-.04.02l-.04.02c-.05.03-.08.05-.11.07l-.08.05c-.1.06-.19.12-.28.18-.07.05-.14.1-.21.15-.14.1-.29.21-.42.31-.01,0-.03.03-.06.04-.03.02-.05.05-.08.07l-.18.15s0,0-.02.01c-.01.01-.03.02-.03.03-.07.06-.16.14-.24.21l-.08.08c-.09.09-.18.17-.27.26,0,0-.05.05-.05.05-.16.16-.31.32-.47.49l-.11.12s0,.01-.01.02c-.13.15-.26.3-.38.45-.18.23-.36.46-.53.71,0,0-.04.06-.04.06-.06.09-.13.18-.19.28l-.03.05c-.13.2-.24.38-.35.56-.06.1-.11.19-.17.29,0,.01-.01.02-.02.03l-.07.13c-.03.05-.05.09-.07.13l-.08.15s-.04.07-.05.1l-.17.35s-.03.07-.05.1c-.03.07-.07.14-.1.21-.11.23-.21.47-.31.71-.19.46-.38.97-.56,1.49-.09.26-.17.52-.25.79-.05.15-.09.31-.13.47s-.08.31-.12.46c-.02.09-.04.16-.06.24-.03.1-.05.19-.07.28-.12.53-.23,1.08-.32,1.65-.02.14-.04.27-.06.4-.02.13-.04.25-.05.36-.04.25-.07.49-.09.74-.01.08-.02.15-.02.21v.08s-.02.09-.02.14c0,.08-.02.15-.02.23-.01.11-.02.21-.03.31v.06c-.02.17-.03.34-.04.51-.02.24-.03.49-.04.73-.02.46-.04.93-.05,1.41,0,.2,0,.41,0,.61v.12c0,.1,0,.19,0,.29,0,.12,0,.24,0,.36v.08c.02.61.05,1.23.09,1.83,0,.11.01.21.02.32v.05c.02.17.03.34.04.51v.06c.02.23.05.46.07.7,0,0,0,.05,0,.06.02.23.05.45.08.68l.07.59c.05.4.11.8.17,1.2.1.61.2,1.23.32,1.83,3.2,16.57,14.12,31.65,24.88,34.34.15.04.26.14.31.29.57,1.62,1.31,3.2,2.19,4.7.06.1.08.23.05.34s-.11.22-.21.27c-3.71,2.1-8.64,3.66-14.1,2.18ZM78.83,161.18s.01.02.02.02c.57.67,1.15,1.31,1.73,1.9,7.07,7.23,14.75,8.68,22.82,4.3-.77-1.36-1.43-2.78-1.96-4.23l-.06-.02c-10.97-2.96-22.01-18.23-25.25-34.96-.12-.62-.23-1.24-.33-1.86-.06-.41-.12-.82-.18-1.22l-.08-.6c-.03-.24-.06-.47-.08-.7l.44-.1-.45.05c-.03-.24-.05-.48-.07-.72v-.06c-.02-.18-.03-.35-.05-.52v-.04c-.01-.11-.02-.22-.03-.33-.04-.61-.07-1.24-.09-1.87v-.08c0-.12,0-.25,0-.37,0-.09,0-.19,0-.29v-.12c0-.21,0-.42,0-.63,0-.49.02-.97.05-1.44.01-.25.03-.5.04-.75.01-.17.03-.35.04-.52v-.05c.01-.11.02-.21.03-.32,0-.07.01-.15.02-.22,0-.04,0-.1.02-.16v-.07c.02-.08.02-.16.03-.23.03-.25.06-.5.09-.75.01-.11.03-.24.05-.36.02-.15.04-.29.07-.43.09-.58.2-1.15.33-1.69.02-.1.05-.2.07-.3.02-.08.04-.17.06-.26.04-.15.08-.31.12-.47s.09-.33.14-.49c.08-.28.16-.55.25-.82.18-.55.38-1.07.58-1.56.11-.25.21-.5.33-.74.04-.09.09-.19.13-.28h0s0,0,0,0c0,0,0,0,0,0l.03-.06s.02-.04.02-.05l.15-.3s.04-.07.06-.12l.07-.14s.05-.1.08-.15c0,0,.03-.06.03-.06l.05-.09s0-.01.01-.02h0c.06-.11.12-.21.18-.32.12-.19.23-.38.36-.57l.04-.07c.06-.1.13-.19.2-.29l.03-.04c.2-.29.39-.54.58-.78.13-.16.26-.32.39-.47.01-.02.03-.03.04-.05l.1-.12c.16-.18.33-.36.5-.53h0s.02-.02.04-.04c.1-.1.2-.19.3-.28l.08-.08c.07-.06.13-.12.19-.17,0,0,0,0,0,0-.15.05-.29.11-.44.16l-.52.2c-.16.06-.32.13-.48.2-.13.06-.25.1-.36.15-.5.22-1,.45-1.48.69-.11.05-.22.11-.33.17-.25.13-.5.26-.74.39-.12.06-.24.13-.36.2-.71.4-1.41.83-2.07,1.28-.08.05-.16.11-.23.16l-.06.04c-.07.05-.14.1-.2.14-.19.13-.37.27-.55.4l-.21.16c-.1.08-.21.16-.31.24l-.3.25c-.1.08-.2.16-.29.24-.31.26-.61.52-.9.8l-.2.19c-.09.08-.17.16-.25.24-.12.12-.24.24-.36.36,0,0-.03.04-.04.04-.11.11-.23.24-.35.37l-.32.35c-.06.07-.12.14-.18.21-.09.1-.17.19-.25.29,0,0-.01.01-.02.02,0,0-.01.02-.02.03-1.69,2.02-2.97,4.31-3.83,6.81-.11.32-.21.64-.3.97-.02.07-.04.13-.05.19-.07.25-.13.49-.2.73-.21.85-.38,1.76-.51,2.69-.04.26-.07.52-.09.78,0,.07-.01.14-.02.22l-.03.36c-.01.15-.03.31-.03.46v.14c-.01.09-.02.19-.02.28,0,.06,0,.1,0,.14,0,.1,0,.18-.01.25v.14c0,.17-.01.33-.02.49v.23c0,.2,0,.4,0,.6v.57c.01.17.02.33.03.5v.09c.01.19.02.39.04.59v.08c.02.16.03.32.04.48v.1c.02.16.03.31.05.47.01.13.02.25.04.38l.02.22c.02.19.04.38.07.58.02.2.05.4.08.6.01.09.03.19.04.28.03.17.05.32.07.47,0,0,0,.02,0,.02h0c.02.14.05.28.07.42.03.18.06.33.09.49.03.16.06.31.09.47l.06.31c.05.25.1.51.16.76.04.2.09.4.14.6.13.57.28,1.16.46,1.8l.13.46c.1.34.2.68.3,1.03.06.21.13.42.2.63l.32.96c.11.32.22.65.34.98.12.35.25.71.39,1.06.13.36.27.72.41,1.08.14.36.29.73.44,1.1.15.37.31.75.47,1.12.31.72.64,1.48,1.03,2.3.11.23.22.46.32.69.05.12.11.23.16.34.06.12.11.23.16.34.11.23.22.45.33.67.22.44.43.87.65,1.3.12.23.22.43.33.63l.39.74c.1.18.19.36.29.54.27.49.53.97.8,1.43l.21.36c.11.19.21.36.32.54l.23.39c.26.42.51.84.77,1.24l.25.38c.08.12.16.25.24.37.25.38.49.74.73,1.09.19.27.38.54.56.8.14.2.28.39.42.58.07.1.14.19.21.28.35.46.7.92,1.06,1.35.18.22.36.44.54.65Z"/>
  </g>
  <g>
    <path class="cls-3" d="M100.41,150.77s-.08,0-.12,0c-.05,0-.1,0-.15,0-.09,0-.17,0-.26,0-.08,0-.16,0-.23,0-.05,0-.1,0-.15,0-.16,0-.32-.02-.47-.05-.06,0-.12-.01-.17-.02,2.32-2.8,2.4-11.09-.05-20.31-2.45-9.22-6.64-16.38-10.04-17.65.08-.07.17-.13.26-.2.08-.06.16-.11.24-.17.01-.01.03-.02.05-.03.04-.03.09-.06.14-.09.04-.03.09-.05.13-.08.16-.09.32-.18.48-.25.06-.03.11-.05.17-.08.04-.02.07-.03.11-.04.04-.02.09-.04.14-.06.05-.02.11-.04.17-.06.04-.02.08-.03.12-.04.09-.03.18-.06.27-.08,5.75-1.53,12.74,5.96,15.6,16.74.35,1.31.62,2.61.82,3.89-3.82,5.83-6.41,12.2-7.04,18.56Z"/>
    <path d="M98.74,151.15c-.14-.04-.25-.14-.3-.28-.06-.15-.03-.32.08-.44,2.26-2.73,2.21-11.1-.14-19.91-2.34-8.81-6.45-16.11-9.77-17.35-.15-.06-.26-.19-.29-.35-.03-.16.04-.32.16-.42.09-.07.18-.14.28-.21.08-.06.16-.12.25-.17.02-.02.05-.03.08-.05.02-.02.08-.05.13-.08.04-.03.1-.06.15-.09.16-.09.33-.18.51-.26.06-.03.12-.06.19-.08.03-.01.07-.03.11-.04.03-.02.07-.03.1-.04,0,0,.04-.02.05-.02.07-.03.13-.05.19-.06.03-.01.08-.03.13-.04.09-.03.18-.06.28-.08,2.95-.78,6.26.59,9.33,3.88,3,3.21,5.42,7.89,6.82,13.17.35,1.31.63,2.63.83,3.93.02.11,0,.22-.07.31-3.97,6.06-6.38,12.41-6.97,18.36-.02.21-.18.38-.39.4-.05,0-.1.01-.15.01-.06,0-.11,0-.17,0-.08,0-.17,0-.26,0-.08,0-.17,0-.26,0-.04,0-.1,0-.16,0-.17-.01-.34-.02-.51-.05-.05,0-.12-.01-.18-.03-.01,0-.03,0-.04,0ZM100.14,149.32c-.15.38-.31.72-.49,1.03,0,0,0,0,.01,0,.08,0,.15,0,.21,0,.04,0,.09,0,.13,0,.04-.34.08-.68.13-1.03ZM89.64,112.68c3.45,1.99,7.31,9,9.6,17.61,1.49,5.62,2.07,10.98,1.73,14.98,1.17-4.38,3.2-8.84,6.01-13.17-.19-1.22-.46-2.45-.78-3.67-1.37-5.14-3.71-9.68-6.61-12.79-2.83-3.03-5.83-4.32-8.44-3.63-.08.02-.17.05-.25.07-.04.01-.07.02-.1.03-.07.02-.11.04-.16.06l-.05.02s-.04.02-.06.02c-.01,0-.03.01-.04.02-.02,0-.05.02-.07.03-.06.02-.11.05-.15.07-.16.07-.31.15-.45.24-.05.03-.08.05-.11.07-.02.01-.04.02-.05.03Z"/>
  </g>
  <g>
    <path class="cls-3" d="M98.85,150.71c-5.13-.82-10.6-7.64-13.05-16.85-2.45-9.22-1.09-17.85,2.96-21.11,3.41,1.27,7.59,8.43,10.04,17.65,2.45,9.22,2.37,17.51.05,20.31Z"/>
    <path d="M97.97,150.98c-5.17-1.4-10.27-8.21-12.6-17.01-2.46-9.25-1.18-18.12,3.11-21.57.12-.1.29-.13.44-.07,3.63,1.36,7.87,8.74,10.32,17.96,2.45,9.21,2.43,17.73-.04,20.71-.1.12-.26.18-.41.16-.27-.04-.54-.1-.81-.17ZM98.85,150.71h0s0,0,0,0ZM88.84,113.27c-3.8,3.31-4.9,11.85-2.61,20.47,2.29,8.63,7.49,15.49,12.43,16.48,2.1-2.92,1.99-11.1-.29-19.7-2.29-8.6-6.26-15.76-9.53-17.25Z"/>
  </g>
  <g>
    <path class="cls-3" d="M99.5,150.78c-.16,0-.32-.02-.47-.05.16.02.32.04.47.05Z"/>
    <path d="M98.91,151.17c-.22-.06-.36-.27-.33-.5,0-.02,0-.04.01-.05.06-.21.27-.36.5-.33.15.02.29.03.44.04.25.02.43.22.42.47-.01.25-.22.43-.47.42-.17,0-.34-.03-.52-.05-.02,0-.04,0-.05-.01Z"/>
  </g>
  <g>
    <path class="cls-3" d="M162.66,110.42c-.08.17-.15.33-.23.5.08-.17.15-.33.23-.5h0Z"/>
    <path d="M162.31,111.35s-.05-.02-.07-.03c-.22-.1-.32-.37-.22-.59l.23-.5c.09-.2.31-.3.52-.25.13.03.23.12.29.24.06.12.06.26,0,.38-.08.17-.15.33-.23.5-.09.2-.32.3-.52.24Z"/>
  </g>
  <g>
    <path class="cls-3" d="M160.06,113.76c-.19.44-.37.87-.56,1.29-.21.49-.42.97-.64,1.44-.11.24-.22.48-.32.71-.11.24-.21.47-.32.7-.1.22-.2.44-.3.65-.32.69-.64,1.37-.96,2.03-.91,1.34-1.89,2.66-2.93,3.95l.03-.06s-8.18,2.5-13.27,4.5c-5.08,2-23.84,13.79-23.03,30.44.63,12.8,10.23,15.82,12.71,16.38h0c.15.1.3.19.46.28l1.2.44c1.02.5,2.06.88,3.12,1.16h0s1.13.42,1.13.42c-11.06,2.76-20.5,3.09-28.16-4.92h0c-.87-2.13-1.26-4.7-1.19-7.56.02-.84.08-1.7.18-2.58.84-7.38,4.43-16.22,10.53-24.34,2.05-2.73,4.39-5.37,7-7.86,11.9-11.3,25.7-17.52,35.3-17.07Z"/>
    <path d="M117.84,179.49c-3.51-.95-6.86-2.81-9.92-6.01-.05-.04-.08-.1-.11-.16-.88-2.17-1.29-4.77-1.22-7.74.02-.83.08-1.72.18-2.62.89-7.82,4.76-16.77,10.62-24.56,2.12-2.82,4.5-5.48,7.05-7.91,11.5-10.92,25.49-17.67,35.63-17.19.15,0,.28.08.36.21.08.12.09.28.03.41-.19.44-.37.87-.56,1.29-.21.49-.43.97-.64,1.44l-.95,2.07c-.33.7-.65,1.38-.96,2.04,0,.02-.02.04-.03.06-.94,1.38-1.93,2.72-2.95,3.98-.11.13-.27.19-.43.16-1.39.43-8.47,2.64-12.99,4.42-3.91,1.54-23.58,12.93-22.75,30,.6,12.34,9.61,15.34,12.36,15.97.05.01.1.03.14.06.14.08.27.17.41.25l1.17.43s.03.01.04.02c.97.48,2,.86,3.04,1.12.02,0,.03,0,.05.01l1.13.42c.18.07.3.25.29.44-.01.2-.15.36-.34.41-6.27,1.56-12.69,2.58-18.65.97ZM108.61,172.91c7.54,7.83,16.97,7.24,26.19,5.1-.95-.27-1.92-.63-2.84-1.08l-1.18-.44s-.05-.02-.07-.03c-.14-.08-.27-.16-.4-.24-2.95-.69-12.35-3.89-12.98-16.78-.86-17.6,19.31-29.3,23.31-30.87,4.73-1.86,12.22-4.18,13.2-4.48.95-1.18,1.87-2.43,2.74-3.72.31-.65.63-1.31.94-2l.94-2.06c.21-.47.42-.95.63-1.43.1-.23.2-.45.3-.68-9.85-.16-23.23,6.44-34.32,16.97-2.52,2.39-4.86,5.02-6.95,7.8-5.77,7.67-9.58,16.46-10.45,24.12-.1.87-.16,1.73-.18,2.54-.07,2.8.31,5.26,1.12,7.3Z"/>
  </g>
  <g>
    <path class="cls-3" d="M132.13,176.51l-1.2-.44c-.15-.09-.3-.18-.46-.28.24.05.41.08.5.1.38.22.77.43,1.16.62Z"/>
    <path d="M132.02,176.94s-.03,0-.04-.01l-1.2-.44s-.05-.02-.07-.03c-.16-.09-.31-.19-.47-.28-.19-.12-.26-.35-.18-.55.08-.2.3-.31.51-.27.23.05.39.08.48.1.05,0,.1.03.15.05.37.22.75.42,1.13.6.21.1.31.36.22.58-.09.21-.32.31-.53.26Z"/>
  </g>
  <g>
    <path class="cls-3" d="M136.77,177.99c-.13.03-.25.07-.38.09l-1.13-.42c.5.13,1,.24,1.51.32Z"/>
    <path d="M136.27,178.51s-.03,0-.04-.01l-1.13-.42c-.22-.08-.34-.33-.27-.55s.31-.36.54-.3c.48.13.98.23,1.47.31.21.04.37.21.37.42,0,.21-.13.4-.34.45l-.14.03c-.08.02-.17.04-.25.06-.07.02-.15.02-.22,0Z"/>
  </g>
  <g>
    <path class="cls-3" d="M160.09,113.69l-.03.07h0s.02-.05.03-.07Z"/>
    <path d="M159.94,114.19c-.13-.03-.23-.12-.29-.24s-.06-.26,0-.38c0-.01,0-.02.01-.03v-.03s.02,0,.02,0c.12-.19.36-.3.57-.21.23.1.35.32.25.55l-.03.07c-.09.21-.31.32-.53.26Z"/>
  </g>
  <g>
    <path class="cls-3" d="M108.01,172.92c-.71-.76-1.41-1.59-2.08-2.51l2.08,2.51Z"/>
    <path d="M107.89,173.36c-.08-.02-.15-.06-.21-.13-.73-.79-1.45-1.64-2.11-2.54-.14-.19-.11-.47.08-.62.19-.15.47-.12.62.07l2.08,2.51c.16.19.13.46-.05.62-.12.1-.27.13-.41.1Z"/>
  </g>
  <g>
    <path class="cls-3" d="M105.04,163.22h0s-.03,0-.05,0c.02,0,.03,0,.05,0Z"/>
    <path d="M104.88,163.65c-.22-.06-.36-.27-.33-.5,0-.02,0-.03.01-.05.06-.2.25-.34.46-.33.14,0,.27.05.36.15.1.11.13.27.09.41h0c-.05.2-.23.33-.43.33-.01,0-.03,0-.04,0-.03,0-.05,0-.08,0,0,0,0,0,0,0-.02,0-.03,0-.05-.01Z"/>
  </g>
  <g>
    <path class="cls-3" d="M105.34,169.62c-.14-.21-.29-.41-.43-.63-.31-.47-.61-.94-.89-1.42.33-.19.66-.38.98-.58.06.92.17,1.8.34,2.63Z"/>
    <path d="M105.23,170.05c-.1-.03-.19-.09-.25-.18-.15-.21-.29-.42-.44-.64-.32-.47-.62-.96-.91-1.44-.06-.1-.08-.23-.05-.34s.11-.21.21-.27c.33-.18.65-.38.96-.57.13-.08.3-.09.44-.02.14.07.23.21.24.37.05.88.17,1.74.33,2.56.04.21-.07.42-.26.5-.1.04-.2.05-.29.02Z"/>
  </g>
  <g>
    <path class="cls-3" d="M161.67,109.84c-.08.19-.15.38-.22.56-.11.27-.21.53-.32.8-.11.28-.23.56-.34.83-.2.48-.4.95-.59,1.42-.02.03-.03.07-.04.1l.61-1.47c-10.78-1.88-25.77,4.19-39.57,18.66-1.4,1.47-2.72,2.99-3.95,4.54-7.39,9.32-11.54,19.73-12.19,27.94-.02,0-.03,0-.05,0,.02,0,.03,0,.05,0-.1,1.32-.12,2.58-.04,3.77-.32.2-.65.39-.98.58-.92-1.56-1.66-3.16-2.23-4.78-1.38-3.92-1.78-7.97-1.38-12.02.63-6.36,3.22-12.73,7.04-18.56,1.89-2.88,4.07-5.63,6.48-8.18,4.73-5.03,10.28-9.32,16-12.37,12.09-6.44,23.42-6.49,31.74-1.83Z"/>
    <path d="M103.9,168c-.11-.03-.21-.1-.27-.21-.92-1.55-1.68-3.19-2.27-4.86-1.35-3.83-1.82-7.94-1.4-12.21.6-6.09,3.06-12.58,7.11-18.76,1.87-2.86,4.07-5.63,6.52-8.24,4.75-5.06,10.32-9.37,16.12-12.45,11.53-6.15,23.26-6.81,32.17-1.83.2.11.28.35.2.56l-.22.56c-.11.27-.22.54-.32.8-.11.28-.23.56-.34.83-.15.36-.3.72-.45,1.07l-.15.35s-.02.05-.02.05l-.03.06c-.1.22-.36.32-.59.22-.22-.1-.33-.36-.23-.58l.39-.95c-11.3-1.67-26.03,5.42-38.62,18.62-1.36,1.43-2.68,2.94-3.92,4.51-6.89,8.69-11.41,19.04-12.1,27.69,0,0,0,.01,0,.02-.1,1.3-.12,2.54-.04,3.69.01.17-.07.32-.21.41-.33.2-.66.4-1,.59-.11.06-.23.07-.34.04ZM155.87,107.96c-7.69-2.08-16.76-.68-25.73,4.1-5.71,3.04-11.2,7.29-15.89,12.28-2.42,2.57-4.58,5.3-6.43,8.12-3.97,6.06-6.38,12.41-6.97,18.36-.41,4.14.05,8.12,1.36,11.83.52,1.48,1.18,2.93,1.97,4.32.12-.07.24-.14.35-.21-.06-1.06-.04-2.19.04-3.36-.03-.07-.04-.15-.03-.24,0-.02,0-.03.01-.05.01-.04.03-.08.05-.12.75-8.78,5.33-19.22,12.27-27.98,1.26-1.59,2.6-3.13,3.97-4.57,12.87-13.5,28.01-20.69,39.62-18.85.07-.18.15-.36.22-.55.11-.27.22-.53.32-.8l.08-.19c-1.65-.89-3.41-1.58-5.24-2.08Z"/>
  </g>
  <g>
    <path class="cls-3" d="M160.79,112.03c-.2.48-.4.95-.59,1.42.2-.47.4-.94.59-1.42Z"/>
    <path d="M160.07,113.88s-.04-.01-.06-.02c-.23-.1-.33-.36-.24-.59l.15-.35c.15-.35.3-.71.44-1.06.09-.23.36-.34.58-.24.21.09.32.32.26.53,0,.02-.01.04-.02.05-.2.48-.4.96-.6,1.42-.09.21-.32.31-.53.26Z"/>
  </g>
  <g>
    <path class="cls-3" d="M160.71,114.37c-.08.16-.17.31-.25.47.08-.16.17-.31.25-.47Z"/>
    <path d="M160.34,115.28s-.07-.02-.1-.04c-.19-.1-.27-.31-.22-.51,0-.03.02-.07.04-.1l.25-.47c.12-.22.39-.3.61-.18.19.1.28.31.22.51,0,.03-.02.06-.04.09l-.25.47c-.1.19-.31.27-.51.22Z"/>
  </g>
  <g>
    <g>
      <path class="cls-3" d="M78.54,106.15s-.02.03-.03.05c0-.02.02-.03.03-.05Z"/>
      <path d="M78.4,106.62s-.07-.02-.1-.04c-.18-.1-.27-.31-.22-.5,0-.03.02-.07.04-.1l.03-.05c.12-.22.39-.29.61-.17.18.1.27.31.21.51,0,.03-.02.07-.04.1,0,0-.01.03-.01.03-.1.18-.32.27-.52.22Z"/>
    </g>
    <g>
      <path class="cls-3" d="M78.35,106.5s-.04.07-.06.11c.02-.04.04-.07.06-.11Z"/>
      <path d="M78.18,107.04s-.06-.02-.09-.03c-.19-.1-.28-.32-.23-.51,0-.03.02-.06.03-.09l.06-.11c.12-.22.39-.3.6-.19.19.1.28.31.22.51,0,.03-.02.06-.04.09l-.06.11c-.1.19-.31.28-.51.23Z"/>
    </g>
    <g>
      <path class="cls-3" d="M93,87.02c-2.43,5.71-4.02,10.63-4.27,12.71-.06,0-.11,0-.16,0-.1,0-.2,0-.3,0-.1,0-.2,0-.3.01-.4.02-.79.06-1.18.13-.1.02-.19.03-.29.05-.18.04-.36.07-.53.12-.09.02-.17.04-.26.07-.26.07-.51.15-.77.24-.08.03-.17.06-.25.09-.09.03-.18.07-.26.1-.17.04-.35.09-.53.14-.08.02-.17.05-.25.07-.09.02-.19.05-.28.08-.09.03-.19.06-.29.09-.35.1-.71.22-1.08.35-.15.05-.3.1-.45.16-.08.03-.15.05-.23.08-.08.03-.16.06-.23.09-.18.06-.36.14-.55.21-.14.05-.27.11-.41.16-.16.07-.33.13-.49.2-.12.05-.25.1-.37.16-.49.21-.99.44-1.5.69-.11.05-.22.11-.34.17-.25.12-.5.26-.75.39-.12.06-.24.13-.36.2-.7.39-1.4.82-2.1,1.3-.1.07-.2.14-.3.2-.07.05-.14.1-.21.15-.19.13-.37.27-.55.4,0,0-.01,0-.02.01-.07.05-.13.1-.2.15-.1.08-.21.16-.32.24-.1.08-.21.17-.31.25-.1.08-.21.17-.31.26-.31.26-.61.52-.91.8-.07.06-.13.13-.2.19-.09.08-.18.17-.26.25-.12.12-.24.24-.36.36,0,0-.02.02-.03.03-.13.13-.25.26-.37.39,0,0,0,0,0,0-.07.08-.15.16-.22.24-.1.11-.19.21-.29.33-.09.1-.18.21-.27.31,0,0,0,.01-.01.02.43-4.04,2.1-16.65,7.42-30.77l16.5,8.11h0Z"/>
      <path d="M68.97,110.12s-.06-.02-.09-.03c-.17-.08-.26-.26-.24-.45.38-3.62,2.05-16.55,7.45-30.88.04-.12.14-.21.25-.26.12-.05.25-.04.36.01l16.5,8.11c.19.09.29.31.23.52,0,.02-.01.04-.02.06-2.62,6.17-4.02,10.77-4.24,12.59-.03.23-.22.4-.45.39-.05,0-.1,0-.15,0-.11,0-.21,0-.3,0-.1,0-.2,0-.29.01-.38.02-.76.06-1.13.12l-.28.05c-.16.03-.33.07-.5.11-.08.02-.16.04-.25.06-.26.07-.5.15-.73.23-.08.03-.15.05-.22.08-.11.04-.19.07-.27.11-.02,0-.04.02-.06.02-.16.04-.33.09-.51.14l-.26.07c-.1.03-.19.05-.28.08-.09.03-.18.05-.27.08-.36.11-.71.22-1.08.35-.15.05-.3.1-.45.15l-.23.08c-.08.03-.15.05-.22.08-.15.05-.29.11-.44.16l-.52.2c-.16.06-.32.13-.48.2-.13.06-.25.1-.36.15-.5.22-1,.45-1.48.69-.11.05-.22.11-.33.17-.25.13-.5.26-.74.39-.12.06-.24.13-.36.2-.71.4-1.41.83-2.07,1.28-.08.05-.16.11-.23.16l-.06.04c-.07.05-.14.1-.2.14-.19.13-.37.27-.55.4l-.21.16c-.1.08-.21.16-.31.24l-.3.25c-.1.08-.2.16-.29.24-.31.26-.61.52-.9.8l-.2.19c-.09.08-.17.16-.25.24-.12.12-.24.24-.36.36,0,0-.03.04-.04.04-.11.11-.23.24-.35.37l-.32.35c-.06.07-.12.14-.18.21-.09.1-.17.19-.25.29,0,0-.01.01-.02.02-.02.02-.04.04-.06.06-.11.1-.27.14-.42.1ZM76.75,79.54c-4.68,12.57-6.47,23.99-7.06,28.79.08-.09.16-.17.24-.25.15-.15.27-.28.39-.4.09-.08.17-.17.27-.26l.2-.19c.31-.29.62-.56.92-.81.11-.1.21-.18.32-.26l.31-.25c.11-.09.22-.17.33-.25l.2-.16c.21-.15.39-.29.58-.42.07-.05.15-.11.23-.16l.05-.04c.08-.06.16-.11.25-.17.67-.46,1.39-.9,2.12-1.31.12-.07.25-.14.37-.21.25-.14.51-.27.76-.4.11-.06.23-.12.34-.17.49-.24,1-.48,1.52-.7.12-.05.24-.1.36-.15.18-.08.35-.14.51-.21l.53-.21c.15-.06.3-.11.44-.16.07-.03.16-.06.24-.09l.23-.08c.15-.05.3-.11.46-.16.38-.13.74-.24,1.09-.35.11-.03.2-.06.3-.09.09-.03.19-.06.28-.08l.25-.07c.19-.05.35-.09.51-.14.08-.03.16-.07.24-.1.11-.04.19-.07.27-.1.25-.09.51-.17.8-.25.09-.02.18-.05.27-.07.18-.05.37-.08.55-.12l.3-.05c.4-.07.81-.11,1.22-.13.1,0,.21-.01.32-.01.03,0,.06,0,.09,0,.4-2.37,1.99-7.08,4.09-12.05l-15.67-7.7ZM93,87.02h0s0,0,0,0Z"/>
    </g>
    <g>
      <path class="cls-3" d="M84.43,100.55c.09-.04.17-.07.26-.1-.08.03-.16.07-.25.1,0,0-.01,0-.02,0Z"/>
      <path d="M84.32,100.99c-.14-.04-.26-.14-.31-.28-.08-.22.03-.47.24-.56.09-.04.18-.07.27-.11.23-.09.49.02.58.25s-.02.49-.25.58l-.24.1s-.05.02-.07.02c-.08.02-.16.02-.23,0Z"/>
    </g>
    <g>
      <path class="cls-3" d="M84.94,100.36c.25-.09.51-.17.77-.24-.26.07-.52.15-.77.24Z"/>
      <path d="M84.82,100.79c-.14-.04-.25-.14-.3-.28-.08-.23.03-.49.27-.57.26-.09.52-.18.81-.25.24-.06.48.08.55.31.07.24-.08.48-.31.55-.26.07-.5.15-.73.23-.09.03-.18.03-.27.01Z"/>
    </g>
    <g>
      <path class="cls-3" d="M170.66,73.97l-2.09.53c-.29-14.4-4.96-25.69-13.35-29.32-18.14-7.85-37.83,8.7-47.69,18.06-4.47,4.24-8.81,11.57-12.2,18.63l.55-1.23-16.69-8.05c-.17.28-.35.62-.53,1,7.05-16.22,19.12-33.23,39.61-40.89,14.53-5.43,25.33-4.81,33.29-1.49-.16-.05-.24-.07-.24-.07,2.51,1.08,4.69,2.57,6.59,4.36,0,0,0,0,.01.01,3.42,3.38,5.93,7.57,7.77,11.95.01.03.02.06.04.09,4.17,10.25,4.83,21.87,4.93,26.41Z"/>
      <path d="M95.21,82.3s-.05-.02-.07-.03c-.22-.1-.32-.36-.22-.59l.37-.83-15.92-7.67c-.1.18-.2.39-.31.61-.11.22-.37.31-.59.21-.22-.1-.32-.36-.22-.59,9.04-20.78,22.45-34.62,39.86-41.13,13.01-4.86,24.32-5.36,33.62-1.48.06.02.11.06.15.1,2.3,1.04,4.43,2.48,6.34,4.28,0,0,.03.03.04.04,3.15,3.11,5.79,7.18,7.85,12.07l.04.09c4.2,10.33,4.87,22.02,4.96,26.57,0,.21-.14.39-.34.44l-2.09.53c-.13.03-.27,0-.38-.08-.11-.08-.17-.21-.18-.35-.29-14.69-5.18-25.5-13.08-28.92-12.89-5.57-28.77.47-47.21,17.97-3.82,3.63-8.12,10.2-12.1,18.5-.09.2-.32.29-.52.24ZM79.7,72.35l16.01,7.72c2.85-5.72,6.94-12.82,11.5-17.15,18.72-17.77,34.93-23.88,48.18-18.14,8.13,3.52,13.19,14.39,13.61,29.16l1.2-.31c-.12-4.73-.85-15.96-4.88-25.89l-.04-.09c-2.01-4.78-4.59-8.75-7.67-11.8,0,0-.03-.03-.04-.04-1.91-1.8-4.08-3.24-6.43-4.25-.05-.02-.09-.05-.12-.08-9.02-3.62-19.98-3.08-32.6,1.64-16.77,6.27-29.79,19.46-38.72,39.22Z"/>
    </g>
    <g>
      <path class="cls-3" d="M157.91,35.52c-1.9-1.79-4.09-3.29-6.59-4.36,0,0,.08.02.24.07h0c1,.42,1.94.87,2.85,1.37,1.26.88,2.43,1.86,3.5,2.93Z"/>
      <path d="M157.79,35.95c-.07-.02-.13-.05-.19-.11-1.94-1.83-4.11-3.27-6.46-4.28-.22-.09-.32-.34-.25-.56s.31-.35.54-.29c0,0,.09.02.25.08.01,0,.03.01.04.02.97.41,1.95.87,2.89,1.39.02,0,.03.02.04.03,1.25.88,2.45,1.88,3.56,2.97.17.17.18.45,0,.63-.12.12-.29.16-.44.12Z"/>
    </g>
    <g>
      <path class="cls-3" d="M167.55,96.66c-.09.36-.19.72-.29,1.08-1.13,4.05-2.62,8.36-4.6,12.68-.08.17-.15.33-.23.5,0,.01-.01.03-.02.04-.12.25-.24.5-.36.75-.11.24-.23.47-.34.71,0,.01-.01.03-.02.04-.11.22-.22.44-.33.66-.01.03-.03.06-.04.08,0,0,0,0,0,.01-.06.12-.13.25-.19.37-.06.12-.13.25-.19.37-.13.25-.26.5-.4.75-.11.21-.23.42-.35.64l-.06.11c-.12.21-.24.42-.36.63-.04.07-.08.14-.11.2-.08.13-.15.26-.23.39-.07.13-.15.26-.23.39-.12.2-.24.4-.36.59-.01.02-.03.05-.04.07-.13.21-.25.41-.38.61-.12.19-.24.37-.35.56-.12.19-.24.37-.36.56-.12.19-.24.37-.37.56-.12.19-.25.37-.37.56.32-.66.64-1.34.96-2.03.1-.22.2-.43.3-.65.11-.23.21-.46.32-.7.11-.24.21-.47.32-.71.21-.47.42-.95.64-1.44.18-.42.37-.85.56-1.29h0s.09-.21.09-.21c.01-.03.03-.06.04-.1.2-.47.4-.94.59-1.42.11-.28.23-.55.34-.83.11-.26.22-.53.32-.8.08-.19.15-.37.22-.56.14-.35.28-.71.42-1.07,3.36-8.67,5.38-17.4,6.14-25.51l1.88-.05h0c-.37,3.06-.98,6.91-1.99,11.17,0,.01,0,.03,0,.04-.03.12-.06.25-.09.38-.04.15-.07.31-.11.46h0c-.04.15-.07.3-.11.45-.04.16-.08.32-.12.47-.04.16-.08.32-.13.48Z"/>
      <path d="M156.84,121.02s-.07-.02-.11-.04c-.2-.12-.28-.37-.18-.58.32-.66.64-1.33.96-2.03l.94-2.06c.21-.47.42-.95.63-1.43.18-.42.37-.85.56-1.29,0-.01.01-.02.02-.03l.12-.28c.19-.45.39-.93.59-1.41.11-.28.23-.55.34-.83.11-.27.22-.53.32-.8l.64-1.62c3.22-8.29,5.33-17.08,6.11-25.39.02-.23.21-.4.43-.41l1.88-.05c.27,0,.5.24.46.5-.45,3.76-1.12,7.54-2,11.22h0s0,.04-.01.05c-.03.13-.06.25-.09.37-.04.15-.07.31-.11.46-.04.15-.07.3-.11.45l-.12.48c-.04.17-.08.33-.13.49-.09.36-.19.72-.29,1.08-1.25,4.5-2.81,8.79-4.63,12.75l-.23.5s-.01.03-.02.04c-.12.25-.24.5-.36.76-.11.23-.23.47-.34.71l-.03.06c-.1.2-.21.42-.32.64l-.02.05s-.02.03-.03.05h0s0,0,0,0h0s0,0,0,0l-.25.49c-.04.08-.08.16-.13.24-.14.26-.27.5-.4.75-.11.21-.22.41-.34.62l-.07.13c-.12.21-.24.43-.36.64-.03.06-.07.13-.12.2l-.23.4c-.07.13-.15.27-.23.4-.12.2-.24.4-.36.59l-.03.05c-.14.23-.27.43-.39.64l-.36.57c-.11.17-.22.34-.33.51l-.03.05c-.12.19-.25.38-.37.57-.12.18-.25.37-.37.56-.11.16-.31.23-.49.18ZM168.64,83.69c-.82,8.28-2.94,17-6.13,25.24l-.64,1.63c-.11.27-.22.54-.32.8-.11.28-.23.56-.34.83-.18.44-.36.88-.55,1.31l.26-.5s0-.02.01-.02l.03-.06c.11-.22.22-.44.33-.66l.03-.06c.1-.21.22-.45.33-.68.12-.25.24-.5.36-.75,0,0,0-.02.02-.04h0s.23-.5.23-.5c1.8-3.92,3.34-8.16,4.58-12.61.1-.36.2-.72.29-1.07h0c.04-.16.08-.32.12-.48l.12-.48c.04-.15.08-.3.11-.44.04-.16.08-.31.11-.46.03-.12.06-.23.08-.35,0,0,.01-.04.01-.05.83-3.5,1.47-7.07,1.92-10.63l-.97.03ZM162.43,110.92h0s0,0,0,0ZM167.99,96.78h0s0,0,0,0Z"/>
    </g>
    <g>
      <path class="cls-3" d="M160.09,113.69l-.03.07h0s.02-.05.03-.07Z"/>
      <path d="M159.94,114.19c-.13-.03-.23-.12-.29-.24s-.06-.26,0-.38c0-.01,0-.02.01-.03v-.03s.02,0,.02,0c.12-.19.36-.3.57-.21.23.1.35.32.25.55l-.03.07c-.09.21-.31.32-.53.26Z"/>
    </g>
    <g>
      <path class="cls-3" d="M160.79,112.03c-.2.48-.4.95-.59,1.42.2-.47.4-.94.59-1.42Z"/>
      <path d="M160.07,113.88s-.04-.01-.06-.02c-.23-.1-.33-.36-.24-.59l.15-.35c.15-.35.3-.71.44-1.06.09-.23.36-.34.58-.24.21.09.32.32.26.53,0,.02-.01.04-.02.05-.2.48-.4.96-.6,1.42-.09.21-.32.31-.53.26Z"/>
    </g>
    <g>
      <path class="cls-3" d="M168.13,94.38c1.01-4.27,1.62-8.11,1.99-11.17h0s-1.88.05-1.88.05c0-.03,0-.06,0-.09h0c.14-1.56.24-3.08.29-4.57,0-.01,0-.02,0-.03.05-1.38.06-2.73.03-4.06l2.09-.53c-.09-4.54-.76-16.16-4.93-26.41,4.37,10.46,4.94,22.02,4.99,26.39,0,0,0,.06,0,.17,0,.03,0,.06,0,.09,0,.06,0,.12,0,.18,0,0,0,.02,0,.02,0,.86-.01,1.34-.01,1.34,0,0,0,.45-.04,1.28,0,.06,0,.12,0,.18-.04.74-.1,1.75-.21,2.97,0,0,0,0,0,0-.07.81-.16,1.72-.28,2.71,0,0,0,.01,0,.02-.01.09-.02.19-.03.29-.03.22-.06.44-.08.67-.03.24-.06.49-.1.74-.02.12-.03.24-.05.36-.03.25-.07.51-.11.76-.02.12-.04.24-.06.37-.02.13-.04.26-.06.39-.02.13-.04.26-.06.39-.02.13-.04.26-.06.4-.02.13-.04.27-.07.4-.16.95-.34,1.93-.54,2.96-.04.2-.08.39-.12.59-.12.57-.24,1.15-.37,1.75-.1.42-.2.85-.3,1.29,0,.03-.02.07-.02.1Z"/>
      <path d="M168.01,94.81c-.23-.06-.37-.3-.32-.54.83-3.48,1.47-7.05,1.92-10.61l-1.37.04c-.13,0-.26-.05-.35-.15-.09-.1-.13-.23-.11-.36,0,0,0-.08,0-.09,0-.01,0-.02,0-.03.14-1.49.23-3.01.29-4.5,0,0,0-.04,0-.05.05-1.34.06-2.7.03-4.02,0-.21.14-.39.34-.44l1.74-.45c-.12-4.73-.85-15.96-4.88-25.89-.09-.23.02-.49.24-.58.23-.09.49.01.58.24,4.39,10.51,4.98,22.07,5.03,26.56v.44s0,.02,0,.03c0,.86-.01,1.33-.01,1.36,0,0,0,.45-.04,1.28v.18c-.06,1-.13,1.97-.21,2.99,0,.01,0,.02,0,.03-.08.88-.17,1.79-.28,2.7h0s0,.02,0,.03l-.12.95c-.03.25-.07.5-.1.75-.02.12-.03.24-.05.36-.03.25-.07.5-.11.76l-.06.37c-.02.12-.04.25-.06.38l-.13.8c-.03.15-.05.28-.07.41-.17.99-.35,1.99-.54,2.97-.04.2-.08.4-.12.6-.12.57-.24,1.16-.38,1.75-.1.43-.2.86-.3,1.29,0,.03-.02.07-.03.11-.06.24-.31.38-.54.32h0ZM169.03,74.85c.02,1.22,0,2.47-.04,3.73,0,0,0,.04,0,.05-.05,1.37-.14,2.78-.26,4.17l1.02-.03c.1-.89.19-1.76.27-2.61,0,0,0-.02,0-.03.09-1,.15-1.96.2-2.93,0-.06,0-.12,0-.19.04-.8.04-1.25.04-1.25,0-.02.02-.45.01-1.23l-1.25.32Z"/>
    </g>
    <g>
      <path class="cls-3" d="M83.14,101.21s.02,0,.02-.01c0,0-.02,0-.02.01Z"/>
      <path d="M83.03,101.62c-.11-.03-.2-.1-.26-.2-.07-.11-.08-.24-.05-.35.03-.1.09-.19.19-.25,0,0,.01,0,.02,0,.21-.12.49-.06.62.16.06.11.08.23.05.35-.03.11-.1.2-.2.26-.11.07-.24.08-.36.05Z"/>
    </g>
    <g>
      <path class="cls-3" d="M81.96,102.02s0,0,0,0c0,0,0,0,0,0Z"/>
      <path d="M81.84,102.45c-.08-.02-.16-.07-.22-.14-.1-.12-.13-.27-.1-.41.02-.08.07-.16.14-.22.19-.16.47-.15.63.04.1.12.13.27.1.41-.02.08-.07.16-.14.22h0c-.12.11-.27.14-.41.1Z"/>
    </g>
    <g>
      <path class="cls-3" d="M80.61,103.27s-.02.02-.03.03c0,0,.02-.02.03-.03Z"/>
      <path d="M80.46,103.73c-.07-.02-.13-.05-.19-.1-.13-.12-.17-.29-.13-.45.02-.07.05-.13.1-.19,0,0,.03-.03.03-.03.17-.18.45-.19.63-.02.12.12.17.29.12.44-.02.07-.05.14-.11.19l-.32-.31.3.33c-.12.13-.29.17-.45.13Z"/>
    </g>
  </g>
  <g>
    <path class="cls-3" d="M155,162.62c-4.75,4.44-10.87,5.62-13.66,2.63-2.79-2.99-1.21-9.01,3.54-13.45,4.75-4.44,10.87-5.62,13.66-2.63,2.79,2.99,1.21,9.01-3.54,13.45Z"/>
    <path d="M143.65,167.11c-1.04-.28-1.93-.8-2.63-1.55-1.46-1.56-1.87-3.91-1.16-6.6.69-2.62,2.37-5.28,4.73-7.49,2.36-2.21,5.12-3.7,7.79-4.22,2.74-.53,5.05.04,6.51,1.6,1.46,1.56,1.87,3.91,1.16,6.6-.69,2.62-2.37,5.28-4.73,7.49h0c-2.36,2.21-5.12,3.7-7.79,4.22-1.43.28-2.74.25-3.88-.05ZM156,148.17c-1-.27-2.18-.29-3.47-.04-2.5.48-5.11,1.9-7.34,3.99-2.24,2.09-3.83,4.6-4.47,7.06-.63,2.39-.29,4.43.95,5.76,1.24,1.33,3.26,1.8,5.68,1.33,2.5-.48,5.11-1.9,7.34-3.99h0c2.24-2.09,3.83-4.6,4.47-7.06.63-2.39.29-4.43-.95-5.76-.58-.62-1.33-1.06-2.22-1.3Z"/>
  </g>
  <g>
    <path class="cls-3" d="M155,162.62c-4.75,4.44-10.87,5.62-13.66,2.63-2.79-2.99-1.21-9.01,3.54-13.45,4.75-4.44,10.87-5.62,13.66-2.63,2.79,2.99,1.21,9.01-3.54,13.45Z"/>
    <path d="M143.65,167.11c-1.04-.28-1.93-.8-2.63-1.55-1.46-1.56-1.87-3.91-1.16-6.6.69-2.62,2.37-5.28,4.73-7.49,2.36-2.21,5.12-3.7,7.79-4.22,2.74-.53,5.05.04,6.51,1.6,1.46,1.56,1.87,3.91,1.16,6.6-.69,2.62-2.37,5.28-4.73,7.49h0c-2.36,2.21-5.12,3.7-7.79,4.22-1.43.28-2.74.25-3.88-.05ZM156,148.17c-1-.27-2.18-.29-3.47-.04-2.5.48-5.11,1.9-7.34,3.99-2.24,2.09-3.83,4.6-4.47,7.06-.63,2.39-.29,4.43.95,5.76,1.24,1.33,3.26,1.8,5.68,1.33,2.5-.48,5.11-1.9,7.34-3.99h0c2.24-2.09,3.83-4.6,4.47-7.06.63-2.39.29-4.43-.95-5.76-.58-.62-1.33-1.06-2.22-1.3Z"/>
  </g>
  <g>
    <path class="cls-3" d="M160.76,112.08l-.61,1.47-.06.14s-.02.05-.03.07c-9.6-.45-23.4,5.78-35.3,17.07-2.61,2.48-4.95,5.13-7,7.86-6.11,8.11-9.7,16.95-10.53,24.34-.1.88-.16,1.74-.18,2.58-.07,2.86.32,5.42,1.19,7.56-.07-.08-.14-.15-.22-.23h0s-2.08-2.51-2.08-2.51h0c-.19-.26-.38-.53-.57-.8h0c-.17-.83-.28-1.71-.34-2.63-.08-1.19-.06-2.45.04-3.77h0c.65-8.21,4.81-18.62,12.19-27.94,1.23-1.55,2.54-3.07,3.95-4.54,13.8-14.47,28.79-20.55,39.57-18.66Z"/>
    <path d="M108.11,173.59c-.08-.02-.15-.06-.21-.13-.07-.08-.14-.15-.21-.22,0,0-.03-.03-.03-.04l-2.08-2.5s-.02-.02-.03-.04c-.19-.25-.37-.51-.56-.77-.04-.05-.07-.12-.09-.19-.17-.86-.29-1.76-.35-2.69-.08-1.2-.06-2.49.04-3.84,0,0,0-.01,0-.02.71-8.82,5.3-19.35,12.29-28.17,1.26-1.59,2.6-3.13,3.97-4.57,13-13.63,28.31-20.83,39.97-18.79.13.02.25.11.32.23.07.12.07.26.02.39l-.69,1.67c-.08.17-.26.3-.44.29-9.91-.47-23.64,6.19-34.97,16.95-2.52,2.39-4.86,5.02-6.95,7.8-5.77,7.67-9.58,16.46-10.45,24.12-.1.87-.16,1.73-.18,2.54-.07,2.84.32,5.32,1.15,7.38.08.2,0,.43-.17.55-.11.07-.24.09-.36.05ZM106.28,170.15l.84,1.01c-.4-1.67-.58-3.53-.53-5.57.02-.83.08-1.72.18-2.62.89-7.82,4.76-16.77,10.62-24.56,2.12-2.82,4.5-5.48,7.05-7.91,11.39-10.81,25.2-17.53,35.32-17.21l.36-.87c-11.3-1.67-26.03,5.42-38.62,18.62-1.36,1.43-2.68,2.94-3.92,4.51-6.89,8.69-11.41,19.04-12.1,27.69,0,0,0,.01,0,.02-.1,1.3-.12,2.54-.04,3.69.05.85.16,1.68.31,2.47.17.24.34.48.51.71,0,0,0,0,0,0ZM160.06,113.68h0s.03.01.03.01h-.03Z"/>
  </g>
  <g>
    <path class="cls-3" d="M105.92,170.41l-.55-.66s-.02-.09-.03-.14c.19.27.38.54.57.79Z"/>
    <path d="M105.8,170.84c-.09-.02-.17-.07-.23-.15l-.55-.66c-.05-.05-.08-.12-.09-.19-.01-.05-.02-.09-.03-.14-.04-.21.07-.42.27-.5s.42-.02.54.15c.19.27.37.53.56.78.15.19.11.47-.08.62-.12.09-.26.12-.4.08Z"/>
  </g>
  <g>
    <path class="cls-3" d="M108.25,173.22l-.24-.29c.07.08.14.15.22.23h0s.01.04.02.06Z"/>
    <path d="M108.12,173.64c-.08-.02-.16-.07-.21-.14l-.24-.29c-.15-.18-.13-.46.04-.62.18-.16.45-.15.62.02.07.07.14.15.21.22.05.05.09.11.11.18.09.2.02.45-.17.57-.11.07-.24.09-.36.05Z"/>
  </g>
  <g>
    <path class="cls-3" d="M160.09,113.69l-.03.07h0s.02-.05.03-.07Z"/>
    <path d="M159.94,114.19c-.13-.03-.23-.12-.29-.24s-.06-.26,0-.38c0-.01,0-.02.01-.03v-.03s.02,0,.02,0c.12-.19.36-.3.57-.21.23.1.35.32.25.55l-.03.07c-.09.21-.31.32-.53.26Z"/>
  </g>
  <g>
    <path class="cls-3" d="M78.51,161.49c-5.65-1.85-12.01-9.81-15.94-19.78-1.26-3.19-1.82-6.48-1.87-9.63-.8,2.62-1.53,8.3,2.76,17.2,0,0,5.54,10.44,14.61,13.77,0,0,1.08.41,2.55.76l-2.11-2.32Z"/>
    <path d="M79.75,164.06c-1.07-.29-1.81-.57-1.84-.58-9.12-3.35-14.62-13.55-14.85-13.98-4.34-9-3.61-14.85-2.79-17.54.06-.21.27-.34.49-.31.22.03.38.22.39.44.06,3.33.68,6.52,1.84,9.47,3.89,9.88,10.19,17.72,15.66,19.52.07.02.14.07.19.12l2.11,2.32c.13.15.15.36.05.53-.1.17-.3.25-.49.21-.27-.06-.53-.13-.77-.19ZM60.56,135.84c-.12,3.06.52,7.47,3.31,13.25.05.09,5.56,10.31,14.36,13.54,0,0,.41.15,1.04.35l-1-1.1c-5.69-1.94-12.15-9.96-16.1-20-.76-1.92-1.29-3.94-1.6-6.04Z"/>
  </g>
  <g>
    <path class="cls-3" d="M69.45,146.65c-6.26-13.49-6.65-23.13-4.29-30.01-3.76,4.57-6.43,15.32-2.59,25.07,3.93,9.97,10.29,17.92,15.94,19.78-3.03-3.57-6.08-8.4-9.06-14.84Z"/>
    <path d="M78.4,161.92s-.02,0-.02,0c-5.72-1.88-12.23-9.93-16.22-20.04-4.09-10.39-.91-21.18,2.66-25.52.14-.17.38-.21.56-.11.19.11.28.33.21.54-2.68,7.81-1.24,17.8,4.27,29.68h0c2.81,6.06,5.84,11.02,9,14.74.13.15.14.37.03.54-.11.16-.3.23-.49.18ZM64,119.13c-3.95,6.98-3.1,17.13-1.01,22.42,3.51,8.91,8.98,16.16,14.03,18.82-2.79-3.59-5.47-8.13-7.98-13.53h0c-5.02-10.81-6.71-20.12-5.04-27.71Z"/>
  </g>
  <g>
    <path class="cls-3" d="M95.88,80.64l-.55,1.23-.02.04c-.83,1.74-1.61,3.46-2.31,5.12l-16.5-8.11c.66-1.75,1.38-3.53,2.15-5.32h0c.19-.38.37-.73.53-1l16.69,8.05Z"/>
    <path d="M92.88,87.45s-.05-.02-.08-.03l-16.5-8.11c-.21-.1-.3-.34-.22-.56.67-1.79,1.4-3.59,2.16-5.33,0-.01,0-.02.01-.03.2-.41.38-.75.55-1.04.12-.2.37-.27.58-.17l16.69,8.05c.22.11.31.36.21.59l-.55,1.23s-.02.04-.02.05c-.77,1.61-1.55,3.33-2.31,5.1-.05.11-.14.2-.26.24-.09.03-.18.04-.27.01ZM77.07,78.69l15.71,7.72c.7-1.63,1.42-3.21,2.14-4.7l.38-.86-15.92-7.67c-.1.18-.2.38-.31.6h0c-.7,1.61-1.37,3.26-2,4.92Z"/>
  </g>
  <g>
    <path class="cls-3" d="M76.46,78.9s1.19-3.23,2.19-5.3c-.78,1.79-1.49,3.56-2.15,5.32l-.04-.02Z"/>
    <path d="M76.39,79.35s-.05-.02-.07-.03c-.21-.1-.35-.36-.27-.58.05-.13,1.21-3.27,2.21-5.34.11-.22.37-.31.59-.21.22.1.32.36.22.59-.75,1.73-1.47,3.51-2.15,5.3-.04.12-.14.21-.25.26-.09.04-.19.04-.29.02Z"/>
  </g>
  <g>
    <path class="cls-3" d="M95.32,81.91l-2.28,5.13-.03-.02h0c.71-1.66,1.48-3.38,2.31-5.12Z"/>
    <path d="M92.92,87.47s-.05-.02-.07-.03c-.2-.09-.33-.33-.28-.54,0-.02.01-.04.02-.06.76-1.78,1.54-3.51,2.32-5.13.11-.22.37-.31.59-.21.22.1.32.36.22.59l-2.28,5.13c-.05.11-.14.19-.25.24-.09.03-.18.04-.27.01Z"/>
  </g>
  <g>
    <path class="cls-3" d="M170.14,83.22s-.02,0-.02,0h0s.03-.24.08-.64c0-.03,0-.05,0-.08,0-.05.01-.11.02-.16.07-.54.15-1.3.24-2.13,0,0,0,0,0,0,.05-.45.1-.92.14-1.4-.08,1.56-.21,3.13-.42,4.11,0,0,0,.01,0,.02-.01.09-.02.19-.03.29Z"/>
    <path d="M170.03,83.65s-.04-.01-.05-.02c-.19-.07-.33-.27-.31-.48l.08-.64h.06s0-.05.01-.07h-.06s.02-.17.02-.17c.07-.54.15-1.29.24-2.12,0,0,0-.02,0-.03.05-.44.1-.9.14-1.37.02-.24.23-.42.48-.41.25.02.43.23.42.47-.09,1.89-.24,3.29-.43,4.17l-.03.28c-.02.13-.09.24-.19.32-.11.07-.24.09-.37.06Z"/>
  </g>
  <g>
    <path class="cls-3" d="M185.8,91.68s-.01,0-.03-.02c.39-3.34.57-6.51.56-9.51.05.04.09.07.14.11,0,0-.38,7.42-.66,9.42Z"/>
    <path d="M185.68,92.11s-.09-.03-.13-.06l.24-.38-.27.36c-.15-.09-.23-.26-.21-.43.38-3.23.56-6.41.56-9.46,0-.17.1-.33.25-.4.15-.08.34-.06.47.04.05.04.1.08.15.12.11.09.17.23.16.37-.02.3-.38,7.47-.67,9.46-.02.15-.12.28-.26.34-.1.04-.2.05-.3.02Z"/>
  </g>
  <g>
    <path class="cls-3" d="M170.13,83.15v.05s-1.89.05-1.89.05h-.02s.02-.06.03-.09h0c.2-.72.27-2.69.29-4.57,0-.01,0-.02,0-.03.02-2.08-.01-4.05-.01-4.05h.04s2.09-.54,2.09-.54l.07-.02s0,.06,0,.17c0,.03,0,.06,0,.09,0,.06,0,.12,0,.18,0,0,0,.02,0,.02,0,.54-.02,1.51-.05,2.62,0,.06,0,.12,0,.18-.02.49-.04,1.02-.06,1.54,0,.01,0,.02,0,.04-.08,1.56-.21,3.13-.42,4.11,0,0,0,.01,0,.02-.02.08-.03.15-.05.21,0,0,0,0,0,0Z"/>
    <path d="M168.11,83.69c-.1-.03-.19-.08-.25-.17-.09-.12-.12-.27-.07-.41l.02-.06c.09-.33.24-1.33.28-4.46,0,0,0-.05,0-.06.02-2.03-.01-3.99-.01-4.01,0-.21.14-.39.34-.44h.04s2.15-.56,2.15-.56c.13-.04.28,0,.39.08.11.09.17.22.17.36v.44s0,.02,0,.03c0,0,0,0,0,0,0,.54-.02,1.51-.05,2.63v.18c-.02.5-.04,1.02-.07,1.55,0,0,0,.05,0,.06-.09,1.87-.24,3.27-.43,4.15,0,.02,0,.04-.01.05-.01.05-.03.12-.04.18,0,.01,0,.03,0,.04v.05c-.07.19-.24.33-.43.33l-1.88.05s-.09,0-.13-.02ZM168.98,74.87c0,.66.03,2.16,0,3.71,0,0,0,.05,0,.06-.02,1.96-.09,3.36-.21,4.17l.98-.03c.17-.83.31-2.21.4-3.99,0,0,0-.05,0-.06.02-.5.04-1.02.06-1.51,0-.07,0-.13,0-.19.03-1.02.04-1.92.05-2.48l-1.3.33ZM170.13,83.15h0Z"/>
  </g>
  <path class="cls-1" d="M165.23,143.25c-5.04-5.39-16.01-3.33-24.49,4.61-8.49,7.94-11.28,18.74-6.24,24.13,5.04,5.39,16.01,3.33,24.49-4.61,8.49-7.94,11.28-18.74,6.24-24.13ZM155,162.62c-4.75,4.44-10.87,5.62-13.66,2.63-2.79-2.99-1.21-9.01,3.54-13.45,4.75-4.44,10.87-5.62,13.66-2.63,2.79,2.99,1.21,9.01-3.54,13.45Z"/>
  <g>
    <path class="cls-3" d="M155,162.62c-4.75,4.44-10.87,5.62-13.66,2.63-2.79-2.99-1.21-9.01,3.54-13.45,4.75-4.44,10.87-5.62,13.66-2.63,2.79,2.99,1.21,9.01-3.54,13.45Z"/>
    <path d="M143.65,167.11c-1.04-.28-1.93-.8-2.63-1.55-1.46-1.56-1.87-3.91-1.16-6.6.69-2.62,2.37-5.28,4.73-7.49,2.36-2.21,5.12-3.7,7.79-4.22,2.74-.53,5.05.04,6.51,1.6,1.46,1.56,1.87,3.91,1.16,6.6-.69,2.62-2.37,5.28-4.73,7.49h0c-2.36,2.21-5.12,3.7-7.79,4.22-1.43.28-2.74.25-3.88-.05ZM156,148.17c-1-.27-2.18-.29-3.47-.04-2.5.48-5.11,1.9-7.34,3.99-2.24,2.09-3.83,4.6-4.47,7.06-.63,2.39-.29,4.43.95,5.76,1.24,1.33,3.26,1.8,5.68,1.33,2.5-.48,5.11-1.9,7.34-3.99h0c2.24-2.09,3.83-4.6,4.47-7.06.63-2.39.29-4.43-.95-5.76-.58-.62-1.33-1.06-2.22-1.3Z"/>
  </g>
  <g>
    <path class="cls-3" d="M130.98,175.89c-.09-.02-.26-.05-.5-.1.15.09.3.19.46.28l1.2.44c-.39-.19-.77-.4-1.16-.62ZM135.26,177.67l1.13.42c.13-.03.25-.06.38-.09-.51-.08-1.01-.19-1.51-.32ZM168.15,94.28c.1-.43.2-.87.3-1.29.13-.59.26-1.17.37-1.75.04-.2.08-.4.12-.59.2-1.02.38-2.01.54-2.96.02-.14.05-.27.07-.4.02-.13.04-.26.06-.4.02-.13.04-.26.06-.39.02-.13.04-.26.06-.39.02-.12.04-.25.06-.37.04-.26.07-.51.11-.76.02-.12.03-.24.05-.36.03-.25.07-.5.1-.74.03-.23.06-.45.08-.67.01-.1.02-.19.03-.29,0,0,0-.01,0-.02.21-.98.34-2.56.42-4.11,0-.01,0-.02,0-.04.03-.52.05-1.04.06-1.54,0-.06,0-.12,0-.18.04-.83.04-1.28.04-1.28,0,0,.02-.48.01-1.34,0,0,0-.02,0-.02,0-.06,0-.12,0-.18,0-.03,0-.06,0-.09,0-.11,0-.17,0-.17-.05-4.37-.62-15.92-4.99-26.39,4.17,10.25,4.83,21.87,4.93,26.41.03,1.25,0,1.96,0,1.96,0,0-.01,2.43-.45,6.39,0,.05-.01.11-.02.16,0,.03,0,.05,0,.08-.02.19-.04.38-.07.58,0,0,0,0,0,0,0,.02,0,.04,0,.06-.37,3.06-.98,6.9-1.99,11.17,0-.03.02-.07.02-.1ZM154.41,32.59c-.91-.49-1.86-.95-2.85-1.37h0c-.16-.05-.24-.07-.24-.07,2.51,1.08,4.69,2.57,6.59,4.36-1.07-1.06-2.24-2.04-3.5-2.93Z"/>
    <path d="M136.27,178.51s-.03,0-.04-.01l-1.13-.42c-.22-.08-.34-.33-.27-.55s.31-.36.54-.3c.48.13.98.23,1.47.31.21.04.37.21.37.42,0,.21-.13.4-.34.45l-.14.03c-.08.02-.17.04-.25.06-.07.02-.15.02-.22,0ZM132.02,176.94s-.03,0-.04-.01l-1.2-.44s-.05-.02-.07-.03c-.16-.09-.31-.19-.47-.28-.19-.12-.26-.35-.18-.55.08-.2.3-.31.51-.27.23.05.39.08.48.1.05,0,.1.03.15.05.37.22.75.42,1.13.6.21.1.31.36.22.58-.09.21-.32.31-.53.26ZM168.01,94.81c-.23-.06-.37-.3-.32-.54.87-3.65,1.53-7.39,1.98-11.12,0,0,0-.03,0-.05,0,0,0-.01,0-.02.02-.19.04-.38.06-.57,0,0,0-.05,0-.05l.02-.2c.43-3.88.44-6.31.44-6.34,0-.02.02-.73,0-1.95-.09-4.5-.75-16.06-4.89-26.25-.09-.23.02-.49.24-.58.23-.09.49.01.58.24,4.39,10.51,4.98,22.07,5.03,26.56v.44s0,.02,0,.03c0,.86-.01,1.33-.01,1.36h0s0,.45-.04,1.28v.18c-.02.5-.04,1.02-.07,1.55,0,0,0,.05,0,.06-.09,1.86-.24,3.27-.43,4.15l-.12.95c-.03.25-.07.5-.1.75-.02.12-.03.24-.05.36-.03.25-.07.5-.11.76l-.06.37c-.02.12-.04.25-.06.38l-.13.8c-.03.15-.05.28-.07.41-.17.99-.35,1.99-.54,2.97-.04.2-.08.4-.12.6-.12.57-.24,1.16-.38,1.75-.1.42-.2.86-.3,1.29,0,.04-.02.08-.03.12-.06.24-.31.38-.54.32h0ZM157.79,35.95c-.07-.02-.13-.05-.19-.11-1.94-1.83-4.11-3.27-6.46-4.28-.22-.09-.32-.34-.25-.56s.31-.35.54-.29c0,0,.09.02.25.08.01,0,.03.01.04.02.97.41,1.95.87,2.89,1.39.02,0,.03.02.04.03,1.25.88,2.45,1.88,3.56,2.97.17.17.18.45,0,.63-.12.12-.29.16-.44.12Z"/>
  </g>
  <g>
    <path class="cls-3" d="M170.74,74.03c.2.49.06,2.64-.14,4.73.03-.52.05-1.04.06-1.54,0-.06,0-.12,0-.18.04-.83.04-1.28.04-1.28,0,0,.02-.48.01-1.34,0,0,0-.02,0-.02,0-.06,0-.12,0-.18,0-.03,0-.06,0-.09,0-.11,0-.17,0-.17-.05-4.37-.62-15.92-4.99-26.39-.01-.03-.02-.06-.04-.09-1.84-4.49-4.34-8.7-7.77-11.95,0,0,0,0-.01-.01-1.07-1.06-2.24-2.04-3.5-2.93-.91-.49-1.86-.95-2.85-1.37,3.08.95,34.69,11.63,34.77,50.92-4.03-3.23-15.59-8.12-15.59-8.12Z"/>
    <path d="M170.49,79.19c-.2-.05-.34-.24-.33-.45.03-.52.05-1.04.06-1.53,0-.07,0-.13,0-.19.04-.8.04-1.25.04-1.25,0-.02.02-.5.01-1.33h0s0-.02,0-.03v-.44c-.05-4.43-.63-15.85-4.96-26.21l-.04-.1c-2.01-4.91-4.59-8.88-7.66-11.79,0,0-.03-.03-.04-.04-1.04-1.03-2.19-1.99-3.4-2.84-.91-.49-1.85-.94-2.79-1.33-.22-.09-.33-.34-.25-.57.08-.22.33-.36.55-.28,3.58,1.1,35.01,11.91,35.09,51.35,0,.17-.1.33-.25.4-.16.07-.34.05-.47-.05-3.36-2.7-12.19-6.63-14.77-7.75.02.67-.02,1.87-.23,4.06-.02.24-.24.42-.48.4-.03,0-.06,0-.08-.01ZM171.17,73.72c1.66.71,10.53,4.57,14.7,7.52-.44-30.14-19.59-42.97-29.28-47.54.56.47,1.11.97,1.63,1.49,0,0,.03.03.03.03,3.14,2.97,5.79,7.04,7.85,12.08l.04.09c4.32,10.33,4.96,21.68,5.02,26.32Z"/>
  </g>
  <g>
    <path class="cls-3" d="M185.77,91.66c-.61-.42-9.62-6.45-15.63-8.44.01-.1.02-.19.03-.29,0,0,0-.01,0-.02.21-.98.34-2.56.42-4.11,0-.01,0-.02,0-.04.2-2.09.34-4.24.14-4.73,0,0,11.55,4.89,15.59,8.12,0,3-.17,6.17-.56,9.51Z"/>
    <path d="M185.65,92.09s-.09-.03-.13-.06c-.09-.06-9.45-6.37-15.52-8.39-.2-.07-.33-.27-.3-.48l.03-.29s0-.02,0-.03c0-.01,0-.02,0-.04.18-.82.32-2.22.41-4.04,0,0,0-.05,0-.06.36-3.81.21-4.43.17-4.52-.07-.17-.03-.36.1-.49.13-.13.32-.17.49-.09.47.2,11.66,4.95,15.69,8.18.11.08.17.21.17.35,0,3.09-.18,6.3-.56,9.56-.02.16-.12.29-.26.36-.1.04-.2.05-.3.03ZM170.64,82.91c5.32,1.87,12.61,6.54,14.77,7.97.31-2.9.47-5.76.48-8.51-3.48-2.69-12.06-6.51-14.6-7.62.02.67-.02,1.87-.23,4.06-.09,1.85-.23,3.22-.41,4.11Z"/>
  </g>
  <path class="cls-2" d="M185.77,91.66c-.61-.42-9.62-6.45-15.63-8.44-.03.22-.06.44-.08.67-.03.24-.06.49-.1.74-.02.12-.03.24-.05.36-.03.25-.07.51-.11.76-.02.12-.04.24-.06.37-.02.13-.04.26-.06.39-.02.13-.04.26-.06.39-.02.13-.04.26-.06.4-.02.13-.04.27-.07.4-.16.95-.34,1.93-.54,2.96-.04.2-.08.39-.12.59-.12.57-.24,1.15-.37,1.75-.09.43-.19.86-.3,1.29,0,.03-.02.07-.02.1,0,.01,0,.03,0,.04-.03.12-.06.25-.09.38-.04.15-.07.31-.11.46h0c-.07.31-.15.62-.23.93-.04.16-.08.32-.13.48-.09.36-.19.72-.29,1.08-1.13,4.05-2.62,8.36-4.6,12.68h0c-.08.17-.15.33-.23.5,0,.01-.01.03-.02.04-.12.25-.24.5-.36.75-.11.24-.23.47-.34.71,0,.01-.01.03-.02.04-.11.22-.22.44-.33.66-.01.03-.03.06-.04.08,0,0,0,0,0,.01-.06.12-.13.25-.19.37-.06.12-.13.25-.19.37-.13.25-.26.5-.4.75-.11.21-.23.42-.35.64l-.06.11c-.12.21-.24.42-.36.63-.04.07-.08.14-.11.2-.08.13-.15.26-.23.39-.07.13-.15.26-.23.39-.12.2-.24.4-.36.59-.01.02-.03.05-.04.07-.13.21-.25.41-.38.61-.12.19-.24.37-.35.56-.12.19-.24.37-.36.56-.12.19-.24.37-.37.56-.12.19-.25.37-.37.56-.91,1.34-1.89,2.66-2.93,3.95l.03-.06s-8.18,2.5-13.27,4.5c-5.08,2-23.84,13.79-23.03,30.44.63,12.8,10.23,15.82,12.71,16.38h0c.24.05.41.09.5.1.38.22.77.43,1.16.62l3.12,1.16h0c.5.13,1,.24,1.51.32-.13.03-.25.07-.38.09l.35.13c23.41.75,33.06-22.36,34.06-30.54,1.91-15.76,9.65-33.02,9.65-33.02,2.83-8.46,4.52-16.1,5.33-22.99ZM158.99,167.38c-8.49,7.94-19.45,10-24.49,4.61-5.04-5.39-2.25-16.2,6.24-24.13,8.49-7.94,19.45-10,24.49-4.61,5.04,5.39,2.25,16.2-6.24,24.13Z"/>
</svg>