<?xml version="1.0" encoding="UTF-8"?>
<svg id="Layer_1" data-name="Layer 1" xmlns="http://www.w3.org/2000/svg" viewBox="0 0 251 205">
  <defs>
    <style>
      .cls-1 {
        fill: #fff;
      }

      .cls-1, .cls-2, .cls-3, .cls-4, .cls-5 {
        stroke: #000;
        stroke-miterlimit: 10;
      }

      .cls-2 {
        opacity: .44;
      }

      .cls-2, .cls-3, .cls-4 {
        fill: none;
      }

      .cls-4 {
        opacity: .45;
      }

      .cls-5 {
        fill: #90908f;
      }
    </style>
  </defs>
  <path class="cls-1" d="M192.74,167.45c-.72-7.28-.16-8.61-.53-14.85-.41-6.83-1.55-12.97-9.03-43.08-3.57-14.38-3.67-14.44-4.23-17.47-2.28-12.47-1.39-16.13-4.09-26.2-2.27-8.47-3.43-12.81-7.31-17.37-6.94-8.16-14.97-11.68-14.97-11.68-3.19-1.4-5.56-1.87-6.94-4.3-2.16-3.78,1.28-6.68-.16-10.5-2.33-6.2-15.06-8.23-22.55-7.27-2.64.34-5.19,1.12-11.36,1.78-3.32.35-3.63.24-4.39.72-3.73,2.36-.97,8.15-5.03,14.53-1.43,2.25-3.1,3.62-5.38,5.49-4.16,3.41-6.03,3.35-9.3,6.46-2.33,2.22-3.57,4.33-4.96,6.71-3.03,5.18-4.27,9.77-4.7,11.41-6.86,26.2-13.33,59.6-13.33,59.6-1.45,7.47-2.53,15.01-4.18,22.43-.92,4.16-1.55,12.11-2.81,28.03-.12,1.53-.34,4.93,1.79,7.06.74.74,1.46,1.03,2.82,1.55,4.67,1.8,6.17.29,12.86,1.26.96.14,1.77.29,2.47-.18,1.98-1.33.9-5.99,1.21-6.03.12-.01.48.66.97,3.79.87,5.65.4,8.04,1.78,8.77.75.4,1.24-.12,3.03-.34,2.87-.35,5.05.55,6.34.97,2.65.86,7.31,1.12,16.63,1.65,14.5.83,15.87-4.32,29.79-3.32,16.03,1.15,24.49,1.75,29.68,3.05.73.18,2.33.61,3.54-.21,2.54-1.72.54-7,3.15-8.79.99-.68,2.12-.49,3.3-.37,3.82.4,13,.61,15.91-2.81,1.47-1.73.66-3.6-.02-10.51ZM144.4,31.95c.11,1.15-.62,2.46.03,3.81.52,1.06,1.49,1.66,2.23,2-.73-.34-1.71-.93-2.23-2-.65-1.35.08-2.66-.03-3.81-.29-3.02-1.17-5.45-1.96-7.15.79,1.69,1.67,4.13,1.96,7.15ZM143,41.67c-.39-1.75-.74-3.63-1.02-5.62-.52-3.65-.72-7.03-.74-10.06.02,3.03.22,6.41.74,10.06.28,1.99.63,3.86,1.02,5.62ZM114.34,18.3c3.42-1.94,6.93-1.88,13.21-1.17,12.89,1.46,13.72,3,13.96,3.68.6,1.74-.62,3.83-1.68,4.89-.85.85-2.21,1.66-9.08,1.92-3.71.14-5.57.21-7.01,0-5.66-.83-12.15-4.11-11.91-6.81.1-1.13,1.34-1.85,2.5-2.51ZM139.38,46.29c-.41-.75-1.01-1.96-1.46-3.53-.83-2.86-.58-4.79-.78-8.61-.07-1.38-.22-3.42-.58-5.91.36,2.49.51,4.53.58,5.91.2,3.82-.05,5.75.78,8.61.46,1.57,1.05,2.77,1.46,3.53ZM131.9,28.28c-.11,7.13-.23,14.26-.34,21.39.11-7.13.23-14.26.34-21.39ZM126.99,31.39c-.59,6.85-1.18,13.7-1.77,20.54.59-6.85,1.18-13.7,1.77-20.54ZM122.52,28.64c-.36,3.36-1,9.18-1.37,12.53-.25,2.29-.84,7.7-1.1,9.99.25-2.29.85-7.7,1.1-9.99.37-3.36,1-9.18,1.37-12.53ZM118.2,27.45c-.33,4.33-1.03,9.27-2.36,14.61-.67,2.71-1.44,5.23-2.24,7.56.8-2.32,1.57-4.85,2.24-7.56,1.33-5.34,2.02-10.28,2.36-14.61ZM112.19,34.41c.75-3.2,1.22-6.19,1.53-8.91-.3,2.72-.78,5.71-1.53,8.91-1.12,4.82-2.59,9-4.07,12.48,1.48-3.48,2.94-7.66,4.07-12.48ZM108.2,34.2c1.75-4.84,2.24-9.15,2.34-12.19-.1,3.04-.59,7.35-2.34,12.19-1.36,3.75-3.07,6.72-4.56,8.89,1.48-2.17,3.2-5.14,4.56-8.89ZM121.75,52.97c-10.64-.66-18.39-8.18-19.22-9.01-2.11-2.1-3.53-4.15-4.44-5.64.91,1.49,2.34,3.54,4.44,5.64.83.83,8.58,8.35,19.22,9.01,10.62.66,21.28-5.69,27.42-16.1-6.13,10.41-16.79,16.76-27.42,16.1Z"/>
  <path class="cls-5" d="M123.75,27.63c1.44.21,3.29.14,7.01,0,6.87-.26,8.23-1.07,9.08-1.92,1.05-1.06,2.28-3.15,1.68-4.89-.24-.69-1.07-2.22-13.96-3.68-6.29-.71-9.79-.77-13.21,1.17-1.16.66-2.4,1.38-2.5,2.51-.24,2.7,6.25,5.98,11.91,6.81Z"/>
  <path class="cls-3" d="M58.93,168.97c2.13.81,4.79,1.63,7.9,2.14,4.25.7,7.95.61,10.73.32"/>
  <path class="cls-3" d="M79.48,172.98c6.51.66,11.78.76,15.22.75,13.3-.06,15.25-1.94,26.06-1.19,6.25.43,8.01,1.23,14.26,1.07,5.65-.14,6.56-.85,11.94-.67,5.51.19,7,1.01,12.02,1.02,4.29,0,7.78-.59,10.03-1.09"/>
  <path class="cls-3" d="M172.84,170.38c1.12-.14,2.81-.31,4.87-.31,3.39,0,4.76.47,7.14.44,1.74-.02,4.23-.31,7.26-1.57"/>
  <path class="cls-2" d="M86.05,57.59c.48,4.56.96,11.6.42,20.15-1.07,17.11-5.02,21.02-7.61,42.72-1.62,13.56-2.43,20.34-1.15,25.88.83,3.58,1.61,8.69,1.59,16.19-.01,4.83-.47,8.82-.88,11.51"/>
  <path class="cls-4" d="M167.55,61.03c2.55,20.51,3.31,35.6,3.52,45.67.09,4.18.23,14.69.33,23.35.22,20.61.04,19.3.2,20.68.64,5.41,1.81,10.93.18,16.4-.22.74-.77,2.4-.94,4.74-.25,3.36.42,6.16,1.03,8"/>
  <path class="cls-3" d="M94.15,41.7c.19,64.99-.98,89.72-2.38,97.9-.33,1.95-2.13,11.4-1.44,23.96.15,2.7.38,4.9.54,6.32"/>
  <path class="cls-3" d="M108.61,50.78c.88,30.25-.13,47.66-1.37,58.2-1.08,9.15-2.62,15.59-1.07,24.75.67,3.97,2.08,9.41,1.57,17.11-.15,2.27-.41,3.93-.45,6.99-.07,5.39.63,9.78,1.24,12.66"/>
  <path class="cls-3" d="M123.61,55.15c-.1,10.22-.38,18.56-.63,24.42-.4,9.57-.6,14.35-.77,16.49-.7,9.06-1.41,12.12-.73,18.28.36,3.3.78,4.42.89,7.99.14,4.58-.46,5.95-.73,11.72-.06,1.23-.23,5.45.09,10.66.5,8.19,1.53,7.6,1.22,12.22-.19,2.91-.76,5.43-.7,10.46.01,1.29.07,2.35.11,3.06"/>
  <path class="cls-3" d="M138.18,53.86c-.08,2.94-.14,7.67.03,13.53.2,6.95.55,8.79.88,16.96.18,4.45.38,9.76.27,16.37-.13,7.78-.54,7.68-.87,17.12-.37,10.35.08,11.35-.41,20.5-.24,4.41-.41,5.44-.99,12.84-.63,8.16-1.05,14.97-1.31,19.9"/>
  <path class="cls-3" d="M149.72,39.33c-.44,13.01,0,23.5.49,30.84.54,7.92,1.15,12.12,1.2,20.73.06,10.47-.81,9.98-.85,20.63-.05,13.77,1.41,15.36.64,26.82-.07,1.09-.4,5.06-1.05,12.99-.45,5.53-.85,10.29.05,16.48.21,1.43.44,2.61.61,3.42"/>
  <path class="cls-3" d="M163.8,47.73c-1.23,22.6-.82,39.62-.16,51.3.26,4.51,1,16.26.83,31.74-.09,8.59-.43,14.78-.78,19.5-.59,8.04-1.43,14.97-2.22,20.45"/>
  <path class="cls-3" d="M78.58,64.29c-1.55,15.85-3.3,28.68-4.64,37.63-2.74,18.27-3.66,19.52-4,28.38-.29,7.62.06,15-1.64,26.62-.65,4.4-1.38,7.99-1.91,10.35"/>
  <path class="cls-3" d="M181.6,110.26c-.66,10.52-.4,19.03-.01,25.02.4,6.17,1.05,11.47.89,19.84-.11,5.61-.54,10.22-.9,13.34"/>
  <path class="cls-3" d="M60.57,170.6c-.19.52-.36,1.1-.48,1.72-.6,2.94-.02,5.51.53,7.13"/>
  <path class="cls-3" d="M63.76,171.13c-.06,1.33-.17,2.39-.25,3.11-.26,2.25-.58,3.52-.03,5.16.11.32.22.57.29.72"/>
  <path class="cls-3" d="M67.08,172.42c.28,1.83.24,3.3.14,4.33-.03.29-.05.49-.48,3.36h0"/>
  <path class="cls-3" d="M70.69,172.63c-.19,1.1-.36,2.24-.51,3.44-.19,1.52-.32,2.97-.41,4.35"/>
  <path class="cls-3" d="M73.15,172.54c.07,1.36.05,2.45.03,3.19-.03.84-.08,1.53-.07,2.67,0,.72.03,1.31.05,1.69"/>
  <path class="cls-3" d="M76.47,173.37c-.09,1.42-.21,2.87-.35,4.35-.09.9-.18,1.78-.28,2.65"/>
  <path class="cls-3" d="M191.9,170.32c.15.54.27,1.12.35,1.76.37,2.98-.41,5.49-1.09,7.06"/>
  <path class="cls-3" d="M188.68,170.6c-.04,1.33-.02,2.4,0,3.12.08,2.26.3,3.56-.38,5.14-.13.31-.26.55-.35.7"/>
  <path class="cls-3" d="M185.27,171.62c-.43,1.8-.5,3.27-.48,4.31,0,.29.01.5.21,3.39h0"/>
  <path class="cls-3" d="M181.66,171.55c.1,1.11.19,2.27.24,3.47.07,1.53.09,2.99.07,4.37"/>
  <path class="cls-3" d="M179.22,171.27c-.17,1.35-.25,2.43-.28,3.18-.04.84-.04,1.53-.14,2.67-.06.72-.14,1.3-.19,1.68"/>
  <path class="cls-3" d="M175.83,171.83c-.02,1.42-.02,2.88,0,4.37.01.9.04,1.79.06,2.67"/>
  <path class="cls-3" d="M82.82,174.33c.1.6.23,1.48.31,2.56.14,1.86.04,3.04.02,4.38-.02,1.24.03,3,.32,5.16"/>
  <path class="cls-3" d="M88.51,175.22c.24,1.92.29,3.41.3,4.38,0,.74,0,1.11-.03,1.54-.12,1.48-.4,1.76-.22,2.52.18.74.53.81.6,1.51.06.62-.16,1.15-.36,1.51"/>
  <path class="cls-3" d="M92.38,174.94c.1.6.23,1.48.31,2.56.14,1.86.04,3.04.02,4.38-.02,1.24.03,3,.32,5.16"/>
  <path class="cls-3" d="M98.07,175.83c.24,1.92.29,3.41.3,4.38,0,.74,0,1.11-.03,1.54-.12,1.48-.4,1.76-.22,2.52.18.74.53.81.6,1.51.06.62-.16,1.15-.36,1.51"/>
  <path class="cls-3" d="M104.26,175.39c.1.6.23,1.48.31,2.56.14,1.86.04,3.04.02,4.38-.02,1.24.03,3,.32,5.16"/>
  <path class="cls-3" d="M109.94,176.28c.24,1.92.29,3.41.3,4.38,0,.74,0,1.11-.03,1.54-.12,1.48-.4,1.76-.22,2.52.18.74.53.81.6,1.51.06.62-.16,1.15-.36,1.51"/>
  <path class="cls-3" d="M115.53,174.94c.1.6.23,1.48.31,2.56.14,1.86.04,3.04.02,4.38-.02,1.24.03,3,.32,5.16"/>
  <path class="cls-3" d="M121.22,175.83c.24,1.92.29,3.41.3,4.38,0,.74,0,1.11-.03,1.54-.12,1.48-.4,1.76-.22,2.52.18.74.53.81.6,1.51.06.62-.16,1.15-.36,1.51"/>
  <path class="cls-3" d="M126.23,174.03c.1.6.23,1.48.31,2.56.14,1.86.04,3.04.02,4.38-.02,1.24.03,3,.32,5.16"/>
  <path class="cls-3" d="M131.91,174.92c.24,1.92.29,3.41.3,4.38,0,.74,0,1.11-.03,1.54-.12,1.48-.4,1.76-.22,2.52.18.74.53.81.6,1.51.06.62-.16,1.15-.36,1.51"/>
  <path class="cls-3" d="M136.83,174.2c.1.6.23,1.48.31,2.56.14,1.86.04,3.04.02,4.38-.02,1.24.03,3,.32,5.16"/>
  <path class="cls-3" d="M142.52,175.09c.24,1.92.29,3.41.3,4.38,0,.74,0,1.11-.03,1.54-.12,1.48-.4,1.76-.22,2.52.18.74.53.81.6,1.51.06.62-.16,1.15-.36,1.51"/>
  <path class="cls-3" d="M146.24,174.58c.1.6.23,1.48.31,2.56.14,1.86.04,3.04.02,4.38-.02,1.24.03,3,.32,5.16"/>
  <path class="cls-3" d="M151.92,175.47c.24,1.92.29,3.41.3,4.38,0,.74,0,1.11-.03,1.54-.12,1.48-.4,1.76-.22,2.52.18.74.53.81.6,1.51.06.62-.16,1.15-.36,1.51"/>
  <path class="cls-3" d="M157.84,174.82c.1.6.23,1.48.31,2.56.14,1.86.04,3.04.02,4.38-.02,1.24.03,3,.32,5.16"/>
  <path class="cls-3" d="M163.52,175.71c.24,1.92.29,3.41.3,4.38,0,.74,0,1.11-.03,1.54-.12,1.48-.4,1.76-.22,2.52.18.74.53.81.6,1.51.06.62-.16,1.15-.36,1.51"/>
  <path class="cls-3" d="M167.79,175.51c.1.6.23,1.48.31,2.56.14,1.86.04,3.04.02,4.38-.02,1.24.03,3,.32,5.16"/>
</svg>