<?xml version="1.0" encoding="UTF-8"?>
<svg id="Layer_1" data-name="Layer 1" xmlns="http://www.w3.org/2000/svg" viewBox="0 0 251 205">
  <defs>
    <style>
      .cls-1 {
        fill: #fff;
      }
    </style>
  </defs>
  <path class="cls-1" d="M67.75,68.05s0,0,0,0c0,0,.02,0,.03-.01,0,0-.01,0-.02,0Z"/>
  <path class="cls-1" d="M67.51,68.16s0,0,0,0c0,0-.02.01-.03.02,0,.03-.01.05-.03.08-.43.8-.86,1.6-1.29,2.41-1.59,3.03-2.99,6.17-3.96,9.46-.96,3.28-1.43,6.65-1.36,10.07.07,3.13.71,6.22,1.88,9.13,1.17,2.92,2.86,5.64,4.97,7.98,2.11,2.34,4.62,4.27,7.44,5.68,2.82,1.4,5.89,2.3,9.02,2.59,3.13.3,6.27.01,9.31-.8,2.96-.79,5.79-2.07,8.34-3.73,2.7-1.75,5.06-3.86,7.17-6.31,2.25-2.62,4.13-5.52,6.25-8.24,0-.03,0-.04,0-.08.27-.67.36-1.39.18-2.1-.33-1.31-1.36-2.2-2.29-3.1-.23-.22-.43-.47-.65-.7-.24-.25-.5-.49-.75-.73-1.25-1.17-2.61-2.22-3.99-3.23-1.71-1.25-3.48-2.43-5.27-3.57-1.98-1.25-4-2.47-6.04-3.63-2.13-1.22-4.29-2.39-6.46-3.51-2.12-1.1-4.27-2.15-6.45-3.15-1.97-.9-3.96-1.76-5.98-2.53-1.65-.63-3.33-1.22-5.04-1.68-.36-.09-.72-.18-1.08-.26-.17-.04-.34-.07-.5-.1-.09-.02-.17-.03-.26-.05-.01,0-.03,0-.04,0,0,0,0,0,0,0-.04,0-.07-.01-.11-.02-.55-.09-1.11-.15-1.67-.15-.12,0-.23,0-.35.01-.06,0-.12,0-.17.01,0,0,0,0-.01,0-.09.01-.04,0,0,0,0,0,.01,0,.02,0-.02,0-.05,0-.07.01-.1.02-.19.03-.29.06-.05.01-.09.02-.14.04-.01,0-.02,0-.04.01-.07.04-.07.03-.03.01-.06.03-.13.05-.18.08,0,0,0,0,0,0,0,0,0,0,0,0-.01,0-.03.02-.04.02Z"/>
  <path class="cls-1" d="M67.79,68.03s-.02,0-.02.01c0,0,0,0,0,0,0,0,0,0,.01,0Z"/>
  <path class="cls-1" d="M67.55,68.14s-.01,0-.02.01c.01,0,.02-.01.02-.01t0,0Z"/>
  <path class="cls-1" d="M195.14,130.7c-.19-.23-.38-.46-.56-.69-.39-.48-.75-.98-1.14-1.46-.16-.2-.32-.41-.48-.62-.07,0-.13-.02-.17-.12-.02-.05-.02-.1-.04-.15-.14-.19-.29-.38-.43-.56-.76-.98-1.52-1.95-2.32-2.91-1.59-1.91-3.27-3.74-5.03-5.49-1.77-1.75-3.62-3.42-5.55-5-1.93-1.58-3.94-3.06-6.01-4.44-2.07-1.38-4.21-2.65-6.41-3.82-2.21-1.17-4.48-2.22-6.79-3.17-2.32-.95-4.7-1.75-7.12-2.43-2.43-.68-4.89-1.22-7.38-1.62-2.53-.4-5.07-.68-7.63-.79-2.45-.1-4.9-.06-7.35.04,0,0,0,.01,0,.02,0-.02,0-.03,0,0,0,0,0,0,0,0,0,.02,0,.04-.01.05-.01.03-.02.05-.04.08-.01.02-.02.03-.03.04-.03.04-.07.07-.12.09-.03.02-.07.02-.1,0,.03.02-.09-.07-.07-.05-.02-.02-.03-.03-.05-.05,0,0,0,0,0,0-.06,0-.16.02-.2-.04-.29-.39-.79-.62-1.21-.85-.58-.33-1.18-.62-1.78-.92-.66-.32-1.31-.65-1.97-.95-.6-.28-1.22-.54-1.81-.83-.23-.11-.44-.24-.66-.36-.12-.07-.23-.15-.34-.23-.05.14-.27.29-.33.15-.06-.14-.26-.33-.37-.47-.13-.17-.24-.37-.36-.56-.26-.41-.48-.84-.72-1.26-.24-.41-.49-.82-.75-1.22-.57-.88-1.18-1.73-1.83-2.56-1.4-1.79-2.94-3.45-4.55-5.05-.86-.86-1.74-1.69-2.67-2.49-.95-.82-1.93-1.62-2.92-2.39-2.06-1.6-4.21-3.09-6.42-4.48-2.27-1.42-4.6-2.77-7-3.97-2.4-1.19-4.87-2.27-7.38-3.21-2.46-.92-4.97-1.7-7.53-2.32-2.43-.58-4.89-1.01-7.38-1.23-.68-.06-1.35-.1-2.03-.12-1.11.22-2.22.43-3.34.62,2.12.13,4.25.32,6.35.62,4.59.66,9.04,1.98,13.31,3.76,3.89,1.62,7.67,3.53,11.32,5.63,3.83,2.21,7.55,4.64,11.02,7.39,1.61,1.28,3.17,2.64,4.63,4.09.67.67,1.31,1.35,1.92,2.07.3.35.59.69.86,1.06.28.37.46.72.61,1.15.06.16-.21.42-.36.31-.35-.28-.62-.54-.9-.88-2.47-3.07-5.41-5.71-8.54-8.09-3.49-2.67-7.21-5.03-11.05-7.18-3.57-1.99-7.25-3.81-11.04-5.33-4.39-1.76-8.99-3.01-13.71-3.52-2.08-.23-4.19-.45-6.29-.53-.69-.02-1.39-.01-2.09.02-.6.07-1.21.14-1.81.2-.59.1-1.18.25-1.75.45-.01.05-.02.1-.03.14-.1.4-.25.79-.39,1.17-.3.79-.66,1.56-1.04,2.32-.72,1.42-1.53,2.79-2.43,4.09.28.1.56.21.84.32.38.15.76.29,1.14.44.38.15.76.29,1.14.44.19.08.37.16.56.24.08.04.16.09.24.13.09.04.15.08.2.14.06.03.13.06.19.09.01,0,0,.02.02.03.05-.02.09,0,.07.06,0,.01,0,.02,0,.04,0,0,0,.02,0,.03-.18.77-.34,1.55-.52,2.31-.79,3.29-1.48,6.61-1.9,9.98-.41,3.29-.49,6.61-.04,9.89.46,3.34,1.53,6.59,3.21,9.52,1.69,2.96,4.01,5.52,6.58,7.74,2.38,2.06,5.03,3.8,7.88,5.12,2.78,1.28,5.75,2.17,8.79,2.53,3.03.36,6.11.19,9.08-.54,1.51-.37,2.98-.89,4.4-1.54,1.52-.7,2.91-1.55,4.3-2.47,2.92-1.93,5.63-4.1,8.05-6.62,1.2-1.25,2.28-2.54,3.28-3.97.49-.7.95-1.42,1.37-2.15.43-.75.85-1.53,1.2-2.32.08-.19.32-.4.54-.39.06,0,.11.03.14.06,1.15-.84,2.47-1.41,3.87-1.68,1.25-.23,2.51-.22,3.76.02,1.2.23,2.27.76,3.26,1.44,1,.69,1.79,1.68,2.35,2.75.31.59.54,1.21.71,1.85.09.35.16.7.21,1.05.03.2.07.41.04.61-.03.19-.07.38-.12.56,0,.01,0,.01,0,.03-.23.88-.49,1.74-.75,2.61-1,3.4-1.89,6.83-2.36,10.34-.11.82-.16,1.64-.22,2.47-.06.83-.08,1.66-.08,2.5.01,1.66.17,3.3.47,4.93.66,3.58,2.06,6.98,3.96,10.07,1.8,2.94,4.03,5.61,6.65,7.86,2.38,2.05,5.05,3.74,7.93,4.98,2.8,1.22,5.79,2.02,8.83,2.33,3.03.31,6.1.15,9.08-.52,3.15-.71,6.13-2,8.86-3.66,3.03-1.85,5.73-4.04,8.12-6.65,1.17-1.27,2.25-2.65,3.23-4.14.93-1.42,1.75-2.93,2.41-4.52.09-.21.35-.44.59-.43.1,0,.15.05.18.12.09.03.19.1.26.14.21.12.41.24.62.37.41.24.83.49,1.24.73.42.25.84.49,1.25.77.34.23.68.45,1.02.66l.67-1.24c.62-1.14,1.23-2.28,1.85-3.42.28-.52.57-1.04.86-1.56,0,0,0,0,0,0-.45-.37-.8-.76-1.17-1.21-3.18-3.82-6.53-7.47-10.25-10.77-3.73-3.31-7.61-6.46-11.74-9.25-3.75-2.54-7.72-4.83-11.96-6.45-3.85-1.48-7.86-2.66-11.89-3.54-2.06-.45-4.14-.83-6.24-1.09-.93-.11-1.87-.2-2.8-.25-.85-.05-1.68-.05-2.52-.17-.2-.03,0-.3.12-.32.43-.08.84-.14,1.28-.15,4.02-.06,8.08.71,11.99,1.58,4.03.89,8.01,2.04,11.83,3.6,4.35,1.78,8.44,4.29,12.28,6.99,4.12,2.89,8.02,6.12,11.74,9.51,1.86,1.69,3.61,3.51,5.29,5.37.85.94,1.68,1.89,2.5,2.85.7.82,1.45,1.63,1.99,2.56.08-.13.16-.26.24-.39,0,0,0,0,0,0-.13-.18-.28-.35-.42-.52ZM115.56,96.49s-.08.08-.13.11c-.44.68-.89,1.35-1.32,2.03-.95,1.49-1.97,2.96-3.02,4.38-1.06,1.44-2.21,2.82-3.47,4.09-2.25,2.27-4.81,4.23-7.61,5.77-2.77,1.53-5.77,2.64-8.88,3.22-3.19.6-6.46.65-9.66.07-3.15-.57-6.19-1.72-8.91-3.38-2.76-1.69-5.12-3.88-7.1-6.43-1.96-2.53-3.45-5.41-4.39-8.47-.96-3.11-1.29-6.35-1.14-9.6.16-3.51.94-6.97,2.12-10.27.6-1.67,1.29-3.31,2.05-4.91.78-1.64,1.65-3.24,2.51-4.85.07-.13.18-.26.32-.36.05-.06.1-.13.16-.19.71-.68,1.81-.71,2.73-.65,1.4.1,2.79.46,4.14.85,1.82.54,3.59,1.19,5.35,1.9,2.1.84,4.16,1.76,6.2,2.73,2.21,1.05,4.4,2.15,6.57,3.3,2.19,1.16,4.36,2.37,6.5,3.63,2.04,1.2,4.05,2.44,6.02,3.74,1.72,1.14,3.4,2.32,5.03,3.58,1.26.98,2.5,2.01,3.6,3.17.24.25.47.53.72.77.47.46.93.93,1.32,1.46.42.57.76,1.22.87,1.92.12.85-.1,1.66-.57,2.37ZM136.82,102.93c1.13-.66,2.48-.57,3.72-.34.27.05.53.1.8.16.04,0,.08.02.12.03.02,0,.09.02.02,0,.04,0,.07,0,.11.01.08.01.15.02.23.03.35.05.7.11,1.04.19,1.66.34,3.28.85,4.88,1.41,2.01.7,4,1.5,5.95,2.35,2.21.95,4.38,1.98,6.53,3.05,2.25,1.12,4.47,2.28,6.67,3.5,2.15,1.19,4.27,2.42,6.36,3.71,1.9,1.17,3.77,2.38,5.59,3.67,1.48,1.05,2.94,2.15,4.31,3.36.95.84,1.9,1.75,2.59,2.82.24.37.45.76.55,1.19.06.3.05.63-.05.93.02.09,0,.19-.04.28-.43.8-.85,1.6-1.29,2.39-1.55,2.85-3.28,5.61-5.32,8.14-2.07,2.56-4.44,4.88-7.15,6.76-1.38.96-2.82,1.83-4.35,2.54-1.52.71-3.11,1.28-4.74,1.7-3.25.83-6.62,1.04-9.95.65-3.13-.37-6.18-1.28-8.98-2.74-2.71-1.42-5.18-3.33-7.23-5.6-2.19-2.42-3.89-5.28-5.06-8.31-1.19-3.08-1.83-6.38-1.95-9.68-.13-3.39.28-6.81,1.2-10.08.99-3.55,2.49-6.94,3.97-10.31-.02-.03-.02-.08,0-.15.3-.7.8-1.26,1.46-1.64Z"/>
  <path class="cls-1" d="M133.9,109.53c-.31.84-.59,1.68-.88,2.52-.58,1.71-1.06,3.46-1.4,5.23-.62,3.19-.77,6.46-.41,9.69.36,3.22,1.25,6.38,2.67,9.3,1.37,2.83,3.26,5.38,5.54,7.54,2.2,2.06,4.75,3.74,7.52,4.91,2.88,1.22,6,1.89,9.13,1.98,3.28.09,6.55-.38,9.65-1.46,3.05-1.06,5.8-2.71,8.3-4.73.16-.13.32-.27.48-.4.09-.08.05-.04.03-.02.04-.03.08-.07.12-.1.07-.06.14-.12.21-.19.3-.26.59-.53.88-.8.57-.54,1.12-1.1,1.66-1.68.56-.61.98-1.1,1.48-1.72.5-.61.97-1.24,1.44-1.88,1.95-2.7,3.49-5.52,5.07-8.46.03-.06.08-.12.13-.18,0-.02,0-.04,0-.06,0-.08,0-.15,0-.23,0-.04-.01-.08-.01-.12,0-.02,0-.04-.01-.06-.04-.19-.11-.37-.19-.54-.04-.1-.09-.19-.15-.29-.03-.05-.06-.1-.09-.15-.01-.02-.03-.05-.04-.07.06.1,0,0,0-.01-.15-.22-.31-.44-.47-.65-.88-1.1-1.96-2.05-3.04-2.94-1.47-1.22-3.03-2.34-4.61-3.42-1.86-1.27-3.75-2.46-5.68-3.62-2.09-1.26-4.22-2.46-6.37-3.62-2.18-1.18-4.39-2.31-6.62-3.39-2.09-1.01-4.2-1.98-6.34-2.89-1.87-.79-3.76-1.54-5.69-2.19-.8-.27-1.62-.52-2.43-.74-.37-.1-.73-.19-1.1-.27-.17-.04-.34-.07-.51-.11-.09-.02-.17-.03-.26-.05-.04,0-.08-.01-.12-.02,0,0,0,0,0,0,0,0,0,0,0,0-.02,0-.03,0-.05,0-.39-.07-.77-.13-1.16-.22-.55-.13-1.11-.24-1.68-.27-.29-.01-.58-.01-.86.02-.28.03-.62.12-.83.21-.62.24-1.06.69-1.45,1.26-.01.02-.04.04-.06.05-.25.77-.53,1.53-.8,2.3-.3.85-.63,1.69-.94,2.54Z"/>
  <path class="cls-1" d="M188.4,60.6c.54-.14,1.15-.14,1.68.11.46.22.81.59,1.07,1.03.62,1.04.72,2.38.76,3.56.04,1.44-.07,2.89-.2,4.32-.11,1.21-.26,2.42-.26,3.64,0,2.54.02,5.08.03,7.62.01,2.51.02,5.01-.01,7.52-.03,2.62-.11,5.24-.24,7.85-.15,2.83-.37,5.66-.65,8.49-.29,2.85-.63,5.69-.99,8.53-.17,1.34-.33,2.68-.53,4.01-.1.64-.2,1.28-.3,1.91-.09.55-.21,1.1-.32,1.64,1.19,1.3,2.35,2.63,3.45,4.01.27.35.55.7.82,1.05,0-.02,0-.04,0-.06.01-.71,0-1.42,0-2.13.01-1.39.13-2.79.2-4.19.13-2.58.28-5.16.36-7.74.08-2.51.03-5.02.08-7.53.05-2.49.14-4.99.4-7.47.21-2.06.51-4.11.33-6.19-.01-.12.26-.36.33-.19.43,1.05.38,2.2.3,3.31-.08,1.16-.24,2.32-.34,3.48-.2,2.52-.29,5.06-.33,7.59-.03,2.55.01,5.09-.08,7.64-.09,2.57-.24,5.15-.35,7.72-.05,1.23-.15,2.47-.14,3.7,0,.6.04,1.2.08,1.8.03.48.07.95,0,1.42.18.26.37.51.54.77.34.53.7,1.05,1.01,1.6.11.2.22.4.33.6-.05-.41-.11-.82-.15-1.23-.08-.78-.22-1.55-.28-2.33-.05-.7-.09-1.4-.11-2.1-.04-1.2-.05-2.4-.04-3.6.02-2.24.1-4.49.17-6.73.23-7.06.27-14.11.34-21.17.04-3.89.04-7.79.07-11.68.02-3.9.03-7.8-.08-11.69-.08-2.56-.68-5.13-2.1-7.29-1.39-2.1-3.35-3.7-5.44-5.06-.58-.38-1.18-.73-1.79-1.07-.67-.37-1.28-.72-2.06-.78-.4-.03-.9-.02-1.22.25-.28.23-.33.64-.32.98.04,1.13.87,2.39,1.77,3.02.99.69,2.22.95,3.32,1.39,0,0,0,0,0,0,.15-.06.29-.13.44-.19.16-.06.32-.11.48-.15Z"/>
  <path class="cls-1" d="M74.39,62.07c.61-.18,1.24-.32,1.86-.47.82-.2,1.65-.37,2.48-.56,1.63-.38,3.26-.75,4.89-1.15,5.8-1.41,11.61-2.83,17.45-4.09,2.87-.62,5.76-1.12,8.65-1.68,1.39-.27,2.77-.6,4.16-.87.69-.14,1.38-.26,2.08-.36.61-.09,1.23-.21,1.81.03.2.08-.04.38-.16.43-.74.29-1.5.35-2.28.47-.79.12-1.58.28-2.36.44-1.54.32-3.06.68-4.61.94-5.83.99-11.6,2.37-17.35,3.74-2.89.69-5.77,1.39-8.67,2.02-1.45.32-2.9.63-4.35.92-.71.14-1.42.28-2.14.41,1.94.31,3.87.74,5.77,1.25,1.23.33,2.46.71,3.67,1.12.41-.18.82-.36,1.25-.51,1.69-.6,3.4-1.1,5.13-1.57,2.19-.59,4.36-1.23,6.53-1.88,2.63-.79,5.29-1.5,7.95-2.15,2.48-.61,4.97-1.16,7.47-1.68,2.42-.5,4.84-.97,7.27-1.45,1.23-.24,2.45-.47,3.67-.72,1.02-.2,2.05-.37,3.06-.62,1.25-.3,2.47-.71,3.7-1.07,1.42-.41,2.86-.78,4.34-.95,1.13-.13,2.44-.16,3.42.48.42.28.73.69.89,1.16.1.29.13.62.11.92-.01.18-.03.36-.06.54-.03.15-.07.31-.1.46.29.44.53.9.81,1.35.35.57.71,1.14,1.18,1.62.47.47,1.11.79,1.74,1.01.69.24,2.15.53,2.5-.4.2-.52.02-1.14-.18-1.64-.29-.72-.87-1.29-1.37-1.87-.94-1.08-1.96-2.09-3.06-3.01-1.97-1.65-4.29-2.88-6.85-3.26-1.35-.2-2.74-.18-4.09.01-1.83.26-3.66.66-5.48,1-7.48,1.42-14.94,3.01-22.39,4.58-3.72.79-7.45,1.55-11.17,2.36-3.62.79-7.23,1.65-10.84,2.5-2.79.66-5.59,1.33-8.4,1.94.6.05,1.21.11,1.81.19.1.01.19.03.29.04Z"/>
  <path d="M115.72,101.2c.12-.09.24-.17.36-.25-.03-.03-.07-.06-.14-.06-.22,0-.45.2-.54.39-.35.79-.77,1.57-1.2,2.32-.42.73-.88,1.46-1.37,2.15-1,1.43-2.08,2.72-3.28,3.97-2.42,2.53-5.13,4.69-8.05,6.62-1.39.92-2.79,1.77-4.3,2.47-1.41.65-2.88,1.17-4.4,1.54-2.96.73-6.05.9-9.08.54-3.04-.36-6.01-1.24-8.79-2.53-2.86-1.32-5.51-3.06-7.88-5.12-2.57-2.22-4.88-4.79-6.58-7.74-1.68-2.93-2.75-6.18-3.21-9.52-.45-3.29-.37-6.61.04-9.89.42-3.36,1.11-6.68,1.9-9.98.18-.77.34-1.54.52-2.31-.02.12-.15.26-.28.31-.23.75-.47,1.5-.68,2.26-.23.84-.45,1.68-.66,2.52-.42,1.68-.79,3.36-1.1,5.06-.31,1.7-.53,3.41-.65,5.13-.12,1.68-.17,3.38-.07,5.05.21,3.38.95,6.73,2.35,9.82,1.46,3.21,3.61,6.1,6.12,8.57,2.29,2.26,4.9,4.2,7.73,5.74,2.75,1.49,5.71,2.59,8.78,3.17,3.07.58,6.21.66,9.3.16,3.21-.52,6.3-1.67,9.08-3.33,3.06-1.82,5.95-3.95,8.56-6.37,2.63-2.44,4.98-5.21,6.76-8.34.42-.74.77-1.49,1.12-2.27.01-.03.02-.07.03-.1-.12.07-.25.13-.37.2-.15.09-.11-.12-.03-.18Z"/>
  <path d="M59.68,73.69s.06.06.06.1c0-.01,0-.02,0-.04.02-.07-.02-.08-.07-.06Z"/>
  <path d="M59.52,73.64s-.04-.04-.05-.06c0,0-.01,0-.02,0,.02.02.05.05.07.07Z"/>
  <path d="M59.74,73.79s0,.02,0,.03c0,0,0-.02,0-.03Z"/>
  <path d="M59.08,74.08s.01,0,.02,0c.03,0,.06,0,.1,0-.04,0-.08,0-.12,0Z"/>
  <path d="M59.68,73.69s0-.02-.02-.03c-.06-.03-.13-.06-.19-.09.02.02.04.03.05.06-.02-.02-.05-.05-.07-.07,0,0,.01,0,.02,0-.05-.06-.11-.1-.2-.14-.08-.04-.16-.09-.24-.13-.18-.09-.37-.16-.56-.24-.38-.15-.76-.3-1.14-.44-.38-.15-.76-.29-1.14-.44-.28-.11-.56-.21-.84-.32-.09.12-.16.26-.25.38-.11.16-.32.27-.49.29.34.14.7.27,1.05.4.38.14.77.29,1.15.43.38.14.77.29,1.15.42.2.07.39.13.59.19.09.03.19.04.28.07.1.03.18.04.28.04,0,0-.01,0-.02,0,.04,0,.08,0,.12,0-.04,0-.07,0-.1,0,.07.02.14.04.21.06.04.01.09,0,.14-.02.03-.11.06-.21.1-.32.01-.05.08-.1.13-.11Z"/>
  <path d="M59.74,73.82s0-.02,0-.03c0-.04-.03-.07-.06-.1-.05.02-.12.07-.13.11-.03.11-.06.21-.1.32.13-.05.26-.19.28-.31Z"/>
  <path d="M58.4,63.64s.05-.04,0,0h0Z"/>
  <path d="M54.48,72.02c.11-.16.34-.33.55-.27.1.03.2.08.3.11.9-1.3,1.72-2.67,2.43-4.09.38-.75.74-1.52,1.04-2.32.14-.38.3-.77.39-1.17.01-.05.02-.09.03-.14-.07.02-.14.04-.2.06-.27.1-.21-.21-.05-.31.02-.01.04-.02.06-.04-.08,0-.16.02-.24.02-.11,0-.12-.06-.09-.15-.02,0-.04.01-.06.02-.16.04-.05-.18.03-.22.09-.05.19-.09.28-.13,0,0-.02-.01-.02-.02-.12-.17-.41.09-.48.18-.04.05-.05.07-.05.08.05-.04-.02.04,0,0-.01,0-.02.01-.05.04-.1.1-.2.18-.29.29-.14.2-.23.44-.3.68-.11.34-.2.68-.33,1.01-.29.75-.63,1.49-.99,2.21-.37.73-.74,1.46-1.13,2.18-.19.35-.38.7-.56,1.06-.16.33-.26.66-.38,1-.12.33.03.44.23.41-.03-.01-.07-.02-.1-.04-.2-.09-.1-.34-.01-.48Z"/>
  <path d="M55.09,72.25c.09-.12.16-.25.25-.38-.1-.04-.2-.08-.3-.11-.2-.07-.44.11-.55.27-.09.13-.19.39.01.48.03.01.07.02.1.04.17-.02.38-.13.49-.29Z"/>
  <path d="M84.98,64.78c.1-.04.2-.08.3-.13-1.21-.41-2.43-.78-3.67-1.12-1.9-.52-3.83-.94-5.77-1.25,0,0-.02,0-.03,0-.67.11-1.35.27-2.03.26-.2,0-.01-.29.08-.32.18-.06.36-.11.54-.16-.1-.01-.19-.03-.29-.04-.6-.07-1.2-.14-1.81-.19-.74.16-1.48.31-2.22.46.68.03,1.36.06,2.03.12,2.49.22,4.95.64,7.38,1.23,2.55.61,5.07,1.4,7.53,2.32,2.52.94,4.98,2.01,7.38,3.21,2.4,1.19,4.73,2.54,7,3.97,2.21,1.39,4.36,2.88,6.42,4.48.99.77,1.97,1.57,2.92,2.39.92.8,1.8,1.63,2.67,2.49,1.61,1.6,3.16,3.26,4.55,5.05.64.83,1.26,1.68,1.83,2.56.26.4.51.81.75,1.22.24.42.46.86.72,1.26.12.18.22.38.36.56.11.14.31.33.37.47.06.14.28,0,.33-.15-.04-.03-.08-.06-.12-.08-.09-.06-.02-.19.07-.24-.03-.16-.06-.33-.09-.47-.06-.22-.15-.44-.24-.66-.18-.45-.43-.87-.67-1.28-.52-.89-1.08-1.75-1.68-2.58-1.29-1.81-2.75-3.5-4.3-5.09-1.71-1.75-3.56-3.37-5.45-4.91-2.02-1.64-4.14-3.17-6.32-4.6-2.26-1.48-4.59-2.84-7-4.07-2.41-1.24-4.85-2.4-7.37-3.41-1.13-.45-2.27-.87-3.42-1.27-.26.07-.53.15-.79.23-.19.06-.07-.22.03-.27Z"/>
  <path d="M61.89,62.78c.98-.21,1.93-.5,2.9-.71.37-.08.73-.16,1.1-.24-1.92.17-3.84.49-5.68,1.06-.43.13-.85.32-1.26.51.01.01.02.02.03.03.96-.23,1.93-.44,2.9-.65Z"/>
  <path d="M58.64,63.76s.04-.01.06-.02c.04-.12.17-.28.25-.3,0,0,.02,0,.03,0-.01-.01-.02-.02-.03-.03-.09.04-.19.09-.28.13-.08.04-.19.26-.03.22Z"/>
  <path d="M130.17,107.56c.04-.19.08-.38.12-.56.04-.2,0-.41-.04-.61-.06-.35-.12-.71-.21-1.05-.17-.64-.4-1.26-.71-1.85-.56-1.07-1.35-2.07-2.35-2.75-1-.68-2.07-1.21-3.26-1.44-1.25-.24-2.51-.25-3.76-.02-1.4.26-2.72.84-3.87,1.68.06.06.07.15.05.24,2.08-1.09,4.44-1.8,6.79-1.37,1.12.21,2.22.63,3.15,1.28.94.65,1.77,1.55,2.34,2.54.35.61.63,1.27.82,1.95.1.35.18.7.24,1.05.03.19.06.39.09.58.03.16.14.33.21.49.01-.03.02-.06.03-.08.05-.14.38-.27.36-.08Z"/>
  <path d="M116.08,100.95c-.12.09-.24.16-.36.25-.07.06-.12.27.03.18.12-.07.25-.13.37-.2.02-.09,0-.18-.05-.24Z"/>
  <path d="M122.32,93.48c.11.08.21.17.34.23.22.12.44.25.66.36.6.29,1.21.55,1.81.83.66.3,1.31.63,1.97.95.6.29,1.2.59,1.78.92.41.23.91.46,1.21.85.04.06.14.05.2.04,0,0-.01-.01-.02-.02-.02-.01-.01,0,0,0-.02-.01-.04-.02-.05-.03.07,0,.14,0,.22,0-.05.02-.09.03-.15.04,0,0,0,0,0,0,0,0,0,0,0,0,.02.01.03.03.05.05-.03-.03.1.07.07.05.03.02.07.02.1,0,.05-.02.08-.06.12-.09.01-.01.02-.03.03-.04.02-.02.03-.05.04-.08,0,0,0-.03.01-.05,0,0,0-.01,0-.02-.14,0-.28,0-.42.01-.12,0-.12-.14-.08-.22.05-.12.17-.2.29-.21.06,0,.11-.01.17-.02,0,0,0,0,0,0-.86-.67-1.87-1.15-2.86-1.61-1.29-.61-2.6-1.16-3.9-1.74-.29-.13-.58-.24-.87-.35-.21-.08-.44-.13-.64-.22-.04-.02-.08,0-.12.03.02.09.03.18.06.24.01.03,0,.06-.01.09Z"/>
  <path d="M130.44,97.62c-.07,0-.14,0-.22,0,.02.01.03.02.05.03-.02-.01-.02-.02,0,0,0,0,.01.01.02.02,0,0,0,0,0,0,.05,0,.1-.02.15-.04Z"/>
  <path d="M130.72,97.5s0,0,0,0c0-.03,0-.02,0,0Z"/>
  <path d="M122.2,93.39s.08.06.12.08c.01-.03.02-.07.01-.09-.03-.06-.04-.15-.06-.24-.09.06-.16.19-.07.24Z"/>
  <path d="M130.71,97.25s-.01.04-.02.05c.01.06.03.12.02.18,2.45-.1,4.9-.14,7.35-.04,2.56.11,5.1.38,7.63.79,2.49.4,4.96.94,7.38,1.62,2.42.68,4.8,1.48,7.12,2.43,2.31.95,4.59,2,6.79,3.17,2.2,1.16,4.34,2.44,6.41,3.82,2.08,1.38,4.08,2.87,6.01,4.44,1.93,1.58,3.78,3.24,5.55,5,1.76,1.75,3.44,3.58,5.03,5.49.79.95,1.56,1.93,2.32,2.91.15.19.29.37.43.56-.16-.56-.08-1.19-.07-1.77-.27-.35-.54-.7-.82-1.05-1.1-1.38-2.26-2.71-3.45-4.01-.01.07-.03.14-.04.21-.02.1-.3.27-.28.1.02-.2.04-.41.05-.61-.4-.44-.79-.88-1.2-1.31-1.73-1.79-3.54-3.5-5.43-5.12-1.91-1.63-3.9-3.17-5.96-4.61-2.05-1.43-4.18-2.77-6.37-3.99-2.19-1.22-4.44-2.34-6.75-3.32-2.32-.98-4.7-1.84-7.1-2.58-2.42-.74-4.87-1.34-7.36-1.8-2.53-.47-5.09-.77-7.66-.94-2.6-.17-5.24-.19-7.84,0-.6.04-1.19.11-1.79.18.05.05.04.14.03.2Z"/>
  <path d="M194.07,127.83c-.17-.26-.36-.51-.54-.77-.02.15-.05.29-.1.44-.04.12-.29.41-.48.43.16.21.31.42.48.62.39.48.75.98,1.14,1.46.19.23.37.46.56.69.14.17.28.34.42.52-.06-.39-.1-.79-.14-1.18-.11-.2-.22-.4-.33-.6-.31-.55-.67-1.07-1.01-1.6Z"/>
  <path d="M130.21,97.28c-.04.08-.04.22.08.22.14,0,.28,0,.42-.01,0-.06,0-.12-.02-.18,0,.03-.01.07-.03.1,0-.06.01-.12.02-.17.01.02,0,.05,0,.08,0-.02.01-.04.02-.05.01-.06.02-.15-.03-.2-.06,0-.11.01-.17.02-.12.01-.24.1-.29.21Z"/>
  <path d="M130.66,97.4s.02-.06.03-.1c0-.03,0-.05,0-.08,0,.06-.01.12-.02.17Z"/>
  <path d="M186.55,136.5c-.06-.07-.05-.16-.04-.24-.02-.02-.05-.04-.07-.07-.11-.11.13-.32.24-.29.03,0,.06.02.09.03.07-.04.15-.07.23-.06.02,0,.05.02.07.03-.03-.06-.08-.12-.18-.12-.24,0-.5.22-.59.43-.66,1.59-1.48,3.11-2.41,4.52-.97,1.48-2.06,2.86-3.23,4.14-2.39,2.61-5.09,4.8-8.12,6.65-2.73,1.66-5.71,2.96-8.86,3.66-2.97.67-6.05.83-9.08.52-3.04-.31-6.03-1.11-8.83-2.33-2.88-1.25-5.56-2.94-7.93-4.98-2.61-2.25-4.84-4.92-6.65-7.86-1.9-3.1-3.3-6.5-3.96-10.07-.3-1.63-.46-3.28-.47-4.93,0-.83.02-1.67.08-2.5.06-.83.11-1.65.22-2.47.47-3.51,1.37-6.95,2.36-10.34.26-.87.52-1.74.75-2.61,0-.02,0-.02,0-.03,0,.01,0,.02,0,.03-.02.11-.28.35-.36.17,0-.01-.02-.03-.02-.05-.66,1.76-1.21,3.56-1.72,5.36-.49,1.74-.94,3.49-1.29,5.27-.16.84-.31,1.69-.42,2.54-.12.87-.24,1.74-.31,2.62-.12,1.68-.12,3.38.03,5.06.32,3.56,1.33,7,2.94,10.18,1.66,3.28,3.85,6.32,6.46,8.9,2.29,2.26,4.92,4.18,7.78,5.66,2.78,1.44,5.78,2.45,8.87,2.99,3.09.54,6.24.58,9.34.11,3.2-.48,6.28-1.52,9.15-3.02,3.19-1.67,6.14-3.8,8.75-6.28,2.64-2.5,4.94-5.4,6.64-8.61.31-.59.58-1.2.85-1.82,0,0,0,0,0,0-.09-.05-.22-.1-.29-.17Z"/>
  <path d="M130.16,107.59s0-.02,0-.03c.02-.2-.31-.06-.36.08-.01.03-.02.06-.03.08,0,.01.02.03.02.05.08.18.34-.07.36-.17Z"/>
  <path d="M194.89,132.37s-.02-.02-.04-.03c0,0,0,0,0,0-.29.52-.57,1.04-.86,1.56-.62,1.14-1.23,2.28-1.85,3.42l-.67,1.24c.07.04.13.09.2.13-.13.08-.27.16-.4.24.07-.12.13-.25.2-.37-.35-.21-.68-.43-1.02-.66-.4-.28-.82-.52-1.25-.77-.41-.24-.83-.49-1.24-.73-.21-.12-.41-.24-.62-.37-.08-.05-.17-.11-.26-.14.04.09.03.22-.01.32-.07.16-.15.31-.22.47.2.12.41.24.61.36.43.25.85.5,1.28.75.42.24.83.49,1.26.7.45.22.88.45,1.32.7.15.08.35-.14.4-.24,1.13-2.13,2.27-4.25,3.38-6.38.04-.07.07-.14.11-.21-.11.07-.24.1-.32.03Z"/>
  <path d="M195.56,131.22c-.09.13-.16.26-.24.39.05.08.11.16.15.25,0-.01.01-.03.02-.04.05-.11.09-.23.14-.35-.01-.02-.04-.02-.04-.06-.01-.07-.01-.13-.02-.2Z"/>
  <path d="M191.68,138.69c-.07-.04-.13-.09-.2-.13-.07.12-.13.25-.2.37.13-.08.27-.16.4-.24Z"/>
  <path d="M186.53,136.17s0,.05-.01.08c.01.01.02.02.04.04,0-.04-.01-.08-.02-.12Z"/>
  <path d="M186.85,135.95s-.04-.01-.06-.02c-.04.02-.08.04-.12.06l.18-.05Z"/>
  <path d="M187.08,135.89s-.05-.02-.07-.03c-.08,0-.15.03-.23.06.02,0,.04.01.06.02l-.18.05s.08-.04.12-.06c-.03,0-.06-.02-.09-.03-.12-.04-.36.18-.24.29.02.02.05.04.07.07,0-.03,0-.06.01-.08,0,.04.01.08.02.12-.01-.01-.02-.02-.04-.04-.02.09-.02.18.04.24.07.07.2.12.29.17,0,0,0,0,0,0,.07-.16.15-.31.22-.47.04-.1.05-.23.01-.32Z"/>
  <path d="M185.46,129.24s0-.01.01-.02c0,0,0-.01,0-.02,0-.02,0-.01,0,0,0,0,0,0,0,.01,0,0,0,.01,0,.02Z"/>
  <path d="M186.15,129.22s-.01.03-.02.05c-.1.18-.3.39-.52.38-.21,0-.23-.24-.15-.39,0,0,0,0,0-.01,0-.02,0-.02.01-.04,0-.03.01-.06.02-.08,0,0,0-.02,0-.02,0,0,0-.02,0-.03-.05.06-.09.12-.13.18-1.57,2.94-3.12,5.76-5.07,8.46-.46.64-.94,1.27-1.44,1.88-.5.62-.93,1.11-1.48,1.72-.53.58-1.09,1.14-1.66,1.68-.29.27-.58.54-.88.8-.07.06-.14.12-.21.19-.04.03-.08.07-.12.1.02-.02.07-.06-.03.02-.16.13-.32.27-.48.4-2.5,2.03-5.25,3.67-8.3,4.73-3.1,1.08-6.37,1.55-9.65,1.46-3.13-.09-6.25-.76-9.13-1.98-2.78-1.17-5.33-2.85-7.52-4.91-2.29-2.15-4.17-4.71-5.54-7.54-1.41-2.92-2.31-6.08-2.67-9.3-.36-3.23-.21-6.51.41-9.69.35-1.78.82-3.52,1.4-5.23.29-.84.57-1.69.88-2.52.31-.85.65-1.69.94-2.54.27-.77.54-1.53.8-2.3-.1.08-.24.12-.29.04-1.48,3.37-2.98,6.76-3.97,10.31-.91,3.27-1.32,6.69-1.2,10.08.12,3.3.76,6.59,1.95,9.68,1.17,3.04,2.87,5.9,5.06,8.31,2.06,2.27,4.52,4.17,7.23,5.6,2.8,1.47,5.84,2.37,8.98,2.74,3.33.39,6.7.18,9.95-.65,1.63-.42,3.22-.99,4.74-1.7,1.53-.71,2.96-1.59,4.35-2.54,2.71-1.87,5.08-4.2,7.15-6.76,2.04-2.53,3.77-5.29,5.32-8.14.43-.8.86-1.59,1.29-2.39.05-.09.06-.19.04-.28-.05.16-.12.3-.24.43.05-.06.09-.13.14-.19Z"/>
  <path d="M185.45,129.27s0-.02,0-.03c0,0,0,0,0,0,0,0,0,.02,0,.02Z"/>
  <path d="M185.5,129.07s0,0,0,0c0,0,0,0,0,0Z"/>
  <path d="M185.47,128.66s0,0,0,.01c0,0,0,0,0,0,.02.09,0-.04,0-.01Z"/>
  <path d="M135.36,104.58c-.03.07-.03.12,0,.15.02-.05.04-.1.07-.15.04-.1.33-.22.27-.03-.02.05-.03.1-.05.15.02-.02.05-.03.06-.05.39-.57.83-1.02,1.45-1.26.22-.09.55-.17.83-.21.29-.03.58-.04.86-.02.57.03,1.12.13,1.68.27.39.09.77.16,1.16.22.01,0,.03,0,.05,0,0,0,0,0,0,0-.04,0,.06,0,0,0,0,0,0,0,0,0,.04,0,.08.01.12.02.09.02.17.03.26.05.17.03.34.07.51.11.37.08.74.17,1.1.27.82.22,1.63.47,2.43.74,1.93.65,3.82,1.39,5.69,2.19,2.14.91,4.25,1.88,6.34,2.89,2.23,1.08,4.44,2.21,6.62,3.39,2.15,1.16,4.27,2.36,6.37,3.62,1.93,1.16,3.82,2.35,5.68,3.62,1.58,1.08,3.13,2.2,4.61,3.42,1.08.9,2.16,1.84,3.04,2.94.17.21.33.42.47.65.01.02.07.11,0,.01.01.02.03.05.04.07.03.05.06.1.09.15.05.09.1.19.15.29.08.17.15.35.19.54,0,.02,0,.04.01.06,0,0,0,0,0-.01,0-.03.02.1,0,.01,0,0,0,0,0,0,0,.04.01.08.01.12,0,.07.01.15,0,.23,0,.02,0,.04,0,.06,0,0,0,0,0,0,0,0,0,0,0,0,.13-.16.31-.29.51-.28.14,0,.21.1.23.21.1-.3.11-.63.05-.93-.09-.43-.31-.82-.55-1.19-.69-1.08-1.64-1.98-2.59-2.82-1.36-1.21-2.82-2.31-4.31-3.36-1.82-1.29-3.69-2.5-5.59-3.67-2.09-1.29-4.21-2.52-6.36-3.71-2.2-1.21-4.42-2.38-6.67-3.5-2.15-1.07-4.33-2.09-6.53-3.05-1.96-.85-3.94-1.65-5.95-2.35-1.6-.56-3.22-1.07-4.88-1.41-.35-.07-.69-.13-1.04-.19-.08-.01-.15-.02-.23-.03-.04,0-.07,0-.11-.01.07.01,0,0-.02,0-.04,0-.08-.02-.12-.03-.27-.06-.53-.11-.8-.16-1.24-.22-2.59-.32-3.72.34-.66.38-1.17.94-1.46,1.64Z"/>
  <path d="M141.73,103.64c.06,0-.04,0,0,0h0Z"/>
  <path d="M185.49,129.1s0,0,0,.01c0,.05.01-.03.01-.05,0,0,0,0,0,0,0,0,0,0,0,0,0,0,0,.02,0,.03Z"/>
  <path d="M186.02,128.79c-.2,0-.38.12-.51.28,0,.02-.01.1-.01.05,0,0,0,0,0-.01,0,0,0,.02,0,.02,0,.03-.01.06-.02.08,0-.01.01-.03,0,0,0,0,0,.01,0,.02,0,0,0,0,0,0-.02.06-.03.13-.05.19,0-.07.02-.12.04-.18,0,0,0,.01-.01.02,0,.01-.01.02,0,.03,0,0,0-.01,0-.02,0,0,0,.01,0,.01-.08.15-.06.38.15.39.22,0,.43-.2.52-.38,0-.02.02-.03.02-.05-.05.06-.09.13-.14.19.12-.12.19-.27.24-.43-.02-.11-.09-.2-.23-.21Z"/>
  <path d="M185.5,129.08s0,0,0,0c0,0,0,0,0,0,0,0,0,.02,0,.03,0,0,0-.02,0-.03Z"/>
  <path d="M185.46,129.24s0,0,0,0c0,0,0-.02,0-.02,0,0,0,0,0-.01,0,.01,0,.02-.01.04Z"/>
  <path d="M135.64,104.69s.03-.1.05-.15c.06-.19-.23-.07-.27.03-.02.05-.04.1-.07.15.05.07.19.04.29-.04Z"/>
  <path d="M185.47,129.21s0,0,0,0c-.02.06-.04.11-.04.18.02-.06.03-.13.05-.19Z"/>
  <path d="M115.22,96.5c-2.12,2.72-4,5.62-6.25,8.24-2.1,2.44-4.47,4.56-7.17,6.31-2.55,1.66-5.39,2.94-8.34,3.73-3.03.81-6.18,1.1-9.31.8-3.13-.3-6.21-1.19-9.02-2.59-2.82-1.41-5.33-3.34-7.44-5.68-2.11-2.33-3.79-5.06-4.97-7.98-1.16-2.9-1.81-6-1.88-9.13-.07-3.42.4-6.79,1.36-10.07.96-3.29,2.36-6.43,3.96-9.46.42-.81.86-1.61,1.29-2.41.01-.02.02-.05.03-.08,0,0-.01,0-.02.01-.02.01-.04.03-.05.04,0,0-.01.01-.02.02-.01.01-.02.03-.04.04,0,0,0,0,0,0-.1.17-.29.35-.5.35-.21,0-.24-.24-.15-.39,0-.02.02-.03.03-.04-.02.06-.03.13-.05.19.02-.19.13-.35.26-.5-.13.09-.25.23-.32.36-.86,1.61-1.73,3.21-2.51,4.85-.76,1.6-1.45,3.24-2.05,4.91-1.18,3.3-1.97,6.76-2.12,10.27-.15,3.25.19,6.48,1.14,9.6.94,3.06,2.43,5.94,4.39,8.47,1.98,2.55,4.34,4.74,7.1,6.43,2.73,1.67,5.77,2.82,8.91,3.38,3.2.58,6.46.53,9.66-.07,3.11-.58,6.12-1.69,8.88-3.22,2.8-1.55,5.36-3.5,7.61-5.77,1.26-1.27,2.41-2.65,3.47-4.09,1.05-1.43,2.07-2.89,3.02-4.38.43-.68.88-1.36,1.32-2.03-.11.06-.22.03-.22-.09Z"/>
  <path d="M67.78,68.04s0,0,0,0c0,0-.02,0-.03.01-.04.02-.03.03.03-.01Z"/>
  <path d="M115.27,92.19c-.39-.53-.85-1-1.32-1.46-.25-.25-.48-.52-.72-.77-1.1-1.16-2.34-2.19-3.6-3.17-1.62-1.27-3.31-2.45-5.03-3.58-1.97-1.31-3.98-2.54-6.02-3.74-2.14-1.26-4.31-2.47-6.5-3.63-2.16-1.15-4.35-2.25-6.57-3.3-2.04-.97-4.11-1.89-6.2-2.73-1.75-.71-3.53-1.37-5.35-1.9-1.34-.4-2.73-.75-4.14-.85-.92-.07-2.02-.03-2.73.65-.06.05-.11.12-.16.19.1-.07.21-.12.33-.12.23,0,.27.22.22.4.01,0,.03-.02.04-.03,0,0,.01-.01.02-.01-.05.02.12-.07.01,0,0,0,0,0,0,0,.05-.03.12-.05.18-.08,0,0,0,0,0,0,0,0,.01,0,.02,0,0,0,.02,0,.02-.01,0,0,0,0-.01,0,.01,0,.02,0,.04-.01.05-.01.09-.03.14-.04.1-.02.19-.04.29-.06.02,0,.05,0,.07-.01-.01,0-.01,0-.02,0,0,0,0,0,.01,0,.06,0,.11-.01.17-.01.12,0,.23-.01.35-.01.56,0,1.12.06,1.67.15.04,0,.07.01.11.02,0,0,0,0,0,0,0,0,0,0-.01,0-.05,0,.07.01.01,0,.01,0,.03,0,.04,0,.09.02.17.03.26.05.17.03.34.07.5.1.36.08.72.17,1.08.26,1.71.45,3.39,1.04,5.04,1.68,2.02.78,4.01,1.63,5.98,2.53,2.17,1,4.32,2.05,6.45,3.15,2.18,1.13,4.34,2.3,6.46,3.51,2.04,1.17,4.06,2.38,6.04,3.63,1.79,1.14,3.56,2.32,5.27,3.57,1.38,1.01,2.74,2.07,3.99,3.23.26.24.51.48.75.73.22.23.42.48.65.7.93.9,1.96,1.79,2.29,3.1.18.71.09,1.42-.18,2.1-.01.04,0,.05,0,.08.03-.04.06-.08.09-.11.11-.14.34-.12.21.08-.03.04-.05.08-.08.12.05-.02.1-.06.13-.11.47-.71.69-1.52.57-2.37-.1-.71-.45-1.35-.87-1.92Z"/>
  <path d="M67.55,68.14s0,0,0,0c0,0,0,0,0,0Z"/>
  <path d="M67.51,68.16s-.02.01-.03.02c0,0,0,0,0,0,0,0,.02-.01.03-.02,0,0,0,0,0,0Z"/>
  <path d="M68.3,67.93s-.09.01,0,0h0Z"/>
  <path d="M67.55,68.14s0,0,.01,0c.11-.07-.06.03-.01,0,0,0,0,0,0,0Z"/>
  <path d="M67.51,68.16s0,0,.01,0c0,0-.03.02-.04.03,0,0,0,0,0,0,.01,0,.02-.01.03-.02Z"/>
  <path d="M70.6,68.07s0,0,.01,0c.06.01-.06-.01-.01,0Z"/>
  <path d="M67.56,68.14s0,0,0,0c0,0,0,0-.01,0,0,0,0,0-.02.01,0,0,0,0-.01,0,.01,0,.03-.02.04-.02Z"/>
  <path d="M67.39,68.25s-.03.02-.04.04c0,0,0,0,0,0,0,0,0,0,0,0,.01-.01.03-.03.04-.04,0,0,.01-.01.02-.02,0,0-.01,0-.02.01h0Z"/>
  <path d="M67.35,68.3s0,0,0,0c0,0,0,0,0,0,0,0,0,0,0,0Z"/>
  <path d="M67.39,68.25s0,0,0,0c0,0-.02.02-.02.02,0,0,.01-.01.02-.02Z"/>
  <path d="M67.38,68.26s0,0,0,0c-.02.02-.04.04-.03.05,0,0,0,0,0,0,0,0,.01-.02.02-.03Z"/>
  <path d="M67.36,68.29s.03-.02.04-.04h0s-.01.01-.02.01c0,0,.01-.01.02-.02.02-.03,0-.02-.01,0,0,0,0,0,0,0,0,0-.01.02-.02.03Z"/>
  <path d="M67.38,68.25s.01-.02.02-.03c-.08.09-.16.18-.24.27.07-.06.13-.12.18-.19,0,0,.01-.02.03-.05Z"/>
  <path d="M66.72,68.21s-.02.03-.03.04c-.08.15-.06.38.15.39.21,0,.4-.17.5-.35,0,0,0,0,0,0-.06.07-.12.14-.18.19.08-.09.16-.18.24-.27,0,.01-.01.02-.02.03.02-.02.03-.03.01,0,.04-.03.09-.08.03-.03,0,0-.01.01-.02.02.02-.01.04-.03.05-.04,0,0,.01,0,.02-.01,0,0,0,0,0,0-.02,0-.03.02-.05.03.02-.01.03-.02.05-.03.06-.18.01-.4-.22-.4-.12,0-.23.05-.33.12-.13.15-.24.32-.26.5.02-.06.03-.13.05-.19Z"/>
  <path d="M67.4,68.25s0,0,0,0c0,0,.01,0,.02-.01,0,0,.01-.01.02-.02.05-.06,0,0-.03.03Z"/>
  <path d="M67.48,68.18s0,0,0,0c-.02,0-.02.01-.05.03.02,0,.03-.02.05-.03Z"/>
  <path d="M115.3,96.39s-.06.08-.09.11c0,.12.1.14.22.09.03-.04.05-.08.08-.12.13-.2-.1-.22-.21-.08Z"/>
  <path d="M139.9,55.64s0,0,0,0c.03-.15.08-.31.1-.46.03-.18.05-.36.06-.54.02-.3,0-.64-.11-.92-.16-.48-.47-.89-.89-1.16-.99-.65-2.3-.61-3.42-.48-1.47.16-2.92.54-4.34.95-1.23.35-2.45.77-3.7,1.07-1.01.24-2.04.42-3.06.62-1.22.24-2.45.48-3.67.72-2.42.47-4.85.94-7.27,1.45-2.5.52-4.99,1.07-7.47,1.68-2.67.65-5.32,1.37-7.95,2.15-2.17.65-4.34,1.29-6.53,1.88-1.73.47-3.44.97-5.13,1.57-.42.15-.84.33-1.25.51.15.05.31.11.46.16.25-.07.5-.14.75-.22.45-.15.9-.29,1.35-.42.82-.23,1.63-.48,2.46-.7,1.9-.51,3.81-.98,5.7-1.52,2.65-.76,5.28-1.55,7.95-2.23,2.48-.64,4.97-1.22,7.48-1.76,2.4-.52,4.81-1,7.22-1.47,2.42-.47,4.84-.94,7.25-1.42.73-.14,1.45-.28,2.16-.48.61-.17,1.21-.35,1.82-.53,1.39-.42,2.79-.83,4.22-1.11,1.17-.23,2.52-.43,3.67-.11.48.13.87.33,1.19.71.31.37.45.9.56,1.4.03.14.04.28.06.42.01.13.03.27.03.4.09-.12.25-.22.31-.13Z"/>
  <path d="M84.98,64.78c-.1.04-.22.33-.03.27.26-.08.53-.16.79-.23-.15-.05-.31-.11-.46-.16-.1.04-.2.09-.3.13Z"/>
  <path d="M59.24,63.75c.17-.1.35-.19.54-.27-.2.05-.39.1-.59.14,0,0,0,0,0,0,.02.04.04.08.05.12Z"/>
  <path d="M66.32,62.89c.14,0,.28.02.42.03,1.12-.19,2.23-.4,3.34-.62-1.68-.06-3.36-.03-5.03.15-1.05.11-2.1.28-3.14.5,1.46-.2,2.97-.15,4.41-.06Z"/>
  <path d="M72.3,61.84c2.81-.61,5.61-1.28,8.4-1.94,3.61-.85,7.22-1.71,10.84-2.5,3.72-.81,7.45-1.58,11.17-2.36,7.45-1.57,14.9-3.17,22.39-4.58,1.82-.34,3.64-.74,5.48-1,1.35-.19,2.74-.21,4.09-.01,2.56.38,4.89,1.61,6.85,3.26,1.1.92,2.11,1.93,3.06,3.01.5.58,1.08,1.15,1.37,1.87.2.49.37,1.11.18,1.64-.35.93-1.81.64-2.5.4-.62-.22-1.27-.53-1.74-1.01-.47-.47-.83-1.05-1.18-1.62-.27-.45-.52-.91-.81-1.35,0,.04-.02.09-.03.13-.02.13-.31.28-.28.07,0-.02,0-.05,0-.08-.05.06-.08.13-.05.18.6,1.1,1.01,2.33,1.88,3.26.82.88,2.23,1.46,3.43,1.34,1.04-.1,1.94-.82,2.1-1.88.1-.63-.06-1.29-.31-1.87-.31-.71-.91-1.33-1.4-1.93-1.79-2.15-3.86-4.1-6.4-5.31-2.49-1.19-5.28-1.5-8-1.16-1.93.24-3.85.64-5.76.99-1.92.35-3.84.72-5.75,1.09-3.9.76-7.8,1.52-11.7,2.33-7.64,1.58-15.28,3.17-22.89,4.88-3.75.84-7.5,1.71-11.26,2.52-1.92.42-3.84.81-5.76,1.22-.61.13-1.22.26-1.82.4.34-.03.68-.06,1.02-.08,1.8-.1,3.6-.06,5.39.09Z"/>
  <path d="M62.79,63.5c-.61.03-1.21.1-1.81.2.6-.06,1.21-.13,1.81-.2Z"/>
  <path d="M59.19,63.63s0,0,0,0c-.16.04-.32.08-.48.12-.03.08-.02.15.09.15.08,0,.16-.01.24-.02.07-.04.14-.08.2-.12-.01-.04-.02-.08-.05-.12Z"/>
  <path d="M61.89,62.78c-.97.21-1.93.42-2.9.65.07.06.14.11.2.19.2-.05.39-.09.59-.14.11-.05.22-.1.34-.14.58-.19,1.18-.3,1.79-.39,1.04-.23,2.08-.4,3.14-.5,1.67-.17,3.35-.21,5.03-.15.74-.15,1.48-.3,2.22-.46-1.79-.15-3.59-.19-5.39-.09-.34.02-.68.05-1.02.08-.37.08-.73.16-1.1.24-.97.21-1.93.5-2.9.71Z"/>
  <path d="M58.99,63.44s-.02,0-.03,0c-.09.02-.21.17-.25.3.16-.04.32-.08.48-.12-.05-.08-.13-.13-.2-.19Z"/>
  <path d="M139.87,55.78s.02-.09.03-.13c0,0,0,0,0,0-.06-.1-.22,0-.31.13,0,.03,0,.05,0,.08-.03.21.26.06.28-.07Z"/>
  <path d="M188.74,119.18c.1-.64.2-1.28.3-1.91.21-1.33.37-2.67.53-4.01.36-2.84.7-5.68.99-8.53.29-2.82.51-5.65.65-8.49.14-2.62.21-5.23.24-7.85.03-2.51.03-5.01.01-7.52-.01-2.54-.03-5.08-.03-7.62,0-1.22.15-2.43.26-3.64.13-1.43.25-2.88.2-4.32-.04-1.19-.14-2.52-.76-3.56-.26-.44-.6-.81-1.07-1.03-.53-.26-1.14-.25-1.68-.11-.16.04-.32.09-.48.15-.15.05-.29.12-.44.19.12.06.04.21-.08.31.27-.08.59-.1.86-.1.14,0,.27,0,.41,0,.07,0,.13.01.19.02.09.01.07.01.2.03.06.01,0,0,.05,0,.03,0,.05.01.08.02.06.01.12.03.18.05.11.04.22.08.33.14.1.06.14.08.25.17.09.07.17.15.25.23.18.2.28.35.39.57.12.24.22.49.29.74.18.59.26,1.16.3,1.77.11,1.42.02,2.86-.1,4.28-.1,1.24-.26,2.49-.31,3.74-.04,1-.01,2.01,0,3.01,0,1.25.01,2.5.02,3.75.02,2.48.03,4.96.01,7.44-.02,2.55-.07,5.1-.18,7.65-.12,2.77-.3,5.53-.55,8.28-.26,2.85-.58,5.69-.87,8.53-.27,2.62-.61,5.24-.96,7.85-.05.37-.08.73-.11,1.1.09.1.18.2.28.3.11-.55.24-1.09.32-1.64Z"/>
  <path d="M188.37,121.04c.01-.07.03-.14.04-.21-.09-.1-.18-.2-.28-.3-.02.2-.03.41-.05.61-.02.17.26,0,.28-.1Z"/>
  <polygon points="195.56 131.22 195.56 131.22 195.55 131.21 195.56 131.22"/>
  <path d="M194.23,61.57c-1.42-2.21-3.49-3.94-5.73-5.29-.62-.38-1.26-.73-1.91-1.06-.3-.16-.61-.31-.92-.46-.36-.17-.77-.24-1.16-.28-1.07-.11-2.2.27-2.68,1.3-.46.98-.07,2.1.48,2.95.35.54.79,1.05,1.35,1.39.57.35,1.23.57,1.87.75.56.15,1.12.27,1.67.44.06.02.13-.02.19-.07-.03,0-.06,0-.09.02-.08.03-.12-.04-.1-.11.01-.08.1-.15.18-.18.04-.01.07-.03.1-.04,0,0,0,0,0,0-1.1-.45-2.34-.7-3.32-1.39-.91-.63-1.74-1.89-1.77-3.02-.01-.34.05-.75.32-.98.32-.27.83-.28,1.22-.25.78.06,1.39.41,2.06.78.61.34,1.21.69,1.79,1.07,2.1,1.35,4.06,2.96,5.44,5.06,1.42,2.16,2.02,4.73,2.1,7.29.11,3.9.1,7.8.08,11.69-.02,3.89-.03,7.79-.07,11.68-.07,7.06-.11,14.12-.34,21.17-.07,2.24-.15,4.49-.17,6.73-.01,1.2,0,2.4.04,3.6.02.7.07,1.4.11,2.1.05.78.2,1.55.28,2.33.04.41.1.82.15,1.23.04.07.08.15.12.22.15.28.28.58.45.85.1.15-.21.43-.3.3,0-.01-.02-.02-.03-.03-.01.04-.03.07-.04.11.1.14.4-.11.41-.27.3-5.54.22-11.1.38-16.65.21-7.08.18-14.18.23-21.26.06-8.08.07-16.16-.18-24.23-.08-2.66-.78-5.23-2.23-7.48Z"/>
  <path d="M195.56,131.22s0-.02.01-.02c.05-.07.2-.1.15.03-.02.05-.04.09-.06.14,0,.01.02.02.03.03.09.13.39-.15.3-.3-.17-.26-.3-.57-.45-.85-.04-.07-.08-.15-.12-.22.05.39.09.79.14,1.18,0,0,0,0,0,0Z"/>
  <path d="M195.56,131.22s0,0,0,0c0,.07.01.13.02.2,0,.04.03.04.04.06.01-.04.03-.07.04-.11-.03-.05-.07-.1-.11-.14Z"/>
  <path d="M195.57,131.19s0,.02-.01.02c.04.05.07.1.11.14.02-.05.04-.09.06-.14.05-.13-.1-.1-.15-.03Z"/>
  <path d="M187.48,60.93s-.07.03-.1.04c-.08.03-.16.09-.18.18-.01.07.03.13.1.11.03,0,.06-.01.09-.02.12-.09.2-.25.08-.31Z"/>
  <path d="M82.33,60.95c2.9-.63,5.78-1.34,8.67-2.02,5.75-1.37,11.52-2.75,17.35-3.74,1.55-.26,3.08-.62,4.61-.94.78-.16,1.57-.32,2.36-.44.78-.12,1.54-.18,2.28-.47.12-.05.36-.35.16-.43-.59-.24-1.2-.12-1.81-.03-.7.1-1.39.22-2.08.36-1.39.28-2.77.6-4.16.87-2.88.56-5.78,1.06-8.65,1.68-5.84,1.27-11.64,2.68-17.45,4.09-1.63.39-3.26.77-4.89,1.15-.83.19-1.66.37-2.48.56-.62.15-1.25.29-1.86.47.48.06.96.13,1.44.21.71-.12,1.43-.26,2.14-.41,1.45-.29,2.9-.61,4.35-.92Z"/>
  <path d="M73.86,62.23c-.09.03-.28.32-.08.32.68,0,1.36-.15,2.03-.26.01,0,.02,0,.03,0-.48-.08-.96-.15-1.44-.21-.18.05-.36.09-.54.16Z"/>
  <path d="M59.25,63.85c0,.1,0,.2-.02.3.57-.2,1.16-.35,1.75-.45-.58.06-1.15.11-1.73.15Z"/>
  <path d="M64.88,63.48c2.1.07,4.2.3,6.29.53,4.71.52,9.31,1.76,13.71,3.52,3.79,1.52,7.47,3.33,11.04,5.33,3.83,2.14,7.55,4.51,11.05,7.18,3.13,2.39,6.07,5.02,8.54,8.09.28.35.55.61.9.88.15.12.42-.15.36-.31-.16-.44-.33-.78-.61-1.15-.27-.36-.57-.71-.86-1.06-.61-.71-1.26-1.4-1.92-2.07-1.46-1.46-3.02-2.81-4.63-4.09-3.46-2.75-7.18-5.19-11.02-7.39-3.65-2.1-7.43-4.01-11.32-5.63-4.28-1.78-8.72-3.11-13.31-3.76-2.1-.3-4.23-.48-6.35-.62-1.31.22-2.63.41-3.94.57.7-.04,1.4-.05,2.09-.02Z"/>
  <path d="M59.25,63.85c-.07,0-.15.01-.22.02-.02.01-.04.02-.06.04-.15.1-.21.41.05.31.07-.03.14-.04.2-.06.02-.1.03-.2.02-.3Z"/>
  <path d="M59.25,63.85c.58-.04,1.15-.09,1.73-.15.6-.11,1.2-.17,1.81-.2,1.32-.16,2.63-.35,3.94-.57-.14,0-.28-.02-.42-.03-1.44-.09-2.95-.14-4.41.06-.04,0-.09.02-.14.03-.54.12-1.07.26-1.6.4-.13.04-.26.06-.39.1-.18.08-.37.17-.54.27,0,.03.01.07.02.1Z"/>
  <path d="M59.24,63.75c-.07.04-.14.07-.2.12.07,0,.15-.01.22-.02,0-.03,0-.07-.02-.1Z"/>
  <path d="M61.77,62.98s.09-.02.14-.03c-.61.08-1.21.2-1.79.39-.12.04-.23.09-.34.14.13-.03.26-.06.39-.1.53-.15,1.07-.28,1.6-.4Z"/>
  <path d="M190.83,126.19c-1.69-1.86-3.43-3.68-5.29-5.37-3.72-3.39-7.62-6.62-11.74-9.51-3.84-2.7-7.92-5.2-12.28-6.99-3.82-1.57-7.8-2.71-11.83-3.6-3.91-.87-7.97-1.63-11.99-1.58-.44,0-.85.07-1.28.15-.11.02-.32.29-.12.32.84.11,1.67.12,2.52.17.94.05,1.87.14,2.8.25,2.1.25,4.18.63,6.24,1.09,4.03.89,8.04,2.07,11.89,3.54,4.24,1.63,8.21,3.91,11.96,6.45,4.13,2.79,8.01,5.94,11.74,9.25,3.72,3.3,7.08,6.94,10.25,10.77.37.45.72.84,1.17,1.21.14-.25.3-.49.46-.73-.54-.94-1.29-1.74-1.99-2.56-.82-.96-1.65-1.91-2.5-2.85Z"/>
  <path d="M195.48,131.88s0-.01-.01-.02c-.08.16-.16.32-.25.49.18-.1.34-.31.26-.47Z"/>
  <path d="M194.86,132.34s.02.02.04.03c.09.07.21.03.32-.03.08-.16.17-.32.25-.49-.04-.09-.1-.17-.15-.25-.16.24-.32.48-.46.73Z"/>
  <path d="M193.53,125.64c-.04-.6-.08-1.2-.08-1.8-.01-1.24.08-2.47.14-3.7.12-2.57.26-5.14.35-7.72.09-2.55.04-5.09.08-7.64.03-2.53.13-5.06.33-7.59.09-1.16.26-2.32.34-3.48.08-1.11.14-2.26-.3-3.31-.07-.17-.34.08-.33.19.18,2.08-.12,4.13-.33,6.19-.26,2.48-.34,4.98-.4,7.47-.05,2.51,0,5.02-.08,7.53-.08,2.58-.23,5.16-.36,7.74-.07,1.39-.19,2.79-.2,4.19,0,.71,0,1.42,0,2.13,0,.02,0,.04,0,.06.3.38.58.78.85,1.17.07-.47.03-.94,0-1.42Z"/>
  <path d="M192.95,127.93c-.07-.09-.14-.18-.21-.27.01.05.02.1.04.15.04.1.1.13.17.12Z"/>
  <path d="M193.43,127.5c.05-.15.08-.29.1-.44-.28-.4-.56-.79-.85-1.17-.02.58-.09,1.21.07,1.77.07.09.14.18.21.27.19-.02.44-.31.48-.43Z"/>
</svg>