<svg width="36" height="18" viewBox="0 0 36 18" fill="none" xmlns="http://www.w3.org/2000/svg">
<path d="M4.66016 14.0371C4.19141 14.0371 3.72591 13.972 3.26367 13.8418C2.80794 13.7116 2.39453 13.4902 2.02344 13.1777C1.65234 12.8652 1.35612 12.4388 1.13477 11.8984C0.913411 11.3581 0.802734 10.6777 0.802734 9.85742V5.48242C0.802734 5.0332 0.89388 4.6556 1.07617 4.34961C1.25846 4.04362 1.5026 3.81576 1.80859 3.66602C2.11458 3.50977 2.44987 3.43164 2.81445 3.43164C3.18555 3.43164 3.5599 3.51302 3.9375 3.67578C4.32812 3.85807 4.71875 3.99154 5.10938 4.07617C5.50651 4.16081 5.96875 4.20312 6.49609 4.20312C7.08854 4.20312 7.67122 4.04036 8.24414 3.71484C8.82357 3.38932 9.39648 2.86849 9.96289 2.15234C10.679 1.22135 11.4603 0.700521 12.3066 0.589844C13.153 0.479167 14.0449 0.69401 14.9824 1.23438L20.2168 4.30078C20.5293 4.47656 20.7767 4.60677 20.959 4.69141C21.1478 4.76953 21.3333 4.81836 21.5156 4.83789C21.6979 4.85742 21.9388 4.86719 22.2383 4.86719C22.4596 4.86719 22.7591 4.85091 23.1367 4.81836C23.5143 4.7793 23.918 4.73372 24.3477 4.68164C24.7839 4.62956 25.2005 4.58398 25.5977 4.54492C25.9948 4.50586 26.3268 4.48633 26.5938 4.48633C27.3555 4.48633 28.0228 4.64583 28.5957 4.96484C29.1751 5.27734 29.6243 5.7168 29.9434 6.2832C30.2689 6.8431 30.4316 7.49414 30.4316 8.23633C30.4316 8.56836 30.3828 8.88411 30.2852 9.18359H28.5762C28.7585 8.89714 28.8496 8.58138 28.8496 8.23633C28.8496 7.51367 28.6608 6.97005 28.2832 6.60547C27.9056 6.24089 27.3392 6.05859 26.584 6.05859C26.3496 6.05859 26.0404 6.07812 25.6562 6.11719C25.2721 6.15625 24.8652 6.20182 24.4355 6.25391C24.0059 6.29948 23.5957 6.3418 23.2051 6.38086C22.8145 6.41992 22.4922 6.43945 22.2383 6.43945C21.8802 6.43945 21.5645 6.42318 21.291 6.39062C21.0176 6.35156 20.7376 6.27669 20.4512 6.16602C20.1712 6.04883 19.8359 5.8763 19.4453 5.64844L14.1816 2.60156C13.7259 2.34115 13.3353 2.17839 13.0098 2.11328C12.6908 2.04167 12.3913 2.08724 12.1113 2.25C11.8314 2.40625 11.5286 2.69271 11.2031 3.10938C10.5195 3.99479 9.77083 4.66211 8.95703 5.11133C8.14323 5.55404 7.32292 5.77539 6.49609 5.77539C5.80599 5.77539 5.19076 5.70703 4.65039 5.57031C4.11654 5.42708 3.60872 5.2513 3.12695 5.04297C2.95117 4.95833 2.7819 4.95182 2.61914 5.02344C2.45638 5.08854 2.375 5.23828 2.375 5.47266V9.85742C2.375 10.5736 2.46615 11.1204 2.64844 11.498C2.83073 11.8691 3.09115 12.123 3.42969 12.2598C3.76823 12.3965 4.17513 12.4648 4.65039 12.4648H6.06641V14.0371H4.66016ZM4.02539 11.5078C3.66081 11.5078 3.34831 11.4818 3.08789 11.4297C2.83398 11.3711 2.58333 11.2767 2.33594 11.1465V10.0137C2.47266 10.1569 2.67122 10.2611 2.93164 10.3262C3.19857 10.3848 3.56315 10.4141 4.02539 10.4141H6.06641V11.5078H4.02539ZM19.7285 4.93555L24.9727 8.00195C25.2786 8.17773 25.5228 8.30794 25.7051 8.39258C25.8939 8.4707 26.0794 8.51953 26.2617 8.53906C26.4505 8.55859 26.6914 8.56836 26.9844 8.56836C27.2122 8.56836 27.515 8.55208 27.8926 8.51953C28.2702 8.48047 28.6738 8.4349 29.1035 8.38281C29.5332 8.33073 29.9466 8.28516 30.3438 8.24609C30.7474 8.20703 31.0794 8.1875 31.3398 8.1875C32.1016 8.1875 32.7689 8.34701 33.3418 8.66602C33.9212 8.97852 34.3737 9.41797 34.6992 9.98438C35.0247 10.5443 35.1875 11.1953 35.1875 11.9375C35.1875 12.7122 34.9564 13.4316 34.4941 14.0957C34.0319 14.7598 33.3158 15.362 32.3457 15.9023C31.5319 16.3581 30.7604 16.7194 30.0312 16.9863C29.3021 17.2533 28.5339 17.4453 27.7266 17.5625C26.9193 17.6797 25.9915 17.7383 24.9434 17.7383H9.41602C8.94076 17.7383 8.47526 17.6732 8.01953 17.543C7.5638 17.4128 7.15039 17.1914 6.7793 16.8789C6.4082 16.5664 6.11198 16.14 5.89062 15.5996C5.66927 15.0592 5.55859 14.3789 5.55859 13.5586V9.18359C5.55859 8.73438 5.64974 8.35677 5.83203 8.05078C6.01432 7.74479 6.25521 7.51693 6.55469 7.36719C6.86068 7.21094 7.19922 7.13281 7.57031 7.13281C7.94141 7.13281 8.3125 7.21419 8.68359 7.37695C9.08073 7.55924 9.47461 7.69271 9.86523 7.77734C10.2559 7.86198 10.7148 7.9043 11.2422 7.9043C11.8411 7.9043 12.4271 7.74154 13 7.41602C13.5794 7.09049 14.1491 6.56966 14.709 5.85352C15.4251 4.92253 16.2064 4.40169 17.0527 4.29102C17.9056 4.18034 18.7975 4.39518 19.7285 4.93555ZM7.14062 13.7734C7.28385 13.8971 7.48242 13.985 7.73633 14.0371C7.99674 14.0892 8.3418 14.1152 8.77148 14.1152H24.9434C25.7376 14.1152 26.4049 14.0827 26.9453 14.0176C27.4922 13.9525 27.9805 13.8483 28.4102 13.7051C28.8398 13.5553 29.2793 13.36 29.7285 13.1191L31.4766 12.2207C32.0104 11.9408 32.388 11.6706 32.6094 11.4102C32.8372 11.1497 32.9512 10.9186 32.9512 10.7168C32.9512 10.3652 32.7786 10.1178 32.4336 9.97461C32.0951 9.83138 31.7272 9.75977 31.3301 9.75977C31.0957 9.75977 30.7865 9.7793 30.4023 9.81836C30.0247 9.85742 29.6178 9.90299 29.1816 9.95508C28.752 10.0072 28.3418 10.0527 27.9512 10.0918C27.5605 10.1243 27.2383 10.1406 26.9844 10.1406C26.6263 10.1406 26.3105 10.1243 26.0371 10.0918C25.7702 10.0527 25.4935 9.97786 25.207 9.86719C24.9271 9.75651 24.5885 9.58398 24.1914 9.34961L18.9375 6.30273C18.4818 6.04232 18.0911 5.87956 17.7656 5.81445C17.4401 5.74284 17.1374 5.78841 16.8574 5.95117C16.5775 6.11393 16.278 6.40039 15.959 6.81055C15.2754 7.69596 14.5234 8.36328 13.7031 8.8125C12.8893 9.25521 12.069 9.47656 11.2422 9.47656C10.5521 9.47656 9.93685 9.4082 9.39648 9.27148C8.86263 9.13477 8.35807 8.95898 7.88281 8.74414C7.70052 8.65951 7.52799 8.65299 7.36523 8.72461C7.20898 8.78971 7.13086 8.93945 7.13086 9.17383V13.5586C7.13086 13.5977 7.13086 13.6367 7.13086 13.6758C7.13086 13.7083 7.13411 13.7409 7.14062 13.7734ZM7.30664 14.9551C7.4694 15.4368 7.72982 15.7591 8.08789 15.9219C8.44596 16.0846 8.88542 16.166 9.40625 16.166H24.9434C25.9199 16.166 26.7663 16.1139 27.4824 16.0098C28.1986 15.9121 28.8757 15.7461 29.5137 15.5117C30.1582 15.2708 30.8516 14.9453 31.5938 14.5352C32.2578 14.1641 32.7493 13.7865 33.0684 13.4023C33.3874 13.0117 33.5566 12.5788 33.5762 12.1035C33.5827 11.9408 33.5697 11.7617 33.5371 11.5664C33.472 11.9049 33.3288 12.1914 33.1074 12.4258C32.8861 12.6602 32.515 12.9141 31.9941 13.1875L30.2559 14.0664C29.7415 14.3398 29.2337 14.5612 28.7324 14.7305C28.2311 14.8932 27.681 15.0137 27.082 15.0918C26.4831 15.1699 25.7702 15.209 24.9434 15.209H8.77148C8.17253 15.209 7.68424 15.1243 7.30664 14.9551ZM19.8066 5.98047L20.6562 6.66406L18.918 9.04688C18.8268 9.16406 18.7031 9.22917 18.5469 9.24219C18.3971 9.25521 18.2637 9.21289 18.1465 9.11523C18.0293 9.02409 17.9642 8.90365 17.9512 8.75391C17.9447 8.60417 17.987 8.4707 18.0781 8.35352L19.8066 5.98047ZM22.0137 7.10352L22.8633 7.78711L21.1543 10.1309C21.0566 10.2676 20.9362 10.3424 20.793 10.3555C20.6497 10.362 20.5098 10.3099 20.373 10.1992C20.2624 10.1081 20.1973 9.99414 20.1777 9.85742C20.1647 9.7207 20.207 9.58398 20.3047 9.44727L22.0137 7.10352ZM24.2109 8.23633L25.0605 8.91016L23.3613 11.2246C23.2637 11.3548 23.1432 11.4264 23 11.4395C22.8568 11.4525 22.7201 11.4036 22.5898 11.293C22.4792 11.2018 22.4173 11.0879 22.4043 10.9512C22.3913 10.8079 22.4336 10.6712 22.5312 10.541L24.2109 8.23633Z" fill="#808080"/>
</svg>
