<?xml version="1.0" encoding="UTF-8"?>
<svg id="Layer_2" data-name="Layer 2" xmlns="http://www.w3.org/2000/svg" viewBox="0 0 643.37 314.77">
  <defs>
    <style>
      .cls-1 {
        fill: #231f20;
      }
    </style>
  </defs>
  <g id="Layer_1-2" data-name="Layer 1">
    <path class="cls-1" d="M67.85,248.99c-9.15,0-17.83-1.25-26.03-3.76-8.21-2.5-15.45-6.55-21.71-12.12-6.27-5.57-11.18-13.03-14.75-22.37-3.57-9.33-5.36-20.83-5.36-34.49v-87.59c0-7.77,1.63-14.31,4.89-19.64,3.26-5.32,7.55-9.33,12.88-12.03,5.32-2.69,11.18-4.04,17.57-4.04s12.72,1.5,18.98,4.51c7.64,3.76,15.35,6.64,23.12,8.65,7.77,2.01,16.85,3.01,27.25,3.01,11.78,0,23.37-3.22,34.77-9.68,11.4-6.45,22.62-16.63,33.64-30.54,13.03-16.92,27.16-26.38,42.38-28.38,15.22-2,31.42,1.88,48.59,11.65l99.43,58.27c6.01,3.51,10.9,6.05,14.66,7.61,3.76,1.57,7.45,2.57,11.09,3.01,3.63.44,8.39.66,14.29.66,4.26,0,9.99-.34,17.2-1.03,7.2-.69,14.91-1.53,23.12-2.54,8.21-1,16.07-1.88,23.59-2.63,7.52-.75,13.78-1.13,18.8-1.13,13.91,0,26.06,2.82,36.46,8.46,10.4,5.64,18.48,13.53,24.25,23.68,5.76,10.15,8.65,22.06,8.65,35.71,0,4.39-.63,8.58-1.88,12.59h-24.81c2.25-3.76,3.38-7.96,3.38-12.59,0-14.78-3.85-25.94-11.56-33.46s-19.27-11.28-34.68-11.28c-4.51,0-10.43.38-17.76,1.13s-15.07,1.6-23.21,2.54c-8.15.94-15.92,1.79-23.31,2.54-7.4.75-13.47,1.13-18.23,1.13-6.77,0-12.66-.31-17.67-.94-5.01-.63-10.09-2-15.22-4.13-5.14-2.13-11.34-5.26-18.61-9.4l-99.8-58.08c-8.9-5.14-16.7-8.33-23.4-9.58-6.7-1.25-13-.28-18.89,2.91-5.89,3.2-12.09,8.99-18.61,17.39-12.78,16.42-26.6,28.7-41.44,36.84-14.85,8.15-29.92,12.22-45.2,12.22-12.78,0-24.09-1.38-33.93-4.14-9.84-2.75-19.2-6.2-28.1-10.34-4.64-2.38-9.05-2.63-13.25-.75-4.2,1.88-6.3,5.76-6.3,11.65v87.77c0,12.78,1.75,22.78,5.26,29.98,3.51,7.21,8.55,12.28,15.13,15.22,6.58,2.95,14.63,4.42,24.15,4.42h27.82v23.12h-27.63ZM53.19,205.76c-6.64,0-12.25-.47-16.82-1.41-4.58-.94-9.05-2.47-13.44-4.6v-17.1c2.75,2.13,6.55,3.67,11.37,4.61,4.82.94,11.12,1.41,18.89,1.41h42.29v17.1h-42.29ZM351.66,78.14l99.43,58.08c6.01,3.51,10.87,6.08,14.57,7.71,3.69,1.63,7.42,2.63,11.18,3.01,3.76.38,8.52.56,14.29.56,4.38,0,10.15-.34,17.29-1.03,7.14-.69,14.82-1.53,23.02-2.54,8.21-1,16.07-1.85,23.59-2.54,7.52-.69,13.78-1.03,18.8-1.03,13.91,0,26.06,2.79,36.46,8.36,10.4,5.58,18.51,13.47,24.34,23.68,5.83,10.21,8.74,22.08,8.74,35.62,0,14.29-4.2,27.41-12.59,39.38-8.4,11.97-21.61,22.96-39.66,32.99-15.29,8.65-29.67,15.44-43.14,20.39-13.47,4.95-27.44,8.52-41.91,10.71-14.47,2.19-30.86,3.29-49.15,3.29H155.63c-9.27,0-17.98-1.22-26.13-3.67-8.15-2.44-15.35-6.48-21.62-12.12-6.27-5.64-11.18-13.09-14.75-22.37-3.57-9.27-5.36-20.74-5.36-34.4v-87.78c0-7.77,1.6-14.31,4.79-19.64,3.2-5.33,7.45-9.33,12.78-12.03,5.32-2.69,11.18-4.01,17.57-3.95,6.39.06,12.72,1.54,18.98,4.42,7.64,3.76,15.35,6.64,23.12,8.65,7.77,2.01,16.79,3.01,27.07,3.01,12.03,0,23.74-3.22,35.15-9.68,11.4-6.45,22.55-16.63,33.46-30.54,13.03-16.92,27.19-26.38,42.48-28.38,15.29-2,31.45,1.94,48.49,11.84ZM111.27,249.18c2.88,2.01,6.67,3.42,11.37,4.23,4.7.82,10.74,1.22,18.14,1.22h316.14c14.16,0,26.13-.53,35.9-1.6,9.77-1.06,18.48-2.82,26.13-5.26,7.64-2.44,15.35-5.67,23.12-9.68l43.98-21.8c9.65-4.76,16.29-9.55,19.92-14.38,3.63-4.82,5.45-8.99,5.45-12.5,0-8.52-3.76-14.97-11.28-19.36-7.52-4.38-16.35-6.58-26.5-6.58-4.51,0-10.4.35-17.67,1.03-7.27.69-15.01,1.54-23.21,2.54-8.21,1-16.01,1.85-23.4,2.54-7.39.69-13.47,1.03-18.23,1.03-6.77,0-12.62-.31-17.57-.94-4.95-.62-10.03-1.97-15.22-4.04-5.2-2.07-11.44-5.23-18.7-9.49l-99.8-57.89c-8.9-5.14-16.7-8.36-23.4-9.68-6.71-1.32-13-.34-18.89,2.91-5.89,3.26-12.03,9.02-18.42,17.29-12.91,16.54-26.78,28.88-41.63,37.03-14.85,8.15-29.98,12.22-45.39,12.22-12.66,0-23.93-1.38-33.83-4.13-9.9-2.75-19.24-6.26-28-10.53-4.64-2.38-9.02-2.63-13.16-.75-4.13,1.88-6.2,5.76-6.2,11.65v91.53c0,1.13.12,2.25.38,3.38ZM114.09,267.22c3.01,9.15,8.02,15.51,15.04,19.08,7.02,3.57,15.79,5.36,26.31,5.36h301.48c17.29,0,32.52-.97,45.67-2.91,13.16-1.94,25.81-5.2,37.97-9.77,12.15-4.57,25.37-10.81,39.66-18.7,12.41-7.02,21.74-14.1,28-21.24,6.26-7.14,9.84-14.97,10.71-23.49.25-2.5.19-5.26-.19-8.27-1.38,4.89-3.92,9.15-7.61,12.78-3.7,3.64-9.37,7.46-17.01,11.46l-43.79,21.24c-9.02,4.64-17.95,8.33-26.78,11.09-8.83,2.76-18.55,4.76-29.13,6.01-10.59,1.25-23.09,1.88-37.5,1.88H140.78c-11.03,0-19.92-1.5-26.69-4.51ZM356.36,95.24l13.53,10.53-32.89,45.67c-1.38,1.76-3.26,2.76-5.64,3.01-2.38.25-4.51-.38-6.39-1.88-1.88-1.38-2.91-3.22-3.1-5.54-.19-2.32.41-4.42,1.79-6.3l32.7-45.49ZM397.71,117.42l13.72,10.34-31.76,43.79c-1.5,2.13-3.38,3.32-5.64,3.57-2.25.25-4.45-.5-6.58-2.26-1.76-1.38-2.76-3.13-3.01-5.26-.25-2.13.38-4.26,1.88-6.39l31.39-43.79ZM438.88,139.41l13.53,10.15-30.83,42.67c-1.5,2.01-3.38,3.13-5.64,3.38-2.25.25-4.39-.44-6.39-2.07-1.76-1.38-2.76-3.16-3.01-5.36-.25-2.19.38-4.29,1.88-6.3l30.45-42.48Z"/>
  </g>
</svg>