<?xml version="1.0" encoding="UTF-8"?>
<svg id="Layer_1" data-name="Layer 1" xmlns="http://www.w3.org/2000/svg" viewBox="0 0 251 205">
  <defs>
    <style>
      .cls-1 {
        fill: #fff;
      }
    </style>
  </defs>
  <path class="cls-1" d="M183.38,34.32c.73.55,2.75,1.42,3.66,1.8,3.17,1.3,8.63,2.84,12.05,2.77.52,0,.91-.07,1.34-.39.11-.38-2.43-1.61-2.82-1.79-3.04-1.32-7.11-2.4-10.39-2.82-1.34-.17-2.73-.2-4.07-.1-.14.29.04.38.24.53Z"/>
  <path class="cls-1" d="M175.41,90.72c2.23.93,6.09,1.53,8.54,1.77,1.35.13,3.48.71,3.94-.91,2.55-8.99,4.7-18.22,6.87-27.3l5.76-24.16-.18-.46c-6.28-.05-12.37-2.1-17.94-4.87-.66,3.07-1.11,6.2-1.73,9.29-1.48,7.28-3.24,14.46-5.11,21.64-.09.34-.04.69-.13,1.03-1.03,3.91-2.79,8.39-3.52,12.25-.26,1.37.85,2.35,1.38,3.54.59,1.32,1,3.06,1.17,4.5.14,1.19-.32,3.13.95,3.66Z"/>
  <path class="cls-1" d="M79.51,56.7c-10.27-1.68-16.31,2.95-16.16,13.61.21,14.27,5.14,30.77,22.52,30.18,7.74-.26,15.23-4.2,22.56-4.02,5.61.14,10.32,6.96,14.03,10.6,10.95,10.75,21.43,13.57,33.32,2.41,3.15-2.96,9.85-10.68,11.02-14.69,2.47-8.44-2.73-13.6-10.23-16.25-8.6-3.03-17.68-5.66-26.43-8.32-.33-.1-.61-.33-.94-.44l-18.2-5.15c-10.44-2.16-20.96-6.22-31.48-7.95ZM142.88,101.9c1.8-1.53,4.17-2.65,6.53-2.9l-6.53,2.9ZM163.87,87.73l-.36.75c-8.06,4.4-16.28,8.55-24.64,12.36-.9.41-2.4,1.2-3.26,1.46-.21.06-.33.1-.54,0l.04-.45,28.76-14.11ZM137.13,73.49l.4.73-35.58,19.45-.4-.73,35.58-19.45ZM126.83,75.6c-.7,1.21-2.27,1.98-3.47,2.71-2.69,1.64-6.47,4.12-9.23,5.37-.17.08-.99.46-1.09.3,4.35-3.16,9.06-5.83,13.79-8.38ZM116.45,68.01l.58-.14-.39.7c-11.36,6.58-23.13,12.57-34.55,19.1l-1.13.23s.58-.49.7-.57c2.11-1.4,4.72-2.81,6.95-4.1,9.17-5.28,18.62-10.03,27.84-15.22ZM100.39,64.33c-5.36,4.22-12.28,7.39-18.12,10.93l-3.15,1.33,21.85-12.85c-.06.27-.36.43-.57.59Z"/>
  <path class="cls-1" d="M117.85,153.56c1.17-1.03,3.81-3.88,4.09-5.36.14-.71-.74-2.68-.97-3.54-.46-1.73-.69-3.92-1.24-5.54-.07-.19-.24-.69-.46-.7-1.65,1.83-3.06,3.63-5.08,5.09-4.71,3.4-9.51,4.6-15.12,2.53-1.38-.51-2.63-1.54-3.91-2.02-.23-.09-.66-.3-.88-.13-.17.17-.18.39-.21.61-.19,1.4.12,3.78.09,5.34-.03,1.52-.4,3.71-.29,5.07.08.9,1.14,1.61,1.87,2.08,5.97,3.89,17.04,1.02,22.11-3.44Z"/>
  <path class="cls-1" d="M113.09,59.8c-3.91-1.16-4.92-1.14-12.4-2.92-7.49-1.78-15.14-3.71-22.72-5.12-7-1.3-11.22-2.75-16.18,3.43-11.15,13.91-4.51,45.37,12.41,52.32,5.6,2.3,13.72,2.02,19.58.75,3.9-.84,6.92-3.42,10.69-4.48,6.79-1.92,8.75,4.4,11.72,8.8,3.15,4.66,12.2,10.76,17.63,12.14,18.77,4.74,42.62-19.9,39.79-38.28-.63-4.11-2.63-6.78-6.41-8.54-5.97-2.77-12.96-4.88-19.22-7.05-7.41-2.57-14.86-5.18-22.39-7.32-.83-.24-2.86-.69-3.75-1.16-.9-.01-4.94-1.45-8.74-2.58ZM125.98,68.11c.34.1.61.33.94.44,9.03,2.72,18.46,5.31,27.33,8.42,9.59,3.36,16.91,8.04,12.69,19.42-1.29,3.47-7.44,10.57-10.23,13.27-11.85,11.47-22.84,9.45-34.25-1.5-5.62-5.39-8.6-11.85-17.68-10.71-4.77.6-9.76,2.64-14.77,3.38-20.76,3.04-26.78-12.94-27.49-30.29-.43-10.42,5.83-16.05,16.02-14.73,10.77,1.4,21.81,6,32.52,8.08l14.93,4.22Z"/>
  <path class="cls-1" d="M184.02,93.29c-1.57-.18-3.29-.37-4.82-.71-.74-.16-4.06-1.35-4.51-1-.58,1.04-.47,2.31-.73,3.41-1.04,4.43-2.84,8.45-5.22,12.3l6.24,1.64c3.07.37,6.92,2.36,9.14-.79,1.76-2.49,4.13-10.27,3.65-13.27-.32-2-2.17-1.41-3.75-1.58Z"/>
  <path class="cls-1" d="M180.73,111.06c-.12-.21-.6-.38-.84-.44-1.23-.31-2.82-.4-4.11-.7-2.11-.49-4.48-1.37-6.59-1.73-.29-.05-.8-.07-1.07.02-.61.21-2.17,2.61-2.74,3.26-2.42,2.77-4.06,3.73-5.24,7.6-1.7,5.58-2.96,11.44-4.41,17.07-2.59,10.01-7.24,30.2-18.52,33.72-7.51,2.34-13.96-3.76-16.87-10.11-.69-1.51-.97-3.76-1.59-4.98-.08-.15-.1-.38-.32-.4-3.15,1.89-6.57,3.72-10.17,4.55-2.15.5-4.36.62-6.53.98-.34.31.62,3.43.79,4,5.09,17.09,22.06,31.53,40.69,26.46,8.67-2.36,12.48-7.99,16.52-15.55,4.05-7.59,7.14-15.63,9.77-23.81,3.77-11.72,7.44-24.34,10.38-36.29.17-.67,1.09-3.23.86-3.65Z"/>
  <path d="M121.54,62.19c.07.06.17.13.3.19.1,0,.17-.01.18-.05.05-.12-.37-.41-.75-.64-.01.19.14.39.28.5Z"/>
  <path d="M188.52,91.46c.73-3.45,2.11-7.08,3.02-10.54,2.81-10.72,5.18-21.63,7.73-32.44.64-2.71,1.53-5.64,2.07-8.33.43-2.15-.04-2.52-1.89-3.5-3.58-1.9-8.91-3.04-12.93-3.56-.97-.13-4-.56-4.6.35-.58.88-.59,3.06-.8,4.17-1.83,9.77-4.11,19.46-6.62,29.07-.09.34-.04.69-.13,1.03l-3.2,11.18c-3.73-1.55-7.46-3.15-11.24-4.6-8.88-3.4-17.9-6.31-26.98-9.09-.33-.1-.61-.33-.94-.44l-10.76-3.07c.39.24.8.53.75.64-.02.04-.08.05-.18.05.89.47,2.92.92,3.75,1.16,7.53,2.14,14.98,4.75,22.39,7.32,6.26,2.17,13.24,4.29,19.22,7.05,3.79,1.75,5.78,4.43,6.41,8.54,2.83,18.38-21.02,43.02-39.79,38.28-5.43-1.37-14.48-7.48-17.63-12.14-2.98-4.4-4.93-10.72-11.72-8.8-3.77,1.07-6.79,3.64-10.69,4.48-5.86,1.27-13.98,1.55-19.58-.75-16.92-6.95-23.56-38.41-12.41-52.32,4.96-6.19,9.18-4.73,16.18-3.43,7.58,1.4,15.23,3.33,22.72,5.12,7.48,1.78,8.49,1.75,12.4,2.92,3.8,1.13,7.84,2.57,8.74,2.58-.12-.06-.22-.13-.3-.19-.13-.12-.29-.32-.28-.5-5-1.56-9.2-2.79-12.28-3.67-26.39-7.53-19.53-4.79-30.81-6.95-5.81-1.11-10.85-2.67-15.52,2.03-12.25,12.31-7.39,39.58,4.42,50.73,7.61,7.19,20.16,7.49,29.65,4.36,3.04-1,7.13-4.38,10.5-3.96,4.22.53,5.94,5.14,7.93,8.23,3.02,4.68,11.35,10.65,16.61,12.45,8.57,2.94,17.65-.05,24.7-5.12.36-.26,3.17-2.86,3.5-2.22l-3.98,13.89c-2.63,10.69-6.43,30.91-16.88,36.77-8.64,4.85-16.61-3.57-19.05-11.32-.24-.75-.74-2.41-.63-3.12.17-1.1.86-1.33,1.44-2.12.57-.77,1.96-2.75,2.01-3.63.02-.38-1.07-3.23-1.27-3.97-.48-1.81-.69-3.89-1.28-5.64-.29-.87-.68-1.37-1.65-.85-3.97,6.14-11.48,10.55-18.84,7.92-1.39-.5-4.88-2.67-6-2.61-.61.03-.55,1.05-.57,1.47-.06,1.74.17,3.64.14,5.43-.02,1.62-.35,3.54-.28,5.07.08,1.74,2.91,3.49,4.43,4.01,1.07.36,2.21.17,3,1.09.55.65.93,3.13,1.23,4.11,5.3,17.26,21.6,31.68,40.63,27.26,8.46-1.96,12.91-6.97,16.95-14.33,10.41-18.94,15.74-41.55,21.29-62.37.21-.81.88-3.61,1.38-4,.49-.38,1.26-.46,1.92-1.06,2.23-2.06,4.17-9.2,4.55-12.24.27-2.17-.48-3.58,0-5.87ZM183.14,33.79c1.34-.1,2.73-.07,4.07.1,3.28.42,7.36,1.5,10.39,2.82.39.17,2.93,1.4,2.82,1.79-.43.32-.82.38-1.34.39-3.42.06-8.88-1.48-12.05-2.77-.92-.38-2.93-1.25-3.66-1.8-.2-.15-.38-.24-.24-.53ZM174.45,87.06c-.17-1.44-.58-3.18-1.17-4.5-.54-1.19-1.64-2.17-1.38-3.54.72-3.86,2.48-8.34,3.52-12.25.09-.34.04-.69.13-1.03,1.87-7.18,3.64-14.37,5.11-21.64.63-3.09,1.07-6.22,1.73-9.29,5.58,2.77,11.67,4.82,17.94,4.87l.18.46-5.76,24.16c-2.16,9.08-4.32,18.31-6.87,27.3-.46,1.62-2.59,1.04-3.94.91-2.45-.24-6.3-.84-8.54-1.77-1.27-.53-.81-2.47-.95-3.66ZM95.74,157c-.72-.47-1.79-1.18-1.87-2.08-.11-1.36.26-3.55.29-5.07.03-1.56-.28-3.95-.09-5.34.03-.22.03-.44.21-.61.21-.17.65.04.88.13,1.28.49,2.53,1.52,3.91,2.02,5.61,2.06,10.41.87,15.12-2.53,2.02-1.46,3.43-3.26,5.08-5.09.22.01.4.51.46.7.56,1.61.79,3.81,1.24,5.54.23.86,1.11,2.83.97,3.54-.29,1.48-2.92,4.33-4.09,5.36-5.06,4.46-16.14,7.32-22.11,3.44ZM169.49,151.01c-2.63,8.18-5.72,16.22-9.77,23.81-4.04,7.56-7.85,13.19-16.52,15.55-18.63,5.07-35.6-9.37-40.69-26.46-.17-.58-1.13-3.7-.79-4,2.17-.35,4.39-.48,6.53-.98,3.61-.83,7.03-2.66,10.17-4.55.22.02.24.25.32.4.63,1.23.9,3.47,1.59,4.98,2.9,6.35,9.36,12.45,16.87,10.11,11.28-3.51,15.93-23.71,18.52-33.72,1.46-5.64,2.72-11.5,4.41-17.07,1.18-3.88,2.82-4.84,5.24-7.6.57-.65,2.13-3.04,2.74-3.26.27-.09.78-.07,1.07-.02,2.11.36,4.48,1.24,6.59,1.73,1.3.3,2.88.39,4.11.7.24.06.72.23.84.44.23.42-.69,2.98-.86,3.65-2.93,11.95-6.61,24.57-10.38,36.29ZM184.13,108.14c-2.22,3.15-6.08,1.16-9.14.79l-6.24-1.64c2.37-3.85,4.17-7.87,5.22-12.3.26-1.1.15-2.38.73-3.41.44-.35,3.76.83,4.51,1,1.54.34,3.26.53,4.82.71,1.58.18,3.43-.42,3.75,1.58.48,3.01-1.89,10.79-3.65,13.27Z"/>
  <path d="M78.53,55.81c-10.19-1.32-16.45,4.3-16.02,14.73.71,17.35,6.72,33.33,27.49,30.29,5.02-.73,10-2.78,14.77-3.38,9.07-1.14,12.06,5.31,17.68,10.71,11.41,10.95,22.4,12.97,34.25,1.5,2.8-2.71,8.95-9.8,10.23-13.27,4.22-11.38-3.1-16.06-12.69-19.42-8.87-3.11-18.3-5.69-27.33-8.42-.34-.1-.61-.33-.94-.44l-14.93-4.22c-10.71-2.08-21.74-6.68-32.52-8.08ZM129.19,69.8c.34.1.61.33.94.44,8.74,2.66,17.83,5.29,26.43,8.32,7.5,2.65,12.7,7.8,10.23,16.25-1.17,4-7.87,11.72-11.02,14.69-11.89,11.16-22.38,8.35-33.32-2.41-3.7-3.64-8.41-10.46-14.03-10.6-7.33-.18-14.82,3.76-22.56,4.02-17.38.58-22.31-15.91-22.52-30.18-.15-10.67,5.89-15.3,16.16-13.61,10.52,1.73,21.04,5.78,31.48,7.95l18.2,5.15Z"/>
  <path d="M88.61,83.22c-2.23,1.29-4.83,2.7-6.95,4.1-.12.08-.72.53-.7.57l1.13-.23c11.42-6.52,23.19-12.52,34.55-19.1l.39-.7-.58.14c-9.22,5.19-18.67,9.93-27.84,15.22Z"/>
  <rect x="99.27" y="83.17" width="40.54" height=".83" transform="translate(-25.44 67.58) rotate(-28.66)"/>
  <path d="M135.61,102.29c.86-.26,2.36-1.05,3.26-1.46,8.35-3.81,16.58-7.96,24.64-12.36l.36-.75-28.76,14.11-.04.45c.21.11.34.07.54,0Z"/>
  <path d="M82.27,75.26c5.85-3.54,12.76-6.71,18.12-10.93.21-.16.51-.32.57-.59l-21.85,12.85,3.15-1.33Z"/>
  <path d="M114.13,83.68c2.77-1.25,6.55-3.73,9.23-5.37,1.2-.73,2.77-1.5,3.47-2.71-4.73,2.55-9.44,5.22-13.79,8.38.1.16.92-.22,1.09-.3Z"/>
  <path d="M142.88,101.9l6.53-2.9c-2.36.25-4.73,1.37-6.53,2.9Z"/>
</svg>