<?xml version="1.0" encoding="UTF-8"?>
<svg id="Layer_1" data-name="Layer 1" xmlns="http://www.w3.org/2000/svg" viewBox="0 0 251 205">
  <defs>
    <style>
      .cls-1 {
        fill: #d1d2d3;
      }

      .cls-2 {
        fill: #fff;
      }

      .cls-3 {
        fill: #221f1f;
      }

      .cls-4 {
        fill: #272660;
      }
    </style>
  </defs>
  <path class="cls-2" d="M60.66,63.39c3.39-3.19,43.8-27.06,72.24-23.67,8.04.96,20.05,5.52,26.4,9.16,19.23,11,30.5,58.57,30.98,63.34.11,1.06.14,2.28-.63,3.02-2.36-10.64-7.19-17.77-12.08-22.6-6.36-6.28-12.82-8.66-14.12-9.79-1.22-1.07-6.21-10.53-29.16-17.9-11.21-3.6-20.38-2.75-29.84-1.8-1.43-2.61-8.37-6.67-18.79-6.29-8.04.29-19.19,4.41-25.01,6.53"/>
  <path class="cls-2" d="M136.43,121.89c10.79-7.6,24.32-.77,30.7,5.75.43.44,1.14.66,1.74.5.47-.12.81-.52,1.11-.9,1.53-1.94,2.84-4.06,4.55-5.85,3.29-3.44,10.37-6.17,15.13-6.16,0,0-7.4-19.4-12.08-22.6-4.69-3.21-14.12-9.79-14.12-9.79,0,0-10.51-11.59-17.34-13.27-4.51-1.11-8.27-3.43-8.27-3.43,0,0-9.71,24.74-11.1,29.75-1.39,5.01-2.72,12.72-2.72,12.72,4.36,2.75,10.16,7.33,12.41,13.27"/>
  <path class="cls-2" d="M118.68,105.69c-15.11-4.3-26.65,1.44-28.87,1.95.07-10.48-5.85-14.6-18.02-18.12-1.76-.51-3.03-2.28-3.67-3.99-.31-.84-.37-1.76-.46-2.65-.48-4.75.72-15.15-7-19.49,0,0,19.57-7.02,29.15-6.53,9.58.49,14.65,6.29,14.65,6.29,0,0,28.96-.95,28.18,1.3-.79,2.25-13.96,41.25-13.96,41.25Z"/>
  <polygon class="cls-2" points="137.84 66.15 132.63 64.44 105.5 155.39 110.41 157.43 129.02 91.08 137.84 66.15"/>
  <path class="cls-2" d="M141.05,41.46c.55-2.76,4.95-9.22,5.71-9.94.44-.42,1.02-.81,1.61-.66.5.12.84.61.94,1.11s0,1.02-.1,1.52c-.54,2.55-1.5,7.41-2.64,9.75"/>
  <path class="cls-2" d="M111.2,158.11c-1.1-.38-2.2-.76-3.31-1.15-.96-.33-2.03-.66-2.95-.23-1.05.49-1.44,1.75-1.72,2.87-1.02,4.05-2.05,8.1-3.07,12.15-.06.23-.11.47-.02.69.11.24.37.36.62.46,1,.4,2.03.75,3.07,1.04.82.23,1.77.4,2.47-.09.51-.35.75-.97.97-1.55,1.63-4.48,2.94-9.08,3.94-13.75"/>
  <path class="cls-1" d="M69.32,59.13c5.72-.94,11.49-1.81,17.29-1.72,5.8.08,11.68,1.16,16.78,3.91.91.49,1.8,1.04,2.79,1.34,1.26.39,2.61.36,3.94.32,5.24-.14,10.47-.27,15.71-.41,1.31-.03,2.68-.06,3.88.48,1.2.54,2.17,1.82,1.92,3.11-.17.83-.78,1.48-1.26,2.18-.66.97-1.08,2.1-1.21,3.27-.19,1.71,1.29,6.34-1.67,4.32-2.24-1.52-8.21.98-10.91.86-2.67-.11-5.41-.25-7.85-1.34-1.7-.77-3.16-1.97-4.77-2.91-4.11-2.41-9.03-3.08-13.79-3-.77.01-1.56.04-2.27-.25-.6-.25-1.08-.7-1.57-1.13-4.83-4.29-9.09-3.61-23.84-3.48"/>
  <path class="cls-1" d="M137.03,65.86c8.12,2.59,17.38,7,23.91,12.47.95.8,1.9,1.66,2.41,2.79.2.43.32.9.58,1.3.42.64,1.13,1.02,1.8,1.39,9.21,5.06,16.68,13.23,20.89,22.86,1.13,2.59,2.05,5.49,1.25,8.2-3.02-3.04-6.04-6.07-9.06-9.11-2.12-2.13-4.24-4.26-6.61-6.11-2.75-2.14-5.81-3.85-8.85-5.56-2.68-1.51-5.36-3.01-8.04-4.52-2.75-1.54-5.57-3.11-8.69-3.62-1.29-.21-2.62-.24-3.83-.72-1.15-.46-2.11-1.29-3.16-1.94-2.05-1.26-4.52-5.34-6.92-5.1,1.87-5.28,3.93-6.98,6.16-12.11"/>
  <path class="cls-3" d="M189.66,116.26c-.1,0-.2-.01-.29-.04-.35-.11-.62-.4-.7-.76-1.97-8.87-5.94-16.31-11.8-22.1-4.47-4.42-9-6.86-11.7-8.32-1.16-.63-1.93-1.04-2.37-1.43-.23-.2-.47-.5-.82-.95-2.05-2.58-8.29-10.43-27.98-16.75-11.19-3.59-20.46-2.66-29.42-1.75-.41.04-.8-.17-1-.53-1.2-2.19-7.66-6.13-17.85-5.76-7.75.28-18.6,4.24-24.42,6.37l-.28.1c-.46.17-.96-.01-1.22-.42-.25-.41-.18-.95.17-1.28,3.57-3.36,44.36-27.36,73.06-23.94,8.24.98,20.32,5.58,26.79,9.28,10.37,5.93,18.22,22.05,22.97,34.53,5.21,13.68,8.25,26.89,8.52,29.6.13,1.33.13,2.82-.93,3.85-.19.19-.45.29-.71.29ZM117.08,61.29c5.4,0,11.14.63,17.52,2.68,20.28,6.51,26.81,14.73,28.96,17.43.22.28.48.6.57.68.28.24,1.08.67,2,1.17,2.8,1.51,7.48,4.04,12.16,8.66,4.26,4.21,7.57,9.24,9.88,15.01-1.33-5.58-3.81-14.51-7.31-23.68-4.64-12.17-12.23-27.85-22.08-33.48-6.32-3.62-18.29-8.11-26.02-9.03-14.81-1.77-32.64,4.08-45,9.29-7.69,3.24-14.54,6.79-19.38,9.56,5.52-1.8,12-3.56,17.23-3.75,10.01-.36,17.13,3.31,19.34,6.23,3.93-.4,7.92-.78,12.11-.78Z"/>
  <path class="cls-3" d="M104.45,64.16c-.2,0-.41-.06-.58-.18-.46-.32-.57-.96-.25-1.42,6.56-9.37,18.06-20.37,28.97-23.81.54-.17,1.11.13,1.28.67.17.54-.13,1.11-.67,1.28-10.4,3.28-21.76,14.24-27.91,23.03-.2.28-.52.44-.84.44Z"/>
  <path class="cls-3" d="M164.94,83.77s-.1,0-.15-.01c-.56-.08-.95-.6-.87-1.16.98-6.86-5.21-30.82-6.68-33.07-.31-.47-.18-1.1.3-1.41.47-.31,1.1-.18,1.41.3,1.07,1.64,3.15,9.27,4.57,15.63.94,4.21,3.05,14.46,2.42,18.85-.07.51-.51.88-1.01.88Z"/>
  <path class="cls-3" d="M146.57,44.26c-.15,0-.3-.03-.45-.1-.51-.25-.72-.86-.47-1.36.98-2.01,1.86-6.21,2.39-8.73l.17-.79c.09-.41.16-.8.1-1.1-.04-.19-.15-.3-.18-.32-.03-.01-.26.03-.67.41-.72.69-4.92,6.92-5.41,9.4-.11.55-.65.91-1.2.8-.55-.11-.91-.65-.8-1.2.6-3.03,5.14-9.66,6.01-10.48.86-.81,1.72-1.12,2.56-.91.84.21,1.51.95,1.7,1.9.14.69.03,1.33-.1,1.93l-.17.79c-.58,2.77-1.46,6.97-2.55,9.2-.18.36-.54.57-.92.57Z"/>
  <path class="cls-3" d="M168.47,129.21c-.76,0-1.54-.31-2.07-.86-6.13-6.26-19.01-12.93-29.39-5.63-.46.32-1.1.21-1.42-.25-.32-.46-.21-1.1.25-1.42,5.06-3.56,11.24-4.45,17.87-2.57,5.11,1.45,10.4,4.61,14.15,8.44.19.19.52.29.76.23.17-.04.44-.39.56-.54.52-.66,1.02-1.36,1.51-2.03.95-1.31,1.94-2.67,3.1-3.89,3.37-3.52,10.64-6.48,15.87-6.47.56,0,1.02.46,1.02,1.02,0,.56-.46,1.02-1.02,1.02-.01,0-.02,0-.04,0-4.67,0-11.37,2.72-14.36,5.84-1.07,1.11-1.97,2.36-2.92,3.67-.5.69-1.02,1.41-1.56,2.1-.29.36-.82,1.04-1.65,1.26-.21.05-.43.08-.65.08Z"/>
  <path class="cls-3" d="M136.43,122.91c-.41,0-.8-.25-.96-.66-2.14-5.65-7.7-10.06-12-12.77-.48-.3-.62-.93-.32-1.41.3-.48.93-.62,1.41-.32,4.56,2.87,10.48,7.59,12.82,13.78.2.53-.07,1.12-.59,1.32-.12.05-.24.07-.36.07Z"/>
  <path class="cls-3" d="M89.81,108.66c-.23,0-.46-.08-.64-.22-.24-.2-.39-.49-.38-.8.06-9.05-4.3-13.37-17.29-17.13-1.84-.53-3.46-2.26-4.34-4.62-.32-.86-.4-1.73-.48-2.57l-.03-.34c-.08-.84-.12-1.85-.15-2.91-.18-5.26-.42-12.46-6.33-15.79-.49-.28-.67-.9-.39-1.39.28-.49.9-.67,1.39-.39,6.91,3.89,7.19,12.08,7.37,17.5.04,1.08.07,2.01.15,2.78l.03.35c.07.74.14,1.44.36,2.05.51,1.36,1.56,2.95,2.99,3.37,11.44,3.31,18.25,7.33,18.73,17.7.06-.02.13-.05.19-.07,4.03-1.43,14.72-5.24,27.96-1.47.54.15.86.72.7,1.26-.15.54-.72.86-1.26.7-12.61-3.59-22.5-.07-26.72,1.43-.73.26-1.26.45-1.64.54-.08.02-.15.03-.23.03Z"/>
  <path class="cls-3" d="M69.72,88.16c-.24,0-.49-.09-.68-.26-.42-.38-.45-1.02-.08-1.44,3.37-3.74,10.15-10.4,17.07-16.16,8.2-6.82,13.85-10.19,16.83-9.99.56.04.99.52.95,1.09-.04.56-.53.99-1.09.95-5.16-.35-24.01,16.32-32.25,25.48-.2.22-.48.34-.76.34Z"/>
  <path class="cls-3" d="M89.81,108.66c-.15,0-.31-.03-.45-.11-.51-.25-.71-.86-.46-1.37,5.5-11.12,19.92-29.37,35.05-44.39.4-.4,1.05-.39,1.44,0,.4.4.39,1.05,0,1.44-14.99,14.88-29.24,32.91-34.66,43.85-.18.36-.54.57-.92.57Z"/>
  <path class="cls-3" d="M137.84,121.36c-.14,0-.28-.03-.42-.09-.51-.23-.74-.84-.51-1.35,7.01-15.56,5.04-39.43,4.3-48.42-.17-2.03-.27-3.25-.23-3.82.03-.56.52-.99,1.08-.96.56.03.99.52.96,1.08-.03.42.09,1.79.23,3.53.75,9.13,2.75,33.39-4.47,49.43-.17.38-.54.6-.93.6Z"/>
  <path class="cls-3" d="M168.55,128.54c-.54,0-.99-.42-1.02-.96-.22-3.83-11.61-48.38-15.41-53.63-.33-.46-.23-1.09.23-1.43.46-.33,1.09-.23,1.43.23,2.38,3.29,6.88,18.88,9.34,27.88,3.37,12.31,6.33,24.6,6.46,26.83.03.56-.4,1.05-.96,1.08-.02,0-.04,0-.06,0Z"/>
  <path class="cls-3" d="M105.85,157.15c-.1,0-.2-.02-.3-.05-.54-.17-.84-.74-.67-1.28.84-2.69,9.78-35.42,13.59-49.37.64-2.35,10.9-36.99,13.24-42.21.23-.51.83-.74,1.35-.51.51.23.74.83.51,1.35-2.3,5.15-12.5,39.57-13.13,41.91-4.73,17.34-12.79,46.82-13.61,49.44-.14.44-.54.72-.97.72Z"/>
  <path class="cls-3" d="M110.42,158.45c-.1,0-.21-.02-.31-.05-.54-.17-.83-.75-.66-1.28,1.66-5.16,4.63-16.03,8.08-28.62,6.06-22.16,13.6-49.75,18.56-62.99.2-.53.79-.8,1.31-.6.53.2.8.79.6,1.31-4.92,13.16-12.45,40.69-18.5,62.82-3.45,12.61-6.43,23.5-8.1,28.71-.14.43-.54.71-.97.71Z"/>
  <path class="cls-3" d="M105.18,175.19c-.57,0-1.14-.12-1.63-.26-1.08-.3-2.15-.66-3.18-1.08-.29-.12-.89-.36-1.17-.99-.24-.54-.11-1.07-.04-1.35l3.07-12.16c.25-.98.71-2.81,2.28-3.54,1.35-.63,2.83-.12,3.72.19l3.31,1.15c.49.17.77.68.66,1.18.03.14.04.29,0,.45-1,4.7-2.34,9.37-3.98,13.88-.21.59-.54,1.49-1.34,2.04-.53.37-1.12.5-1.7.5ZM101.15,171.97c.96.38,1.95.72,2.95.99.52.14,1.26.31,1.62.06.25-.17.42-.6.59-1.07,1.55-4.28,2.83-8.7,3.8-13.14l-2.55-.88c-.8-.28-1.63-.53-2.18-.27-.64.3-.94,1.29-1.17,2.2l-3.06,12.11ZM101.1,172.19h0Z"/>
  <path class="cls-3" d="M78.06,87.65c-.21,0-.42-.07-.59-.23-.36-.32-.38-.88-.06-1.24,3.04-3.35,6.02-6.83,8.85-10.35.3-.38.85-.44,1.23-.13.38.3.43.85.13,1.23-2.86,3.54-5.86,7.05-8.92,10.43-.17.19-.41.29-.65.29Z"/>
  <path class="cls-3" d="M101.49,100.55c-.15,0-.3-.04-.43-.11-.42-.24-.57-.77-.33-1.19,1.54-2.71,3.3-5.32,5.23-7.76.3-.38.85-.44,1.23-.14.38.3.44.85.14,1.23-1.88,2.37-3.59,4.91-5.08,7.54-.16.28-.46.44-.76.44Z"/>
  <path class="cls-3" d="M134.6,113.04s-.1,0-.15-.01c-.48-.08-.8-.53-.71-1.01.5-2.9,1.25-5.78,2.22-8.56.16-.46.66-.7,1.12-.54.46.16.7.66.54,1.12-.94,2.69-1.67,5.48-2.15,8.28-.07.43-.44.73-.86.73Z"/>
  <path class="cls-3" d="M162.34,119.97c-.36,0-.7-.22-.82-.58l-4.23-11.8c-.16-.45.07-.96.53-1.12.45-.16.96.07,1.12.53l4.23,11.8c.16.45-.07.96-.53,1.12-.1.04-.2.05-.29.05Z"/>
  <path class="cls-4" d="M171.41,117.15c-.33,0-.65-.19-.8-.52-1.23-2.77-2.26-5.65-3.04-8.57-.12-.47.15-.95.62-1.07.47-.13.95.15,1.07.62.76,2.84,1.75,5.63,2.94,8.31.2.44,0,.96-.44,1.16-.12.05-.24.08-.36.08Z"/>
</svg>