<?xml version="1.0" encoding="UTF-8"?>
<svg id="Layer_1" data-name="Layer 1" xmlns="http://www.w3.org/2000/svg" viewBox="0 0 251 205">
  <defs>
    <style>
      .cls-1 {
        fill: #fff;
      }
    </style>
  </defs>
  <g id="Afmb6P">
    <g>
      <path d="M114.22,27.01c13.44-.63,28.73,2.73,41.59,6.5,20.42,5.99,42.56,15.39,50.82,36.66,11.69,30.11-12.5,63.93-33.28,83.73-10.35,9.86-26.93,23.04-41.72,23.77-5.03.25-9.79-.98-14.27-3.15-1.12,1.47-2.34,3.22-4.35,3.49-2.72.37-4.69-.97-6.61-2.68-2.49-2.23-4.78-4.96-3.18-8.5.54-1.2,1.53-2.02,2.3-3.01-8.52-15.69-1.1-37.39,14.2-45.85,6.07-3.36,11.17-5.69,16.4-10.53,6.55-6.07,13.79-18.05,13.66-27.19-.14-9.7-15.76-16.29-23.85-17.36-15.96-2.11-27.2,11.93-30.32,26.15-2.12,9.63,1.17,14.03,3.01,22.78,1.72,8.14-.57,17.05-4.87,24.04-5.73,9.31-16.52,14.94-27.46,14.77-.63,1.23-1.01,2.63-1.98,3.71-2.8,3.12-7.3,1.36-10.22-.64-3.67-2.51-4.59-5.6-2.32-9.6-5.33-5.3-9.2-11.79-10.19-19.36s.88-14.85,2.83-21.79c4.87-17.32,14.19-35.55,24.79-50.05,11.17-15.27,25.6-24.98,45.03-25.89ZM143.2,103.2c3.35-1.54,6.8-3,10.47-3.63,1.03-.18,4.17-.68,4.95-.22.1.06.29.21.33.31.49,1.08-2.54.83-3.04.88-3.51.39-7.07,1.38-10.26,2.88-5.65,2.66-8.78,7.04-13.78,10.49s-11.09,5.48-15.78,9.38c-9.01,7.5-13.79,21.39-11.13,32.87.81,3.51,2.49,7.05,5.12,9.54,7.9-2.24,15.53-6.08,22.72-10.02,12.41-6.81,25.03-15.58,35.82-24.74,16.82-14.28,30.39-31.67,37.9-52.63-4.77-25.43-29.52-36.23-51.81-42.7-21.95-6.37-47.11-11.14-67.35,2.44-7.35,4.93-16.28,14.21-19.91,22.32-9.04,20.19-11.37,42.68-6.36,64.31,1.92,8.28,5.06,16.89,11.07,23.07,8.07-1.5,15.33-6.23,19.64-13.23s6.2-14.57,4.54-22.34c-1.09-5.11-3.72-10.82-3.83-16.02-.04-1.78.29-2.96-.11-4.82-.74-3.44-2.79-7.54-5.2-10.1-.96-1.02-2.07-1.64-3.04-2.52-.32-.29-.9-.73-.47-1.17.68-.69,2.86,1.31,3.38,1.8,2.92,2.7,4.75,6.1,6.13,9.8.85-3.47,2.19-6.78,3.41-10.13-1.05-5.46-3.69-10.88-8.09-14.39-.57-.45-2.69-1.7-2.9-2.16-.23-.49.04-.96.6-.86.34.06,1.4.8,1.76,1.04,5.17,3.5,7.75,8.73,9.46,14.56.05.18-.07.22.25.18.88-2.18,2.56-3.93,3.82-5.85,1.51-2.3,1.39-4.82,1.11-7.49-.5-4.7-2.49-9.39-6.13-12.45-.41-.35-1.73-.96-1.68-1.56.15-1.61,2.82.83,3.26,1.24,4.63,4.33,6.23,11.22,5.81,17.38,1.83-1.8,3.72-3.52,5.87-4.93.36-.24,1.54-.77,1.71-.95.23-.24.62-1.79.7-2.21,1.08-5.14.2-11.65-2.11-16.36-.46-.94-2.14-3.3-2.13-4.18.01-.75.77-.59,1.18-.19.3.29,1.11,1.94,1.36,2.43,3.05,6.09,4.35,12.98,2.63,19.68,1.35-.31,2.66-.81,4.02-1.1,8.41-1.8,17.36,1.07,24.59,5.3,2.78,1.63,5.47,3.65,7.49,6.17.27.04.15-.04.19-.18.22-.74.32-1.57.57-2.34,2-6.43,6.45-11.96,12.75-14.56.8-.33,4.3-1.63,4.83-.74.68,1.13-1.69,1.08-2.22,1.2-8.15,1.86-13.87,10.01-15.03,17.98.91,1.76,1.62,3.61,1.77,5.61.69-.89,1.29-1.86,2.02-2.71,3.77-4.38,9.62-7.62,15.29-8.73.76-.15,3.46-.75,3.93-.13.96,1.26-2,1.05-2.46,1.1-5.42.64-12.59,4.38-16.01,8.65-.75.93-1.36,2.62-2.65,2.72-.27,3.82-1.18,7.51-2.41,11.12,3.87-3.36,8.36-6.05,13.5-6.92,1.41-.24,4.42-.53,5.75-.26.63.13,1.1.71.38,1.08-.63.33-2.73-.02-3.64.02-6.5.29-15.03,4.97-18.28,10.67-.56.98-.96,2.05-1.52,3.03-.84,1.47-1.91,2.79-2.76,4.26ZM70.76,148.08c-5.16-5.59-8.21-13.05-10.2-20.33-5.1-18.6-4.42-40.63,2.24-58.75.5-1.36,1.19-2.7,1.65-4.04.09-.27.32-.68.19-.95-8.05,12.84-14.55,26.87-18.49,41.56-1.77,6.62-3.24,13.41-2.02,20.28,2.18,12.27,13.4,24.02,26.64,22.23ZM173.72,150.41c16.46-16.17,35.23-42.09,33.7-66.36-.06-.88-.2-2.06-.57-2.85-3.75,9.21-8.62,17.97-14.37,26.08-12.19,17.19-31.26,32.35-49.04,43.5-10.14,6.36-20.91,12.34-32.35,16-.05.19.05.21.12.32.71,1.03,3.9,3.3,5.07,4.03,12.96,8.15,25.37,3.25,37.1-4.22,7.35-4.68,14.14-10.42,20.34-16.51ZM63.8,150.23c-3.73-.73-7.17-2.48-10.24-4.68-1.94,3.71.82,5.98,3.96,7.35,3.33,1.45,5.22,1.02,6.28-2.67ZM106.85,165.66c-1.08,1.28-2.36,2.58-1.73,4.39s4.52,5.52,6.41,5.73,2.95-.91,3.73-2.46c-1.75-1.4-3.68-2.63-5.31-4.18-1.13-1.08-2.01-2.36-3.1-3.48Z"/>
      <path class="cls-1" d="M143.2,103.2c.84-1.47,1.92-2.79,2.76-4.26.56-.98.96-2.05,1.52-3.03,3.26-5.69,11.79-10.37,18.28-10.67.91-.04,3.01.3,3.64-.02.72-.37.25-.95-.38-1.08-1.33-.27-4.34.02-5.75.26-5.14.86-9.63,3.56-13.5,6.92,1.23-3.61,2.14-7.3,2.41-11.12,1.29-.1,1.9-1.79,2.65-2.72,3.42-4.27,10.59-8.01,16.01-8.65.46-.05,3.42.15,2.46-1.1-.47-.61-3.17-.02-3.93.13-5.67,1.11-11.52,4.35-15.29,8.73-.74.86-1.33,1.83-2.02,2.71-.15-2-.86-3.85-1.77-5.61,1.16-7.97,6.88-16.12,15.03-17.98.53-.12,2.9-.06,2.22-1.2-.53-.89-4.02.41-4.83.74-6.3,2.6-10.74,8.13-12.75,14.56-.24.77-.34,1.61-.57,2.34-.04.14.08.22-.19.18-2.02-2.52-4.7-4.54-7.49-6.17-7.23-4.23-16.18-7.09-24.59-5.3-1.36.29-2.67.78-4.02,1.1,1.71-6.7.42-13.59-2.63-19.68-.25-.49-1.06-2.14-1.36-2.43-.41-.41-1.17-.56-1.18.19-.02.88,1.67,3.24,2.13,4.18,2.31,4.72,3.19,11.22,2.11,16.36-.09.42-.47,1.96-.7,2.21-.17.17-1.35.71-1.71.95-2.16,1.41-4.04,3.13-5.87,4.93.41-6.16-1.19-13.05-5.81-17.38-.44-.41-3.11-2.86-3.26-1.24-.06.6,1.27,1.22,1.68,1.56,3.64,3.06,5.64,7.75,6.13,12.45.28,2.67.4,5.19-1.11,7.49-1.26,1.92-2.94,3.67-3.82,5.85-.33.04-.2,0-.25-.18-1.71-5.83-4.29-11.06-9.46-14.56-.36-.24-1.42-.98-1.76-1.04-.56-.09-.82.38-.6.86.21.45,2.33,1.7,2.9,2.16,4.4,3.51,7.04,8.93,8.09,14.39-1.21,3.35-2.56,6.66-3.41,10.13-1.38-3.69-3.21-7.1-6.13-9.8-.53-.49-2.7-2.49-3.38-1.8-.43.44.15.88.47,1.17.96.89,2.08,1.51,3.04,2.52,2.41,2.56,4.46,6.66,5.2,10.1.4,1.86.07,3.04.11,4.82.11,5.2,2.74,10.9,3.83,16.02,1.66,7.77-.44,15.69-4.54,22.34-4.31,6.99-11.58,11.72-19.64,13.23-6-6.18-9.15-14.79-11.07-23.07-5.01-21.63-2.67-44.12,6.36-64.31,3.63-8.11,12.56-17.39,19.91-22.32,20.24-13.58,45.4-8.81,67.35-2.44,22.29,6.47,47.04,17.27,51.81,42.7-7.51,20.96-21.08,38.35-37.9,52.63-10.79,9.16-23.41,17.92-35.82,24.74-7.19,3.94-14.82,7.78-22.72,10.02-2.62-2.49-4.3-6.03-5.12-9.54-2.66-11.48,2.12-25.36,11.13-32.87,4.69-3.91,10.75-5.91,15.78-9.38s8.13-7.83,13.78-10.49c3.19-1.5,6.75-2.49,10.26-2.88.5-.06,3.53.2,3.04-.88-.04-.1-.23-.25-.33-.31-.78-.46-3.92.04-4.95.22-3.67.63-7.11,2.09-10.47,3.63Z"/>
      <path class="cls-1" d="M173.72,150.41c-6.2,6.09-12.99,11.83-20.34,16.51-11.73,7.47-24.13,12.37-37.1,4.22-1.17-.73-4.35-3-5.07-4.03-.07-.11-.18-.13-.12-.32,11.44-3.66,22.21-9.64,32.35-16,17.78-11.15,36.85-26.32,49.04-43.5,5.75-8.11,10.63-16.87,14.37-26.08.37.79.51,1.97.57,2.85,1.53,24.27-17.24,50.19-33.7,66.36Z"/>
      <path class="cls-1" d="M70.76,148.08c-13.24,1.79-24.45-9.95-26.64-22.23-1.22-6.87.25-13.66,2.02-20.28,3.93-14.69,10.44-28.73,18.49-41.56.13.27-.1.68-.19.95-.46,1.34-1.15,2.68-1.65,4.04-6.66,18.12-7.34,40.15-2.24,58.75,2,7.28,5.04,14.74,10.2,20.33Z"/>
      <path class="cls-1" d="M106.85,165.66c1.08,1.12,1.96,2.4,3.1,3.48,1.63,1.55,3.56,2.78,5.31,4.18-.78,1.55-1.86,2.66-3.73,2.46s-5.79-3.95-6.41-5.73.65-3.11,1.73-4.39Z"/>
      <path class="cls-1" d="M63.8,150.23c-1.06,3.7-2.95,4.12-6.28,2.67-3.14-1.37-5.9-3.65-3.96-7.35,3.06,2.2,6.51,3.95,10.24,4.68Z"/>
    </g>
  </g>
</svg>