<?xml version="1.0" encoding="UTF-8"?>
<svg id="Layer_1" data-name="Layer 1" xmlns="http://www.w3.org/2000/svg" viewBox="0 0 251 205">
  <defs>
    <style>
      .cls-1 {
        fill: #231f20;
      }

      .cls-2 {
        fill: #fff;
      }
    </style>
  </defs>
  <g>
    <g>
      <path class="cls-2" d="M174.42,88.54c-4.84,2.15-24.9,3.76-48.92,3.76s-44.08-1.61-48.92-3.76c-.73.26-1.11.53-1.11.81v59.62h.02c-.01.08-.02.15-.02.23,0,4.13,22.4,7.48,50.03,7.48s50.03-3.35,50.03-7.48c0-.08,0-.15-.02-.23h.02v-59.62c0-.28-.39-.55-1.11-.81Z"/>
      <path class="cls-1" d="M125.5,157.39c-19.84,0-49.09-2.06-50.68-7.71h-.04v-.25c-.02-.08-.02-.16-.02-.24,0-.04,0-.07,0-.11v-.11s0-59.62,0-59.62c0-.91,1.15-1.33,1.59-1.48l.27-.1.26.12c4.83,2.14,25.28,3.7,48.63,3.7s43.8-1.55,48.63-3.7l.26-.12.27.1c.43.16,1.59.57,1.59,1.48v60.33h-.07c-1.59,5.64-30.84,7.71-50.68,7.71ZM76.18,148.26h.15l-.14.85s-.01.06-.01.09c0,.92,2.96,2.93,14.05,4.58,9.42,1.41,21.94,2.18,35.27,2.18s25.86-.78,35.27-2.18c11.09-1.66,14.05-3.66,14.05-4.58,0-.03,0-.06-.01-.09l-.17-.85h.18v-58.74c-.06-.04-.18-.11-.39-.2-5.5,2.19-25.44,3.7-48.93,3.7s-43.44-1.52-48.93-3.7c-.21.09-.33.16-.39.2v58.74Z"/>
    </g>
    <g>
      <g>
        <path class="cls-2" d="M175.53,52.18c0,2.13-22.4,3.85-50.03,3.85s-50.03-1.73-50.03-3.85v35.36c0,2.63,22.4,4.76,50.03,4.76s50.03-2.13,50.03-4.76v-35.36Z"/>
        <path class="cls-1" d="M125.5,93.01c-13.39,0-25.98-.5-35.45-1.4-15.3-1.46-15.3-3.23-15.3-4.08v-35.36c0-.39.32-.71.71-.71.34,0,.62.23.7.55,1.57,1.4,19.37,3.3,49.34,3.3s47.77-1.9,49.34-3.3c.07-.32.36-.55.7-.55.39,0,.71.32.71.71v35.36c0,.85,0,2.62-15.3,4.08-9.47.9-22.06,1.4-35.45,1.4ZM76.18,87.48c1.19,1.69,19.3,4.11,49.32,4.11s48.13-2.42,49.32-4.11v-33.88c-1.72.65-5.52,1.37-13.89,2.01-9.47.73-22.05,1.13-35.43,1.13s-25.97-.4-35.43-1.13c-8.37-.64-12.16-1.36-13.89-2.01v33.88ZM174.82,52.17h0s0,0,0,0ZM76.18,52.17h0s0,0,0,0Z"/>
      </g>
      <g>
        <ellipse class="cls-2" cx="125.5" cy="52.18" rx="50.03" ry="3.85"/>
        <path class="cls-1" d="M125.5,56.74c-13.38,0-25.97-.4-35.43-1.13-15.31-1.18-15.31-2.59-15.31-3.44s0-2.26,15.31-3.44c9.47-.73,22.05-1.13,35.43-1.13s25.97.4,35.43,1.13c15.31,1.18,15.31,2.59,15.31,3.44s0,2.26-15.31,3.44c-9.47.73-22.05,1.13-35.43,1.13ZM76.42,52.18c2.71,1.38,20.28,3.14,49.08,3.14s46.37-1.76,49.08-3.14c-2.71-1.38-20.28-3.14-49.08-3.14s-46.37,1.76-49.08,3.14Z"/>
      </g>
    </g>
  </g>
  <g>
    <path d="M89.58,125.37c-.06-.2-.06-.4-.02-.59.05-.19.13-.35.25-.48.12-.13.28-.21.46-.25.18-.04.38,0,.6.11.19.1.35.24.48.41.13.17.29.31.48.43.26.16.53.28.81.37.2.07.39.12.59.15.2.03.4.06.62.08.16-.03.3-.06.42-.09.12-.03.25-.11.4-.23.17-.12.29-.27.35-.45.06-.18.08-.37.04-.55-.03-.18-.11-.36-.23-.52-.12-.16-.27-.27-.46-.34-.36-.15-.72-.28-1.08-.38-.36-.1-.71-.21-1.05-.33-.34-.12-.65-.28-.95-.48-.29-.2-.56-.47-.79-.81-.13-.19-.21-.35-.24-.49-.03-.14-.06-.31-.09-.52-.05-.5.03-.92.23-1.24.2-.32.45-.61.73-.87.37-.33.77-.57,1.2-.72.44-.15.89-.24,1.35-.26.47-.02.93.03,1.39.15.46.12.9.28,1.31.5.24.12.39.29.44.52.05.22.04.43-.04.64-.08.2-.21.36-.4.48-.19.12-.4.15-.64.09-.25-.07-.48-.14-.69-.22-.21-.08-.43-.14-.64-.2-.16-.04-.34-.07-.54-.06-.19,0-.38.02-.55.05-.18.03-.34.07-.49.11-.15.04-.27.09-.34.15-.09.06-.18.15-.27.26-.09.11-.14.23-.17.37-.04.17.02.32.16.45.15.13.31.22.48.29.34.1.69.2,1.05.3.36.1.71.22,1.06.37.35.15.67.33.96.54.29.21.54.48.74.8.22.29.37.6.45.95.08.35.09.69.04,1.03-.05.34-.16.66-.32.96-.16.3-.37.57-.64.78-.18.15-.37.28-.57.38-.2.1-.4.2-.62.3-.44.18-.91.25-1.4.21-.49-.04-.97-.15-1.45-.33-.48-.18-.92-.42-1.33-.71-.41-.29-.76-.6-1.03-.93-.03-.06-.06-.11-.1-.17Z"/>
    <path d="M99.87,126.74c-.05.22-.15.42-.31.58-.16.16-.34.26-.53.31-.2.05-.39.04-.57-.04-.19-.08-.32-.24-.41-.48-.04-.12-.07-.32-.07-.62,0-.3,0-.6.02-.92.01-.32.03-.62.06-.89.03-.27.04-.44.04-.5.08-1.08.16-2.16.24-3.23,0-.03.01-.19.03-.47.02-.28.04-.59.07-.92.03-.33.07-.66.12-.97.05-.31.11-.52.19-.63.1-.15.23-.25.37-.31.14-.06.28-.08.42-.06.14.02.28.07.41.15.13.08.24.2.33.35.04.05.07.12.1.19.03.07.04.14.04.2-.02.5-.06.98-.1,1.46-.04.48-.08.97-.12,1.46.39-.19.75-.41,1.09-.67.34-.25.67-.55.99-.88.08-.09.19-.22.34-.4.15-.18.3-.36.47-.55.17-.19.33-.36.5-.52.17-.16.31-.26.42-.31.23-.1.45-.13.66-.09.21.04.37.13.5.27.13.14.2.31.23.51.03.2-.03.41-.15.62-.05.09-.1.17-.15.22-.05.06-.1.11-.15.16-.05.05-.1.1-.16.16-.06.06-.11.13-.17.21-.15.21-.32.42-.52.63-.2.21-.41.42-.63.62-.22.2-.45.39-.68.57-.23.18-.45.36-.66.52.24.3.49.59.74.89.24.3.5.59.75.88.06.07.19.21.39.42.2.21.41.45.63.7.22.26.43.51.61.76.18.25.29.44.31.58.04.21.02.4-.06.58-.08.18-.21.32-.37.42-.16.11-.34.16-.54.16-.2,0-.39-.07-.57-.22-.08-.07-.17-.15-.25-.24-.09-.09-.16-.19-.24-.29-.07-.1-.15-.19-.21-.28-.07-.09-.13-.17-.18-.22-.47-.56-.93-1.1-1.38-1.64-.45-.54-.91-1.08-1.37-1.63-.05.02-.11.04-.18.06-.06.02-.12.04-.18.06-.04.53-.07,1.05-.09,1.57-.02.52-.04,1.05-.06,1.57,0,.04,0,.07,0,.11Z"/>
    <path d="M111.05,126.27c.27.02.5.11.67.27.17.16.28.33.33.53.05.2.02.39-.07.58-.09.19-.27.33-.54.42-.19.06-.42.1-.68.11-.26,0-.52,0-.78,0-.26-.02-.5-.04-.72-.06-.22-.03-.39-.04-.51-.05-.31-.01-.63-.03-.94-.04-.22-.01-.41-.08-.57-.21-.15-.13-.26-.27-.32-.44-.06-.17-.07-.34-.02-.53.05-.18.15-.35.32-.5.16-.14.35-.21.6-.22.24,0,.49,0,.73.03.09-2.05.19-4.09.28-6.14-.24-.01-.46-.02-.67-.04-.21-.01-.41-.1-.61-.26-.15-.12-.25-.26-.29-.41-.05-.15-.05-.3,0-.45.04-.15.12-.29.23-.42.11-.13.24-.22.4-.28.15-.05.3-.08.46-.07.53.03,1.06.05,1.59.06.53.02,1.07.04,1.61.07.05,0,.1.02.15.05.05.03.09.06.14.08.23.14.39.34.46.59.07.25.03.49-.12.73-.08.12-.17.21-.28.28-.11.06-.23.11-.36.13-.13.02-.26.03-.4.02-.14,0-.27-.01-.39-.02-.08,2.06-.17,4.11-.25,6.17.08,0,.16,0,.23,0,.07,0,.15,0,.23-.01h.11Z"/>
    <path d="M120.1,118.95c.07-.21.17-.37.31-.51.14-.13.3-.22.46-.26.17-.04.33-.03.5.04.17.06.32.19.44.38.04.05.08.12.11.19.04.07.05.14.05.2,0,1.48-.02,2.96-.08,4.43-.06,1.47-.13,2.95-.24,4.43,0,.24-.08.42-.24.56-.16.13-.33.21-.53.25-.2.03-.4,0-.6-.07-.2-.08-.35-.22-.44-.4-.01-.01-.02-.02-.02-.03,0,.01,0,.02,0,.03-.67-1.12-1.38-2.2-2.11-3.23-.74-1.04-1.5-2.07-2.29-3.09-.03,1.17-.07,2.34-.1,3.51-.01.48-.02.87-.03,1.19,0,.32-.02.58-.04.78-.02.2-.03.36-.05.47-.02.11-.05.21-.08.29-.1.25-.25.41-.45.48-.2.08-.4.09-.6.04-.2-.05-.37-.16-.52-.33-.14-.17-.21-.38-.2-.63,0-.14.01-.37.02-.68.01-.31.02-.66.04-1.06.01-.39.03-.81.04-1.26.02-.45.03-.89.04-1.33.01-.43.03-.84.03-1.22,0-.38.02-.7.02-.95.01-.35.02-.7.02-1.05,0-.35.01-.7.04-1.05,0-.18.06-.32.15-.45.09-.12.21-.21.34-.28.14-.06.28-.1.44-.1.16,0,.31.02.45.08.12.05.25.13.37.27.13.13.25.28.37.43.12.15.23.31.34.46.11.15.19.28.26.37.26.34.56.73.91,1.16.34.44.66.85.96,1.24.3.4.58.8.86,1.2.28.4.56.8.82,1.19.05-.94.08-1.88.11-2.81.03-.93.05-1.87.06-2.81,0-.03.01-.06.02-.09Z"/>
    <path d="M135.13,125.38c.16-.17.35-.27.57-.3.22-.03.41,0,.6.07.18.08.32.21.43.38.1.18.13.39.09.64-.06.25-.17.48-.35.7-.17.22-.35.42-.53.59-.4.43-.86.76-1.36.97-.5.21-1.01.32-1.53.31-.52,0-1.02-.11-1.52-.34-.5-.22-.94-.56-1.34-1.01-.24-.27-.43-.55-.6-.85-.16-.3-.29-.61-.37-.94-.13-.49-.19-.99-.18-1.52,0-.53.09-1.04.24-1.54.15-.5.37-.97.66-1.41.28-.44.63-.82,1.05-1.14.3-.23.6-.43.91-.6.3-.17.63-.33.97-.48.2-.09.4-.17.6-.25.21-.08.42-.15.64-.19.22-.04.43-.07.65-.06.22,0,.43.05.64.13.15.06.29.14.44.25.15.11.29.23.41.36.13.14.24.28.34.43.1.15.17.3.21.44.03.13.05.27.03.41-.01.14-.05.27-.12.38-.06.12-.15.21-.27.29-.11.08-.24.13-.39.16-.24.04-.43.01-.56-.07-.13-.08-.24-.18-.32-.3-.08-.12-.16-.24-.24-.36-.08-.12-.18-.2-.32-.25-.08,0-.15,0-.19.02-.35.1-.71.23-1.06.4-.36.17-.69.37-.99.6-.3.23-.57.5-.8.8-.23.3-.39.64-.49,1.01-.12.45-.16.9-.13,1.35.04.45.17.88.4,1.28.13.24.3.44.51.61.21.17.45.3.7.39.26.08.52.11.78.08.26-.03.52-.13.76-.29.21-.15.4-.33.56-.55.16-.22.31-.43.45-.65Z"/>
    <path d="M146.51,127.26c-.02.23-.09.43-.21.59-.12.17-.26.28-.42.36-.16.07-.34.09-.53.05-.19-.04-.37-.15-.53-.34-.15-.16-.23-.34-.26-.54-.03-.2-.06-.4-.11-.59-.13-.56-.31-1.14-.54-1.73-.65.04-1.3.07-1.95.1-.64.03-1.29.05-1.93.09-.09.27-.16.55-.22.83-.06.28-.12.56-.17.83-.05.21-.09.43-.12.65-.04.22-.13.42-.27.59-.17.21-.37.33-.57.37-.21.03-.39,0-.56-.08-.17-.09-.3-.23-.41-.42-.11-.19-.15-.41-.12-.66.02-.32.08-.64.16-.95.09-.31.17-.63.24-.94.42-1.79.98-3.53,1.66-5.22.06-.15.12-.29.18-.43.06-.14.12-.27.18-.41.07-.15.13-.3.2-.47.07-.17.15-.32.24-.47.09-.14.21-.27.34-.37.13-.1.29-.16.49-.17.26-.01.48.06.66.22.73.67,1.35,1.44,1.85,2.31.5.86.95,1.75,1.36,2.65.22-.02.43-.03.65-.03.21,0,.4.08.58.25.15.14.25.29.28.45.03.16.03.32-.02.48-.05.16-.14.3-.26.42-.13.12-.28.21-.47.26.12.36.23.72.33,1.09.1.37.18.75.26,1.13,0,.04,0,.07,0,.11ZM143.09,123.19c-.22-.46-.45-.91-.69-1.36-.24-.45-.51-.88-.81-1.28-.19.46-.37.92-.54,1.38-.17.46-.32.92-.46,1.39.49-.03.93-.05,1.3-.06.37-.01.77-.04,1.2-.06Z"/>
    <path d="M149.74,127.14c-.02.26-.12.48-.3.65-.18.18-.38.29-.6.35-.22.06-.43.05-.62-.04-.19-.08-.3-.26-.33-.54-.12-1.18-.21-2.41-.28-3.69-.07-1.27-.14-2.54-.2-3.8-.17-.05-.3-.14-.39-.26-.09-.12-.15-.25-.17-.4-.02-.15-.01-.3.03-.46.04-.16.12-.3.21-.42.11-.13.26-.25.45-.37.19-.11.4-.22.63-.32.23-.1.45-.19.68-.26.22-.07.41-.13.57-.17.64-.17,1.3-.21,1.97-.11.67.1,1.27.31,1.8.64.53.33.94.77,1.23,1.33.29.56.37,1.22.22,1.98-.05.21-.11.42-.19.64-.08.21-.18.41-.29.6-.16.28-.35.53-.58.76-.23.22-.48.43-.75.63.21.19.42.4.61.61.19.21.41.41.64.58.09.07.22.17.4.31.17.14.35.3.51.46.17.16.31.33.44.49.13.16.19.3.19.41,0,.2-.04.38-.13.55-.09.17-.2.3-.34.4-.14.1-.29.15-.46.17-.17.01-.34-.03-.52-.13-.2-.13-.39-.29-.58-.47-.18-.18-.36-.35-.53-.51-.37-.35-.74-.7-1.1-1.06-.36-.35-.72-.7-1.09-1.04-.21.05-.42.1-.64.12-.22.03-.43.06-.64.09.04.73.09,1.47.13,2.2,0,.04,0,.07,0,.11ZM152.1,119.47c-.43-.22-.9-.33-1.39-.33-.5,0-.97.1-1.41.29.07,1.17.14,2.33.2,3.5.47-.06.93-.15,1.38-.26.45-.12.86-.34,1.23-.66.2-.18.36-.38.47-.61.12-.23.18-.46.19-.7.01-.23-.04-.46-.14-.68-.1-.22-.28-.4-.53-.55Z"/>
    <path d="M162.64,124.63c.19,0,.36.03.51.1.15.08.28.17.38.28.1.11.17.25.2.41.03.16.01.32-.06.5-.03.08-.08.17-.17.27-.09.11-.18.18-.26.2-.66.26-1.35.44-2.06.55-.71.11-1.42.16-2.13.14-.2,0-.42,0-.66,0-.24,0-.46-.05-.64-.15-.35-.18-.53-.46-.56-.84-.17-2.2-.34-4.39-.51-6.59-.12-.07-.22-.17-.3-.29-.08-.12-.14-.25-.16-.38-.03-.14-.02-.27.02-.41.04-.13.12-.25.24-.35.19-.18.42-.31.69-.39.26-.08.52-.15.78-.21.53-.13,1.07-.21,1.6-.26.54-.05,1.09-.1,1.64-.16.17-.01.36-.05.57-.09.22-.05.41-.05.58,0,.2.05.37.15.5.3.13.14.21.3.25.48.04.17.02.35-.05.52-.07.17-.21.32-.42.43-.25.13-.52.2-.82.22-.3.02-.58.04-.85.06-.39.03-.79.08-1.18.12-.39.04-.79.11-1.18.19.06.72.12,1.43.18,2.15.38-.01.76-.04,1.13-.09.38-.05.75-.11,1.12-.17.17-.02.33-.06.5-.09.16-.04.34-.05.52-.05.23.01.42.09.56.23.14.14.23.31.28.5.04.19.03.38-.05.57-.08.19-.22.34-.42.44-.17.09-.41.16-.71.23-.3.06-.62.12-.95.16-.33.04-.66.08-.99.11-.33.03-.6.05-.82.05.05.63.1,1.27.16,1.9.59.02,1.17-.01,1.76-.12.59-.1,1.16-.25,1.72-.45.04,0,.07,0,.11-.01Z"/>
  </g>
</svg>